<svg xmlns="http://www.w3.org/2000/svg" viewBox="820 1370 200 200">
  <style>
    path { fill: #18181b; }
    @media (prefers-color-scheme: dark) {
      path { fill: #fafafa; }
    }
  </style>
  <path d="M974.78,1398.211c-5.016,6.574-10.034,13.146-15.048,19.721c-1.828,2.398-3.657,4.796-5.487,7.194c1.994,1.719,3.958,3.51,5.873,5.424c18.724,18.731,28.089,41.216,28.089,67.459c0,26.251-9.366,48.658-28.089,67.237c-18.731,18.579-41.215,27.868-67.459,27.868c-9.848,0-19.156-1.308-27.923-3.923l-4.185,3.354c-8.587,6.885-17.154,13.796-25.725,20.702c17.52,8.967,36.86,13.487,58.054,13.487c35.533,0,65.91-12.608,91.124-37.821c25.214-25.215,37.821-55.584,37.821-91.125c0-35.534-12.607-65.911-37.821-91.126C981.004,1403.663,977.926,1400.854,974.78,1398.211z"/>
</svg>
