<svg xmlns="http://www.w3.org/2000/svg" viewBox="0 0 54.5 53.11"><defs><style>.cls-1{fill:#dd821f;}.cls-2{fill:#ffd85a;}.cls-3{fill:#f9bf30;}.cls-4{fill:#f2b42a;}</style></defs><title>coin-3</title><g id="Capa_2" data-name="Capa 2"><g id="Ñëîé_1" data-name="Ñëîé 1"><polygon class="cls-1" points="0.01 28.49 0.21 23.32 1.41 20.29 2.18 22.8 0.01 28.49"/><path class="cls-2" d="M54.3,29.48l.2-5.08s-4.29,4.28-4.29,4.39S54.3,29.48,54.3,29.48Z"/><path class="cls-2" d="M26.78,44.54c-15-.36-26.89-8-26.57-21.21S12.94-.35,27.93,0,54.81,11.39,54.5,24.62,41.77,44.89,26.78,44.54Z"/><ellipse class="cls-2" cx="27.15" cy="29.14" rx="23.97" ry="27.15" transform="translate(-2.64 55.59) rotate(-88.63)"/><path class="cls-1" d="M8.21,11.88A22.55,22.55,0,0,0,0,28.49C-.31,41.73,11.58,52.75,26.58,53.11a29,29,0,0,0,19.2-6.43Z"/><ellipse class="cls-3" cx="27.15" cy="29.14" rx="22.9" ry="25.94" transform="translate(-2.64 55.59) rotate(-88.63)"/><ellipse class="cls-4" cx="27.15" cy="29.14" rx="18.38" ry="20.82" transform="translate(-2.64 55.59) rotate(-88.63)"/><path class="cls-2" d="M48,29.64c0-.42,0-.84,0-1.25C47,37.94,37.79,45.29,26.77,45S6.91,37,6.41,27.4c0,.41-.07.83-.08,1.25-.24,10.15,8.88,18.6,20.38,18.88S47.72,39.79,48,29.64Z"/><path class="cls-2" d="M31.14,30.69l-4.27-4c-4.11.93-11.78,2.68-17.9,4.12A17.45,17.45,0,0,0,19.06,41.22Z"/><path class="cls-2" d="M24.42,42.62c.68.08,1.37.14,2.07.15a20,20,0,0,0,13-4.3l-7-6.46Z"/><path class="cls-2" d="M22.29,22.5l-8-7.45c-2.71,2.36-5.12,5-5.78,8.45Z"/><path class="cls-1" d="M26.5,13c11.5.28,20.62,8.73,20.38,18.88a16.41,16.41,0,0,1-1.24,5.85A16.57,16.57,0,0,0,48,29.64c.24-10.15-8.88-18.6-20.38-18.88-9.17-.22-17.07,4.83-20,12C11.1,16.79,18.3,12.77,26.5,13Z"/><path class="cls-1" d="M.21,23.32a17.85,17.85,0,0,0,.23,5.24c.6-1.94,1.89-7.75,1.89-7.75l2.07-4.62,1.72-1.42L9,12.65,9.28,6A22.71,22.71,0,0,0,.21,23.32Z"/><path class="cls-1" d="M52.74,22.64l.11-1.36a.34.34,0,0,1,.34-.35h.1a.34.34,0,0,1,.32.36l-.11,1.36a.34.34,0,0,1-.34.35h-.1A.34.34,0,0,1,52.74,22.64Z"/><path class="cls-1" d="M50.36,17.42,50.5,15a.39.39,0,0,1,.39-.39h.24a.39.39,0,0,1,.37.41l-.14,2.45a.39.39,0,0,1-.39.39h-.24A.39.39,0,0,1,50.36,17.42Z"/><path class="cls-1" d="M47.05,12.86l.14-2.38a.44.44,0,0,1,.44-.45H48a.44.44,0,0,1,.42.47l-.14,2.38a.44.44,0,0,1-.44.45h-.42A.44.44,0,0,1,47.05,12.86Z"/><path class="cls-1" d="M42.1,9.18l.15-2.88a.44.44,0,0,1,.44-.45h.42a.44.44,0,0,1,.42.47l-.15,2.88a.44.44,0,0,1-.44.45h-.42A.44.44,0,0,1,42.1,9.18Z"/><path class="cls-1" d="M37.12,6.76l.16-3.32A.44.44,0,0,1,37.72,3h.42a.44.44,0,0,1,.42.47L38.4,6.79a.44.44,0,0,1-.44.45h-.42A.44.44,0,0,1,37.12,6.76Z"/><path class="cls-1" d="M32.12,5.29l.16-3.19a.44.44,0,0,1,.44-.45h.42a.44.44,0,0,1,.42.47l-.16,3.19a.44.44,0,0,1-.44.45h-.42A.44.44,0,0,1,32.12,5.29Z"/><path class="cls-1" d="M27.1,4.78l.16-3.24a.44.44,0,0,1,.44-.45h.42a.44.44,0,0,1,.42.47l-.16,3.24a.44.44,0,0,1-.44.45h-.42A.44.44,0,0,1,27.1,4.78Z"/><path class="cls-1" d="M22.06,4.89l.15-3a.44.44,0,0,1,.44-.45h.42a.44.44,0,0,1,.42.47l-.15,3a.44.44,0,0,1-.44.45h-.42A.44.44,0,0,1,22.06,4.89Z"/><path class="cls-1" d="M17,6l.15-2.94a.44.44,0,0,1,.44-.45H18a.44.44,0,0,1,.42.47L18.26,6a.44.44,0,0,1-.44.45h-.42A.44.44,0,0,1,17,6Z"/><path class="cls-1" d="M11.9,8.47l.16-3.18a.44.44,0,0,1,.44-.45h.42a.44.44,0,0,1,.42.47L13.17,8.5a.44.44,0,0,1-.44.45h-.42A.44.44,0,0,1,11.9,8.47Z"/></g></g></svg>