<svg xmlns="http://www.w3.org/2000/svg" viewBox="0 0 52.97 50.89"><defs><style>.cls-1{fill:#dd821f;}.cls-2{fill:#ffd85a;}.cls-3{fill:#f9bf30;}.cls-4{fill:#f2b42a;}</style></defs><title>coin-1</title><g id="Capa_2" data-name="Capa 2"><g id="Ñëîé_1" data-name="Ñëîé 1"><polygon class="cls-1" points="4.35 38.88 1.4 31.89 2.57 31.72 4.14 33.45 4.35 38.88"/><path class="cls-2" d="M51.47,18.74l-2.91-6.92s-.9,7.85-.86,7.94S51.47,18.74,51.47,18.74Z"/><ellipse class="cls-2" cx="25.01" cy="21.95" rx="25.62" ry="21.22" transform="translate(-6.56 11.43) rotate(-22.83)"/><ellipse class="cls-2" cx="27.96" cy="28.94" rx="25.62" ry="21.22" transform="translate(-9.04 13.12) rotate(-22.83)"/><path class="cls-1" d="M5.36,22.31a19.48,19.48,0,0,0-1,16.57C8.9,49.69,23.16,54,36.2,48.5A28.46,28.46,0,0,0,50.39,35.91Z"/><ellipse class="cls-3" cx="27.96" cy="28.94" rx="24.48" ry="20.28" transform="translate(-9.04 13.12) rotate(-22.83)"/><ellipse class="cls-4" cx="27.96" cy="28.94" rx="19.65" ry="16.28" transform="translate(-9.04 13.12) rotate(-22.83)"/><path class="cls-2" d="M46.07,21.32c-.14-.34-.31-.67-.48-1C48.25,28.39,43,37.87,33.42,41.9s-20,1.17-24-6.38c.11.35.24.7.38,1,3.49,8.29,14.43,11.59,24.43,7.38S49.56,29.6,46.07,21.32Z"/><path class="cls-2" d="M32,28.65l-5.12-1.55c-3.2,2.34-9.16,6.7-13.91,10.22a16,16,0,0,0,12.46,4.48Z"/><path class="cls-2" d="M30.52,40.87c.61-.2,1.23-.42,1.84-.67A19.6,19.6,0,0,0,42,31.69l-8.35-2.52Z"/><path class="cls-2" d="M21.36,25.45l-9.64-2.91c-1.47,3-2.6,6-1.9,9Z"/><path class="cls-1" d="M21.51,16.13c10-4.21,20.94-.91,24.43,7.38A13.74,13.74,0,0,1,47,28.71a14,14,0,0,0-.93-7.39C42.58,13,31.65,9.73,21.64,13.94,13.67,17.3,8.7,24.42,8.78,31.37,9.64,25.16,14.37,19.14,21.51,16.13Z"/><path class="cls-1" d="M1.4,31.89A17.82,17.82,0,0,0,4,36.27c-.19-1.8-.49-4.48-.49-4.48l.1-4.52,1-1.81,1.74-2.84L2.9,14.41C-.22,19.93-1,26.24,1.4,31.89Z"/><rect class="cls-1" x="46.79" y="9.32" width="0.72" height="4.84" rx="0.31" ry="0.31" transform="translate(-0.86 19.22) rotate(-22.83)"/><rect class="cls-1" x="42.63" y="5.01" width="0.94" height="5.9" rx="0.36" ry="0.36" transform="translate(0.29 17.35) rotate(-22.84)"/><rect class="cls-1" x="38.13" y="2.57" width="1.2" height="5.92" rx="0.4" ry="0.4" transform="translate(0.89 15.46) rotate(-22.83)"/><rect class="cls-1" x="32.44" y="1.08" width="1.2" height="6.37" rx="0.4" ry="0.4" transform="translate(0.93 13.16) rotate(-22.83)"/><rect class="cls-1" x="27.19" y="0.68" width="1.2" height="6.76" rx="0.4" ry="0.4" transform="translate(0.6 11.1) rotate(-22.83)"/><rect class="cls-1" x="22.37" y="1.53" width="1.2" height="6.64" rx="0.4" ry="0.4" transform="translate(-0.08 9.29) rotate(-22.83)"/><rect class="cls-1" x="17.85" y="3.02" width="1.2" height="6.68" rx="0.4" ry="0.4" transform="matrix(0.92, -0.39, 0.39, 0.92, -1.02, 7.66)"/><rect class="cls-1" x="13.59" y="5.22" width="1.2" height="6.5" rx="0.4" ry="0.4" transform="translate(-2.18 6.17) rotate(-22.83)"/><rect class="cls-1" x="9.64" y="8.15" width="1.2" height="6.42" rx="0.4" ry="0.4" transform="translate(-3.6 4.87) rotate(-22.84)"/><rect class="cls-1" x="6.11" y="11.9" width="1.2" height="6.63" rx="0.4" ry="0.4" transform="translate(-5.38 3.8) rotate(-22.83)"/></g></g></svg>