<svg xmlns="http://www.w3.org/2000/svg" viewBox="0 0 50.2 52.28"><defs><style>.cls-1{fill:#dd821f;}.cls-2{fill:#ffd85a;}.cls-3{fill:#f9bf30;}.cls-4{fill:#f2b42a;}</style></defs><title>coin-2</title><g id="Capa_2" data-name="Capa 2"><g id="Ñëîé_1" data-name="Ñëîé 1"><polygon class="cls-1" points="33.05 50.79 25.56 52.03 25.67 50.86 27.72 49.73 33.05 50.79"/><path class="cls-2" d="M24.37.29,17,1.52S24.4,4.21,24.49,4.2,24.37.29,24.37.29Z"/><ellipse class="cls-2" cx="21.36" cy="26.76" rx="21.22" ry="25.62" transform="translate(-4.1 3.87) rotate(-9.44)"/><ellipse class="cls-2" cx="28.85" cy="25.52" rx="21.22" ry="25.62" transform="translate(-3.8 5.08) rotate(-9.44)"/><path class="cls-1" d="M17.16,46A19.49,19.49,0,0,0,33,50.79C44.61,48.86,52.1,36,49.78,22a28.46,28.46,0,0,0-9-16.72Z"/><ellipse class="cls-3" cx="28.85" cy="25.52" rx="20.28" ry="24.48" transform="matrix(0.99, -0.16, 0.16, 0.99, -3.8, 5.08)"/><ellipse class="cls-4" cx="28.85" cy="25.52" rx="16.28" ry="19.65" transform="translate(-3.8 5.08) rotate(-9.44)"/><path class="cls-2" d="M25.62,6.13c-.37.06-.73.14-1.08.23C33,5.65,41,12.95,42.72,23.21S39.21,43,31,45c.37,0,.73-.07,1.1-.13,8.87-1.48,14.61-11.35,12.83-22.05S34.49,4.66,25.62,6.13Z"/><path class="cls-2" d="M29.49,21.55,26.8,26.17c1.53,3.66,4.4,10.47,6.72,15.9A16,16,0,0,0,40.77,31Z"/><path class="cls-2" d="M41,25.78c0-.64-.12-1.29-.23-1.94a19.6,19.6,0,0,0-6-11.38L30.39,20Z"/><path class="cls-2" d="M23.92,31.13l-5.07,8.71c2.53,2.11,5.22,3.92,8.36,3.94Z"/><path class="cls-1" d="M14.89,28.83c-1.78-10.71,4-20.58,12.83-22.05A13.74,13.74,0,0,1,33,6.94a14,14,0,0,0-7.41-.81C16.75,7.61,11,17.48,12.79,28.19c1.42,8.54,7.2,15,14,16.55C20.92,42.46,16.16,36.47,14.89,28.83Z"/><path class="cls-1" d="M25.56,52a17.82,17.82,0,0,0,4.87-1.56L26,49.91l-4.38-1.14L20,47.41l-2.36-2.35L8.9,46.53C13.55,50.84,19.51,53,25.56,52Z"/><rect class="cls-1" x="14.13" y="2.5" width="4.84" height="0.72" rx="0.31" ry="0.31" transform="translate(-0.25 2.76) rotate(-9.44)"/><rect class="cls-1" x="8.99" y="5.45" width="5.9" height="0.94" rx="0.36" ry="0.36" transform="translate(-0.81 2.04) rotate(-9.44)"/><rect class="cls-1" x="5.61" y="9.02" width="5.92" height="1.2" rx="0.4" ry="0.4" transform="translate(-1.46 1.54) rotate(-9.44)"/><rect class="cls-1" x="2.83" y="14.26" width="6.37" height="1.2" rx="0.4" ry="0.4" transform="translate(-2.36 1.19) rotate(-9.44)"/><rect class="cls-1" x="1.22" y="19.31" width="6.76" height="1.2" rx="0.4" ry="0.4" transform="translate(-3.21 1.02) rotate(-9.44)"/><rect class="cls-1" x="0.93" y="24.19" width="6.64" height="1.2" rx="0.4" ry="0.4" transform="translate(-4.01 1.03) rotate(-9.44)"/><rect class="cls-1" x="1.33" y="28.94" width="6.68" height="1.2" rx="0.4" ry="0.4" transform="translate(-4.78 1.17) rotate(-9.44)"/><rect class="cls-1" x="2.49" y="33.58" width="6.5" height="1.2" rx="0.4" ry="0.4" transform="translate(-5.53 1.41) rotate(-9.44)"/><rect class="cls-1" x="4.43" y="38.08" width="6.42" height="1.2" rx="0.4" ry="0.4" transform="translate(-6.24 1.78) rotate(-9.44)"/><rect class="cls-1" x="7.26" y="42.41" width="6.63" height="1.2" rx="0.4" ry="0.4" transform="translate(-6.91 2.32) rotate(-9.44)"/></g></g></svg>