<svg xmlns="http://www.w3.org/2000/svg" xmlns:xlink="http://www.w3.org/1999/xlink" viewBox="0 0 229.67 258.42"><defs><style>.cls-1,.cls-45{opacity:0.3;}.cls-2{fill:url(#Áåçûìÿííûé_ãðàäèåíò_3);}.cls-3{fill:url(#Áåçûìÿííûé_ãðàäèåíò_3-2);}.cls-4{fill:#fff;}.cls-5{fill:url(#Áåçûìÿííûé_ãðàäèåíò_3-3);}.cls-6{fill:url(#Áåçûìÿííûé_ãðàäèåíò_267);}.cls-7{fill:url(#Áåçûìÿííûé_ãðàäèåíò_24);}.cls-8{fill:url(#Áåçûìÿííûé_ãðàäèåíò_3-4);}.cls-9{fill:url(#Áåçûìÿííûé_ãðàäèåíò_3-5);}.cls-10{fill:url(#Áåçûìÿííûé_ãðàäèåíò_3-6);}.cls-11{fill:url(#Áåçûìÿííûé_ãðàäèåíò_267-2);}.cls-12{fill:url(#Áåçûìÿííûé_ãðàäèåíò_24-2);}.cls-13{fill:url(#Áåçûìÿííûé_ãðàäèåíò_3-7);}.cls-14{fill:url(#Áåçûìÿííûé_ãðàäèåíò_3-8);}.cls-15{fill:url(#Áåçûìÿííûé_ãðàäèåíò_3-9);}.cls-16{fill:url(#Áåçûìÿííûé_ãðàäèåíò_267-3);}.cls-17{fill:url(#Áåçûìÿííûé_ãðàäèåíò_24-3);}.cls-18{fill:url(#Áåçûìÿííûé_ãðàäèåíò_3-10);}.cls-19{fill:url(#Áåçûìÿííûé_ãðàäèåíò_3-11);}.cls-20{fill:url(#Áåçûìÿííûé_ãðàäèåíò_3-12);}.cls-21{fill:url(#Áåçûìÿííûé_ãðàäèåíò_267-4);}.cls-22{fill:url(#Áåçûìÿííûé_ãðàäèåíò_24-4);}.cls-23{fill:url(#Áåçûìÿííûé_ãðàäèåíò_3-13);}.cls-24{fill:url(#Áåçûìÿííûé_ãðàäèåíò_3-14);}.cls-25{fill:url(#Áåçûìÿííûé_ãðàäèåíò_3-15);}.cls-26{fill:url(#Áåçûìÿííûé_ãðàäèåíò_267-5);}.cls-27{fill:url(#Áåçûìÿííûé_ãðàäèåíò_24-5);}.cls-28{fill:url(#Áåçûìÿííûé_ãðàäèåíò_3-16);}.cls-29{fill:url(#Áåçûìÿííûé_ãðàäèåíò_3-17);}.cls-30{fill:url(#Áåçûìÿííûé_ãðàäèåíò_3-18);}.cls-31{fill:url(#Áåçûìÿííûé_ãðàäèåíò_267-6);}.cls-32{fill:url(#Áåçûìÿííûé_ãðàäèåíò_24-6);}.cls-33{fill:url(#Áåçûìÿííûé_ãðàäèåíò_3-19);}.cls-34{fill:url(#Áåçûìÿííûé_ãðàäèåíò_3-20);}.cls-35{fill:url(#Áåçûìÿííûé_ãðàäèåíò_3-21);}.cls-36{fill:url(#Áåçûìÿííûé_ãðàäèåíò_267-7);}.cls-37{fill:url(#Áåçûìÿííûé_ãðàäèåíò_24-7);}.cls-38{fill:url(#Áåçûìÿííûé_ãðàäèåíò_3-22);}.cls-39{fill:url(#Áåçûìÿííûé_ãðàäèåíò_3-23);}.cls-40{fill:url(#Áåçûìÿííûé_ãðàäèåíò_3-24);}.cls-41{fill:url(#Áåçûìÿííûé_ãðàäèåíò_267-8);}.cls-42{fill:url(#Áåçûìÿííûé_ãðàäèåíò_24-8);}.cls-43{fill:url(#Áåçûìÿííûé_ãðàäèåíò_3-25);}.cls-44{fill:url(#Áåçûìÿííûé_ãðàäèåíò_3-26);}.cls-45{fill:url(#Áåçûìÿííûé_ãðàäèåíò_24-9);}.cls-46{fill:url(#Áåçûìÿííûé_ãðàäèåíò_3-27);}.cls-47{fill:url(#Áåçûìÿííûé_ãðàäèåíò_267-9);}.cls-48{fill:url(#Áåçûìÿííûé_ãðàäèåíò_24-10);}.cls-49{fill:url(#Áåçûìÿííûé_ãðàäèåíò_3-28);}.cls-50{fill:url(#Áåçûìÿííûé_ãðàäèåíò_3-29);}.cls-51{fill:url(#Áåçûìÿííûé_ãðàäèåíò_3-30);}.cls-52{fill:url(#Áåçûìÿííûé_ãðàäèåíò_267-10);}.cls-53{fill:url(#Áåçûìÿííûé_ãðàäèåíò_24-11);}.cls-54{fill:url(#Áåçûìÿííûé_ãðàäèåíò_3-31);}.cls-55{fill:url(#Áåçûìÿííûé_ãðàäèåíò_3-32);}.cls-56{fill:url(#Áåçûìÿííûé_ãðàäèåíò_3-33);}.cls-57{fill:url(#Áåçûìÿííûé_ãðàäèåíò_267-11);}.cls-58{fill:url(#Áåçûìÿííûé_ãðàäèåíò_24-12);}.cls-59{fill:url(#Áåçûìÿííûé_ãðàäèåíò_3-34);}.cls-60{fill:url(#Áåçûìÿííûé_ãðàäèåíò_251);}.cls-61{fill:url(#Áåçûìÿííûé_ãðàäèåíò_267-12);}.cls-62{fill:url(#Áåçûìÿííûé_ãðàäèåíò_3-35);}.cls-63{fill:url(#Áåçûìÿííûé_ãðàäèåíò_251-2);}.cls-64{fill:url(#Áåçûìÿííûé_ãðàäèåíò_267-13);}.cls-65{fill:#160a5b;}.cls-66{fill:#24126a;}.cls-67{fill:#4846a5;}.cls-68{fill:#fcd1c5;}.cls-69{fill:#453c9e;}.cls-70{fill:url(#Áåçûìÿííûé_ãðàäèåíò_19);}.cls-71{fill:#f0f6ff;}.cls-72{fill:#aa8383;}.cls-73{fill:#c4ccd6;}.cls-74{fill:#e2b1a6;}.cls-75{fill:#1b2b3a;}.cls-76{fill:#936d6d;}.cls-77{fill:url(#Áåçûìÿííûé_ãðàäèåíò_19-2);}.cls-78{fill:url(#Áåçûìÿííûé_ãðàäèåíò_19-3);}.cls-79{fill:url(#Áåçûìÿííûé_ãðàäèåíò_19-4);}.cls-80{fill:url(#Áåçûìÿííûé_ãðàäèåíò_19-5);}.cls-81{fill:url(#Áåçûìÿííûé_ãðàäèåíò_19-6);}.cls-82{fill:url(#Áåçûìÿííûé_ãðàäèåíò_19-7);}.cls-83{fill:#722318;}.cls-84{fill:url(#Áåçûìÿííûé_ãðàäèåíò_19-8);}.cls-85{fill:url(#Áåçûìÿííûé_ãðàäèåíò_19-9);}</style><linearGradient id="Áåçûìÿííûé_ãðàäèåíò_3" x1="1888.62" y1="100.16" x2="1940.03" y2="100.16" gradientTransform="matrix(-1, 0, 0, 1, 1956.35, 0)" gradientUnits="userSpaceOnUse"><stop offset="0" stop-color="#c0bff6"/><stop offset="0.29" stop-color="#c5c4f7"/><stop offset="0.64" stop-color="#d3d2f9"/><stop offset="1" stop-color="#e9e9fd"/></linearGradient><linearGradient id="Áåçûìÿííûé_ãðàäèåíò_3-2" x1="1434.28" y1="-566.81" x2="1477.75" y2="-566.81" gradientTransform="matrix(-0.87, 0.5, 0.87, 0.5, 1793.78, -403.67)" xlink:href="#Áåçûìÿííûé_ãðàäèåíò_3"/><linearGradient id="Áåçûìÿííûé_ãðàäèåíò_3-3" x1="1907.44" y1="107.59" x2="1933.15" y2="107.59" xlink:href="#Áåçûìÿííûé_ãðàäèåíò_3"/><linearGradient id="Áåçûìÿííûé_ãðàäèåíò_267" x1="1933.15" y1="98.18" x2="1940.03" y2="98.18" gradientTransform="matrix(-1, 0, 0, 1, 1956.35, 0)" gradientUnits="userSpaceOnUse"><stop offset="0" stop-color="#e9e9fd"/><stop offset="0.36" stop-color="#d3d2f9"/><stop offset="0.71" stop-color="#c5c4f7"/><stop offset="1" stop-color="#c0bff6"/></linearGradient><linearGradient id="Áåçûìÿííûé_ãðàäèåíò_24" x1="1888.62" y1="104.14" x2="1907.44" y2="104.14" gradientTransform="matrix(-1, 0, 0, 1, 1956.35, 0)" gradientUnits="userSpaceOnUse"><stop offset="0" stop-color="#5761d7"/><stop offset="0.18" stop-color="#5c66d9"/><stop offset="0.39" stop-color="#6a73df"/><stop offset="0.61" stop-color="#8289e8"/><stop offset="0.85" stop-color="#a3a7f5"/><stop offset="1" stop-color="#bcbeff"/></linearGradient><linearGradient id="Áåçûìÿííûé_ãðàäèåíò_3-4" x1="1848.13" y1="131.97" x2="1899.55" y2="131.97" xlink:href="#Áåçûìÿííûé_ãðàäèåíò_3"/><linearGradient id="Áåçûìÿííûé_ãðàäèåíò_3-5" x1="1452.42" y1="-501.92" x2="1495.89" y2="-501.92" gradientTransform="matrix(-0.87, 0.5, 0.87, 0.5, 1793.78, -403.67)" xlink:href="#Áåçûìÿííûé_ãðàäèåíò_3"/><linearGradient id="Áåçûìÿííûé_ãðàäèåíò_3-6" x1="1866.95" y1="139.39" x2="1892.66" y2="139.39" xlink:href="#Áåçûìÿííûé_ãðàäèåíò_3"/><linearGradient id="Áåçûìÿííûé_ãðàäèåíò_267-2" x1="1892.66" y1="129.98" x2="1899.55" y2="129.98" xlink:href="#Áåçûìÿííûé_ãðàäèåíò_267"/><linearGradient id="Áåçûìÿííûé_ãðàäèåíò_24-2" x1="1848.13" y1="135.94" x2="1866.95" y2="135.94" xlink:href="#Áåçûìÿííûé_ãðàäèåíò_24"/><linearGradient id="Áåçûìÿííûé_ãðàäèåíò_3-7" x1="1807.65" y1="165.93" x2="1859.06" y2="165.93" xlink:href="#Áåçûìÿííûé_ãðàäèåíò_3"/><linearGradient id="Áåçûìÿííûé_ãðàäèåíò_3-8" x1="1473.13" y1="-434.46" x2="1516.59" y2="-434.46" gradientTransform="matrix(-0.87, 0.5, 0.87, 0.5, 1793.78, -403.67)" xlink:href="#Áåçûìÿííûé_ãðàäèåíò_3"/><linearGradient id="Áåçûìÿííûé_ãðàäèåíò_3-9" x1="1826.47" y1="173.35" x2="1852.17" y2="173.35" xlink:href="#Áåçûìÿííûé_ãðàäèåíò_3"/><linearGradient id="Áåçûìÿííûé_ãðàäèåíò_267-3" x1="1852.17" y1="163.94" x2="1859.06" y2="163.94" xlink:href="#Áåçûìÿííûé_ãðàäèåíò_267"/><linearGradient id="Áåçûìÿííûé_ãðàäèåíò_24-3" x1="1807.65" y1="169.91" x2="1826.47" y2="169.91" xlink:href="#Áåçûìÿííûé_ãðàäèåíò_24"/><linearGradient id="Áåçûìÿííûé_ãðàäèåíò_3-10" x1="1767.16" y1="193.7" x2="1818.58" y2="193.7" xlink:href="#Áåçûìÿííûé_ãðàäèåíò_3"/><linearGradient id="Áåçûìÿííûé_ãðàäèåíò_3-11" x1="1481.45" y1="-379.39" x2="1524.91" y2="-379.39" gradientTransform="matrix(-0.87, 0.5, 0.87, 0.5, 1793.78, -403.67)" xlink:href="#Áåçûìÿííûé_ãðàäèåíò_3"/><linearGradient id="Áåçûìÿííûé_ãðàäèåíò_3-12" x1="1785.98" y1="201.12" x2="1811.69" y2="201.12" xlink:href="#Áåçûìÿííûé_ãðàäèåíò_3"/><linearGradient id="Áåçûìÿííûé_ãðàäèåíò_267-4" x1="1811.69" y1="191.71" x2="1818.58" y2="191.71" xlink:href="#Áåçûìÿííûé_ãðàäèåíò_267"/><linearGradient id="Áåçûìÿííûé_ãðàäèåíò_24-4" x1="1767.16" y1="197.68" x2="1785.98" y2="197.68" xlink:href="#Áåçûìÿííûé_ãðàäèåíò_24"/><linearGradient id="Áåçûìÿííûé_ãðàäèåíò_3-13" x1="1726.67" y1="224.97" x2="1778.09" y2="224.97" xlink:href="#Áåçûìÿííûé_ãðàäèåíò_3"/><linearGradient id="Áåçûìÿííûé_ãðàäèåíò_3-14" x1="1496.76" y1="-317.32" x2="1540.23" y2="-317.32" gradientTransform="matrix(-0.87, 0.5, 0.87, 0.5, 1793.78, -403.67)" xlink:href="#Áåçûìÿííûé_ãðàäèåíò_3"/><linearGradient id="Áåçûìÿííûé_ãðàäèåíò_3-15" x1="1745.49" y1="232.39" x2="1771.2" y2="232.39" xlink:href="#Áåçûìÿííûé_ãðàäèåíò_3"/><linearGradient id="Áåçûìÿííûé_ãðàäèåíò_267-5" x1="1771.2" y1="222.98" x2="1778.09" y2="222.98" xlink:href="#Áåçûìÿííûé_ãðàäèåíò_267"/><linearGradient id="Áåçûìÿííûé_ãðàäèåíò_24-5" x1="1726.67" y1="228.95" x2="1745.49" y2="228.95" xlink:href="#Áåçûìÿííûé_ãðàäèåíò_24"/><linearGradient id="Áåçûìÿííûé_ãðàäèåíò_3-16" x1="1888.62" y1="63.78" x2="1940.03" y2="63.78" xlink:href="#Áåçûìÿííûé_ãðàäèåíò_3"/><linearGradient id="Áåçûìÿííûé_ãðàäèåíò_3-17" x1="1408.19" y1="-592.9" x2="1451.65" y2="-592.9" gradientTransform="matrix(-0.87, 0.5, 0.87, 0.5, 1793.78, -403.67)" xlink:href="#Áåçûìÿííûé_ãðàäèåíò_3"/><linearGradient id="Áåçûìÿííûé_ãðàäèåíò_3-18" x1="1907.44" y1="71.2" x2="1933.15" y2="71.2" xlink:href="#Áåçûìÿííûé_ãðàäèåíò_3"/><linearGradient id="Áåçûìÿííûé_ãðàäèåíò_267-6" x1="1933.15" y1="61.79" x2="1940.03" y2="61.79" xlink:href="#Áåçûìÿííûé_ãðàäèåíò_267"/><linearGradient id="Áåçûìÿííûé_ãðàäèåíò_24-6" x1="1888.62" y1="67.76" x2="1907.44" y2="67.76" xlink:href="#Áåçûìÿííûé_ãðàäèåíò_24"/><linearGradient id="Áåçûìÿííûé_ãðàäèåíò_3-19" x1="1848.13" y1="96.46" x2="1899.55" y2="96.46" xlink:href="#Áåçûìÿííûé_ãðàäèåíò_3"/><linearGradient id="Áåçûìÿííûé_ãðàäèåíò_3-20" x1="1426.33" y1="-528.01" x2="1469.79" y2="-528.01" gradientTransform="matrix(-0.87, 0.5, 0.87, 0.5, 1793.78, -403.67)" xlink:href="#Áåçûìÿííûé_ãðàäèåíò_3"/><linearGradient id="Áåçûìÿííûé_ãðàäèåíò_3-21" x1="1866.95" y1="103.88" x2="1892.66" y2="103.88" xlink:href="#Áåçûìÿííûé_ãðàäèåíò_3"/><linearGradient id="Áåçûìÿííûé_ãðàäèåíò_267-7" x1="1892.66" y1="94.47" x2="1899.55" y2="94.47" xlink:href="#Áåçûìÿííûé_ãðàäèåíò_267"/><linearGradient id="Áåçûìÿííûé_ãðàäèåíò_24-7" x1="1848.13" y1="100.44" x2="1866.95" y2="100.44" xlink:href="#Áåçûìÿííûé_ãðàäèåíò_24"/><linearGradient id="Áåçûìÿííûé_ãðàäèåíò_3-22" x1="1807.65" y1="130.43" x2="1859.06" y2="130.43" xlink:href="#Áåçûìÿííûé_ãðàäèåíò_3"/><linearGradient id="Áåçûìÿííûé_ãðàäèåíò_3-23" x1="1447.03" y1="-460.55" x2="1490.5" y2="-460.55" gradientTransform="matrix(-0.87, 0.5, 0.87, 0.5, 1793.78, -403.67)" xlink:href="#Áåçûìÿííûé_ãðàäèåíò_3"/><linearGradient id="Áåçûìÿííûé_ãðàäèåíò_3-24" x1="1826.47" y1="137.85" x2="1852.17" y2="137.85" xlink:href="#Áåçûìÿííûé_ãðàäèåíò_3"/><linearGradient id="Áåçûìÿííûé_ãðàäèåíò_267-8" x1="1852.17" y1="128.44" x2="1859.06" y2="128.44" xlink:href="#Áåçûìÿííûé_ãðàäèåíò_267"/><linearGradient id="Áåçûìÿííûé_ãðàäèåíò_24-8" x1="1807.65" y1="134.4" x2="1826.47" y2="134.4" xlink:href="#Áåçûìÿííûé_ãðàäèåíò_24"/><linearGradient id="Áåçûìÿííûé_ãðàäèåíò_3-25" x1="1767.16" y1="158.2" x2="1818.58" y2="158.2" xlink:href="#Áåçûìÿííûé_ãðàäèåíò_3"/><linearGradient id="Áåçûìÿííûé_ãðàäèåíò_3-26" x1="1455.36" y1="-405.48" x2="1498.82" y2="-405.48" gradientTransform="matrix(-0.87, 0.5, 0.87, 0.5, 1793.78, -403.67)" xlink:href="#Áåçûìÿííûé_ãðàäèåíò_3"/><linearGradient id="Áåçûìÿííûé_ãðàäèåíò_24-9" x1="1462.5" y1="-405.48" x2="1491.67" y2="-405.48" gradientTransform="matrix(-0.87, 0.5, 0.87, 0.5, 1793.78, -403.67)" xlink:href="#Áåçûìÿííûé_ãðàäèåíò_24"/><linearGradient id="Áåçûìÿííûé_ãðàäèåíò_3-27" x1="1785.98" y1="165.62" x2="1811.69" y2="165.62" xlink:href="#Áåçûìÿííûé_ãðàäèåíò_3"/><linearGradient id="Áåçûìÿííûé_ãðàäèåíò_267-9" x1="1811.69" y1="156.21" x2="1818.58" y2="156.21" xlink:href="#Áåçûìÿííûé_ãðàäèåíò_267"/><linearGradient id="Áåçûìÿííûé_ãðàäèåíò_24-10" x1="1767.16" y1="162.18" x2="1785.98" y2="162.18" xlink:href="#Áåçûìÿííûé_ãðàäèåíò_24"/><linearGradient id="Áåçûìÿííûé_ãðàäèåíò_3-28" x1="1767.16" y1="118.92" x2="1818.58" y2="118.92" xlink:href="#Áåçûìÿííûé_ãðàäèåíò_3"/><linearGradient id="Áåçûìÿííûé_ãðàäèåíò_3-29" x1="1431.38" y1="-429.46" x2="1474.84" y2="-429.46" gradientTransform="matrix(-0.87, 0.5, 0.87, 0.5, 1793.78, -403.67)" xlink:href="#Áåçûìÿííûé_ãðàäèåíò_3"/><linearGradient id="Áåçûìÿííûé_ãðàäèåíò_3-30" x1="1785.98" y1="126.34" x2="1811.69" y2="126.34" xlink:href="#Áåçûìÿííûé_ãðàäèåíò_3"/><linearGradient id="Áåçûìÿííûé_ãðàäèåíò_267-10" x1="1811.69" y1="116.93" x2="1818.58" y2="116.93" xlink:href="#Áåçûìÿííûé_ãðàäèåíò_267"/><linearGradient id="Áåçûìÿííûé_ãðàäèåíò_24-11" x1="1767.16" y1="122.89" x2="1785.98" y2="122.89" xlink:href="#Áåçûìÿííûé_ãðàäèåíò_24"/><linearGradient id="Áåçûìÿííûé_ãðàäèåíò_3-31" x1="1726.67" y1="189.47" x2="1778.09" y2="189.47" xlink:href="#Áåçûìÿííûé_ãðàäèåíò_3"/><linearGradient id="Áåçûìÿííûé_ãðàäèåíò_3-32" x1="1470.67" y1="-343.42" x2="1514.13" y2="-343.42" gradientTransform="matrix(-0.87, 0.5, 0.87, 0.5, 1793.78, -403.67)" xlink:href="#Áåçûìÿííûé_ãðàäèåíò_3"/><linearGradient id="Áåçûìÿííûé_ãðàäèåíò_3-33" x1="1745.49" y1="196.89" x2="1771.2" y2="196.89" xlink:href="#Áåçûìÿííûé_ãðàäèåíò_3"/><linearGradient id="Áåçûìÿííûé_ãðàäèåíò_267-11" x1="1771.2" y1="187.48" x2="1778.09" y2="187.48" xlink:href="#Áåçûìÿííûé_ãðàäèåíò_267"/><linearGradient id="Áåçûìÿííûé_ãðàäèåíò_24-12" x1="1726.67" y1="193.44" x2="1745.49" y2="193.44" xlink:href="#Áåçûìÿííûé_ãðàäèåíò_24"/><linearGradient id="Áåçûìÿííûé_ãðàäèåíò_3-34" x1="-1393.15" y1="1833.81" x2="-1315.33" y2="1833.81" gradientTransform="matrix(0.87, 0.5, -0.87, 0.5, 2818.25, -14)" xlink:href="#Áåçûìÿííûé_ãðàäèåíò_3"/><linearGradient id="Áåçûìÿííûé_ãðàäèåíò_251" x1="-2252.39" y1="225.17" x2="-2193.05" y2="225.17" gradientTransform="translate(2264.08)" gradientUnits="userSpaceOnUse"><stop offset="0.35" stop-color="#bcbeff"/><stop offset="0.44" stop-color="#b5b8fc"/><stop offset="0.57" stop-color="#a3a7f5"/><stop offset="0.72" stop-color="#848be9"/><stop offset="0.88" stop-color="#5a64d8"/><stop offset="0.89" stop-color="#5761d7"/></linearGradient><linearGradient id="Áåçûìÿííûé_ãðàäèåíò_267-12" x1="-1403.11" y1="1824.85" x2="-1323.28" y2="1824.85" gradientTransform="matrix(0.87, 0.5, -0.87, 0.5, 2818.25, -14)" xlink:href="#Áåçûìÿííûé_ãðàäèåíò_267"/><linearGradient id="Áåçûìÿííûé_ãðàäèåíò_3-35" x1="-1416.9" y1="1810.06" x2="-1339.08" y2="1810.06" gradientTransform="matrix(0.87, 0.5, -0.87, 0.5, 2818.25, -14)" xlink:href="#Áåçûìÿííûé_ãðàäèåíò_3"/><linearGradient id="Áåçûìÿííûé_ãðàäèåíò_251-2" x1="-2252.39" y1="201.42" x2="-2193.05" y2="201.42" xlink:href="#Áåçûìÿííûé_ãðàäèåíò_251"/><linearGradient id="Áåçûìÿííûé_ãðàäèåíò_267-13" x1="-1426.86" y1="1801.1" x2="-1347.03" y2="1801.1" gradientTransform="matrix(0.87, 0.5, -0.87, 0.5, 2818.25, -14)" xlink:href="#Áåçûìÿííûé_ãðàäèåíò_267"/><linearGradient id="Áåçûìÿííûé_ãðàäèåíò_19" x1="58.05" y1="141.01" x2="73.32" y2="141.01" gradientTransform="translate(-11.65)" gradientUnits="userSpaceOnUse"><stop offset="0" stop-color="#5761d7"/><stop offset="0.07" stop-color="#5472d8"/><stop offset="0.28" stop-color="#4e9cdb"/><stop offset="0.48" stop-color="#49bddd"/><stop offset="0.67" stop-color="#45d5df"/><stop offset="0.85" stop-color="#43e3e0"/><stop offset="1" stop-color="#42e8e0"/></linearGradient><linearGradient id="Áåçûìÿííûé_ãðàäèåíò_19-2" x1="80.34" y1="199.9" x2="89.23" y2="199.9" xlink:href="#Áåçûìÿííûé_ãðàäèåíò_19"/><linearGradient id="Áåçûìÿííûé_ãðàäèåíò_19-3" x1="91.63" y1="132.91" x2="93.03" y2="132.91" xlink:href="#Áåçûìÿííûé_ãðàäèåíò_19"/><linearGradient id="Áåçûìÿííûé_ãðàäèåíò_19-4" x1="71.14" y1="177.98" x2="93.62" y2="177.98" xlink:href="#Áåçûìÿííûé_ãðàäèåíò_19"/><linearGradient id="Áåçûìÿííûé_ãðàäèåíò_19-5" x1="92.7" y1="153.24" x2="98.62" y2="153.24" xlink:href="#Áåçûìÿííûé_ãðàäèåíò_19"/><linearGradient id="Áåçûìÿííûé_ãðàäèåíò_19-6" x1="60.25" y1="195.71" x2="77.66" y2="195.71" xlink:href="#Áåçûìÿííûé_ãðàäèåíò_19"/><linearGradient id="Áåçûìÿííûé_ãðàäèåíò_19-7" x1="69.92" y1="190.57" x2="72.14" y2="190.57" xlink:href="#Áåçûìÿííûé_ãðàäèåíò_19"/><linearGradient id="Áåçûìÿííûé_ãðàäèåíò_19-8" x1="65.58" y1="186.77" x2="67.8" y2="186.77" xlink:href="#Áåçûìÿííûé_ãðàäèåíò_19"/><linearGradient id="Áåçûìÿííûé_ãðàäèåíò_19-9" x1="69.81" y1="168.56" x2="86.88" y2="168.56" xlink:href="#Áåçûìÿííûé_ãðàäèåíò_19"/></defs><title>main-shape</title><g id="Capa_2" data-name="Capa 2"><g id="Ñëîé_1" data-name="Ñëîé 1"><g class="cls-1"><polygon class="cls-2" points="24.76 48.37 16.31 36.96 23.2 159.39 48.91 163.37 67.73 44.91 24.76 48.37"/><polygon class="cls-3" points="16.31 36.96 35.13 26.09 60.84 30.07 67.73 44.91 48.91 55.78 23.2 51.8 16.31 36.96"/><polygon class="cls-4" points="16.82 36.67 23.44 50.95 49.15 54.92 67.47 44.35 67.73 44.91 48.91 55.78 23.2 51.8 16.31 36.96 16.82 36.67"/><polygon class="cls-5" points="23.2 51.8 23.2 159.39 48.91 163.37 48.91 55.78 23.2 51.8"/><polygon class="cls-6" points="16.31 36.96 16.31 144.55 23.2 159.39 23.2 51.8 16.31 36.96"/><polygon class="cls-7" points="67.73 44.91 67.73 152.5 48.91 163.37 48.91 55.78 67.73 44.91"/><polygon class="cls-8" points="65.25 89.88 56.8 78.47 63.69 181.48 89.4 185.46 108.22 86.43 65.25 89.88"/><polygon class="cls-9" points="56.8 78.47 75.62 67.61 101.33 71.59 108.22 86.43 89.4 97.3 63.69 93.32 56.8 78.47"/><polygon class="cls-4" points="57.3 78.18 63.93 92.46 89.64 96.44 107.95 85.86 108.22 86.43 89.4 97.3 63.69 93.32 56.8 78.47 57.3 78.18"/><polygon class="cls-10" points="63.69 93.32 63.69 181.48 89.4 185.46 89.4 97.3 63.69 93.32"/><polygon class="cls-11" points="56.8 78.47 56.8 166.63 63.69 181.48 63.69 93.32 56.8 78.47"/><polygon class="cls-12" points="108.22 86.43 108.22 174.59 89.4 185.46 89.4 97.3 108.22 86.43"/><polygon class="cls-13" points="105.73 133.96 97.28 122.56 104.17 205.33 129.88 209.3 148.7 130.51 105.73 133.96"/><polygon class="cls-14" points="97.28 122.56 116.11 111.69 141.81 115.67 148.7 130.51 129.88 141.38 104.17 137.4 97.28 122.56"/><polygon class="cls-4" points="97.79 122.26 104.42 136.54 130.12 140.52 148.44 129.94 148.7 130.51 129.88 141.38 104.17 137.4 97.28 122.56 97.79 122.26"/><polygon class="cls-15" points="104.17 137.4 104.17 205.33 129.88 209.3 129.88 141.38 104.17 137.4"/><polygon class="cls-16" points="97.28 122.56 97.28 190.48 104.17 205.33 104.17 137.4 97.28 122.56"/><polygon class="cls-17" points="148.7 130.51 148.7 198.44 129.88 209.3 129.88 141.38 148.7 130.51"/><polygon class="cls-18" points="146.22 165.66 137.77 154.25 144.66 229.17 170.37 233.15 189.19 162.21 146.22 165.66"/><polygon class="cls-19" points="137.77 154.25 156.59 143.39 182.3 147.36 189.19 162.21 170.37 173.07 144.66 169.09 137.77 154.25"/><polygon class="cls-4" points="138.28 153.96 144.9 168.24 170.61 172.22 188.93 161.64 189.19 162.21 170.37 173.07 144.66 169.09 137.77 154.25 138.28 153.96"/><polygon class="cls-20" points="144.66 169.09 144.66 229.17 170.37 233.15 170.37 173.07 144.66 169.09"/><polygon class="cls-21" points="137.77 154.25 137.77 214.33 144.66 229.17 144.66 169.09 137.77 154.25"/><polygon class="cls-22" points="189.19 162.21 189.19 222.28 170.37 233.15 170.37 173.07 189.19 162.21"/><polygon class="cls-23" points="186.7 204.35 178.26 192.94 185.15 253.02 210.85 257 229.67 200.9 186.7 204.35"/><polygon class="cls-24" points="178.26 192.94 197.08 182.08 222.78 186.05 229.67 200.9 210.85 211.76 185.15 207.79 178.26 192.94"/><polygon class="cls-4" points="178.76 192.65 185.39 206.93 211.1 210.91 229.41 200.33 229.67 200.9 210.85 211.76 185.15 207.79 178.26 192.94 178.76 192.65"/><polygon class="cls-25" points="185.15 207.79 185.15 253.02 210.85 257 210.85 211.76 185.15 207.79"/><polygon class="cls-26" points="178.26 192.94 178.26 238.18 185.15 253.02 185.15 207.79 178.26 192.94"/><polygon class="cls-27" points="229.67 200.9 229.67 246.13 210.85 257 210.85 211.76 229.67 200.9"/></g><polygon class="cls-28" points="24.76 22.27 16.31 10.87 23.2 112.72 48.91 116.69 67.73 18.82 24.76 22.27"/><polygon class="cls-29" points="16.31 10.87 35.13 0 60.84 3.98 67.73 18.82 48.91 29.69 23.2 25.71 16.31 10.87"/><polygon class="cls-4" points="16.82 10.57 23.44 24.85 49.15 28.83 67.47 18.26 67.73 18.82 48.91 29.69 23.2 25.71 16.31 10.87 16.82 10.57"/><polygon class="cls-30" points="23.2 25.71 23.2 112.72 48.91 116.69 48.91 29.69 23.2 25.71"/><polygon class="cls-31" points="16.31 10.87 16.31 97.88 23.2 112.72 23.2 25.71 16.31 10.87"/><polygon class="cls-32" points="67.73 18.82 67.73 105.83 48.91 116.69 48.91 29.69 67.73 18.82"/><polygon class="cls-33" points="65.25 63.79 56.8 52.38 63.69 136.56 89.4 140.54 108.22 60.34 65.25 63.79"/><polygon class="cls-34" points="56.8 52.38 75.62 41.52 101.33 45.49 108.22 60.34 89.4 71.2 63.69 67.22 56.8 52.38"/><polygon class="cls-4" points="57.3 52.09 63.93 66.37 89.64 70.35 107.95 59.77 108.22 60.34 89.4 71.2 63.69 67.22 56.8 52.38 57.3 52.09"/><polygon class="cls-35" points="63.69 67.22 63.69 136.56 89.4 140.54 89.4 71.2 63.69 67.22"/><polygon class="cls-36" points="56.8 52.38 56.8 121.72 63.69 136.56 63.69 67.22 56.8 52.38"/><polygon class="cls-37" points="108.22 60.34 108.22 129.68 89.4 140.54 89.4 71.2 108.22 60.34"/><polygon class="cls-38" points="105.73 107.87 97.28 96.46 104.17 160.41 129.88 164.39 148.7 104.42 105.73 107.87"/><polygon class="cls-39" points="97.28 96.46 116.11 85.6 141.81 89.57 148.7 104.42 129.88 115.28 104.17 111.31 97.28 96.46"/><polygon class="cls-4" points="97.79 96.17 104.42 110.45 130.12 114.43 148.44 103.85 148.7 104.42 129.88 115.28 104.17 111.31 97.28 96.46 97.79 96.17"/><polygon class="cls-40" points="104.17 111.31 104.17 160.41 129.88 164.39 129.88 115.28 104.17 111.31"/><polygon class="cls-41" points="97.28 96.46 97.28 145.57 104.17 160.41 104.17 111.31 97.28 96.46"/><polygon class="cls-42" points="148.7 104.42 148.7 153.52 129.88 164.39 129.88 115.28 148.7 104.42"/><polygon class="cls-43" points="146.22 139.57 137.77 128.16 144.66 184.26 170.37 188.24 189.19 136.11 146.22 139.57"/><polygon class="cls-44" points="137.77 128.16 156.59 117.29 182.3 121.27 189.19 136.11 170.37 146.98 144.66 143 137.77 128.16"/><polygon class="cls-45" points="146.22 129.47 158.85 122.17 176.11 124.84 180.74 134.81 168.1 142.1 150.85 139.43 146.22 129.47"/><polygon class="cls-4" points="138.28 127.87 144.9 142.15 170.61 146.12 188.93 135.55 189.19 136.11 170.37 146.98 144.66 143 137.77 128.16 138.28 127.87"/><polygon class="cls-46" points="144.66 143 144.66 184.26 170.37 188.24 170.37 146.98 144.66 143"/><polygon class="cls-47" points="137.77 128.16 137.77 169.42 144.66 184.26 144.66 143 137.77 128.16"/><polygon class="cls-48" points="189.19 136.11 189.19 177.37 170.37 188.24 170.37 146.98 189.19 136.11"/><polygon class="cls-49" points="146.22 115.59 137.77 104.18 144.66 129.67 170.37 133.65 189.19 112.14 146.22 115.59"/><polygon class="cls-50" points="137.77 104.18 156.59 93.32 182.3 97.3 189.19 112.14 170.37 123 144.66 119.03 137.77 104.18"/><polygon class="cls-4" points="138.28 103.89 144.9 118.17 170.61 122.15 188.93 111.57 189.19 112.14 170.37 123 144.66 119.03 137.77 104.18 138.28 103.89"/><polygon class="cls-51" points="144.66 119.03 144.66 129.67 170.37 133.65 170.37 123 144.66 119.03"/><polygon class="cls-52" points="137.77 104.18 137.77 114.83 144.66 129.67 144.66 119.03 137.77 104.18"/><polygon class="cls-53" points="189.19 112.14 189.19 122.78 170.37 133.65 170.37 123 189.19 112.14"/><polygon class="cls-54" points="186.7 178.26 178.26 166.85 185.15 208.11 210.85 212.09 229.67 174.8 186.7 178.26"/><polygon class="cls-55" points="178.26 166.85 197.08 155.98 222.78 159.96 229.67 174.8 210.85 185.67 185.15 181.69 178.26 166.85"/><polygon class="cls-4" points="178.76 166.56 185.39 180.84 211.1 184.81 229.41 174.24 229.67 174.8 210.85 185.67 185.15 181.69 178.26 166.85 178.76 166.56"/><polygon class="cls-56" points="185.15 181.69 185.15 208.11 210.85 212.09 210.85 185.67 185.15 181.69"/><polygon class="cls-57" points="178.26 166.85 178.26 193.27 185.15 208.11 185.15 181.69 178.26 166.85"/><polygon class="cls-58" points="229.67 174.8 229.67 201.22 210.85 212.09 210.85 185.67 229.67 174.8"/><g class="cls-1"><path class="cls-59" d="M66.14,257.79l-64-37.17c-.88-.51-.77-1.4.25-2l42.82-24.72a3.84,3.84,0,0,1,3.45-.14l64,37.17c.88.51.77,1.4-.25,2L69.59,257.65A3.84,3.84,0,0,1,66.14,257.79Z"/><path class="cls-60" d="M114.8,223l-15-1L48.54,192.27a4,4,0,0,0-3.56.15L11.87,211.54,0,210.77V219H0a1,1,0,0,0,.6.89l65.65,38.12a4,4,0,0,0,3.56-.15l44.11-25.47a1.48,1.48,0,0,0,.86-1.12h0Z"/><path class="cls-61" d="M66.26,249.72.62,211.6c-.91-.53-.8-1.45.26-2.05L45,184.08a4,4,0,0,1,3.56-.15L114.18,222c.91.53.8,1.45-.26,2.05L69.82,249.57A4,4,0,0,1,66.26,249.72Z"/></g><path class="cls-62" d="M66.14,234l-64-37.17c-.88-.51-.77-1.4.25-2l42.82-24.72a3.84,3.84,0,0,1,3.45-.14l64,37.17c.88.51.77,1.4-.25,2L69.59,233.9A3.84,3.84,0,0,1,66.14,234Z"/><path class="cls-63" d="M114.8,199.29l-15-1L48.54,168.52a4,4,0,0,0-3.56.15L11.87,187.79,0,187v8.28H0a1,1,0,0,0,.6.89l65.65,38.12a4,4,0,0,0,3.56-.15l44.11-25.47a1.48,1.48,0,0,0,.86-1.12h0Z"/><path class="cls-64" d="M66.26,226,.62,187.85c-.91-.53-.8-1.45.26-2.05L45,160.33a4,4,0,0,1,3.56-.15l65.65,38.12c.91.53.8,1.45-.26,2.05L69.82,225.82A4,4,0,0,1,66.26,226Z"/><path class="cls-65" d="M55.4,178.38l.06.29.09-.19a4,4,0,0,1,.06,2.22,17.6,17.6,0,0,1-1.71,2.69c-.79,1-2,3.19-2.38,3.61a8.13,8.13,0,0,1-4.66,2.27c-2.41.25-3-1.13-2.82-1.87a16.65,16.65,0,0,1,2.9-4.33,21.52,21.52,0,0,0,2.49-3.68Z"/><path class="cls-65" d="M48.17,171.84a11.08,11.08,0,0,1-.09,2.18c-.16.63-3.7.83-5,1A18.15,18.15,0,0,0,39,176.41c-.68.34-5.28.82-5.84-.87s2.3-3.11,4.24-3.56,5.11-1.42,5.11-1.42Z"/><path class="cls-66" d="M60.42,141.29a43.21,43.21,0,0,1-1.32,10.3,40.56,40.56,0,0,0-1.27,10.15s1.51,6.76.18,11.37S55.56,179,55.56,179a4,4,0,0,1-6.14.36A55.48,55.48,0,0,0,51.62,168a34.21,34.21,0,0,1-2.32-7s-.5,5.25-.8,7.38c0,0,.3,3.12-.53,4.38s-4.58,1.63-5.77-.56,1-1.12.33-11.19c0,0-3.45-4.3-3.95-12.22s-.45-11,0-12.59,8.1-7.1,8.1-7.1L51,134.59Z"/><path class="cls-65" d="M43.4,150.12c-1.24-1.49-1.94-6.17-1.94-6.17s1.94,3.93,3.34,5.08A9.45,9.45,0,0,1,47.63,154c.25,1.49,1.66,7,1.66,7s-.5,5.25-.8,7.38c0,0,.3,3.12-.53,4.38a1.94,1.94,0,0,1-.82.64c0-.06.21-7,0-9.88S44.65,151.61,43.4,150.12Z"/><path class="cls-67" d="M71.91,109.37s3.3,6.44,3.63,6.94,6.5,8.36,7.1,12.91c0,0,.46,1.76-1.66,3.32S68.14,140.9,67.48,141s-4.55-1.79-4.71-6c0,0,8.39-3.92,10.22-5.87,0,0-3.27-5.49-4.87-7.11a3.73,3.73,0,0,1-.76-2,11,11,0,0,1,3.58-9.68Z"/><path class="cls-66" d="M47.26,94.28s-5.1,1.89-6.84,1.24-6-1.19-9-2.84-15.76-5-17.66-5.07c0,0,0,.07.28.21a2.39,2.39,0,0,1,2,1.74A4.73,4.73,0,0,1,15.42,93c-.22.12-.34-.41-1.57-1a4.78,4.78,0,0,0-2-.53l-.46.59-.28.43a2.89,2.89,0,0,0,2.25,1.93C15,94.55,25.57,99,26.23,99.16s9.52,4,11.18,4.61a19.35,19.35,0,0,1,3,1.36s5.18-3.45,5.34-3.45S47.26,94.28,47.26,94.28Z"/><path class="cls-68" d="M1.13,85.47c.22,0,2.89.95,2.89.95S3,87,2.86,87.44a16.56,16.56,0,0,0,.32,3.35,3.81,3.81,0,0,0,.81.63c.17.1.58,1,1,.91a.88.88,0,0,0,.5-.6l.39-.21a6.7,6.7,0,0,1,2.63.52,4.33,4.33,0,0,0,2.66.44,11.59,11.59,0,0,0,1.65-.72,4.14,4.14,0,0,1,1,.29c.37.19,1.53,1,1.7,1s2.55-4.6-1.7-5.48a10.37,10.37,0,0,1-2.53-.52c-.76-.37-2.92-2-3.72-2.06a5.26,5.26,0,0,0-1.61.23S1.13,83.89.73,84.32.92,85.42,1.13,85.47Zm3.48,3.2a1.33,1.33,0,0,0,1-.58A.66.66,0,0,0,6.33,88c0,.09.66.21.66.21s.3.25.67.52-.12,1.08-.12,1.08a2.44,2.44,0,0,1-1.14-.32,6.8,6.8,0,0,0-.91-.24A5.61,5.61,0,0,1,4.61,88.67Z"/><path class="cls-65" d="M38.58,136.18c.45-1.54,8.1-7.1,8.1-7.1l2.14,2.74L50.65,139l9.77,3h0s-.52,4.89-8.47,4.33-8.89-6.74-8.89-6.74-.88,2-4.8,2.56A21.85,21.85,0,0,1,38.58,136.18Z"/><path class="cls-69" d="M62.23,98.29l1.34,3.45s6.48,5.6,8.33,7.63A39.09,39.09,0,0,0,68.11,122a40.44,40.44,0,0,0-3.86,3.53c-.9,1.11-3.16,6.25-3.88,7.95s1.29,6.79,1.29,6.79-2.75,5.08-7.18,4.92-7.45-2.87-8-7.68-.4-5.51-.4-5.51-2,5.91-5,5.91-7.81-5.13-7.81-5.13-3.23-2.94-2.94-4.26,7.61-12.81,8-14.7,2-8.66,2-8.66l6.89-10.85,4.2.2Z"/><path class="cls-70" d="M54.3,143.94c-4.24-.16-7.16-2.66-7.9-7.09l.07.62c.56,4.81,3.58,7.52,8,7.68s7.18-4.92,7.18-4.92-.15-.37-.34-.94C60.68,140.34,58.12,144.09,54.3,143.94Z"/><path class="cls-71" d="M62.23,98.29a11.92,11.92,0,0,1-.78,4.1c-.81,2-3.47,13.54-9.49,17.47l-2.31,1.47V114a27.76,27.76,0,0,1,1.07-7.36,21.16,21.16,0,0,0,1-6.34s1.69-.46,1.69-.43S62.23,98.29,62.23,98.29Z"/><path class="cls-68" d="M54.81,103.63s-1.07.44-1.53-.26a5.09,5.09,0,0,1-.81-2.75s-2.85.14-3.41-1.35a2.48,2.48,0,0,1,.14-2.35,11.69,11.69,0,0,1,.56-2.57l0-.38s-.58-.5-.32-1,1.82-2.15,2-2.42,0-2.29.57-3.29a24.51,24.51,0,0,1,1.77-2.4s6.07-4.74,10.85,0-2.42,13.45-2.42,13.45-.58,2.82-2,3.94S54.81,103.63,54.81,103.63Z"/><path class="cls-72" d="M59.25,92.1a1.48,1.48,0,0,1,.08-.51,2.51,2.51,0,0,0-1-3c-1.82-1.33-5-2.52-4.94-3.85s5.18-4.61,8.93-2.85S69.6,88.11,67,92.82s-4.81,5.47-4.81,5.47-.76-.16-.08-.94,1.93-2.76.9-3.38-2.82.72-3.06,1a3.75,3.75,0,0,0-.26.39.5.5,0,0,1-.65.2l-.09,0a.5.5,0,0,1-.26-.63l.45-1.22a1.55,1.55,0,0,0,.1-.57Z"/><path class="cls-73" d="M55,105a7.2,7.2,0,0,1,2.15,2.8A9.68,9.68,0,0,0,54.85,106s-1.59.75-1.59,1.24a32.89,32.89,0,0,1-.52,5.09,56.91,56.91,0,0,0-.33,7.25l-1,.67-.48-2.47.18-5.28.94-4.8s.17-1.82.25-1.92S55,105,55,105Z"/><path class="cls-66" d="M55,105s-1.54-1.64-2.32-1.68a1.31,1.31,0,0,0-1.21.48c0,.09-.75,2.67-.75,2.67a32.17,32.17,0,0,0-1.31,9.71c.15,5.23.27,5.18.27,5.18l1.91-1.21a24.08,24.08,0,0,1,.53-8.07c1-4.33.12-5,.62-5.42S55.21,105.49,55,105Z"/><path class="cls-66" d="M64.26,125.5c-.9,1.11-3.11,6.25-3.83,7.94a2.65,2.65,0,0,0-.2,1.06l-.29.19-1-.95s.87-3.14,2.26-7S68.11,122,68.11,122A40.44,40.44,0,0,0,64.26,125.5Z"/><path class="cls-68" d="M62.76,135.09a17.94,17.94,0,0,0-2.07-2.59s.12.65-.78,1-5.58,2.21-5.74,2.43,0,.47.31.54a6.36,6.36,0,0,1-1.37.32c-.4,0-.93.5-.66.93s.49.4.49.4-.12.48.17.59a4.44,4.44,0,0,0,1,.12s-.14.48.25.67a14.61,14.61,0,0,0,2.29.4s1.48-.16,1.91-.17a22.46,22.46,0,0,0,3.18.35,24.91,24.91,0,0,0,3.81-1.24C65.8,138.72,62.76,135.09,62.76,135.09Z"/><path class="cls-66" d="M63.88,102.86l-.2,3.09-1.67.52,1.12.92s-4.52,10.28-10.29,13.53c0,0,5.51-2,10.72-13.44,0,0-.55-.65-.71-.83l1.16-.51Z"/><path class="cls-66" d="M49.13,102.54s-2,10.48-.3,18.38c0,0-2.1-3.8-.2-18.38Z"/><path class="cls-74" d="M3,87.22A3.67,3.67,0,0,1,4,86.41s2.18.89,2.55,1.06C6.57,87.48,4.34,87.24,3,87.22Z"/><path class="cls-74" d="M15.5,93.1c-.09,0-.44-.26-.81-.49h0c1.45-1.95-.14-4.77-.15-4.78C17.75,89.08,15.66,93.16,15.5,93.1Z"/><path class="cls-74" d="M65.53,138.88a27.19,27.19,0,0,1-2.87,1,15.73,15.73,0,0,1-.56-3.78c.16-.95.56-1.17.56-1.17l.11.15S65.8,138.72,65.53,138.88Z"/><path class="cls-67" d="M62.76,135a3.31,3.31,0,0,0,.62,2.91c1.11,1.27,1.23,1.43,1.23,1.43h1.27a13.87,13.87,0,0,0,.56-2.05C66.35,137.19,62.76,135,62.76,135Z"/><path class="cls-66" d="M50.92,105.6h0s-1.22,7.19-.95,9.83a46.11,46.11,0,0,1,.17,5.49l-.39.34-.11.07s-.12,0-.27-5.18a32.17,32.17,0,0,1,1.31-9.71Z"/><path class="cls-65" d="M50.52,180.18a6,6,0,0,1-1.1-.8A55.48,55.48,0,0,0,51.62,168a34.21,34.21,0,0,1-2.32-7c.17.66,2.17,4.21,3.08,7.84S50.52,180.18,50.52,180.18Z"/><path class="cls-74" d="M59.43,97.13v0Z"/><path class="cls-74" d="M59.43,97.13a10.6,10.6,0,0,1-1.59,3.94c-1.07,1.24-1.9,2.44-1.9,2.44-.67.09-1.13.12-1.13.12s-1.07.44-1.53-.26a5.09,5.09,0,0,1-.81-2.75s3.84-.4,5.31-1.42A3.68,3.68,0,0,0,59.43,97.13Z"/><path class="cls-75" d="M60.81,132.53s-.21.44-.24.47-.09-.33-.09-.33.17-.36.18-.36Z"/><path class="cls-66" d="M49.65,121.33S47,129.89,46.07,132l.05,2.06S49.54,123.39,49.65,121.33Z"/><ellipse class="cls-66" cx="47.9" cy="124.64" rx="0.95" ry="0.88" transform="translate(-85.28 134.2) rotate(-73.09)"/><ellipse class="cls-66" cx="46.54" cy="128.33" rx="0.95" ry="0.88" transform="translate(-89.78 135.52) rotate(-73.09)"/><path class="cls-76" d="M59.18,93.7a1.55,1.55,0,0,0,.1-.57l0-1a1.48,1.48,0,0,1,.08-.51,2.87,2.87,0,0,0,.14-.64s4.18,3,6.82,3.16c-2.23,3.56-4.06,4.18-4.06,4.18s-.76-.16-.08-.94,1.93-2.76.9-3.38-2.82.72-3.06,1a3.73,3.73,0,0,0-.26.39.5.5,0,0,1-.65.2l-.09,0a.5.5,0,0,1-.26-.63Z"/><path class="cls-65" d="M65.64,211.8a23.73,23.73,0,0,1-3.52.12c-1.72-.09-6.42.28-6.42,1.75S58,217.41,60.94,218s6.92.19,8.89.4,3.49-1.34,2.89-3S65.64,211.8,65.64,211.8Z"/><path class="cls-65" d="M76.36,208.74s.55,1,.17,1.47-1.39,1.8-4,.24-7.87-3.92-7.87-3.92-3-1.68-2.67-3.33,3.17-1.15,3.17-1.15Z"/><path class="cls-66" d="M60.07,182.64s.32,11.61,2.55,16.07,2.25,12.09,2.66,13.56a6.37,6.37,0,0,0,4.4,4.29c2.55.65,3.13-.78,3.1-1.68s-.6-2.4-.51-3.38a8.92,8.92,0,0,1,.5-1.85s2.92,1,3.6-.92a4.88,4.88,0,0,1-.19-.9c0-.3,1.12-7.56,1.3-8.45a33.71,33.71,0,0,0-.42-8.37c-.59-2.53.28-7.8.28-7.8l-8.89-1.91Z"/><path class="cls-77" d="M77.06,191c-.59-2.53.28-7.8.28-7.8l-.78-.17c-.12.74-.81,5.36-.27,7.69a33.72,33.72,0,0,1,.42,8.37c-.18.89-1.31,8.15-1.3,8.45a4.89,4.89,0,0,0,.19.9c-.68,1.93-3.6.92-3.6.92a8.91,8.91,0,0,0-.5,1.85c-.09,1,.47,2.48.51,3.38s-.55,2.33-3.1,1.68l-.23-.08a5.83,5.83,0,0,0,1,.36c2.55.65,3.13-.78,3.1-1.68s-.6-2.4-.51-3.38a10,10,0,0,1,.51-1.94s2.91,1.1,3.59-.83a4.87,4.87,0,0,1-.19-.9c0-.3,1.12-7.56,1.3-8.45A33.73,33.73,0,0,0,77.06,191Z"/><path class="cls-65" d="M74.59,183.85a8.26,8.26,0,0,1-1.24,3.27,55.64,55.64,0,0,1-1.64,9.06,79.43,79.43,0,0,0,1,8,18.84,18.84,0,0,1,0,5.49,3.38,3.38,0,0,0,.82.2c.49.06,1.31-7.07.68-8.42s-.59-7.15-.11-8.91.93-6.92,1.42-7.81a1.11,1.11,0,0,0-.34-1.45Z"/><path class="cls-65" d="M71.24,137.24a6.68,6.68,0,0,0-3.15,5.1l2.12-.25S69.92,138.31,71.24,137.24Z"/><path class="cls-65" d="M67.81,185.82c5.91.68,9.36-1.37,9.36-1.37.09-.74.17-1.22.17-1.22l-8.89-1.91-8.39,1.32s.06,2.33.34,5.3c1.44.26,3.12-2.76,3.12-2.76l4,.58S61.9,185.14,67.81,185.82Z"/><path class="cls-69" d="M61.2,182.92s12.45,5.78,19.69-2.55a1.5,1.5,0,0,0,.35-.87l.17-2.12a2.07,2.07,0,0,1,.22-.78h0a3.13,3.13,0,0,0,.33-1.7c-.21-2.45-.8-9.22-.9-11.13-.13-2.34,2.28-11.64,5.05-15.61s-2-14.1-2-14.1A3.83,3.83,0,0,0,80,132.18s2.52,2.09.83,3.9-6.29,3-6.29,3-8.53,3.34-11.69,8a19,19,0,0,0-1.46,5.54c-.32,3.12-.52,10.53-.74,11.53s-1.15,7.77-1.13,8.08S61.2,182.92,61.2,182.92Z"/><path class="cls-78" d="M81.16,133.71a1.94,1.94,0,0,0,.12-1.56,4.21,4.21,0,0,0-1.3,0A4.9,4.9,0,0,1,81.16,133.71Z"/><path class="cls-66" d="M65,184.22s9.53-18.16,9.89-25.36-12.77,13-12.77,13l-1,11.08A25.71,25.71,0,0,0,65,184.22Z"/><path class="cls-79" d="M81.63,174.74a2.07,2.07,0,0,0-.22.78l-.17,2.12a1.5,1.5,0,0,1-.35.87c-7.24,8.33-19.69,2.55-19.69,2.55s-1.21-7.5-1.59-10c-.07.59-.12,1-.12,1.07,0,.32,1.71,10.76,1.71,10.76s12.45,5.78,19.69-2.55a1.5,1.5,0,0,0,.35-.87l.17-2.12a2.07,2.07,0,0,1,.22-.78,3.13,3.13,0,0,0,.33-1.7l-.08-.9A3.13,3.13,0,0,1,81.63,174.74Z"/><path class="cls-80" d="M86.11,146.3c-2.77,4-5.18,13.27-5.05,15.61,0,.21,0,.5.05.82.37-3.32,2.54-11,5-14.57a6.87,6.87,0,0,0,.82-4.42A5.29,5.29,0,0,1,86.11,146.3Z"/><path class="cls-67" d="M62.74,161.43a30.18,30.18,0,0,0,.87-4.85c.27-2.87,1.54-7.63,7.09-6.29,7.82,1.88,3.39,11.84,2.37,13.52s-5.12,9.16-5.34,9.58-6.23,9.32-8.25,11.36a.49.49,0,0,1-.68,0c-.7-.63-2.29-2.13-2.45-3-.2-1.13,1.18-5.08,1.18-5.08s3.76-10.12,4.05-10.59S62.06,164,62.74,161.43Z"/><path class="cls-68" d="M71.35,137.5a2.84,2.84,0,0,0-2-1.75c-1.48-.28-2.29-.75-2.4-1.3a10.13,10.13,0,0,0-.35-2,14.67,14.67,0,0,1-.43-2.89s-1.11-.48-1.13-1,.72-2.22.67-2.36a4.47,4.47,0,0,1-.43-2.13,10.41,10.41,0,0,1,.91-3.09c.55-1,4.36-7.23,12.56-3.12s1,10.55,1.34,15.08c0,0,.65,1-.88,2.45S73.7,136.81,71.35,137.5Z"/><path class="cls-74" d="M79.2,135.36c1.53-1.46.88-2.45.88-2.45a6,6,0,0,1,.23-2l-3.35.32s-4.46-4.66-4.33-2.36-1.08,2.59-1.08,2.59l.88,1.32c.23.34,0,.69-.2,1C70.65,136,67.37,135,67.37,135a4.89,4.89,0,0,0,2,.73,2.84,2.84,0,0,1,2,1.75C73.7,136.81,77.67,136.82,79.2,135.36Z"/><path class="cls-72" d="M66,118.47s-.73,1.67.17,2.48,1.7,1.56,1.7,1.56l-.18,2.16a1.59,1.59,0,0,0,.19.89l1,1.91a2.15,2.15,0,0,1,.26,1.2l-.07.87a.5.5,0,0,0,.4.53l.31.06a.5.5,0,0,0,.59-.39l.24-1.19s.71-.92,2,.36l1.18.6a1.3,1.3,0,0,1,.67.82c.25,1,.81,2.83,1.33,3.17.7.47,3.71-.72,4.16-1.32s1.88-4.81,2.71-6.83,1-7.23-5.16-9.12S67,116.66,66,118.47Z"/><path class="cls-76" d="M80,132.18c.45-.6,1.88-4.81,2.71-6.83a15.77,15.77,0,0,1-5.76,1.56c-3.18.19-9.08-3.83-9.08-3.83l-.14,1.58a1.59,1.59,0,0,0,.19.89l1,1.91a2.15,2.15,0,0,1,.26,1.2l-.07.87a.5.5,0,0,0,.4.53l.31.06a.5.5,0,0,0,.59-.39l.24-1.19s.71-.92,2,.36l1.71.87s.77,3.26,1.47,3.73S79.52,132.78,80,132.18Z"/><path class="cls-71" d="M80.08,132.39s2.24,1.64.83,3.56-10.36,4.73-10.84,5.21c0,0-.07-3,1.16-3.93,0,0,6.73-.66,7.93-2.21A3.29,3.29,0,0,0,80.08,132.39Z"/><path class="cls-73" d="M80.08,132.39a3.29,3.29,0,0,1-.91,2.64c-.91,1.17-5,1.83-6.91,2.09h0a6.69,6.69,0,0,1,1.65,2.47c2.78-1.09,6.17-2.51,7-3.63C82.32,134,80.08,132.39,80.08,132.39Z"/><path class="cls-66" d="M81,139s-4.05,1.77-6,2.55-4.1,1.86-4.1,1.86l-.65-.74-1,1.71A25.3,25.3,0,0,0,64.7,147a13.79,13.79,0,0,0-2.81,3.35s4-4.16,6.95-5.26l.8-.3.56-1.38.64.77S79.7,140.14,81,139Z"/><path class="cls-81" d="M65.93,194.75h0a1.5,1.5,0,0,0-.4-.69l-13.6-11.93c-.37-.32-.75-.13-.86.42l-2.43,12.22a1.82,1.82,0,0,0,.46,1.58l11.19,9.81-.68,3.3,3.6-1.05h0a.69.69,0,0,0,.35-.54L66,195.63A1.88,1.88,0,0,0,65.93,194.75Z"/><path class="cls-69" d="M47.88,183l3.52-1,.11,0a.52.52,0,0,1,.41.15l13.6,11.93a1.5,1.5,0,0,1,.41.69l-.53.17h0l-3,1L50.5,185.35h0Z"/><path class="cls-66" d="M45.53,197.38l13.6,11.93c.37.32.75.13.86-.42l2.43-12.22a1.82,1.82,0,0,0-.46-1.58l-13.6-11.93c-.37-.32-.75-.13-.86.42L45.07,195.8A1.82,1.82,0,0,0,45.53,197.38Z"/><path class="cls-65" d="M61.82,208.34l2.43-12.22a1.82,1.82,0,0,0-.46-1.58l-13.6-11.93a.57.57,0,0,0-.34-.16.5.5,0,0,1,.46.14l13.6,11.93a1.82,1.82,0,0,1,.46,1.58l-2.43,12.22c-.08.38-.27.6-.51.59C61.61,208.86,61.75,208.65,61.82,208.34Z"/><path class="cls-65" d="M58.13,189.5l.78-.26a.81.81,0,0,1,.47,0l.06,0c.07,0,.11.1.09.2l0,.12-2.19.74,0-.12a.54.54,0,0,1,.18-.29l.08-.06A1.7,1.7,0,0,1,58.13,189.5Z"/><polygon class="cls-65" points="58.27 191.12 57.32 190.28 59.51 189.27 60.45 190.09 58.27 191.12"/><path class="cls-82" d="M59.08,190.34l.78-.26a.8.8,0,0,1,.47,0l.06,0c.07,0,.11.1.09.2l0,.12-2.19.74,0-.12a.54.54,0,0,1,.18-.29l.08-.06A1.7,1.7,0,0,1,59.08,190.34Z"/><polygon class="cls-83" points="59.51 190.69 59.62 190.16 59.55 190.18 59.44 190.72 59.51 190.69"/><polygon class="cls-83" points="59.62 190.16 58.63 189.33 58.57 189.35 59.55 190.18 59.62 190.16"/><path class="cls-65" d="M53.79,185.7l.78-.26a.81.81,0,0,1,.47,0l.06,0c.07,0,.11.1.09.2l0,.12-2.19.74,0-.12a.54.54,0,0,1,.18-.29l.08-.06A1.7,1.7,0,0,1,53.79,185.7Z"/><polygon class="cls-65" points="53.93 187.32 52.98 186.48 55.17 185.47 56.11 186.29 53.93 187.32"/><path class="cls-84" d="M54.75,186.54l.78-.26a.81.81,0,0,1,.47,0l.06,0c.07,0,.11.1.09.2l0,.12-2.19.74,0-.12a.54.54,0,0,1,.18-.29l.08-.06A1.7,1.7,0,0,1,54.75,186.54Z"/><polygon class="cls-83" points="55.17 186.9 55.28 186.36 55.21 186.38 55.1 186.92 55.17 186.9"/><polygon class="cls-83" points="55.28 186.36 54.29 185.53 54.23 185.55 55.21 186.38 55.28 186.36"/><path class="cls-69" d="M60.23,187.6l-.45,2.29-.64-.56.44-2.23a1.15,1.15,0,0,0-.34-1l-2.79-2.45a.32.32,0,0,0-.57.19l-.44,2.23-.64-.56.45-2.29a.7.7,0,0,1,1.26-.43l3,2.61A2.54,2.54,0,0,1,60.23,187.6Z"/><path class="cls-69" d="M55.42,183.42h1.23l3.3,3.21v1.79l-.19,1.47-.81.27.12-1.84.06-1.27-.66-1S57.24,185,57.23,185,55.42,183.42,55.42,183.42Z"/><polygon class="cls-69" points="54.63 186.36 55.44 186.09 55.76 184.45 55.01 184.43 54.78 184.45 54.63 186.36"/><path class="cls-69" d="M54.9,182.85l.87-.3-.26.39-.29.06Z"/><path class="cls-65" d="M59.42,187.87,59,190.16l-.64-.56.44-2.23a1.15,1.15,0,0,0-.34-1l-2.79-2.45c-.25-.22-.5-.13-.57.19l-.44,2.22L54,185.8l.45-2.29a.7.7,0,0,1,1.26-.43l3,2.61A2.54,2.54,0,0,1,59.42,187.87Z"/><path class="cls-68" d="M56.56,181.68a13,13,0,0,0-.57,2.85,4.17,4.17,0,0,0,2,2.07c.73.27.48-.54.69-1a6.35,6.35,0,0,0,.26-1.56Z"/><path class="cls-74" d="M58.93,184l-2.36-2.34s-.14.47-.28,1a6,6,0,0,0,2.47,2.62A8,8,0,0,0,58.93,184Z"/><path class="cls-67" d="M56.36,181.83s.71,2.56,2.93,3L58.74,182l-1.92-.65C56.76,181.38,56.36,181.83,56.36,181.83Z"/><path class="cls-85" d="M74,152.23c1.56,6.41-4.76,15.34-5.78,18s-10,14.05-10,14.05h0l-.08.11a4.7,4.7,0,0,0,.49.36,1.69,1.69,0,0,0,.34.15h0a.47.47,0,0,0,.47-.13c2-2,8.05-11,8.25-11.36s4.31-7.9,5.34-9.58C73.88,162.46,76.88,155.8,74,152.23Z"/></g></g></svg>