<svg xmlns="http://www.w3.org/2000/svg" viewBox="0 0 377.52 232.72"><defs><style>.cls-1{opacity:0.22;}.cls-2{fill:#a2dbf1;}.cls-3{opacity:0.3;}.cls-4{fill:#222221;}.cls-5{fill:#b3b3b3;}.cls-6{fill:#3e3e3d;}.cls-7{fill:#6f6f6f;}.cls-8{fill:#fff;}.cls-12,.cls-9{fill:none;stroke:#425973;stroke-linecap:round;stroke-linejoin:round;}.cls-9{stroke-width:3.3px;}.cls-10{fill:#dd9ab2;}.cls-11{fill:#d6819f;}.cls-12{stroke-width:2.75px;}.cls-13{fill:#e9c2d0;}.cls-14{fill:#db9022;}</style></defs><title>404</title><g id="Layer_2" data-name="Layer 2"><g id="OBJECTS"><g class="cls-1"><path class="cls-2" d="M203.07,34.2C163.93,46.69,40-14.92,49.66,69.24c1.52,12.51,9.58,30.19,2.77,41.88-4.93,8.75-14,13.88-22.71,17.28C6.91,137.67-1.59,155.08,4.19,179.92c15.45,66.95,99.58,51.07,143.75,31.22,31.41-14.77,68.45-17.31,101-4.81,25.48,10.17,41.36,31.52,71.27,25.27,26.52-5.32,30.52-30.36,22.78-53.67-4.4-14.42-7.56-20.51,1.17-34.43,7.35-13.82,20.3-24.3,21.29-40.49.22-17.54-7.84-35.22-23.44-41.86-12.76-5.44-24.33-3.24-37-6.58C276.93,46.67,258.88,3,224,18c-8.69,4.1-13.57,13.55-23,16.3"/></g><g class="cls-3"><path class="cls-2" d="M188.87,28.19c3.54,0,3.54-5.5,0-5.5s-3.54,5.5,0,5.5Z"/><path class="cls-2" d="M25.94,112.75c7.08,0,7.09-11,0-11s-7.09,11,0,11Z"/><path class="cls-2" d="M356.62,156.61c7.08,0,7.09-11,0-11s-7.09,11,0,11Z"/><path class="cls-2" d="M170.31,25.44c7.08,0,7.09-11,0-11s-7.09,11,0,11Z"/><path class="cls-2" d="M367.62,139.15c9.2,0,9.22-14.3,0-14.3s-9.22,14.3,0,14.3Z"/><path class="cls-2" d="M7.38,130.9c9.2,0,9.22-14.3,0-14.3s-9.22,14.3,0,14.3Z"/><path class="cls-2" d="M312.62,45c9.2,0,9.22-14.3,0-14.3s-9.22,14.3,0,14.3Z"/><path class="cls-2" d="M186.12,16.5c10.62,0,10.63-16.5,0-16.5s-10.63,16.5,0,16.5Z"/><path class="cls-2" d="M373.54,152.07c5.31,0,5.32-8.25,0-8.25s-5.32,8.25,0,8.25Z"/><path class="cls-2" d="M5.45,107.94c5.31,0,5.32-8.25,0-8.25s-5.32,8.25,0,8.25Z"/><path class="cls-2" d="M329.81,52.94c5.31,0,5.32-8.25,0-8.25s-5.32,8.25,0,8.25Z"/><path class="cls-2" d="M328.44,37.81c3.54,0,3.54-5.5,0-5.5s-3.54,5.5,0,5.5Z"/><path class="cls-2" d="M49.86,28.32c7.08,0,7.09-11,0-11s-7.09,11,0,11Z"/><path class="cls-2" d="M362.81,217.94c7.08,0,7.09-11,0-11s-7.09,11,0,11Z"/><path class="cls-2" d="M5.31,222.75c7.08,0,7.09-11,0-11s-7.09,11,0,11Z"/><path class="cls-2" d="M66.36,20.07c3.54,0,3.54-5.5,0-5.5s-3.54,5.5,0,5.5Z"/><path class="cls-2" d="M363.5,195.94c3.54,0,3.54-5.5,0-5.5s-3.54,5.5,0,5.5Z"/><path class="cls-2" d="M21.81,229.63c3.54,0,3.54-5.5,0-5.5s-3.54,5.5,0,5.5Z"/></g><path class="cls-4" d="M100.33,137c-4.38,1.55-6.5,1.13-8.44-3-1.26-2.72-2.26-5.48-4-7.92s-3.92-4.78-6.77-5.59c-2.62-.74-5.3.23-7.92.44-6.37.49-14.27-1-15.33-8.17-.77-5.23-.71-10-3-14.91-1.12-2.4-4.68-.31-3.56,2.08,2.54,5.43,1.28,11.39,3.28,16.85,2.17,5.9,8.56,7.46,14.2,8.13,3.52.42,8-1.33,11.28-.37,4.14,1.21,6.27,6.82,7.83,10.4,2.82,6.47,6.72,8.51,13.59,6.08,2.49-.88,1.42-4.87-1.1-4Z"/><path class="cls-4" d="M56.73,92.25a12.35,12.35,0,0,1-4.54,3.53c-1.9,1-.23,3.8,1.67,2.85a15.86,15.86,0,0,0,5.73-4.72A1.66,1.66,0,0,0,59,91.66a1.69,1.69,0,0,0-2.26.59Z"/><path class="cls-4" d="M50.83,87.86c0,3.49.52,7,.55,10.45,0,2.12,3.32,2.13,3.3,0,0-3.49-.54-7-.55-10.45a1.65,1.65,0,0,0-3.3,0Z"/><path class="cls-4" d="M45.26,91.23c2.21,2.76,4.45,5.51,7.48,7.41,1.81,1.13,3.46-1.73,1.67-2.85-2.77-1.73-4.8-4.38-6.82-6.89-1.33-1.66-3.65.69-2.33,2.33Z"/><path class="cls-4" d="M42.51,96.18a10.73,10.73,0,0,0,11,2.62c2-.62,1.16-3.81-.88-3.18a7.37,7.37,0,0,1-7.74-1.78c-1.54-1.46-3.88.87-2.33,2.33Z"/><path class="cls-4" d="M269,147.26c.15-5.33,2-7.18,7.15-7.61,3.3-.28,6.93,0,10.15-.85,5.33-1.43,4.54-7.67,7-11.62,3.39-5.48,10.55-4.75,16-6.48,5.95-1.9,8.33-6.47,8.69-12.48.16-2.65-4-2.64-4.12,0-.51,8.54-6.72,8.62-13.51,10.14-6,1.34-10.06,4.45-12.15,10.31-.79,2.21-.83,5.06-3,6.16-2.67,1.38-7.59.49-10.6.84-7,.81-9.55,4.74-9.74,11.6-.07,2.66,4.05,2.65,4.13,0Z"/><path class="cls-4" d="M308.28,103.15a13,13,0,0,0,7.2,7.2,1.66,1.66,0,0,0,2-1.15,1.69,1.69,0,0,0-1.15-2,9.32,9.32,0,0,1-4.9-4.9,1.71,1.71,0,0,0-2-1.15,1.66,1.66,0,0,0-1.15,2Z"/><path class="cls-4" d="M313.18,98.86v8.25a1.65,1.65,0,0,0,3.3,0V98.86a1.65,1.65,0,0,0-3.3,0Z"/><path class="cls-4" d="M318.73,99.52a15.25,15.25,0,0,1-5.08,7c-1.65,1.34.7,3.67,2.33,2.33a18.31,18.31,0,0,0,5.92-8.43c.7-2-2.49-2.87-3.18-.88Z"/><path class="cls-4" d="M322.75,103a12.69,12.69,0,0,1-6.16,4.74c-1.94.79-1.09,4,.88,3.18a16.49,16.49,0,0,0,8.14-6.26c1.14-1.8-1.72-3.46-2.85-1.67Z"/><path class="cls-5" d="M288.7,207c0,2.89-21.6,3.72-23.94,3.72H103.09c-2.33,0-23.94-.84-23.94-3.72l19.71-29.55c0-2.89,1.89-5.23,4.22-5.23H264.76c2.33,0,4.23,2.34,4.23,5.23Z"/><polygon class="cls-6" points="150.68 200.44 109.13 200.44 116.39 182.84 153.98 182.84 150.68 200.44"/><polygon class="cls-6" points="217.17 200.44 258.73 200.44 251.45 182.84 213.87 182.84 217.17 200.44"/><polygon class="cls-6" points="263.34 200.44 277.98 200.44 266 182.84 254.97 182.84 263.34 200.44"/><polygon class="cls-6" points="104.51 200.44 89.88 200.44 101.85 182.84 112.89 182.84 104.51 200.44"/><polygon class="cls-6" points="213.52 200.44 154.33 200.44 157.63 182.84 210.22 182.84 213.52 200.44"/><rect class="cls-5" x="93.49" y="186.06" width="180.88" height="2.69"/><rect class="cls-5" x="91.53" y="192.66" width="184.8" height="2.69"/><path class="cls-6" d="M289.81,213.87c0,2.33-.48,4.22-2.81,4.22H80.86c-2.33,0-2.82-1.89-2.82-4.22v-3.62c0-2.33.48-4.22,2.82-4.22H287c2.33,0,2.81,1.89,2.81,4.22Z"/><path class="cls-7" d="M222.56,212.16a2.2,2.2,0,0,1-2.2,2.2H147.49a2.2,2.2,0,0,1-2.2-2.2h0a2.2,2.2,0,0,1,2.2-2.2h72.87a2.2,2.2,0,0,1,2.2,2.2Z"/><rect class="cls-6" x="96.75" y="61.03" width="174.35" height="116.68" rx="4.23" ry="4.23"/><path class="cls-8" d="M183.93,66.91a1.76,1.76,0,0,0,0-3.52,1.76,1.76,0,0,0,0,3.52Z"/><rect class="cls-8" x="108.95" y="69.97" width="149.94" height="100.34" rx="3.63" ry="3.63"/><line class="cls-9" x1="162.1" y1="107.7" x2="149.65" y2="120.14"/><line class="cls-9" x1="162.1" y1="120.15" x2="149.65" y2="107.7"/><line class="cls-9" x1="218.2" y1="107.7" x2="205.75" y2="120.14"/><line class="cls-9" x1="218.2" y1="120.15" x2="205.75" y2="107.7"/><path class="cls-10" d="M212.61,135.16v12.28a4.4,4.4,0,0,1-4.4,4.4h-2.37a4.4,4.4,0,0,1-4.4-4.4V135.16"/><polygon class="cls-11" points="208.96 135.8 207.03 150.1 205.1 135.8 208.96 135.8"/><line class="cls-12" x1="146.63" y1="135.15" x2="221.22" y2="135.15"/><path class="cls-13" d="M134.43,133.33c7.08,0,7.09-11,0-11s-7.09,11,0,11Z"/><path class="cls-13" d="M233.43,133.33c7.08,0,7.09-11,0-11s-7.09,11,0,11Z"/><path class="cls-14" d="M242.78,46.61v36.3c0,3.54,5.5,3.54,5.5,0V46.61c0-3.54-5.5-3.54-5.5,0Z"/><path class="cls-14" d="M245.53,96.94c5.31,0,5.32-8.25,0-8.25s-5.32,8.25,0,8.25Z"/></g></g></svg>