<?xml version="1.0" encoding="UTF-8" standalone="no"?>
<!-- Generator: Adobe Illustrator 17.0.0, SVG Export Plug-In . SVG Version: 6.00 Build 0)  -->

<svg
   xmlns:dc="http://purl.org/dc/elements/1.1/"
   xmlns:cc="http://creativecommons.org/ns#"
   xmlns:rdf="http://www.w3.org/1999/02/22-rdf-syntax-ns#"
   xmlns:svg="http://www.w3.org/2000/svg"
   xmlns="http://www.w3.org/2000/svg"
   xmlns:sodipodi="http://sodipodi.sourceforge.net/DTD/sodipodi-0.dtd"
   xmlns:inkscape="http://www.inkscape.org/namespaces/inkscape"
   version="1.1"
   id="Layer_1"
   x="0px"
   y="0px"
   width="2191.3879"
   height="278.8855"
   viewBox="0 0 2191.3879 278.8855"
   enable-background="new 0 0 3000 3000"
   xml:space="preserve"
   sodipodi:docname="SonicJs-Logo-2019.svg"
   inkscape:version="0.92.2 5c3e80d, 2017-08-06"><metadata
     id="metadata35"><rdf:RDF><cc:Work
         rdf:about=""><dc:format>image/svg+xml</dc:format><dc:type
           rdf:resource="http://purl.org/dc/dcmitype/StillImage" /><dc:title></dc:title></cc:Work></rdf:RDF></metadata><defs
     id="defs33" /><sodipodi:namedview
     pagecolor="#ffffff"
     bordercolor="#666666"
     borderopacity="1"
     objecttolerance="10"
     gridtolerance="10"
     guidetolerance="10"
     inkscape:pageopacity="0"
     inkscape:pageshadow="2"
     inkscape:window-width="1043"
     inkscape:window-height="798"
     id="namedview31"
     showgrid="false"
     inkscape:zoom="0.15556349"
     inkscape:cx="1013.4864"
     inkscape:cy="-1059.1094"
     inkscape:window-x="1779"
     inkscape:window-y="674"
     inkscape:window-maximized="0"
     inkscape:current-layer="Layer_1" /><g
     id="g28"
     transform="translate(-404.305,-1360.5555)"><path
       d="m 940.467,1443.176 c -3.474,4.538 -6.942,9.082 -10.356,13.662 -0.286,0.386 -0.679,0.827 -0.994,1.296 3.641,-0.509 7.281,-1.024 10.922,-1.529 3.844,-0.532 7.689,-1.07 11.533,-1.608 0.658,-0.09 1.315,-0.179 1.973,-0.275 1.029,-0.143 1.913,-0.024 2.469,0.957 0.176,0.315 0.25,0.595 0.254,0.853 3.668,-0.508 7.335,-1.021 11.002,-1.534 0.657,-0.09 1.315,-0.179 1.973,-0.275 1.029,-0.143 1.913,-0.024 2.469,0.957 0.724,1.292 -0.233,2.027 -0.992,2.792 -2.649,2.667 -5.304,5.321 -7.958,7.982 -1.848,1.859 -3.701,3.713 -5.549,5.572 -9.285,9.351 -18.547,18.738 -27.85,28.066 -6.242,6.26 -12.556,12.448 -18.816,18.691 -0.831,0.831 -2.29,1.525 -1.919,2.894 0.394,1.471 2.039,1.274 3.163,1.25 8.52,-0.185 17.022,1.118 25.537,0.353 2.003,-0.179 3.641,0.407 4.484,2.123 0.897,1.83 -0.873,2.655 -2.003,3.516 -17.046,12.986 -33.471,26.744 -50.086,40.251 l -24.987,20.025 c 8.767,2.615 18.075,3.923 27.923,3.923 26.244,0 48.728,-9.289 67.459,-27.868 18.724,-18.579 28.089,-40.987 28.089,-67.237 0,-26.243 -9.366,-48.728 -28.089,-67.459 -1.915,-1.914 -3.879,-3.705 -5.873,-5.424 -2.855,3.743 -5.711,7.485 -8.564,11.228 -1.734,2.274 -3.474,4.546 -5.214,6.818 z"
       id="path4"
       inkscape:connector-curvature="0"
       style="fill:none" /><path
       d="m 852.673,1553.657 c 0.741,-0.903 1.895,-1.638 1.62,-3.259 -2.587,-0.084 -5.17,-0.175 -7.752,-0.249 -1.853,0.078 -3.706,0.186 -5.56,0.351 -1.155,0.105 -2.361,0.111 -3.302,-0.492 -4.133,0 -8.262,0.125 -12.396,0.492 -1.638,0.15 -3.39,0.125 -4.323,-1.602 -0.891,-1.65 0.203,-2.75 1.238,-3.922 2.146,-2.434 4.275,-4.879 6.422,-7.312 8.191,-9.309 16.383,-18.619 24.544,-27.958 6.362,-7.271 12.67,-14.589 18.978,-21.907 0.718,-0.837 2.404,-1.381 1.387,-2.942 -0.032,-0.049 -0.071,-0.083 -0.106,-0.127 l -13.488,0.666 c -1.184,-0.122 -2.582,0.084 -3.553,-0.599 l -12.145,0.599 c -1.567,-0.161 -3.51,0.257 -4.341,-1.578 -0.921,-2.033 0.998,-2.966 2.135,-3.94 7.008,-6.045 14.099,-11.994 21.19,-17.949 7.492,-6.284 14.989,-12.574 22.529,-18.804 4.144,-3.42 8.335,-6.786 12.514,-10.164 6.302,-5.094 12.592,-10.212 18.667,-15.564 3.334,-2.947 6.699,-5.858 10.069,-8.762 -10.629,-4.095 -22.068,-6.171 -34.34,-6.171 -26.251,0 -48.659,9.365 -67.238,28.089 -18.579,18.731 -27.868,41.216 -27.868,67.459 0,26.251 9.29,48.658 27.868,67.237 3.318,3.318 6.762,6.325 10.324,9.051 4.309,-5.258 8.614,-10.52 12.928,-15.772 1.333,-1.624 2.666,-3.244 3.999,-4.871 z"
       id="path6"
       inkscape:connector-curvature="0"
       style="fill:none" /><g
       id="g26"><path
         d="m 476.851,1404.673 h 168.536 c 4.714,0 8.695,-1.618 11.944,-4.866 3.241,-3.241 4.866,-7.222 4.866,-11.943 0,-2.357 -0.443,-4.569 -1.327,-6.636 -0.885,-2.06 -2.067,-3.829 -3.539,-5.308 -1.479,-1.472 -3.249,-2.654 -5.308,-3.538 -2.067,-0.885 -4.279,-1.327 -6.635,-1.327 H 476.851 c -20.057,0 -37.158,7.154 -51.313,21.454 -14.155,14.308 -21.233,31.483 -21.233,51.534 0,20.058 7.078,37.234 21.233,51.534 14.155,14.308 31.255,21.454 51.313,21.454 h 112.357 c 10.907,0 20.196,3.837 27.868,11.502 7.666,7.672 11.502,16.885 11.502,27.646 0,10.769 -3.836,19.982 -11.502,27.647 -7.672,7.673 -16.961,11.502 -27.868,11.502 H 421.115 c -4.721,0 -8.702,1.624 -11.944,4.865 -3.248,3.249 -4.866,7.23 -4.866,11.944 0,3.248 0.733,6.123 2.212,8.626 1.472,2.509 3.462,4.499 5.971,5.972 2.502,1.472 5.378,2.212 8.626,2.212 h 168.094 c 20.052,0 37.227,-7.078 51.534,-21.234 14.3,-14.155 21.454,-31.331 21.454,-51.534 0,-20.196 -7.154,-37.379 -21.454,-51.534 -14.308,-14.156 -31.483,-21.234 -51.534,-21.234 H 476.851 c -10.616,0 -19.76,-3.905 -27.426,-11.721 -7.672,-7.811 -11.501,-17.101 -11.501,-27.87 0,-10.761 3.829,-19.975 11.501,-27.647 7.666,-7.665 16.81,-11.5 27.426,-11.5 z"
         id="path8"
         inkscape:connector-curvature="0"
         style="fill:#1C2125" /><path
         d="m 974.78,1398.211 c -5.016,6.574 -10.034,13.146 -15.048,19.721 -1.828,2.398 -3.657,4.796 -5.487,7.194 1.994,1.719 3.958,3.51 5.873,5.424 18.724,18.731 28.089,41.216 28.089,67.459 0,26.251 -9.366,48.658 -28.089,67.237 -18.731,18.579 -41.215,27.868 -67.459,27.868 -9.848,0 -19.156,-1.308 -27.923,-3.923 l -4.185,3.354 c -8.587,6.885 -17.154,13.796 -25.725,20.702 17.52,8.967 36.86,13.487 58.054,13.487 35.533,0 65.91,-12.608 91.124,-37.821 25.214,-25.215 37.821,-55.584 37.821,-91.125 0,-35.534 -12.607,-65.911 -37.821,-91.126 -3,-2.999 -6.078,-5.808 -9.224,-8.451 z"
         id="path10"
         inkscape:connector-curvature="0"
         style="fill:#1C2125" /><path
         d="m 1364.644,1439.619 c -4.72,0 -8.702,1.624 -11.943,4.865 -3.249,3.249 -4.866,7.23 -4.866,11.944 v 138.014 l -167.651,-211.003 c -0.297,-0.586 -0.74,-1.03 -1.327,-1.326 -4.721,-4.714 -10.249,-7.742 -16.588,-9.069 -6.346,-1.326 -12.608,-0.732 -18.801,1.77 -6.192,2.509 -11.059,6.49 -14.598,11.944 -3.539,5.46 -5.308,11.577 -5.308,18.357 v 208.348 c 0,4.721 1.618,8.703 4.866,11.944 3.241,3.241 7.222,4.865 11.943,4.865 2.945,0 5.751,-0.738 8.405,-2.211 2.654,-1.472 4.713,-3.463 6.193,-5.971 1.473,-2.503 2.212,-5.378 2.212,-8.627 v -205.251 l 166.325,209.675 c 2.06,2.654 4.423,4.865 7.078,6.635 5.308,3.829 11.349,5.75 18.137,5.75 5.308,0 10.464,-1.182 15.482,-3.538 3.539,-1.769 6.56,-4.127 9.069,-7.078 2.502,-2.945 4.491,-6.338 5.971,-10.175 1.473,-3.829 2.212,-7.664 2.212,-11.501 v -141.552 c 0,-4.714 -1.624,-8.695 -4.865,-11.944 -3.251,-3.241 -7.231,-4.865 -11.946,-4.865 z"
         id="path12"
         inkscape:connector-curvature="0"
         style="fill:#1C2125" /><path
         d="m 1508.406,1432.983 c -2.654,-1.472 -5.46,-2.212 -8.404,-2.212 -4.721,0 -8.703,1.7 -11.944,5.087 -3.249,3.395 -4.865,7.3 -4.865,11.723 v 163.228 c 0,4.721 1.616,8.702 4.865,11.943 3.241,3.249 7.223,4.866 11.944,4.866 2.944,0 5.751,-0.732 8.404,-2.212 2.655,-1.472 4.714,-3.539 6.193,-6.194 1.473,-2.654 2.213,-5.453 2.213,-8.404 V 1447.58 c 0,-2.945 -0.74,-5.75 -2.213,-8.405 -1.479,-2.653 -3.539,-4.713 -6.193,-6.192 z"
         id="path14"
         inkscape:connector-curvature="0"
         style="fill:#1C2125" /><path
         d="m 1499.78,1367.957 c -4.575,0 -8.481,1.625 -11.722,4.866 -3.249,3.249 -4.865,7.23 -4.865,11.943 0,2.951 0.732,5.75 2.212,8.405 1.472,2.654 3.463,4.721 5.971,6.193 2.503,1.479 5.378,2.212 8.627,2.212 4.423,0 8.328,-1.618 11.721,-4.865 3.387,-3.243 5.088,-7.224 5.088,-11.944 0,-4.713 -1.701,-8.694 -5.088,-11.943 -3.394,-3.242 -7.375,-4.867 -11.944,-4.867 z"
         id="path16"
         inkscape:connector-curvature="0"
         style="fill:#1C2125" /><path
         d="M 1859.627,1369.727 H 1747.27 c -35.388,0 -65.69,12.607 -90.904,37.821 -25.213,25.215 -37.82,55.591 -37.82,91.125 0,35.54 12.607,65.911 37.82,91.125 25.215,25.215 55.516,37.821 90.904,37.821 h 56.178 c 4.714,0 8.695,-1.618 11.944,-4.866 3.241,-3.241 4.865,-7.222 4.865,-11.943 0,-4.714 -1.624,-8.695 -4.865,-11.943 -3.249,-3.243 -7.23,-4.866 -11.944,-4.866 h -56.178 c -26.251,0 -48.659,-9.359 -67.237,-28.09 -18.579,-18.723 -27.868,-41.207 -27.868,-67.459 0,-26.243 9.29,-48.659 27.868,-67.237 18.579,-18.579 40.987,-27.868 67.237,-27.868 h 112.357 c 4.714,0 8.696,-1.693 11.944,-5.087 3.241,-3.387 4.865,-7.368 4.865,-11.943 0,-4.569 -1.624,-8.475 -4.865,-11.723 -3.249,-3.243 -7.23,-4.867 -11.944,-4.867 z"
         id="path18"
         inkscape:connector-curvature="0"
         style="fill:#1C2125" /><path
         d="m 2219.256,1371.054 h -112.357 c -4.423,0 -8.336,1.624 -11.723,4.865 -3.393,3.249 -5.087,7.23 -5.087,11.944 0,4.721 1.694,8.702 5.087,11.943 3.387,3.249 7.3,4.866 11.723,4.866 h 95.547 v 95.105 c 0,26.251 -9.365,48.659 -28.088,67.237 -18.731,18.579 -41.215,27.868 -67.459,27.868 -26.251,0 -48.659,-9.289 -67.237,-27.868 -18.579,-18.579 -27.868,-40.987 -27.868,-67.237 0,-4.713 -1.701,-8.771 -5.088,-12.165 -3.393,-3.387 -7.374,-5.087 -11.943,-5.087 -4.575,0 -8.481,1.7 -11.722,5.087 -3.249,3.393 -4.865,7.451 -4.865,12.165 0,35.388 12.607,65.69 37.82,90.904 25.215,25.213 55.584,37.82 91.126,37.82 35.532,0 65.91,-12.607 91.125,-37.82 25.214,-25.215 37.82,-55.516 37.82,-90.904 v -111.915 c 0,-4.714 -1.624,-8.695 -4.865,-11.944 -3.251,-3.24 -7.231,-4.864 -11.946,-4.864 z"
         id="path20"
         inkscape:connector-curvature="0"
         style="fill:#1C2125" /><path
         d="m 2574.24,1502.875 c -14.306,-14.156 -31.483,-21.234 -51.533,-21.234 H 2410.35 c -10.617,0 -19.762,-3.829 -27.426,-11.501 -7.672,-7.664 -11.501,-16.954 -11.501,-27.868 0,-10.907 3.829,-20.196 11.501,-27.868 7.664,-7.664 16.809,-11.501 27.426,-11.501 h 112.357 c 4.714,0 8.695,-1.617 11.944,-4.866 3.241,-3.241 4.865,-7.222 4.865,-11.943 0,-4.714 -1.624,-8.695 -4.865,-11.944 -3.249,-3.241 -7.23,-4.865 -11.944,-4.865 H 2410.35 c -20.058,0 -37.158,7.154 -51.313,21.454 -14.156,14.308 -21.232,31.483 -21.232,51.534 0,20.058 7.077,37.234 21.232,51.534 14.156,14.308 31.255,21.454 51.313,21.454 h 112.357 c 7.078,0 13.637,1.77 19.684,5.308 6.042,3.539 10.838,8.336 14.377,14.377 3.538,6.047 5.307,12.607 5.307,19.685 0,10.616 -3.835,19.76 -11.501,27.425 -7.672,7.673 -16.961,11.502 -27.868,11.502 h -168.094 c -4.721,0 -8.703,1.7 -11.944,5.087 -3.249,3.393 -4.865,7.374 -4.865,11.943 0,4.576 1.616,8.481 4.865,11.723 3.241,3.249 7.223,4.866 11.944,4.866 h 168.094 c 20.051,0 37.227,-7.078 51.533,-21.234 14.302,-14.155 21.454,-31.331 21.454,-51.534 0,-20.196 -7.151,-37.379 -21.453,-51.534 z"
         id="path22"
         inkscape:connector-curvature="0"
         style="fill:#1C2125" /><path
         d="m 854.024,1585.195 20.001,-16.028 c 16.616,-13.507 33.04,-27.265 50.086,-40.251 1.13,-0.861 2.9,-1.686 2.003,-3.516 -0.843,-1.716 -2.481,-2.302 -4.484,-2.123 -8.514,0.765 -17.016,-0.538 -25.537,-0.353 -1.124,0.024 -2.768,0.221 -3.163,-1.25 -0.371,-1.369 1.088,-2.063 1.919,-2.894 6.26,-6.242 12.574,-12.43 18.816,-18.691 9.303,-9.327 18.565,-18.714 27.851,-28.066 1.848,-1.859 3.701,-3.713 5.549,-5.572 2.655,-2.661 5.309,-5.315 7.958,-7.982 0.574,-0.579 1.259,-1.141 1.246,-1.94 -0.004,-0.257 -0.078,-0.538 -0.254,-0.853 -0.556,-0.981 -1.441,-1.1 -2.469,-0.957 -0.658,0.096 -1.315,0.185 -1.973,0.275 -3.844,0.538 -7.689,1.076 -11.533,1.608 -3.641,0.505 -7.281,1.02 -10.922,1.529 -4.162,0.582 -8.324,1.158 -12.486,1.748 -1.142,0.161 -2.409,1.662 -3.354,0.508 -0.419,-0.508 -0.431,-1.028 -0.251,-1.531 0.269,-0.741 0.957,-1.441 1.387,-2.021 3.414,-4.58 6.882,-9.124 10.356,-13.662 1.74,-2.272 3.48,-4.544 5.214,-6.822 4.682,-6.141 9.369,-12.281 14.051,-18.422 0.09,-0.119 0.181,-0.237 0.271,-0.355 6.848,-8.98 13.7,-17.958 20.553,-26.936 0.488,-0.64 0.977,-1.28 1.465,-1.92 2.159,-2.828 4.315,-5.658 6.476,-8.486 4.197,-5.501 8.454,-10.954 12.67,-16.442 0.263,-0.347 0.538,-0.718 0.717,-1.106 0.269,-0.586 0.299,-1.196 -0.335,-1.776 -0.825,-0.753 -1.8,-0.15 -2.595,0.419 -0.67,0.472 -1.333,0.957 -1.955,1.489 -2.206,1.889 -4.401,3.797 -6.595,5.698 -3.958,3.438 -7.922,6.876 -11.976,10.194 -2.443,2.003 -4.865,4.028 -7.301,6.038 -18.689,-10.581 -39.53,-15.906 -62.549,-15.906 -35.54,0 -65.911,12.607 -91.125,37.82 -25.214,25.215 -37.821,55.592 -37.821,91.126 0,35.54 12.607,65.91 37.821,91.125 4.146,4.146 8.445,7.916 12.87,11.381 -9.015,11.14 -18.036,22.277 -27.034,33.429 -1.208,1.489 -3.755,3.151 -2.745,4.891 0.078,0.144 0.173,0.281 0.305,0.425 1.321,1.429 3.492,-1.303 4.933,-2.457 6.673,-5.333 13.333,-10.685 19.982,-16.042 3.707,-2.984 7.417,-5.965 11.124,-8.952 1.474,-1.188 2.951,-2.373 4.425,-3.561 6.41,-5.164 12.816,-10.333 19.238,-15.481 z m -56.472,-87.186 c 0,-26.243 9.29,-48.728 27.868,-67.459 18.579,-18.723 40.987,-28.089 67.238,-28.089 12.273,0 23.712,2.075 34.34,6.171 -3.37,2.905 -6.734,5.816 -10.069,8.762 -6.075,5.351 -12.365,10.469 -18.667,15.564 -4.179,3.378 -8.371,6.744 -12.514,10.164 -7.54,6.23 -15.037,12.52 -22.529,18.804 -7.091,5.955 -14.182,11.904 -21.19,17.949 -1.136,0.974 -3.055,1.907 -2.135,3.94 0.831,1.836 2.774,1.417 4.341,1.578 l 12.145,-0.599 14.151,-0.698 c 1.031,-0.102 2.192,-0.257 2.89,0.632 0.034,0.044 0.073,0.078 0.106,0.127 1.017,1.561 -0.67,2.105 -1.387,2.942 -6.308,7.318 -12.616,14.637 -18.978,21.907 -8.161,9.339 -16.353,18.649 -24.544,27.958 -2.146,2.433 -4.275,4.879 -6.422,7.312 -1.034,1.172 -2.129,2.272 -1.238,3.922 0.933,1.728 2.685,1.752 4.323,1.602 4.134,-0.367 8.263,-0.489 12.396,-0.492 0.242,0 0.485,-0.01 0.728,0 2.711,0.01 5.422,0.068 8.134,0.145 2.582,0.074 5.166,0.165 7.752,0.249 0.275,1.62 -0.879,2.356 -1.62,3.259 -1.333,1.626 -2.667,3.247 -4,4.867 -4.315,5.252 -8.62,10.514 -12.928,15.772 -3.562,-2.725 -7.007,-5.733 -10.324,-9.051 -18.577,-18.576 -27.867,-40.983 -27.867,-67.234 z"
         id="path24"
         inkscape:connector-curvature="0"
         style="fill:#1C2125" /></g></g></svg>