<?xml version="1.0" encoding="UTF-8"?><svg width="888px" height="872px" viewBox="0 0 888 872" version="1.1" xmlns="http://www.w3.org/2000/svg" xmlns:xlink="http://www.w3.org/1999/xlink">        <title>Group</title>    <desc>Created with Sketch.</desc>    <defs>        <linearGradient x1="56.5827017%" y1="72.1735502%" x2="20.5553878%" y2="22.3327802%" id="linearGradient-1">            <stop stop-color="#A08DFF" offset="0%"></stop>            <stop stop-color="#B6A9F9" offset="100%"></stop>        </linearGradient>        <linearGradient x1="68.1376164%" y1="78.0416298%" x2="31.9204438%" y2="22.329265%" id="linearGradient-2">            <stop stop-color="#7941FF" offset="0%"></stop>            <stop stop-color="#A984FF" offset="100%"></stop>        </linearGradient>        <path d="M475.256149,138.477819 C527.320825,98.2711931 580.836486,156.711741 595.834862,171.175726 C605.392891,180.393522 613.549907,192.001393 621.23716,204.315807 C633.64403,224.190216 644.927924,245.491746 657.130964,265.625377 C665.040837,278.675342 673.324611,291.195635 683.019588,301.471372 C696.647207,315.915704 711.800048,325.236439 728.23829,330.079759 C736.144341,332.409475 744.151671,333.371027 752.203906,334.155241 C760.823999,334.995605 769.384217,334.125763 777.947619,333.569888 C786.827595,332.993893 795.675086,331.37493 804.541685,330.306227 C811.089083,329.516398 817.648902,328.950228 824.195663,328.15338 C832.241528,327.174516 840.301726,327.054264 848.36065,327.290089 C864.434865,327.759869 880.300791,330.469059 895.520513,338.525038 C910.703609,346.562301 923.492023,359.837798 934.047226,377.776002 C949.044009,403.261569 957.833535,433.127227 962.939474,465.643586 C966.878168,490.725348 969.358057,516.309976 967.184549,541.765264 C955.707848,676.176023 872.468963,640.22109 965.438619,777.396373 C1058.40828,914.571656 620.904514,997.259226 432.583439,855.854105 C244.262365,714.448984 683.189836,666.348044 394.359185,599.292459 C105.528534,532.236875 423.191474,178.684445 475.256149,138.477819 Z" id="path-3"></path>        <linearGradient x1="31.9204438%" y1="22.329265%" x2="68.1376164%" y2="78.0416298%" id="linearGradient-5">            <stop stop-color="#7941FF" offset="0%"></stop>            <stop stop-color="#A984FF" offset="100%"></stop>        </linearGradient>    </defs>    <g id="Page-1" stroke="none" stroke-width="1" fill="none" fill-rule="evenodd">        <g id="Group" transform="translate(-101.000000, -71.000000)">            <path d="M271.34969,125.283199 C316.633568,108.561196 358.860621,124.792738 360.589696,125.283199 C381.849491,131.310481 401.83088,140.053489 420.366585,151.769961 C432.17885,159.236787 442.259679,168.63968 451.75995,178.614904 C467.092949,194.714062 481.038121,211.969251 496.119217,228.27839 C505.894613,238.849444 516.132094,248.991439 528.113606,257.315244 C544.955265,269.015797 563.681865,276.566008 583.997025,280.489313 C593.767698,282.376487 603.663536,283.155387 613.61487,283.790636 C624.26799,284.471368 634.847114,283.766757 645.430173,283.316473 C656.404469,282.849892 667.338617,281.538459 678.296382,280.672762 C686.387967,280.032965 694.494902,279.574343 702.5857,278.928861 C712.529163,278.135937 722.490337,278.038527 732.449938,278.229556 C752.315215,278.610099 771.92308,280.804664 790.732335,287.330366 C809.496326,293.840907 825.300855,304.594652 838.345475,319.125397 C856.879211,339.769843 867.741725,363.962357 874.051886,390.302057 C878.919511,410.619403 881.984275,431.344093 879.298152,451.964011 C865.114699,560.842719 789.860852,587.062373 877.140448,642.835715 C952.369006,690.657897 451.348851,820.934429 218.612729,706.389976 C-14.1233919,591.845523 397.47042,613.487488 171.373382,498.563604 C-54.7236553,383.63972 226.065812,142.005201 271.34969,125.283199 Z" id="Shape" fill="url(#linearGradient-1)" transform="translate(484.566917, 434.999131) scale(-1, 1) rotate(-340.000000) translate(-484.566917, -434.999131) "></path>            <mask id="mask-4" fill="white">                <use xlink:href="#path-3"></use>            </mask>            <use id="Shape" fill="url(#linearGradient-2)" transform="translate(626.417337, 526.983433) scale(-1, -1) rotate(-105.000000) translate(-626.417337, -526.983433) " xlink:href="#path-3"></use>            <path d="M74.1808912,492.700109 C146.298372,442.0221 220.42569,515.682861 241.200717,533.913835 C254.440038,545.532306 265.738745,560.163323 276.386757,575.684894 C293.572156,600.735379 309.202063,627.584664 326.105126,652.961883 C337.061502,669.410571 348.535786,685.19164 361.964801,698.143582 C380.841123,716.349785 401.830108,728.098006 424.59957,734.202717 C435.550651,737.139182 446.642018,738.35116 457.795587,739.339614 C469.735725,740.398841 481.592926,739.302459 493.454539,738.601812 C505.754654,737.875805 518.009772,735.8352 530.291359,734.488165 C539.360499,733.492633 548.446844,732.779012 557.515101,731.774633 C568.659847,730.540834 579.824445,730.389263 590.987278,730.686507 C613.252507,731.278636 635.229224,734.693405 656.31085,744.847477 C677.341744,754.977959 695.055639,771.710917 709.676197,794.320934 C730.449019,826.443943 742.623848,864.08779 749.696348,905.072685 C755.152037,936.686723 758.587059,968.934592 755.576422,1001.01944 C739.679447,1170.43603 655.334082,1211.23414 753.158043,1298.01814 C837.475064,1372.43003 275.925992,1575.14191 15.0727082,1396.90934 C-245.780576,1218.67678 362.200621,1158.04846 -37.8736877,1073.52897 C-437.947997,989.009481 2.06341007,543.378119 74.1808912,492.700109 Z" id="Shape" fill="url(#linearGradient-5)" mask="url(#mask-4)" transform="translate(278.964762, 971.737507) rotate(-165.000000) translate(-278.964762, -971.737507) "></path>        </g>    </g></svg>