<?xml version="1.0" encoding="utf-8"?>
<!DOCTYPE svg PUBLIC "-//W3C//DTD SVG 1.1//EN" "http://www.w3.org/Graphics/SVG/1.1/DTD/svg11.dtd">
<svg version="1.1" id="Layer_1" xmlns="http://www.w3.org/2000/svg" xmlns:xlink="http://www.w3.org/1999/xlink" x="0px" y="0px" width="581px" height="644px" viewBox="0 0 581 644" enable-background="new 0 0 581 644" xml:space="preserve">
	<linearGradient id="path-2_2_" gradientUnits="userSpaceOnUse" x1="-108.326" y1="621.0411" x2="-108.6882" y2="621.5982" gradientTransform="matrix(-153.9973 -574.7258 -591.1466 158.3972 350853.4062 -160436.6562)">
		<stop  offset="0" style="stop-color:#7941FF"/>
		<stop  offset="1" style="stop-color:#A984FF"/>
	</linearGradient>
	<path id="path-2_1_" fill="url(#path-2_2_)" d="M21,541.3c-41.7-34.8-9.6-90.7-2.1-106c4.8-9.7,11.7-18.8,19.3-27.6c12.2-14.2,25.7-27.8,38.1-41.9c8-9.1,15.6-18.5,21.2-28.6c7.8-14.1,11.5-28.5,11.5-43c0-7-1-13.8-2.2-20.6c-1.3-7.3-3.8-14.2-6.1-21.1c-2.4-7.2-5.6-14.2-8.3-21.3c-2-5.2-3.9-10.5-6-15.8c-2.5-6.4-4.4-13.1-6-19.8c-3.2-13.3-4.7-27-2-41.1c2.7-14.1,9.8-27.3,20.9-39.7c15.8-17.5,36.3-30.7,59.5-41.5c17.9-8.3,36.6-15.5,56.2-18.8C318.3,37.1,356,80.8,392.1,8.7c30.8-62.1,241.1,239.9,176.6,423.6c-3.5,9.9-197.6-168.5-184.1,83.1S62.7,576.2,21,541.3z"/>
</svg>