<svg xmlns="http://www.w3.org/2000/svg" viewBox="0 0 1442.31 405.16">
	<defs>
		<style>.cls-1{fill:#f70dca;opacity:0.55;}.cls-2{fill:none;stroke:#6146d7;stroke-width:2px;opacity:0.55;}</style>
	</defs>
	<title>Asset 2</title>
	<g id="Layer_2" data-name="Layer 2">
		<g id="Layer_1-2" data-name="Layer 1">
			<g id="Page-1">
				<g id="lines">
					<path id="fill" class="shape-fill shape-fill-5" d="M1442,151.16c-15.34,0-14.91-33.19-30.25-33.19S1396,49.06,1380.64,49.06,1365.3,83.38,1350,83.38,1334.62,11,1319.28,11s-15.34,23.94-30.68,23.94S1278.34,77.5,1263,77.5s-20.43,89.16-35.77,89.16-15.34-120.31-30.68-120.31-15.34,87.88-30.68,87.88-15.34-56.73-30.68-56.73-6.35,29.22-21.69,29.22S1089.17,2,1073.83,2s-15.34,11.12-30.68,11.12-15.34,64.43-30.68,64.43-15.34,59.89-30.68,59.89-15.34-68.61-30.68-68.61S935.77,11,920.43,11s-15.34,17.68-30.68,17.68S874.4,54.8,859.06,54.8s-15.34,62.74-30.68,62.74S813,142.45,797.7,142.45,782.36,140,767,140s-15.34,89.53-30.68,89.53S721,187.16,705.66,187.16,690.32,248.35,675,248.35s-15.34-11.64-30.68-11.64S629,175,613.62,175s-15.34-56.34-30.68-56.34S567.6,77.5,552.26,77.5s-15.34-48.84-30.68-48.84-15.34,20.5-30.68,20.5S475.55,1.84,460.21,1.84s-15.34,75.83-30.68,75.83-15.34-51.59-30.68-51.59S383.51.16,368.17.16s-15.34,8.31-30.68,8.31-15.34,26.37-30.68,26.37-15.34-11.19-30.68-11.19S260.79,54.8,245.45,54.8s-15.34-53-30.68-53-15.34,104.87-30.68,104.87S168.74,26.08,153.4,26.08s-15.34,57.3-30.68,57.3-15.34-37-30.68-37S76.7,83.56,61.36,83.56,46,46.35,30.68,46.35,15.34,151.53,0,151.53V399.62a5.55,5.55,0,0,0,5.55,5.55H1436.45a5.55,5.55,0,0,0,5.55-5.55Z"/>
					<path id="line" class="shape-stroke shape-stroke-5" d="M1442.31,152c-15.34,0-15.34-33.63-30.68-33.63S1396.29,50,1380.95,50s-15.34,34.4-30.68,34.4-15.34-72.56-30.68-72.56-15.34,23.84-30.68,23.84-10.26,42.82-25.6,42.82-20.43,89-35.77,89S1212.2,47.19,1196.86,47.19s-15.34,87.88-30.68,87.88-15.34-56.56-30.68-56.56-6.35,29.28-21.69,29.28-24.33-105-39.67-105-15.34,11.14-30.68,11.14-15.34,64.57-30.68,64.57-15.34,60-30.68,60-15.34-68.76-30.68-68.76-15.34-57.92-30.68-57.92-15.34,17.72-30.68,17.72-15.34,26.19-30.68,26.19S844,118.62,828.69,118.62s-15.34,25-30.68,25-15.34-2.48-30.68-2.48S752,229.85,736.65,229.85,721.31,188,706,188s-15.34,61.73-30.68,61.73-15.34-11.66-30.68-11.66-15.34-61.82-30.68-61.82-15.34-56.46-30.68-56.46-15.34-41.27-30.68-41.27-15.34-48.94-30.68-48.94S506.54,50,491.2,50,475.86,2.68,460.52,2.68s-15.34,75.82-30.68,75.82S414.5,25.75,399.16,25.75,383.82,1,368.48,1,353.14,9.33,337.8,9.33s-15.34,26.43-30.68,26.43-15.34-11.22-30.68-11.22S261.1,55.75,245.76,55.75s-15.34-53-30.68-53-15.34,105-30.68,105S169.05,27,153.71,27,138.37,84.4,123,84.4,107.69,47.74,92.35,47.74,77,84.22,61.67,84.22,46.33,47.29,31,47.29,15.65,151.79.31,151.79"/>
				</g>
			</g>
		</g>
	</g>
</svg>