<svg xmlns="http://www.w3.org/2000/svg" viewBox="0 0 1047.1 3.61"><title>waves-p</title><g id="Layer_2" data-name="Layer 2"><g id="Layer_1-2" data-name="Layer 1"><path d="M1041.9,3.61V2.41c-2,1.1-2.6-.4-2.6-.4s-.6-1.7-1.5-1.9c-2.1-.6-4.4,1.5-5.6,2.2-2.1,1.2-2.7-.3-2.7-.3s-.6-1.7-1.5-1.9c-2.1-.6-4.4,1.5-5.6,2.2-2.1,1.2-2.7-.3-2.7-.3s-.6-1.7-1.5-1.9c-2.1-.6-4.4,1.5-5.6,2.2-2.1,1.2-2.7-.3-2.7-.3s-.6-1.7-1.5-1.9c-2.1-.6-4.4,1.5-5.6,2.2-2.1,1.2-2.7-.3-2.7-.3s-.6-1.7-1.5-1.9c-2.1-.6-4.4,1.5-5.6,2.2-2.1,1.2-2.7-.3-2.7-.3s-.6-1.7-1.5-1.9c-2.1-.6-4.4,1.5-5.6,2.2-2.1,1.2-2.7-.3-2.7-.3s-.6-1.7-1.5-1.9c-2.1-.6-4.4,1.5-5.6,2.2-2.1,1.2-2.7-.3-2.7-.3s-.6-1.7-1.5-1.9c-2.1-.6-4.4,1.5-5.6,2.2-2.1,1.2-2.7-.3-2.7-.3s-.6-1.7-1.5-1.9c-2.1-.6-4.4,1.5-5.6,2.2-2.1,1.2-2.7-.3-2.7-.3s-.6-1.7-1.5-1.9c-2.1-.6-4.4,1.5-5.6,2.2-2.1,1.2-2.7-.3-2.7-.3s-.6-1.7-1.5-1.9c-2.1-.6-4.4,1.5-5.6,2.2-2.1,1.2-2.7-.3-2.7-.3s-.6-1.7-1.5-1.9c-2.1-.6-4.4,1.5-5.6,2.2-2.1,1.2-2.7-.3-2.7-.3s-.6-1.7-1.5-1.9c-2.1-.6-4.4,1.5-5.6,2.2-2.1,1.2-2.7-.3-2.7-.3s-.6-1.7-1.5-1.9c-2.1-.6-4.4,1.5-5.6,2.2-2.1,1.2-2.7-.3-2.7-.3s-.6-1.7-1.5-1.9c-2.1-.6-4.4,1.5-5.6,2.2-2.1,1.2-2.7-.3-2.7-.3s-.6-1.7-1.5-1.9c-2.1-.6-4.4,1.5-5.6,2.2-2.1,1.2-2.7-.3-2.7-.3s-.6-1.7-1.5-1.9c-2.1-.6-4.4,1.5-5.6,2.2-2.1,1.2-2.7-.3-2.7-.3s-.6-1.7-1.5-1.9c-2.1-.6-4.4,1.5-5.6,2.2-2.1,1.2-2.7-.3-2.7-.3s-.6-1.7-1.5-1.9c-2.1-.6-4.4,1.5-5.6,2.2-2.1,1.2-2.7-.3-2.7-.3s-.6-1.7-1.5-1.9c-2.1-.6-4.4,1.5-5.6,2.2-2.1,1.2-2.7-.3-2.7-.3s-.6-1.7-1.5-1.9c-2.1-.6-4.4,1.5-5.6,2.2-2.1,1.2-2.7-.3-2.7-.3s-.6-1.7-1.5-1.9c-2.1-.6-4.4,1.5-5.6,2.2-2.1,1.2-2.7-.3-2.7-.3s-.6-1.7-1.5-1.9c-2.1-.6-4.4,1.5-5.6,2.2-2.1,1.2-2.7-.3-2.7-.3s-.6-1.7-1.5-1.9c-2.1-.6-4.4,1.5-5.6,2.2-2.1,1.2-2.7-.3-2.7-.3s-.6-1.7-1.5-1.9c-2.1-.6-4.4,1.5-5.6,2.2-2.1,1.2-2.7-.3-2.7-.3s-.6-1.7-1.5-1.9c-2.1-.6-4.4,1.5-5.6,2.2-2.1,1.2-2.7-.3-2.7-.3s-.6-1.7-1.5-1.9c-2.1-.6-4.4,1.5-5.6,2.2-2.1,1.2-2.7-.3-2.7-.3s-.6-1.7-1.5-1.9c-2.1-.6-4.4,1.5-5.6,2.2-2.1,1.2-2.7-.3-2.7-.3s-.6-1.7-1.5-1.9c-2.1-.6-4.4,1.5-5.6,2.2-2.1,1.2-2.7-.3-2.7-.3s-.6-1.7-1.5-1.9c-2.1-.6-4.4,1.5-5.6,2.2-2.1,1.2-2.7-.3-2.7-.3s-.6-1.7-1.5-1.9c-2.1-.6-4.4,1.5-5.6,2.2-2.1,1.2-2.7-.3-2.7-.3s-.6-1.7-1.5-1.9c-2.1-.6-4.4,1.5-5.6,2.2-2.1,1.2-2.7-.3-2.7-.3s-.6-1.7-1.5-1.9c-2.1-.6-4.4,1.5-5.6,2.2-2.1,1.2-2.7-.3-2.7-.3s-.6-1.7-1.5-1.9c-2.1-.6-4.4,1.5-5.6,2.2-2.1,1.2-2.7-.3-2.7-.3s-.6-1.7-1.5-1.9c-2.1-.6-4.4,1.5-5.6,2.2-2.1,1.2-2.7-.3-2.7-.3s-.6-1.7-1.5-1.9c-2.1-.6-4.4,1.5-5.6,2.2-2.1,1.2-2.7-.3-2.7-.3s-.6-1.7-1.5-1.9c-2.1-.6-4.4,1.5-5.6,2.2-2.1,1.2-2.7-.3-2.7-.3s-.6-1.7-1.5-1.9c-2.1-.6-4.4,1.5-5.6,2.2-2.1,1.2-2.7-.3-2.7-.3s-.6-1.7-1.5-1.9c-2.1-.6-4.4,1.5-5.6,2.2-2.1,1.2-2.7-.3-2.7-.3s-.6-1.7-1.5-1.9c-2.1-.6-4.4,1.5-5.6,2.2-2.1,1.2-2.7-.3-2.7-.3s-.6-1.7-1.5-1.9c-2.1-.6-4.4,1.5-5.6,2.2-2.1,1.2-2.7-.3-2.7-.3s-.6-1.7-1.5-1.9c-2.1-.6-4.4,1.5-5.6,2.2-2.1,1.2-2.7-.3-2.7-.3s-.6-1.7-1.5-1.9c-2.1-.6-4.4,1.5-5.6,2.2-2.1,1.2-2.7-.3-2.7-.3s-.6-1.7-1.5-1.9c-2.1-.6-4.4,1.5-5.6,2.2-2.1,1.2-2.7-.3-2.7-.3s-.6-1.7-1.5-1.9c-2.1-.6-4.4,1.5-5.6,2.2-2.1,1.2-2.7-.3-2.7-.3s-.6-1.7-1.5-1.9c-2.1-.6-4.4,1.5-5.6,2.2-2.1,1.2-2.7-.3-2.7-.3s-.6-1.7-1.5-1.9c-2.1-.6-4.4,1.5-5.6,2.2-2.1,1.2-2.7-.3-2.7-.3s-.6-1.7-1.5-1.9c-2.1-.6-4.4,1.5-5.6,2.2-2.1,1.2-2.7-.3-2.7-.3s-.6-1.7-1.5-1.9c-2.1-.6-4.4,1.5-5.6,2.2-2.1,1.2-2.7-.3-2.7-.3s-.6-1.7-1.5-1.9c-2.1-.6-4.4,1.5-5.6,2.2-2.1,1.2-2.7-.3-2.7-.3s-.6-1.7-1.5-1.9c-2.1-.6-4.4,1.5-5.6,2.2-2.1,1.2-2.7-.3-2.7-.3s-.6-1.7-1.5-1.9c-2.1-.6-4.4,1.5-5.6,2.2-2.1,1.2-2.7-.3-2.7-.3s-.6-1.7-1.5-1.9c-2.1-.6-4.4,1.5-5.6,2.2-2.1,1.2-2.7-.3-2.7-.3s-.6-1.7-1.5-1.9c-2.1-.6-4.4,1.5-5.6,2.2-2.1,1.2-2.7-.3-2.7-.3s-.6-1.7-1.5-1.9c-2.1-.6-4.4,1.5-5.6,2.2-2.1,1.2-2.7-.3-2.7-.3s-.6-1.7-1.5-1.9c-2.1-.6-4.4,1.5-5.6,2.2-2.1,1.2-2.7-.3-2.7-.3s-.6-1.7-1.5-1.9c-2.1-.6-4.4,1.5-5.6,2.2-2.1,1.2-2.7-.3-2.7-.3s-.6-1.7-1.5-1.9c-2.1-.6-4.4,1.5-5.6,2.2-2.1,1.2-2.7-.3-2.7-.3s-.6-1.7-1.5-1.9c-2.1-.6-4.4,1.5-5.6,2.2-2.1,1.2-2.7-.3-2.7-.3s-.6-1.7-1.5-1.9c-2.1-.6-4.4,1.5-5.6,2.2-2.1,1.2-2.7-.3-2.7-.3s-.6-1.7-1.5-1.9c-2.1-.6-4.4,1.5-5.6,2.2-2.1,1.2-2.7-.3-2.7-.3s-.6-1.7-1.5-1.9c-2.1-.6-4.4,1.5-5.6,2.2-2.1,1.2-2.7-.3-2.7-.3s-.6-1.7-1.5-1.9c-2.1-.6-4.4,1.5-5.6,2.2-2.1,1.2-2.7-.3-2.7-.3s-.6-1.7-1.5-1.9c-2.1-.6-4.4,1.5-5.6,2.2-2.1,1.2-2.7-.3-2.7-.3s-.6-1.7-1.5-1.9c-2.1-.6-4.4,1.5-5.6,2.2-2.1,1.2-2.7-.3-2.7-.3s-.6-1.7-1.5-1.9c-2.1-.6-4.4,1.5-5.6,2.2-2.1,1.2-2.7-.3-2.7-.3s-.6-1.7-1.5-1.9c-2.1-.6-4.4,1.5-5.6,2.2-2.1,1.2-2.7-.3-2.7-.3s-.6-1.7-1.5-1.9c-2.1-.6-4.4,1.5-5.6,2.2-2.1,1.2-2.7-.3-2.7-.3s-.6-1.7-1.5-1.9c-2.1-.6-4.4,1.5-5.6,2.2-2.1,1.2-2.7-.3-2.7-.3s-.6-1.7-1.5-1.9c-2.1-.6-4.4,1.5-5.6,2.2-2.1,1.2-2.7-.3-2.7-.3s-.6-1.7-1.5-1.9c-2.1-.6-4.4,1.5-5.6,2.2-2.1,1.2-2.7-.3-2.7-.3s-.6-1.7-1.5-1.9c-2.1-.6-4.4,1.5-5.6,2.2-2.1,1.2-2.7-.3-2.7-.3s-.6-1.7-1.5-1.9c-2.1-.6-4.4,1.5-5.6,2.2-2.1,1.2-2.7-.3-2.7-.3s-.6-1.7-1.5-1.9c-2.1-.6-4.4,1.5-5.6,2.2-2.1,1.2-2.7-.3-2.7-.3s-.6-1.7-1.5-1.9c-2.1-.6-4.4,1.5-5.6,2.2-2.1,1.2-2.7-.3-2.7-.3s-.6-1.7-1.5-1.9c-2.1-.6-4.4,1.5-5.6,2.2-2.1,1.2-2.7-.3-2.7-.3s-.6-1.7-1.5-1.9c-2.1-.6-4.4,1.5-5.6,2.2-2.1,1.2-2.7-.3-2.7-.3s-.6-1.7-1.5-1.9c-2.1-.6-4.4,1.5-5.6,2.2-2.1,1.2-2.7-.3-2.7-.3s-.6-1.7-1.5-1.9c-2.1-.6-4.4,1.5-5.6,2.2-2.1,1.2-2.7-.3-2.7-.3s-.6-1.7-1.5-1.9c-2.1-.6-4.4,1.5-5.6,2.2-2.1,1.2-2.7-.3-2.7-.3s-.6-1.7-1.5-1.9c-2.1-.6-4.4,1.5-5.6,2.2-2.1,1.2-2.7-.3-2.7-.3s-.6-1.7-1.5-1.9c-2.1-.6-4.4,1.5-5.6,2.2-2.1,1.2-2.7-.3-2.7-.3s-.6-1.7-1.5-1.9c-2.1-.6-4.4,1.5-5.6,2.2-2.1,1.2-2.7-.3-2.7-.3s-.6-1.7-1.5-1.9c-2.1-.6-4.4,1.5-5.6,2.2-2.1,1.2-2.7-.3-2.7-.3s-.6-1.7-1.5-1.9c-2.1-.6-4.4,1.5-5.6,2.2-2.1,1.2-2.7-.3-2.7-.3s-.6-1.7-1.5-1.9c-2.1-.6-4.4,1.5-5.6,2.2-2.1,1.2-2.7-.3-2.7-.3s-.6-1.7-1.5-1.9c-2.1-.6-4.4,1.5-5.6,2.2-2.1,1.2-2.7-.3-2.7-.3s-.6-1.7-1.5-1.9c-2.1-.6-4.4,1.5-5.6,2.2-2.1,1.2-2.7-.3-2.7-.3s-.6-1.7-1.5-1.9c-2.1-.6-4.4,1.5-5.6,2.2-2.1,1.2-2.7-.3-2.7-.3s-.6-1.7-1.5-1.9c-2.1-.6-4.4,1.5-5.6,2.2-2.1,1.2-2.7-.3-2.7-.3s-.6-1.7-1.5-1.9c-2.1-.6-4.4,1.5-5.6,2.2-2.1,1.2-2.7-.3-2.7-.3s-.6-1.7-1.5-1.9c-2.1-.6-4.4,1.5-5.6,2.2-2.1,1.2-2.7-.3-2.7-.3s-.6-1.7-1.5-1.9c-2.1-.6-4.4,1.5-5.6,2.2-2.1,1.2-2.7-.3-2.7-.3s-.6-1.7-1.5-1.9c-2.1-.6-4.4,1.5-5.6,2.2-2.1,1.2-2.7-.3-2.7-.3s-.6-1.7-1.5-1.9c-2.1-.6-4.4,1.5-5.6,2.2-2.1,1.2-2.7-.3-2.7-.3s-.6-1.7-1.5-1.9c-2.1-.6-4.4,1.5-5.6,2.2-2.1,1.2-2.7-.3-2.7-.3S97.9.31,97,.11c-2.2-.6-4.4,1.5-5.7,2.2-2.1,1.2-2.7-.3-2.7-.3S88,.31,87.1.11c-2.1-.6-4.4,1.5-5.6,2.2-2.1,1.2-2.7-.3-2.7-.3S78.2.31,77.3.11c-2.1-.6-4.4,1.5-5.6,2.2C69.6,3.51,69,2,69,2S68.3.31,67.4.11c-2.1-.6-4.4,1.5-5.8,2.2-2.1,1.2-2.7-.3-2.7-.3S58.3.31,57.4.11c-2.1-.6-4.4,1.5-5.6,2.2-2.1,1.2-2.7-.3-2.7-.3S48.5.31,47.6.11c-2.1-.6-4.4,1.5-5.6,2.2-2.1,1.2-2.7-.3-2.7-.3S38.7.31,37.8.11c-2.1-.6-4.4,1.5-5.6,2.2-2.1,1.2-2.7-.3-2.7-.3S28.9.31,28,.11c-2.1-.6-4.4,1.5-5.6,2.2-2.1,1.2-2.7-.3-2.7-.3S19.1.31,18.2.11c-2.2-.6-4.4,1.5-5.7,2.2C10.4,3.51,9.8,2,9.8,2S9.2.31,8.3.11c-2.2-.6-4.4,1.5-5.6,2.2C.6,3.51,0,2,0,2v1.6H1041.9ZM2.5,2.41Zm.3-.3a.1.1,0,0,1-.1.1C2.8,2.21,2.8,2.21,2.8,2.11Z"/></g></g></svg>