<svg xmlns="http://www.w3.org/2000/svg" viewBox="0 0 367.86 337.84"><defs><style>.cls-1{fill:#f1fae3;}.cls-2{fill:#0b1032;}.cls-3{fill:#7fcae0;}.cls-4{fill:#4773b3;}.cls-5{fill:#161183;}.cls-6{fill:#39459d;}.cls-7{fill:#a6dcea;}.cls-8{fill:#e5f5f9;}.cls-9{fill:#fe300c;}.cls-10{fill:#0a0747;}.cls-11{fill:#fff;}</style></defs><title>Asset 1</title><g id="Layer_2" data-name="Layer 2"><g id="OBJECTS"><path class="cls-1" d="M78.4,272.71s2-.29,2.48,1.31-2.34,1.53-2.34,1.53Z"/><polygon class="cls-2" points="48.04 259.65 62.12 269.06 78.92 272.25 79.14 276.41 62.05 275.71 45.44 269.15 48.04 259.65"/><path class="cls-3" d="M165.46,24.11V19.27h-1.92a12.66,12.66,0,0,0-1.95-4.72l1.35-1.35-3.42-3.42-1.35,1.35a12.66,12.66,0,0,0-4.72-1.95V7.27h-4.83V9.19a12.66,12.66,0,0,0-4.72,1.95l-1.35-1.35-3.42,3.42,1.35,1.35a12.66,12.66,0,0,0-1.95,4.72h-1.92v4.83h1.92a12.66,12.66,0,0,0,1.95,4.72l-1.35,1.35,3.42,3.42,1.35-1.35a12.66,12.66,0,0,0,4.72,1.95v1.92h4.83V34.19a12.66,12.66,0,0,0,4.72-1.95l1.35,1.35,3.42-3.42-1.35-1.35a12.66,12.66,0,0,0,1.95-4.72ZM151,29.87a8.19,8.19,0,1,1,8.19-8.18A8.18,8.18,0,0,1,151,29.87Z"/><circle class="cls-3" cx="151.04" cy="21.69" r="1.92"/><path class="cls-3" d="M135.64,10V7.1H134.5a7.5,7.5,0,0,0-1.15-2.79l.8-.8-2-2-.8.8a7.49,7.49,0,0,0-2.79-1.15V0h-2.86V1.13a7.49,7.49,0,0,0-2.79,1.15l-.8-.8-2,2,.8.8a7.49,7.49,0,0,0-1.15,2.79h-1.13V10h1.13a7.49,7.49,0,0,0,1.15,2.79l-.8.8,2,2,.8-.8a7.49,7.49,0,0,0,2.79,1.15v1.13h2.86V15.92a7.49,7.49,0,0,0,2.79-1.15l.8.8,2-2-.8-.8A7.5,7.5,0,0,0,134.5,10Zm-8.53,3.41a4.84,4.84,0,1,1,4.84-4.84A4.84,4.84,0,0,1,127.11,13.37Z"/><circle class="cls-3" cx="127.11" cy="8.53" r="1.13"/><path class="cls-3" d="M139.3,42V37.31h-1.87a12.33,12.33,0,0,0-1.9-4.6l1.32-1.32-3.33-3.33-1.32,1.32a12.34,12.34,0,0,0-4.6-1.9V25.62H122.9v1.87a12.33,12.33,0,0,0-4.6,1.9L117,28.07l-3.33,3.33L115,32.71a12.33,12.33,0,0,0-1.9,4.6h-1.87V42h1.87a12.33,12.33,0,0,0,1.9,4.6l-1.32,1.32L117,51.26l1.32-1.32a12.34,12.34,0,0,0,4.6,1.9v1.87h4.71V51.84a12.34,12.34,0,0,0,4.6-1.9l1.32,1.32,3.33-3.33-1.32-1.32a12.33,12.33,0,0,0,1.9-4.6Zm-14,5.62a8,8,0,1,1,8-8A8,8,0,0,1,125.25,47.64Z"/><circle class="cls-3" cx="125.25" cy="39.67" r="1.87"/><path class="cls-3" d="M256.3,168.28l2,4.38,1.74-.81a12.65,12.65,0,0,0,3.76,3.45l-.66,1.8,4.54,1.66.66-1.8a12.67,12.67,0,0,0,5.1-.22l.81,1.74,4.38-2-.81-1.74a12.66,12.66,0,0,0,3.45-3.76l1.8.66,1.66-4.54-1.8-.66a12.67,12.67,0,0,0-.22-5.1l1.74-.81-2-4.38-1.74.81a12.66,12.66,0,0,0-3.76-3.45l.66-1.8L273.06,150l-.66,1.8a12.66,12.66,0,0,0-5.1.22l-.81-1.74-4.38,2,.81,1.74a12.66,12.66,0,0,0-3.45,3.76l-1.8-.66L256,161.71l1.8.66a12.65,12.65,0,0,0,.22,5.1ZM266.94,157a8.19,8.19,0,1,1-4,10.87A8.19,8.19,0,0,1,266.94,157Z"/><circle class="cls-3" cx="270.39" cy="164.38" r="1.92" transform="translate(-44.11 129.44) rotate(-24.96)"/><path class="cls-3" d="M289.31,168.52l1.21,2.59,1-.48a7.5,7.5,0,0,0,2.22,2l-.39,1.06,2.69,1,.39-1.06a7.49,7.49,0,0,0,3-.13l.48,1,2.59-1.21-.48-1a7.49,7.49,0,0,0,2-2.22l1.06.39,1-2.69-1.06-.39a7.5,7.5,0,0,0-.13-3l1-.48-1.21-2.59-1,.48a7.5,7.5,0,0,0-2.22-2l.39-1.06-2.69-1-.39,1.06a7.5,7.5,0,0,0-3,.13l-.48-1-2.59,1.21.48,1a7.49,7.49,0,0,0-2,2.22l-1.06-.39-1,2.69,1.06.39a7.49,7.49,0,0,0,.13,3Zm6.29-6.69a4.84,4.84,0,1,1-2.35,6.43A4.84,4.84,0,0,1,295.6,161.83Z"/><circle class="cls-3" cx="297.64" cy="166.22" r="1.13" transform="translate(-42.34 141.16) rotate(-24.97)"/><path class="cls-3" d="M272.45,141l2,4.27,1.69-.79a12.35,12.35,0,0,0,3.66,3.37l-.64,1.75,4.42,1.61.64-1.75a12.34,12.34,0,0,0,5-.22l.79,1.69,4.27-2-.79-1.69a12.34,12.34,0,0,0,3.37-3.66l1.75.64,1.61-4.42-1.75-.64a12.33,12.33,0,0,0-.22-5l1.69-.79-2-4.27-1.69.79a12.34,12.34,0,0,0-3.66-3.37l.64-1.75-4.42-1.61-.64,1.75a12.35,12.35,0,0,0-5,.22l-.79-1.69-4.27,2,.79,1.69a12.34,12.34,0,0,0-3.37,3.66l-1.75-.64-1.61,4.42,1.75.64a12.34,12.34,0,0,0,.22,5Zm10.36-11a8,8,0,1,1-3.87,10.6A8,8,0,0,1,282.82,130Z"/><circle class="cls-3" cx="286.18" cy="137.21" r="1.87" transform="translate(-31.17 133.56) rotate(-24.96)"/><path class="cls-3" d="M92.85,192.57l1-2.66-1.06-.42a7.49,7.49,0,0,0,0-3l1-.45-1.14-2.62-1,.45a7.48,7.48,0,0,0-2.17-2.1l.42-1.06-2.66-1-.42,1.06a7.49,7.49,0,0,0-3,0l-.45-1-2.62,1.14.45,1a7.49,7.49,0,0,0-2.1,2.17L78,183.65l-1,2.66,1.06.42a7.49,7.49,0,0,0,0,3l-1,.45,1.14,2.62,1-.45a7.49,7.49,0,0,0,2.17,2.1L81,195.52l2.66,1,.42-1.06a7.49,7.49,0,0,0,3,0l.45,1,2.62-1.14-.45-1a7.5,7.5,0,0,0,2.1-2.17Zm-9.19,0a4.84,4.84,0,1,1,6.28-2.73A4.84,4.84,0,0,1,83.66,192.62Z"/><circle class="cls-3" cx="85.44" cy="188.11" r="1.13" transform="translate(-120.9 198.57) rotate(-68.47)"/><path class="cls-3" d="M84.74,219.3l1.73-4.38-1.74-.69a12.34,12.34,0,0,0-.08-5l1.71-.74-1.88-4.32-1.71.74a12.34,12.34,0,0,0-3.58-3.45l.69-1.74L75.5,198l-.69,1.74a12.34,12.34,0,0,0-5,.08l-.74-1.71L64.78,200l.74,1.71a12.34,12.34,0,0,0-3.45,3.58l-1.74-.69L58.61,209l1.74.69a12.34,12.34,0,0,0,.08,5l-1.71.74,1.88,4.32L62.3,219a12.33,12.33,0,0,0,3.58,3.45l-.69,1.74,4.38,1.73.69-1.74a12.35,12.35,0,0,0,5-.08l.74,1.71,4.32-1.88-.74-1.71A12.34,12.34,0,0,0,83,218.62Zm-15.13.07A8,8,0,1,1,80,214.89,8,8,0,0,1,69.61,219.38Z"/><circle class="cls-3" cx="72.54" cy="211.96" r="1.87" transform="translate(-151.25 201.65) rotate(-68.47)"/><ellipse class="cls-4" cx="180.52" cy="309.53" rx="127.3" ry="4.77"/><path class="cls-1" d="M276.2,251.2s-2-.18-2.4,1.44,2.42,1.4,2.42,1.4Z"/><polygon class="cls-2" points="305.18 246.26 290.39 250.7 275.77 250.7 275.77 254.31 290.48 256.12 308.63 254.31 305.18 246.26"/><path class="cls-5" d="M187.26,78.24c-8.11-2.26-13.51,6.23-21.38,3.23V41.54H56.36V151.07H96.29c3-7.87-5.5-13.27-3.23-21.38,2.21-7.91,10.68-10.39,18.07-10.62l-1.18,0h2.35l-1.17,0c7.39.23,15.86,2.72,18.07,10.62,2.26,8.11-6.23,13.51-3.23,21.38h39.93V111.14c7.87-3,13.27,5.5,21.38,3.23,7.91-2.21,10.39-10.68,10.62-18.07C197.65,88.92,195.17,80.44,187.26,78.24Z"/><rect class="cls-4" x="92.28" y="336.05" width="40.77" height="1.79"/><rect class="cls-4" x="302.89" y="320.22" width="64.97" height="1.79"/><path class="cls-6" d="M289.58,200H249.65c-3-7.87,5.5-13.27,3.23-21.38-2.21-7.91-10.68-10.39-18.07-10.62-7.39.23-15.86,2.72-18.07,10.62C214.48,186.73,223,192.13,220,200H180v39.93c7.87,3,13.27-5.5,21.38-3.23,7.91,2.21,10.39,10.68,10.62,18.07,0-.39,0-.79,0-1.17v2.35c0-.39,0-.78,0-1.17-.23,7.39-2.72,15.86-10.62,18.07-8.11,2.26-13.51-6.23-21.38-3.23v39.93H289.58Z"/><path class="cls-7" d="M159.2,61l5.87,26.89L167.72,100c8.33,1.24,11.79-8.2,20.2-7.72,8.19.47,12.43,8.22,14.23,15.39-.07-.39-.15-.77-.23-1.15l.5,2.29c-.08-.38-.18-.76-.27-1.14,1.35,7.27.73,16.08-6.52,19.92-7.44,3.94-14.52-3.2-21.58,1.4l2.65,12.12L182.57,168l26.89-5.87,12.12-2.65c1.24-8.33-8.2-11.79-7.72-20.2.47-8.19,8.22-12.43,15.39-14.23l-1.15.23,2.3-.5-1.14.27c7.27-1.35,16.08-.73,19.92,6.52,3.94,7.44-3.2,14.52,1.4,21.58l12.12-2.65,26.89-5.87-23.37-107Z"/><path class="cls-8" d="M201.59,236.69c-8.11-2.26-13.51,6.22-21.38,3.23V200H140.28c-3-7.87,5.5-13.27,3.23-21.38-2.21-7.91-10.68-10.39-18.07-10.62-7.39.23-15.86,2.72-18.07,10.62-2.26,8.11,6.23,13.51,3.23,21.38H70.68V309.53H180.21V269.6c7.87-3,13.27,5.5,21.38,3.23,7.91-2.21,10.39-10.68,10.62-18.07C212,247.38,209.49,238.9,201.59,236.69Z"/><path class="cls-2" d="M184.51,121.14a3.12,3.12,0,0,0,1.39-3.57s-1.81,2.22-6.08,2.75-5.46,6.9-1.8,9.61,5-2.85,5-2.85l.66-3.29Z"/><path class="cls-1" d="M184.51,121.14c-2.66,0-2.14,1.5-2.14,1.5l.67,3-1.65.57-1.18-1.16c-1.85-.44-1,1.88-1,1.88l-2.14,2-.6,1.94,5.09,4.49,1.94-3.65,3.55-1.08-1-3.62,1.75-.46Z"/><polygon class="cls-2" points="156.18 196.99 156.82 198.72 160.25 200.04 151.6 199.98 152 196.99 156.18 196.99"/><polygon class="cls-2" points="162.93 164.52 161.66 179.38 151.6 197.25 156.65 197.25 167.22 184.78 174.08 165.36 162.93 164.52"/><polygon class="cls-2" points="188.67 196.99 189.31 198.72 192.74 200.04 184.09 199.98 184.11 197.66 188.67 196.99"/><polygon class="cls-2" points="171.93 167.9 181.11 181.32 183.66 197.82 189.22 197.82 187.95 178.16 181.91 162.16 171.93 167.9"/><path class="cls-2" d="M181.11,168.3l-19-2.69,7.7-28.88a12.36,12.36,0,0,1,6.82-8h0l6.16,6.89.83,9.06Z"/><path class="cls-9" d="M180.72,139.18a14,14,0,0,1,.09-2.95l1.75.05a9.66,9.66,0,0,1-.09,2.95l.07,1.43s.51,4.29.82,7.86-.46,15.56-.46,15.56l-1.93,3.4-2.18-2.91s.57-13.52,1.86-23.25Z"/><path class="cls-1" d="M207.77,131.63s1.79-1,2.77.38-1.66,2.24-1.66,2.24Z"/><polygon class="cls-2" points="176.56 133.23 192.33 133.34 208.1 131.03 209.73 134.84 193.58 139.09 177.37 143.02 176.56 133.23"/><rect class="cls-10" x="99.05" y="141.57" width="1.68" height="195.38"/><rect class="cls-10" x="125.44" y="141.57" width="1.68" height="195.38"/><rect class="cls-10" x="99.05" y="150.14" width="27.23" height="1.68"/><rect class="cls-10" x="99.05" y="164.52" width="27.23" height="1.68"/><rect class="cls-10" x="99.05" y="178.9" width="27.23" height="1.68"/><rect class="cls-10" x="99.05" y="193.28" width="27.23" height="1.68"/><rect class="cls-10" x="99.05" y="207.66" width="27.23" height="1.68"/><rect class="cls-10" x="99.05" y="222.05" width="27.23" height="1.68"/><rect class="cls-10" x="99.05" y="236.43" width="27.23" height="1.68"/><rect class="cls-10" x="99.05" y="250.81" width="27.23" height="1.68"/><rect class="cls-10" x="99.05" y="265.19" width="27.23" height="1.68"/><rect class="cls-10" x="99.05" y="279.57" width="27.23" height="1.68"/><rect class="cls-10" x="99.05" y="293.95" width="27.23" height="1.68"/><rect class="cls-10" x="99.05" y="308.34" width="27.23" height="1.68"/><rect class="cls-10" x="99.05" y="322.72" width="27.23" height="1.68"/><path class="cls-1" d="M105.88,128.79a72,72,0,0,0,3.82,25.67h2.38s-1.27-18.69-.9-25.67Z"/><path class="cls-2" d="M109.7,154.46v10.48s3.33.62,3.33-2.22a66.9,66.9,0,0,0-.94-8.26Z"/><path class="cls-1" d="M121.16,128.79a72,72,0,0,1-3.82,25.67H115s1.27-18.69.9-25.67Z"/><path class="cls-2" d="M117.34,154.46v10.48s-3.33.62-3.33-2.22a66.9,66.9,0,0,1,.94-8.26Z"/><path class="cls-2" d="M110.7,74.29c-3.71.22-5.06,2.08-5.5,5.7-.41,3.42,1.4,5.77,4.88,6.13,0,0,5.13.78,4.84-8.42A3.66,3.66,0,0,0,110.7,74.29Z"/><circle class="cls-2" cx="106.43" cy="77.25" r="2.96"/><path class="cls-1" d="M114,75.42l3.88,5.28-1.11.62,1.11,1.85-3.08,2.46.25,2h-4.93V86.12s2.67.16,2.63-4.29c0,0-2.42-3.72,0-3.22C112.71,78.61,115.32,77.39,114,75.42Z"/><polygon class="cls-2" points="107.22 95.58 91.44 80.31 92.5 65.01 95.67 65.01 96.44 78.49 111.49 91.14 107.22 95.58"/><polygon class="cls-2" points="118.94 101.67 122.38 90.9 119.93 87.67 113.2 87.67 106.47 87.67 104.03 90.9 107.46 101.67 103.11 118.16 113.2 118.16 123.29 118.16 118.94 101.67"/><polygon class="cls-2" points="113.2 118.16 103.46 118.16 103.46 134.42 113.2 134.42 122.95 134.42 122.95 118.16 113.2 118.16"/><path class="cls-1" d="M92.75,65s-.33-1.81,1.31-2,1.27,2,1.27,2Z"/><polygon class="cls-2" points="117.54 95.58 133.32 80.31 132.26 65.01 129.09 65.01 128.32 78.49 113.27 91.14 117.54 95.58"/><path class="cls-1" d="M132,65s.33-1.81-1.31-2-1.27,2-1.27,2Z"/><rect class="cls-11" x="24.92" y="43.13" width="8.46" height="0.77"/><rect class="cls-11" x="28.76" y="39.28" width="0.77" height="8.46"/><rect class="cls-11" x="20.25" y="157.23" width="6.75" height="0.77"/><rect class="cls-11" x="23.24" y="154.24" width="0.77" height="6.75"/><rect class="cls-11" x="204.84" y="7.59" width="6.75" height="0.77"/><rect class="cls-11" x="207.83" y="4.6" width="0.77" height="6.75"/><rect class="cls-11" x="303.24" y="105.23" width="8.46" height="0.77"/><rect class="cls-11" x="307.08" y="101.38" width="0.77" height="8.46"/><path class="cls-11" d="M53.83,179.21a4.48,4.48,0,1,1,4.48-4.48A4.49,4.49,0,0,1,53.83,179.21Zm0-8.2a3.71,3.71,0,1,0,3.71,3.71A3.72,3.72,0,0,0,53.83,171Z"/><circle class="cls-11" cx="323.46" cy="174.49" r="3.05"/><path class="cls-11" d="M291,162.95l-.16-.75a31.16,31.16,0,0,0,4.34-1.43l.28.71A31.24,31.24,0,0,1,291,162.95Zm8.69-3.37-.35-.69c1.34-.68,2.69-1.42,4-2.22l.4.66C302.44,158.13,301.08,158.89,299.72,159.58Zm7.94-4.8-.44-.63c1.23-.87,2.46-1.81,3.64-2.78l.49.59C310.14,152.94,308.9,153.89,307.65,154.78Zm7.17-5.87-.53-.56c1.1-1,2.19-2.12,3.24-3.24l.56.53C317,146.76,315.94,147.86,314.82,148.91Zm6.34-6.74-.59-.49c1-1.16,1.92-2.38,2.83-3.61l.62.46C323.1,139.76,322.14,141,321.17,142.16Zm5.5-7.44-.64-.42c.83-1.26,1.64-2.57,2.41-3.9l.66.39C328.32,132.12,327.5,133.45,326.66,134.72Zm4.66-8-.68-.35c.69-1.34,1.37-2.72,2-4.12l.7.32C332.7,124,332,125.38,331.32,126.73Zm3.86-8.4-.71-.29c.57-1.4,1.12-2.84,1.64-4.29l.72.26C336.31,115.47,335.76,116.92,335.18,118.33Zm3.12-8.7-.73-.23c.45-1.43.89-2.92,1.3-4.41l.74.2C339.2,106.7,338.76,108.19,338.31,109.63Zm2.45-8.91-.75-.18c.35-1.47.68-3,1-4.49l.75.15C341.44,97.73,341.11,99.25,340.76,100.73Zm1.85-9.05-.76-.13q.3-1.77.58-3.6l.76.11Q342.91,89.9,342.6,91.68Z"/><polygon class="cls-11" points="293.99 164.91 289.86 162.73 292.17 158.64 292.84 159.02 290.92 162.42 294.35 164.24 293.99 164.91"/><circle class="cls-11" cx="196.75" cy="26.47" r="3.05"/><path class="cls-11" d="M16.44,228.5l-.46-.62,3.69-2.76.46.62ZM23.83,223l-.46-.62,3.69-2.76.46.62Zm7.39-5.52-.46-.62,3.69-2.76.46.62ZM38.61,212l-.46-.62,3.69-2.76.46.62ZM46,206.44l-.46-.62,3.69-2.76.46.62Zm7.39-5.52-.46-.62,3.69-2.76.46.62Z"/><polygon class="cls-11" points="56.87 201.3 56.12 201.13 56.85 197.9 53.55 197.69 53.6 196.92 57.79 197.19 56.87 201.3"/><path class="cls-11" d="M12.69,79.88C11.8,78.62,11,77.3,10.19,76l.67-.38c.76,1.32,1.58,2.61,2.46,3.85Zm-4.62-8C7.44,70.43,6.86,69,6.36,67.51l.73-.25c.49,1.44,1.06,2.87,1.68,4.25ZM5.08,63c-.35-1.5-.64-3-.85-4.57l.76-.1c.21,1.5.49,3,.84,4.49ZM3.83,53.86q0-1,0-2c0-.88,0-1.77.07-2.65l.77,0c0,.86-.07,1.74-.07,2.61q0,1,0,2Zm1.26-9.15-.76-.11c.23-1.53.54-3.06.91-4.55l.75.19C5.61,41.7,5.31,43.21,5.09,44.71Zm2.22-8.86-.72-.26c.52-1.45,1.11-2.9,1.77-4.3l.7.33C8.4,33,7.81,34.43,7.31,35.86Zm3.88-8.27-.66-.39c.79-1.33,1.64-2.63,2.56-3.88l.62.45C12.8,25,12,26.28,11.18,27.59Zm5.38-7.38L16,19.7c1-1.15,2.12-2.27,3.24-3.32l.52.56C18.65,18,17.57,19.08,16.56,20.21ZM23.25,14l-.47-.61c1.22-.94,2.51-1.83,3.81-2.65l.41.65C25.72,12.19,24.45,13.06,23.25,14Zm55-2.14c-1.06-.69-2.17-1.35-3.29-2l.37-.68c1.14.62,2.26,1.29,3.34,2ZM31,9.15l-.34-.69C32,7.77,33.46,7.14,34.9,6.59l.28.72C33.75,7.85,32.35,8.47,31,9.15ZM70.87,7.91c-1.4-.59-2.84-1.12-4.29-1.58l.23-.73c1.47.46,2.94,1,4.36,1.6Zm-31.35-2-.21-.74c1.49-.41,3-.76,4.53-1l.13.76C42.48,5.13,41,5.47,39.51,5.87Zm22.64-.7c-1.48-.31-3-.56-4.51-.73l.09-.76c1.54.17,3.08.42,4.59.74ZM48.5,4.3l-.06-.77c1.27-.1,2.53-.16,3.83-.15h.82v.77h-.82C51,4.15,49.74,4.2,48.5,4.3Z"/><polygon class="cls-11" points="75.21 12.67 75.1 11.91 78.37 11.41 77.37 8.27 78.11 8.03 79.38 12.03 75.21 12.67"/><rect class="cls-4" y="320.24" width="64.97" height="1.79"/><path class="cls-2" d="M71,258a3.37,3.37,0,0,0,3.86-1.48s-3.09.16-6.61-2.87-9.47.63-9,5.52,5.9,1.94,5.9,1.94l3.11-1.86Z"/><path class="cls-1" d="M71,258c-2-2.1-2.75-.62-2.75-.62l-1.93,2.73-1.65-.91.07-1.78c-1-1.8-2.25.53-2.25.53l-3.11-.3-2,.93-.76,7.59,5-2.06L65,266.2l2.39-2.68L69,264.58Z"/><path class="cls-2" d="M31.52,286.15,17.77,269.77l30.09-12.52a13.35,13.35,0,0,1,11.32.6h0l-1.85,9.8-7.22,6.66Z"/><path class="cls-9" d="M53.17,268.75a15.17,15.17,0,0,1,1.23-2.94l1.75.73a10.43,10.43,0,0,1-1.23,2.94l-.48,1.47s-1.14,4.52-2.2,8.25-6.46,15.51-6.46,15.51l-3.26,2.69-1.07-3.78s5.79-13.42,10.84-22.73Z"/><polygon class="cls-2" points="11.67 317.84 12.36 319.7 16.06 321.14 6.72 321.07 6.74 318.56 11.67 317.84"/><polygon class="cls-2" points="41.89 317.84 42.58 319.7 46.29 321.14 36.95 321.07 36.97 318.56 41.89 317.84"/><polygon class="cls-2" points="25.38 279.17 40.27 295.7 36.48 318.73 42.48 318.73 49.98 292.61 31.46 264.79 25.38 279.17"/><path class="cls-1" d="M73.92,288.77s1.93.67,1.6,2.3-2.78.29-2.78.29Z"/><polygon class="cls-2" points="52.98 263.2 61.14 278.02 74.59 288.59 72.88 292.38 58.02 283.9 46.29 270.43 52.98 263.2"/><path class="cls-2" d="M28.7,273.7l.07,0-.38-2.44s-2.5-2.81-7.25-1.43a6.06,6.06,0,0,0-4.4,6.16l5.5,25.24-16,17.56L11,320.57l21.53-16.4Z"/><path class="cls-2" d="M291.19,246.37a3.37,3.37,0,0,1-3.73-1.79s3.07.41,6.82-2.33,9.39,1.39,8.52,6.23-6,1.45-6,1.45l-3-2.1Z"/><path class="cls-1" d="M291.19,246.37c2.12-1.93,2.79-.4,2.79-.4l1.71,2.88,1.72-.77.07-1.78c1.13-1.72,2.2.71,2.2.71l3.13,0,1.9,1.08-.62,7.33-4-2.16-3.6,1.78-2.17-2.87-1.72.92Z"/><path class="cls-2" d="M329.67,282.54,343.35,267l-28.51-19.31a13.35,13.35,0,0,0-11.2-1.77h0l-.22,10,5.67,8Z"/><path class="cls-9" d="M306.38,259.19A15.17,15.17,0,0,0,306,256l-1.88.24a10.43,10.43,0,0,0,.4,3.16l.07,1.54s-.11,4.66-.08,8.53,2.1,16.67,2.1,16.67l2.42,3.46,2-3.36s-2-14.47-4.39-24.8Z"/><polygon class="cls-2" points="348.43 317.83 347.74 319.69 344.03 321.12 353.37 321.05 353.35 318.54 348.43 317.83"/><polygon class="cls-2" points="344.38 271.19 348.7 300.16 353.89 318.72 349.14 320.56 341.11 301.24 331.7 271.19 344.38 271.19"/><polygon class="cls-2" points="322.3 317.83 321.61 319.69 317.9 321.12 327.24 321.05 327.23 318.54 322.3 317.83"/><polygon class="cls-2" points="340.62 280.33 331.7 291.74 327.71 318.72 321.71 318.72 322.57 288.26 332.73 264.77 340.62 280.33"/><path class="cls-1" d="M277.95,263.34s-2-.15-2.38,1.48,2.44,1.37,2.44,1.37Z"/><polygon class="cls-2" points="307.19 252.03 292.88 260.26 277.4 262.92 277.47 267.08 294.79 265.68 311.92 261.84 307.19 252.03"/><path class="cls-2" d="M342.8,267.08s1.41.39,2.16,8c.7,7-11.34-1.26-11.34-1.26v-5.12L338,266.2Z"/></g></g></svg>