<svg xmlns="http://www.w3.org/2000/svg" viewBox="0 0 148.02 93.1"><defs><style>.cls-1{fill:#1a1a18;}</style></defs><title>1</title><g id="Capa_2" data-name="Capa 2"><g id="Ebene_1" data-name="Ebene 1"><path class="cls-1" d="M79.19,48a92.57,92.57,0,0,1-7.43,14c-1.72,2.45-4.53,6.75-8.24,4.62-5.93-5.12-1.77-17.26.68-23.65a15.91,15.91,0,0,0,1.13-3.35c-.36-.5-1.4,1.31-1.4,1.31-2.13,3.58-4.53,7-7,10.74-1.09,1.45-3,4.49-5.16,4.8C49.93,56.78,49,55,49.29,53c1.13-3.9,2.4-7.79,3.49-11.69a.52.52,0,0,0-.86-.59c-.59.54-1.81,2.36-9.2,13.82-2.27,3.31-3.44,3.4-4.17,3.22-3.17-1-1.81-5.44-1.81-5.44s1-3.08,2.17-6.52c-3.67,2.54-8.74,2.58-12-1-5,1-9.87,1.27-15.08,2.22C7,47.85-.36,51.48,1.45,57.86c.73,2,2.81,4.67,5.39,3.63C8,61,9.38,59.63,8.34,58.36a1.34,1.34,0,0,0-1.63-.54s0,0-.09,0a1.49,1.49,0,0,1-2.08-.18,1.39,1.39,0,0,1,.27-2c.91-.73,2.22,0,3,.45A7.12,7.12,0,0,1,9.34,57.5c1.54,1.9.09,4.17-1.86,5.07-3,1.68-6.25-1.45-7.11-4.35C-1.81,51.3,6.17,47,11.69,45.9c4.85-.91,9.74-1.31,14.72-2.13a4,4,0,0,1,.86-4.62c1.18-.91,3.35-1,3.9.86a3.49,3.49,0,0,1-1,3.08,6.14,6.14,0,0,1-2.08,1.27c3,2.81,7.29,2.4,10.51.09a9.73,9.73,0,0,0,1.72-3,1.74,1.74,0,0,1,1.49-1,17.63,17.63,0,0,1,2.81,0s.91,0,.18,2.17c-1.72,5.07-3.8,10.6-3.8,10.6s-.14.86.63,0c3.22-3.94,5.62-8.47,8.88-12.82.27-.32,3.4-4.26,5.44-2.85.64.5,1.09,1.77.18,4.85.64-1.86-2.72,7.79-3.31,10.69,0,.36.14,1.27.72.68,3.17-3,6.61-9.56,9.2-13.55,0,0,3.4-5.93,6.25-3.8a2.92,2.92,0,0,1,1.13,3.26c-.09.54-.32,1.09-2.81,9-1.72,6-3.44,14.27-.18,14.72,2.9-.59,5.39-3.8,10.65-15.4ZM27.46,43.46A3.3,3.3,0,0,0,30.13,41c.32-1.36-1.09-1.86-2.17-1a2.86,2.86,0,0,0-.5,3.4Z"/><path class="cls-1" d="M147.77,35.62c-1.54,5.16-6.89,7.38-12,8-4.89.59-9.79.64-14.81,1.27a4.81,4.81,0,0,1,.18.86c.32,2-1.18,4.62-3.49,4.21s-1.9-3.35-.5-4.67a5.29,5.29,0,0,1,2.13-1.09,7.39,7.39,0,0,0-3.4-2.13c-13.82-4.17-11.37,22.06-25,20.39a9.75,9.75,0,0,1-4.76,4.08h0v0c-3.53,1.27-8.38,1.09-10-2.94-1.27-3.76.59-9,4.76-10.46,3.13-.82,5.35,1.86,6.61,4.48.18-4.67-1.77-9.2-3.17-13.77-2.27-6.25,1.54-9.06,1.54-9.06-2.72,1.36-4.08,4.71-4.57,6.39a49.88,49.88,0,0,1-3.58,10l-1.13-.45a53.35,53.35,0,0,0,3.22-8.92.65.65,0,0,0,.09-.32c1.45-5.44,3.94-7.48,6.21-8.11s5.66-.18,6.93,2.45c1.13,2.22.45,5.12.14,5.21s-.45-.41-.45-.41a8.43,8.43,0,0,0,.14-2.54c-.18-1.63-2-3.17-3.71-2-1.4.91-1.18,3-.36,5.3,2.63,5.39,5.57,13.77,2.81,19.84,1.22.23,4.85.41,9.24-7.47,3.26-5.71,5.39-14.27,13.82-13a9.68,9.68,0,0,1,5.8,3.22c4.94-.86,10-.68,15.18-1.31,4.39-.59,9.56-2.4,11-7.34.73-2.63-1.4-8.11-5.12-6.84-1.13.36-2.63,1.72-1.63,3a1.32,1.32,0,0,0,1.59.59,0,0,0,0,0,0,0,1.51,1.51,0,0,1,2.08.36,1.39,1.39,0,0,1-.36,1.95c-1,.68-2.22-.09-3-.63a5.5,5.5,0,0,1-1.45-1.45c-1.41-2,.18-4.17,2.17-4.94C145.46,25.29,149,31.59,147.77,35.62ZM87.12,60.27c-1.45-1.45-1.63-3.71-3.53-5.12-4.44-1.9-7.16,8.29-2.17,8.29C83.76,63.44,86.21,62.39,87.12,60.27Zm32.8-15.13a3.51,3.51,0,0,0-2.81,2.31c-.27,1.31.86,1.95,2.08,1.13A2.84,2.84,0,0,0,119.91,45.13Z"/><path class="cls-1" d="M26.17,27.64l.06-.15.09-.19.1-.18L26.5,27l4.44.32-2.89-3.38.06-.15.09-.18.09-.17.09-.15L34,25.79l-.05.13-.07.14-.08.15-.07.11L29,24.14l2.77,3.31a.46.46,0,0,1,0,.11l-.05.11-.05.1a.38.38,0,0,1-.07.1l-4.31-.31,4.57,2.6,0,.13-.07.14-.08.15-.07.11Z"/><path class="cls-1" d="M32.19,17.76l.09-.14.11-.15.12-.15.11-.12,6.1,2.24-.08.12-.11.14-.1.13-.1.1-1.55-.58-1.58,2,.92,1.36-.09.13-.1.13-.11.13-.1.1Zm4.06,1.4-3.37-1.27,2,3Z"/><path class="cls-1" d="M36.89,12.54l.23-.24.19-.2.2-.2.25-.23a3.88,3.88,0,0,1,.67-.47,2.08,2.08,0,0,1,.73-.25,1.55,1.55,0,0,1,.76.09,1.87,1.87,0,0,1,.74.55,1.5,1.5,0,0,1,.31.54,1.93,1.93,0,0,1,.09.58,2,2,0,0,1-.09.58,3,3,0,0,1-.22.54l0,.07,3.23.7-.12.13-.13.11-.13.11-.14.1-3.51-.72,0,0,.11-.16a3.52,3.52,0,0,0,.29-.52,2.08,2.08,0,0,0,.17-.54,1.39,1.39,0,0,0,0-.53,1.19,1.19,0,0,0-.28-.51,1.22,1.22,0,0,0-1-.48,1.72,1.72,0,0,0-1.06.48l-.24.23-.25.27,3.77,4.3-.1.11-.11.1-.12.1-.11.08Z"/><path class="cls-1" d="M44.37,7.49,43,8.36l-.08-.1-.08-.12L42.75,8l-.06-.12L46,5.85l.07.09.08.11.07.12.06.12-1.41.87,3,4.79-.11.08-.13.08-.14.08-.12.06Z"/><path class="cls-1" d="M49.81,3.92l.13-.07.14-.06.14-.05.13,0,1,2.44L54.14,5l-1-2.44.12-.06.14-.06.14-.05.14,0L56,8.1l-.12.06-.15.07-.14.05-.13,0-1.1-2.79L51.52,6.65l1.1,2.79-.12.06-.14.06-.16.06-.13,0Z"/><path class="cls-1" d="M60,.75l.16,0,.18,0,.19,0,.16,0L63.8,6.3l-.14,0-.18,0-.16,0h-.15L62.39,5l-2.49.47L59.7,7.07l-.15,0-.16,0-.17,0h-.14Zm2.16,3.71L60.4,1.3,60,4.87Z"/><path class="cls-1" d="M71.07,5.39l.24.1.28.1.35.09a3.64,3.64,0,0,0,.45.07,2.3,2.3,0,0,0,.71,0,1.42,1.42,0,0,0,.51-.22,1,1,0,0,0,.32-.37,1.29,1.29,0,0,0,.14-.48,1.36,1.36,0,0,0,0-.45.86.86,0,0,0-.19-.36,1.84,1.84,0,0,0-.41-.34q-.27-.17-.67-.37c-.19-.09-.37-.19-.55-.29a2,2,0,0,1-.44-.36A1.34,1.34,0,0,1,71.5,2a1.54,1.54,0,0,1-.06-.65A1.4,1.4,0,0,1,72,.31,2.2,2.2,0,0,1,73.54,0l.38.05.36.07.3.09.22.08c0,.08,0,.17-.07.26a2.26,2.26,0,0,1-.1.24,3.67,3.67,0,0,0-.51-.17,3.78,3.78,0,0,0-.63-.11,1.47,1.47,0,0,0-1,.2,1,1,0,0,0-.37.71.82.82,0,0,0,.06.41,1,1,0,0,0,.23.32,2.12,2.12,0,0,0,.37.27l.48.25q.35.18.64.36a2.25,2.25,0,0,1,.5.41,1.5,1.5,0,0,1,.31.51,1.61,1.61,0,0,1,.07.68,1.9,1.9,0,0,1-.23.78A1.59,1.59,0,0,1,74,6a2,2,0,0,1-.74.29,3.31,3.31,0,0,1-1,0,4.13,4.13,0,0,1-.83-.15c-.22-.07-.42-.14-.61-.22a1.8,1.8,0,0,1,.08-.27A2,2,0,0,1,71.07,5.39Z"/><path class="cls-1" d="M79.9,1.13l.16,0,.2.06.2.06.16.06.48,4.43,2.8-3.45.16,0,.19.05.19.06.16.06-1.47,6-.14,0-.15,0-.16-.05-.12,0,1.27-5.09L81.08,6.58l-.12,0-.12,0-.11,0-.11,0-.48-4.29-1.74,5-.14,0-.15,0L78,7l-.12,0Z"/><path class="cls-1" d="M89.28,4.56l.14.05.14.06.14.07.12.07-2.73,5.53-.13,0-.14-.07-.15-.08-.11-.07Z"/><path class="cls-1" d="M94.4,8.09,93,7.17l.06-.11.08-.12.08-.11.08-.1L96.56,8.9,96.5,9l-.07.12-.08.11-.08.1-1.37-.92-3.14,4.67L91.62,13l-.13-.08-.14-.1-.1-.08Z"/><path class="cls-1" d="M99.89,11.59l.11.09.11.1.11.11.09.1-1.83,1.88L100.67,16l1.82-1.88.11.08.11.1.11.11.1.11-4.29,4.42-.1-.08-.12-.11-.11-.11-.09-.1,2.09-2.16-2.18-2.11L96,16.42l-.11-.09-.11-.1-.12-.12L95.6,16Z"/><path class="cls-1" d="M106.15,18.37l1.91,2.69-.09.08-.11.09-.12.08-.11.07L106,19.17l-1.7,1.21,1.26,1.77-.09.08-.11.09-.12.08-.11.07-1.26-1.77-2,1.42,1.61,2.27-.09.08-.11.09-.12.08-.12.07-2-2.75Z"/><path class="cls-1" d="M110.37,25l.17.28.14.24.13.24L111,26a3.94,3.94,0,0,1,.27.77,2.08,2.08,0,0,1,0,.77,1.54,1.54,0,0,1-.29.7,1.87,1.87,0,0,1-.72.56,1.51,1.51,0,0,1-.6.15,1.94,1.94,0,0,1-.58-.07,2,2,0,0,1-.53-.24,3,3,0,0,1-.46-.36l-.05,0-1.55,2.92a.92.92,0,0,1-.09-.15l-.07-.16-.07-.15a.81.81,0,0,1-.06-.16l1.64-3.18h0l.13.15a3.65,3.65,0,0,0,.43.42,2.1,2.1,0,0,0,.48.31,1.42,1.42,0,0,0,.52.13,1.17,1.17,0,0,0,.57-.13,1.22,1.22,0,0,0,.73-.8,1.72,1.72,0,0,0-.18-1.15l-.15-.3-.19-.32L105,28.17,105,28l-.07-.14-.06-.14,0-.13Z"/><path class="cls-1" d="M34.64,67.7l.1.13.12.17.11.17.09.15-2.39,3.76L37,71.13l.11.13.12.16.11.16.09.15L32.55,75.5l-.09-.11-.09-.12-.09-.14L32.22,75l4.18-3.18-4.23.87-.08-.09-.07-.1L32,72.42a.41.41,0,0,1-.05-.1l2.31-3.65-4.46,2.79-.09-.1-.09-.12-.09-.14L29.41,71Z"/><path class="cls-1" d="M40.35,74.93l.12.11.14.13.13.14.1.12-2.91,5.81-.11-.09L37.69,81l-.11-.12-.09-.11.75-1.47-1.79-1.8L35,78.28l-.12-.1-.12-.12-.12-.13-.09-.11ZM38.5,78.8l1.65-3.2L37,77.25Z"/><path class="cls-1" d="M43.94,78.25l.26.14.32.19.33.21.3.2a4,4,0,0,1,1,1,2.45,2.45,0,0,1,.33,2.23,4.33,4.33,0,0,1-.62,1.19Q44,86,41.46,84.17l-.31-.23-.31-.25-.27-.24-.21-.19Zm-2.81,4.94.28.24.34.27a4.06,4.06,0,0,0,.94.52,1.91,1.91,0,0,0,.91.12,2,2,0,0,0,.89-.37,3.86,3.86,0,0,0,.89-.93A2.52,2.52,0,0,0,46,81a2.7,2.7,0,0,0-1.17-1.6l-.35-.24L44.13,79Z"/><path class="cls-1" d="M49.93,82.18l3,1.46,0,.12-.06.13-.07.12-.07.11-2.43-1.2-.92,1.87,2,1,0,.12-.06.13-.07.12-.07.11-2-1L48,87.48l2.5,1.23,0,.12-.06.13-.07.12-.07.11-3-1.5Z"/><path class="cls-1" d="M58,85.61l.15,0,.19,0,.18,0,.16,0,.17,5.63,2.39-5.15.17,0,.19,0,.19,0,.17,0L62.38,92l2.19-5.19h.15l.16,0,.18,0,.14,0-2.58,5.79-.18,0-.19,0-.21,0-.18,0-.38-5.53-2.32,5-.18,0-.19,0-.21,0-.18,0Z"/><path class="cls-1" d="M67.56,86.91H68l.14,0L68,93.08h-.46l-.13,0Z"/><path class="cls-1" d="M72.33,87.32l-1.65.15,0-.12s0-.09,0-.14,0-.08,0-.14a.94.94,0,0,1,0-.13l3.88-.35s0,.07,0,.12,0,.09,0,.14,0,.09,0,.14a1,1,0,0,1,0,.13l-1.65.15.51,5.61-.14,0-.15,0h-.3Z"/><path class="cls-1" d="M76.69,86.24l.14,0,.15,0,.15,0,.14,0,.64,2.54,2.94-.74-.64-2.54.13,0,.15,0,.15,0,.14,0,1.51,6-.12,0-.16,0-.15,0-.14,0L81,88.42,78,89.16l.73,2.91-.13,0-.15,0-.16,0-.13,0Z"/><path class="cls-1" d="M86.89,82.7l.11-.08.14-.08.14-.07.13-.05,2.69,4.94,2.31-1.26.07.11.07.12.06.13,0,.11-2.83,1.54Z"/><path class="cls-1" d="M97,83.72a2.53,2.53,0,0,1-1,.5,2.14,2.14,0,0,1-1,0,3,3,0,0,1-1-.52,5,5,0,0,1-.9-.92,4.8,4.8,0,0,1-.65-1.11,3,3,0,0,1-.24-1.09,2.12,2.12,0,0,1,.23-1,2.8,2.8,0,0,1,1.78-1.36,2.14,2.14,0,0,1,1,0,3,3,0,0,1,1,.51,4.84,4.84,0,0,1,.9.92,4.91,4.91,0,0,1,.65,1.11A3,3,0,0,1,98,81.84a2.12,2.12,0,0,1-.23,1A2.5,2.5,0,0,1,97,83.72Zm-.33-.43a1.79,1.79,0,0,0,.56-.67,1.67,1.67,0,0,0,.15-.8,2.48,2.48,0,0,0-.23-.88,4.66,4.66,0,0,0-.56-.92,4.58,4.58,0,0,0-.74-.78,2.46,2.46,0,0,0-.79-.45,1.72,1.72,0,0,0-.81-.07,2,2,0,0,0-1.36,1,1.63,1.63,0,0,0-.15.79,2.48,2.48,0,0,0,.23.88,4.71,4.71,0,0,0,.56.92,4.63,4.63,0,0,0,.74.78,2.53,2.53,0,0,0,.79.45,1.64,1.64,0,0,0,.81.07A1.82,1.82,0,0,0,96.66,83.29Z"/><path class="cls-1" d="M96.45,76l.09-.12.12-.14.13-.13.12-.11,5.25,2.56-2.9-5.06.1-.12.11-.12.13-.13.11-.1,3.11,5.69-.11.13-.13.14-.13.13-.12.11Z"/><path class="cls-1" d="M101.13,70.69,103,68l.11.06.12.08.11.08.1.08-1.53,2.23,1.72,1.18,1.23-1.8.11.06.12.08.11.08.1.09L104.07,72l2,1.39,1.57-2.3.11.06.12.08.11.08.1.09-1.91,2.79Z"/></g></g></svg>