<svg xmlns="http://www.w3.org/2000/svg" viewBox="0 0 112.02 111.39"><defs><style>.cls-1{fill:#1a1a18;}</style></defs><title>2</title><g id="Capa_2" data-name="Capa 2"><g id="Ebene_1" data-name="Ebene 1"><path class="cls-1" d="M56.57,26.14c-.2,1.06-.81,1.3-1.3,1.71-4.15,3.62-5,4.39-9.11,8-1.5,1.34-2.85,2.85-4.35,4.27A6.46,6.46,0,0,0,40.06,43a54.1,54.1,0,0,1-4.39,10.08,20.7,20.7,0,0,1-3.86,5.12,6.89,6.89,0,0,1-3.21,1.91,5,5,0,0,1-1.3.16c-1.87-.08-2.68-1.18-2-2.93a18.93,18.93,0,0,1,2-3.7,81.42,81.42,0,0,1,8.09-10.25,7.64,7.64,0,0,0,1.79-3.09c1.18-3.86,2.44-7.73,3.66-11.55a19.28,19.28,0,0,1,.77-2.15,4.33,4.33,0,0,1,.85-1.26,1,1,0,0,1,1.67.61,6.14,6.14,0,0,1-.08,1.5c-.45,2.44-.94,4.84-1.42,7.28-.08.41-.16.81-.28,1.55L44,35c4.35-3.37,5.28-4,9.64-7.4.53-.41,1.14-.81,1.71-1.18A5.83,5.83,0,0,1,56.57,26.14ZM33.39,50.21c-2.44,2.72-4.59,6.18-5,8A22.62,22.62,0,0,0,33.39,50.21ZM50.67,15.85l-.85.89c-1.14,1.14-2.24,2.24-3.33,3.37-.2.16-.33.41-.53.53a1.26,1.26,0,0,1-1.55.28c-.65-.45-.36-1.06-.08-1.5a22.26,22.26,0,0,1,2.6-3.5C47.91,14.88,49.17,14.92,50.67,15.85Z"/><path class="cls-1" d="M72.79,26.3a2.55,2.55,0,0,1-1.18,1.79c-5,4.27-5.57,5.12-8.5,7.32a73.48,73.48,0,0,1-6.18,4.35,10,10,0,0,1-5.25,1.63,9.19,9.19,0,0,1-2-.33A2.08,2.08,0,0,1,48,39a10.88,10.88,0,0,1,.33-2.85,22.49,22.49,0,0,1,7.36-10.41,4.88,4.88,0,0,1,3.5-1.26c1.83.08,2.4.89,1.59,2.56a11.4,11.4,0,0,1-3.42,4.51,23.72,23.72,0,0,1-3.17,2.07A2.29,2.29,0,0,0,53,35.2a5,5,0,0,0-.16,3.42,2,2,0,0,0,1.87-.41,52.32,52.32,0,0,0,4.51-2.85c4.76-3.5,2.89-1.67,7.68-5.2,1.38-1,2.81-2,4.19-2.93A15.89,15.89,0,0,1,72.79,26.3Zm-13.5-.73c-1.34.45-2,1.59-2.64,2.52-1.46,1.87-1.59,2.16-1.79,3.37A9.29,9.29,0,0,0,59,27.52,1.81,1.81,0,0,0,59.29,25.57Z"/><path class="cls-1" d="M86.66,25.65a3,3,0,0,1-1.34,2c-1.55,1.3-3.09,2.6-4.67,3.86-2.15,1.75-4.35,3.5-6.59,5.16a3.08,3.08,0,0,0-1.34,2.89,24.85,24.85,0,0,1-2.19,11.63A16.56,16.56,0,0,1,68,55.41a7.37,7.37,0,0,1-4.15,2.52,6.76,6.76,0,0,1-1.3.16c-2,0-3-1-3.17-3A14.12,14.12,0,0,1,60,50a17.85,17.85,0,0,1,3.21-5.77,32,32,0,0,1,3.66-4.11,3.84,3.84,0,0,0,1.34-3.34,34,34,0,0,1,0-4.55,10.91,10.91,0,0,1,3.54-7.93,8.34,8.34,0,0,1,2-1.38,1.71,1.71,0,0,1,2,0c-1.71,2.07-3.17,4.23-3.46,7a20.73,20.73,0,0,0,.32,5.2,15.11,15.11,0,0,0,3-1.79c.94-.61,1.87-1.26,2.81-1.91L81,29.68c.94-.69,1.83-1.38,2.76-2S85.36,26.06,86.66,25.65ZM67.87,42.93a18.26,18.26,0,0,0-4.51,6.42,14.64,14.64,0,0,0-1.3,5.12,2.89,2.89,0,0,0,.45,2,3.63,3.63,0,0,0,2.4-2.28A27.77,27.77,0,0,0,67.87,42.93Z"/><path class="cls-1" d="M82.18,51.74H30.44V0H82.18ZM31.58,50.6H81V1.14H31.58Z"/><path class="cls-1" d="M19,72.58,14.81,86.7H13.13L9.51,74.16,5.79,86.7H4L0,72.58H1.48L5,85.17,8.7,72.58h1.7L14,85.13l3.64-12.55Z"/><path class="cls-1" d="M26.33,85.49h5.87V86.7H24.93V72.58h7.16c0,.24-.07.46-.09.64s0,.37-.07.58h-5.6v5h5.3V80h-5.3Z"/><path class="cls-1" d="M49.74,79.67a9.64,9.64,0,0,1-.42,2.94,5.42,5.42,0,0,1-3.45,3.61,9.06,9.06,0,0,1-3.14.49H39.07V72.6h3.66a8.91,8.91,0,0,1,3.14.5A5.7,5.7,0,0,1,48,74.5a5.64,5.64,0,0,1,1.27,2.21,9.65,9.65,0,0,1,.42,2.94Zm-7,5.82a5.34,5.34,0,0,0,4.18-1.56,6.34,6.34,0,0,0,1.45-4.31v0a7.54,7.54,0,0,0-.4-2.61,4.8,4.8,0,0,0-1.13-1.8,4.44,4.44,0,0,0-1.77-1,7.59,7.59,0,0,0-2.32-.33H40.49V85.49Z"/><path class="cls-1" d="M67.38,79.67A9.64,9.64,0,0,1,67,82.61a5.42,5.42,0,0,1-3.45,3.61,9.06,9.06,0,0,1-3.14.49H56.72V72.6h3.66a8.91,8.91,0,0,1,3.14.5,5.7,5.7,0,0,1,2.17,1.41A5.64,5.64,0,0,1,67,76.71a9.65,9.65,0,0,1,.42,2.94Zm-7,5.82a5.34,5.34,0,0,0,4.18-1.56A6.34,6.34,0,0,0,66,79.62v0a7.54,7.54,0,0,0-.4-2.61,4.8,4.8,0,0,0-1.13-1.8,4.44,4.44,0,0,0-1.77-1,7.59,7.59,0,0,0-2.32-.33H58.13V85.49Z"/><path class="cls-1" d="M74.32,72.58h1.4V86.7h-1.4Z"/><path class="cls-1" d="M82.9,86.7V72.56h1.66L92,85V72.56h1.4V86.7H91.6L84.28,74.52V86.7Z"/><path class="cls-1" d="M112,79.05v7a8.76,8.76,0,0,1-1.19.44,12,12,0,0,1-1.52.3,15.05,15.05,0,0,1-2.13.13,8.84,8.84,0,0,1-1.47-.13,7.16,7.16,0,0,1-1.54-.44,6.34,6.34,0,0,1-1.46-.85,5.4,5.4,0,0,1-1.23-1.35,6.89,6.89,0,0,1-.85-1.94,9.74,9.74,0,0,1-.31-2.62A8.35,8.35,0,0,1,101,76a6.24,6.24,0,0,1,1.71-2.23,6,6,0,0,1,2.23-1.12,8.89,8.89,0,0,1,2.24-.31,12,12,0,0,1,1.36.08c.47.05.93.12,1.37.19s.84.16,1.2.25a7.68,7.68,0,0,1,.85.26v1.27c-.13-.05-.37-.13-.7-.22s-.72-.19-1.16-.28-.92-.17-1.43-.23a12.43,12.43,0,0,0-1.49-.09,6.83,6.83,0,0,0-2.09.32,4.31,4.31,0,0,0-1.72,1,5,5,0,0,0-1.17,1.88,8.18,8.18,0,0,0-.43,2.85v0a8.25,8.25,0,0,0,.43,2.87,5,5,0,0,0,1.17,1.88,4.31,4.31,0,0,0,1.72,1,6.83,6.83,0,0,0,2.09.31q.79,0,1.34,0t1.13-.14a2.94,2.94,0,0,0,1-.33v-5h-3.48V79.05Z"/><path class="cls-1" d="M33,98.59a1.5,1.5,0,0,0,.6-.61,14,14,0,0,1,.91-1.28c.38-.47.88-.46,1.39,0-.12.25-.25.53-.39.81a15.89,15.89,0,0,0-1.35,3.12,2.36,2.36,0,0,0-.12,1.12c.16-.09.28-.11.39-.18a1.72,1.72,0,0,0,.35-.26c2-1.7,3.68-3,5.71-4.73l.68-.53c-.05.26-.05.38-.1.44a6.69,6.69,0,0,1-.58.65c-.6.58-.82.72-1.42,1.31s-1.21,1.26-1.81,1.91a13.32,13.32,0,0,1-2,1.75,2.65,2.65,0,0,1-1.61.47,1.22,1.22,0,0,1-1.3-1.28,4,4,0,0,1,0-.46c-.23.23-.33.37-.47.49a18.49,18.49,0,0,1-1.4,1.23,3.2,3.2,0,0,1-2.58.56,1.15,1.15,0,0,1-1.09-1.44,2.64,2.64,0,0,1,.21-.89,11.14,11.14,0,0,1,2.52-3.75,4.28,4.28,0,0,1,2.17-1.17,2.67,2.67,0,0,1,.91,0,.87.87,0,0,1,.81.95,6.73,6.73,0,0,1-.19,1A5,5,0,0,1,33,98.59Zm-4.21,3.59.47-.21a7.12,7.12,0,0,0,3.37-4.4,2.71,2.71,0,0,0,.05-.75.52.52,0,0,0-.37-.51,2.34,2.34,0,0,0-1.14.65,9.25,9.25,0,0,0-2.49,4.38A.93.93,0,0,0,28.79,102.19Z"/><path class="cls-1" d="M43.23,98c-.54.32-1,.56-1.39.79a3.2,3.2,0,0,1-2,.42,2.29,2.29,0,0,1-.7-.19.83.83,0,0,1-.46-1,2.35,2.35,0,0,1,.23-.52,4.93,4.93,0,0,1,1.79-1.77,2.51,2.51,0,0,1,1.42-.33.71.71,0,0,1,.7.89,8.17,8.17,0,0,1-.33,1.17,16.38,16.38,0,0,0,2.61-2.23,4,4,0,0,1,.47-.46.68.68,0,0,1,.84,0,.53.53,0,0,1,0,.67c-.37.82-.74,1.65-1.12,2.47-.16.33-.35.67-.58,1.12a2.44,2.44,0,0,0,.49-.18c1.4-.67,2.79-1.37,4.21-2a1,1,0,0,1,.95-.16c-.1.35-.42.42-.67.54-1.39.74-2.75,1.47-4.14,2.17a4.59,4.59,0,0,0-2.21,2.17c-.91,1.77-2,3.47-3,5.17a15.5,15.5,0,0,1-2.52,3.21A11.37,11.37,0,0,1,36.55,111a2.57,2.57,0,0,1-1.89.33,1,1,0,0,1-.91-1.14,3.94,3.94,0,0,1,.32-1.26A11.46,11.46,0,0,1,35.11,107a19.34,19.34,0,0,1,5.09-5,6.6,6.6,0,0,0,2.4-2.7c.16-.32.37-.61.54-.91C43.16,98.3,43.16,98.24,43.23,98Zm-8,12.54a4.31,4.31,0,0,0,.6-.4,15.9,15.9,0,0,0,1.12-1.3,57.4,57.4,0,0,0,3.54-5.79s0-.09-.05-.19a19.79,19.79,0,0,0-4.1,4.54,14.68,14.68,0,0,0-.95,1.89A1.67,1.67,0,0,0,35.2,110.55ZM42.1,97.7a.92.92,0,0,1,0-.82c.12-.35.3-.7,0-1.05a2.7,2.7,0,0,0-1.87,1.4,1.22,1.22,0,0,0-.18,1.28A3.26,3.26,0,0,0,42.1,97.7Z"/><path class="cls-1" d="M57.11,96.44a1.1,1.1,0,0,1-.51.77c-2.17,1.84-2.4,2.21-3.66,3.16a32.05,32.05,0,0,1-2.66,1.88,4.29,4.29,0,0,1-2.26.7,3.92,3.92,0,0,1-.88-.14.9.9,0,0,1-.7-.88,4.73,4.73,0,0,1,.14-1.23,9.7,9.7,0,0,1,3.17-4.49,2.11,2.11,0,0,1,1.51-.54c.79,0,1,.39.68,1.11a4.91,4.91,0,0,1-1.47,1.95,10.16,10.16,0,0,1-1.37.89,1,1,0,0,0-.54.67,2.13,2.13,0,0,0-.07,1.47.84.84,0,0,0,.81-.18,22.76,22.76,0,0,0,1.95-1.23c2.05-1.51,1.25-.72,3.31-2.24.6-.44,1.21-.84,1.81-1.26A6.78,6.78,0,0,1,57.11,96.44Zm-5.82-.32a2.45,2.45,0,0,0-1.14,1.09c-.63.81-.68.93-.77,1.45A4,4,0,0,0,51.17,97,.78.78,0,0,0,51.29,96.12Z"/><path class="cls-1" d="M56.91,98.82c.26-.19.51-.39.79-.56.82-.54,1.63-1.09,2.47-1.61a2.8,2.8,0,0,1,1.31-.38,1.18,1.18,0,0,1,1.33,1.44c0,.47-.12.93-.18,1.38a3.19,3.19,0,0,0,0,.4c.33.16.54-.07.75-.19,1.75-1,3.49-2,5.24-3.05a5.5,5.5,0,0,1,.63-.35.87.87,0,0,1,.47,0,.28.28,0,0,1,.18.44,1.86,1.86,0,0,1-.46.46c-1.23.88-2.44,1.75-3.68,2.6a17.31,17.31,0,0,1-1.93,1.07,3.06,3.06,0,0,1-1.93.24c-.72-.14-1-.46-.91-1.19A14,14,0,0,1,61.25,98l.12-1.09c-.3.14-.49.19-.67.3a29.74,29.74,0,0,0-4.29,3.4c-.12.11-.23.23-.35.33a1.17,1.17,0,0,1-1.09.23c-.44-.09-.6-.35-.42-.77q.63-1.39,1.31-2.74c.26-.51.58-1,.89-1.47a1.19,1.19,0,0,1,.39-.4.36.36,0,0,1,.54.35,6.26,6.26,0,0,1-.3,1c-.19.51-.4,1-.61,1.51A.83.83,0,0,0,56.91,98.82Z"/><path class="cls-1" d="M69.57,99.94c.46-1.18,1.3-2.12,1.12-3.51-.24.07-.46.07-.56.19a7.06,7.06,0,0,0-1,1.17,14.27,14.27,0,0,0-1.42,3.56,1.89,1.89,0,0,0,0,1.39c.39.05.65-.21.93-.4a32.43,32.43,0,0,0,4-3.21c1.51-1.39,1.26-1,2.77-2.42a1.3,1.3,0,0,1,.84-.49,1.88,1.88,0,0,1-.21.46c-2.56,2.8-3.3,3.94-6.4,6.19a4.63,4.63,0,0,1-1.65.84,2.56,2.56,0,0,1-1.45-.07,1.5,1.5,0,0,1-1.1-1.47,3.67,3.67,0,0,1,.1-.88,10.26,10.26,0,0,1,2-3.84,5.24,5.24,0,0,1,1.67-1.3,2.28,2.28,0,0,1,1.35-.23c.61.07.91.4.81,1a7.81,7.81,0,0,1-1,2.75A.58.58,0,0,1,69.57,99.94Z"/><path class="cls-1" d="M79.09,98.58c-.37.28-.7.6-1.09.86-.56.39-1.14.75-1.74,1.09a2.61,2.61,0,0,1-1.59.25.87.87,0,0,1-.84-1.09,10.32,10.32,0,0,1,2.3-4,.89.89,0,0,1,1.23-.07c-.47,1-1.79,3-2,4.12.32.1.51-.09.72-.19a19.49,19.49,0,0,0,3.16-2.31l1.54-1.35a1,1,0,0,1,1.14-.24.45.45,0,0,1,.3.52,4.74,4.74,0,0,1-.28.84c-.26.61-.56,1.19-.82,1.79-.07.18-.12.35-.23.61a2.82,2.82,0,0,0,1-.63c.32-.21.61-.46.91-.68s.63-.44.93-.67l.93-.68a3.1,3.1,0,0,1,1-.54,1.69,1.69,0,0,1-.23.35c-.6.47-1.19.95-1.79,1.44-1,.79-2,1.6-3,2.37a2.83,2.83,0,0,0-.81,1,40.3,40.3,0,0,1-3.54,6.28,21.08,21.08,0,0,1-1.47,1.84A4.66,4.66,0,0,1,72.22,111a3,3,0,0,1-1-.05.8.8,0,0,1-.65-.82,2.42,2.42,0,0,1,.37-1.49,23.35,23.35,0,0,1,1.51-2.14,18.53,18.53,0,0,1,3.52-3.19,6.21,6.21,0,0,0,2.31-2.75c.28-.65.65-1.26,1-1.88A.55.55,0,0,0,79.09,98.58Zm-7.2,11.71c.28-.14.47-.21.65-.32a4.6,4.6,0,0,0,1.35-1.51c.81-1.37,1.6-2.75,2.38-4.12l.14-.37a1.35,1.35,0,0,0-.28.18,23.31,23.31,0,0,0-2.91,3.1A17.33,17.33,0,0,0,72.09,109,1.66,1.66,0,0,0,71.88,110.29Z"/></g></g></svg>