<svg xmlns="http://www.w3.org/2000/svg" viewBox="0 0 148.7 108.57"><defs><style>.cls-1{fill:#1a1a18;}</style></defs><title>3</title><g id="Capa_2" data-name="Capa 2"><g id="Ebene_1" data-name="Ebene 1"><path class="cls-1" d="M62.77,57.94C61,61.88,57,69.5,52.25,70.6,50.77,71,51,68.88,51,68.88c3.38-10.35,3.68-11.33,3.68-11.44s-.33-.15-.59,0c-2.61,1.81-6.17,8.78-6.17,8.78-1,2.08-1.6,2.91-2.11,3.23-.92.62-1.78-.12-1.78-1.48A43.22,43.22,0,0,1,46,56.34c-2.52,1.72-5.87,2-8.12-.5-3.26.65-6.46.83-9.87,1.45s-7.68,2.88-6.82,7.15c.48,1.3,1.84,3.05,3.53,2.37.74-.3,1.66-1.22,1-2a.88.88,0,0,0-1.07-.36s0,0-.06,0a1,1,0,0,1-1.36-.12.91.91,0,0,1,.18-1.3c.59-.47,1.45,0,2,.3a4.68,4.68,0,0,1,1,.89c1,1.25.06,2.73-1.22,3.32-2,1.1-4.09-.95-4.65-2.85-1.42-4.54,3.79-7.35,7.41-8.07,3.17-.59,6.37-.86,9.64-1.39a2.64,2.64,0,0,1,.56-3,2.1,2.1,0,0,1,1.36-.44,1.36,1.36,0,0,1,1.19,1c.24,1.42-.8,2.34-2,2.85,2.34,2.22,5.69,1.36,7.83-.77,1.72-5.42,4.21-10.73,7.08-14.26,1.19-1.48,4-4.66,6.26-3.77a2.09,2.09,0,0,1,1,1.36c.53,2.1-2.94,7.35-10.94,17.4-.95,2.93-1.3,4.36-1.78,5.81,0,0-.36,1.54.44.5C50.14,59.51,53,55.39,56,56c.77.24,1.6,1.39,0,6.17-1.9,5.81-2,6.2-1.6,6a18.72,18.72,0,0,0,2.11-1.69,30.72,30.72,0,0,0,5.34-8.6ZM38.17,55a2.16,2.16,0,0,0,1.75-1.6c.21-.89-.71-1.22-1.42-.65A1.87,1.87,0,0,0,38.17,55Zm12.6-2.28c3-3.88,6.14-7.77,8.3-12.45,1.45-3.29-1.36-2.67-2.91.3C54.38,43.47,53,46.61,50.77,52.72Z"/><path class="cls-1" d="M78.89,57.94s-2.73,6.67-6,8.81a3,3,0,0,1-3.65,0c-1.9,2.7-4.24,3.91-6.29,3.82-6-.56-3.68-8.86-3.68-8.89.83-2.43,2.46-6,5.63-8.09.47-.24,1.93-.27,2,.53-.21.59-8.3,10.05-3.71,14.5,0,0,1.72,1.33,5.16-2.76-3.11-4.18-1-9.1-1-9.1,1-2.88,4.27-5.66,5.63-1.1.53,3.35-1,6.91-3.14,10.23a1.65,1.65,0,0,1,.24.18c.86.51,3.94,1.42,7.89-8.15Zm-7.53,1.19c.3-1.75.89-4.24-1-4.51a1.78,1.78,0,0,0-1.13.71A8.68,8.68,0,0,0,69,65C70,63.81,70.89,60.64,71.36,59.13Z"/><path class="cls-1" d="M86,57.7l.71.47a60.24,60.24,0,0,1-3.29,7.06c-.48.8-2.88,4.68-5.55,4.09a2.26,2.26,0,0,1-.53-.27A4.42,4.42,0,0,1,76,66.15a8.21,8.21,0,0,1-.15-1.48v-.39c0-7.5,7.08-27.48,13.7-25.61,4.8,1.19-6.49,13.16-8.54,16-.95,3.62-2.31,6.58-2.79,10.38a2.17,2.17,0,0,0,0,.39s0,.21,0,.53c0,.59.18,1.54.71,1.84,1.19.41,2.76-1.75,3.62-3.11.18-.36.38-.71.59-1.07A43.18,43.18,0,0,0,86,57.7ZM81.74,52.4a85.9,85.9,0,0,0,5.6-7.62c.45-.74,2.08-3.47,1.9-4.42-.68-1.33-2.46.21-5.87,7.68A40.8,40.8,0,0,0,81.74,52.4Z"/><path class="cls-1" d="M94.81,57.7l.71.47C93.1,64.28,88.71,73.09,85,70.24c-1-.71-1.25-2.43-1.22-4.09,0-8.81,8.3-32.2,16-30,5.63,1.39-7.59,15.42-10,18.71C88.74,59,87.17,62.54,86.6,67c0,0-.36,2.31,1,2.11C89.83,68.32,93.75,60.58,94.81,57.7ZM92.65,47.09a51.32,51.32,0,0,0-1.93,5.13,99,99,0,0,0,6.55-8.92c.53-.89,2.43-4.06,2.25-5.19C98.7,36.56,96.62,38.34,92.65,47.09Z"/><path class="cls-1" d="M132.19,50.14c-1,3.38-4.53,4.83-7.86,5.25s-6.49.27-9.7.83a2.53,2.53,0,0,1-.74,3,1.94,1.94,0,0,1-1.39.36,1.26,1.26,0,0,1-1.1-1.07,2.22,2.22,0,0,1,.77-2,2.88,2.88,0,0,1,1.39-.74,5,5,0,0,0-5.87-1,6.48,6.48,0,0,0-3.38,3.44c-1.81,4.15-6.43,14.56-10.58,12a4,4,0,0,1-1.16-3,26.33,26.33,0,0,1,1.1-7.71c.95-2.79.77-2.61,1.78-5.51a1.75,1.75,0,0,1,2.43-1c.89.27.77,1.33.59,2-1.51,5.48-2.31,6.37-3.17,12,0,0-.36,2.31,1,2.11,2.55-.8,5.81-8.45,7.41-11.62,1.75-3.38,6.55-5.42,9.84-2.73a4,4,0,0,1,.8.89c3.23-.56,6.52-.47,9.93-.89,2.88-.38,6.26-1.6,7.2-4.8.48-1.72-.92-5.31-3.35-4.48-.74.24-1.72,1.13-1.1,2a.87.87,0,0,0,1.07.38h0a1,1,0,0,1,1.36.21.93.93,0,0,1-.27,1.3c-.62.41-1.42-.09-2-.44a4.49,4.49,0,0,1-.92-.92c-.92-1.33.12-2.76,1.39-3.26C130.65,43.53,133,47.45,132.19,50.14ZM96.49,50A2.74,2.74,0,0,1,99,48.13,1.29,1.29,0,0,1,100.2,50a2.74,2.74,0,0,1-2.46,1.87A1.29,1.29,0,0,1,96.49,50ZM114,56.4v0c-.77.21-2.67,1.48-1.69,2.34.3.3.92.15,1.22-.09A2,2,0,0,0,114,56.4Z"/><path class="cls-1" d="M32.82,48.49h-.08a.54.54,0,0,1-.46-.61,43.65,43.65,0,0,1,86.35,0,.54.54,0,0,1-1.07.16,42.57,42.57,0,0,0-84.21,0A.54.54,0,0,1,32.82,48.49Z"/><path class="cls-1" d="M75.46,97.93A43.44,43.44,0,0,1,32.37,61.31a.54.54,0,0,1,1.07-.17,42.57,42.57,0,0,0,84,.06.53.53,0,0,1,.62-.45.54.54,0,0,1,.45.62A43.45,43.45,0,0,1,75.46,97.93Z"/><path class="cls-1" d="M37.59,44.74l-.14,0a.54.54,0,0,1-.38-.66,39.73,39.73,0,0,1,76.77,0,.54.54,0,0,1-1,.28,38.65,38.65,0,0,0-74.68,0A.54.54,0,0,1,37.59,44.74Z"/><path class="cls-1" d="M75.46,94A39.79,39.79,0,0,1,37.13,64.72a.54.54,0,0,1,1-.28,38.65,38.65,0,0,0,74.63-.2.54.54,0,0,1,1,.28A39.75,39.75,0,0,1,75.46,94Z"/><path class="cls-1" d="M120.88,36.2c-2,0-2.06,3.13,0,3.13S122.9,36.2,120.88,36.2Z"/><path class="cls-1" d="M122.13,47c-2,0-2.08,3.16,0,3.16S124.17,47,122.13,47Z"/><path class="cls-1" d="M128,38.62c-2,0-2,3.1,0,3.1S130,38.62,128,38.62Z"/><path class="cls-1" d="M130.51,29.9c-2,0-2.06,3.13,0,3.13S132.53,29.9,130.51,29.9Z"/><path class="cls-1" d="M141.23,38.24c-2.06,0-2.1,3.2,0,3.2S143.3,38.24,141.23,38.24Z"/><path class="cls-1" d="M139.94,53.46c-2.06,0-2.1,3.2,0,3.2S142,53.46,139.94,53.46Z"/><path class="cls-1" d="M124.72,63.14c-2.1,0-2.14,3.26,0,3.26S126.82,63.14,124.72,63.14Z"/><path class="cls-1" d="M26,42.16c-2,0-2.06,3.13,0,3.13S28,42.16,26,42.16Z"/><path class="cls-1" d="M32.21,50.94c-2.05,0-2.1,3.19,0,3.19S34.27,50.94,32.21,50.94Z"/><path class="cls-1" d="M19.8,54.17c-2,0-2,3.08,0,3.08S21.79,54.17,19.8,54.17Z"/><path class="cls-1" d="M12,49.85c-2.12,0-2.16,3.29,0,3.29S14.16,49.85,12,49.85Z"/><path class="cls-1" d="M15.28,69c-2.07,0-2.11,3.22,0,3.22S17.35,69,15.28,69Z"/><path class="cls-1" d="M28.24,70.44c-1.87,0-1.93,2.91-.05,2.91S30.12,70.44,28.24,70.44Z"/><path class="cls-1" d="M121,29a.62.62,0,0,0,0,1.24A.62.62,0,0,0,121,29Z"/><path class="cls-1" d="M134.74,38.89a.62.62,0,0,0,0,1.24A.62.62,0,0,0,134.74,38.89Z"/><path class="cls-1" d="M138.53,31.19a.69.69,0,0,0,0,1.39A.69.69,0,0,0,138.53,31.19Z"/><path class="cls-1" d="M136,45.31a.69.69,0,0,0,0,1.37A.69.69,0,0,0,136,45.31Z"/><path class="cls-1" d="M131.18,57.2a.77.77,0,0,0,0,1.54A.77.77,0,0,0,131.18,57.2Z"/><path class="cls-1" d="M133,65.1a.58.58,0,0,0-1.15,0l0,.32c-.09.8,1.32.8,1.23,0Z"/><path class="cls-1" d="M143.39,49a.65.65,0,0,0,0,1.29A.65.65,0,0,0,143.39,49Z"/><path class="cls-1" d="M148.08,39.67a.65.65,0,0,0,0,1.29A.65.65,0,0,0,148.08,39.67Z"/><path class="cls-1" d="M117.67,51.57a.65.65,0,0,0,0,1.29A.65.65,0,0,0,117.67,51.57Z"/><path class="cls-1" d="M141.22,62.76a.72.72,0,0,0,0,1.44A.72.72,0,0,0,141.22,62.76Z"/><path class="cls-1" d="M12.3,60.58a.71.71,0,0,0,0,1.43A.71.71,0,0,0,12.3,60.58Z"/><path class="cls-1" d="M28.87,59.88a.69.69,0,0,0,0,1.37A.69.69,0,0,0,28.87,59.88Z"/><path class="cls-1" d="M27.15,51.83a.68.68,0,0,0,0,1.35A.68.68,0,0,0,27.15,51.83Z"/><path class="cls-1" d="M20.19,47.75l-.31.34a.69.69,0,0,0,1,1l.34-.31C21.87,48.14,20.8,47.07,20.19,47.75Z"/><path class="cls-1" d="M5.23,53.54a.55.55,0,0,0,0,1.09A.55.55,0,0,0,5.23,53.54Z"/><path class="cls-1" d="M7.5,66.45a.58.58,0,0,0,0,1.17A.58.58,0,0,0,7.5,66.45Z"/><path class="cls-1" d="M21.42,72.88a.63.63,0,0,0,0,1.27A.63.63,0,0,0,21.42,72.88Z"/><path class="cls-1" d="M9.11,75.09a.69.69,0,0,0,0,1.39A.69.69,0,0,0,9.11,75.09Z"/><path class="cls-1" d="M.76,64.37a.78.78,0,0,0,0,1.56A.78.78,0,0,0,.76,64.37Z"/><path class="cls-1" d="M32.75,75.83a.6.6,0,0,0,0,1.21A.6.6,0,0,0,32.75,75.83Z"/><path class="cls-1" d="M25,77a.69.69,0,0,0,0,1.37A.69.69,0,0,0,25,77Z"/><path class="cls-1" d="M12.68,42.73a.67.67,0,0,0,0,1.34A.67.67,0,0,0,12.68,42.73Z"/><path class="cls-1" d="M26.69,32.66l-.75,1.65-.21-.06-.21-.08-.2-.1L25.15,34l1.92-4.21.2.06.2.08.2.1.19.12-.75,1.65,5.57,2.53a3.8,3.8,0,0,1-.18.45,4,4,0,0,1-.23.45Z"/><path class="cls-1" d="M28.1,27.82l.17-.35.15-.31.16-.32.2-.35a5.11,5.11,0,0,1,.59-.79,2.51,2.51,0,0,1,.74-.56A1.87,1.87,0,0,1,31,25a2.06,2.06,0,0,1,1,.34,1.81,1.81,0,0,1,.52.47,2.23,2.23,0,0,1,.31.56,2.31,2.31,0,0,1,.13.6,3.44,3.44,0,0,1,0,.57v.13l3.57-.2a5.34,5.34,0,0,1-.28.52,4.5,4.5,0,0,1-.3.43L32,28.59l0,0,0-.08a4.68,4.68,0,0,0,.13-.57,2.27,2.27,0,0,0,0-.62,1.67,1.67,0,0,0-.17-.59,1.21,1.21,0,0,0-.47-.48,1.27,1.27,0,0,0-1.1-.19,1.71,1.71,0,0,0-.87.77l-.15.27-.14.28,5.32,3.24-.11.21-.12.22-.14.21a1.88,1.88,0,0,1-.15.2Z"/><path class="cls-1" d="M31.85,22.05l2.38-3a2.81,2.81,0,0,1,.35.24l.17.14.15.15-1.77,2.23,1.57,1.24,1.41-1.78.18.11.18.13.17.15.15.15-1.41,1.78,1.87,1.48,1.81-2.29a2.83,2.83,0,0,1,.35.24l.17.14.15.15-2.43,3.07Z"/><path class="cls-1" d="M35.91,17.14l.14-.18.16-.17.17-.15.18-.14,5.84,1.64-3.66-3.76.15-.19.17-.18.17-.15.18-.14,4.87,5-.14.18-.16.17-.17.15-.18.14-5.82-1.61,3.64,3.74-.14.18-.16.17L41,22l-.18.13Z"/><path class="cls-1" d="M41.71,11.79l.6-.52c.24-.2.48-.39.72-.56a3.24,3.24,0,0,1,5.08.79,3.58,3.58,0,0,1,.83,2.74,3.86,3.86,0,0,1-1.72,2.33q-.37.27-.75.5t-.67.38Zm4.41,4.42.29-.17.35-.23a3.89,3.89,0,0,0,.77-.72,2,2,0,0,0,.4-.83,2,2,0,0,0-.07-1,4.14,4.14,0,0,0-.63-1.18,3.67,3.67,0,0,0-.88-.9,2.16,2.16,0,0,0-.91-.38,2,2,0,0,0-.93.09,3.42,3.42,0,0,0-.92.49l-.32.24a2.66,2.66,0,0,0-.29.25Z"/><path class="cls-1" d="M52.45,6.92a.85.85,0,0,0,.52.5,1.31,1.31,0,0,0,.91-.13l1.94-.86.32-1.48.07,0L56.71,6l1.15-.51a1.72,1.72,0,0,1,.19.33l.08.19c0,.07,0,.13.05.19L57,6.75l.58,1.31a2.47,2.47,0,0,1,.23,1,2,2,0,0,1-.23.92,2.57,2.57,0,0,1-.65.77,4.41,4.41,0,0,1-1,.61,4.13,4.13,0,0,1-1,.3,2.54,2.54,0,0,1-.92,0,1.86,1.86,0,0,1-.79-.36,2,2,0,0,1-.58-.79,2.17,2.17,0,0,1-.17-.61,2.27,2.27,0,0,1,0-.64,2.09,2.09,0,0,1,.18-.59A1.73,1.73,0,0,1,53,8.22a1.91,1.91,0,0,1-.86-.2,1.4,1.4,0,0,1-.64-.73,1.57,1.57,0,0,1-.15-.75,1.53,1.53,0,0,1,.2-.66,1.94,1.94,0,0,1,.48-.55,3.14,3.14,0,0,1,.7-.42,4.79,4.79,0,0,1,.53-.19A3.38,3.38,0,0,1,54,4.59a1.66,1.66,0,0,1,.11.38,1.25,1.25,0,0,1,0,.37,3.25,3.25,0,0,0-.49.09,3.18,3.18,0,0,0-.43.15,1.5,1.5,0,0,0-.46.29,1,1,0,0,0-.24.34.76.76,0,0,0-.07.35A.94.94,0,0,0,52.45,6.92Zm3.22,3.64a2.51,2.51,0,0,0,.79-.51,1.43,1.43,0,0,0,.36-.59,1.39,1.39,0,0,0,0-.63,2.81,2.81,0,0,0-.2-.64l-.47-1.06-1.8.8a1.58,1.58,0,0,0-.53.37,1.37,1.37,0,0,0-.3.5,1.54,1.54,0,0,0-.08.57,1.58,1.58,0,0,0,.14.58,1.27,1.27,0,0,0,.8.77A1.83,1.83,0,0,0,55.67,10.56Z"/><path class="cls-1" d="M62.88,7.61a6.17,6.17,0,0,0,.7.05,3.59,3.59,0,0,0,.85-.1A1.84,1.84,0,0,0,65.52,7,1.08,1.08,0,0,0,65.71,6a1.19,1.19,0,0,0-.18-.44.89.89,0,0,0-.32-.27,1.78,1.78,0,0,0-.46-.16L64.13,5,63.54,5A3.83,3.83,0,0,1,63,4.82a1.55,1.55,0,0,1-.83-.65,1.82,1.82,0,0,1-.23-.6,1.7,1.7,0,0,1,.28-1.48,2.57,2.57,0,0,1,1.54-.86,4.67,4.67,0,0,1,.88-.12,4.5,4.5,0,0,1,.76,0,3,3,0,0,1,0,.83,4.65,4.65,0,0,0-.63,0,3.58,3.58,0,0,0-.78.1,1.54,1.54,0,0,0-.86.45.87.87,0,0,0-.16.8.78.78,0,0,0,.16.34,1,1,0,0,0,.28.23,1.53,1.53,0,0,0,.36.14l.42.08.58.09a5.67,5.67,0,0,1,.74.17,2.14,2.14,0,0,1,.59.27,1.56,1.56,0,0,1,.44.45,2.16,2.16,0,0,1,.27.69,2,2,0,0,1-.33,1.69,2.92,2.92,0,0,1-1.76,1l-.53.1-.45,0h-.41l-.42,0a2.21,2.21,0,0,1,0-.45Q62.85,7.84,62.88,7.61Z"/><path class="cls-1" d="M69.29,1.29l-1.81.19a1.74,1.74,0,0,1-.05-.21c0-.08,0-.15,0-.22s0-.14,0-.22a1.68,1.68,0,0,1,0-.21L72,.13a2,2,0,0,1,.05.2c0,.07,0,.14,0,.21s0,.15,0,.23a2.21,2.21,0,0,1,0,.22l-1.81.19.65,6.09a3.67,3.67,0,0,1-.48.08,4.26,4.26,0,0,1-.51,0Z"/><path class="cls-1" d="M75.65,4.49,73.51,0l.27,0h.57l.27,0,1.58,3.49L77.86.1l.25,0h.53l.26,0L76.65,4.51l0,2.55-.25,0h-.51l-.24,0Z"/><path class="cls-1" d="M80.93.32h.23l.26,0,.25,0,.24.06L81.12,6.5l2.72.35a2,2,0,0,1,0,.23c0,.08,0,.15,0,.21a3.09,3.09,0,0,1-.08.43L80,7.24Z"/><path class="cls-1" d="M86.68,1.2l3.73.91a2.83,2.83,0,0,1-.07.42l-.06.22a1.33,1.33,0,0,1-.08.2l-2.76-.67L87,4.22l2.21.54a1.9,1.9,0,0,1,0,.21c0,.08,0,.15,0,.22s0,.14-.06.22a2,2,0,0,1-.08.2l-2.21-.54-.57,2.32L89,8.07a2.81,2.81,0,0,1-.07.42l-.06.22a1.45,1.45,0,0,1-.07.2L85,8Z"/><path class="cls-1" d="M124,76.42l.77-1.65.21.07.21.08.19.1.18.11-2,4.19-.2-.06-.2-.08-.2-.11-.19-.12.77-1.65-5.54-2.59a4.11,4.11,0,0,1,.18-.45,4.34,4.34,0,0,1,.24-.45Z"/><path class="cls-1" d="M122.58,81.25l-.17.35-.15.31-.17.31-.21.35a5,5,0,0,1-.6.78,2.48,2.48,0,0,1-.75.55,1.89,1.89,0,0,1-.88.18,2.06,2.06,0,0,1-1-.35,1.81,1.81,0,0,1-.52-.47,2.19,2.19,0,0,1-.3-.57,2.25,2.25,0,0,1-.12-.6,3.56,3.56,0,0,1,0-.56V81.4l-3.57.16a5.62,5.62,0,0,1,.29-.52,5,5,0,0,1,.3-.43l3.93-.18,0,0,0,.08a4.9,4.9,0,0,0-.14.57,2.27,2.27,0,0,0,0,.62,1.71,1.71,0,0,0,.17.59,1.22,1.22,0,0,0,.46.48,1.27,1.27,0,0,0,1.1.2,1.69,1.69,0,0,0,.88-.76l.15-.27.14-.28-5.28-3.3.11-.21.12-.22.14-.21.15-.2Z"/><path class="cls-1" d="M118.78,87l-2.41,3a2.85,2.85,0,0,1-.35-.25l-.17-.14-.15-.15,1.79-2.21-1.56-1.26-1.43,1.77-.18-.11-.18-.13-.17-.15-.15-.16,1.43-1.77-1.86-1.5-1.84,2.27a2.86,2.86,0,0,1-.35-.25l-.17-.14-.15-.15,2.46-3Z"/><path class="cls-1" d="M114.66,91.84l-.15.18-.16.16-.17.15-.19.14-5.82-1.7,3.62,3.8-.16.19-.18.18-.17.15-.18.13-4.82-5.06.14-.18.16-.16.17-.15.19-.14,5.81,1.67-3.6-3.78.14-.18.17-.17.19-.16.18-.13Z"/><path class="cls-1" d="M108.81,97.13l-.61.52q-.36.3-.73.55a3.24,3.24,0,0,1-5.07-.84,3.57,3.57,0,0,1-.81-2.75,3.86,3.86,0,0,1,1.75-2.32c.25-.18.5-.34.76-.49s.48-.28.67-.37Zm-4.37-4.47-.29.17-.35.23a3.83,3.83,0,0,0-.78.71,2,2,0,0,0-.41.83,2,2,0,0,0,.06,1,4,4,0,0,0,.61,1.19,3.69,3.69,0,0,0,.87.91,2.16,2.16,0,0,0,.91.39A2,2,0,0,0,106,98a3.47,3.47,0,0,0,.93-.48l.33-.24a2.55,2.55,0,0,0,.29-.25Z"/><path class="cls-1" d="M98,101.89a.85.85,0,0,0-.52-.5,1.31,1.31,0,0,0-.91.12l-1.95.84-.34,1.48-.07,0-.48-1.12-1.16.5a1.73,1.73,0,0,1-.19-.33l-.07-.2a2,2,0,0,1-.05-.19l1.16-.5-.57-1.32a2.46,2.46,0,0,1-.22-1,2,2,0,0,1,.24-.91,2.52,2.52,0,0,1,.66-.76,4.38,4.38,0,0,1,1-.6,4.12,4.12,0,0,1,1-.28,2.52,2.52,0,0,1,.92,0,1.83,1.83,0,0,1,.79.37,2,2,0,0,1,.58.8,2.27,2.27,0,0,1,.15,1.25,2.14,2.14,0,0,1-.18.59,1.78,1.78,0,0,1-.33.47,1.94,1.94,0,0,1,.86.21,1.41,1.41,0,0,1,.63.74,1.57,1.57,0,0,1,.14.75,1.51,1.51,0,0,1-.2.66,1.94,1.94,0,0,1-.49.55,3.12,3.12,0,0,1-.71.41,4.52,4.52,0,0,1-.53.19,3.28,3.28,0,0,1-.66.11,1.77,1.77,0,0,1-.1-.38,1.25,1.25,0,0,1,0-.37,3.16,3.16,0,0,0,.49-.09,3.4,3.4,0,0,0,.43-.15,1.58,1.58,0,0,0,.46-.29,1.08,1.08,0,0,0,.24-.34.79.79,0,0,0,.07-.35A.94.94,0,0,0,98,101.89Zm-3.18-3.68a2.53,2.53,0,0,0-.8.5,1.41,1.41,0,0,0-.37.58,1.36,1.36,0,0,0,0,.63,2.8,2.8,0,0,0,.19.64l.46,1.06,1.81-.78a1.58,1.58,0,0,0,.53-.36,1.37,1.37,0,0,0,.31-.5,1.57,1.57,0,0,0,.08-.57,1.61,1.61,0,0,0-.13-.58,1.27,1.27,0,0,0-.79-.78A1.84,1.84,0,0,0,94.83,98.21Z"/><path class="cls-1" d="M87.58,101.09a6.46,6.46,0,0,0-.7-.06,3.55,3.55,0,0,0-.85.09,1.84,1.84,0,0,0-1.1.57,1.09,1.09,0,0,0-.2.94,1.21,1.21,0,0,0,.18.44.92.92,0,0,0,.31.28,1.86,1.86,0,0,0,.46.16l.62.13.59.1a3.77,3.77,0,0,1,.56.14,1.62,1.62,0,0,1,.47.25,1.55,1.55,0,0,1,.36.4,1.88,1.88,0,0,1,.23.6,1.7,1.7,0,0,1-.3,1.48,2.57,2.57,0,0,1-1.55.84,4.79,4.79,0,0,1-.88.11,4.6,4.6,0,0,1-.76,0,3.06,3.06,0,0,1,0-.83,4.84,4.84,0,0,0,.63,0,3.57,3.57,0,0,0,.78-.09,1.54,1.54,0,0,0,.87-.44.87.87,0,0,0,.17-.8.77.77,0,0,0-.16-.34,1,1,0,0,0-.27-.23,1.62,1.62,0,0,0-.36-.15l-.42-.09-.58-.09a5.84,5.84,0,0,1-.74-.17,2.17,2.17,0,0,1-.59-.28,1.55,1.55,0,0,1-.43-.46,2.18,2.18,0,0,1-.26-.69,2,2,0,0,1,.34-1.69,2.92,2.92,0,0,1,1.77-1l.54-.09.45,0h.41l.42,0a2.22,2.22,0,0,1,0,.45C87.62,100.79,87.6,100.94,87.58,101.09Z"/><path class="cls-1" d="M81.13,107.34l1.81-.17a1.6,1.6,0,0,1,0,.21c0,.08,0,.15,0,.22s0,.14,0,.22a2,2,0,0,1,0,.21l-4.6.44a1.67,1.67,0,0,1,0-.2,2.13,2.13,0,0,1,0-.21c0-.07,0-.15,0-.23a1.74,1.74,0,0,1,0-.22l1.81-.17-.58-6.09a3.54,3.54,0,0,1,.48-.08,3.93,3.93,0,0,1,.51,0Z"/><path class="cls-1" d="M74.84,104.07,77,108.54l-.27,0h-.29l-.28,0-.27,0L74.3,105l-1.69,3.43-.25,0h-.26l-.27,0-.26,0L73.84,104l.06-2.55.25,0h.25l.26,0,.24,0Z"/><path class="cls-1" d="M69.44,108.19h-.23l-.26,0-.25,0-.24-.06.85-6.05-2.71-.38a1.74,1.74,0,0,1,0-.22q0-.12,0-.21a3,3,0,0,1,.09-.43l3.68.52Z"/><path class="cls-1" d="M63.71,107.24,60,106.29a3.1,3.1,0,0,1,.08-.42l.06-.22a1.42,1.42,0,0,1,.08-.2l2.76.7.5-1.94-2.2-.56a2,2,0,0,1,0-.21c0-.07,0-.15,0-.21l.07-.22a2,2,0,0,1,.08-.2l2.2.56.59-2.31-2.83-.72a2.89,2.89,0,0,1,.08-.42l.06-.22a1.5,1.5,0,0,1,.08-.2l3.79,1Z"/></g></g></svg>