<svg xmlns="http://www.w3.org/2000/svg" viewBox="0 0 180.44 42.4"><defs><style>.cls-1{fill:#1a1a18;}</style></defs><title>4</title><g id="Capa_2" data-name="Capa 2"><g id="Ebene_1" data-name="Ebene 1"><path class="cls-1" d="M68.4,24.11a11.28,11.28,0,0,1,1.08-.92c1.88-1.79,1.5-1.25,3.38-3C74,19.07,75.23,18.07,76.44,17c.17-.12.79-.63,1-.5.37.29-.29,1-.5,1.25-2.38,2.29-4.67,4.8-7.25,6.84a4.53,4.53,0,0,1-1.5.71,1.71,1.71,0,0,1-.92,0,1.14,1.14,0,0,1-1.08-1.38,14.21,14.21,0,0,1,.29-1.84,2.38,2.38,0,0,0,0-.75l-.63.79c-.88,1.08-1.79,2.17-2.71,3.25a8.8,8.8,0,0,1-1.5,1.25,5,5,0,0,1-3.84.88,2.33,2.33,0,0,1-2.17-2.46A7.28,7.28,0,0,1,56,22.95a14.23,14.23,0,0,1,2.88-5.21,5.61,5.61,0,0,1,3.38-1.88,1.27,1.27,0,0,1,.42,0,1.3,1.3,0,0,1,1.58,1.42A13.86,13.86,0,0,1,64,19.49a4.84,4.84,0,0,1-.37,1.08,4.29,4.29,0,0,1-.54.75.48.48,0,0,1-.71,0,2,2,0,0,0,.17-.54c.25-1,.5-1.88.67-2.79a1.54,1.54,0,0,0-.42-1.58,5,5,0,0,0-2.92,2.08,11.71,11.71,0,0,0-2.08,4.71,6.74,6.74,0,0,0-.08,2,2,2,0,0,0,.33,1,.7.7,0,0,0,1,.37,8.76,8.76,0,0,0,1.46-.92,28.77,28.77,0,0,0,3.63-3.84L68,17.07a1.38,1.38,0,0,1,1.58-.5.47.47,0,0,1,.42.58,8.54,8.54,0,0,1-.37,1.38c-.42,1.42-.88,2.79-1.29,4.17-.12.42-.12.88-.21,1.29Z"/><path class="cls-1" d="M78.36,16.19a2.72,2.72,0,0,0,1.25.71c.42.17.79.25,1.17.42A2,2,0,0,1,82,20c-.33,1-.71,2.08-1,3.13a1.13,1.13,0,0,0-.08,1l.88-.54c2.59-1.84,5.09-3.84,7.46-5.88.25-.25.54-.46.79-.67A.87.87,0,0,1,91,17a2.51,2.51,0,0,1-.25.58,16,16,0,0,1-1.17,1.17l-4.38,4.38a15.56,15.56,0,0,1-2.88,2.38,4.09,4.09,0,0,1-2.71.5,1.81,1.81,0,0,1-1.67-2.42c.21-.67.5-1.29.75-1.92s.54-1.21.79-1.79a3.47,3.47,0,0,0,.17-.71.88.88,0,0,0-.71-1,8.61,8.61,0,0,1-1-.25,6.38,6.38,0,0,1-1.25-.46A2.08,2.08,0,0,1,75.52,15v-.12a11.09,11.09,0,0,1,4.25-5.92,2.29,2.29,0,0,1,1.54-.5c.71.08,1.08.42,1.08,1.13a2.73,2.73,0,0,1-.12,1,8.49,8.49,0,0,1-1.92,3.5ZM81,9.44a11.19,11.19,0,0,0-2.54,4,2.56,2.56,0,0,0-.29,1.67C79.94,13.69,81.2,11.31,81,9.44Z"/><path class="cls-1" d="M89.2,24.45c.71-.5,1.42-.92,2.08-1.46,2.29-1.88,4.63-3.75,6.88-5.63.37-.33.71-.67,1.29-.46.13.46-.17.71-.42.92-.83.92-1.67,1.84-2.5,2.71s-1.79,1.88-2.75,2.67a19.78,19.78,0,0,1-2.83,2.09,7.59,7.59,0,0,1-1.88.83,2.46,2.46,0,0,1-1.09.17c-1.38,0-1.79-.54-1.42-1.84a23.86,23.86,0,0,1,1.17-3.13,47.82,47.82,0,0,1,4.54-7.71c.17-.21.29-.46.46-.71-1.08-.25-2.09.42-3.21-.17a5.15,5.15,0,0,1,.83-.42c.67-.08,1.33-.21,2-.33,1.25-.25,1.25-.21,2-1.21C95,10,95.54,9.23,96.16,8.44a3.64,3.64,0,0,1,.71-.67c.29-.29.29-.29,1-.12a6.27,6.27,0,0,1-1,1.88c-.33.63-.71,1.21-1.13,1.88a10.84,10.84,0,0,0,1.25.38,2,2,0,0,1-1.29.58,1,1,0,0,0-.83.5,105.24,105.24,0,0,0-5.5,10.51,9.54,9.54,0,0,1-.33,1C89.07,24.41,89.11,24.45,89.2,24.45Z"/><path class="cls-1" d="M114.17,13.61a4,4,0,0,1-.42.42,4.21,4.21,0,0,0-1.25,2.67,19.6,19.6,0,0,0,.46,5.13,8.31,8.31,0,0,0,.75-.46c2.25-1.54,4.46-3.13,6.67-4.71.42-.29.79-.46,1.25-.17.08.46-.29.71-.54,1l-4,3.29c-1,.83-2.13,1.63-3.17,2.46a1.66,1.66,0,0,0-.71,1.58,18.63,18.63,0,0,1-1.5,8.09,6.25,6.25,0,0,1-1.88,2.54,3.91,3.91,0,0,1-3,.88c-.88-.13-1.33-.5-1.38-1.38a14.9,14.9,0,0,1,.21-2.38,15.44,15.44,0,0,1,2.54-5.5c.67-.92,1.42-1.79,2.13-2.67a1.67,1.67,0,0,0,.5-1.38c-.12-1.33-.17-2.63-.21-3.92a10.14,10.14,0,0,1,.12-2,4.43,4.43,0,0,1,2-3.21A1.4,1.4,0,0,1,114.17,13.61Zm-3.75,13.76a7.48,7.48,0,0,0-1,1.38,15,15,0,0,0-2,5,2.35,2.35,0,0,0,0,1.42,2.81,2.81,0,0,0,1.38-1.67,25.34,25.34,0,0,0,1.67-5.84C110.54,27.62,110.46,27.53,110.42,27.37Z"/><path class="cls-1" d="M119,24.45c.71-.5,1.42-.92,2.08-1.46,2.29-1.88,4.63-3.75,6.88-5.63.38-.33.71-.67,1.29-.46.13.46-.17.71-.42.92-.83.92-1.67,1.84-2.5,2.71s-1.79,1.88-2.75,2.67a19.87,19.87,0,0,1-2.84,2.09,7.59,7.59,0,0,1-1.88.83,2.46,2.46,0,0,1-1.09.17c-1.38,0-1.79-.54-1.42-1.84a23.87,23.87,0,0,1,1.17-3.13,47.82,47.82,0,0,1,4.54-7.71c.17-.21.29-.46.46-.71-1.08-.25-2.09.42-3.21-.17a5.14,5.14,0,0,1,.83-.42c.67-.08,1.33-.21,2-.33,1.25-.25,1.25-.21,2-1.21.54-.79,1.12-1.54,1.75-2.34a3.64,3.64,0,0,1,.71-.67c.29-.29.29-.29,1-.12a6.27,6.27,0,0,1-1,1.88c-.33.63-.71,1.21-1.13,1.88a10.84,10.84,0,0,0,1.25.38,2,2,0,0,1-1.29.58,1,1,0,0,0-.83.5,105.24,105.24,0,0,0-5.5,10.51,9.54,9.54,0,0,1-.33,1C118.92,24.41,119,24.45,119,24.45Z"/><path class="cls-1" d="M130.64,16.19c-.71,1.12-1.38,2.25-2.13,3.34a13.79,13.79,0,0,0-1.92,3.84,3.47,3.47,0,0,0-.21,1.5A8.07,8.07,0,0,0,128,23.61c1.46-1.29,2.92-2.63,4.42-3.92,1-.83,2-1.58,3-2.33a2.19,2.19,0,0,1,1.33-.5c.71,0,1,.42.79,1.08-.46,1.21-1,2.42-1.46,3.63-.21.5-.38,1-.58,1.54a.87.87,0,0,0,.71-.29l8.13-6.17a5.49,5.49,0,0,1,.58-.46.75.75,0,0,1,1,0c.08.37-.17.5-.37.71-.71.67-1.46,1.33-2.21,2-1.5,1.38-3,2.79-4.46,4.13a25.22,25.22,0,0,1-2,1.54,3.74,3.74,0,0,1-2.75.63c-.92-.17-1.21-.58-.88-1.46.5-1.25,1.09-2.46,1.63-3.71a5.62,5.62,0,0,0,.54-1.38c-.5.42-.92.67-1.25,1-1.5,1.46-3,3-4.46,4.46-.67.63-1.38,1.25-2.08,1.84a3.06,3.06,0,0,1-2.25.63c-.92-.08-1.29-.5-1.21-1.42a6.12,6.12,0,0,1,.42-2,19,19,0,0,1,4.09-6.42,2.72,2.72,0,0,1,.88-.67A.92.92,0,0,1,130.64,16.19Z"/><path class="cls-1" d="M148.9,17.53c.29-.46.5-.75.67-1.09a49.47,49.47,0,0,1,5-7.3,8.22,8.22,0,0,1,2.92-2.29,4.18,4.18,0,0,1,1.29-.33c.79,0,1.21.37,1.17,1.21a3.12,3.12,0,0,1-.21,1.09,13.52,13.52,0,0,1-1.25,2.59c-1.5,2.17-3,4.29-4.59,6.42a31.2,31.2,0,0,1-3.67,3.75c-.75.71-.75,1-.08,1.92a2.59,2.59,0,0,0,1.71-.67c1-.88,2.13-1.75,3.17-2.63l3-2.59a1.89,1.89,0,0,1,1.5-.58,2,2,0,0,1-.12.54A2,2,0,0,1,159,18l-4.84,4.88a5.55,5.55,0,0,1-3.84,1.71,3.07,3.07,0,0,1-2.54-.83l-.92.67a9.15,9.15,0,0,1-4.17,1.71,6.86,6.86,0,0,1-.92,0,2.19,2.19,0,0,1-2.21-2.29,4.73,4.73,0,0,1,.29-1.71,14,14,0,0,1,4-6,5.83,5.83,0,0,1,2.54-1.38,5.19,5.19,0,0,1,.79-.08A1.62,1.62,0,0,1,149,16.44,5.88,5.88,0,0,1,148.9,17.53Zm-6.46,7.38a5.12,5.12,0,0,0,1.13-.38c.83-.5,1.63-1,2.42-1.58a3.2,3.2,0,0,0,1.75-2.59c0-.08,0-.12,0-.21-.21,0-.46-.12-.75-.21.12-.42.29-.79.42-1.17a19.47,19.47,0,0,0,.42-2.13,1.2,1.2,0,0,0-.54-1.25,3.66,3.66,0,0,0-1.88,1.25,13.83,13.83,0,0,0-3.29,6.21A2.31,2.31,0,0,0,142.43,24.91ZM158.7,7.18A2.21,2.21,0,0,0,157.4,8a12.49,12.49,0,0,0-1.71,1.92,48.57,48.57,0,0,0-4.63,7.92l-.12.58c.17-.08.21-.08.25-.12a56.87,56.87,0,0,0,6.13-7.3,9.4,9.4,0,0,0,1.33-2.75A1.49,1.49,0,0,0,158.7,7.18Z"/><path class="cls-1" d="M157.53,23.7a3.34,3.34,0,0,0,1.5-.46c1.29-.75,2.59-1.46,3.84-2.29a46.8,46.8,0,0,0,5.55-4.42,2.41,2.41,0,0,1,.88-.54c.21-.08.42.17.33.38a3.19,3.19,0,0,1-.46.67,45.22,45.22,0,0,1-6,5.63,11.58,11.58,0,0,1-4.71,2,4.89,4.89,0,0,1-1.75.08c-1-.08-1.42-.67-1.21-1.71a12.06,12.06,0,0,1,.54-1.58,16.75,16.75,0,0,1,2.84-4.75c.54-.67.71-.67,1.63-.42.17.33-.12.54-.29.83-.63,1.29-1.33,2.63-2,4a13.76,13.76,0,0,0-.67,1.84A4.39,4.39,0,0,0,157.53,23.7Zm6.38-13.59a4.63,4.63,0,0,1-.42.54l-2,2.21c-.5.5-.54.54-1.29.42a2.06,2.06,0,0,1,.08-.5c.25-.5.5-1,.79-1.54a3.12,3.12,0,0,1,1.67-1.33C163.2,9.73,163.24,9.73,163.91,10.1Z"/><path class="cls-1" d="M171.24,22.57a10,10,0,0,1-2,2.92,4.57,4.57,0,0,1-4.59,1.17,1.56,1.56,0,0,1-1.33-1.79A9.4,9.4,0,0,1,164,22a17.1,17.1,0,0,1,2.92-4.59,4.88,4.88,0,0,1,3-1.79,4.79,4.79,0,0,1,1.54,0,1.19,1.19,0,0,1,1,1.25v1.63a9.72,9.72,0,0,0,1.17-.29c1.63-.58,3.25-1.21,4.92-1.79a4.77,4.77,0,0,1,1.08-.37,2,2,0,0,1,.67.08c-.46.67-.67.79-3.79,2.29a12.88,12.88,0,0,1-4.09,1.25Zm.17-4.67c0-.42,0-.71-.08-1-.12-.58-.5-.79-1-.5a7.73,7.73,0,0,0-1.29,1,13.87,13.87,0,0,0-2.5,4.38,25.89,25.89,0,0,0-.75,2.59,1.29,1.29,0,0,0,.29,1.25,3.18,3.18,0,0,0,1.71-1.25,11.87,11.87,0,0,0,2.67-4.8,2.13,2.13,0,0,1-.46-.33c-.25-.17-.46-.33-.42-.67a.66.66,0,0,1,.58-.5A8.74,8.74,0,0,1,171.41,17.9Z"/><path class="cls-1" d="M7.52,28C5,28,5,31.91,7.48,31.91S10,28,7.52,28Z"/><path class="cls-1" d="M16.83,37c-2.5,0-2.55,3.88,0,3.88S19.34,37,16.83,37Z"/><path class="cls-1" d="M34.58,32.37c-2.51,0-2.56,3.9,0,3.9S37.1,32.37,34.58,32.37Z"/><path class="cls-1" d="M21.2,27.1c-2.55,0-2.6,4,0,4S23.75,27.1,21.2,27.1Z"/><path class="cls-1" d="M33.13,22.75h-.29a2,2,0,1,0,0,3.92h.29a2,2,0,0,0,0-3.95Z"/><path class="cls-1" d="M14.8,19.28c-2.51,0-2.56,3.9,0,3.9S17.31,19.28,14.8,19.28Z"/><path class="cls-1" d="M24.11,16.13c-2.45,0-2.5,3.81,0,3.81S26.57,16.13,24.11,16.13Z"/><path class="cls-1" d="M21.78,7.71c-2.43,0-2.48,3.77,0,3.77S24.22,7.71,21.78,7.71Z"/><path class="cls-1" d="M5.66,12.55a7.08,7.08,0,0,0-.75.54,2,2,0,0,0,.18,3,2,2,0,0,0,3-.54,1.51,1.51,0,0,0,.22-.33A2,2,0,0,0,5.66,12.55Z"/><path class="cls-1" d="M32.54,10.22c-2.56,0-2.6,4,0,4S35.11,10.22,32.54,10.22Z"/><path class="cls-1" d="M42.44,16.45c-2.4,0-2.46,3.74-.05,3.74S44.85,16.45,42.44,16.45Z"/><path class="cls-1" d="M1.11,22.55a.72.72,0,0,0,0,1.44A.72.72,0,0,0,1.11,22.55Z"/><path class="cls-1" d="M14.49,14.36a.76.76,0,0,0,0,1.53A.76.76,0,0,0,14.49,14.36Z"/><path class="cls-1" d="M11,3.26a.8.8,0,0,0,0,1.6A.8.8,0,0,0,11,3.26Z"/><path class="cls-1" d="M29.33,3.29a.77.77,0,0,0,0,1.55A.77.77,0,0,0,29.33,3.29Z"/><path class="cls-1" d="M34.28,16.18a.69.69,0,0,0,0,1.38A.69.69,0,0,0,34.28,16.18Z"/><path class="cls-1" d="M26.42,23.33a.81.81,0,0,0,0,1.63A.81.81,0,0,0,26.42,23.33Z"/><path class="cls-1" d="M28.07,33.24a.82.82,0,0,0-1.57,0l-.05.28a.86.86,0,1,0,1.67,0Z"/><path class="cls-1" d="M14.49,32.1a.77.77,0,0,0,0,1.55A.77.77,0,0,0,14.49,32.1Z"/><path class="cls-1" d="M39.22,26.32a.73.73,0,0,0,0,1.46A.73.73,0,0,0,39.22,26.32Z"/><path class="cls-1" d="M27,38.46a.81.81,0,0,0,0,1.62A.81.81,0,0,0,27,38.46Z"/><path class="cls-1" d="M41.55,32.72a.73.73,0,0,0,0,1.46A.73.73,0,0,0,41.55,32.72Z"/><path class="cls-1" d="M6.93,34.92a.86.86,0,0,0,0,1.73A.86.86,0,0,0,6.93,34.92Z"/><path class="cls-1" d="M.82,10.5a.84.84,0,0,0,0,1.67A.84.84,0,0,0,.82,10.5Z"/><path class="cls-1" d="M20,0a.86.86,0,0,0,0,1.73A.86.86,0,0,0,20,0Z"/><path class="cls-1" d="M39.81,7.38a.76.76,0,0,0,0,1.51A.76.76,0,0,0,39.81,7.38Z"/><path class="cls-1" d="M125.61,40.06c0,1.31-1.11,2.19-2.78,2.19h-2.38v-8h2.22c1.3,0,2.47.71,2.47,2A2.09,2.09,0,0,1,123.88,38,2.09,2.09,0,0,1,125.61,40.06ZM121.22,35v2.84h1.47a1.49,1.49,0,0,0,1.64-1.44c0-.82-.56-1.4-1.93-1.4ZM124.81,40a1.71,1.71,0,0,0-1.86-1.59h-1.72v3.1h1.59C124.06,41.55,124.81,41.07,124.81,40Z"/><path class="cls-1" d="M132.63,39.23v3h-.78v-3l-2.59-5h.87L132,37.86l.3.66.3-.66,1.84-3.61h.87Z"/><path class="cls-1" d="M149.19,39.65H146l-1,2.6h-.8l3-8H148l3,8h-.82ZM149,39l-1-2.53-.42-1.24-.41,1.24L146.23,39Z"/><path class="cls-1" d="M154.15,41.74a.65.65,0,0,1,.7-.7.62.62,0,0,1,.67.66.65.65,0,0,1-.7.69A.61.61,0,0,1,154.15,41.74Z"/><path class="cls-1" d="M164.8,41.54v.71h-4.26v-8h.78v7.28Z"/><path class="cls-1" d="M168.89,34.26h.78v8h-.78Z"/><path class="cls-1" d="M180.44,34.26v8h-.73l-3.61-5.87-.47-.83c0,.38,0,.77.05,1.15v5.55h-.78v-8h.75L179.2,40l.53,1c0-.45,0-.88-.07-1.33V34.26Z"/></g></g></svg>