<svg xmlns="http://www.w3.org/2000/svg" viewBox="0 0 163.28 44.71"><defs><style>.cls-1{fill:#1a1a18;}</style></defs><title>5</title><g id="Capa_2" data-name="Capa 2"><g id="Ebene_1" data-name="Ebene 1"><path class="cls-1" d="M51.09,6.3A.6.6,0,0,0,51,6.16a.57.57,0,0,0,0-1,.46.46,0,0,0-.5-.27.2.2,0,0,0-.23-.28h0a.17.17,0,0,0-.12,0h0a.2.2,0,0,0-.22-.1c-.27.06-.52.14-.78.22h0l0-.09c-.78.25-1.58.47-2.39.67l.16.43h0l-.15-.43c-1.56.4-3.15.73-4.64,1-.26.06-.17-.06.05-.11-1.23.22-2.32.5-3.45.8,3.92-1.47,11.49-5.59,3.18-3.85L42.13,3c.15-.07.13-.23,0-.32l.1,0a.17.17,0,0,0,.09-.21l.21-.09h0l.05,0A.19.19,0,0,0,42.69,2l0,0a.22.22,0,0,0,0-.38.19.19,0,0,0,0-.2.2.2,0,0,0,0-.11l.12,0A.2.2,0,0,0,43.06,1a.17.17,0,0,0-.2-.19l-.12,0a.16.16,0,0,0-.17,0l-.25.08v0L41.88,1c-3.06.79-6.25,2-9.49,2.39A18.18,18.18,0,0,1,36,2l0,0a10.23,10.23,0,0,0,1.56-.63l1.15-.3A.57.57,0,0,0,38.34,0c-1.06.25-2.09.55-3.11.89-2.67.47-6.46,2.44-7.87,4.52a.15.15,0,0,1,0-.13c-.24.23-.22.12.15,1.21.08.24,1.95.27,1.82.28a1.84,1.84,0,0,1-.54.37l0,0c-1.23.72-.27,1.15.65,1A1.08,1.08,0,0,1,30,8l.78-.15a80.12,80.12,0,0,1-8,3v0a13.76,13.76,0,0,0,2.09-1.45A.42.42,0,0,0,25,9l.07,0q.26-2-3-.92c.81-.3,1.8-.69.64-.59.8-.6.8-1.07-.33-1,1.17-.72-11,3.14-12.15,3.52.45-.22,2.32-.9,4.54-1.74a53.71,53.71,0,0,0,6.06-2.4c1.81-.78,3.09-1.44,3-1.71q.35-.94-.35-.85c0,.1.09.12,0,.17,0-.1-.1-.12,0-.17-4.77-.26-9.71,2.39-14.12,3.85C9.92,7,20.81,3.33,19.3,1.3a15.17,15.17,0,0,0-3,.27c.07-.16-.14-.3-.29-.25,0,0,0-.13-.1-.28l-.47.1a.19.19,0,0,0-.11,0h0L15.42,1a.2.2,0,0,0,.05-.16c.21-.14.34-.3.21-.55,0,.09-.08.09,0,.07a.68.68,0,0,1-.07.14.46.46,0,0,0-.12.1l0-.07H15.5s.23-.16.14-.16S15,.5,15,.56a.2.2,0,0,0-.12,0l0,0a.18.18,0,0,0-.15,0L13.19.9a.69.69,0,0,1,.37-.24,6.69,6.69,0,0,0-3,1c-.36.14-.72.28-1.08.44-.07,0,0,.14.05.12l.36-.13c-.23.11-.46.22-.65.32l.67-.33.62-.2-.44.23s0,.08,0,.06A15.76,15.76,0,0,1,13,1.28q-2.14,1-4.26,2c-.42.16-1.2.48-1.56.63-.13.09.24,0,.61-.17l0,0Q6.45,4.28,5.15,4.9a.17.17,0,0,0-.09.2l-.56.26a.84.84,0,0,1,0,.25l.78-.34h0l-.82.43a.85.85,0,0,1-.12.26L6.2,5h0c-.58.31-1.15.63-1.7,1a.21.21,0,0,0-.08.1l-.21.08-.27.35.32-.12L4,6.46l.53-.14a.22.22,0,0,0,.19,0L5,6.21a.21.21,0,0,0,.31.19l.38-.17-.31.16-.58.22a.21.21,0,0,0-.13.16l-1.54.78L3,7.68l.38-.13-.52.32-.06.08c.92-.46,1.91-.8,2.87-1.18l-1,.59c.4-.22,1.48-.72,2.7-1.28l3.54-1.35-.32.16h0l-5,2.21A15.9,15.9,0,0,0,1.25,9.73c-.14.13,0,.41.2.34a1.81,1.81,0,0,1-1,1s0,0,0,0C.85,11.79,2,11,3,10.42l.53-.24-.15,0a8.07,8.07,0,0,1,1.39-.59C8.3,8.12,11.46,7.13,15.06,5.9c-.38.15-.92.32-1.3.48.86-.27,1.45-.48,2-.67l-1.44.55.09,0c-.3.12,1.44-.38,2.07-.49a.59.59,0,0,0,.19.55,7.83,7.83,0,0,0-1.57.46c.66-.23-.25.19.21.06C12.75,8,9.74,8.38,7.41,10.12c.77-.57-2.92,1.32-3,1.37.56-.33,1.12-.65,1.69-.94C6,10.58,0,13.42,0,13.43c.12.31.21.55.27.73a.48.48,0,0,0,.08.22c.15.43.11.31.24.19l.11,0H1c-.14.06-.08.07.35,0A6.67,6.67,0,0,0,3,14.17H3l.08,0a1.1,1.1,0,0,1-.33.23s0,.07-.09.09c.39.6,1.76,0,2-.14a7.05,7.05,0,0,1-.86.12,34.85,34.85,0,0,0,3.4-1l-.06,0,.4-.13c-.42.19-.28.16-.17.16-.51.21-1.16.49-1.34.59H6a5,5,0,0,1,.55-.35,29.42,29.42,0,0,0-2.82,1.72c-.21.06-.53.15-.88.27l0,0-.24.09-.12,0s0-.06,0,0c-.86.34-1.72.87-1.35,1.63a.87.87,0,0,0,.78.45A.6.6,0,0,0,2,18.1c-.28.07-.43.11-.29.1l.32,0a.55.55,0,0,0,.61.27L3,18.36v0H3c-.6.36-.57.29-.19,1.22a1.3,1.3,0,0,0,1.15.7c-1.21-2.07-.24-.42,0,0a3.32,3.32,0,0,0,1.15-.1l-.26.13,1.4-.42c0-.07-.33-.07-1.53.26a23.59,23.59,0,0,1,2.45-.77,30.61,30.61,0,0,0,3.06-1.19,9.23,9.23,0,0,0-1.7.93c4.08-1.41,8.13-3,12.32-3.76A152,152,0,0,0,4,22.76l.33-.09c-.49.16-.53.34-.43.52a.56.56,0,0,0,.35.84,7,7,0,0,0,1.58.09.66.66,0,0,0,.15.19.59.59,0,0,0,.4.46.73.73,0,0,0,.41.41A1.39,1.39,0,0,0,8,25.08a.5.5,0,0,0,.22-.22q4.19-1.45,8.36-3c-.61.31-1.21.62-1.79.93a2.07,2.07,0,0,1,.53-.35c-1,.47-2.13,1-2.86,1.39s-3.46,1.76-3.83,2c-.5.06-1.24.59-1.85.63l.12.31a.53.53,0,0,0,.4,1,17.86,17.86,0,0,0,3.36-1.16.53.53,0,0,0,.2-.14c1.16-.34,2.25-.64,2.61-.74s5.78-1.82,4.49-1.42q5.55-1.53,3.44-1.24l.32-.08c.35-.11.7-.24,1-.37l.32-.15-.11.07c.5-.19,1-.37,1.51-.53l-.31.2A97.41,97.41,0,0,1,37.66,18s0,0-.08,0c2.25-.42,4.48-1,6.73-1.34a.77.77,0,0,1-.35.09h.15c-2.56,1-5.18,2-7.82,2.79-1,.37-2.73.94-3.92,1.27l1-.37c-2.73.86-5.33,1.61-8.36,2.84,2-.07-6.17,2.26-7.32,2.79-.38.11,0-.08,1.06-.54-.89.33-7.19,2.75-7.15,2.88q.19.73.4,1.46c.78-.55,2.64-.38,2-.06,1.37,1.2,6.92-1.21,8.7-1.86l-.28.11c.66-.2,1.33-.42,2-.64-3,1.35-8.58,2.54-10.78,4.52a6.56,6.56,0,0,0-1,.56.59.59,0,0,0-.21.26c-.11,0-.13,0,0,.18a.52.52,0,0,0,.24.53l.21.49a.65.65,0,0,1-.05-.43,15,15,0,0,0,1.76.28,4.4,4.4,0,0,0,.73.09,10,10,0,0,0,2.59.07.59.59,0,0,0,.51-.4c5.17-.9,13.85-6.16,19.35-6.67l-.48.2c-.25.07,0-.06.18-.14-4.07,1.72-9.84,2.77-13.47,5.57-.33.11.11-.11.09-.13-1.18.55-6.2,1.82-6.5,2.57-.27.14-.53.29-.79.46a.48.48,0,0,0-.16.17l-.07,0,0,.05-.18.11a.12.12,0,0,0,0,.07l-.5.39a.15.15,0,0,0,0,.24l0,0-.13.1a.17.17,0,0,0,0,.25h0l-.09.07a.83.83,0,0,0-.11.58.86.86,0,0,0,.16.28l.06,0a.2.2,0,0,0,.2.08h0a.54.54,0,0,0,0,.2l.06.06h0l.16.15.17.15.07.06h.12a.22.22,0,0,0,.13,0l.14,0,.32.06a.2.2,0,0,0,.24.19l.18,0,.17.07a.79.79,0,0,1,.48.16c1-.27,1.93-.55,2.89-.84a.51.51,0,0,0,.3-.76c3.52-1.39,8-3,8.36-3.08-2.28,1.11-3.74,1.58-4.22,2.76a34.06,34.06,0,0,0-5.68,3.11c.83.43,2.1.25,3.58-.19h0a.18.18,0,0,0-.06.06l-.09,0s0,.07,0,.06h0a.19.19,0,0,0,.24.21l.36-.12c-.21.11-.06.48.17.39l.05,0h0l.35-.15A.53.53,0,0,0,24,41a.23.23,0,0,0,.29.22l.17-.07a.23.23,0,0,0,.15.31l.28,0-.2.21c-.07.08,0,.18.11.11l.05,0-.24.3c-.11.14.07.31.21.28h.06l.08,0a1.73,1.73,0,0,0,0,.33l0,0a.2.2,0,0,0,.21.14.22.22,0,0,0,0,.35.23.23,0,0,0,.24.36l.55-.13h.06a.33.33,0,0,0,0,0,.22.22,0,0,0,0,.35l-.11.06a.23.23,0,0,0,.18.42l.12,0a.22.22,0,0,0,.16.07h.12a.23.23,0,0,0,.06.08c-.16.18.07.52.29.36l1.09-.83a.18.18,0,0,0,.06-.21l.08-.08a.2.2,0,0,0,.06-.15,1.15,1.15,0,0,0,.41-.52.19.19,0,0,0,0-.1l.37-.29a.17.17,0,0,0,.06-.2c.28-.25.55-.5.81-.76s.44-.39.5-.7a11,11,0,0,0,2.86-2.46.19.19,0,0,0,0-.15c1.67-1.61,2.07-2.73-2.2-1.82l-.23.17a4,4,0,0,1,1.55.09c.26,0,2.44-.29,1.73.32.56-.8-5.25.55-4.78.4a2.47,2.47,0,0,1,.29-.29.15.15,0,0,0,.12,0l.35-.1a.19.19,0,0,0,.22,0l.4-.19a.16.16,0,0,0,.06-.23l.06,0-.07,0h0l.26-.16h0l.1-.08-.06,0a.18.18,0,0,0,0-.13l.29-.12-.26.23c1.41-.57,6.87-2.8,6.62-3.36-.61-1.4,1.28-2.27,2.62-2.83l0,0a8.89,8.89,0,0,0,1.09-1c-.45-1.61-.68-1.26-2.7-1,.24-.14,1.95-1.3,3.27-2.3.52-.73,1-1.5,1.49-2.23a6.27,6.27,0,0,1,1.12-2.43A13.34,13.34,0,0,0,47,18.29l.14,0,0-.15.19-.36c2-2.72,2.39-4.47-7-1.65l.23-.12a16.77,16.77,0,0,1-2.9.79c2.94-1,13.16-4.45,13.19-8.2.19-.28.36-.56.53-.86a.39.39,0,0,0-.05-.48A.58.58,0,0,0,51.09,6.3ZM40.52,4.59a.62.62,0,0,1,.63-.18l-.76.26Zm-.63-1.37h0a.63.63,0,0,1,.2.08q.11-.06.23.08A9.57,9.57,0,0,1,39,3.77,1.62,1.62,0,0,0,39.89,3.22ZM18.78,1.83a6.31,6.31,0,0,1-.66.19.21.21,0,0,0,0-.1A4.89,4.89,0,0,1,18.78,1.83Zm-.9.72-.18.1a.23.23,0,0,0,0-.07ZM16.2,3.83l.42-.21-.38.18.12-.07.26-.11c-.24.14-.44.24-.55.29ZM15.52.69l-.07.08h0ZM14.39,4.35a.24.24,0,0,0-.12-.07l.14-.08,1.29-.57C15.28,3.89,14.84,4.13,14.39,4.35ZM15.84,2.9h.08l-.62.36-1.16.4ZM7,5.69a.2.2,0,0,0,0-.06l.79-.3Zm3.55-1.26c.61-.29,1.22-.59,1.81-.9-.54.3-.06.15.86-.16-.56.21-1.11.44-1.66.68ZM1.67,10h0l.09.29Zm15-3.67.09.06-1.16.37Zm6.67,20c-1.67.48-3.36,1-5,1.65h.08a16.15,16.15,0,0,1-4.54,1.39c-.19-.59,5.79-2.24,6-2.33.52-.11-.88.3-1.09.43L20.45,27c-2.79,1,6.91-2.46,7.58-2.7q1.53-.53,3.06-1l-.08.12.35-.11-.23,0c3.36-1.11,6.77-2.12,10.21-3-.47.23-.91.45-1.3.67-.2,0,0-.07.51-.36-4.07,1.72-8,2.92-12.23,4.36-2.4.59,3.27-1.09,1.74-.72C30.19,24.29,27.67,25,23.38,26.29ZM42.79,22.8c-1.13.84-4.3.49-5.65.82a13.07,13.07,0,0,1,4.56-.75ZM42,22c.41-.14.81-.49,1-.06ZM18.73,32.32q-1.19.31-2.4.51l-.11,0h-.7c1.21-1,12.34-4.21,12.9-4.41C25.15,29.6,21.9,30.88,18.73,32.32Zm1.71,3.09c.9-.56.89-.5.43-.18l-.49.22Zm-2.56,1.14c.29-.15.58-.3.86-.46a.49.49,0,0,0,.23-.35c.29-.18.58-.36.86-.52.26.78-.82,1.22-2,1.53A.67.67,0,0,0,17.88,36.55Zm.08,1.2a.62.62,0,0,0-.19-.18c2.77-1.19,8.07-3,11.9-4.3l-2.45.56c4.48-1.31,9.52-2.85,10.65-4.63-1.08,1.7-3.46,2.74-6.05,3.49C27.21,34.41,22.66,36.24,18,37.75Zm7.39.53-.09,0c-.65.24-1.29.47-2,.68a27.84,27.84,0,0,1,5.28-2.24Q26.95,37.48,25.34,38.28Zm1.25,2.77-.12.07.13-.12h0Zm.26-2.46h-.08a.2.2,0,0,0-.21,0l-.05,0-.5,0c1-.38,1.94-.74,2.92-1.06a2.3,2.3,0,0,1-.67.67.16.16,0,0,0-.12,0l-.27.16a.18.18,0,0,0-.28-.18Zm6.57-1.5c.09.11-.33.39-.47.58l-.16.15c-1.63,1.43-3.69,1.86-5.4,2.89a.21.21,0,0,0-.1-.08c.26-.33.88-.73,1.1-.46-.36-.74-.25-.48-1,0C28.14,37.79,31.16,37,33.42,37.1Zm2.94-4.49c-2.08,1.33-7.17,3.78-9.85,4.14a21.4,21.4,0,0,1,9.95-4.2Zm-.16-.73a1.05,1.05,0,0,1,1.11-.1A5.62,5.62,0,0,0,36.21,31.88Zm4.07-3.16c.32,0,1.48-.1.64.25a27.71,27.71,0,0,1-2.51,1.31c-.35.11.07-.06.26-.18l-1.27.53C38.82,29.28,38,28.68,40.28,28.72Zm.63-3.31c-1.79,1.07-2,.84-4,1.08,1.44-.45,2.72-1.24,4.25-1.26Zm-.57-1.09a3,3,0,0,1-1.29.38c-.18,0-.19,0-.13,0A100,100,0,0,0,27.3,27.9c1.59-.66,4-1.16,5.46-2.2.34-.07.15.05-.06.16a33.51,33.51,0,0,1,8.67-2.1Zm1.49.16a5.16,5.16,0,0,1,1.23-.77C42.73,24.23,42.27,24.58,41.83,24.47Zm2.54-4.34a28.77,28.77,0,0,1-3.74,1.32,33.61,33.61,0,0,1,4.25-1.87Zm2.28-3-.21.33a4.8,4.8,0,0,1-.64.56l-.08.06,0,0c-1.45,1-4.23.94-5.86,1.31,2.26-.76,4.65-1.39,6.83-2.36A.22.22,0,0,1,46.66,17.12Zm-.1-1.41h.86a3.54,3.54,0,0,1-2.84.15C45.2,15.81,45.86,15.79,46.55,15.71Zm-7-7.17c.32-.15,1.29-.5,2.49-.89l.24-.08,2.85-.81L44.63,7a2.27,2.27,0,0,1,2.08,0C46.6,7.22,39.11,8.62,39.5,8.54Zm6.15,1.05-1.06.22Q45.37,8.94,45.66,9.59Zm-3.51-.1.57-.1a6.65,6.65,0,0,1-3.71.77C40,9.93,41,9.69,42.15,9.49ZM36.89,5.68c.15.15,1.27-.3-1.49.57A15.26,15.26,0,0,1,36.89,5.68Zm-6.81-.51c-.56.37-.3,0-.84.27l.21-.13-.58.06c1.7-1.5,1.7-.71,3.71-1A10.47,10.47,0,0,1,30.07,5.17Zm2.24,2.11-.53.19Q32.26,7,32.31,7.28Zm-.91.21.26,0a1.49,1.49,0,0,1-.88.2,1.43,1.43,0,0,1,.45-.12l-.1.05C31.23,7.6,31.63,7.52,31.41,7.5ZM31,5.79c.27-.18.32-.65.65-.28A1.28,1.28,0,0,1,31,5.79Zm-4.11,7.84.37-.13c3.11-1.08,4.47-1.45,7-2.12-.39.12-.9.27-1.67.46a58.08,58.08,0,0,0,6.22-1.63c.23.82-1.11,1.19-2.07,1.43-3.31,1.28-6.89,1.11-10.46,2.33ZM22,7.37a1.12,1.12,0,0,1-1.08.24A1.6,1.6,0,0,1,22,7.37Zm-15.35,6-.38.13a12,12,0,0,1-2.87.8s.36-.11.13-.07c.12-.09,1.05-.57.4-.32l.32-.24a7.56,7.56,0,0,0-.67.47,1.29,1.29,0,0,1,.82-.58l-.15.11c.49-.32,3.17-1.1,0,.13,1.84-.7,3.71-1.37,5.5-2.18-3.16,1.4,3.24-1.21,6.43-2.25-.49.13-1,.25-1.43.39-1,.24,1.26-.53,1.92-.72l.13,0a5.89,5.89,0,0,0,1.42-.25c-.24.1-.5.18-.75.26l.15,0a65,65,0,0,0-6.17,2.51c2.88-1.26-2.14,1.09-2.54,1.23.46-.22.66-.3,1.1-.49l-.2.06c.59-.29,1.12-.56,1.56-.8C9.49,12.18,7.79,13.09,6.64,13.37ZM4.86,16.46c.52-.12.41-.08.05,0Zm.08,0a14.48,14.48,0,0,0,1.78-.39,5.7,5.7,0,0,1-1.49.62A.66.66,0,0,0,4.94,16.49ZM5.7,19l-.24.06c.46-.28.3-.15,1.25-.37L5.8,19Zm1.19-1.51a1.61,1.61,0,0,1,.37-.26c-1.1.58-1.53.7-1.9.91h0l.38-.25a2.93,2.93,0,0,1-.63.3,4.91,4.91,0,0,0,.67-.46l-.67.32a16.3,16.3,0,0,1,1.73-.83,1.61,1.61,0,0,1-.54.14A3.38,3.38,0,0,1,7.25,17l-.4.21a13.84,13.84,0,0,1,1.62-.67c-2.07,1.19.91-.34,1.61-.57l-.56.24c.07.07.69-.21.52,0C8.93,16.77,8,16.93,6.89,17.51ZM12.28,16q-1.74.68-3.53,1.23a32.27,32.27,0,0,1,4.68-2C13,15.5,12.64,15.76,12.28,16Zm3-3.48c1-.45-2.6,1.07-3.63,1.46.42-.23.85-.45,1.28-.66a6.26,6.26,0,0,1-1.08.4,36,36,0,0,1,7.56-3,35.16,35.16,0,0,1-3.24,1.5A5,5,0,0,1,15.28,12.53Zm4.41-.76-1.11.35c.38-.17.82-.34,1.26-.51a.52.52,0,0,0,0,.06Zm.18-.07h0l-.07,0Zm0,2.69-.49.19s0,0,0,0c-.59.21-1.21.36-1.84.52,1-.38,1.71-.71,2.84-1.1ZM19.1,9.87a8.38,8.38,0,0,1,4.83-1,16.71,16.71,0,0,1-2.15,1.45,1.1,1.1,0,0,0,0-.91C21.73,9.29,17.65,10.22,19.1,9.87Zm-5,10.41c1-.35,1.89-.8-.25.09,5.54-2.3,11.1-5.32,17-6.63-4.08,1.53-8.21,3.51-12.59,5.11.44-.21.54-.29,1.12-.54C17.61,19,15.93,19.65,14.11,20.28Zm24.12-4.93a53.26,53.26,0,0,1-7.8,2.8c.15-.08.64-.25,1-.38-5.6,1.76-11.2,4.77-16.87,6.08C22.7,20,31,15.88,40,14.7,38.89,14.93,39.41,14.92,38.24,15.35Zm-3.43-1.67C37.6,12,42.16,11.26,45.35,10.6c-2,.6-4,1.31-6,1.8l.75-.12C38.35,12.71,36.58,13.18,34.81,13.68Zm10.9-.47a1.36,1.36,0,0,0-1,.07c.31,0,.63,0,.95-.05a5.5,5.5,0,0,1-1.5.53c-1.47.39.49-.22,1-.48-.92.23-4.33,2-4.68.9A12.8,12.8,0,0,1,44,13.39l-.67,0a14.16,14.16,0,0,1,2.53-.23Zm0-3.88A7.85,7.85,0,0,1,48.84,9a.59.59,0,0,0,.4,0L49.1,9C49.61,8.93,46.09,9.83,45.75,9.33Z"/><path class="cls-1" d="M69,8.91V21H66.61V15.72H61.82V21H59.42V8.91h2.41v4.9h4.79V8.91Z"/><path class="cls-1" d="M79.71,18.14H75.12l-1,2.85H71.46L75.9,8.91h3L83.37,21H80.74ZM78.91,16l-.54-1.5-.49-1.35-.45-1.23-.76,2-.28.75-.24.66-.22.63Z"/><path class="cls-1" d="M95.6,21H92.42L88,11.92V21h-2.3V8.91h3.18L93.3,18V8.91h2.3Z"/><path class="cls-1" d="M99.15,21V8.91h4.48a6.06,6.06,0,0,1,2.4.46,5.29,5.29,0,0,1,1.83,1.27A5.64,5.64,0,0,1,109,12.56a7.32,7.32,0,0,1,0,4.81,5.56,5.56,0,0,1-1.16,1.91A5.35,5.35,0,0,1,106,20.54a6.06,6.06,0,0,1-2.4.46Zm2.46-1.92h1.83a3.13,3.13,0,0,0,1.45-.33,3.27,3.27,0,0,0,1.08-.88,3.82,3.82,0,0,0,.67-1.31,5.55,5.55,0,0,0,.22-1.6,5.66,5.66,0,0,0-.22-1.61A3.83,3.83,0,0,0,106,12a3.27,3.27,0,0,0-1.08-.88,3.15,3.15,0,0,0-1.45-.33h-1.83Z"/><path class="cls-1" d="M126,8.91V21h-2.3V11.22L120.36,21h-2.18l-3.37-9.77V21h-2.3V8.91h3.67l3.1,9.08,3.1-9.08Z"/><path class="cls-1" d="M136.71,18.14h-4.58l-1,2.85h-2.63L132.9,8.91h3L140.37,21h-2.63Zm-.8-2.18-.54-1.5-.49-1.35-.45-1.23-.76,2-.28.75-.24.66-.22.63Z"/><path class="cls-1" d="M142.8,21V8.91h4.48a6.06,6.06,0,0,1,2.4.46,5.29,5.29,0,0,1,1.83,1.27,5.64,5.64,0,0,1,1.16,1.92,7.32,7.32,0,0,1,0,4.81,5.56,5.56,0,0,1-1.16,1.91,5.35,5.35,0,0,1-1.83,1.26,6.06,6.06,0,0,1-2.4.46Zm2.46-1.92h1.83a3.13,3.13,0,0,0,1.45-.33,3.27,3.27,0,0,0,1.08-.88,3.82,3.82,0,0,0,.67-1.31,5.55,5.55,0,0,0,.22-1.6,5.65,5.65,0,0,0-.22-1.61,3.83,3.83,0,0,0-.67-1.31,3.27,3.27,0,0,0-1.08-.88,3.15,3.15,0,0,0-1.45-.33h-1.83Z"/><path class="cls-1" d="M158.57,19.08h4.7V21h-7.13V8.91h7.13l-.4,1.92h-4.31v3h4.31v1.92h-4.31Z"/><path class="cls-1" d="M76.59,29.67,73.72,41.76H70.56L68.08,32.1l-2.47,9.65H62.44L59.57,29.67H62l2,9.5,2.63-9.5h3l2.63,9.5,2-9.5Z"/><path class="cls-1" d="M81.92,29.67V41.76h-2.4V29.67Z"/><path class="cls-1" d="M94.15,29.67v1.89H90.69V41.76H88.29V31.55H84.81V29.67Z"/><path class="cls-1" d="M106.87,29.67V41.76h-2.42V36.48H99.65v5.28H97.25V29.67h2.41v4.9h4.79v-4.9Z"/><path class="cls-1" d="M124.84,41.76h-7.25V29.67H120V39.84h4.84Z"/><path class="cls-1" d="M133.26,29.48a7.85,7.85,0,0,1,2,.27,5.06,5.06,0,0,1,1.91,1,5.34,5.34,0,0,1,1.45,1.92,7.24,7.24,0,0,1,.58,3.1,7.23,7.23,0,0,1-.58,3.11,5.19,5.19,0,0,1-1.45,1.89,5.06,5.06,0,0,1-1.91.94,7.51,7.51,0,0,1-3.91,0,5,5,0,0,1-3.38-2.84,7.23,7.23,0,0,1-.58-3.11,7.24,7.24,0,0,1,.58-3.1,5.3,5.3,0,0,1,1.46-1.92,5.15,5.15,0,0,1,1.92-1A7.86,7.86,0,0,1,133.26,29.48Zm0,10.59a3.45,3.45,0,0,0,1.35-.26,2.8,2.8,0,0,0,1.07-.79,3.74,3.74,0,0,0,.7-1.35,6.72,6.72,0,0,0,.25-1.95,6.58,6.58,0,0,0-.25-1.91,3.85,3.85,0,0,0-.7-1.36,2.86,2.86,0,0,0-1.07-.8,3.52,3.52,0,0,0-2.7,0,2.89,2.89,0,0,0-1.08.81,3.82,3.82,0,0,0-.71,1.36,7.55,7.55,0,0,0,0,3.86,3.64,3.64,0,0,0,.71,1.34,2.88,2.88,0,0,0,1.08.79A3.46,3.46,0,0,0,133.26,40.06Z"/><path class="cls-1" d="M152.93,29.67l-4.07,12.09h-3l-4.15-12.09h2.44l3.22,9.5,3.13-9.5Z"/><path class="cls-1" d="M158.49,39.84h4.7v1.92h-7.13V29.67h7.13l-.4,1.92h-4.31v3h4.31v1.92h-4.31Z"/></g></g></svg>