<svg xmlns="http://www.w3.org/2000/svg" viewBox="0 0 124.84 85.03"><defs><style>.cls-1{fill:#1a1a18;}</style></defs><title>6</title><g id="Capa_2" data-name="Capa 2"><g id="Ebene_1" data-name="Ebene 1"><path class="cls-1" d="M29,15.88h.75S27.64,23,25,17.75a10.39,10.39,0,0,1-1.1,4.38c-.59,1.48-2.1,4.43-4.13,4-.78-.18-1.21-1.19-1.37-1.92-.21-1.37.3-5,1.48-9.11a4.61,4.61,0,0,1-6.32-.32C10.68,15.42-1,15.24.7,21.38c.37,1,1.42,2.35,2.72,1.83.57-.23,1.28-.94.75-1.58a.68.68,0,0,0-.82-.27s0,0,0,0a.75.75,0,0,1-1-.09.7.7,0,0,1,.14-1c.46-.37,1.12,0,1.53.23a3.59,3.59,0,0,1,.75.68c.78,1,0,2.1-.94,2.56C2.23,24.6.47,23,.15,21.56c-1.58-7.1,9.93-6.69,13.13-7.29a2,2,0,0,1,.43-2.33,1.2,1.2,0,0,1,2,.43,1.88,1.88,0,0,1-.94,1.9,4,4,0,0,1-.62.3c1.8,1.71,4.52,1,6.14-.73,1.53-4.77,4-9.91,7.49-12.63,1-.68,2.86-1.3,3.27.41.94,1.71-5.55,10.69-8,13.45a5.41,5.41,0,0,1,2.56,2.51,6,6,0,0,0,.57.82C27,19.33,27.76,19.19,29,15.88ZM13.8,14.12a2.88,2.88,0,0,0,.66-.27c1.16-.82.68-2.33-.41-1.46A1.44,1.44,0,0,0,13.8,14.12Zm8.56,1.71c-.75,2.15-2,5.3-1.94,7.88,0,0,.11,1.14.84.57S25.57,17.25,22.37,15.83Zm.71-2.17A51.79,51.79,0,0,0,29.75,3.2,2.73,2.73,0,0,0,30,2.06c0-.34-.36-.59-.8-.32C27,2.91,25.11,8,24.17,10.42Z"/><path class="cls-1" d="M44.07,16.4c-1.71,3.86-4.75,10.25-8.15,9.71a2.64,2.64,0,0,1-1.19-.43c-1.53-1.12-1.05-3.93-.85-4.86a12.28,12.28,0,0,1-2.26,2.56c-1.23,1-3.61,1.26-4.13-.41-1.1-3.56,3.45-13.06,7-10.18.41.34.3,1.07-.41.68a.61.61,0,0,0-.78-.07c-1.53.82-4.41,6.26-4.48,8.75-.07,1.62,1.05,1.28,1.42,1.12,2.26-1.07,4.2-5,4.68-6l.25-.84,1.42-4.11a1.43,1.43,0,0,1,1.55-.62A1,1,0,0,1,38.88,13c-1.35,4.16-2.08,6.35-2.49,7.77-.14.5-.68,2.58.23,3.54a1.58,1.58,0,0,0,1.8,0c1.19-.78,2.4-2.76,3.34-4.54.59-1.07,1.07-2.19,1.6-3.4Z"/><path class="cls-1" d="M57.09,16.4C55,21.13,52.79,23,52.79,23a3.58,3.58,0,0,1-2.85.78c-1.49,2.86-6.28,3.65-7.42.64,0,0,0,0,0,0a4.14,4.14,0,0,1,.23-3.08,4,4,0,0,1,2.17-2.19c1.6-.43,2.65.91,3.34,2.26.14-3.68-3.49-8.11-.82-11.51A5.26,5.26,0,0,0,45.09,13a22.64,22.64,0,0,1-1.8,5l-.57-.23a18.16,18.16,0,0,0,1.62-4.5c.39-1.78,1.51-3.79,3.18-4.25a3.16,3.16,0,0,1,3,.57c1.26,1.3.87,3.2.55,3.29s-.23-.21-.23-.21a4.25,4.25,0,0,0,.07-1.28c-.43-2.51-3.65-1.26-2.06,1.64,1.32,2.74,2.83,6.9,1.42,10,.64.14,2.4.18,4.66-3.77a25.75,25.75,0,0,0,1.42-2.92ZM48,22.61c-.69-.75-1-2.74-2.31-2.74-1.07,0-1.6,1.26-1.83,2.12-.18,1.14.21,2.35,1.69,2.22A2.92,2.92,0,0,0,48,22.61Z"/><path class="cls-1" d="M69.51,16.4c-1.35,3-4.48,8.91-8.11,9.75-1.14.27-.94-1.32-.94-1.32,2.6-8,2.83-8.72,2.83-8.82s-.25-.11-.46,0c-2,1.39-4.75,6.76-4.75,6.76a6.21,6.21,0,0,1-1.62,2.49c-.71.48-1.37-.09-1.37-1.14,0-6.28,3.15-16,7.26-21.13.91-1.14,3.06-3.59,4.82-2.9a1.6,1.6,0,0,1,.78,1c.41,1.62-2.26,5.66-8.43,13.41-.73,2.26-1,3.36-1.37,4.48,0,0-.27,1.19.34.39,1.28-1.83,3.45-5,5.78-4.5.59.18,1.23,1.07,0,4.75-1.46,4.48-1.48,4.8-1.23,4.64,2.49-1.55,4.57-5.44,5.73-7.93Zm-9.25-4a49.76,49.76,0,0,0,6.39-9.59C67.77.26,65.6.74,64.42,3A52.58,52.58,0,0,0,60.26,12.38Z"/><path class="cls-1" d="M76.45,16.56c-1.39,3.2-4.89,11.24-8.08,9.29a3,3,0,0,1-.89-2.33,20.27,20.27,0,0,1,.84-5.94c.73-2.15.57-2.08,1.35-4.32a1.4,1.4,0,0,1,1.87-.8c.68.21.59,1,.43,1.64-1.14,4.16-1.76,5-2.4,9.23,0,0-.27,1.78.75,1.62,1.73-.59,4.75-6.56,5.57-8.77Zm-6-6.42a2.11,2.11,0,0,1,1.92-1.41,1,1,0,0,1,.94,1.41,2.11,2.11,0,0,1-1.9,1.44A1,1,0,0,1,70.47,10.14Z"/><path class="cls-1" d="M89.27,16.4s-2.1,5.14-4.64,6.78a2.33,2.33,0,0,1-2.81,0c-1.46,2.08-3.27,3-4.84,2.95-4.66-.43-2.83-6.83-2.83-6.85a12.16,12.16,0,0,1,4.34-6.24c.37-.18,1.48-.21,1.53.41-.16.46-6.4,7.74-2.86,11.17,0,0,1.32,1,4-2.12a7.56,7.56,0,0,1-.78-7c.75-2.21,3.29-4.36,4.34-.84.41,2.58-.8,5.32-2.42,7.88a1.17,1.17,0,0,1,.18.14c.66.39,3,1.1,6.07-6.28Zm-5.8.91c.23-1.35.68-3.27-.75-3.47a1.38,1.38,0,0,0-.87.55,6.69,6.69,0,0,0-.23,7.45C82.41,20.93,83.1,18.48,83.46,17.32Z"/><path class="cls-1" d="M124.71,10.4c-.73,2.6-3.49,3.72-6,4s-4.93.32-7.47.64a2,2,0,0,1-.59,2.28c-.62.46-1.78.39-1.92-.55a2,2,0,0,1,1.67-2.08c-2.15-2.42-6.05-.82-7.22,2-1.74,3.88-4.68,9.87-8,9.34a2.69,2.69,0,0,1-2-1.33c-.91-1.87.32-5.62.46-6v0l2.58-7.49c.11-.41,0-.48-.16-.48s-.41.21-.57.34-.43.59-1.3,2c-2.26,3.68-3.84,6.17-4.91,7.61a1.22,1.22,0,0,1-1.32.62,1.62,1.62,0,0,1-.64-1.1,4.23,4.23,0,0,1,.11-1.46s1-3.11,1.83-5.46a.69.69,0,0,1,.34-.39c.16-.09.37-.14,1.8-.11.43,0,.14.91.09,1.1l-1.16,3.31c0,.11,0,.18.07.11s0-.11,4.7-7.13c.87-1.3,2.7-1.87,3.56-.59a2.39,2.39,0,0,1,0,1.69c-1.69,5.25-2.53,7.83-3,9.43-.14.5-.68,2.58.23,3.54,2.31,1,4-2.26,5.14-4.5.59-1.07,1.07-2.19,1.6-3.4,1.3-3,6.07-5,8.36-1.8,2.49-.43,5-.37,7.65-.68,2.22-.3,4.82-1.21,5.55-3.7.39-1.35-.68-4.09-2.58-3.45-.57.18-1.3.87-.82,1.53a.64.64,0,0,0,.8.3h0a.71.71,0,0,1,1,.16.73.73,0,0,1-.18,1c-.48.32-1.12-.07-1.51-.34a3.06,3.06,0,0,1-.73-.71c-.71-1,.09-2.12,1.1-2.51C123.55,5.19,125.33,8.36,124.71,10.4Zm-14,4.8a1.77,1.77,0,0,0-1.42,1.17c-.14.64.48,1,1,.57C110.71,16.63,111,15.58,110.67,15.19Z"/><path class="cls-1" d="M36.25,54.37v5a.5.5,0,0,1-.53.53H18.64a.5.5,0,0,1-.53-.53.54.54,0,0,1,.53-.53h1.6V34.32H18.87a.53.53,0,0,1,0-1.07h9.22a.53.53,0,0,1,0,1.07H26.18V58.87H35.1v-4.5a.58.58,0,0,1,1.14,0Z"/><path class="cls-1" d="M49.28,59.4a.5.5,0,0,1-.53.53H38.46a.5.5,0,0,1-.53-.53.52.52,0,0,1,.53-.53h2.06V34.32H38.76a.54.54,0,1,1,0-1.07h9.6a.53.53,0,1,1,0,1.07h-1.9V58.87h2.29A.52.52,0,0,1,49.28,59.4Z"/><path class="cls-1" d="M78.21,33.75a.56.56,0,0,1-.57.57H75.5L65.44,60.16a.49.49,0,0,1-.5.34.57.57,0,0,1-.53-.34L53.66,34.36H52.14a.54.54,0,0,1-.57-.57c0-.31.23-.5.57-.5h9.72a.51.51,0,0,1,.53.5.55.55,0,0,1-.53.57H60.29l7.24,17.3,6.78-17.34H71.73a.58.58,0,0,1-.53-.57.51.51,0,0,1,.53-.5h5.91A.5.5,0,0,1,78.21,33.75Z"/><path class="cls-1" d="M98.79,54.48V59.4a.55.55,0,0,1-.57.53H80.95a.52.52,0,0,1-.53-.53.5.5,0,0,1,.53-.53h1.79V34.32h-1.6a.5.5,0,0,1-.53-.53.52.52,0,0,1,.53-.53H97.95a.53.53,0,0,1,.57.53v4.35a.57.57,0,0,1-1.14,0V34.32H88.69V45.53h7.59v-2.1a.53.53,0,0,1,.57-.53.55.55,0,0,1,.57.53v5.11a.52.52,0,0,1-.53.53.54.54,0,0,1-.61-.53V46.59H88.69V58.87h9V54.48a.57.57,0,1,1,1.14,0Z"/><path class="cls-1" d="M17.83,83.48V81.74H18a8.53,8.53,0,0,0,4.89,1.92c2.06,0,3.46-1.09,3.46-2.94,0-1.65-1.1-2.54-3.39-3.51s-4.77-1.69-4.77-4.64c0-2.45,1.79-4.31,4.86-4.31a8.34,8.34,0,0,1,4.22,1.15l-.47,1.53h-.06a7.75,7.75,0,0,0-4-1.3,2.64,2.64,0,0,0-3,2.74c0,1.52,1,2.1,3.39,3.21S28,77.64,28,80.48C28,83,26,85,22.62,85A7.82,7.82,0,0,1,17.83,83.48Z"/><path class="cls-1" d="M46.28,70H41.51V84.72H39.94V70H35.06V68.57H46.42Z"/><path class="cls-1" d="M59.39,78.62v6.1H57.82V78.6l-5.24-10h1.76l3.73,7.28.61,1.33.61-1.33L63,68.57h1.75Z"/><path class="cls-1" d="M81.94,83.29v1.43h-8.6V68.57h1.57V83.29Z"/><path class="cls-1" d="M99,83.31v1.41H90.26V68.57h8.6V70h-7v5.65h6L97.69,77H91.83v6.34Z"/></g></g></svg>