<svg xmlns="http://www.w3.org/2000/svg" viewBox="0 0 72.83 101.87"><defs><style>.cls-1{fill:#1a1a18;}</style></defs><title>7</title><g id="Capa_2" data-name="Capa 2"><g id="Ebene_1" data-name="Ebene 1"><path class="cls-1" d="M12.35,12.35a4.64,4.64,0,0,1-.62,2.47,4.86,4.86,0,0,1-1.62,1.63,7.28,7.28,0,0,1-2.32.89,12.83,12.83,0,0,1-2.67.28H0V0H5.47A11.37,11.37,0,0,1,7.9.25a5.75,5.75,0,0,1,2,.83,4.27,4.27,0,0,1,1.37,1.54A5.08,5.08,0,0,1,11.82,5V5a3.06,3.06,0,0,1-.55,1.94A3.93,3.93,0,0,1,10.05,8a4.9,4.9,0,0,1-1.74.55,5.78,5.78,0,0,1,2,.58,4.42,4.42,0,0,1,1.39,1.12,3.08,3.08,0,0,1,.63,2.05ZM3.55,7.13H5.8A3.75,3.75,0,0,0,6.7,7a2.25,2.25,0,0,0,.81-.38A2,2,0,0,0,8.08,6a2.15,2.15,0,0,0,.21-1,2.21,2.21,0,0,0-.21-1,1.85,1.85,0,0,0-.57-.67,2.35,2.35,0,0,0-.84-.37,4.57,4.57,0,0,0-1-.11H3.55Zm2.39,7.68A4.07,4.07,0,0,0,7,14.68a2.68,2.68,0,0,0,.92-.44,2.07,2.07,0,0,0,.63-.78,2.69,2.69,0,0,0,.23-1.16,2.65,2.65,0,0,0-.24-1.17,2.11,2.11,0,0,0-.66-.79,2.78,2.78,0,0,0-1-.44,4.79,4.79,0,0,0-1.16-.14H3.55v5.06Z"/><path class="cls-1" d="M26,17.61H15.4V0h3.5V14.82H26Z"/><path class="cls-1" d="M38.4,13.46H31.72l-1.51,4.16H26.38L32.86,0h4.41l6.48,17.61H39.91Zm-1.16-3.18-.79-2.19-.72-2-.66-1.79L34,7.31l-.4,1.1-.35,1-.33.92Z"/><path class="cls-1" d="M60.15,17.61H56.22L51.1,10.2H49.36v7.41H46V0h3.35V7.41h1.76L56,0h4L53.87,8.84Z"/><path class="cls-1" d="M66,14.82h6.85v2.8H62.44V0H72.82l-.58,2.8H66V7.11h6.27V9.9H66Z"/><path class="cls-1" d="M28.7,48.45c-1.06.66-.78,3.88-.38,4.75C28.41,52.95,29.85,47.75,28.7,48.45Z"/><path class="cls-1" d="M20.29,46.73c.15-.64-.51-.87-1-.47A1.34,1.34,0,0,0,19,47.86v0A1.55,1.55,0,0,0,20.29,46.73Z"/><path class="cls-1" d="M33.81,35.16c-3,1.53-4.71,8.71-5.6,10.52,1.68-2.16,5.72-7,6.32-10A.47.47,0,0,0,33.81,35.16Z"/><path class="cls-1" d="M28.32,66.26a.3.3,0,0,0,.42,0,6.89,6.89,0,0,0,1-2l1.42-4.45.13-.38C29.65,61.53,27.81,64.73,28.32,66.26Z"/><path class="cls-1" d="M.07,28.66V73.29H72.83V28.66ZM66.5,44.42c-.74,2.42-3.22,3.48-5.62,3.77s-4.64.21-6.93.57a2,2,0,0,1-.53,2.14,1.53,1.53,0,0,1-1,.25.94.94,0,0,1-.78-.78c-.17-1,.68-1.63,1.55-1.93-2.06-2.29-5.26-.81-6.59,1.63L44,55.79c-.15.28-.34.53-.51.78l-.34.4a3.51,3.51,0,0,1-1,.68s0,0,0,0a3.18,3.18,0,0,1-2.33-.4l-.11.17-.23.25a3.35,3.35,0,0,1-.49.47l-.13.13-.28.19a3.44,3.44,0,0,1-.85.4c-1.25.42-2.63.25-2.95-1.31,0-2,2.23-3.94,4-2.06l.06,0c.81-1.68,2.12-4.43,2.08-5.68a1,1,0,0,0-.53-.8c-1-.49-2.48.68-3.41,1.65a11.22,11.22,0,0,0-.85,1,10.71,10.71,0,0,0-1,1.74l-.93,2.9h0l-2.1,6.47c-.11.32-.25.7-.42,1.12-1.53,4.54-3.48,3.88-3.48,3.88a1.46,1.46,0,0,1-.59-.47c-.72-1,0-3,0-3.09v0a21.19,21.19,0,0,1,1.78-3.54A12,12,0,0,1,31.77,58l.13-.4,1.31-4,.11-.33a7.73,7.73,0,0,1-1,1.07,5.15,5.15,0,0,1-.59.42,3,3,0,0,1-2.69.13c-.72,1.63-2.67,5.36-5,3.6-1.55-1.65-.36-5.89.17-8,.11-.47.25-1,.4-1.55a4.28,4.28,0,0,1-5.77-.36c-2.33.47-4.62.59-7.06,1-2.27.42-5.72,2.12-4.88,5.11.34.93,1.31,2.18,2.52,1.7.53-.21,1.19-.87.7-1.46a.63.63,0,0,0-.76-.25s0,0,0,0a.7.7,0,0,1-1-.08.65.65,0,0,1,.13-.93c.42-.34,1,0,1.42.21a3.34,3.34,0,0,1,.7.64c.72.89,0,1.95-.87,2.37-1.4.79-2.92-.68-3.33-2-1-3.24,2.71-5.26,5.3-5.77,2.27-.42,4.56-.62,6.89-1a1.89,1.89,0,0,1,.4-2.16,1.11,1.11,0,0,1,1.82.4c.19,1-.59,1.68-1.44,2,1.63,1.53,4,1,5.56-.53,1.27-4.28,3.67-10.43,7.46-13.08,1-.68,2.74-1.34,3.14.38.51,2.59-6.11,10.69-7.87,12.38a56.64,56.64,0,0,0-2.27,8.06c0,.3-.32,2.06.45,1.91.93-.34,1.78-2.52,2.23-3.44a3.9,3.9,0,0,1-.74-1.86,8.77,8.77,0,0,1,.17-3c.3-.93.79-2.27,1.93-2.27,2.44.34,0,6.89,0,6.89l-.19.53a2.39,2.39,0,0,0,2.5-.19,9,9,0,0,0,2.48-3.57l.73-2.28A1.91,1.91,0,0,1,35.72,47c1.34-.66,1.21.51,1.17,1L36,50.7l.7-.59c.3-.23.64-.47,1-.72h0a7.87,7.87,0,0,1,2.25-1c3-.49,2.84,2.5,1.8,5.26a15.49,15.49,0,0,1-1.17,2.46c-.06.11-.15.21-.21.32a.7.7,0,0,1-.13.17,2.73,2.73,0,0,0,1.63.38,2.16,2.16,0,0,0,1-.64,8.68,8.68,0,0,0,1.21-2l1.87-4.26L46,50c1.19-2.93,5.53-4.56,7.76-1.68,2.31-.4,4.64-.32,7.08-.64,2-.23,4.52-1.14,5.15-3.41.38-1.23-.64-3.82-2.37-3.22-.53.19-1.23.81-.79,1.42a.64.64,0,0,0,.74.3.07.07,0,0,1,0,0,.71.71,0,0,1,1,.15.66.66,0,0,1-.19.93c-.44.3-1-.06-1.4-.32a2.76,2.76,0,0,1-.66-.66c-.66-1,.08-1.95,1-2.33C65.4,39.7,67.1,42.49,66.5,44.42Z"/><path class="cls-1" d="M52.23,50.55c.23.23.66.11.89,0a1.41,1.41,0,0,0,.32-1.63C52.93,49,51.6,49.91,52.23,50.55Z"/><path class="cls-1" d="M38.11,56a1.84,1.84,0,0,0-1.17-.51,1.72,1.72,0,0,0-1.31,1.55c0,.61.42,1.21,1.53.53a3.85,3.85,0,0,0,1.21-1.27l-.06-.06Z"/><path class="cls-1" d="M3.5,84.47A12.49,12.49,0,0,1,6,84.71a5.8,5.8,0,0,1,2,.81A4.14,4.14,0,0,1,9.39,87a5,5,0,0,1,.51,2.39,4.88,4.88,0,0,1-.51,2.34A4.21,4.21,0,0,1,8,93.27a5.7,5.7,0,0,1-1.93.82,10,10,0,0,1-2.23.25h-2v7.53H.11V84.47Zm.32,8.37a8.51,8.51,0,0,0,1.61-.15,3.82,3.82,0,0,0,1.38-.54,2.93,2.93,0,0,0,1-1,3.44,3.44,0,0,0,.37-1.71,3.68,3.68,0,0,0-.36-1.74,2.67,2.67,0,0,0-1-1,4.12,4.12,0,0,0-1.46-.51A11,11,0,0,0,3.6,86H1.83v6.88Z"/><path class="cls-1" d="M12.54,101.87V84.45h1.72v15.92h7.13v1.5Z"/><path class="cls-1" d="M25.62,100.37h7.23v1.5H23.9V84.47h8.82c0,.3-.09.56-.11.79s-.06.46-.09.71h-6.9v6.18h6.53v1.49H25.62Z"/><path class="cls-1" d="M39.13,84.45l6.43,15.22,6.23-15.22h2.64v17.42h-1.7V86.19l-1,2.47-1,2.52L49.55,94l-3.19,7.82H44.91l-6.7-15.67v15.67H36.49V84.45Z"/><path class="cls-1" d="M69.08,97.13h-8.5l-1.94,4.73H56.9L64,84.47h2l6.75,17.39H71Zm-.6-1.5-3.64-9.57h0l-3.64,9.57Z"/></g></g></svg>