<svg xmlns="http://www.w3.org/2000/svg" viewBox="0 0 162.99 46.89"><defs><style>.cls-1{fill:#1a1a18;}</style></defs><title>Recurso 8</title><g id="Capa_2" data-name="Capa 2"><g id="Ebene_1" data-name="Ebene 1"><path class="cls-1" d="M58,28.14a2.16,2.16,0,0,0,.66-.32c2-.84,3.85-3.15,3.1-5.4a.21.21,0,0,0-.27-.13,3.92,3.92,0,0,0-2.44,1.86c-.58,1-.39,2.55-1,3.51A13.21,13.21,0,0,0,58,25.45a.15.15,0,0,0,0-.11,28.38,28.38,0,0,0-.34-3.17l.08-.05a.09.09,0,0,0,.06,0l.07-.08a3.83,3.83,0,0,0,.67-.7l0,0C60.21,20,63.26,17,61.46,14.82a.26.26,0,0,0-.35-.07,4.75,4.75,0,0,0-2.4,2.73,9,9,0,0,0-.47,2.13c0,.25,0,.51-.07.76a3.05,3.05,0,0,1-.54,1.45,33.43,33.43,0,0,0-1.19-4.69.22.22,0,0,0,.06-.09c.62-1.87,2.45-3,3.13-4.8.49-1.32.49-3.3-.79-4.15a.24.24,0,0,0-.33.06,10.76,10.76,0,0,0-1.59,3.39c-.39,1.56-.38,3.15-.76,4.72a30.77,30.77,0,0,0-1.85-4.37,12,12,0,0,0-.52-1.38,1.44,1.44,0,0,0,.17-.31,2.75,2.75,0,0,0,.53-.82c1.68-2.26,2.15-6-.15-8a.27.27,0,0,0-.38,0,5,5,0,0,0-1.45,3.64c.05,1.58,1.35,3.16,1.18,4.68l0,.07a.12.12,0,0,0,0,.12c0,.06,0,.13,0,.19A14.27,14.27,0,0,0,50.69,6.2a2.78,2.78,0,0,0-.06-.4c0-2.55-1.7-5.49-4.43-5.66a.25.25,0,0,0-.25.23,4.53,4.53,0,0,0,.93,3.42,12.64,12.64,0,0,0,2.51,1.83.25.25,0,0,0,0,.08A30.32,30.32,0,0,1,56,17.25c.36,1.63.64,3.27,1,4.92a.12.12,0,0,0,.09.09,30.27,30.27,0,0,1-7.58,24.12.25.25,0,0,0,.33.38h.07l.05,0H50a3.12,3.12,0,0,0,.78,0h0c1.68.06,5.1,0,5.24-2.32a.21.21,0,0,0-.17-.23,3.85,3.85,0,0,0-2.93.32,7.31,7.31,0,0,0-1.45,1c-.15.13-.3.29-.46.42a2.47,2.47,0,0,1-1,.55A31,31,0,0,0,52,44h0a5,5,0,0,0,.78-1,.13.13,0,0,0,.14,0c.28-.41.53-.84.77-1.27l.14,0a2.15,2.15,0,0,0,.75-.14c2.19-.28,4.54-2,4.4-4.4a.21.21,0,0,0-.22-.19A3.92,3.92,0,0,0,56,38c-.86.89-1,2.47-2,3.21h0a43.07,43.07,0,0,0,2-4.57s0-.05,0-.06q.29-.79.53-1.59c1-1.14,2.6-1.41,3.6-2.52.72-.8,1.3-2.21.63-3.19a.18.18,0,0,0-.25-.06,8.28,8.28,0,0,0-2.1,2c-.59.81-1,1.71-1.53,2.56.16-.63.31-1.26.43-1.9A14.23,14.23,0,0,0,58,28.14Zm2.65-2.42h0c-.29.1-.58.22-.87.34.23-.35.45-.72.65-1.09a1.91,1.91,0,0,0,.81-.23A4,4,0,0,1,60.69,25.72Zm.62-1.07a.07.07,0,0,0-.08,0,4.85,4.85,0,0,0-.71.26c.18-.33.35-.67.53-1a2.38,2.38,0,0,0,.48-.22A3.34,3.34,0,0,1,61.31,24.64Zm.22-1.2a1.07,1.07,0,0,0-.33.13l.3-.57A3,3,0,0,1,61.53,23.45Zm-.27-.63a8.07,8.07,0,0,0-.91,1.56c0-.32-.08-.64-.13-1A3.33,3.33,0,0,1,61.26,22.82Zm-1.18.72a4.22,4.22,0,0,0,.06,1.24l0,.05c-.11.2-.24.4-.37.6a5.92,5.92,0,0,0-.18-1.25A3.32,3.32,0,0,1,60.08,23.54Zm-1.28,2.88a6.79,6.79,0,0,1,.64-2,6.05,6.05,0,0,0,.08,1.14.11.11,0,0,0,.09.09,16.8,16.8,0,0,0-1,1.59A5.63,5.63,0,0,0,58.81,26.42Zm.92-.23a2.56,2.56,0,0,0,.73-.19,22.61,22.61,0,0,1-1.94,1.53h0A6.07,6.07,0,0,0,59.72,26.18Zm-.34-6.42c.23-.41.42-.84.6-1.25a2.59,2.59,0,0,0,.65-.16A15.18,15.18,0,0,1,59.39,19.76Zm1.86-4.41a.84.84,0,0,1,.18.48,1.51,1.51,0,0,0-.37.19A6.11,6.11,0,0,0,61.24,15.35Zm-.09.8a1.5,1.5,0,0,0,.3-.12,3.37,3.37,0,0,1,0,.35,2.86,2.86,0,0,1-.39,1.27c-.06.12-.14.23-.21.34a2.43,2.43,0,0,0-.81.34l.12-.27.27-.59a2.15,2.15,0,0,0,.7-.36c.08-.06,0-.22-.08-.17a2.29,2.29,0,0,0-.53.33c.15-.34.3-.7.43-1.05Zm-.25-.82c-.19.41-.35.83-.51,1.25a4,4,0,0,0-.3-.6,0,0,0,0,0,0,0A2.13,2.13,0,0,1,60.89,15.33ZM60,16h0a3,3,0,0,0,.3.76h0q-.16.42-.32.83a3.79,3.79,0,0,0-.44-1A6.32,6.32,0,0,1,60,16Zm-.55.73a3.41,3.41,0,0,0,.34,1,.09.09,0,0,0,.14,0l-.13.32c-.13.29-.29.59-.46.89l-.05-.14a.1.1,0,0,0,0-.06,1.54,1.54,0,0,0-.16-.62,3.94,3.94,0,0,0-.17-.4A4.94,4.94,0,0,1,59.45,16.76ZM58.89,18l0,.16a3,3,0,0,0,.13.43,1.93,1.93,0,0,0,.14.59l-.14.25a6.14,6.14,0,0,0-.33-.59l0,0A8.27,8.27,0,0,1,58.89,18Zm-.42,2.36c.05-.41.1-.82.17-1.23a3.14,3.14,0,0,0,.24.64,5.51,5.51,0,0,0-.38.95l-.14.18A4,4,0,0,0,58.47,20.4Zm-.31-7.13c-.16.19-.33.38-.5.56.17-.35.33-.71.48-1.09a3.45,3.45,0,0,0,.62-.41A4.06,4.06,0,0,1,58.16,13.27Zm.71-2.36a.84.84,0,0,0-.22.16,8.93,8.93,0,0,0,.2-1.33,4,4,0,0,1,.07,2.2h0a3.3,3.3,0,0,0-.63.48,11.73,11.73,0,0,0,.34-1.15,2,2,0,0,1,.31-.3A0,0,0,0,0,58.86,10.91Zm-1.17-.66a3.07,3.07,0,0,1,.69-1.2.65.65,0,0,1,.15-.27c-.05.55-.11,1.09-.2,1.63A6,6,0,0,0,58,9.84s-.11,0-.1,0a5.1,5.1,0,0,0,.31,1.05c-.06.28-.13.57-.22.85a9.78,9.78,0,0,0-.51-1.05C57.57,10.56,57.63,10.41,57.7,10.26Zm-.25.62a3.26,3.26,0,0,0,.47,1.2c-.13.37-.28.73-.43,1.1a3,3,0,0,0-.41-.83A8.74,8.74,0,0,1,57.45,10.88ZM57,12.78c0-.05,0-.11,0-.16a3,3,0,0,0,.35.77h0a13.91,13.91,0,0,0-.5,1.38c0,.07-.1.14-.14.21C56.9,14.27,56.92,13.51,57,12.78ZM52.09,46.24c.36-.12.71-.27,1-.42a2.12,2.12,0,0,0,.48.26A12.31,12.31,0,0,1,52.09,46.24Zm3.09-.87a2.32,2.32,0,0,1-.93.55l-.31.09a2,2,0,0,0-.67-.24l.22-.1.48-.2a1.74,1.74,0,0,0,.62.17c.08,0,.14-.12,0-.15a1.85,1.85,0,0,0-.5-.09c.28-.12.56-.25.83-.39l.14,0a1.2,1.2,0,0,0,.25.09Zm.28-.37a1.22,1.22,0,0,0-.32-.09,4.94,4.94,0,0,0,.47-.29A.69.69,0,0,1,55.46,45Zm0-.59c-.33.14-.66.31-1,.47a3.22,3.22,0,0,0,.15-.52,0,0,0,0,0,0,0A1.73,1.73,0,0,1,55.41,44.42Zm-.91-.07h0a2.39,2.39,0,0,0-.24.61h0l-.65.32a3.08,3.08,0,0,0,.29-.85A5.08,5.08,0,0,1,54.5,44.34ZM53,44.81a4,4,0,0,1,.8-.33,2.77,2.77,0,0,0-.32.76.07.07,0,0,0,.07.09l-.25.12c-.24.1-.5.19-.76.28l0-.11,0,0a1.25,1.25,0,0,0,.25-.46A3.18,3.18,0,0,0,53,44.81Zm-.81.52a6.66,6.66,0,0,1,.57-.39l-.06.12a2.4,2.4,0,0,0-.16.33,1.57,1.57,0,0,0-.24.43l-.22.08a5,5,0,0,0,.12-.53A.05.05,0,0,0,52.16,45.33Zm-1,.79.77-.64a2.54,2.54,0,0,0-.21.52,4.45,4.45,0,0,0-.75.36l-.18,0A3.26,3.26,0,0,0,51.19,46.12Zm5.89-6.2h0c-.31,0-.62.06-.93.11.32-.27.62-.57.91-.88a1.91,1.91,0,0,0,.84,0A4,4,0,0,1,57.08,39.92ZM58,39a.07.07,0,0,0-.07-.05,4.88,4.88,0,0,0-.75.07l.77-.82a2.39,2.39,0,0,0,.52-.08A3.35,3.35,0,0,1,58,39Zm.53-1.1a1.06,1.06,0,0,0-.36,0l.44-.47A3,3,0,0,1,58.49,38Zm-1.26-.38a3.33,3.33,0,0,1,1.16-.3,8.07,8.07,0,0,0-1.28,1.27C57.16,38.22,57.2,37.9,57.23,37.58Zm-.83.57a3.32,3.32,0,0,1,.66-.49,4.22,4.22,0,0,0-.27,1.21l0,0c-.16.17-.33.32-.51.48A5.92,5.92,0,0,0,56.4,38.15Zm-1.32,2a6.79,6.79,0,0,1,1.14-1.79A6,6,0,0,0,56,39.44a.11.11,0,0,0,.06.11,16.78,16.78,0,0,0-1.38,1.27A5.68,5.68,0,0,0,55.08,40.11Zm.94,0a2.56,2.56,0,0,0,.75,0,22.72,22.72,0,0,1-2.27,1h0A6.07,6.07,0,0,0,56,40.12ZM59.6,32h0a2.55,2.55,0,0,0-.58.16,9,9,0,0,0,.57-.72,1.52,1.52,0,0,1,.31-.12,0,0,0,0,0,0-.06.65.65,0,0,0-.21.05,6.84,6.84,0,0,0,.52-.89A3.06,3.06,0,0,1,59.6,32Zm-.37-1.55c.22-.2.53-.59.84-.66a.5.5,0,0,1,.18-.15c-.19.38-.39.75-.61,1.1a4.61,4.61,0,0,0-.05-.5s-.07-.05-.08,0a3.92,3.92,0,0,0-.08.84c-.12.19-.26.37-.4.55a7.52,7.52,0,0,0-.06-.9Zm-.36.37a2.51,2.51,0,0,0,0,1c-.2.23-.41.44-.62.66a2.33,2.33,0,0,0-.05-.71A6.71,6.71,0,0,1,58.87,30.86Zm0,1.53a2.64,2.64,0,0,0,.56-.11,3.13,3.13,0,0,1-.7.5l-.52.26C58.39,32.83,58.61,32.62,58.82,32.39ZM58,32.1l.07-.11a2.28,2.28,0,0,0,0,.65h0a10.69,10.69,0,0,0-.76.84l-.16.11C57.5,33.13,57.73,32.59,58,32.1ZM55.31,5.76h0c-.25.31-.49.63-.72.95,0-.53,0-1.08,0-1.62a2.44,2.44,0,0,0,.74-.78A5.14,5.14,0,0,1,55.31,5.76ZM54.87,3a4.28,4.28,0,0,1,.41,1.22.09.09,0,0,0-.11,0,6.2,6.2,0,0,0-.61.75c0-.48,0-1-.08-1.44A3,3,0,0,0,54.87,3Zm-.13-.24a1.37,1.37,0,0,0-.28.36c0-.28,0-.56,0-.82A3.85,3.85,0,0,1,54.74,2.72Zm-.19,4.19a3.27,3.27,0,0,0,.67-.69,28.94,28.94,0,0,1-1.12,3v0A7.76,7.76,0,0,0,54.55,6.91ZM54,2.2a10.32,10.32,0,0,0,0,2.3c-.25-.33-.51-.65-.78-1A4.25,4.25,0,0,1,54,2.2Zm-.82,1.57a5.39,5.39,0,0,0,.88,1.32s0,.05,0,.08c0,.3,0,.59,0,.89a7.56,7.56,0,0,0-1-1.25A4.24,4.24,0,0,1,53.21,3.77Zm.49,4a8.69,8.69,0,0,1-.63-2.64,7.74,7.74,0,0,0,.84,1.19.14.14,0,0,0,.15,0A21.49,21.49,0,0,0,54,8.76,7.22,7.22,0,0,0,53.7,7.77ZM49.43,3.14a21,21,0,0,1,.76,2.6l0,0A7.28,7.28,0,0,0,49.32,4,3,3,0,0,0,49.43,3.14Zm-.19-.38h0c0,.36,0,.72,0,1.08-.27-.4-.57-.79-.88-1.17a2.21,2.21,0,0,0,.11-1A4.66,4.66,0,0,1,49.24,2.76Zm-.88-1.13a.08.08,0,0,0-.07.07,5.59,5.59,0,0,0,0,.87l-.84-1a2.76,2.76,0,0,0,0-.6A3.87,3.87,0,0,1,48.36,1.63ZM47.18.88a1.23,1.23,0,0,0,0,.41L46.7.72A3.46,3.46,0,0,1,47.18.88Zm-.79,0a9.33,9.33,0,0,0,1.27,1.65c-.36-.1-.72-.19-1.09-.27A3.84,3.84,0,0,1,46.39.89Zm.73,2.4a3.83,3.83,0,0,1-.46-.83A4.87,4.87,0,0,0,48,2.94L48,3c.17.21.33.43.48.65A6.85,6.85,0,0,0,47.11,3.29Zm.18.23a7,7,0,0,0,1.25.4.12.12,0,0,0,.13-.05c.32.48.64,1,1,1.4a.25.25,0,0,0-.16,0l-.32-.22A7.84,7.84,0,0,1,47.29,3.52Z"/><path class="cls-1" d="M4.8,31.84c.12.64.27,1.27.43,1.9-.52-.85-.94-1.75-1.53-2.56a8.28,8.28,0,0,0-2.11-2,.18.18,0,0,0-.25.06c-.67,1-.1,2.39.63,3.19,1,1.11,2.62,1.37,3.6,2.52q.24.8.53,1.59s-.06,0,0,.06a43.09,43.09,0,0,0,2,4.57h0c-.95-.73-1.14-2.32-2-3.21a3.92,3.92,0,0,0-2.84-1.16A.21.21,0,0,0,3,37c-.14,2.36,2.22,4.12,4.4,4.4a2.15,2.15,0,0,0,.75.14l.14,0c.24.43.5.86.77,1.27a.13.13,0,0,0,.14,0A5,5,0,0,0,10,44h0a31,31,0,0,0,2,2.53A2.47,2.47,0,0,1,11,46c-.16-.13-.3-.28-.46-.42a7.31,7.31,0,0,0-1.45-1,3.85,3.85,0,0,0-2.93-.32.21.21,0,0,0-.17.23c.14,2.32,3.56,2.38,5.24,2.32h0a3.11,3.11,0,0,0,.78,0h.08l.05,0h.07a.24.24,0,0,0,.31,0,.26.26,0,0,0,0-.36A30.27,30.27,0,0,1,5,22.26a.12.12,0,0,0,.09-.09c.33-1.65.61-3.29,1-4.92A30.32,30.32,0,0,1,12.58,5.69a.25.25,0,0,0,0-.08,12.65,12.65,0,0,0,2.51-1.83A4.53,4.53,0,0,0,16.07.37a.25.25,0,0,0-.25-.23c-2.73.17-4.41,3.12-4.43,5.66a2.8,2.8,0,0,0-.06.4,14.27,14.27,0,0,0-2.95,3.95c0-.06,0-.13,0-.19a.12.12,0,0,0,0-.12l0-.07C8.13,8.25,9.43,6.66,9.48,5.09A5,5,0,0,0,8,1.44a.27.27,0,0,0-.38,0c-2.3,2-1.83,5.69-.15,8a2.75,2.75,0,0,0,.53.82,1.45,1.45,0,0,0,.17.31,12,12,0,0,0-.52,1.38,30.78,30.78,0,0,0-1.85,4.37c-.38-1.57-.37-3.16-.76-4.72A10.76,10.76,0,0,0,3.49,8.15a.24.24,0,0,0-.33-.06c-1.28.85-1.28,2.83-.79,4.15C3,14.07,4.88,15.18,5.5,17a.22.22,0,0,0,.06.09,33.39,33.39,0,0,0-1.19,4.69,3.05,3.05,0,0,1-.54-1.45c0-.25,0-.51-.07-.76a9,9,0,0,0-.47-2.13A4.75,4.75,0,0,0,.9,14.75a.26.26,0,0,0-.35.07C-1.25,17,1.81,20,3.38,21.29l0,0a3.84,3.84,0,0,0,.67.7l.07.08a.09.09,0,0,0,.06,0l.08.05A28.38,28.38,0,0,0,4,25.34a.15.15,0,0,0,0,.11,13.2,13.2,0,0,0-.06,2.21c-.64-1-.45-2.47-1-3.51A3.92,3.92,0,0,0,.48,22.29a.21.21,0,0,0-.27.13c-.75,2.25,1.07,4.55,3.1,5.4a2.16,2.16,0,0,0,.66.32A14.23,14.23,0,0,0,4.8,31.84ZM.74,24.74a1.91,1.91,0,0,0,.81.23c.21.37.42.74.65,1.09-.29-.12-.57-.24-.87-.34h0A4,4,0,0,1,.74,24.74ZM.49,23.66a2.38,2.38,0,0,0,.48.22c.17.33.34.66.53,1a4.84,4.84,0,0,0-.71-.26.07.07,0,0,0-.08,0A3.35,3.35,0,0,1,.49,23.66Zm0-.65.3.57a1.07,1.07,0,0,0-.33-.13A3,3,0,0,1,.51,23Zm1.28.4c-.06.32-.1.64-.13,1a8.07,8.07,0,0,0-.91-1.56A3.33,3.33,0,0,1,1.79,23.41Zm.65.77a5.93,5.93,0,0,0-.18,1.25c-.13-.2-.25-.39-.37-.6l0-.05a4.22,4.22,0,0,0,.06-1.24A3.33,3.33,0,0,1,2.44,24.18Zm1,3a16.8,16.8,0,0,0-1-1.59.11.11,0,0,0,.09-.09,6.05,6.05,0,0,0,.08-1.14,6.8,6.8,0,0,1,.64,2A5.63,5.63,0,0,0,3.4,27.21Zm.12.32h0A22.62,22.62,0,0,1,1.57,26a2.56,2.56,0,0,0,.73.19A6.07,6.07,0,0,0,3.52,27.53ZM1.38,18.35a2.59,2.59,0,0,0,.65.16c.18.41.38.84.6,1.25A15.19,15.19,0,0,1,1.38,18.35ZM1,16a1.51,1.51,0,0,0-.37-.19.85.85,0,0,1,.18-.48A6.09,6.09,0,0,0,1,16Zm.07.21c.13.36.28.71.43,1.05a2.29,2.29,0,0,0-.53-.33c-.11,0-.16.11-.08.17a2.15,2.15,0,0,0,.7.36l.27.59.12.27A2.43,2.43,0,0,0,1.14,18c-.07-.11-.15-.22-.21-.34a2.86,2.86,0,0,1-.39-1.27,3.33,3.33,0,0,1,0-.35,1.49,1.49,0,0,0,.3.12ZM2,16a0,0,0,0,0,0,0,4,4,0,0,0-.3.6c-.16-.42-.32-.85-.51-1.25A2.13,2.13,0,0,1,2,16Zm.5.64a3.78,3.78,0,0,0-.44,1q-.17-.41-.32-.83h0A3,3,0,0,0,2,16H2A6.29,6.29,0,0,1,2.47,16.61ZM3,17.72a4,4,0,0,0-.17.4,1.54,1.54,0,0,0-.15.62.1.1,0,0,0,0,.06l-.05.14c-.16-.3-.32-.59-.46-.89l-.13-.32a.09.09,0,0,0,.14,0,3.42,3.42,0,0,0,.34-1A4.93,4.93,0,0,1,3,17.72Zm.3,1.15,0,0a6.15,6.15,0,0,0-.33.59l-.14-.25A1.92,1.92,0,0,0,3,18.63a3,3,0,0,0,.13-.43l0-.16A8.25,8.25,0,0,1,3.32,18.87Zm.33,2.06-.14-.18a5.5,5.5,0,0,0-.38-.95,3.13,3.13,0,0,0,.24-.64c.07.41.12.82.17,1.23A4,4,0,0,0,3.65,20.93Zm-.39-8.6a3.44,3.44,0,0,0,.62.41c.15.38.3.75.48,1.09-.17-.19-.34-.37-.5-.56A4.06,4.06,0,0,1,3.26,12.33ZM3.11,11a2,2,0,0,1,.31.3,11.76,11.76,0,0,0,.34,1.15,3.31,3.31,0,0,0-.63-.48h0a4,4,0,0,1,.06-2.2,8.91,8.91,0,0,0,.2,1.33.85.85,0,0,0-.22-.16A0,0,0,0,0,3.11,11Zm1.39-.26A9.81,9.81,0,0,0,4,11.77c-.09-.29-.16-.57-.22-.85a5.11,5.11,0,0,0,.31-1.05c0-.06-.07-.07-.1,0a6,6,0,0,0-.31.57c-.09-.54-.15-1.08-.2-1.63a.65.65,0,0,1,.15.27,3.07,3.07,0,0,1,.69,1.2C4.38,10.41,4.44,10.56,4.5,10.72Zm.43,1.63a3,3,0,0,0-.41.83c-.15-.36-.3-.73-.43-1.1a3.26,3.26,0,0,0,.47-1.2A8.74,8.74,0,0,1,4.93,12.35ZM5.25,15c0-.07-.09-.14-.14-.21a13.91,13.91,0,0,0-.5-1.38h0A3,3,0,0,0,5,12.62c0,.05,0,.11,0,.16C5.09,13.51,5.11,14.27,5.25,15ZM8.41,46.09a2.11,2.11,0,0,0,.48-.26c.33.14.68.3,1,.42A12.31,12.31,0,0,1,8.41,46.09Zm-1.75-.94a1.2,1.2,0,0,0,.25-.09L7,45c.27.14.55.27.83.39a1.85,1.85,0,0,0-.5.09c-.09,0,0,.15,0,.15A1.74,1.74,0,0,0,8,45.47l.48.2.22.1a2,2,0,0,0-.67.24l-.31-.09a2.32,2.32,0,0,1-.93-.55Zm-.25-.52a5,5,0,0,0,.47.29,1.22,1.22,0,0,0-.32.09A.69.69,0,0,1,6.4,44.62Zm1.05-.28a0,0,0,0,0,0,0,3.24,3.24,0,0,0,.15.52c-.33-.17-.65-.33-1-.47A1.73,1.73,0,0,1,7.46,44.34Zm.65.11a3.07,3.07,0,0,0,.29.85L7.75,45h0a2.39,2.39,0,0,0-.24-.61h0A5.08,5.08,0,0,1,8.11,44.45Zm1.05.7a1.25,1.25,0,0,0,.25.46l0,0,0,.11c-.26-.09-.52-.18-.76-.28l-.25-.12a.07.07,0,0,0,.07-.09,2.77,2.77,0,0,0-.32-.76,4,4,0,0,1,.8.33A3.22,3.22,0,0,0,9.16,45.14Zm.68.22a5,5,0,0,0,.12.53l-.22-.08a1.57,1.57,0,0,0-.24-.43,2.43,2.43,0,0,0-.16-.33l-.06-.12a6.6,6.6,0,0,1,.57.39A.05.05,0,0,0,9.85,45.36Zm1.33,1-.18,0a4.45,4.45,0,0,0-.75-.36,2.55,2.55,0,0,0-.21-.52c.26.21.52.42.77.64A3.28,3.28,0,0,0,11.18,46.39ZM4.11,39.14a1.91,1.91,0,0,0,.84,0c.3.31.6.61.91.88-.31,0-.62-.08-.93-.11h0A4,4,0,0,1,4.11,39.14Zm-.52-1a2.39,2.39,0,0,0,.52.08l.77.82A4.88,4.88,0,0,0,4.12,39a.07.07,0,0,0-.07.05A3.34,3.34,0,0,1,3.59,38.15Zm-.15-.63.44.47a1.06,1.06,0,0,0-.36,0A3,3,0,0,1,3.44,37.52Zm1.46,1a8.07,8.07,0,0,0-1.28-1.27,3.33,3.33,0,0,1,1.16.3C4.81,37.9,4.86,38.22,4.9,38.54Zm.86.86c-.18-.16-.35-.31-.51-.48l0,0a4.22,4.22,0,0,0-.27-1.21,3.33,3.33,0,0,1,.66.49A5.92,5.92,0,0,0,5.76,39.4Zm1.56,1.42a16.81,16.81,0,0,0-1.38-1.27A.11.11,0,0,0,6,39.44a6.05,6.05,0,0,0-.22-1.12,6.79,6.79,0,0,1,1.15,1.79A5.64,5.64,0,0,0,7.33,40.82Zm.2.28h0a22.69,22.69,0,0,1-2.27-1,2.56,2.56,0,0,0,.75,0A6.07,6.07,0,0,0,7.52,41.1ZM1.83,30.46a6.85,6.85,0,0,0,.52.89.65.65,0,0,0-.21-.05,0,0,0,0,0,0,.06,1.52,1.52,0,0,1,.31.12A9,9,0,0,0,3,32.2,2.54,2.54,0,0,0,2.43,32h0A3.06,3.06,0,0,1,1.83,30.46Zm1.22.31a7.52,7.52,0,0,0-.06.9c-.14-.18-.28-.36-.4-.55a3.93,3.93,0,0,0-.08-.84s-.07,0-.08,0a4.58,4.58,0,0,0-.05.5c-.22-.36-.41-.73-.61-1.1a.51.51,0,0,1,.18.15c.31.07.62.45.84.66Zm.77,1a2.33,2.33,0,0,0-.05.71c-.21-.22-.42-.43-.62-.66a2.51,2.51,0,0,0,0-1A6.71,6.71,0,0,1,3.83,31.81Zm0,1.23-.52-.26a3.12,3.12,0,0,1-.7-.5,2.63,2.63,0,0,0,.56.11C3.4,32.62,3.62,32.83,3.85,33Zm1,.57-.16-.11a10.75,10.75,0,0,0-.76-.84h0a2.28,2.28,0,0,0,0-.65L4,32.1C4.28,32.59,4.51,33.13,4.82,33.61ZM6.71,4.31a2.44,2.44,0,0,0,.74.78c0,.54,0,1.09,0,1.62-.23-.32-.47-.64-.72-.95h0A5.15,5.15,0,0,1,6.71,4.31Zm.82-.8c0,.47-.06,1-.08,1.44a6.21,6.21,0,0,0-.61-.75.09.09,0,0,0-.11,0A4.29,4.29,0,0,1,7.15,3,3.05,3.05,0,0,0,7.53,3.51ZM7.6,2.26c0,.27,0,.55,0,.82a1.36,1.36,0,0,0-.28-.36A3.86,3.86,0,0,1,7.6,2.26Zm.32,6.93v0a28.94,28.94,0,0,1-1.12-3,3.27,3.27,0,0,0,.67.69A7.76,7.76,0,0,0,7.92,9.19Zm.82-5.65c-.27.31-.53.64-.78,1A10.33,10.33,0,0,0,8,2.2,4.25,4.25,0,0,1,8.74,3.54Zm.21,1.27a7.56,7.56,0,0,0-1,1.25c0-.3,0-.6,0-.89,0,0,0-.05,0-.08A5.4,5.4,0,0,0,8.8,3.77,4.25,4.25,0,0,1,8.94,4.81ZM8,8.76a21.53,21.53,0,0,0-.06-2.4.14.14,0,0,0,.15,0,7.72,7.72,0,0,0,.84-1.19,8.68,8.68,0,0,1-.63,2.64A7.2,7.2,0,0,0,8,8.76ZM12.69,4a7.28,7.28,0,0,0-.85,1.72l0,0a21,21,0,0,1,.76-2.6A3,3,0,0,0,12.69,4Zm.87-2.28a2.21,2.21,0,0,0,.11,1c-.31.38-.61.77-.88,1.17,0-.36,0-.72,0-1.08h0A4.65,4.65,0,0,1,13.56,1.72ZM14.61,1a2.75,2.75,0,0,0,0,.6l-.84,1a5.61,5.61,0,0,0,0-.87.08.08,0,0,0-.07-.07A3.87,3.87,0,0,1,14.61,1Zm.7-.26-.48.57a1.23,1.23,0,0,0,0-.41A3.46,3.46,0,0,1,15.32.72Zm.12,1.55c-.36.08-.73.17-1.09.27A9.33,9.33,0,0,0,15.63.89,3.84,3.84,0,0,1,15.44,2.27Zm-2,1.38c.15-.22.31-.44.48-.65l0-.05a4.88,4.88,0,0,0,1.35-.47,3.84,3.84,0,0,1-.46.83A6.85,6.85,0,0,0,13.49,3.64Zm-.65,1.44-.32.22a.25.25,0,0,0-.16,0c.35-.45.67-.93,1-1.4a.12.12,0,0,0,.13.05,7,7,0,0,0,1.25-.4A7.85,7.85,0,0,1,12.84,5.08Z"/><path class="cls-1" d="M90.74.18l.27,0h.57l.25,0V5h5.62V.18l.25,0h.57l.27,0V11.6l-.25,0h-.6l-.25,0V6H91.84V11.6l-.25,0H91l-.25,0Z"/><path class="cls-1" d="M109.06.18l.3,0h.71l.29,0,3.81,11.42-.27,0h-.64l-.27,0-1-2.91h-4.7l-.91,2.91-.29,0h-.64l-.26,0Zm2.67,7.5-2-6.35-2,6.35Z"/><path class="cls-1" d="M120.86.18l.29,0h.61l.29,0,5.46,9.56V.18l.25,0h.56l.26,0V11.6l-.28,0h-.63l-.29,0-5.46-9.48V11.6l-.25,0h-.58l-.24,0Z"/><path class="cls-1" d="M136.56.18l.55-.06.69-.06.73,0,.67,0a7.56,7.56,0,0,1,2.6.4,4.75,4.75,0,0,1,1.83,1.16,4.68,4.68,0,0,1,1.07,1.84A8,8,0,0,1,145,5.86q0,5.93-5.85,5.93l-.72,0-.74,0-.67-.06-.52-.07Zm1.1,10.47.68.06c.26,0,.53,0,.8,0a7.55,7.55,0,0,0,2-.24,3.54,3.54,0,0,0,1.5-.81,3.7,3.7,0,0,0,1-1.52,7.17,7.17,0,0,0,.33-2.36,4.67,4.67,0,0,0-1.26-3.61A5,5,0,0,0,139.13,1l-.79,0a5.5,5.5,0,0,0-.69.06Z"/><path class="cls-1" d="M79.91,29.36c.08.16.16.31.22.46a2.26,2.26,0,0,1,.14.46A5.2,5.2,0,0,1,79,30.7a7.94,7.94,0,0,1-1.57.15,5.7,5.7,0,0,1-2.12-.38,4.46,4.46,0,0,1-1.64-1.11,5.08,5.08,0,0,1-1.06-1.81,7.4,7.4,0,0,1-.38-2.48,8,8,0,0,1,.37-2.55,5.44,5.44,0,0,1,1-1.89,4.44,4.44,0,0,1,1.64-1.18,5.49,5.49,0,0,1,2.15-.4,8.18,8.18,0,0,1,1.67.14c.44.09.77.17,1,.24a2.9,2.9,0,0,1-.09.48,4.75,4.75,0,0,1-.17.46l-.42-.13-.49-.11L78.26,20c-.24,0-.52,0-.83,0a4,4,0,0,0-1.68.34,3.46,3.46,0,0,0-1.27,1,4.69,4.69,0,0,0-.81,1.59,7.32,7.32,0,0,0-.29,2.13,6.42,6.42,0,0,0,.32,2.13,4.13,4.13,0,0,0,.88,1.5,3.51,3.51,0,0,0,1.32.88,4.58,4.58,0,0,0,1.63.29,6,6,0,0,0,1.36-.14A4.21,4.21,0,0,0,79.91,29.36Z"/><path class="cls-1" d="M87.37,19.19l.61-.06.51,0,.52,0h.64a7.1,7.1,0,0,1,1.5.16,3.86,3.86,0,0,1,1.33.55,2.88,2.88,0,0,1,.95,1,3.47,3.47,0,0,1,.36,1.66,2.78,2.78,0,0,1-.22,1.13,3.46,3.46,0,0,1-.58.91,3.78,3.78,0,0,1-.83.7,5.62,5.62,0,0,1-1,.49l-.13,0,3.64,4.92a1.62,1.62,0,0,1-.32,0h-.63a1.56,1.56,0,0,1-.31,0l-4-5.29v-.06l.35-.09a6.5,6.5,0,0,0,1-.37,3.85,3.85,0,0,0,.9-.56,2.59,2.59,0,0,0,.63-.77,2.18,2.18,0,0,0,.24-1,2.26,2.26,0,0,0-.76-1.86A3.18,3.18,0,0,0,89.77,20l-.62,0-.68.06v10.6l-.27,0h-.57l-.25,0Z"/><path class="cls-1" d="M104,19.24l.3,0H105l.29,0,3.81,11.42-.27,0h-.64l-.27,0-1-2.91h-4.7l-.91,2.91-.29,0h-.64l-.26,0Zm2.67,7.5-2-6.35-2,6.35Z"/><path class="cls-1" d="M115.79,19.24h5.61a2.11,2.11,0,0,1,0,.23q0,.14,0,.26c0,.07,0,.16,0,.26a2.18,2.18,0,0,1,0,.25h-4.51V24.1h3.91a2.15,2.15,0,0,1,0,.23c0,.09,0,.18,0,.26s0,.16,0,.26a2.16,2.16,0,0,1,0,.25h-3.91v5.56l-.25,0H116l-.25,0Z"/><path class="cls-1" d="M130.31,20.22h-3.06a1.81,1.81,0,0,1,0-.23c0-.09,0-.18,0-.26s0-.16,0-.25a1.85,1.85,0,0,1,0-.24h7.23c0,.06,0,.14,0,.22s0,.17,0,.25,0,.16,0,.26,0,.18,0,.25h-3.07V30.66l-.25,0h-.6l-.25,0Z"/><path class="cls-1" d="M141.16,19.24h6.12a2.11,2.11,0,0,1,0,.23q0,.14,0,.26c0,.07,0,.16,0,.26a2.18,2.18,0,0,1,0,.25h-5V24.1h4a2.11,2.11,0,0,1,0,.23c0,.09,0,.18,0,.26s0,.16,0,.26a2.12,2.12,0,0,1,0,.25h-4v4.56h5.16a2.14,2.14,0,0,1,0,.23q0,.14,0,.26c0,.07,0,.16,0,.26a2.2,2.2,0,0,1,0,.25h-6.26Z"/><path class="cls-1" d="M154.51,19.24l.55-.06.69-.06.73,0,.67,0a7.56,7.56,0,0,1,2.6.4,4.75,4.75,0,0,1,1.83,1.16,4.69,4.69,0,0,1,1.07,1.84,8,8,0,0,1,.35,2.45q0,5.93-5.85,5.93l-.72,0-.74,0-.67-.06-.52-.07Zm1.1,10.47.67.06c.26,0,.53,0,.8,0a7.55,7.55,0,0,0,2-.24,3.54,3.54,0,0,0,1.5-.81,3.71,3.71,0,0,0,1-1.52,7.18,7.18,0,0,0,.33-2.36,4.67,4.67,0,0,0-1.26-3.61,5,5,0,0,0-3.5-1.15l-.79,0a5.5,5.5,0,0,0-.69.06Z"/><path class="cls-1" d="M88.62,46l.28.09.33.09.41.07a4,4,0,0,0,.52,0,2.57,2.57,0,0,0,.81-.11,1.63,1.63,0,0,0,.56-.3,1.21,1.21,0,0,0,.33-.45,1.45,1.45,0,0,0,.11-.56,1.52,1.52,0,0,0-.07-.5,1,1,0,0,0-.25-.39,2.05,2.05,0,0,0-.5-.34q-.32-.16-.8-.35T89.68,43a2.29,2.29,0,0,1-.54-.36,1.55,1.55,0,0,1-.37-.5,1.74,1.74,0,0,1-.14-.73,1.6,1.6,0,0,1,.57-1.28,2.5,2.5,0,0,1,1.67-.49l.44,0,.41,0,.35.07.26.07c0,.1,0,.2-.05.3a2.56,2.56,0,0,1-.08.29,4.21,4.21,0,0,0-.6-.14,4.27,4.27,0,0,0-.73-.06,1.66,1.66,0,0,0-1.16.33,1.11,1.11,0,0,0-.35.84,1,1,0,0,0,.11.46,1.09,1.09,0,0,0,.3.34,2.34,2.34,0,0,0,.46.27l.57.24q.41.17.77.34a2.59,2.59,0,0,1,.61.41,1.75,1.75,0,0,1,.4.55,1.83,1.83,0,0,1,.15.77,2.16,2.16,0,0,1-.18.9,1.79,1.79,0,0,1-.51.66,2.32,2.32,0,0,1-.81.41,3.83,3.83,0,0,1-1.08.14,4.62,4.62,0,0,1-1-.08,7.37,7.37,0,0,1-.71-.19,2,2,0,0,1,.07-.32A2.43,2.43,0,0,1,88.62,46Z"/><path class="cls-1" d="M98.18,39.73l.19,0h.44l.18,0,2.35,7h-.72L100,45H97.12l-.56,1.79h-.73Zm1.64,4.62-1.26-3.91-1.24,3.91Z"/><path class="cls-1" d="M105,39.71l.38,0,.31,0,.32,0h.39a4.39,4.39,0,0,1,.92.1,2.36,2.36,0,0,1,.82.34,1.78,1.78,0,0,1,.58.65,2.12,2.12,0,0,1,.22,1,1.72,1.72,0,0,1-.14.69,2.19,2.19,0,0,1-.36.56,2.34,2.34,0,0,1-.51.43,3.51,3.51,0,0,1-.59.3l-.08,0,2.24,3-.2,0h-.39l-.19,0-2.46-3.26v0l.22-.06a4,4,0,0,0,.65-.23,2.39,2.39,0,0,0,.55-.34,1.58,1.58,0,0,0,.39-.47,1.35,1.35,0,0,0,.15-.65,1.39,1.39,0,0,0-.47-1.14,2,2,0,0,0-1.27-.38h-.38l-.42,0v6.53H105Z"/><path class="cls-1" d="M114.7,39.73l.19,0h.44l.18,0,2.35,7h-.72L116.54,45h-2.9l-.56,1.79h-.73Zm1.64,4.62-1.26-3.91-1.24,3.91Z"/><path class="cls-1" d="M127.92,39.73l.19,0h.44l.18,0,2.35,7h-.72L129.76,45h-2.89l-.56,1.79h-.73Zm1.64,4.62-1.26-3.91-1.24,3.91Z"/><path class="cls-1" d="M134.7,39.73l.18,0h.38l.18,0,3.36,5.89V39.73l.15,0h.34l.16,0v7h-.73l-3.36-5.84v5.84h-.66Z"/><path class="cls-1" d="M143.88,39.73l.18,0h.38l.18,0L148,45.62V39.73l.15,0h.34l.16,0v7h-.73l-3.36-5.84v5.84h-.66Z"/><path class="cls-1" d="M39.78,28.24c-1.42,3.2-4.71,9.38-8.54,10.27-1.2.29-1-1.4-1-1.4,2.74-8.39,3-9.19,3-9.28s-.26-.12-.48,0c-2.12,1.47-5,7.12-5,7.12A6.51,6.51,0,0,1,26,37.6c-.75.51-1.44-.1-1.44-1.2a35.06,35.06,0,0,1,1.54-9.45c-2,1.4-4.76,1.64-6.59-.41-2.65.53-5.24.67-8,1.18S5.31,30,6,33.51C6.39,34.57,7.5,36,8.87,35.44c.6-.24,1.35-1,.79-1.66a.71.71,0,0,0-.87-.29s0,0,0,0a.79.79,0,0,1-1.11-.1.74.74,0,0,1,.14-1.06c.48-.38,1.18,0,1.61.24a3.79,3.79,0,0,1,.79.72c.82,1,0,2.21-1,2.69-1.59.89-3.32-.77-3.78-2.31-1.15-3.68,3.08-6,6-6.54,2.57-.48,5.17-.7,7.82-1.13a2.14,2.14,0,0,1,.46-2.45,1.7,1.7,0,0,1,1.11-.36,1.11,1.11,0,0,1,1,.82c.19,1.15-.65,1.9-1.64,2.31,1.9,1.8,4.62,1.11,6.35-.63a36.66,36.66,0,0,1,5.75-11.57c1-1.2,3.22-3.78,5.08-3.05a1.69,1.69,0,0,1,.82,1.11c.43,1.71-2.38,6-8.88,14.12-.77,2.38-1.06,3.54-1.44,4.71,0,0-.29,1.25.36.41,1.35-1.92,3.63-5.27,6.09-4.74.63.19,1.3,1.13,0,5-1.54,4.71-1.59,5-1.3,4.88a15.24,15.24,0,0,0,1.71-1.37,24.9,24.9,0,0,0,4.33-7Zm-20-2.38a1.75,1.75,0,0,0,1.42-1.3c.17-.72-.58-1-1.15-.53A1.52,1.52,0,0,0,19.81,25.86ZM30,24a52.41,52.41,0,0,0,6.74-10.1c1.18-2.67-1.11-2.16-2.36.24A55.42,55.42,0,0,0,30,24Z"/></g></g></svg>