<svg xmlns="http://www.w3.org/2000/svg" viewBox="0 0 185.92 56.28"><defs><style>.cls-1{fill:#1a1a18;}</style></defs><title>9</title><g id="Capa_2" data-name="Capa 2"><g id="Ebene_1" data-name="Ebene 1"><path class="cls-1" d="M57.73,22.5,52.81,33.42c-.28.52-.64,1-1,1.48l-.64.76a6.64,6.64,0,0,1-2,1.28s-.08,0-.08,0c-.4.12-1.92.48-4.4-.76l-.2.32c-.2.2-.32.36-.44.48a6.32,6.32,0,0,1-.92.88l-.24.24-.52.36a6.51,6.51,0,0,1-1.6.76c-2.36.8-5,.48-5.56-2.48,0-3.84,4.2-7.44,7.64-3.88L43,33c1.52-3.16,4-8.36,3.92-10.72a1.86,1.86,0,0,0-1-1.52c-1.8-.92-4.68,1.28-6.44,3.12a21,21,0,0,0-1.6,2,20.18,20.18,0,0,0-2,3.28l-1.76,5.48h0l-4,12.2c-.2.6-.48,1.32-.8,2.12-2.88,8.56-6.56,7.32-6.56,7.32a2.77,2.77,0,0,1-1.12-.88c-1.36-2,0-5.68,0-5.84v0a40,40,0,0,1,3.36-6.68,22.59,22.59,0,0,1,4.52-5.24l.24-.76,2.48-7.64,3.12-9.68c-3.28,3.08-8.6,3.92-11.88.16-4.4.88-8.72,1.12-13.32,2S0,25.46,1.13,31.22c.64,1.76,2.48,4.12,4.76,3.2,1-.4,2.24-1.64,1.32-2.76a1.18,1.18,0,0,0-1.44-.48s0,0-.08,0a1.32,1.32,0,0,1-1.84-.16,1.23,1.23,0,0,1,.24-1.76c.8-.64,2,0,2.68.4a6.31,6.31,0,0,1,1.32,1.2c1.36,1.68.08,3.68-1.64,4.48C3.81,36.86.7,34.18.17,31.54c-1.32-6.88,5.12-9.92,10-10.88,4.28-.8,8.6-1.16,13-1.88a3.56,3.56,0,0,1,.76-4.08,2.11,2.11,0,0,1,3.44.76,3.09,3.09,0,0,1-.88,2.72,5.43,5.43,0,0,1-1.84,1.12,6.84,6.84,0,0,0,8,.92,11.21,11.21,0,0,0,1.64-1.16s.32-.32.8-.72a9.1,9.1,0,0,1,1.12-.88s.08-.08.12-.08a4.57,4.57,0,0,1,1.76-.84c1.48-.28,1.32,1.44,1.24,2.16l-1.68,5.12L39,22.7c.56-.44,1.2-.88,1.88-1.36h0a14.87,14.87,0,0,1,4.24-1.88c5.68-.92,5.36,4.72,3.4,9.92A29.13,29.13,0,0,1,46.33,34c-.12.2-.28.4-.4.6a1.27,1.27,0,0,1-.24.32,5.15,5.15,0,0,0,3.08.72,4.09,4.09,0,0,0,1.84-1.2,16.35,16.35,0,0,0,2.28-3.76l3.6-8.2ZM28.85,40.22c-3.16,4-6.64,10.08-5.68,13a.57.57,0,0,0,.8,0c1-1,2-3.84,2-3.84l2.68-8.4ZM24.09,18.46v0a2.91,2.91,0,0,0,2.36-2.16c.28-1.2-1-1.64-1.92-.88A2.53,2.53,0,0,0,24.09,18.46Zm18,16L42,34.34l-.36-.44a3.46,3.46,0,0,0-2.2-1A3.24,3.24,0,0,0,37,35.86c0,1.16.8,2.28,2.88,1A7.29,7.29,0,0,0,42.13,34.46Z"/><path class="cls-1" d="M83.72,22.5c-3,6.76-8.32,18-14.28,17a4.58,4.58,0,0,1-3-1.6,5.1,5.1,0,0,1-1-2.28,16.29,16.29,0,0,1,.48-6.28c-2.4,4.36-5.44,8.36-8.72,7.84a3.67,3.67,0,0,1-2.48-1.32,4.25,4.25,0,0,1-.8-1.84c-.4-2.24.4-5.36,1-7.32l0,0,2.44-7.72a2.11,2.11,0,0,1,2.24-.88,1.39,1.39,0,0,1,1,1.88c-1.92,6-2.2,7.52-2.8,9.6-.2.72-1,3.68.32,5a2.27,2.27,0,0,0,2.6.08c1.68-1.12,3.4-4,4.76-6.52.84-1.52,1.52-3.12,2.28-4.88l2.8-8a2.5,2.5,0,0,1,2.72-1.08,1.74,1.74,0,0,1,1.28,2.32c-2.36,7.28-3.6,11.12-4.36,13.64-.24.88-1.2,4.52.4,6.2a2.77,2.77,0,0,0,3.16.08c2.08-1.36,4.2-4.84,5.84-8,1-1.88,1.88-3.84,2.8-6Z"/><path class="cls-1" d="M105.75,22.5c-4.88,11.08-8.48,14.16-11,14.16-6.88,0-5.32-11.16-5.32-11.16a39.51,39.51,0,0,1,2.64-9.84s1.52-3.68-.84-3.4c-1.16.2-2.28.36-3.48.48-1.08,3-2.64,6.84-4.84,11.56L81.79,24s2.52-5.68,4.52-11.36c-3.56-.44-6.24-2.68-5.4-7,.68-3.16,2.84-6.32,7-5.6,1.92.56,2.08,3,1.88,5.16a34.63,34.63,0,0,1-1.32,5.44,7,7,0,0,0,3-.2c1.72-.44,3.72-1.36,5.24-1,2.44.72.64,5.12-1,10.24v0c-.28.88-2.36,7.72-1.16,12.24.32,1.12.88,1.92,1.76,2.08,2,.24,4.68-4.2,6.44-7.68,1.08-2.16,1.8-3.92,1.8-3.92ZM88.51,5c.12-.64.52-3.8-1.56-3.64-3.6,1-3.12,7.68.16,8.92A42.26,42.26,0,0,0,88.51,5Z"/><path class="cls-1" d="M162.06,11.86c-1.36,4.56-6.12,6.52-10.6,7.08-4.32.56-8.76.36-13.08,1.12.6,1.8-.32,4.8-2.88,4.48A1.7,1.7,0,0,1,134,23.1c-.28-1.76,1.24-3.2,2.92-3.64-3.48-3.92-10.36-1.84-12.4,3v.08s-3,7.56-7.52,12.64c-2.28,2.56-5,4.48-7.8,4.44a8,8,0,0,1-7.28-7.2c-.64-5.68,2.36-13.92,8.32-16.48,3.64-1.6,7.16.12,6.16,4.72a8,8,0,0,1-9.2,6.08c-.36-.24,0-.56.2-.56a10.66,10.66,0,0,0,2.16-.2c2.88-.76,6.2-6.64,2.84-6.88-5.76,1.24-9.88,15.16-3.88,18.12,1.12.48,7.36,2.4,14.48-14.2l.2-.48s0,0,0-.08c2.36-5.36,10.52-8.84,14.72-3.24,4.36-.76,8.8-.56,13.36-1.16,4-.52,8.36-2.12,9.72-6.48.72-2.32-1.24-7.16-4.48-6-1,.32-2.32,1.52-1.48,2.68a1.18,1.18,0,0,0,1.4.52s.08,0,.08,0a1.34,1.34,0,0,1,1.84.32,1.25,1.25,0,0,1-.36,1.76c-.84.56-1.92-.12-2.64-.6a4.71,4.71,0,0,1-1.24-1.28c-1.24-1.76.16-3.68,1.88-4.36C160.06,2.9,163.06,8.18,162.06,11.86Zm-24.64,8.4a3.11,3.11,0,0,0-2.44,2c-.36,1.28.84,1.64,1.84,1C137.43,22.86,138,22.38,137.43,20.26Z"/><path class="cls-1" d="M127.73,43h.58v2.56h3V43h.58v6h-.58V46.09h-3V49h-.58Z"/><path class="cls-1" d="M137,43h.69l2,6H139l-.5-1.53h-2.48L135.59,49H135Zm1.41,4L137.3,43.6,136.23,47Z"/><path class="cls-1" d="M142.78,43h.63l2.88,5V43h.56v6h-.63l-2.88-5v5h-.56Z"/><path class="cls-1" d="M150.64,43l.29,0,.37,0,.38,0H152a4,4,0,0,1,1.37.21,2.38,2.38,0,0,1,1.53,1.58,4.23,4.23,0,0,1,.19,1.29q0,3.13-3.08,3.13h-.38l-.39,0-.35,0-.27,0Zm.58,5.52.36,0,.42,0a4,4,0,0,0,1-.13,1.86,1.86,0,0,0,.79-.43,1.94,1.94,0,0,0,.5-.8,3.78,3.78,0,0,0,.18-1.25,2.46,2.46,0,0,0-.67-1.91,2.64,2.64,0,0,0-1.85-.61h-.42l-.36,0Z"/><path class="cls-1" d="M158.76,43h.73l1.68,4,1.67-4h.72l.29,6h-.58L163,43.9l-1.66,3.88-.12,0H161l-.11,0-1.64-3.89L159,49h-.58Z"/><path class="cls-1" d="M168.85,43h.69l2,6h-.62l-.5-1.53h-2.48L167.46,49h-.63Zm1.41,4-1.08-3.35L168.11,47Z"/><path class="cls-1" d="M174.65,43l.29,0,.37,0,.38,0H176a4,4,0,0,1,1.37.21,2.38,2.38,0,0,1,1.53,1.58,4.23,4.23,0,0,1,.19,1.29q0,3.13-3.08,3.13h-.38l-.39,0-.35,0-.27,0Zm.58,5.52.36,0,.42,0a4,4,0,0,0,1-.13,1.86,1.86,0,0,0,.79-.43,1.94,1.94,0,0,0,.5-.8,3.78,3.78,0,0,0,.18-1.25,2.46,2.46,0,0,0-.67-1.91,2.64,2.64,0,0,0-1.85-.61h-.42l-.36,0Z"/><path class="cls-1" d="M182.6,43h3.23a1.13,1.13,0,0,1,0,.12s0,.09,0,.14,0,.08,0,.14a1.17,1.17,0,0,1,0,.13h-2.65v2h2.13a1.18,1.18,0,0,1,0,.12s0,.09,0,.14,0,.08,0,.14a1.14,1.14,0,0,1,0,.13h-2.13V48.5h2.72a1.16,1.16,0,0,1,0,.12s0,.09,0,.14,0,.09,0,.14a1.19,1.19,0,0,1,0,.13h-3.3Z"/><path class="cls-1" d="M78.7,47.08l0-.18a1.52,1.52,0,0,0-2.91,0l0,.18a1.56,1.56,0,1,0,3,0Z"/><path class="cls-1" d="M70.14,46a1.38,1.38,0,0,0,0,2.76A1.38,1.38,0,0,0,70.14,46Z"/><path class="cls-1" d="M63,46.48A.91.91,0,0,0,62.4,48a.69.69,0,0,0,.63.36.71.71,0,0,0,.64-.36A.9.9,0,0,0,63,46.48Z"/><path class="cls-1" d="M84.27,46a1.38,1.38,0,0,1,0,2.76A1.38,1.38,0,0,1,84.27,46Z"/><path class="cls-1" d="M91.36,46.48A.91.91,0,0,1,92,48a.69.69,0,0,1-.63.36.71.71,0,0,1-.64-.36A.9.9,0,0,1,91.36,46.48Z"/><path class="cls-1" d="M127.5,36.58l.24.08.28.08.35.06.44,0a2.22,2.22,0,0,0,.69-.1,1.38,1.38,0,0,0,.48-.26,1,1,0,0,0,.28-.38,1.26,1.26,0,0,0,.09-.48,1.3,1.3,0,0,0-.06-.43.85.85,0,0,0-.22-.33,1.68,1.68,0,0,0-.43-.29c-.18-.09-.41-.19-.68-.3s-.38-.15-.56-.23a1.92,1.92,0,0,1-.47-.31,1.32,1.32,0,0,1-.32-.43,1.49,1.49,0,0,1-.12-.63,1.38,1.38,0,0,1,.49-1.1,2.14,2.14,0,0,1,1.43-.42l.37,0,.35,0,.3.06.22.06c0,.08,0,.17,0,.26a2.18,2.18,0,0,1-.07.25,3.44,3.44,0,0,0-.52-.12,3.62,3.62,0,0,0-.63-.06,1.42,1.42,0,0,0-1,.29,1,1,0,0,0-.3.72.79.79,0,0,0,.09.39,1,1,0,0,0,.25.29,2,2,0,0,0,.39.23l.49.21L130,34a2.24,2.24,0,0,1,.52.35,1.48,1.48,0,0,1,.34.47,1.57,1.57,0,0,1,.13.66,1.85,1.85,0,0,1-.16.78,1.54,1.54,0,0,1-.44.57,2,2,0,0,1-.69.35,3.27,3.27,0,0,1-.92.12,4,4,0,0,1-.82-.07c-.22,0-.42-.1-.61-.16a1.87,1.87,0,0,1,.06-.27A2.62,2.62,0,0,1,127.5,36.58Z"/><path class="cls-1" d="M134,37.25a2.45,2.45,0,0,1,0-.35,2.5,2.5,0,0,1,0-.36l.35,0,.36,0a2.43,2.43,0,0,1,0,.35,2.52,2.52,0,0,1,0,.36l-.35,0Z"/><path class="cls-1" d="M143.36,31.74h-1.11a.83.83,0,0,1,0-.11s0-.09,0-.14,0-.09,0-.14a.9.9,0,0,1,0-.12h1.68v4.83a1.46,1.46,0,0,1-.12.62,1.08,1.08,0,0,1-.31.4,1.23,1.23,0,0,1-.45.21,2.19,2.19,0,0,1-.52.06,2.49,2.49,0,0,1-.44,0l-.33-.08a1.84,1.84,0,0,1,.14-.51l.25.06a1.52,1.52,0,0,0,.31,0l.31,0a.79.79,0,0,0,.29-.12.64.64,0,0,0,.22-.25,1,1,0,0,0,.08-.44Z"/><path class="cls-1" d="M149,31.22h.69l2,6h-.62l-.5-1.53h-2.48l-.48,1.53H147Zm1.41,4-1.08-3.35-1.06,3.35Z"/><path class="cls-1" d="M155,31.22h.73l1.68,4,1.67-4h.72l.29,6h-.58l-.23-5.13L157.62,36l-.12,0h-.23l-.11,0-1.64-3.89-.24,5.14h-.58Z"/><path class="cls-1" d="M163.74,31.22H167a1.14,1.14,0,0,1,0,.12s0,.09,0,.14,0,.08,0,.14a1.17,1.17,0,0,1,0,.13h-2.65v2h2.13a1.21,1.21,0,0,1,0,.12s0,.09,0,.14,0,.08,0,.14a1.16,1.16,0,0,1,0,.13h-2.13v2.41H167a1.14,1.14,0,0,1,0,.12s0,.09,0,.14,0,.09,0,.14a1.17,1.17,0,0,1,0,.13h-3.3Z"/><path class="cls-1" d="M170.13,36.58l.24.08.28.08.35.06.44,0a2.22,2.22,0,0,0,.69-.1,1.38,1.38,0,0,0,.48-.26,1,1,0,0,0,.28-.38,1.26,1.26,0,0,0,.09-.48,1.3,1.3,0,0,0-.06-.43.85.85,0,0,0-.22-.33,1.68,1.68,0,0,0-.43-.29q-.27-.14-.68-.3c-.2-.07-.38-.15-.56-.23a1.92,1.92,0,0,1-.47-.31,1.32,1.32,0,0,1-.32-.43,1.49,1.49,0,0,1-.12-.63,1.38,1.38,0,0,1,.49-1.1,2.14,2.14,0,0,1,1.43-.42l.37,0,.35,0,.3.06.22.06c0,.08,0,.17,0,.26a2.18,2.18,0,0,1-.07.25,3.44,3.44,0,0,0-.52-.12,3.62,3.62,0,0,0-.63-.06,1.42,1.42,0,0,0-1,.29,1,1,0,0,0-.3.72.79.79,0,0,0,.09.39,1,1,0,0,0,.25.29,2,2,0,0,0,.39.23l.49.21.66.29a2.24,2.24,0,0,1,.52.35,1.48,1.48,0,0,1,.34.47,1.56,1.56,0,0,1,.13.66,1.85,1.85,0,0,1-.16.78,1.54,1.54,0,0,1-.44.57,2,2,0,0,1-.69.35,3.27,3.27,0,0,1-.92.12,4,4,0,0,1-.82-.07c-.22,0-.42-.1-.61-.16a1.87,1.87,0,0,1,.06-.27A2.59,2.59,0,0,1,170.13,36.58Z"/></g></g></svg>