<svg xmlns="http://www.w3.org/2000/svg" xmlns:xlink="http://www.w3.org/1999/xlink" viewBox="0 0 406.33 516.89"><defs><style>.cls-1{isolation:isolate;}.cls-2{fill:#fcfaff;}.cls-3{fill:#e9e9ff;}.cls-4{fill:#e0e0e2;}.cls-5{fill:url(#Gradient_bez_nazwy_17);}.cls-6{fill:url(#Gradient_bez_nazwy_17-2);}.cls-7,.cls-8{fill:#aaaae8;mix-blend-mode:color-dodge;}.cls-7{opacity:0.35;}.cls-8{opacity:0.09;}.cls-9{opacity:0.2;}.cls-10{fill:#eeedf3;}.cls-11{fill:#ff3131;}.cls-12{fill:#ff7373;}.cls-13{fill:#010080;}.cls-14{fill:#f8b7b0;}.cls-15{fill:#e49f98;}.cls-16{fill:#77d2ff;}.cls-17{fill:url(#Gradient_bez_nazwy_16);}.cls-18{fill:#4003a9;}.cls-19{fill:url(#Gradient_bez_nazwy_10);}.cls-20{fill:#eefaff;}.cls-21,.cls-23{mix-blend-mode:multiply;}.cls-22{fill:#c8c7d9;}.cls-23{fill:#3f3f3f;opacity:0.1;}.cls-24{fill:url(#Gradient_bez_nazwy_21);}.cls-25{fill:#fff;}.cls-26{fill:#e2e2e2;}.cls-27{fill:#f8aa00;}.cls-28{fill:#fb3;}.cls-29{fill:#ed9e00;}.cls-30{fill:url(#Gradient_bez_nazwy_114);}.cls-31{fill:#ffb6ea;}.cls-32{fill:#ff3158;}.cls-33{fill:#ff7d43;}.cls-34{fill:url(#Gradient_bez_nazwy_114-2);}.cls-35{fill:url(#Gradient_bez_nazwy_114-3);}</style><linearGradient id="Gradient_bez_nazwy_17" x1="207" y1="152.08" x2="229.23" y2="322.11" gradientUnits="userSpaceOnUse"><stop offset="0" stop-color="aqua"/><stop offset="0.37" stop-color="#0071bc"/><stop offset="0.76" stop-color="#9e005d"/><stop offset="1" stop-color="#ed1e79"/></linearGradient><linearGradient id="Gradient_bez_nazwy_17-2" x1="324" y1="292.44" x2="105.44" y2="91.66" xlink:href="#Gradient_bez_nazwy_17"/><linearGradient id="Gradient_bez_nazwy_16" x1="223.73" y1="246.36" x2="205.39" y2="191.2" gradientUnits="userSpaceOnUse"><stop offset="0" stop-color="#3301a0"/><stop offset="1" stop-color="#6a01a0"/></linearGradient><linearGradient id="Gradient_bez_nazwy_10" x1="192.53" y1="319.66" x2="195.03" y2="243.16" gradientUnits="userSpaceOnUse"><stop offset="0" stop-color="#f7631e"/><stop offset="1" stop-color="#febc66"/></linearGradient><linearGradient id="Gradient_bez_nazwy_21" x1="211.3" y1="186.54" x2="154.55" y2="87.04" gradientUnits="userSpaceOnUse"><stop offset="0" stop-color="aqua"/><stop offset="1" stop-color="#9e005d"/></linearGradient><linearGradient id="Gradient_bez_nazwy_114" x1="183.08" y1="196.81" x2="140.41" y2="192.14" gradientUnits="userSpaceOnUse"><stop offset="0" stop-color="aqua"/><stop offset="0.69" stop-color="#9e005d"/><stop offset="1" stop-color="#ed1e79"/></linearGradient><linearGradient id="Gradient_bez_nazwy_114-2" x1="291.28" y1="177.38" x2="343.78" y2="93.38" gradientTransform="translate(337.34 -177.92) rotate(67.83)" xlink:href="#Gradient_bez_nazwy_114"/><linearGradient id="Gradient_bez_nazwy_114-3" x1="128.7" y1="271.72" x2="224.7" y2="173.05" gradientTransform="translate(78.65 -36.87) rotate(17.35)" xlink:href="#Gradient_bez_nazwy_114"/></defs><title>Asset 1</title><g class="cls-1"><g id="Layer_2" data-name="Layer 2"><g id="Objects"><path class="cls-2" d="M253.29,124.27C243,119.69,203.57,102,157,115.3c-9.91,2.82-56.52,16.1-73,54.11-21.75,50.3,32.56,90.18,18.92,144.77-11.73,46.94-78,34.95-97.36,85.18-10.1,26.22-6.28,61.12,10.09,81.35,51.07,63.14,277.81,49.47,336.92-87.39C395.6,293.7,335.82,161.2,253.29,124.27Z"/><path class="cls-3" d="M166,456.13c-11.31,0-21.54-1.76-30.23-5.42-24.87-10.45-46.46-40.93-50.23-70.9C82,351.49,97,332,111.62,313.1c14.43-18.7,28.07-36.36,21.87-60.85-6.94-27.39-26.71-44-45.83-60.1-21.27-17.89-41.36-34.78-43.92-65-2.39-28.2,12.13-59.1,40.9-87C101.41,23.91,131.38,3.78,178.85.35l0,.5,0-.5c46.36-3.35,100.75,17.2,145.51,55,47.18,39.81,76.83,92.95,81.34,145.79,3.33,39-6.38,78-28.86,115.93-19.49,32.9-47.93,63.49-82.25,88.46C250.09,437.88,202.4,456.13,166,456.13ZM188.81,1q-5,0-9.89.35C131.75,4.76,102,24.74,85.33,40.91c-28.55,27.7-43,58.32-40.6,86.21,2.53,29.76,22.46,46.52,43.57,64.27,19.24,16.18,39.14,32.92,46.16,60.62,6.32,25-7.46,42.81-22,61.71C98,332.43,83,351.77,86.54,379.69c3.73,29.64,25.06,59.78,49.62,70.1,17.9,7.52,42.62,7.07,71.47-1.29,28.46-8.25,58.32-23.4,86.37-43.81,75.5-54.94,116.88-131,110.7-203.5-4.48-52.58-34-105.47-81-145.11C282.3,21.14,232.62,1,188.81,1Z"/><ellipse class="cls-4" cx="190.95" cy="322.58" rx="25.76" ry="3.25"/><path class="cls-5" d="M269.08,170l-62.24-23.11a3.63,3.63,0,0,0-4.66,2.15l-42,113.22a3.62,3.62,0,0,0,2.14,4.66L224.52,290a3.62,3.62,0,0,0,4.66-2.14l42-113.22A3.63,3.63,0,0,0,269.08,170Z"/><path class="cls-6" d="M200.14,137.33c-4.33,1.8-21,8.75-30.3,26.72-2,3.82-11.28,21.79-4.43,37.67,9.07,21,36.74,15.91,49.43,35.68,10.92,17-11.7,33.73-2,54,5.08,10.58,16.79,19.4,27.63,20.22,33.82,2.54,94.55-70.32,69.85-127.46C292.39,142.55,235,122.81,200.14,137.33Z"/><path class="cls-7" d="M234,305.23c-1,0-1.9,0-2.79-.07-17.56-.87-31.3-6.85-38.69-16.85-7.92-10.72-6.2-22.1-4.37-34.15,1.63-10.74,3.31-21.84-2.27-32.73-5-9.69-14.45-11.54-24.5-13.5-10.27-2-20.89-4.07-27.94-14.47-7.45-11-9.16-27.32-4-38,7.62-15.7,33.86-28.19,65.31-31.09,40.83-3.77,76.55,9.35,95.56,35.1,30.32,41.07,16.23,106.66-16.57,131.55h0l-.3-.4.3.4C258.58,302.53,244.18,305.23,234,305.23ZM208.42,124.74q-6.67,0-13.56.63c-31.11,2.87-57,15.14-64.5,30.53-5,10.38-3.36,26.28,3.91,37C141.09,203,151.5,205,161.57,207c10.29,2,20,3.9,25.2,14,5.72,11.18,4,22.44,2.36,33.34-1.8,11.84-3.49,23,4.19,33.41,7.21,9.75,20.68,15.59,37.93,16.44,10.07.5,25.51-1.52,41.89-13.94l.3.4-.3-.4c32.45-24.62,46.38-89.51,16.37-130.16C272.85,137.49,243.14,124.74,208.42,124.74Z"/><path class="cls-8" d="M231.77,228q-2.35,0-4.76-.13c-24.18-1.33-43.91-12.08-52.79-28.77-14.16-26.61-.26-63.71,21.06-75.41,10.79-5.92,20.13-5.76,26.06-4.58,10.18,2,17.68,6.7,21.13,13.18,3.69,6.94,1.7,13.43-.41,20.31-1.88,6.14-3.83,12.49-1.51,19.36,2.07,6.12,7.47,8,13.18,10s11.84,4.18,15.06,10.86c3.4,7.05,3,16.73-1,22.51C262.53,223.12,248.38,228,231.77,228Zm-17.15-109a39.4,39.4,0,0,0-19.1,5.17h0c-21.12,11.59-34.89,48.36-20.86,74.74C183.45,215.38,203,226,227,227.35c18.46,1,34.68-3.92,40.39-12.29,3.85-5.64,4.25-15.1.92-22-3.13-6.49-9-8.58-14.77-10.6s-11.35-4-13.49-10.35c-2.37-7-.4-13.45,1.51-19.67,2.08-6.77,4-13.17.44-19.93-3.38-6.34-10.76-10.93-20.79-12.92A34,34,0,0,0,214.62,118.94Zm-19.22,5h0Z"/><g class="cls-9"><polygon class="cls-10" points="254 164.37 247.12 168.99 186.92 209.4 177.38 215.81 190.5 180.45 200.05 174.05 221.66 159.54 228.54 154.92 254 164.37"/></g><g class="cls-9"><polygon class="cls-10" points="267.71 169.46 260.82 174.08 179.85 228.43 179.85 228.44 170.31 234.84 174.93 222.39 174.93 222.38 184.48 215.98 184.48 215.97 251.85 170.75 258.74 166.13 267.71 169.46"/></g><rect class="cls-11" x="233.99" y="233.57" width="51.48" height="29.06" transform="translate(-35.79 43.95) rotate(-9.05)"/><polygon class="cls-12" points="259.73 248.1 282.87 229.7 232.03 237.8 259.73 248.1"/><path class="cls-13" d="M214.67,187.66c2-1.71,3.68-10.11-.71-8s-1,8.06-1,8.06Z"/><path class="cls-14" d="M215.86,205.88a8.18,8.18,0,0,0,7.76-1.81c.94-.93-1.54-2.29-2.35-3.45a3.13,3.13,0,0,1-.32-2.15,24.91,24.91,0,0,1,1.15-4.51l-8-2.46s-.24,4.13-.44,5.66a2.32,2.32,0,0,1-.19.7c-.42.92-1.44,1.2-3.15,2.26C208.29,201.41,211.88,204.83,215.86,205.88Z"/><path class="cls-15" d="M213.71,197.16a2.43,2.43,0,0,1-.05.28,4.76,4.76,0,0,0,2.6,1.83,7.37,7.37,0,0,0,4.78-1.47,31.2,31.2,0,0,1,1.06-3.84l-8-2.46S213.91,195.63,213.71,197.16Z"/><path class="cls-14" d="M225,189.08c-.89,3.91-1.4,5.79-3.33,7.19a7.73,7.73,0,0,1-5.23,1.77c-1.78-.22-4.07-3.36-4.31-5.09a30.9,30.9,0,0,1,.76-10.6,6.44,6.44,0,0,1,6.4-4.13C222.08,178.57,227.17,179.54,225,189.08Z"/><ellipse class="cls-14" cx="212.75" cy="187.95" rx="1.41" ry="2.7" transform="translate(-16.76 20.87) rotate(-5.4)"/><path class="cls-16" d="M217.11,203.45"/><path class="cls-17" d="M248.68,226.36l-18.36,4.79-4.89-13.86s-3.82,23.23-4.56,25.91-1.4,2.77-2.55,2.57l-18.49-3.24c-1.27-.22-1.93-1.74-1.29-4.11.52-1.93,4.55-17.64,5.27-24.86a76.54,76.54,0,0,1-5.91,11l-17.41-6.64,1.92-5.34,12.14,3.33s4.1-8.45,8.65-13.45a17.1,17.1,0,0,1,7.61-3.83,13.34,13.34,0,0,1,1.79-.22,4.5,4.5,0,0,0,3.68,4c1.62.28,4.88-.25,5.34-1.93a9,9,0,0,1,1.87,1c2.33,1.55,3.82,2.07,4.85,4.11,1.66,3.28,6.73,17.93,6.73,17.93l13.82-3.1Z"/><path class="cls-18" d="M207.36,315.28a12.61,12.61,0,0,0,5,4.23c2.71,1.42,8.39,2.66,5,3.47s-5.63.7-10.75-1c-2.15-.62-1.94-.72-4.25-.63s-4,.71-2.91-3.75S206.19,312.61,207.36,315.28Z"/><path class="cls-18" d="M167.74,296.61c-.18.88-2.51,2.9-4.86,4.86s-5.09,3-3.23,4c3.22,1.74,4.81.22,9.45-2.52,2-1.06,1.87-.66,4-1.51,1.47-.58,2.71-1.35,2.05-4.28C174.16,292.68,168.32,293.75,167.74,296.61Z"/><path class="cls-19" d="M220.71,244.8s-2.57,17.87-4.31,28.59c-.2,1.21-.38,2.32-.55,3.28-.24,1.4-.44,2.49-.59,3.15-.26,1.18-.74,3.44-1.32,6.24-.21,1-.43,2.1-.67,3.24-1.91,9.34-4.39,21.86-4.51,23.47a26.18,26.18,0,0,0,0,3.66.31.31,0,0,1-.45.3l-2.54-1.17a.33.33,0,0,0-.24,0c-.82.31-5.56,2.07-6.25,2.88s.3-2.2.56-5.52c.2-2.47,3.17-17.36,5.08-26.71.24-1.18.46-2.27.66-3.24.39-1.9.68-3.33.82-4a46.22,46.22,0,0,0,.46-5.62c0-1.08.09-2.24.13-3.44.19-6.28.22-13.57.23-15a.32.32,0,0,0-.24-.3l-4.14-1.1a.26.26,0,0,0-.21,0c-1.06.52-10.57,5.18-15.13,9.1a7.88,7.88,0,0,0-2.26,2.66,2.44,2.44,0,0,0-.11.32c-.91,3.67-1.79,6.64-2.55,8.78-.27.78-.53,1.46-.78,2-.12.27-.27.62-.43,1-1.68,4.06-5.42,14.07-6.08,16-.42,1.21,0,2.07,0,3,0,1.44-2.32,2.09-3.53,1.51-.9-.43-2.71-1.65-3.77-1.44a.32.32,0,0,1-.4-.37c.68-2.83,3.18-13.14,5.44-21.77.29-1.09.57-2.16.85-3.18a87.43,87.43,0,0,1,2.76-9.06,14.16,14.16,0,0,1,2-2.77c5.48-6.48,19.15-18.61,19.15-18.61s.49-1.49,1.31-1.37c1.79.27,1.93.58,11,2.39C219.81,243.71,221,242.71,220.71,244.8Z"/><path class="cls-13" d="M224.34,182.38c-5.41-.63-9.21-1.45-11-3.94s-.15-2.77,1.22-1.91a1.87,1.87,0,0,1,3-.85,3.46,3.46,0,0,1,4.77,1s3.71-1.11,4,1.79C226.32,178.5,229.11,182.94,224.34,182.38Z"/><path class="cls-13" d="M226.83,181.19c1.48,2.15,1.07,10.7-2.67,7.58s.51-7.43.51-7.43Z"/><ellipse class="cls-14" cx="225.06" cy="189.49" rx="2.7" ry="1.41" transform="translate(-50.47 292.65) rotate(-60.62)"/><path class="cls-13" d="M220.62,244.64,198,240.55a.26.26,0,0,1-.2-.34l.8-2.26a.26.26,0,0,1,.29-.17l22.29,3.9a.26.26,0,0,1,.21.3l-.43,2.45A.26.26,0,0,1,220.62,244.64Z"/><path class="cls-20" d="M223.48,201.47a7.33,7.33,0,0,1-6.9,2.72,7.46,7.46,0,0,1-5.78-5.54,13.34,13.34,0,0,1,1.79-.22,4.5,4.5,0,0,0,3.68,4c1.62.28,4.88-.25,5.34-1.93A9,9,0,0,1,223.48,201.47Z"/><path class="cls-13" d="M228.17,181.18a1.19,1.19,0,0,0-.53-1.6l-1.08,2.13A1.19,1.19,0,0,0,228.17,181.18Z"/><path class="cls-13" d="M215.34,181.38a3.77,3.77,0,0,0,2.43-4.74l-7.17,2.31A3.77,3.77,0,0,0,215.34,181.38Z"/><path class="cls-13" d="M218.37,182.14a2.51,2.51,0,0,0,.21-3.54l-3.75,3.34A2.51,2.51,0,0,0,218.37,182.14Z"/><path class="cls-13" d="M228,182.69a1.19,1.19,0,0,0,.94-1.4l-2.34.46A1.19,1.19,0,0,0,228,182.69Z"/><path class="cls-10" d="M269.08,170l-1.37-.51-9-3.33L254,164.37l-25.46-9.45-21.7-8.06a3.64,3.64,0,0,0-4.66,2.15L190.5,180.45l-13.12,35.36-2.45,6.57h0l-4.62,12.45-10.17,27.38a3.78,3.78,0,0,0-.21,1,3.59,3.59,0,0,0,2.35,3.63l11.56,4.29,8.72,3.24,23,8.54,8.38,3.11L224.52,290a3.63,3.63,0,0,0,4.66-2.13L270.44,176.7l.77-2.06A3.63,3.63,0,0,0,269.08,170ZM263.16,177l-.88,2.36-35.54,95.75a2,2,0,0,1-2.53,1.15l-7.81-2.9-9.43-3.5-19.49-7.24-8.92-3.31-7.11-2.64a1.94,1.94,0,0,1-1.27-1.76,1.83,1.83,0,0,1,.11-.76l9.56-25.74h0L184.48,216h0l2.44-6.57L200,174l6.67-18a2,2,0,0,1,2.52-1.15l12.42,4.61L247.12,169l4.73,1.76,9,3.33,1.18.44A1.94,1.94,0,0,1,263.16,177Z"/><g class="cls-21"><path class="cls-4" d="M204.9,286.19l8.37,3.11c.24-1.14.46-2.22.67-3.24l-8.38-3.11C205.36,283.92,205.14,285,204.9,286.19Z"/><path class="cls-4" d="M173,274.35l8.36,3.1c.16-.41.31-.76.43-1,.25-.55.51-1.23.78-2l-8.72-3.24C173.56,272.19,173.28,273.26,173,274.35Z"/></g><path class="cls-22" d="M191.64,273.78h0a3.41,3.41,0,0,1-2-4.38h0a3.41,3.41,0,0,1,4.38-2h0a3.41,3.41,0,0,1,2,4.38h0A3.41,3.41,0,0,1,191.64,273.78Z"/><path class="cls-14" d="M177.64,215.09a5.48,5.48,0,0,0,3-.44c.67-.35,1.31-2.4,1.52-3.87s-1.68-1.28-1.68-1.28a9.12,9.12,0,0,1,1.94-.46c1.2-.16,1.68-1.54-.06-1.52s-3.44.85-5.05,4.16c0,0-1.66,3.07,0,4.4Z"/><path class="cls-14" d="M256.86,217.8c0-1.16-2-3-2.56-2.28s-2.08,3.44-1.82,4.76a7.11,7.11,0,0,0,.93,2.31l-.38,1S256.82,222.85,256.86,217.8Z"/><path class="cls-23" d="M225.62,131.67,150,137.93a3.32,3.32,0,0,0-3,3.58l1.83,22.14a3.32,3.32,0,0,0,3.58,3l7.46-.62,3.62-.3c.71.78,2.53,2.75,3.29,3.46a1.64,1.64,0,0,0,2.4-.2c.63-.83,2.1-3.07,2.67-4l18.39-1.52L228,160.42a3.32,3.32,0,0,0,3-3.58L229.2,134.7A3.32,3.32,0,0,0,225.62,131.67Z"/><rect class="cls-23" x="251.3" y="128.87" width="27.74" height="27.74" rx="1.86" ry="1.86" transform="translate(91.93 389.07) rotate(-83.18)"/><path class="cls-23" d="M174.69,180.37a4.32,4.32,0,0,0-5.43-2.82l-27.82,8.81a4.32,4.32,0,0,0-2.82,5.43l5.74,18.11a4.32,4.32,0,0,0,5.43,2.82l2.72-.86s5.07,3.52,6.84,4.57a2.59,2.59,0,0,0,3.62-1.15c.85-1.88,3-7.68,3-7.68l11.68-3.7a4.32,4.32,0,0,0,2.82-5.43Z"/><path class="cls-23" d="M268,188.58a1.33,1.33,0,0,0-2.42-.39l-2.51,4.08-1.41-5.92a2.23,2.23,0,0,0-2.68-1.65l-16.28,3.88a2.23,2.23,0,0,0-1.65,2.68L245,207.55a2.23,2.23,0,0,0,2.68,1.65l16.28-3.88a2.23,2.23,0,0,0,1.65-2.68l-1.41-5.92,4.08,2.51a1.33,1.33,0,0,0,2-1.44Z"/><path class="cls-23" d="M121.14,161.27a2.21,2.21,0,0,0-4.08.22l-5.25,14.85a2.21,2.21,0,0,0,3,2.73l10.05-4.8a2.21,2.21,0,0,0,1-2.95Z"/><circle class="cls-23" cx="128.38" cy="126.91" r="6.48" transform="translate(-32.34 44.71) rotate(-17.58)"/><circle class="cls-23" cx="301.79" cy="288.19" r="4.34" transform="translate(-109.87 356.51) rotate(-53.1)"/><circle class="cls-23" cx="295.11" cy="167.01" r="8.2" transform="translate(29.1 377.31) rotate(-67.83)"/><circle class="cls-23" cx="165.19" cy="237.09" r="11.14" transform="translate(-63.17 60.03) rotate(-17.35)"/><path class="cls-24" d="M226.94,126.27,145.77,133a3.56,3.56,0,0,0-3.25,3.84l2,23.75a3.56,3.56,0,0,0,3.84,3.25l8-.66,3.88-.32c.77.83,2.72,3,3.53,3.72a1.76,1.76,0,0,0,2.57-.21c.67-.89,2.25-3.3,2.87-4.25l19.73-1.63,40.58-3.35a3.56,3.56,0,0,0,3.25-3.84l-2-23.75A3.56,3.56,0,0,0,226.94,126.27Z"/><path class="cls-25" d="M162.29,147.87a3.91,3.91,0,0,0,1.06-3l-.16-1.93a4,4,0,0,0-4.13-3.76,3.93,3.93,0,0,0-3.71,4.25l.17,2.09a3.91,3.91,0,0,0,1.54,2.8,8.3,8.3,0,0,0-4.9,6.2,1.69,1.69,0,0,0,1.82,1.94l12.68-1a1.69,1.69,0,0,0,1.48-2.21A8.3,8.3,0,0,0,162.29,147.87Z"/><path class="cls-25" d="M195,136.18l-16.18,1.34a2.41,2.41,0,0,0-2.2,2.6l.66,7.95a2.41,2.41,0,0,0,2.6,2.2l1.58-.13s2.31,2.54,3.15,3.32a1.44,1.44,0,0,0,2.1-.17c.69-.91,2.56-3.8,2.56-3.8l6.79-.56a2.41,2.41,0,0,0,2.2-2.6l-.66-7.95A2.41,2.41,0,0,0,195,136.18Z"/><path class="cls-26" d="M180.65,141.56a1,1,0,0,1-.08-2l13.12-1.08a1,1,0,1,1,.16,2l-13.12,1.08Z"/><path class="cls-26" d="M180.94,145a1,1,0,0,1-.08-2L194,141.92a1,1,0,1,1,.16,2L181,145Z"/><path class="cls-26" d="M181.22,148.44a1,1,0,0,1-.08-2l5.91-.49a1,1,0,1,1,.16,2l-5.91.49Z"/><path class="cls-25" d="M225.38,147.23a7.28,7.28,0,0,0-1.79-4.22l-.14-1.71a5.88,5.88,0,0,0-5.31-5.37l0-.5a1,1,0,1,0-2.05.17l0,.5a5.88,5.88,0,0,0-4.36,6.16l.14,1.71h0a7.31,7.31,0,0,0-1.07,4.45l.06.74a.69.69,0,0,0,.74.63l2.9-.24a.58.58,0,0,0,.27.58,5.89,5.89,0,0,0,7-.57.58.58,0,0,0,.17-.61l2.9-.24a.69.69,0,0,0,.63-.74Z"/><circle class="cls-11" cx="209.85" cy="149.11" r="3.1" transform="translate(-11.57 17.79) rotate(-4.73)"/><rect class="cls-27" x="254.49" y="123.27" width="29.75" height="29.75" rx="2" ry="2" transform="translate(100.2 389.19) rotate(-83.18)"/><rect class="cls-28" x="257.25" y="126.03" width="24.23" height="24.23" rx="1.21" ry="1.21" transform="translate(100.2 389.19) rotate(-83.18)"/><path class="cls-29" d="M269.94,140.11l-2.66,2.09a1.13,1.13,0,0,1-1.58-.19h0a1.13,1.13,0,0,0-1.58-.19l-3.94,3.1a1.13,1.13,0,0,0,.56,2l.46.06,9.28,1.11,5.22.62a1.13,1.13,0,0,0,1-1.82l-5.19-6.6A1.13,1.13,0,0,0,269.94,140.11Z"/><circle class="cls-29" cx="263.18" cy="135.4" r="1.99" transform="translate(97.47 380.64) rotate(-83.18)"/><path class="cls-30" d="M164.49,173.42l-29.84,9.45a4.64,4.64,0,0,0-3,5.82l6.15,19.43a4.64,4.64,0,0,0,5.82,3l2.91-.92s5.44,3.78,7.34,4.9a2.78,2.78,0,0,0,3.88-1.23c.91-2,3.18-8.23,3.18-8.23l12.53-4a4.64,4.64,0,0,0,3-5.82l-6.15-19.43A4.64,4.64,0,0,0,164.49,173.42Z"/><path class="cls-31" d="M164.58,183.5l-24.19,7.66a1.5,1.5,0,1,1-.91-2.86l24.19-7.66a1.5,1.5,0,1,1,.91,2.86Z"/><path class="cls-31" d="M166.74,190.33,142.54,198a1.5,1.5,0,0,1-.91-2.86l24.19-7.66a1.5,1.5,0,0,1,.91,2.86Z"/><path class="cls-31" d="M155.61,201.36l-10.91,3.45a1.5,1.5,0,1,1-.91-2.86l10.91-3.45a1.5,1.5,0,0,1,.91,2.86Z"/><path class="cls-32" d="M267.56,183.77l-2.7,4.38-1.51-6.35a2.39,2.39,0,0,0-2.88-1.77L243,184.2a2.39,2.39,0,0,0-1.77,2.88l4.16,17.47a2.39,2.39,0,0,0,2.88,1.77l17.47-4.16a2.39,2.39,0,0,0,1.77-2.88L266,192.93l4.38,2.7a1.43,1.43,0,0,0,2.13-1.54l-2.36-9.89A1.43,1.43,0,0,0,267.56,183.77Z"/><polyline class="cls-25" points="251.26 188.47 257.64 192.4 253.71 198.78"/><path class="cls-33" d="M120,168.8,114.85,158a2.37,2.37,0,0,0-4.37.23l-5.64,15.94a2.37,2.37,0,0,0,3.26,2.93L118.88,172A2.37,2.37,0,0,0,120,168.8Z"/><path class="cls-25" d="M116.68,167l-1.25-2,.08-.22a.52.52,0,1,0-1-.35l-1.75,4.94a3.52,3.52,0,0,0-1.32-.81c-1.33-.47-2.66-.15-3,.71s.52,1.95,1.85,2.42,2.62.16,2.95-.68v0l1.22-3.45.73,1.15a.61.61,0,0,0,1.1-.12l.37-1.06A.61.61,0,0,0,116.68,167Z"/><circle class="cls-11" cx="124.46" cy="122.91" r="6.95" transform="matrix(0.95, -0.3, 0.3, 0.95, -31.31, 43.34)"/><path class="cls-25" d="M127.16,119.56a2.48,2.48,0,0,0-3.45,1,2.48,2.48,0,0,0-3.39,1.17A2.53,2.53,0,0,0,121.5,125l3.48,1.8a1,1,0,0,0,1.31-.41l1.8-3.48A2.53,2.53,0,0,0,127.16,119.56Z"/><circle class="cls-11" cx="305.63" cy="291.16" r="4.66" transform="translate(-110.71 360.77) rotate(-53.1)"/><path class="cls-25" d="M308.51,291.33a49.81,49.81,0,0,0-3.85-2.89,1.69,1.69,0,0,0-1.33,1.91l.37,2.6a.65.65,0,0,0,.74.55l2.6-.37A1.69,1.69,0,0,0,308.51,291.33Z"/><circle class="cls-34" cx="300.97" cy="161.88" r="8.8" transform="translate(37.5 379.53) rotate(-67.83)"/><path class="cls-25" d="M304.17,157.33a1,1,0,0,0-1.36-.11,15.55,15.55,0,0,1-2.62,2.11l-.83-.34a.14.14,0,0,0-.18.07l-1.79,4.4a.14.14,0,0,0,.07.18l.62.25a2.37,2.37,0,0,0,1.47,1.93l.37.15,2.41,1,.54.22a1,1,0,0,0,1.24-1.27l.39.16a5.23,5.23,0,0,1,2.13-2,1,1,0,0,0-.53-1.25h0a1,1,0,0,0,0-1.78l-3.39-1.38C303.55,159,304.78,158,304.17,157.33Z"/><rect class="cls-25" x="294.17" y="159.75" width="5.55" height="1.91" rx="0.35" ry="0.35" transform="translate(36.08 375.07) rotate(-67.84)"/><circle class="cls-35" cx="160.19" cy="239.36" r="11.95" transform="translate(-64.08 58.64) rotate(-17.35)"/><path class="cls-25" d="M159.61,231.82a1.32,1.32,0,0,0-1.52,1.06,21.11,21.11,0,0,1-.93,4.47l-1.17.36a.19.19,0,0,0-.12.23l1.92,6.15a.19.19,0,0,0,.23.12l.87-.27a3.23,3.23,0,0,0,3.2.76l.51-.16,3.38-1.05.76-.24a1.3,1.3,0,0,0,.2-2.41l.54-.17a7.11,7.11,0,0,1,.55-3.89,1.31,1.31,0,0,0-1.64-.86h0a1.3,1.3,0,0,0-1.53-1.87l-4.75,1.48C160.39,234.11,160.84,232,159.61,231.82Z"/><rect class="cls-25" x="153.65" y="237.84" width="2.6" height="7.54" rx="0.47" ry="0.47" transform="translate(-64.98 57.18) rotate(-17.35)"/></g></g></g></svg>