<svg xmlns="http://www.w3.org/2000/svg" viewBox="0 0 362.86 456.13"><defs><style>.cls-1{fill:#e9e9ff;}</style></defs><title>Asset 4</title><g id="Layer_2" data-name="Layer 2"><g id="Objects"><path class="cls-1" d="M122.53,456.13c-11.31,0-21.54-1.76-30.23-5.42-24.87-10.45-46.46-40.93-50.23-70.9C38.51,351.49,53.57,332,68.14,313.1c14.43-18.7,28.07-36.36,21.87-60.85-6.94-27.39-26.71-44-45.83-60.1C22.91,174.27,2.82,157.38.26,127.2c-2.39-28.2,12.13-59.1,40.9-87C57.94,23.91,87.91,3.78,135.38.35l0,.5,0-.5c46.36-3.35,100.75,17.2,145.51,55,47.18,39.81,76.83,92.95,81.34,145.79,3.33,39-6.38,78-28.86,115.93-19.49,32.9-47.93,63.49-82.25,88.46C206.62,437.88,158.92,456.13,122.53,456.13ZM145.34,1q-5,0-9.89.35C88.28,4.76,58.51,24.74,41.85,40.91c-28.55,27.7-43,58.32-40.6,86.21,2.53,29.76,22.46,46.52,43.57,64.27C64.06,207.57,84,224.3,91,252c6.32,25-7.46,42.81-22,61.71-14.44,18.71-29.38,38.06-25.87,66,3.73,29.64,25.06,59.78,49.62,70.1,17.9,7.52,42.62,7.07,71.47-1.29,28.46-8.25,58.32-23.4,86.37-43.81,75.5-54.94,116.88-131,110.7-203.5-4.48-52.58-34-105.47-81-145.11C238.83,21.14,189.15,1,145.34,1Z"/></g></g></svg>