<svg xmlns="http://www.w3.org/2000/svg" xmlns:xlink="http://www.w3.org/1999/xlink" viewBox="0 0 211.42 209.88"><defs><style>.cls-1{isolation:isolate;}.cls-2{fill:#e0e0e2;}.cls-3{fill:url(#Gradient_bez_nazwy_17);}.cls-4{fill:url(#Gradient_bez_nazwy_17-2);}.cls-5,.cls-6{fill:#aaaae8;mix-blend-mode:color-dodge;}.cls-5{opacity:0.35;}.cls-6{opacity:0.09;}.cls-7{opacity:0.2;}.cls-8{fill:#eeedf3;}.cls-9{fill:#ff3131;}.cls-10{fill:#ff7373;}.cls-11{fill:#010080;}.cls-12{fill:#f8b7b0;}.cls-13{fill:#e49f98;}.cls-14{fill:#77d2ff;}.cls-15{fill:url(#Gradient_bez_nazwy_16);}.cls-16{fill:#4003a9;}.cls-17{fill:url(#Gradient_bez_nazwy_10);}.cls-18{fill:#eefaff;}.cls-19,.cls-21{mix-blend-mode:multiply;}.cls-20{fill:#c8c7d9;}.cls-21{fill:#3f3f3f;opacity:0.1;}.cls-22{fill:url(#Gradient_bez_nazwy_21);}.cls-23{fill:#fff;}.cls-24{fill:#e2e2e2;}.cls-25{fill:#f8aa00;}.cls-26{fill:#fb3;}.cls-27{fill:#ed9e00;}.cls-28{fill:url(#Gradient_bez_nazwy_114);}.cls-29{fill:#ffb6ea;}.cls-30{fill:#ff3158;}.cls-31{fill:#ff7d43;}.cls-32{fill:url(#Gradient_bez_nazwy_114-2);}.cls-33{fill:url(#Gradient_bez_nazwy_114-3);}</style><linearGradient id="Gradient_bez_nazwy_17" x1="102.3" y1="36.12" x2="124.53" y2="206.16" gradientUnits="userSpaceOnUse"><stop offset="0" stop-color="aqua"/><stop offset="0.37" stop-color="#0071bc"/><stop offset="0.76" stop-color="#9e005d"/><stop offset="1" stop-color="#ed1e79"/></linearGradient><linearGradient id="Gradient_bez_nazwy_17-2" x1="219.3" y1="176.48" x2="0.74" y2="-24.29" xlink:href="#Gradient_bez_nazwy_17"/><linearGradient id="Gradient_bez_nazwy_16" x1="119.03" y1="130.41" x2="100.69" y2="75.24" gradientUnits="userSpaceOnUse"><stop offset="0" stop-color="#3301a0"/><stop offset="1" stop-color="#6a01a0"/></linearGradient><linearGradient id="Gradient_bez_nazwy_10" x1="87.83" y1="203.7" x2="90.33" y2="127.2" gradientUnits="userSpaceOnUse"><stop offset="0" stop-color="#f7631e"/><stop offset="1" stop-color="#febc66"/></linearGradient><linearGradient id="Gradient_bez_nazwy_21" x1="106.6" y1="70.59" x2="49.85" y2="-28.91" gradientUnits="userSpaceOnUse"><stop offset="0" stop-color="aqua"/><stop offset="1" stop-color="#9e005d"/></linearGradient><linearGradient id="Gradient_bez_nazwy_114" x1="78.38" y1="80.85" x2="35.71" y2="76.19" gradientUnits="userSpaceOnUse"><stop offset="0" stop-color="aqua"/><stop offset="0.69" stop-color="#9e005d"/><stop offset="1" stop-color="#ed1e79"/></linearGradient><linearGradient id="Gradient_bez_nazwy_114-2" x1="186.58" y1="61.42" x2="239.08" y2="-22.58" gradientTransform="translate(164.75 -153.17) rotate(67.83)" xlink:href="#Gradient_bez_nazwy_114"/><linearGradient id="Gradient_bez_nazwy_114-3" x1="24" y1="155.77" x2="120" y2="57.1" gradientTransform="translate(39.32 -10.93) rotate(17.35)" xlink:href="#Gradient_bez_nazwy_114"/></defs><title>Asset 7</title><g class="cls-1"><g id="Layer_2" data-name="Layer 2"><g id="Objects"><ellipse class="cls-2" cx="86.25" cy="206.63" rx="25.76" ry="3.25"/><path class="cls-3" d="M164.38,54,102.14,30.91a3.63,3.63,0,0,0-4.66,2.15l-42,113.22a3.62,3.62,0,0,0,2.14,4.66L119.82,174a3.62,3.62,0,0,0,4.66-2.14l42-113.22A3.63,3.63,0,0,0,164.38,54Z"/><path class="cls-4" d="M95.44,21.38c-4.33,1.8-21,8.75-30.3,26.72-2,3.82-11.28,21.79-4.43,37.67,9.07,21,36.74,15.91,49.43,35.68,10.92,17-11.7,33.73-2,54,5.08,10.58,16.79,19.4,27.63,20.22,33.82,2.54,94.55-70.32,69.85-127.46C187.69,26.6,130.29,6.85,95.44,21.38Z"/><path class="cls-5" d="M129.3,189.28c-1,0-1.9,0-2.79-.07-17.56-.87-31.3-6.85-38.69-16.85-7.92-10.72-6.2-22.1-4.37-34.15,1.63-10.74,3.31-21.84-2.27-32.73-5-9.69-14.45-11.54-24.5-13.5-10.27-2-20.89-4.07-27.94-14.47-7.45-11-9.16-27.32-4-38,7.62-15.7,33.86-28.19,65.31-31.09,40.83-3.77,76.55,9.35,95.56,35.1C215.94,84.59,201.85,150.18,169,175.06h0l-.3-.4.3.4C153.88,186.57,139.48,189.28,129.3,189.28ZM103.72,8.78q-6.67,0-13.56.63C59,12.29,33.12,24.56,25.65,40c-5,10.38-3.36,26.28,3.91,37C36.39,87,46.8,89,56.87,91c10.29,2,20,3.9,25.2,14,5.72,11.18,4,22.44,2.36,33.34-1.79,11.84-3.49,23,4.19,33.41,7.21,9.75,20.68,15.59,37.93,16.44,10.07.5,25.51-1.52,41.89-13.94l.3.4-.3-.4c32.45-24.62,46.38-89.51,16.37-130.16C168.15,21.54,138.44,8.78,103.72,8.78Z"/><path class="cls-6" d="M127.07,112q-2.35,0-4.76-.13c-24.18-1.33-43.91-12.08-52.79-28.77C55.35,56.52,69.26,19.42,90.57,7.72,101.37,1.8,110.7,2,116.64,3.14c10.18,2,17.68,6.7,21.13,13.18,3.69,6.94,1.7,13.43-.41,20.31-1.88,6.14-3.83,12.49-1.51,19.36,2.07,6.12,7.47,8,13.18,10s11.84,4.18,15.06,10.86c3.4,7.05,3,16.73-1,22.51C157.83,107.16,143.67,112,127.07,112ZM109.92,3a39.4,39.4,0,0,0-19.1,5.17h0C69.69,19.75,55.92,56.52,70,82.9c8.79,16.53,28.37,27.18,52.37,28.5,18.46,1,34.68-3.92,40.39-12.29,3.85-5.64,4.25-15.1.92-22-3.13-6.49-9-8.58-14.77-10.6s-11.35-4-13.49-10.35c-2.37-7-.4-13.45,1.51-19.67,2.08-6.77,4-13.17.44-19.93-3.38-6.34-10.76-10.93-20.79-12.92A34,34,0,0,0,109.92,3Zm-19.22,5h0Z"/><g class="cls-7"><polygon class="cls-8" points="149.3 48.41 142.42 53.03 82.22 93.44 72.68 99.85 85.8 64.49 95.35 58.09 116.96 43.58 123.84 38.96 149.3 48.41"/></g><g class="cls-7"><polygon class="cls-8" points="163.01 53.5 156.12 58.12 75.15 112.47 75.15 112.48 65.61 118.88 70.23 106.43 70.23 106.42 79.78 100.02 79.78 100.01 147.15 54.79 154.04 50.17 163.01 53.5"/></g><rect class="cls-9" x="129.29" y="117.62" width="51.48" height="29.06" transform="translate(-18.86 26.03) rotate(-9.05)"/><polygon class="cls-10" points="155.03 132.15 178.17 113.75 127.33 121.85 155.03 132.15"/><path class="cls-11" d="M110,71.71c2-1.71,3.68-10.11-.71-8s-1,8.06-1,8.06Z"/><path class="cls-12" d="M111.16,89.93a8.18,8.18,0,0,0,7.76-1.81c.94-.93-1.54-2.29-2.35-3.45a3.13,3.13,0,0,1-.32-2.14A24.91,24.91,0,0,1,117.41,78l-8-2.46s-.24,4.13-.44,5.66a2.32,2.32,0,0,1-.19.7c-.42.92-1.44,1.2-3.15,2.26C103.59,85.46,107.18,88.88,111.16,89.93Z"/><path class="cls-13" d="M109,81.21a2.43,2.43,0,0,1-.05.28,4.76,4.76,0,0,0,2.6,1.83,7.37,7.37,0,0,0,4.78-1.47A31.2,31.2,0,0,1,117.41,78l-8-2.46S109.21,79.68,109,81.21Z"/><path class="cls-12" d="M120.29,73.13c-.89,3.91-1.4,5.79-3.33,7.19a7.73,7.73,0,0,1-5.23,1.77c-1.78-.22-4.07-3.36-4.31-5.09a30.9,30.9,0,0,1,.76-10.6,6.44,6.44,0,0,1,6.4-4.13C117.38,62.62,122.47,63.59,120.29,73.13Z"/><ellipse class="cls-12" cx="108.05" cy="71.99" rx="1.41" ry="2.7" transform="translate(-6.3 10.5) rotate(-5.4)"/><path class="cls-14" d="M112.41,87.49"/><path class="cls-15" d="M144,110.41l-18.36,4.79-4.89-13.86s-3.82,23.23-4.56,25.91-1.4,2.77-2.55,2.57l-18.49-3.24c-1.27-.22-1.93-1.74-1.29-4.11.52-1.93,4.55-17.64,5.27-24.86a76.54,76.54,0,0,1-5.91,11L75.79,102l1.92-5.34L89.85,100s4.1-8.45,8.65-13.45a17.1,17.1,0,0,1,7.61-3.83,13.34,13.34,0,0,1,1.79-.22,4.5,4.5,0,0,0,3.68,4c1.62.28,4.88-.25,5.34-1.93a9,9,0,0,1,1.87,1c2.33,1.55,3.82,2.07,4.85,4.11,1.66,3.28,6.73,17.93,6.73,17.93l13.82-3.1Z"/><path class="cls-16" d="M102.66,199.33a12.61,12.61,0,0,0,5,4.23c2.71,1.42,8.39,2.67,5,3.48s-5.63.7-10.75-1c-2.15-.62-1.94-.72-4.25-.63s-4,.71-2.91-3.75S101.49,196.66,102.66,199.33Z"/><path class="cls-16" d="M63,180.65c-.18.88-2.51,2.9-4.86,4.86s-5.09,3-3.23,4c3.22,1.74,4.81.22,9.45-2.52,2-1.06,1.87-.66,4-1.51,1.47-.58,2.71-1.35,2.05-4.28C69.46,176.73,63.62,177.8,63,180.65Z"/><path class="cls-17" d="M116,128.84s-2.57,17.87-4.31,28.59c-.2,1.21-.38,2.32-.55,3.28-.24,1.4-.44,2.49-.59,3.15-.26,1.18-.74,3.44-1.32,6.24-.21,1-.43,2.1-.67,3.24-1.91,9.34-4.39,21.86-4.51,23.47a26.18,26.18,0,0,0,0,3.66.31.31,0,0,1-.45.3L101,199.6a.33.33,0,0,0-.24,0c-.82.31-5.56,2.07-6.25,2.88s.3-2.2.56-5.52c.2-2.47,3.17-17.36,5.08-26.71.24-1.18.46-2.27.66-3.24.39-1.9.68-3.33.82-4a46.22,46.22,0,0,0,.46-5.62c0-1.08.09-2.24.13-3.44.19-6.28.22-13.57.23-15a.32.32,0,0,0-.24-.3l-4.14-1.1a.26.26,0,0,0-.21,0c-1.06.52-10.57,5.18-15.13,9.1a7.88,7.88,0,0,0-2.26,2.66,2.44,2.44,0,0,0-.11.32c-.91,3.67-1.79,6.64-2.55,8.78-.27.78-.53,1.46-.78,2-.12.27-.27.62-.43,1-1.68,4.06-5.42,14.07-6.08,16-.42,1.21,0,2.07,0,3,0,1.44-2.32,2.09-3.53,1.51-.9-.43-2.71-1.65-3.77-1.44a.32.32,0,0,1-.4-.37c.68-2.83,3.18-13.14,5.44-21.77.29-1.09.57-2.16.85-3.18a87.43,87.43,0,0,1,2.76-9.06,14.16,14.16,0,0,1,2-2.77C79.34,136.9,93,124.77,93,124.77s.49-1.49,1.31-1.37c1.79.27,1.93.58,11,2.39C115.11,127.75,116.29,126.76,116,128.84Z"/><path class="cls-11" d="M119.64,66.43c-5.41-.63-9.21-1.45-11-3.94s-.15-2.77,1.22-1.91a1.87,1.87,0,0,1,3-.85,3.46,3.46,0,0,1,4.77,1s3.71-1.11,4,1.79C121.62,62.55,124.41,67,119.64,66.43Z"/><path class="cls-11" d="M122.13,65.24c1.48,2.15,1.07,10.7-2.67,7.58s.51-7.43.51-7.43Z"/><ellipse class="cls-12" cx="120.36" cy="73.54" rx="2.7" ry="1.41" transform="translate(-2.77 142.35) rotate(-60.62)"/><path class="cls-11" d="M115.92,128.68,93.26,124.6a.26.26,0,0,1-.2-.34l.8-2.26a.26.26,0,0,1,.29-.17l22.29,3.9a.26.26,0,0,1,.21.3l-.43,2.45A.26.26,0,0,1,115.92,128.68Z"/><path class="cls-18" d="M118.78,85.51a7.33,7.33,0,0,1-6.9,2.72,7.46,7.46,0,0,1-5.78-5.54,13.34,13.34,0,0,1,1.79-.22,4.5,4.5,0,0,0,3.68,4c1.62.28,4.88-.25,5.34-1.93A9,9,0,0,1,118.78,85.51Z"/><path class="cls-11" d="M123.47,65.23a1.19,1.19,0,0,0-.53-1.6l-1.08,2.13A1.19,1.19,0,0,0,123.47,65.23Z"/><path class="cls-11" d="M110.64,65.43a3.77,3.77,0,0,0,2.43-4.74L105.9,63A3.77,3.77,0,0,0,110.64,65.43Z"/><path class="cls-11" d="M113.67,66.19a2.51,2.51,0,0,0,.21-3.54L110.13,66A2.51,2.51,0,0,0,113.67,66.19Z"/><path class="cls-11" d="M123.25,66.74a1.19,1.19,0,0,0,.94-1.4l-2.34.46A1.19,1.19,0,0,0,123.25,66.74Z"/><path class="cls-8" d="M164.38,54,163,53.5l-9-3.33-4.74-1.76L123.84,39l-21.7-8.06a3.64,3.64,0,0,0-4.66,2.15L85.8,64.49,72.68,99.85l-2.45,6.57h0l-4.62,12.45L55.44,146.26a3.78,3.78,0,0,0-.21,1,3.59,3.59,0,0,0,2.35,3.63l11.56,4.29,8.72,3.24,23,8.54,8.38,3.11L119.82,174a3.63,3.63,0,0,0,4.66-2.13L165.74,60.74l.77-2.06A3.63,3.63,0,0,0,164.38,54Zm-5.92,7.06-.88,2.36L122,159.18a2,2,0,0,1-2.53,1.15l-7.81-2.9-9.43-3.5-19.49-7.24-8.92-3.31-7.11-2.64A1.94,1.94,0,0,1,65.48,139a1.83,1.83,0,0,1,.11-.76l9.56-25.74h0L79.78,100h0l2.44-6.57L95.35,58.09l6.67-18A2,2,0,0,1,104.54,39L117,43.58,142.42,53l4.73,1.76,9,3.33,1.18.44A1.94,1.94,0,0,1,158.46,61.07Z"/><g class="cls-19"><path class="cls-2" d="M100.2,170.23l8.37,3.11c.24-1.14.46-2.22.67-3.24L100.86,167C100.66,168,100.44,169.05,100.2,170.23Z"/><path class="cls-2" d="M68.29,158.39l8.36,3.1c.16-.41.31-.76.43-1,.25-.55.51-1.23.78-2l-8.72-3.24C68.86,156.23,68.58,157.3,68.29,158.39Z"/></g><path class="cls-20" d="M86.94,157.82h0a3.41,3.41,0,0,1-2-4.38h0a3.41,3.41,0,0,1,4.38-2h0a3.41,3.41,0,0,1,2,4.38h0A3.41,3.41,0,0,1,86.94,157.82Z"/><path class="cls-12" d="M72.94,99.14a5.48,5.48,0,0,0,3-.44c.67-.35,1.31-2.4,1.52-3.87s-1.68-1.28-1.68-1.28a9.12,9.12,0,0,1,1.94-.46c1.2-.16,1.68-1.54-.06-1.52s-3.44.85-5.05,4.16c0,0-1.66,3.07,0,4.4Z"/><path class="cls-12" d="M152.16,101.85c0-1.16-2-3-2.56-2.28s-2.08,3.44-1.82,4.76a7.11,7.11,0,0,0,.93,2.31l-.38,1S152.12,106.9,152.16,101.85Z"/><path class="cls-21" d="M120.92,15.72,45.26,22a3.32,3.32,0,0,0-3,3.58l1.83,22.14a3.32,3.32,0,0,0,3.58,3l7.46-.62,3.62-.3c.71.78,2.53,2.75,3.29,3.46a1.64,1.64,0,0,0,2.4-.2c.63-.83,2.1-3.07,2.67-4l18.39-1.52,37.83-3.13a3.32,3.32,0,0,0,3-3.58L124.5,18.75A3.32,3.32,0,0,0,120.92,15.72Z"/><rect class="cls-21" x="146.6" y="12.92" width="27.74" height="27.74" rx="1.86" ry="1.86" transform="translate(114.81 182.94) rotate(-83.18)"/><path class="cls-21" d="M70,64.42a4.32,4.32,0,0,0-5.43-2.82L36.75,70.41a4.32,4.32,0,0,0-2.82,5.43L39.67,94a4.32,4.32,0,0,0,5.43,2.82l2.72-.86s5.07,3.52,6.84,4.57a2.59,2.59,0,0,0,3.62-1.15c.85-1.88,3-7.68,3-7.68L72.91,88a4.32,4.32,0,0,0,2.82-5.43Z"/><path class="cls-21" d="M163.34,72.62a1.33,1.33,0,0,0-2.42-.39l-2.51,4.08L157,70.41a2.23,2.23,0,0,0-2.68-1.65L138,72.63a2.23,2.23,0,0,0-1.65,2.68l3.88,16.28a2.23,2.23,0,0,0,2.68,1.65l16.28-3.88a2.23,2.23,0,0,0,1.65-2.68l-1.41-5.92,4.08,2.51a1.33,1.33,0,0,0,2-1.44Z"/><path class="cls-21" d="M16.43,45.31a2.21,2.21,0,0,0-4.08.22L7.11,60.38a2.21,2.21,0,0,0,3,2.73l10.05-4.8a2.21,2.21,0,0,0,1-2.95Z"/><circle class="cls-21" cx="23.68" cy="10.95" r="6.48" transform="translate(-2.2 7.66) rotate(-17.58)"/><circle class="cls-21" cx="197.09" cy="172.24" r="4.34" transform="translate(-58.98 226.44) rotate(-53.1)"/><circle class="cls-21" cx="190.41" cy="51.06" r="8.2" transform="translate(71.29 208.14) rotate(-67.83)"/><circle class="cls-21" cx="60.49" cy="121.13" r="11.14" transform="translate(-33.36 23.54) rotate(-17.35)"/><path class="cls-22" d="M122.24,10.32,41.07,17a3.56,3.56,0,0,0-3.25,3.84l2,23.75a3.56,3.56,0,0,0,3.84,3.25l8-.66,3.88-.32c.77.83,2.72,3,3.53,3.72a1.76,1.76,0,0,0,2.57-.21c.67-.89,2.25-3.3,2.87-4.25L84.2,44.51l40.58-3.35A3.56,3.56,0,0,0,128,37.32l-2-23.75A3.56,3.56,0,0,0,122.24,10.32Z"/><path class="cls-23" d="M57.59,31.91a3.91,3.91,0,0,0,1.06-3L58.49,27a4,4,0,0,0-4.13-3.76,3.93,3.93,0,0,0-3.71,4.25l.17,2.09a3.91,3.91,0,0,0,1.54,2.8,8.3,8.3,0,0,0-4.9,6.2,1.69,1.69,0,0,0,1.82,1.94l12.68-1a1.69,1.69,0,0,0,1.48-2.21A8.3,8.3,0,0,0,57.59,31.91Z"/><path class="cls-23" d="M90.34,20.22,74.16,21.56a2.41,2.41,0,0,0-2.2,2.6l.66,7.95a2.41,2.41,0,0,0,2.6,2.2l1.58-.13s2.31,2.54,3.15,3.32a1.44,1.44,0,0,0,2.1-.17c.69-.91,2.56-3.8,2.56-3.8L91.39,33a2.41,2.41,0,0,0,2.2-2.6l-.66-7.95A2.41,2.41,0,0,0,90.34,20.22Z"/><path class="cls-24" d="M76,25.6a1,1,0,0,1-.08-2L89,22.52a1,1,0,1,1,.16,2L76,25.6Z"/><path class="cls-24" d="M76.24,29a1,1,0,0,1-.08-2L89.27,26a1,1,0,1,1,.16,2L76.32,29Z"/><path class="cls-24" d="M76.52,32.48a1,1,0,0,1-.08-2L82.35,30a1,1,0,1,1,.16,2l-5.91.49Z"/><path class="cls-23" d="M120.68,31.27a7.28,7.28,0,0,0-1.79-4.22l-.14-1.71A5.88,5.88,0,0,0,113.44,20l0-.5a1,1,0,1,0-2.05.17l0,.5A5.88,5.88,0,0,0,107,26.32l.14,1.71h0a7.31,7.31,0,0,0-1.07,4.45l.06.74a.69.69,0,0,0,.74.63l2.9-.24a.58.58,0,0,0,.27.58,5.89,5.89,0,0,0,7-.57.58.58,0,0,0,.17-.61l2.9-.24a.69.69,0,0,0,.63-.74Z"/><circle class="cls-9" cx="105.15" cy="33.15" r="3.1" transform="translate(-2.37 8.77) rotate(-4.73)"/><rect class="cls-25" x="149.79" y="7.31" width="29.75" height="29.75" rx="2" ry="2" transform="translate(123.07 183.05) rotate(-83.18)"/><rect class="cls-26" x="152.55" y="10.07" width="24.23" height="24.23" rx="1.21" ry="1.21" transform="translate(123.07 183.05) rotate(-83.18)"/><path class="cls-27" d="M165.24,24.16l-2.66,2.09a1.13,1.13,0,0,1-1.58-.19h0a1.13,1.13,0,0,0-1.58-.19L155.47,29a1.13,1.13,0,0,0,.56,2l.46.06,9.28,1.11,5.22.62A1.13,1.13,0,0,0,172,31l-5.19-6.6A1.13,1.13,0,0,0,165.24,24.16Z"/><circle class="cls-27" cx="158.48" cy="19.45" r="1.99" transform="translate(120.34 174.5) rotate(-83.18)"/><path class="cls-28" d="M59.79,57.47,29.95,66.92a4.64,4.64,0,0,0-3,5.82l6.15,19.43a4.64,4.64,0,0,0,5.82,3l2.91-.92s5.44,3.78,7.34,4.9A2.78,2.78,0,0,0,53,97.95c.91-2,3.18-8.23,3.18-8.23l12.53-4a4.64,4.64,0,0,0,3-5.82L65.61,60.49A4.64,4.64,0,0,0,59.79,57.47Z"/><path class="cls-29" d="M59.88,67.55,35.68,75.21a1.5,1.5,0,0,1-.91-2.86L59,64.69a1.5,1.5,0,0,1,.91,2.86Z"/><path class="cls-29" d="M62,74.37,37.84,82a1.5,1.5,0,0,1-.91-2.86l24.19-7.66A1.5,1.5,0,0,1,62,74.37Z"/><path class="cls-29" d="M50.91,85.41,40,88.86A1.5,1.5,0,0,1,39.1,86L50,82.55a1.5,1.5,0,0,1,.91,2.86Z"/><path class="cls-30" d="M162.86,67.82l-2.7,4.38-1.51-6.35a2.39,2.39,0,0,0-2.88-1.77L138.3,68.25a2.39,2.39,0,0,0-1.77,2.88l4.16,17.47a2.39,2.39,0,0,0,2.88,1.77L161,86.2a2.39,2.39,0,0,0,1.77-2.88L161.3,77l4.38,2.7a1.43,1.43,0,0,0,2.13-1.54l-2.36-9.89A1.43,1.43,0,0,0,162.86,67.82Z"/><polyline class="cls-23" points="146.56 72.52 152.94 76.45 149.01 82.83"/><path class="cls-31" d="M15.3,52.85,10.15,42.06a2.37,2.37,0,0,0-4.37.23L.14,58.23A2.37,2.37,0,0,0,3.4,61.16L14.18,56A2.37,2.37,0,0,0,15.3,52.85Z"/><path class="cls-23" d="M12,51.08l-1.25-2,.08-.22a.52.52,0,1,0-1-.35L8.09,53.48a3.52,3.52,0,0,0-1.32-.81c-1.33-.47-2.66-.15-3,.71s.52,1.95,1.85,2.42,2.62.16,2.95-.68v0l1.22-3.45.73,1.15a.61.61,0,0,0,1.1-.12L12,51.61A.61.61,0,0,0,12,51.08Z"/><circle class="cls-9" cx="19.76" cy="6.95" r="6.95" transform="matrix(0.95, -0.3, 0.3, 0.95, -1.18, 6.29)"/><path class="cls-23" d="M22.46,3.61a2.48,2.48,0,0,0-3.45,1,2.48,2.48,0,0,0-3.39,1.17A2.53,2.53,0,0,0,16.79,9l3.48,1.8a1,1,0,0,0,1.31-.41L23.38,7A2.53,2.53,0,0,0,22.46,3.61Z"/><circle class="cls-9" cx="200.93" cy="175.2" r="4.66" transform="translate(-59.82 230.7) rotate(-53.1)"/><path class="cls-23" d="M203.81,175.38a49.81,49.81,0,0,0-3.85-2.89,1.69,1.69,0,0,0-1.33,1.91L199,177a.65.65,0,0,0,.74.55l2.6-.37A1.69,1.69,0,0,0,203.81,175.38Z"/><circle class="cls-32" cx="196.27" cy="45.93" r="8.8" transform="translate(79.69 210.36) rotate(-67.83)"/><path class="cls-23" d="M199.47,41.37a1,1,0,0,0-1.36-.11,15.55,15.55,0,0,1-2.62,2.11l-.83-.34a.14.14,0,0,0-.18.07l-1.79,4.4a.14.14,0,0,0,.07.18l.62.25a2.37,2.37,0,0,0,1.47,1.93l.37.15,2.41,1,.54.22a1,1,0,0,0,1.24-1.27l.39.16a1,1,0,0,0,1.2-1.36,1,1,0,0,0,.4-1.85h0a1,1,0,0,0,0-1.78L198,43.73C198.84,43,200.08,42.06,199.47,41.37Z"/><rect class="cls-23" x="189.47" y="43.79" width="5.55" height="1.91" rx="0.35" ry="0.35" transform="translate(78.27 205.9) rotate(-67.84)"/><circle class="cls-33" cx="55.49" cy="123.4" r="11.95" transform="translate(-34.27 22.16) rotate(-17.35)"/><path class="cls-23" d="M54.91,115.86a1.32,1.32,0,0,0-1.52,1.06,21.11,21.11,0,0,1-.93,4.47l-1.17.36a.19.19,0,0,0-.12.23l1.92,6.15a.19.19,0,0,0,.23.12l.87-.27a3.23,3.23,0,0,0,3.2.76l.51-.16,3.38-1.05.76-.24a1.3,1.3,0,0,0,.2-2.41l.54-.17a1.3,1.3,0,0,0,.08-2.46A1.3,1.3,0,0,0,61.7,120h0a1.3,1.3,0,0,0-1.53-1.87l-4.75,1.48C55.69,118.15,56.14,116.06,54.91,115.86Z"/><rect class="cls-23" x="48.95" y="121.88" width="2.6" height="7.54" rx="0.47" ry="0.47" transform="translate(-35.18 20.69) rotate(-17.35)"/></g></g></g></svg>