<?xml version="1.0" encoding="iso-8859-1"?>
<!-- Generator: Adobe Illustrator 19.0.0, SVG Export Plug-In . SVG Version: 6.00 Build 0)  -->
<svg version="1.1" id="Layer_1" xmlns="http://www.w3.org/2000/svg" xmlns:xlink="http://www.w3.org/1999/xlink" x="0px" y="0px"
	 viewBox="0 0 509.287 509.287" style="enable-background:new 0 0 509.287 509.287;" xml:space="preserve">

<path style="fill:#F1F3F7;" d="M455.036,62.05H54.252c-15.258,0-27.465,12.207-27.465,27.465v278.379
	c0,15.258,12.207,27.465,27.465,27.465h400.445c15.258,0,27.465-12.207,27.465-27.465V89.515
	C482.501,74.257,469.955,62.05,455.036,62.05z"/>
<rect x="54.252" y="129.526" style="fill:#FCFCFD;" width="400.784" height="237.012"/>
<circle style="fill:#F0582F;" cx="446.22" cy="97.653" r="8.816"/>
<circle style="fill:#FBD303;" cx="415.364" cy="97.653" r="8.816"/>
<g>
	<circle style="fill:#6EB1E1;" cx="384.509" cy="97.653" r="8.816"/>
	<path style="fill:#6EB1E1;" d="M390.273,306.861l-26.109-7.121c-2.713-11.189-7.121-21.701-12.885-31.195l13.563-23.396
		c1.356-2.713,1.017-6.103-1.017-8.138l-19.327-19.327c-2.034-2.034-5.425-2.713-8.138-1.017l-23.396,13.563
		c-9.494-5.764-20.005-10.172-31.195-12.885l-7.121-26.109c-0.678-3.052-3.391-5.086-6.442-5.086h-27.465
		c-3.052,0-5.764,2.034-6.442,5.086l-7.121,26.109c-11.189,2.713-21.701,7.121-31.195,12.885l-23.396-13.563
		c-2.713-1.356-6.103-1.017-8.138,1.017l-19.327,19.327c-2.034,2.034-2.713,5.425-1.017,8.138l13.563,23.396
		c-5.764,9.494-10.172,20.005-12.885,31.195l-26.109,7.121c-3.052,0.678-5.086,3.391-5.086,6.442v27.465
		c0,3.052,2.034,5.764,5.086,6.442l26.109,7.121c2.713,11.189,7.121,21.701,12.885,31.195l-13.563,23.396
		c-1.356,2.713-1.017,6.103,1.017,8.138l19.327,19.327c2.034,2.034,5.425,2.713,8.138,1.017l23.396-13.563
		c9.494,5.764,20.005,10.172,31.195,12.885l7.121,26.109c0.678,3.052,3.391,5.086,6.442,5.086h27.465
		c3.052,0,5.764-2.034,6.442-5.086l7.121-26.109c11.189-2.713,21.701-7.121,31.195-12.885l23.396,13.563
		c2.713,1.356,6.103,1.017,8.138-1.017l19.327-19.327c2.034-2.034,2.713-5.425,1.017-8.138l-13.563-23.396
		c5.764-9.494,10.172-20.005,12.885-31.195l26.109-7.121c3.052-0.678,5.086-3.391,5.086-6.442v-27.465
		C395.359,310.591,393.324,307.878,390.273,306.861z M254.644,377.388c-27.804,0-50.183-22.379-50.183-50.183
		c0-27.804,22.379-50.183,50.183-50.183s50.183,22.379,50.183,50.183S282.448,377.388,254.644,377.388z"/>
</g>
<g>
</g>
<g>
</g>
<g>
</g>
<g>
</g>
<g>
</g>
<g>
</g>
<g>
</g>
<g>
</g>
<g>
</g>
<g>
</g>
<g>
</g>
<g>
</g>
<g>
</g>
<g>
</g>
<g>
</g>
</svg>
