<svg xmlns="http://www.w3.org/2000/svg" xmlns:xlink="http://www.w3.org/1999/xlink" viewBox="0 0 269.19 247.48"><defs><style>.cls-1{fill:url(#linear-gradient);}</style><linearGradient id="linear-gradient" x1="1031.16" y1="405.57" x2="1245.29" y2="191.43" gradientTransform="translate(1289 433.25) rotate(180)" gradientUnits="userSpaceOnUse"><stop offset="0" stop-color="#ff4081"/><stop offset="1" stop-color="#5c9aff"/></linearGradient></defs><title>2</title><g id="Capa_2" data-name="Capa 2"><g id="BACKGROUND_1" data-name="BACKGROUND 1"><path class="cls-1" d="M256.75,109.91h0a8.5,8.5,0,0,0-12,0l-6.57,6.57a2.49,2.49,0,0,1-3.52,0h0a2.49,2.49,0,0,1,0-3.52l30.08-30.08c5.84-5.84,6-15.58.07-21.31a14.74,14.74,0,0,0-20.64.2L201.4,104.53a4.37,4.37,0,0,1-6.17,0h0a4.37,4.37,0,0,1,0-6.17L197,96.55A12,12,0,0,0,197.66,80a11.82,11.82,0,0,0-17.11-.41l-21.78,21.78a4.59,4.59,0,0,1-6.49,0h0a4.59,4.59,0,0,1,0-6.49L232.65,14.5a8.5,8.5,0,0,0,0-12h0a8.5,8.5,0,0,0-12,0L163.88,59.25a4.1,4.1,0,0,1-5.8,0h0a4.1,4.1,0,0,1,0-5.8l7.06-7.06a7,7,0,0,0,.35-9.63,6.77,6.77,0,0,0-9.72-.15L2.12,190.24a7,7,0,0,0-.35,9.63,6.77,6.77,0,0,0,9.72.15l59.11-59.11a4.1,4.1,0,0,1,5.8,0h0a4.1,4.1,0,0,1,0,5.8l-3.2,3.2a8.5,8.5,0,0,0,0,12h0a8.5,8.5,0,0,0,12,0L111,136.11a4.59,4.59,0,0,1,6.49,0h0a4.59,4.59,0,0,1,0,6.49L61.68,198.46A12,12,0,0,0,61.05,215a11.82,11.82,0,0,0,17.11.41l81.59-81.59a4.37,4.37,0,0,1,6.17,0h0a4.37,4.37,0,0,1,0,6.17l-12.85,12.85a14.74,14.74,0,0,0,0,20.84h0a14.74,14.74,0,0,0,20.84,0l17.17-17.17a2.49,2.49,0,0,1,3.52,0h0a2.49,2.49,0,0,1,0,3.52L121.67,233a8.5,8.5,0,0,0,0,12h0a8.5,8.5,0,0,0,12,0L256.75,121.92A8.5,8.5,0,0,0,256.75,109.91Z"/></g></g></svg>