<svg xmlns="http://www.w3.org/2000/svg" xmlns:xlink="http://www.w3.org/1999/xlink" viewBox="0 0 246.09 276.24"><defs><style>.cls-1{fill:url(#linear-gradient);}</style><linearGradient id="linear-gradient" x1="1342.67" y1="517.13" x2="1566.63" y2="293.17" gradientTransform="translate(1578.29 547.74) rotate(180)" gradientUnits="userSpaceOnUse"><stop offset="0" stop-color="#d4e157"/><stop offset="1" stop-color="#26c6da"/></linearGradient></defs><title>1</title><g id="Capa_2" data-name="Capa 2"><g id="BACKGROUND_1" data-name="BACKGROUND 1"><path class="cls-1" d="M89.4,84a10.78,10.78,0,0,0,15-.39l10.18-10.18a4.53,4.53,0,0,1,6.41,0h0a4.53,4.53,0,0,1,0,6.41L33.83,167a5.16,5.16,0,0,0-.48,6.88,5,5,0,0,0,7.43.37l27.75-27.75a4,4,0,0,1,5.39-.35,3.92,3.92,0,0,1,.26,5.78L6.08,220c-7.66,7.66-8.23,20.14-.84,28.07a20,20,0,0,0,28.77.52l97.09-97.09a4.55,4.55,0,0,1,6.06-.43,4.42,4.42,0,0,1,.32,6.54L104.13,191a17,17,0,0,0-.71,23.58,16.79,16.79,0,0,0,24.16.44l4.86-4.86a4.55,4.55,0,0,1,6.06-.43,4.42,4.42,0,0,1,.32,6.54l-48.2,48.2a7,7,0,0,0-.35,9.63,6.77,6.77,0,0,0,9.72.15L237.41,136.85a7,7,0,0,0,.35-9.63,6.77,6.77,0,0,0-9.72-.15L188.1,167a4.55,4.55,0,0,1-6.06.43,4.42,4.42,0,0,1-.32-6.54L241,101.62A17,17,0,0,0,241.7,78a16.79,16.79,0,0,0-24.16-.44L158.12,137a4.55,4.55,0,0,1-6.06.43,4.42,4.42,0,0,1-.32-6.54l4.48-4.48c7.66-7.66,8.23-20.14.84-28.07a20,20,0,0,0-28.77-.52L112,114.09a4,4,0,0,1-5.39.35,3.92,3.92,0,0,1-.26-5.78L206.32,8.72a5.16,5.16,0,0,0,.48-6.88,5,5,0,0,0-7.43-.37L163,37.87a4.53,4.53,0,0,1-6.41,0h0a4.53,4.53,0,0,1,0-6.41l5.64-5.64a10.78,10.78,0,0,0,.39-15,10.55,10.55,0,0,0-15.06-.14L89.26,68.92A10.55,10.55,0,0,0,89.4,84Z"/></g></g></svg>