<svg xmlns="http://www.w3.org/2000/svg" xmlns:xlink="http://www.w3.org/1999/xlink" viewBox="0 0 243.73 193.91"><defs><style>.cls-1{fill:url(#linear-gradient);}</style><linearGradient id="linear-gradient" x1="1093.72" y1="63.12" x2="1304.81" y2="-147.96" gradientTransform="translate(1322.06 54.56) rotate(180)" gradientUnits="userSpaceOnUse"><stop offset="0" stop-color="#ff7043"/><stop offset="1" stop-color="#ffee58"/></linearGradient></defs><title>3</title><g id="Capa_2" data-name="Capa 2"><g id="BACKGROUND_1" data-name="BACKGROUND 1"><path class="cls-1" d="M11.32,142.7h0a8.5,8.5,0,0,0,12,0l6.57-6.57a2.49,2.49,0,0,1,3.52,0h0a2.49,2.49,0,0,1,0,3.52l-29.1,29.1a14.74,14.74,0,0,0,0,20.84h0a14.74,14.74,0,0,0,20.84,0l55.26-55.26a4.37,4.37,0,0,1,6.17,0h0a4.37,4.37,0,0,1,0,6.18l-1.85,1.85a12,12,0,0,0,0,17.07,11.82,11.82,0,0,0,16.56-.16L123,137.49a4.59,4.59,0,0,1,6.49,0h0a4.59,4.59,0,0,1,0,6.49l-32.9,32.9a8.5,8.5,0,0,0,0,12h0a8.5,8.5,0,0,0,12,0l100-100a8.5,8.5,0,0,0,0-12h0a8.5,8.5,0,0,0-12,0l-25.82,25.82a4.59,4.59,0,0,1-6.49,0h0a4.59,4.59,0,0,1,0-6.49l75.89-75.89a12,12,0,0,0,0-17.07,11.82,11.82,0,0,0-16.56.16L103.22,123.88a4.37,4.37,0,0,1-6.17,0h0a4.37,4.37,0,0,1,0-6.17L128.73,86a14.74,14.74,0,0,0,0-20.84h0a14.74,14.74,0,0,0-20.84,0L61.55,111.51a2.49,2.49,0,0,1-3.52,0h0A2.49,2.49,0,0,1,58,108l65.25-65.25a8.5,8.5,0,0,0,0-12h0a8.5,8.5,0,0,0-12,0l-100,100A8.5,8.5,0,0,0,11.32,142.7Z"/></g></g></svg>