<svg xmlns="http://www.w3.org/2000/svg" viewBox="0 0 400 304.63"><defs><style>.cls-1{fill:#ffdb3b;}.cls-2{fill:#312c74;}.cls-3{fill:#5a4fd1;}.cls-4{fill:#786bff;}.cls-5{fill:#fa7146;}.cls-6{fill:#fffadb;}.cls-7{fill:#322c74;}.cls-8{fill:#fff;}.cls-9{fill:#5d5d5d;}.cls-10{fill:#282f39;}.cls-11{fill:#fbdc1f;}.cls-12{fill:#a7cb1f;}.cls-13{fill:#69cdff;}.cls-14{fill:#fb7246;}.cls-15{fill:#fdb636;}.cls-16{fill:#6e60ff;}.cls-17{fill:#4e606c;}.cls-18{fill:#b5bbdb;}.cls-19{fill:#3a505d;}.cls-20{fill:#e064a0;}.cls-21{fill:#545283;}.cls-22{fill:#7e7aac;}.cls-23{fill:#1cbfff;}</style></defs><title>Asset 1</title><g id="Layer_2" data-name="Layer 2"><g id="OBJECTS"><path class="cls-1" d="M397.17,242.59A201.29,201.29,0,0,0,400,209C400,98.49,310.46,9,200,9S0,98.49,0,209a201.27,201.27,0,0,0,2.83,33.64Z"/><path class="cls-2" d="M398.28,239.83c-.69,35.83-89.2,64.8-198.28,64.8-14.85,0-29.32-.54-43.24-1.55-88.32-6.47-154.45-32.3-155-63.25Z"/><path class="cls-3" d="M311.8,239.83c-.61,30.94-66.72,56.78-155,63.25-88.32-6.47-154.45-32.3-155-63.25Z"/><ellipse class="cls-4" cx="200" cy="239.35" rx="198.3" ry="33.77"/><circle class="cls-5" cx="301.21" cy="67.04" r="4.56"/><circle class="cls-5" cx="269" cy="174.48" r="4.59"/><circle class="cls-5" cx="91.24" cy="55.27" r="7.37"/><circle class="cls-5" cx="56.65" cy="92.15" r="2.31"/><circle class="cls-5" cx="13.41" cy="199.7" r="12.16"/><circle class="cls-5" cx="155" cy="181.17" r="7.61"/><circle class="cls-5" cx="148.74" cy="151.6" r="1.8"/><circle class="cls-5" cx="382.74" cy="211.02" r="6.71"/><circle class="cls-5" cx="371.75" cy="193.62" r="1.47"/><circle class="cls-6" cx="363.66" cy="119.93" r="3.15"/><circle class="cls-6" cx="308.76" cy="196.91" r="7.71"/><circle class="cls-6" cx="312.62" cy="59.01" r="2.73"/><circle class="cls-6" cx="258.94" cy="150.85" r="6.5"/><circle class="cls-6" cx="202.95" cy="184.89" r="2.9"/><circle class="cls-6" cx="127.85" cy="149.76" r="5.41"/><circle class="cls-6" cx="61.8" cy="111.42" r="2.14"/><circle class="cls-6" cx="25.98" cy="149.03" r="8.11"/><circle class="cls-6" cx="100.31" cy="129.16" r="6.8"/><circle class="cls-6" cx="36.27" cy="182.17" r="4.27"/><rect class="cls-7" x="188.68" y="104.84" width="22.64" height="30.19"/><path class="cls-7" d="M222.44,129.16H177.56a4.82,4.82,0,0,0-4.82,4.82h0a4.82,4.82,0,0,0,4.82,4.82h44.87a4.82,4.82,0,0,0,4.82-4.82h0A4.82,4.82,0,0,0,222.44,129.16Z"/><rect class="cls-7" x="112.15" width="175.71" height="109.87" rx="10.69" ry="10.69"/><rect class="cls-8" x="156.44" y="-34.23" width="87.12" height="165.64" rx="5.66" ry="5.66" transform="translate(248.59 -151.41) rotate(90)"/><path class="cls-9" d="M277.16,5h-3.78V92.15h3.78a5.67,5.67,0,0,0,5.66-5.66V10.69A5.67,5.67,0,0,0,277.16,5Z"/><path class="cls-9" d="M128.07,5h-5.23a5.67,5.67,0,0,0-5.66,5.66v75.8a5.67,5.67,0,0,0,5.66,5.66h5.23Z"/><path class="cls-10" d="M282.82,14.06V10.69A5.67,5.67,0,0,0,277.16,5H122.84a5.67,5.67,0,0,0-5.66,5.66v3.36Z"/><path class="cls-10" d="M117.18,85.14v1.35a5.67,5.67,0,0,0,5.66,5.66H277.16a5.67,5.67,0,0,0,5.66-5.66V85.14Z"/><polygon class="cls-3" points="205.44 28.7 219.46 28.7 219.46 38.91 219.46 68.49 194.56 68.49 180.54 68.49 180.54 58.27 180.54 28.7 205.44 28.7"/><rect class="cls-11" x="184.31" y="32.48" width="31.38" height="32.23"/><path class="cls-12" d="M215.69,47V62a19.08,19.08,0,0,1-4.15.3,119.1,119.1,0,0,1-27.22-3.35V49.45c.06-.19.14-.38.21-.57,1.22-3,4.47-5.57,7.2-4.13,1.11.59,1.89,1.72,2.93,2.48a5,5,0,0,0,5.4.24c2.31-1.38,3.42-4.5,5.79-5.77a5.89,5.89,0,0,1,6,.6A12.55,12.55,0,0,1,215.69,47Z"/><rect class="cls-13" x="184.31" y="53.81" width="31.37" height="10.91"/><circle class="cls-14" cx="198.92" cy="39.45" r="3.56"/><path class="cls-8" d="M219.46,179.81a23.4,23.4,0,0,1-23.37-23.37V128.66h5.66v27.78a17.71,17.71,0,0,0,35.42,0V123.52a15,15,0,0,1,14.93-14.93h13.82v5.66H252.1a9.28,9.28,0,0,0-9.27,9.27v32.92A23.4,23.4,0,0,1,219.46,179.81Z"/><path class="cls-15" d="M214.82,106.77h0a9.57,9.57,0,0,1,8.37-4.92h3.69a9.57,9.57,0,0,0,6.68-2.71c3-2.94,6.84-7.51,4.24-9.87-2.37-2.19-11.06,6.93-11.06,6.93s12.88-25,9.05-27.2-9.85,16.44-9.85,16.44,2.92-11.67-.55-12.22-5.47,8.93-5.47,8.93,2.55-8-.73-8.93-4.38,8.2-4.38,8.2,1.46-7.84-2-8.2S209,83.43,209,83.43s-5.47,4.38-4.38,9.3a24.14,24.14,0,0,1-.14,9.85Z"/><polygon class="cls-8" points="215 113.16 218.28 105.31 203.07 98.75 199.68 108.05 215 113.16"/><path class="cls-3" d="M227.77,237s-42.68-53.08-9.85-125.85l-20.25-9.3S159.92,175.72,190,237C193.88,247.26,227.77,243.91,227.77,237Z"/><rect class="cls-3" x="269.93" y="69.98" width="62.55" height="82.19" rx="7.65" ry="7.65" transform="translate(190.13 412.28) rotate(-90)"/><rect class="cls-7" x="268.05" y="87.74" width="66.32" height="46.68"/><rect class="cls-16" x="270.31" y="90" width="61.79" height="42.14"/><rect class="cls-7" x="281.77" y="87.74" width="2.3" height="46.68"/><rect class="cls-7" x="269.18" y="109.92" width="13.23" height="2.3"/><path class="cls-15" d="M341.46,115.42s-.23-13.73,3.61-18.91a9.55,9.55,0,0,0,2-5.54c.08-7.21-5.59-16.09-14.77-15.34-11.19.91-18.19,6.2-17.52,8.83s13.47-.92,13.47-.92-12.14,4-11.47,7.49S331,89.24,331,89.24,316.82,93.67,317.93,97s15.14-.27,15.14-.27l.5,18.76Z"/><path class="cls-17" d="M346.57,68.48h0a6,6,0,0,1-.79,8.46l-2.06,1.71-7.67-9.25,2.06-1.71A6,6,0,0,1,346.57,68.48Z"/><polygon class="cls-18" points="306.31 94.09 306.31 94.09 304.71 100.06 303.63 104.11 307.81 103.8 313.98 103.33 313.98 103.33 343.73 78.64 341.98 76.53 337.81 71.51 336.06 69.4 306.31 94.09"/><path class="cls-19" d="M304.71,100.06a4.53,4.53,0,0,1,3.1,3.74l-4.18.31Z"/><path class="cls-8" d="M326.25,83.77l-9.75,8.09a1.21,1.21,0,0,1-1.71-.16h0A1.21,1.21,0,0,1,315,90l9.75-8.09a1.21,1.21,0,0,1,1.71.16h0A1.21,1.21,0,0,1,326.25,83.77Z"/><path class="cls-15" d="M338.82,112.69l-4.23-20S328,75,322.82,77.69c-3.14,1.41,4.52,13.39,3.87,17.85s-7.84,19.62,6.86,19.91Z"/><rect class="cls-8" x="325.88" y="112.7" width="17.55" height="5.48" transform="translate(-0.35 1.02) rotate(-0.17)"/><path class="cls-7" d="M309.14,246.65c-4.48,7.89,32.07,10.81,36.56-.11,25.67-66.34-1.09-129.77-1.09-129.77l-20.48.06C333.07,188.74,319.09,228.49,309.14,246.65Z"/><path class="cls-15" d="M72.76,114.95s1.95-12.51.65-19.46-.23-14,9.62-15.88l1.66,26.68-3.31,11.16Z"/><polygon class="cls-3" points="107.03 67.04 121.05 67.04 121.05 77.26 121.05 106.83 96.15 106.83 82.13 106.83 82.13 96.62 82.13 67.04 107.03 67.04"/><rect class="cls-11" x="85.9" y="70.82" width="31.38" height="32.23"/><path class="cls-12" d="M117.28,85.3v15a19.08,19.08,0,0,1-4.15.3A119.1,119.1,0,0,1,85.9,97.27V87.79c.06-.19.14-.38.21-.57,1.22-3,4.47-5.57,7.2-4.13,1.11.59,1.89,1.72,2.93,2.48a5,5,0,0,0,5.4.24c2.31-1.38,3.42-4.5,5.79-5.77a5.89,5.89,0,0,1,6,.6A12.55,12.55,0,0,1,117.28,85.3Z"/><rect class="cls-13" x="85.91" y="92.15" width="31.37" height="10.91"/><path class="cls-15" d="M78.92,96.75s3.41.35,7.61-6.91,7.15-12,9.76-10.16-3.48,17.48-3.48,17.48,7.55,17.1-11.42,20.29Z"/><polygon class="cls-8" points="84.85 122.73 87.18 116.2 71.77 113.11 69.5 120.06 84.85 122.73"/><path class="cls-14" d="M78.73,237.32c0,10.06-34.54,10.06-34.54,0,1.21-79.63,24.13-119.85,24.13-119.85l19.41,3C75.18,160.93,75.23,203.62,78.73,237.32Z"/><circle class="cls-14" cx="100.51" cy="77.8" r="3.56"/><rect class="cls-15" x="146.23" y="36.48" width="12.49" height="23.99"/><rect class="cls-14" x="149.08" y="36.48" width="6.78" height="23.99"/><path class="cls-7" d="M152.47,69.49h0a6.24,6.24,0,0,1-6.24-6.24V60.47h12.49v2.78A6.24,6.24,0,0,1,152.47,69.49Z"/><polygon class="cls-15" points="158.72 36.48 146.23 36.48 149.95 31.24 152.47 27.69 155 31.24 158.72 36.48"/><path class="cls-7" d="M155,31.24a4.7,4.7,0,0,1-5,0l2.52-3.55Z"/><path class="cls-20" d="M152.24,199.17v-6.4H110.85a4.15,4.15,0,0,0-4.15,4.15h0a4.15,4.15,0,0,0,4.15,4.15h41.39Z"/><polygon class="cls-15" points="152.24 201.06 152.24 192.76 155.72 195.23 158.08 196.91 155.72 198.59 152.24 201.06"/><path class="cls-20" d="M155.72,198.59a3.13,3.13,0,0,1,0-3.35l2.36,1.68Z"/><path class="cls-11" d="M319.87,150.35l-3.19-3.19-1.34-1.34-28,28-1.31,1.31a4.15,4.15,0,0,0,0,5.87h0a4.15,4.15,0,0,0,5.87,0l1.31-1.31,28-28Z"/><polygon class="cls-15" points="321.21 151.69 315.34 145.82 319.55 145.1 322.41 144.62 321.93 147.48 321.21 151.69"/><path class="cls-11" d="M321.92,147.48a3.13,3.13,0,0,1-2.37-2.37l2.85-.48Z"/><path class="cls-12" d="M373.83,146.78h-6.4v41.39a4.15,4.15,0,0,0,4.15,4.15h0a4.15,4.15,0,0,0,4.15-4.15V146.78Z"/><polygon class="cls-15" points="375.72 146.78 367.42 146.78 369.89 143.3 371.57 140.94 373.25 143.3 375.72 146.78"/><path class="cls-12" d="M373.25,143.3a3.13,3.13,0,0,1-3.35,0l1.68-2.36Z"/><circle class="cls-7" cx="44.19" cy="143.28" r="3.4"/><path class="cls-3" d="M44.19,144.21h0a5.65,5.65,0,0,1-5.65-5.65v-8.86H49.84v8.86A5.65,5.65,0,0,1,44.19,144.21Z"/><circle class="cls-8" cx="44.19" cy="125.48" r="12.35"/><circle class="cls-1" cx="44.19" cy="125.48" r="7.34"/><rect class="cls-21" x="88.42" y="143.4" width="47.45" height="31.72" rx="7.75" ry="7.75"/><rect class="cls-22" x="88.42" y="153.15" width="47.45" height="12.21"/><circle class="cls-22" cx="112.15" cy="159.26" r="11.18"/><circle class="cls-8" cx="112.15" cy="159.26" r="8.67"/><circle class="cls-23" cx="112.15" cy="159.26" r="5.44"/><rect class="cls-22" x="96.17" y="139.17" width="10.53" height="4.23"/><path class="cls-7" d="M272.64,183.2H262.1a8.18,8.18,0,0,0-5.55,2.18h-7.28a8.18,8.18,0,0,0-5.55-2.18H233.17a8.23,8.23,0,0,0-8.22,8.22v1.78a8.23,8.23,0,0,0,8.22,8.22h10.54a8.23,8.23,0,0,0,8.22-8.22v-1.78a8.21,8.21,0,0,0-.15-1.53H254a8.21,8.21,0,0,0-.15,1.53v1.78a8.23,8.23,0,0,0,8.22,8.22h10.54a8.23,8.23,0,0,0,8.22-8.22v-1.78A8.23,8.23,0,0,0,272.64,183.2Z"/><rect class="cls-23" x="229.46" y="187.72" width="17.96" height="9.19" rx="3.71" ry="3.71"/><rect class="cls-23" x="258.39" y="187.72" width="17.96" height="9.19" rx="3.71" ry="3.71"/></g></g></svg>