<svg xmlns="http://www.w3.org/2000/svg" xmlns:xlink="http://www.w3.org/1999/xlink" viewBox="0 0 437.65 297.25"><defs><style>.cls-1{fill:none;}.cls-2{isolation:isolate;}.cls-10,.cls-3,.cls-5{mix-blend-mode:multiply;}.cls-4{fill:#ffe6c1;}.cls-5{opacity:0.1;}.cls-6{fill:#455a64;}.cls-7{fill:#263238;}.cls-8{fill:#37474f;}.cls-10,.cls-9{fill:#cfd8dc;}.cls-11{clip-path:url(#clip-path);}.cls-12{clip-path:url(#clip-path-2);}.cls-13{clip-path:url(#clip-path-3);}.cls-14{fill:#006370;}.cls-15{fill:#005f6b;}.cls-16{fill:#0094a4;}.cls-17{fill:#005058;}.cls-18{fill:#004c54;}.cls-19{clip-path:url(#clip-path-4);}.cls-20{fill:#00626e;}.cls-21{clip-path:url(#clip-path-5);}.cls-22{fill:#445862;}.cls-23{fill:#00b8d0;}.cls-24{fill:#243035;}.cls-25{fill:#232d32;}.cls-26{fill:#6d7274;}.cls-27{fill:#686d6f;}.cls-28{fill:#cbd4d8;}.cls-29{clip-path:url(#clip-path-6);}.cls-30{fill:#ff9800;}.cls-31{fill:#fff;}.cls-32{fill:#f57c00;}.cls-33{fill:#f7f9f9;}.cls-34{fill:#00bcd4;}.cls-35{fill:#f4f5f7;}.cls-36{fill:#eceff1;}</style><clipPath id="clip-path"><path class="cls-1" d="M224.85,227.58V226c0,1.89,1.24,3.79,3.74,5.23v1.63C226.1,231.37,224.85,229.47,224.85,227.58Z"/></clipPath><clipPath id="clip-path-2"><path class="cls-1" d="M420.61,252v1.63c0,1.87-1.23,3.73-3.68,5.15v-1.63C419.38,255.71,420.61,253.84,420.61,252Z"/></clipPath><clipPath id="clip-path-3"><path class="cls-1" d="M354.41,293.47v1.63c-4.94,2.87-13,2.86-17.92,0v-1.63C341.45,296.34,349.47,296.34,354.41,293.47Z"/></clipPath><clipPath id="clip-path-4"><path class="cls-1" d="M214.85,207.58V206c0,1.89,1.24,3.79,3.74,5.23v1.63C216.1,211.37,214.85,209.47,214.85,207.58Z"/></clipPath><clipPath id="clip-path-5"><path class="cls-1" d="M410.61,232v1.63c0,1.87-1.23,3.73-3.68,5.15v-1.63C409.38,235.71,410.61,233.84,410.61,232Z"/></clipPath><clipPath id="clip-path-6"><path class="cls-1" d="M344.41,273.47v1.63c-4.94,2.87-13,2.86-17.92,0v-1.63C331.45,276.34,339.47,276.34,344.41,273.47Z"/></clipPath></defs><title>online-payment-2</title><g class="cls-2"><g id="Capa_2" data-name="Capa 2"><g id="OBJECTS"><g class="cls-3"><polygon class="cls-4" points="437.65 173.22 389.72 201.07 198.82 90.85 246.75 63 437.65 173.22"/></g><g class="cls-3"><polygon class="cls-4" points="281.64 120.57 159.25 191.7 0 99.75 122.39 28.62 281.64 120.57"/></g><g class="cls-5"><path d="M400.73,94.62c10.14,5.86,10.2,15.35.12,21.21L180.25,244c-10.08,5.86-26.48,5.86-36.62,0l-86.09-49.7c-10.14-5.86-10.2-15.36-.12-21.21L278,44.92c10.08-5.86,26.48-5.86,36.63,0Z"/><path d="M410.86,107.77a17.13,17.13,0,0,0-.49-2.44,16.32,16.32,0,0,0-.93-2.53,16.55,16.55,0,0,0-1.11-2,13.53,13.53,0,0,0-1.2-1.61,24.66,24.66,0,0,0-1.83-1.87,29.32,29.32,0,0,0-2.43-1.87c-.4-.28-1-.6-1.38-.86a.72.72,0,0,0-.76,0c10.14,5.86,10.2,15.35.12,21.21L180.25,244c-10.08,5.86-26.48,5.86-36.62,0h0l-86.09-49.7c-10.14-5.86-10.2-15.36-.12-21.21a.73.73,0,0,0-.78,0c-.78.48-1.8,1.16-2.54,1.7a13.18,13.18,0,0,0-1.15,1,22,22,0,0,0-1.62,1.63,17.15,17.15,0,0,0-1.59,2.13,16.15,16.15,0,0,0-1.89,4.33,17.75,17.75,0,0,0-.47,2.42,18.63,18.63,0,0,0-.14,2.19v1.2a9.8,9.8,0,0,0,.29,2.39,9.8,9.8,0,0,1-.29-2.39,17.6,17.6,0,0,0,.67,4.93,16.07,16.07,0,0,0,3.14,5.91,26.92,26.92,0,0,0,2,2,26.67,26.67,0,0,0,2.39,1.83c.39.28.95.59,1.35.84h0l86.09,49.7a28.4,28.4,0,0,0,3.49,1.71c1.07.41,2.52.91,3.61,1.26.57.18,1.35.36,1.93.51a44.87,44.87,0,0,0,10.06,1.13A44.2,44.2,0,0,0,172,258.3c.6-.14,1.39-.33,2-.52,1.09-.35,2.53-.85,3.59-1.27.56-.22,1.29-.57,1.82-.83s1.11-.6,1.58-.85a1.85,1.85,0,0,0,.69-1,1.85,1.85,0,0,1-.69,1l88.24-51.28,132.36-76.92c.75-.46,1.75-1.09,2.45-1.62s1.55-1.31,2.18-1.91a14.44,14.44,0,0,0,1.31-1.49c.39-.51.87-1.23,1.21-1.78a16.18,16.18,0,0,0,1.59-3.72,18.06,18.06,0,0,0,.5-2.4,19,19,0,0,0,.17-2.42h0v-1.2A18.53,18.53,0,0,0,410.86,107.77Z"/><path d="M348.74,81.71a1.15,1.15,0,0,1,0,2.17,4.12,4.12,0,0,1-3.74,0L326.26,73.05a1.14,1.14,0,0,1,0-2.17,4.12,4.12,0,0,1,3.74,0Z"/><path d="M319.16,64.63a1.14,1.14,0,0,1,0,2.17,4.12,4.12,0,0,1-3.73,0,1.14,1.14,0,0,1,0-2.17A4.12,4.12,0,0,1,319.16,64.63Z"/><path d="M117.5,201.08c5.18,3,5.21,7.83.06,10.83s-13.51,3-18.69,0-5.2-7.84-.06-10.83S112.32,198.09,117.5,201.08Z"/><path d="M100.12,202.4c5.15-3,13.51-3,18.69,0a11,11,0,0,1,1.39,1,9.27,9.27,0,0,0-2.72-2.28c-5.18-3-13.54-3-18.69,0-4.63,2.69-5.05,6.87-1.33,9.87C95.28,208.13,96.15,204.71,100.12,202.4Z"/><path d="M377.44,118.16c1.73,1,1.74,2.62,0,3.62l-190,110.44a6.91,6.91,0,0,1-6.26,0L74.29,170.51c-1.73-1-1.74-2.63,0-3.63l190-110.44a6.9,6.9,0,0,1,6.26,0Z"/><path class="cls-3" d="M74.27,168.71l190-110.44a6.91,6.91,0,0,1,6.26,0L377.45,120a2.92,2.92,0,0,1,1,.91c.61-.92.27-2-1-2.74L270.56,56.45a6.91,6.91,0,0,0-6.26,0l-190,110.44c-1.26.73-1.59,1.81-1,2.72A2.91,2.91,0,0,1,74.27,168.71Z"/></g><path class="cls-6" d="M390.73,74.62c10.14,5.86,10.2,15.35.12,21.21L170.25,224c-10.08,5.86-26.48,5.86-36.62,0l-86.09-49.7c-10.14-5.86-10.2-15.36-.12-21.21L268,24.92c10.08-5.86,26.48-5.86,36.63,0Z"/><path class="cls-7" d="M400.86,87.77a17.13,17.13,0,0,0-.49-2.44,16.32,16.32,0,0,0-.93-2.53,16.55,16.55,0,0,0-1.11-2,13.53,13.53,0,0,0-1.2-1.61,24.66,24.66,0,0,0-1.83-1.87,29.32,29.32,0,0,0-2.43-1.87c-.4-.28-1-.6-1.38-.86a.72.72,0,0,0-.76,0c10.14,5.86,10.2,15.35.12,21.21L170.25,224c-10.08,5.86-26.48,5.86-36.62,0h0l-86.09-49.7c-10.14-5.86-10.2-15.36-.12-21.21a.73.73,0,0,0-.78,0c-.78.48-1.8,1.16-2.54,1.7a13.18,13.18,0,0,0-1.15,1,22,22,0,0,0-1.62,1.63,17.15,17.15,0,0,0-1.59,2.13,16.15,16.15,0,0,0-1.89,4.33,17.75,17.75,0,0,0-.47,2.42,18.63,18.63,0,0,0-.14,2.19v1.2a9.8,9.8,0,0,0,.29,2.39,9.8,9.8,0,0,1-.29-2.39,17.6,17.6,0,0,0,.67,4.93,16.07,16.07,0,0,0,3.14,5.91,26.92,26.92,0,0,0,2,2,26.67,26.67,0,0,0,2.39,1.83c.39.28.95.59,1.35.84h0l86.09,49.7a28.4,28.4,0,0,0,3.49,1.71c1.07.41,2.52.91,3.61,1.26.57.18,1.35.36,1.93.51a44.87,44.87,0,0,0,10.06,1.13A44.2,44.2,0,0,0,162,238.3c.6-.14,1.39-.33,2-.52,1.09-.35,2.53-.85,3.59-1.27.56-.22,1.29-.57,1.82-.83s1.11-.6,1.58-.85a1.85,1.85,0,0,0,.69-1,1.85,1.85,0,0,1-.69,1l88.24-51.28,132.36-76.92c.75-.46,1.75-1.09,2.45-1.62s1.55-1.31,2.18-1.91a14.44,14.44,0,0,0,1.31-1.49c.39-.51.87-1.23,1.21-1.78a16.18,16.18,0,0,0,1.59-3.72,18.06,18.06,0,0,0,.5-2.4A19,19,0,0,0,401,91.3h0V90.1A18.53,18.53,0,0,0,400.86,87.77Z"/><path class="cls-8" d="M338.74,61.71a1.15,1.15,0,0,1,0,2.17,4.12,4.12,0,0,1-3.74,0L316.26,53.05a1.14,1.14,0,0,1,0-2.17,4.12,4.12,0,0,1,3.74,0Z"/><path class="cls-8" d="M309.16,44.63a1.14,1.14,0,0,1,0,2.17,4.12,4.12,0,0,1-3.73,0,1.14,1.14,0,0,1,0-2.17A4.12,4.12,0,0,1,309.16,44.63Z"/><path class="cls-8" d="M107.5,181.08c5.18,3,5.21,7.83.06,10.83s-13.51,3-18.69,0-5.2-7.84-.06-10.83S102.32,178.09,107.5,181.08Z"/><path class="cls-7" d="M90.12,182.4c5.15-3,13.51-3,18.69,0a11,11,0,0,1,1.39,1,9.27,9.27,0,0,0-2.72-2.28c-5.18-3-13.54-3-18.69,0-4.63,2.69-5.05,6.87-1.33,9.87C85.28,188.13,86.15,184.71,90.12,182.4Z"/><path class="cls-9" d="M367.44,98.16c1.73,1,1.74,2.62,0,3.62l-190,110.44a6.91,6.91,0,0,1-6.26,0L64.29,150.51c-1.73-1-1.74-2.63,0-3.63l190-110.44a6.9,6.9,0,0,1,6.26,0Z"/><path class="cls-10" d="M64.27,148.71l190-110.44a6.91,6.91,0,0,1,6.26,0L367.45,100a2.92,2.92,0,0,1,1,.91c.61-.92.27-2-1-2.74L260.56,36.45a6.91,6.91,0,0,0-6.26,0l-190,110.44c-1.26.73-1.59,1.81-1,2.72A2.91,2.91,0,0,1,64.27,148.71Z"/><g class="cls-5"><polygon points="270.21 206.99 270.21 208.62 256.82 216.41 256.82 214.78 270.21 206.99"/><polygon points="297.19 222.56 297.18 224.19 270.21 208.62 270.21 206.99 297.19 222.56"/><polygon points="297.19 222.56 283.79 230.35 256.82 214.78 270.21 206.99 297.19 222.56"/><polygon points="297.19 222.56 297.18 224.19 283.79 231.98 283.79 230.35 297.19 222.56"/><polygon points="283.79 230.35 283.79 231.98 256.82 216.41 256.82 214.78 283.79 230.35"/><g class="cls-11"><path d="M228.6,231.18v1.63c-2.5-1.44-3.75-3.34-3.74-5.23V226c0,1.89,1.24,3.79,3.74,5.23"/></g><polygon points="306.18 227.75 306.17 229.38 292.77 237.17 292.78 235.54 306.18 227.75"/><g class="cls-12"><path d="M420.61,252v1.63c0,1.87-1.23,3.73-3.68,5.15v-1.63c2.45-1.42,3.68-3.29,3.68-5.15"/></g><polygon points="414.69 258.43 414.69 260.06 288.82 187.39 288.83 185.76 414.69 258.43"/><polygon points="414.69 258.43 414.08 258.78 401.3 266.22 275.42 193.54 288.83 185.76 414.69 258.43"/><path d="M414.09,258.78l.61-.35L288.83,185.76l2.23-1.3c4.93-2.86,13-2.86,17.92,0l107.89,62.29c5,2.87,5,7.51.06,10.38Z"/><polygon points="414.69 258.43 414.69 260.06 414.08 260.41 414.08 258.78 414.69 258.43"/><polygon points="416.93 257.13 416.92 258.76 414.08 260.41 414.08 258.78 416.93 257.13"/><polygon points="401.3 266.22 401.3 267.85 275.42 195.18 275.42 193.54 401.3 266.22"/><polygon points="414.08 258.78 414.08 260.41 401.3 267.85 401.3 266.22 414.08 258.78"/><polygon points="378.1 269.28 378.09 270.91 306.17 229.38 306.18 227.75 378.1 269.28"/><polygon points="378.1 269.28 378.09 270.91 364.7 278.7 364.7 277.07 378.1 269.28"/><polygon points="364.7 277.07 364.7 278.7 292.77 237.17 292.78 235.54 364.7 277.07"/><path d="M401.3,266.22l-46.89,27.26c-4.94,2.87-13,2.86-17.92,0L228.6,231.18c-5-2.87-5-7.51-.06-10.38l46.89-27.25Zm-36.6,10.85,13.4-7.79-71.92-41.53-13.4,7.79,71.92,41.53m-80.91-46.72,13.4-7.79-27-15.58-13.39,7.79,27,15.57"/><polygon points="378.1 269.28 364.7 277.07 292.78 235.54 306.18 227.75 378.1 269.28"/><polygon points="401.3 266.22 401.29 267.85 354.4 295.1 354.41 293.47 401.3 266.22"/><polygon points="336.49 293.47 336.48 295.1 228.59 232.81 228.6 231.18 336.49 293.47"/><g class="cls-13"><path d="M354.41,293.47v1.63c-4.94,2.87-13,2.86-17.92,0v-1.63c5,2.86,13,2.87,17.92,0"/></g></g><g class="cls-2"><polygon class="cls-14" points="260.21 186.99 260.21 188.62 246.82 196.41 246.82 194.78 260.21 186.99"/><polygon class="cls-15" points="287.19 202.56 287.18 204.19 260.21 188.62 260.21 186.99 287.19 202.56"/><polygon class="cls-16" points="287.19 202.56 273.79 210.35 246.82 194.78 260.21 186.99 287.19 202.56"/><polygon class="cls-17" points="287.19 202.56 287.18 204.19 273.79 211.98 273.79 210.35 287.19 202.56"/><polygon class="cls-18" points="273.79 210.35 273.79 211.98 246.82 196.41 246.82 194.78 273.79 210.35"/><g class="cls-2"><g class="cls-19"><g class="cls-2"><path class="cls-20" d="M218.6,211.18v1.63c-2.5-1.44-3.75-3.34-3.74-5.23V206c0,1.89,1.24,3.79,3.74,5.23"/></g></g></g><polygon class="cls-14" points="296.18 207.75 296.17 209.38 282.77 217.17 282.78 215.54 296.18 207.75"/><g class="cls-2"><g class="cls-21"><g class="cls-2"><path class="cls-20" d="M410.61,232v1.63c0,1.87-1.23,3.73-3.68,5.15v-1.63c2.45-1.42,3.68-3.29,3.68-5.15"/></g></g></g><polygon class="cls-15" points="404.69 238.43 404.69 240.06 278.82 167.39 278.83 165.76 404.69 238.43"/><polygon class="cls-22" points="404.69 238.43 404.08 238.78 391.3 246.22 265.42 173.54 278.83 165.76 404.69 238.43"/><path class="cls-23" d="M404.09,238.78l.61-.35L278.83,165.76l2.23-1.3c4.93-2.86,13-2.86,17.92,0l107.89,62.29c5,2.87,5,7.51.06,10.38Z"/><polygon class="cls-24" points="404.69 238.43 404.69 240.06 404.08 240.41 404.08 238.78 404.69 238.43"/><polygon class="cls-14" points="406.93 237.13 406.92 238.76 404.08 240.41 404.08 238.78 406.93 237.13"/><polygon class="cls-25" points="391.3 246.22 391.3 247.85 265.42 175.18 265.42 173.54 391.3 246.22"/><polygon class="cls-24" points="404.08 238.78 404.08 240.41 391.3 247.85 391.3 246.22 404.08 238.78"/><polygon class="cls-15" points="368.1 249.28 368.09 250.91 296.17 209.38 296.18 207.75 368.1 249.28"/><polygon class="cls-26" points="368.1 249.28 368.09 250.91 354.7 258.7 354.7 257.07 368.1 249.28"/><polygon class="cls-27" points="354.7 257.07 354.7 258.7 282.77 217.17 282.78 215.54 354.7 257.07"/><path class="cls-23" d="M391.3,246.22l-46.89,27.26c-4.94,2.87-13,2.86-17.92,0L218.6,211.18c-5-2.87-5-7.51-.06-10.38l46.89-27.25Zm-36.6,10.85,13.4-7.79-71.92-41.53-13.4,7.79,71.92,41.53m-80.91-46.72,13.4-7.79-27-15.58-13.39,7.79,27,15.57"/><polygon class="cls-28" points="368.1 249.28 354.7 257.07 282.78 215.54 296.18 207.75 368.1 249.28"/><polygon class="cls-14" points="391.3 246.22 391.29 247.85 344.4 275.1 344.41 273.47 391.3 246.22"/><polygon class="cls-15" points="326.49 273.47 326.48 275.1 218.59 212.81 218.6 211.18 326.49 273.47"/><g class="cls-2"><g class="cls-29"><g class="cls-2"><path class="cls-20" d="M344.41,273.47v1.63c-4.94,2.87-13,2.86-17.92,0v-1.63c5,2.86,13,2.87,17.92,0"/></g></g></g></g><g class="cls-5"><path d="M388.25,122.72c.44.25.59.65.33,1a2.11,2.11,0,0,1-2,.45,1.85,1.85,0,0,1-.45-.18c-.44-.25-.59-.65-.33-1a2.11,2.11,0,0,1,2-.45A1.85,1.85,0,0,1,388.25,122.72Z"/><polygon points="291.89 65.49 291.8 66.07 287.24 65.83 287.49 68.36 286.49 68.39 286.17 65.19 291.89 65.49"/><path d="M389.1,125.15c.09.17.14.27-.07.31l-.4.08-.41.09a.3.3,0,0,1-.23,0,.85.85,0,0,1-.19-.18.78.78,0,0,0-.63-.3H387a.84.84,0,0,0-.65.28c-.15.15-.23.24-.43.19l-.39-.1-.4-.11-.09,0c-.1-.06,0-.14,0-.28s.14-.34-.07-.47l-.13-.08a1.22,1.22,0,0,0-.8-.07c-.24,0-.39.07-.48,0l-.06-.05c-.08-.12,0,0-.15-.23s-.08-.12-.15-.24.07-.16.35-.24.51-.18.52-.36v-.11a.31.31,0,0,0-.19-.26,1.47,1.47,0,0,0-.29-.12,1.87,1.87,0,0,1-.29-.11c-.07,0-.08-.08,0-.14l.18-.23.18-.23c.09-.12.25-.08.54,0a1.19,1.19,0,0,0,.81,0l.13-.07c.22-.13.2-.29.11-.46s-.14-.27.07-.31l.4-.08.41-.09a.3.3,0,0,1,.22,0,.76.76,0,0,1,.18.19.92.92,0,0,0,.23.2.8.8,0,0,0,.39.1h.18a.83.83,0,0,0,.65-.28c.15-.15.23-.25.43-.19l.39.1.4.11.09,0c.1.06,0,.14,0,.28s-.13.34.07.47l.12.08a1.22,1.22,0,0,0,.81.07c.24,0,.39-.07.48,0l.06.05.15.23a1.86,1.86,0,0,1,.15.24c.08.12-.07.16-.35.24s-.51.18-.52.36v.1a.32.32,0,0,0,.19.26,1.53,1.53,0,0,0,.3.12,1.87,1.87,0,0,1,.29.11c.07,0,.08.08,0,.14l-.17.22-.18.23c-.09.12-.25.08-.54,0a1.19,1.19,0,0,0-.81,0l-.13.07A.31.31,0,0,0,389.1,125.15Zm-2.54-1a2.11,2.11,0,0,0,2-.45c.26-.35.11-.74-.33-1a1.85,1.85,0,0,0-.45-.18,2.11,2.11,0,0,0-2,.45c-.26.35-.11.74.33,1a1.85,1.85,0,0,0,.45.18"/><path d="M328.87,92.23c0,.21-.3.38-.66.38a1,1,0,0,1-.47-.11.34.34,0,0,1-.2-.27V91.17a4.34,4.34,0,0,1-1.68-.52,1.67,1.67,0,0,1-1-1.35,1.65,1.65,0,0,1,1-1.36,5.15,5.15,0,0,1,4.68,0,1.66,1.66,0,0,1,1,1.35,1.63,1.63,0,0,1-1,1.36,4.4,4.4,0,0,1-1.67.52Zm-.68-1.79a2.83,2.83,0,0,0,1.4-.34,1,1,0,0,0,.57-.81,1,1,0,0,0-.58-.81,2.86,2.86,0,0,0-1.4-.34,2.83,2.83,0,0,0-1.4.34,1,1,0,0,0-.57.81,1,1,0,0,0,.6.8,2.83,2.83,0,0,0,1.39.34"/><path d="M329.58,88.48a1,1,0,0,1,.58.81,1,1,0,0,1-.57.81,3,3,0,0,1-2.79,0,1,1,0,0,1-.6-.8,1,1,0,0,1,.57-.81,2.83,2.83,0,0,1,1.4-.34A2.86,2.86,0,0,1,329.58,88.48Z"/><path d="M351.23,101.78a.43.43,0,0,1,0,.82,1.55,1.55,0,0,1-1.41,0l-14.07-8.12a.43.43,0,0,1,0-.82,1.56,1.56,0,0,1,1.41,0Z"/><path d="M382.57,115.83a.79.79,0,0,1,0,1.5l-5.8,3.37a2.85,2.85,0,0,1-2.59,0L294.27,74.57a.79.79,0,0,1,0-1.5l5.8-3.37a2.85,2.85,0,0,1,2.6,0ZM328.21,92.61c.36,0,.65-.17.66-.38V91.17a4.4,4.4,0,0,0,1.67-.52,1.63,1.63,0,0,0,1-1.36,1.66,1.66,0,0,0-1-1.35,5.15,5.15,0,0,0-4.68,0,1.65,1.65,0,0,0-1,1.36,1.67,1.67,0,0,0,1,1.35,4.34,4.34,0,0,0,1.68.52v1.06a.34.34,0,0,0,.2.27,1,1,0,0,0,.47.11m21.62,10a1.55,1.55,0,0,0,1.41,0,.43.43,0,0,0,0-.82l-14.07-8.12a1.56,1.56,0,0,0-1.41,0,.43.43,0,0,0,0,.82l14.07,8.12"/><path d="M401.39,120.76c1.44.83,1.44,2.18,0,3l-16,9.33-112.52-65,16-9.33a5.73,5.73,0,0,1,5.19,0Zm-24.62-.06,5.8-3.37a.79.79,0,0,0,0-1.5L302.66,69.7a2.85,2.85,0,0,0-2.6,0l-5.8,3.37a.79.79,0,0,0,0,1.5l79.91,46.14a2.85,2.85,0,0,0,2.59,0m12.33,4.44a.31.31,0,0,1,.12-.47l.11-.07a1.23,1.23,0,0,1,.83,0c.29.06.45.09.54,0l.18-.23.18-.23c0-.06,0-.1,0-.14a1.87,1.87,0,0,0-.29-.11,1.53,1.53,0,0,1-.3-.12.32.32,0,0,1-.19-.26v-.1c0-.18.23-.29.52-.37s.43-.12.35-.24a2.15,2.15,0,0,0-.15-.23l-.15-.24-.06-.05c-.09-.05-.25,0-.48,0a1.22,1.22,0,0,1-.81-.07l-.11-.07a.31.31,0,0,1-.08-.48c.08-.14.14-.23,0-.28l-.09,0-.4-.11-.39-.1c-.2-.06-.28,0-.43.19a.83.83,0,0,1-.65.28h-.17a.82.82,0,0,1-.4-.1.92.92,0,0,1-.23-.2.76.76,0,0,0-.18-.19.3.3,0,0,0-.22,0l-.41.09-.41.09c-.2,0-.15.14-.07.31s.1.34-.11.46l-.12.07a1.23,1.23,0,0,1-.83,0c-.29-.06-.45-.09-.54,0a2.16,2.16,0,0,0-.17.22l-.18.23c0,.06,0,.1,0,.14a1.87,1.87,0,0,0,.29.11,1.47,1.47,0,0,1,.29.12.31.31,0,0,1,.19.26v.1c0,.18-.23.29-.52.37s-.43.12-.35.24,0,0,.15.23.08.12.15.24l.06.05c.09.05.24,0,.48,0a1.22,1.22,0,0,1,.8.07l.12.07c.22.14.19.31.08.48s-.14.23,0,.28l.09,0,.4.1.4.1c.2.05.28,0,.43-.19a.84.84,0,0,1,.65-.28h.17a.83.83,0,0,1,.41.1.82.82,0,0,1,.23.2.85.85,0,0,0,.19.18.3.3,0,0,0,.23,0l.4-.08.41-.09c.21,0,.16-.14.07-.31M287.49,68.36l-.25-2.53,4.56.24.09-.58-5.72-.3.32,3.2,1,0"/></g><path class="cls-30" d="M378.25,102.72c.44.25.59.65.33,1a2.11,2.11,0,0,1-2,.45,1.85,1.85,0,0,1-.45-.18c-.44-.25-.59-.65-.33-1a2.11,2.11,0,0,1,2-.45A1.85,1.85,0,0,1,378.25,102.72Z"/><polygon class="cls-31" points="281.89 45.49 281.8 46.07 277.24 45.83 277.49 48.36 276.49 48.39 276.17 45.2 281.89 45.49"/><path class="cls-31" d="M379.1,105.15c.09.17.14.27-.07.31l-.4.08-.41.09a.3.3,0,0,1-.23,0,.85.85,0,0,1-.19-.18.78.78,0,0,0-.63-.3H377a.84.84,0,0,0-.65.28c-.15.15-.23.24-.43.19l-.39-.1-.4-.11-.09,0c-.1-.06,0-.14,0-.28s.14-.34-.07-.47l-.13-.08a1.22,1.22,0,0,0-.8-.07c-.24,0-.39.07-.48,0l-.06-.05c-.08-.12,0,0-.15-.23s-.08-.12-.15-.24.07-.16.35-.24.51-.18.52-.36v-.11a.31.31,0,0,0-.19-.26,1.47,1.47,0,0,0-.29-.12,1.87,1.87,0,0,1-.29-.11c-.07,0-.08-.08,0-.14l.18-.23.18-.23c.09-.12.25-.08.54,0a1.19,1.19,0,0,0,.81,0l.13-.07c.22-.13.2-.29.11-.46s-.14-.27.07-.31l.4-.08.41-.09a.3.3,0,0,1,.22,0,.76.76,0,0,1,.18.19.92.92,0,0,0,.23.2.8.8,0,0,0,.39.1h.18a.83.83,0,0,0,.65-.28c.15-.15.23-.25.43-.19l.39.1.4.11.09,0c.1.06,0,.14,0,.28s-.13.34.07.47l.12.08a1.22,1.22,0,0,0,.81.07c.24,0,.39-.07.48,0l.06.05.15.23a1.86,1.86,0,0,1,.15.24c.08.12-.07.16-.35.24s-.51.18-.52.36v.1a.32.32,0,0,0,.19.26,1.53,1.53,0,0,0,.3.12,1.87,1.87,0,0,1,.29.11c.07,0,.08.08,0,.14l-.17.22-.18.23c-.09.12-.25.08-.54,0a1.19,1.19,0,0,0-.81,0l-.13.07A.31.31,0,0,0,379.1,105.15Zm-2.54-1a2.11,2.11,0,0,0,2-.45c.26-.35.11-.74-.33-1a1.85,1.85,0,0,0-.45-.18,2.11,2.11,0,0,0-2,.45c-.26.35-.11.74.33,1a1.85,1.85,0,0,0,.45.18"/><path class="cls-9" d="M318.87,72.23c0,.21-.3.38-.66.38a1,1,0,0,1-.47-.11.34.34,0,0,1-.2-.27V71.17a4.34,4.34,0,0,1-1.68-.52,1.67,1.67,0,0,1-1-1.35,1.65,1.65,0,0,1,1-1.36,5.15,5.15,0,0,1,4.68,0,1.66,1.66,0,0,1,1,1.35,1.63,1.63,0,0,1-1,1.36,4.4,4.4,0,0,1-1.67.52Zm-.68-1.79a2.83,2.83,0,0,0,1.4-.34,1,1,0,0,0,.57-.81,1,1,0,0,0-.58-.81,2.86,2.86,0,0,0-1.4-.34,2.83,2.83,0,0,0-1.4.34,1,1,0,0,0-.57.81,1,1,0,0,0,.6.8,2.83,2.83,0,0,0,1.39.34"/><path class="cls-31" d="M319.58,68.48a1,1,0,0,1,.58.81,1,1,0,0,1-.57.81,3,3,0,0,1-2.79,0,1,1,0,0,1-.6-.8,1,1,0,0,1,.57-.81,2.83,2.83,0,0,1,1.4-.34A2.86,2.86,0,0,1,319.58,68.48Z"/><path class="cls-9" d="M341.23,81.78a.43.43,0,0,1,0,.82,1.55,1.55,0,0,1-1.41,0l-14.07-8.12a.43.43,0,0,1,0-.82,1.56,1.56,0,0,1,1.41,0Z"/><path class="cls-31" d="M372.57,95.83a.79.79,0,0,1,0,1.5l-5.8,3.37a2.85,2.85,0,0,1-2.59,0L284.27,54.57a.79.79,0,0,1,0-1.5l5.8-3.37a2.85,2.85,0,0,1,2.6,0ZM318.21,72.61c.36,0,.65-.17.66-.38V71.17a4.4,4.4,0,0,0,1.67-.52,1.63,1.63,0,0,0,1-1.36,1.66,1.66,0,0,0-1-1.35,5.15,5.15,0,0,0-4.68,0,1.65,1.65,0,0,0-1,1.36,1.67,1.67,0,0,0,1,1.35,4.34,4.34,0,0,0,1.68.52v1.06a.34.34,0,0,0,.2.27,1,1,0,0,0,.47.11m21.62,10a1.55,1.55,0,0,0,1.41,0,.43.43,0,0,0,0-.82l-14.07-8.12a1.56,1.56,0,0,0-1.41,0,.43.43,0,0,0,0,.82l14.07,8.12"/><path class="cls-30" d="M391.39,100.76c1.44.83,1.44,2.18,0,3l-16,9.33-112.52-65,16-9.33a5.73,5.73,0,0,1,5.19,0Zm-24.62-.06,5.8-3.37a.79.79,0,0,0,0-1.5L292.66,49.7a2.85,2.85,0,0,0-2.6,0l-5.8,3.37a.79.79,0,0,0,0,1.5l79.91,46.14a2.85,2.85,0,0,0,2.59,0m12.33,4.44a.31.31,0,0,1,.12-.47l.11-.07a1.23,1.23,0,0,1,.83,0c.29.06.45.09.54,0l.18-.23.18-.23c0-.06,0-.1,0-.14a1.87,1.87,0,0,0-.29-.11,1.53,1.53,0,0,1-.3-.12.32.32,0,0,1-.19-.26v-.1c0-.18.23-.29.52-.37s.43-.12.35-.24a2.15,2.15,0,0,0-.15-.23l-.15-.24-.06-.05c-.09-.05-.25,0-.48,0a1.22,1.22,0,0,1-.81-.07l-.11-.07a.31.31,0,0,1-.08-.48c.08-.14.14-.23,0-.28l-.09,0-.4-.11-.39-.1c-.2-.06-.28,0-.43.19a.83.83,0,0,1-.65.28h-.17a.82.82,0,0,1-.4-.1.92.92,0,0,1-.23-.2.76.76,0,0,0-.18-.19.3.3,0,0,0-.22,0l-.41.09-.41.09c-.2,0-.15.14-.07.31s.1.34-.11.46l-.12.07a1.23,1.23,0,0,1-.83,0c-.29-.06-.45-.09-.54,0a2.16,2.16,0,0,0-.17.22l-.18.23c0,.06,0,.1,0,.14a1.87,1.87,0,0,0,.29.11,1.47,1.47,0,0,1,.29.12.31.31,0,0,1,.19.26v.1c0,.18-.23.29-.52.37s-.43.12-.35.24,0,0,.15.23.08.12.15.24l.06.05c.09.05.24,0,.48,0a1.22,1.22,0,0,1,.8.07l.12.07c.22.14.19.31.08.48s-.14.23,0,.28l.09,0,.4.1.4.1c.2.05.28,0,.43-.19a.84.84,0,0,1,.65-.28h.17a.83.83,0,0,1,.41.1.82.82,0,0,1,.23.2.85.85,0,0,0,.19.18.3.3,0,0,0,.23,0l.4-.08.41-.09c.21,0,.16-.14.07-.31M277.49,48.36l-.25-2.53,4.56.24.09-.58-5.72-.3.32,3.2,1,0"/><g class="cls-5"><path d="M141.14,184.54a.8.8,0,0,1,0,1.5l-3,1.74a2.86,2.86,0,0,1-2.6,0l-3-1.75a.79.79,0,0,1,0-1.5l3-1.74a2.85,2.85,0,0,1,2.59,0Zm-3.8,2.25v-1.21h2.09c.28,0,.5-.13.5-.29a.26.26,0,0,0-.15-.2.71.71,0,0,0-.35-.08h-2.1v-1.21a.27.27,0,0,0-.15-.2.74.74,0,0,0-.35-.09c-.28,0-.5.13-.5.29V185h-2.1c-.28,0-.5.13-.49.29a.25.25,0,0,0,.15.21.73.73,0,0,0,.36.08h2.09v1.21a.24.24,0,0,0,.14.2.73.73,0,0,0,.36.08c.27,0,.5-.13.49-.29"/><path d="M118,172.62v1.21h-1v-1.21c0-.16.22-.29.5-.29a.71.71,0,0,1,.35.08A.26.26,0,0,1,118,172.62Z"/><path d="M118,175.63c0,.16-.23.29-.49.29a.73.73,0,0,1-.36-.08.25.25,0,0,1-.15-.21v-1.21h1Z"/><path d="M120.43,173.92a.27.27,0,0,1,.15.2c0,.16-.23.29-.5.29H114.9a.73.73,0,0,1-.36-.08.24.24,0,0,1-.14-.2c0-.16.21-.29.49-.29h5.19A.74.74,0,0,1,120.43,173.92Z"/><path d="M137.34,186.8c0,.16-.22.29-.49.29a.73.73,0,0,1-.36-.08.24.24,0,0,1-.14-.2v-1.21h1Z"/><path d="M137,190.47a.22.22,0,0,1,0,.41.78.78,0,0,1-.71,0l-9.1-5.26c-.2-.11-.2-.3,0-.41a.78.78,0,0,1,.71,0Z"/><path d="M105,161l112.52,65L207.11,232a5.73,5.73,0,0,1-5.19,0l-107.31-62c-1.44-.83-1.44-2.18,0-3Zm69.17,44.13-3,1.74a.8.8,0,0,0,0,1.5l3,1.75a2.86,2.86,0,0,0,2.6,0l3-1.74a.8.8,0,0,0,0-1.5l-3-1.75a2.86,2.86,0,0,0-2.6,0M154.87,194l-3,1.74a.79.79,0,0,0,0,1.5l3,1.74a2.85,2.85,0,0,0,2.6,0l3-1.74a.79.79,0,0,0,0-1.5l-3-1.74a2.85,2.85,0,0,0-2.6,0M135.52,182.8l-3,1.74a.79.79,0,0,0,0,1.5l3,1.75a2.86,2.86,0,0,0,2.6,0l3-1.74a.8.8,0,0,0,0-1.5l-3-1.75a2.85,2.85,0,0,0-2.59,0m58,33.51-3,1.74a.79.79,0,0,0,0,1.5l3,1.74a2.85,2.85,0,0,0,2.6,0l3-1.74a.79.79,0,0,0,0-1.5l-3-1.74a2.85,2.85,0,0,0-2.6,0m-77.39-44.69-3,1.74a.79.79,0,0,0,0,1.5l3,1.74a2.85,2.85,0,0,0,2.6,0l3-1.74a.79.79,0,0,0,0-1.5l-3-1.74a2.85,2.85,0,0,0-2.6,0m20.13,19.25a.78.78,0,0,0,.71,0,.22.22,0,0,0,0-.41l-9.1-5.26a.78.78,0,0,0-.71,0c-.19.11-.19.29,0,.41l9.1,5.26M175,213.22a.78.78,0,0,0,.71,0,.22.22,0,0,0,0-.41l-9.1-5.26a.78.78,0,0,0-.71,0c-.19.11-.19.29,0,.41l9.1,5.26m19.35,11.17a.78.78,0,0,0,.71,0,.22.22,0,0,0,0-.41l-9.1-5.26a.78.78,0,0,0-.71,0,.22.22,0,0,0,0,.41l9.1,5.26M117,179.71a.78.78,0,0,0,.7,0,.22.22,0,0,0,0-.41l-9.1-5.26a.78.78,0,0,0-.71,0c-.19.11-.19.29,0,.41l9.1,5.26M155.65,202a.78.78,0,0,0,.7,0,.22.22,0,0,0,0-.41l-9.11-5.26a.78.78,0,0,0-.71,0,.22.22,0,0,0,0,.41l9.11,5.26"/><path d="M121.79,173.37a.79.79,0,0,1,0,1.5l-3,1.74a2.85,2.85,0,0,1-2.6,0l-3-1.74a.79.79,0,0,1,0-1.5l3-1.74a2.85,2.85,0,0,1,2.6,0ZM118,175.63v-1.21h2.09c.27,0,.5-.13.5-.29a.27.27,0,0,0-.15-.2.74.74,0,0,0-.35-.09H118v-1.21a.26.26,0,0,0-.15-.2.71.71,0,0,0-.35-.08c-.28,0-.5.13-.5.29v1.21h-2.09c-.28,0-.5.13-.49.29a.24.24,0,0,0,.14.2.73.73,0,0,0,.36.08H117v1.21a.25.25,0,0,0,.15.21.73.73,0,0,0,.36.08c.27,0,.49-.13.49-.29"/><path d="M117.66,179.3a.22.22,0,0,1,0,.41.78.78,0,0,1-.7,0l-9.1-5.26c-.2-.11-.2-.3,0-.41a.78.78,0,0,1,.71,0Z"/><path d="M139.78,185.09a.26.26,0,0,1,.15.2c0,.16-.22.29-.5.29h-5.18a.73.73,0,0,1-.36-.08.25.25,0,0,1-.15-.21c0-.16.21-.29.49-.29h5.19A.71.71,0,0,1,139.78,185.09Z"/><path d="M137.33,183.79V185h-1v-1.21c0-.16.22-.29.5-.29a.74.74,0,0,1,.35.09A.27.27,0,0,1,137.33,183.79Z"/><path d="M156.69,198c0,.16-.23.29-.49.29a.73.73,0,0,1-.36-.08.25.25,0,0,1-.15-.21v-1.21h1Z"/><path d="M156.68,195v1.21h-1V195c0-.16.22-.29.5-.29a.71.71,0,0,1,.35.08A.26.26,0,0,1,156.68,195Z"/><path d="M159.13,196.26a.27.27,0,0,1,.15.2c0,.16-.23.29-.5.29h-5.19a.73.73,0,0,1-.36-.08.24.24,0,0,1-.14-.2c0-.16.21-.29.49-.29h5.19A.74.74,0,0,1,159.13,196.26Z"/><path d="M156.36,201.64a.22.22,0,0,1,0,.41.78.78,0,0,1-.7,0l-9.11-5.26a.22.22,0,0,1,0-.41.78.78,0,0,1,.71,0Z"/><path d="M160.49,195.71a.79.79,0,0,1,0,1.5l-3,1.74a2.85,2.85,0,0,1-2.6,0l-3-1.74a.79.79,0,0,1,0-1.5l3-1.74a2.85,2.85,0,0,1,2.6,0ZM156.69,198v-1.21h2.09c.27,0,.5-.13.5-.29a.27.27,0,0,0-.15-.2.74.74,0,0,0-.35-.09h-2.09V195a.26.26,0,0,0-.15-.2.71.71,0,0,0-.35-.08c-.28,0-.5.13-.5.29v1.21h-2.09c-.28,0-.5.13-.49.29a.24.24,0,0,0,.14.2.73.73,0,0,0,.36.08h2.09V198a.25.25,0,0,0,.15.21.73.73,0,0,0,.36.08c.27,0,.49-.13.49-.29"/><path d="M178.47,207.43a.27.27,0,0,1,.15.2c0,.16-.22.29-.5.29h-5.18a.73.73,0,0,1-.36-.08.25.25,0,0,1-.15-.21c0-.16.21-.29.49-.29h5.19A.74.74,0,0,1,178.47,207.43Z"/><path d="M176,209.14c0,.16-.22.29-.49.29a.73.73,0,0,1-.36-.08.25.25,0,0,1-.15-.21v-1.21h1Z"/><path d="M175.7,212.81a.22.22,0,0,1,0,.41.78.78,0,0,1-.71,0l-9.1-5.26c-.2-.11-.2-.3,0-.41a.78.78,0,0,1,.71,0Z"/><path d="M176,206.13v1.21h-1v-1.21c0-.16.22-.29.5-.29a.74.74,0,0,1,.35.09A.27.27,0,0,1,176,206.13Z"/><path d="M179.84,206.89a.8.8,0,0,1,0,1.5l-3,1.74a2.86,2.86,0,0,1-2.6,0l-3-1.75a.8.8,0,0,1,0-1.5l3-1.74a2.86,2.86,0,0,1,2.6,0Zm-3.8,2.25v-1.21h2.09c.28,0,.5-.13.5-.29a.27.27,0,0,0-.15-.2.74.74,0,0,0-.35-.09H176v-1.21a.27.27,0,0,0-.15-.2.74.74,0,0,0-.35-.09c-.28,0-.5.13-.5.29v1.21h-2.09c-.28,0-.5.13-.49.29a.25.25,0,0,0,.15.21.73.73,0,0,0,.36.08H175v1.21a.25.25,0,0,0,.15.21.73.73,0,0,0,.36.08c.27,0,.5-.13.49-.29"/><path d="M197.82,218.6a.25.25,0,0,1,.15.2c0,.16-.22.29-.5.29h-5.18a.73.73,0,0,1-.36-.08.25.25,0,0,1-.15-.21c0-.15.22-.28.49-.29h5.19A.74.74,0,0,1,197.82,218.6Z"/><path d="M195.38,220.31c0,.16-.22.29-.49.29a.7.7,0,0,1-.35-.08.25.25,0,0,1-.15-.21V219.1h1Z"/><path d="M195,224a.22.22,0,0,1,0,.41.78.78,0,0,1-.71,0l-9.1-5.26a.22.22,0,0,1,0-.41.78.78,0,0,1,.71,0Z"/><path d="M195.37,217.3v1.21h-1V217.3c0-.16.23-.29.5-.29a.74.74,0,0,1,.35.09A.27.27,0,0,1,195.37,217.3Z"/><path d="M199.18,218.06a.79.79,0,0,1,0,1.5l-3,1.74a2.85,2.85,0,0,1-2.6,0l-3-1.74a.79.79,0,0,1,0-1.5l3-1.74a2.85,2.85,0,0,1,2.6,0Zm-3.8,2.25V219.1h2.09c.28,0,.5-.13.5-.29a.25.25,0,0,0-.15-.2.74.74,0,0,0-.35-.09h-2.1V217.3a.27.27,0,0,0-.15-.2.74.74,0,0,0-.35-.09c-.27,0-.5.13-.5.29v1.21h-2.1c-.27,0-.5.13-.49.29a.25.25,0,0,0,.15.21.73.73,0,0,0,.36.08h2.09v1.21a.25.25,0,0,0,.15.21.7.7,0,0,0,.35.08c.27,0,.5-.13.49-.29"/></g><path class="cls-32" d="M131.14,164.54a.8.8,0,0,1,0,1.5l-3,1.74a2.86,2.86,0,0,1-2.6,0l-3-1.75a.79.79,0,0,1,0-1.5l3-1.74a2.85,2.85,0,0,1,2.59,0Zm-3.8,2.25v-1.21h2.09c.28,0,.5-.13.5-.29a.26.26,0,0,0-.15-.2.71.71,0,0,0-.35-.08h-2.1v-1.21a.27.27,0,0,0-.15-.2.74.74,0,0,0-.35-.09c-.28,0-.5.13-.5.29V165h-2.1c-.28,0-.5.13-.49.29a.25.25,0,0,0,.15.21.73.73,0,0,0,.36.08h2.09v1.21a.24.24,0,0,0,.14.2.73.73,0,0,0,.36.08c.27,0,.5-.13.49-.29"/><g class="cls-2"><path class="cls-31" d="M108,152.62v1.21h-1v-1.21c0-.16.22-.29.5-.29a.71.71,0,0,1,.35.08A.26.26,0,0,1,108,152.62Z"/><path class="cls-31" d="M108,155.63c0,.16-.23.29-.49.29a.73.73,0,0,1-.36-.08.25.25,0,0,1-.15-.21v-1.21h1Z"/><path class="cls-31" d="M110.43,153.92a.27.27,0,0,1,.15.2c0,.16-.23.29-.5.29H104.9a.73.73,0,0,1-.36-.08.24.24,0,0,1-.14-.2c0-.16.21-.29.49-.29h5.19A.74.74,0,0,1,110.43,153.92Z"/><path class="cls-31" d="M127.34,166.8c0,.16-.22.29-.49.29a.73.73,0,0,1-.36-.08.24.24,0,0,1-.14-.2v-1.21h1Z"/><path class="cls-31" d="M127,170.47a.22.22,0,0,1,0,.41.78.78,0,0,1-.71,0l-9.1-5.26c-.2-.11-.2-.3,0-.41a.78.78,0,0,1,.71,0Z"/><path class="cls-30" d="M95,141l112.52,65L197.11,212a5.73,5.73,0,0,1-5.19,0l-107.31-62c-1.44-.83-1.44-2.18,0-3Zm69.17,44.13-3,1.74a.8.8,0,0,0,0,1.5l3,1.75a2.86,2.86,0,0,0,2.6,0l3-1.74a.8.8,0,0,0,0-1.5l-3-1.75a2.86,2.86,0,0,0-2.6,0M144.87,174l-3,1.74a.79.79,0,0,0,0,1.5l3,1.74a2.85,2.85,0,0,0,2.6,0l3-1.74a.79.79,0,0,0,0-1.5l-3-1.74a2.85,2.85,0,0,0-2.6,0M125.52,162.8l-3,1.74a.79.79,0,0,0,0,1.5l3,1.75a2.86,2.86,0,0,0,2.6,0l3-1.74a.8.8,0,0,0,0-1.5l-3-1.75a2.85,2.85,0,0,0-2.59,0m58,33.51-3,1.74a.79.79,0,0,0,0,1.5l3,1.74a2.85,2.85,0,0,0,2.6,0l3-1.74a.79.79,0,0,0,0-1.5l-3-1.74a2.85,2.85,0,0,0-2.6,0m-77.39-44.69-3,1.74a.79.79,0,0,0,0,1.5l3,1.74a2.85,2.85,0,0,0,2.6,0l3-1.74a.79.79,0,0,0,0-1.5l-3-1.74a2.85,2.85,0,0,0-2.6,0m20.13,19.25a.78.78,0,0,0,.71,0,.22.22,0,0,0,0-.41l-9.1-5.26a.78.78,0,0,0-.71,0c-.19.11-.19.29,0,.41l9.1,5.26M165,193.22a.78.78,0,0,0,.71,0,.22.22,0,0,0,0-.41l-9.1-5.26a.78.78,0,0,0-.71,0c-.19.11-.19.29,0,.41l9.1,5.26m19.35,11.17a.78.78,0,0,0,.71,0,.22.22,0,0,0,0-.41l-9.1-5.26a.78.78,0,0,0-.71,0,.22.22,0,0,0,0,.41l9.1,5.26M107,159.71a.78.78,0,0,0,.7,0,.22.22,0,0,0,0-.41L98.56,154a.78.78,0,0,0-.71,0c-.19.11-.19.29,0,.41l9.1,5.26M145.65,182a.78.78,0,0,0,.7,0,.22.22,0,0,0,0-.41l-9.11-5.26a.78.78,0,0,0-.71,0,.22.22,0,0,0,0,.41l9.11,5.26"/><path class="cls-32" d="M111.79,153.37a.79.79,0,0,1,0,1.5l-3,1.74a2.85,2.85,0,0,1-2.6,0l-3-1.74a.79.79,0,0,1,0-1.5l3-1.74a2.85,2.85,0,0,1,2.6,0ZM108,155.63v-1.21h2.09c.27,0,.5-.13.5-.29a.27.27,0,0,0-.15-.2.74.74,0,0,0-.35-.09H108v-1.21a.26.26,0,0,0-.15-.2.71.71,0,0,0-.35-.08c-.28,0-.5.13-.5.29v1.21h-2.09c-.28,0-.5.13-.49.29a.24.24,0,0,0,.14.2.73.73,0,0,0,.36.08H107v1.21a.25.25,0,0,0,.15.21.73.73,0,0,0,.36.08c.27,0,.49-.13.49-.29"/><path class="cls-31" d="M107.66,159.3a.22.22,0,0,1,0,.41.78.78,0,0,1-.7,0l-9.1-5.26c-.2-.11-.2-.3,0-.41a.78.78,0,0,1,.71,0Z"/><path class="cls-31" d="M129.78,165.09a.26.26,0,0,1,.15.2c0,.16-.22.29-.5.29h-5.18a.73.73,0,0,1-.36-.08.25.25,0,0,1-.15-.21c0-.16.21-.29.49-.29h5.19A.71.71,0,0,1,129.78,165.09Z"/></g><path class="cls-31" d="M127.33,163.79V165h-1v-1.21c0-.16.22-.29.5-.29a.74.74,0,0,1,.35.09A.27.27,0,0,1,127.33,163.79Z"/><path class="cls-31" d="M146.69,178c0,.16-.23.29-.49.29a.73.73,0,0,1-.36-.08.25.25,0,0,1-.15-.21v-1.21h1Z"/><g class="cls-2"><path class="cls-31" d="M146.68,175v1.21h-1V175c0-.16.22-.29.5-.29a.71.71,0,0,1,.35.08A.26.26,0,0,1,146.68,175Z"/><path class="cls-31" d="M149.13,176.26a.27.27,0,0,1,.15.2c0,.16-.23.29-.5.29h-5.19a.73.73,0,0,1-.36-.08.24.24,0,0,1-.14-.2c0-.16.21-.29.49-.29h5.19A.74.74,0,0,1,149.13,176.26Z"/><path class="cls-31" d="M146.36,181.64a.22.22,0,0,1,0,.41.78.78,0,0,1-.7,0l-9.11-5.26a.22.22,0,0,1,0-.41.78.78,0,0,1,.71,0Z"/></g><path class="cls-32" d="M150.49,175.71a.79.79,0,0,1,0,1.5l-3,1.74a2.85,2.85,0,0,1-2.6,0l-3-1.74a.79.79,0,0,1,0-1.5l3-1.74a2.85,2.85,0,0,1,2.6,0ZM146.69,178v-1.21h2.09c.27,0,.5-.13.5-.29a.27.27,0,0,0-.15-.2.74.74,0,0,0-.35-.09h-2.09V175a.26.26,0,0,0-.15-.2.71.71,0,0,0-.35-.08c-.28,0-.5.13-.5.29v1.21h-2.09c-.28,0-.5.13-.49.29a.24.24,0,0,0,.14.2.73.73,0,0,0,.36.08h2.09V178a.25.25,0,0,0,.15.21.73.73,0,0,0,.36.08c.27,0,.49-.13.49-.29"/><path class="cls-31" d="M168.47,187.43a.27.27,0,0,1,.15.2c0,.16-.22.29-.5.29h-5.18a.73.73,0,0,1-.36-.08.25.25,0,0,1-.15-.21c0-.16.21-.29.49-.29h5.19A.74.74,0,0,1,168.47,187.43Z"/><path class="cls-31" d="M166,189.14c0,.16-.22.29-.49.29a.73.73,0,0,1-.36-.08.25.25,0,0,1-.15-.21v-1.21h1Z"/><path class="cls-31" d="M165.7,192.81a.22.22,0,0,1,0,.41.78.78,0,0,1-.71,0l-9.1-5.26c-.2-.11-.2-.3,0-.41a.78.78,0,0,1,.71,0Z"/><path class="cls-31" d="M166,186.13v1.21h-1v-1.21c0-.16.22-.29.5-.29a.74.74,0,0,1,.35.09A.27.27,0,0,1,166,186.13Z"/><path class="cls-32" d="M169.84,186.89a.8.8,0,0,1,0,1.5l-3,1.74a2.86,2.86,0,0,1-2.6,0l-3-1.75a.8.8,0,0,1,0-1.5l3-1.74a2.86,2.86,0,0,1,2.6,0Zm-3.8,2.25v-1.21h2.09c.28,0,.5-.13.5-.29a.27.27,0,0,0-.15-.2.74.74,0,0,0-.35-.09H166v-1.21a.27.27,0,0,0-.15-.2.74.74,0,0,0-.35-.09c-.28,0-.5.13-.5.29v1.21h-2.09c-.28,0-.5.13-.49.29a.25.25,0,0,0,.15.21.73.73,0,0,0,.36.08H165v1.21a.25.25,0,0,0,.15.21.73.73,0,0,0,.36.08c.27,0,.5-.13.49-.29"/><g class="cls-2"><path class="cls-31" d="M187.82,198.6a.25.25,0,0,1,.15.2c0,.16-.22.29-.5.29h-5.18a.73.73,0,0,1-.36-.08.25.25,0,0,1-.15-.21c0-.15.22-.28.49-.29h5.19A.74.74,0,0,1,187.82,198.6Z"/><path class="cls-31" d="M185.38,200.31c0,.16-.22.29-.49.29a.7.7,0,0,1-.35-.08.25.25,0,0,1-.15-.21V199.1h1Z"/><path class="cls-31" d="M185,204a.22.22,0,0,1,0,.41.78.78,0,0,1-.71,0l-9.1-5.26a.22.22,0,0,1,0-.41.78.78,0,0,1,.71,0Z"/></g><path class="cls-31" d="M185.37,197.3v1.21h-1V197.3c0-.16.23-.29.5-.29a.74.74,0,0,1,.35.09A.27.27,0,0,1,185.37,197.3Z"/><path class="cls-32" d="M189.18,198.06a.79.79,0,0,1,0,1.5l-3,1.74a2.85,2.85,0,0,1-2.6,0l-3-1.74a.79.79,0,0,1,0-1.5l3-1.74a2.85,2.85,0,0,1,2.6,0Zm-3.8,2.25V199.1h2.09c.28,0,.5-.13.5-.29a.25.25,0,0,0-.15-.2.74.74,0,0,0-.35-.09h-2.1V197.3a.27.27,0,0,0-.15-.2.74.74,0,0,0-.35-.09c-.27,0-.5.13-.5.29v1.21h-2.1c-.27,0-.5.13-.49.29a.25.25,0,0,0,.15.21.73.73,0,0,0,.36.08h2.09v1.21a.25.25,0,0,0,.15.21.7.7,0,0,0,.35.08c.27,0,.5-.13.49-.29"/><g class="cls-5"><path d="M275.3,172.5a.87.87,0,0,1,0,1.64,3.12,3.12,0,0,1-2.83,0l-65-37.55a.86.86,0,0,1,0-1.64,3.1,3.1,0,0,1,2.83,0Z"/><path d="M253.87,166.12a.86.86,0,0,1,0,1.64,3.1,3.1,0,0,1-2.83,0L202.28,139.6a.86.86,0,0,1,0-1.64,3.1,3.1,0,0,1,2.83,0Z"/><path d="M249.56,179.93a.43.43,0,0,1,0,.82,1.57,1.57,0,0,1-1.42,0L189.62,147c-.4-.23-.39-.59,0-.82a1.55,1.55,0,0,1,1.41,0Z"/><path d="M256.46,175.92a.43.43,0,0,1,0,.82,1.56,1.56,0,0,1-1.41,0l-58.53-33.79a.43.43,0,0,1,0-.82,1.54,1.54,0,0,1,1.41,0Z"/><path d="M272.52,189.19a.43.43,0,0,1,0,.82,1.57,1.57,0,0,1-1.42,0l-78-45.06c-.4-.23-.39-.59,0-.82a1.55,1.55,0,0,1,1.41,0Z"/><path d="M204.33,118.43l112.52,65L253,220.49l-112.52-65ZM210.27,135a3.1,3.1,0,0,0-2.83,0,.86.86,0,0,0,0,1.64l65,37.55a3.12,3.12,0,0,0,2.83,0,.87.87,0,0,0,0-1.64l-65-37.55m-8,3a.86.86,0,0,0,0,1.64l48.77,28.16a3.1,3.1,0,0,0,2.83,0,.86.86,0,0,0,0-1.64L205.1,138a3.1,3.1,0,0,0-2.83,0m68.84,52a1.57,1.57,0,0,0,1.42,0,.43.43,0,0,0,0-.82l-78-45.06a1.55,1.55,0,0,0-1.41,0c-.39.23-.4.59,0,.82l78,45.06m-23-9.26a1.57,1.57,0,0,0,1.42,0,.43.43,0,0,0,0-.82L191,146.13a1.55,1.55,0,0,0-1.41,0c-.39.23-.4.59,0,.82l58.53,33.79m8.31-4a.43.43,0,0,0,0-.82l-58.53-33.79a1.54,1.54,0,0,0-1.41,0,.43.43,0,0,0,0,.82L255,176.74a1.56,1.56,0,0,0,1.41,0"/></g><path class="cls-30" d="M265.3,152.5a.87.87,0,0,1,0,1.64,3.12,3.12,0,0,1-2.83,0l-65-37.55a.86.86,0,0,1,0-1.64,3.1,3.1,0,0,1,2.83,0Z"/><path class="cls-30" d="M243.87,146.12a.86.86,0,0,1,0,1.64,3.1,3.1,0,0,1-2.83,0L192.28,119.6a.86.86,0,0,1,0-1.64,3.1,3.1,0,0,1,2.83,0Z"/><path class="cls-9" d="M239.56,159.93a.43.43,0,0,1,0,.82,1.57,1.57,0,0,1-1.42,0L179.62,127c-.4-.23-.39-.59,0-.82a1.55,1.55,0,0,1,1.41,0Z"/><path class="cls-9" d="M246.46,155.92a.43.43,0,0,1,0,.82,1.56,1.56,0,0,1-1.41,0l-58.53-33.79a.43.43,0,0,1,0-.82,1.54,1.54,0,0,1,1.41,0Z"/><path class="cls-9" d="M262.52,169.19a.43.43,0,0,1,0,.82,1.57,1.57,0,0,1-1.42,0l-78-45.06c-.4-.23-.39-.59,0-.82a1.55,1.55,0,0,1,1.41,0Z"/><path class="cls-33" d="M194.33,98.43l112.52,65L243,200.49l-112.52-65ZM200.27,115a3.1,3.1,0,0,0-2.83,0,.86.86,0,0,0,0,1.64l65,37.55a3.12,3.12,0,0,0,2.83,0,.87.87,0,0,0,0-1.64l-65-37.55m-8,3a.86.86,0,0,0,0,1.64l48.77,28.16a3.1,3.1,0,0,0,2.83,0,.86.86,0,0,0,0-1.64L195.1,118a3.1,3.1,0,0,0-2.83,0m68.84,52a1.57,1.57,0,0,0,1.42,0,.43.43,0,0,0,0-.82l-78-45.06a1.55,1.55,0,0,0-1.41,0c-.39.23-.4.59,0,.82l78,45.06m-23-9.26a1.57,1.57,0,0,0,1.42,0,.43.43,0,0,0,0-.82L181,126.13a1.55,1.55,0,0,0-1.41,0c-.39.23-.4.59,0,.82l58.53,33.79m8.31-4a.43.43,0,0,0,0-.82l-58.53-33.79a1.54,1.54,0,0,0-1.41,0,.43.43,0,0,0,0,.82L245,156.74a1.56,1.56,0,0,0,1.41,0"/><g class="cls-5"><path d="M154.42,146.07c-.25.24-.51.5-.77.79l-1.09,1.3-1.76-1,2.26-.65c.47-.14.91-.29,1.35-.44Z"/><path d="M155.55,146l-3.81,4.52-.8-.46,1.2-1.42-2.07-1.19-2.43.71-.79-.45,7.79-2.23Zm-4.75,1.19,1.76,1,1.09-1.3c.25-.29.51-.55.77-.79h0c-.44.15-.88.3-1.35.44l-2.26.65"/><path d="M147.53,141.83c0,.35-.19.7-.71,1a3.39,3.39,0,0,1-1.69.46,4.76,4.76,0,0,1-2.43-.66,3.45,3.45,0,0,1-.56-.38l-2.32,1.35-.75-.44,5.73-3.33a12.62,12.62,0,0,1,1.56.77C147.11,141,147.49,141.44,147.53,141.83Zm-4.2.46a2.67,2.67,0,0,0,2.71.13c.77-.45.59-1-.24-1.46a5.23,5.23,0,0,0-.77-.38l-2.26,1.31a2.81,2.81,0,0,0,.56.4"/><path d="M166.08,152l-5.29.8-2.47,1.44-.77-.44L160,152.4l1.5-3,.86.5-.77,1.4c-.22.39-.4.69-.62,1,.56-.12,1.13-.22,1.81-.35l2.43-.45Z"/><path d="M195.49,164.18c1.58.91,1.58,2.38,0,3.29l-7.26,4.22a6.25,6.25,0,0,1-5.68,0l-72.34-41.77c-1.58-.91-1.59-2.39,0-3.29l7.26-4.22a6.26,6.26,0,0,1,5.68,0ZM150.93,150l.8.46,3.81-4.52-.91-.53-7.79,2.23.79.45,2.43-.71,2.07,1.19-1.2,1.42m9.85,2.82,5.29-.8-.86-.5-2.43.45c-.67.13-1.25.23-1.79.35l.61-1,.77-1.4-.86-.5-1.5,3-2.46,1.43.77.44,2.47-1.44m-15.66-9.55a3.39,3.39,0,0,0,1.69-.46c.52-.3.75-.66.71-1s-.41-.8-1.16-1.23a12.62,12.62,0,0,0-1.56-.77l-5.73,3.33.75.44,2.32-1.35a3.45,3.45,0,0,0,.56.38,4.76,4.76,0,0,0,2.43.66"/><path d="M145.79,141c.83.48,1,1,.24,1.46a2.67,2.67,0,0,1-2.71-.13,2.81,2.81,0,0,1-.56-.4l2.26-1.31A5.23,5.23,0,0,1,145.79,141Z"/></g><path class="cls-32" d="M144.42,126.07c-.25.24-.51.5-.77.79l-1.09,1.3-1.76-1,2.26-.65c.47-.14.91-.29,1.35-.44Z"/><path class="cls-31" d="M145.55,126l-3.81,4.52-.8-.46,1.2-1.42-2.07-1.19-2.43.71-.79-.45,7.79-2.23Zm-4.75,1.19,1.76,1,1.09-1.3c.25-.29.51-.55.77-.79h0c-.44.15-.88.3-1.35.44l-2.26.65"/><g class="cls-2"><path class="cls-31" d="M137.53,121.83c0,.35-.19.7-.71,1a3.39,3.39,0,0,1-1.69.46,4.76,4.76,0,0,1-2.43-.66,3.45,3.45,0,0,1-.56-.38l-2.32,1.35-.75-.44,5.73-3.33a12.62,12.62,0,0,1,1.56.77C137.11,121,137.49,121.44,137.53,121.83Zm-4.2.46a2.67,2.67,0,0,0,2.71.13c.77-.45.59-1-.24-1.46a5.23,5.23,0,0,0-.77-.38l-2.26,1.31a2.81,2.81,0,0,0,.56.4"/><path class="cls-31" d="M156.08,132l-5.29.8-2.47,1.44-.77-.44L150,132.4l1.5-3,.86.5-.77,1.4c-.22.39-.4.69-.62,1,.56-.12,1.13-.22,1.81-.35l2.43-.45Z"/><path class="cls-32" d="M185.49,144.18c1.58.91,1.58,2.38,0,3.29l-7.26,4.22a6.25,6.25,0,0,1-5.68,0l-72.34-41.77c-1.58-.91-1.59-2.39,0-3.29l7.26-4.22a6.26,6.26,0,0,1,5.68,0ZM140.93,130l.8.46,3.81-4.52-.91-.53-7.79,2.23.79.45,2.43-.71,2.07,1.19-1.2,1.42m9.85,2.82,5.29-.8-.86-.5-2.43.45c-.67.13-1.25.23-1.79.35l.61-1,.77-1.4-.86-.5-1.5,3-2.46,1.43.77.44,2.47-1.44m-15.66-9.55a3.39,3.39,0,0,0,1.69-.46c.52-.3.75-.66.71-1s-.41-.8-1.16-1.23a12.62,12.62,0,0,0-1.56-.77l-5.73,3.33.75.44,2.32-1.35a3.45,3.45,0,0,0,.56.38,4.76,4.76,0,0,0,2.43.66"/><path class="cls-32" d="M135.79,121c.83.48,1,1,.24,1.46a2.67,2.67,0,0,1-2.71-.13,2.81,2.81,0,0,1-.56-.4l2.26-1.31A5.23,5.23,0,0,1,135.79,121Z"/></g><g class="cls-5"><path d="M222.56,85.67l0,0c.37.23.36.58,0,.8a1.56,1.56,0,0,1-1.38,0l0,0-5.2-3,0,0a.43.43,0,0,1,0-.8,1.56,1.56,0,0,1,1.38,0l0,0Z"/><path d="M216.42,41.77l-51.68,30-5.08-2.93a1.27,1.27,0,0,1,0-2.4L207.2,38.84a4.56,4.56,0,0,1,4.14,0Z"/><path d="M215.95,82.67a.43.43,0,0,0,0,.8c-4.67,2.3-11.68,2.17-16.12-.39s-4.68-6.62-.73-9.34q.32-.22.67-.43a16.6,16.6,0,0,1,7.42-2,17.69,17.69,0,0,1,9.43,2c4.44,2.56,4.68,6.62.73,9.34A1.56,1.56,0,0,0,215.95,82.67ZM214,82.36a1.56,1.56,0,0,0,1.41,0c4-2.3,3.94-6,0-8.33A1.56,1.56,0,0,0,214,74a.43.43,0,0,0,0,.82,4.11,4.11,0,0,1,2.41,3.35A4.05,4.05,0,0,1,214,81.54a.43.43,0,0,0,0,.82"/><path d="M237.48,86.79c4,2.3,4,6,0,8.33a1.56,1.56,0,0,1-1.41,0,.43.43,0,0,1,0-.82c1.59-.93,2.38-2.13,2.37-3.35s-.81-2.42-2.41-3.35a.43.43,0,0,1,0-.82A1.56,1.56,0,0,1,237.48,86.79Z"/><path d="M258.68,74.34c1.55.89,1.83,2.27.69,3.34L239.62,96.15a1.47,1.47,0,0,1-1.37.18l-.18-.08.71-.41c2.07-1.2,3.21-2.74,3.43-4.31l15.47-14.47c.65-.61.49-1.4-.39-1.91l-4.44-2.56a.43.43,0,0,1,0-.82,1.55,1.55,0,0,1,1.41,0Z"/><path d="M232,47l-58.15,33.8-10-5.78c-1.3-.75-1.3-2,0-2.71l.91-.53,51.68-30,.91-.53a5.14,5.14,0,0,1,4.67,0Z"/><path d="M190.21,101.49c.72.42.73,1.09,0,1.5a2.85,2.85,0,0,1-2.6,0,.8.8,0,0,1,0-1.5A2.86,2.86,0,0,1,190.21,101.49Z"/><path d="M194.11,103.74c.72.42.73,1.09,0,1.5a2.85,2.85,0,0,1-2.6,0,.79.79,0,0,1,0-1.5A2.85,2.85,0,0,1,194.11,103.74Z"/><path d="M198,106c.72.42.73,1.09,0,1.5a2.85,2.85,0,0,1-2.6,0,.79.79,0,0,1,0-1.5A2.85,2.85,0,0,1,198,106Z"/><path d="M295,83.41c1.29.74,1.3,2,0,2.7l-.91.53-51.68,30-.91.53a5.15,5.15,0,0,1-4.66,0l-11-6.35L284,77.07Z"/><path d="M299.21,89.57c1.15.66,1.16,1.74,0,2.4l-47.55,27.64a4.57,4.57,0,0,1-4.15,0l-5.08-2.93,51.68-30Z"/><path d="M218.24,20,330.74,85,230.62,143.15l-112.51-65Zm33.44,99.61L299.23,92c1.14-.66,1.13-1.74,0-2.4l-5.08-2.93.91-.53c1.29-.75,1.28-2,0-2.7l-11-6.35.65-.38c1.43-.83,1.42-2.17,0-3l-46.82-27a5.72,5.72,0,0,0-5.19,0L232,47l-10-5.78a5.14,5.14,0,0,0-4.67,0l-.91.53-5.08-2.93a4.56,4.56,0,0,0-4.14,0L159.65,66.47a1.27,1.27,0,0,0,0,2.4l5.08,2.93-.91.53c-1.28.74-1.28,2,0,2.71l10,5.78-.64.37c-1.43.83-1.42,2.18,0,3l46.82,27a5.72,5.72,0,0,0,5.19,0l.64-.37,11,6.35a5.15,5.15,0,0,0,4.66,0l.91-.53,5.08,2.93a4.57,4.57,0,0,0,4.15,0M187.63,103a2.85,2.85,0,0,0,2.6,0c.71-.41.71-1.08,0-1.5a2.86,2.86,0,0,0-2.59,0,.8.8,0,0,0,0,1.5m3.9,2.25a2.85,2.85,0,0,0,2.6,0c.71-.41.71-1.08,0-1.5a2.85,2.85,0,0,0-2.58,0,.79.79,0,0,0,0,1.5m3.9,2.25a2.85,2.85,0,0,0,2.6,0c.71-.41.71-1.08,0-1.5a2.85,2.85,0,0,0-2.58,0,.79.79,0,0,0,0,1.5m-11.76-6.79a2.85,2.85,0,0,0,2.6,0c.71-.41.71-1.08,0-1.5a2.85,2.85,0,0,0-2.58,0,.79.79,0,0,0,0,1.5m-3.9-2.25a2.85,2.85,0,0,0,2.6,0c.71-.41.71-1.08,0-1.5a2.85,2.85,0,0,0-2.58,0,.79.79,0,0,0,0,1.5"/><path d="M284.67,73.69c1.44.83,1.44,2.17,0,3l-.65.38-58.15,33.8-.64.37a5.72,5.72,0,0,1-5.19,0l-46.82-27c-1.44-.83-1.44-2.18,0-3l.64-.37L232,47l.65-.38a5.72,5.72,0,0,1,5.19,0ZM238.25,96.33a1.47,1.47,0,0,0,1.37-.18l19.75-18.47c1.14-1.07.86-2.45-.69-3.34l-4.44-2.56a1.55,1.55,0,0,0-1.41,0,.43.43,0,0,0,0,.82l4.44,2.56c.88.51,1,1.3.39,1.91L242.2,91.53c.27-2-.9-4-3.49-5.45-4.43-2.56-11.45-2.69-16.12-.39l-5.23-3c3.92-2.73,3.68-6.79-.76-9.35a17.69,17.69,0,0,0-9.43-2l24.94-9a4.21,4.21,0,0,1,3.29.22l4.44,2.56a1.55,1.55,0,0,0,1.41,0c.39-.23.39-.59,0-.82L236.8,61.7a7.39,7.39,0,0,0-5.77-.38l-31.82,11.5c-.46.17-.61.52-.31.8l.14.1c-3.92,2.73-3.67,6.79.76,9.35s11.45,2.69,16.12.39l5.23,3c-3.92,2.73-3.67,6.8.76,9.35s11.46,2.69,16.13.39l.21.1"/><path d="M241.24,64.27c.4.23.4.59,0,.82a1.55,1.55,0,0,1-1.41,0l-4.44-2.56a4.21,4.21,0,0,0-3.29-.22l-24.94,9a16.6,16.6,0,0,0-7.42,2q-.35.21-.67.43a.85.85,0,0,1-.17-.12c-.29-.27-.15-.63.31-.8L231,61.32a7.39,7.39,0,0,1,5.77.38Z"/><path d="M215.37,74c4,2.3,4,6,0,8.33a1.56,1.56,0,0,1-1.41,0,.43.43,0,0,1,0-.82,4.05,4.05,0,0,0,2.37-3.35A4.11,4.11,0,0,0,214,74.85a.43.43,0,0,1,0-.82A1.56,1.56,0,0,1,215.37,74Z"/><path d="M242.2,91.53c-.21,1.57-1.35,3.11-3.43,4.31-.24.14-.48.27-.73.39-4.67,2.3-11.69,2.17-16.13-.39s-4.68-6.62-.73-9.34a1.56,1.56,0,0,0,1.38,0c.38-.22.39-.57,0-.8,4.67-2.3,11.69-2.17,16.12.39C241.3,87.57,242.46,89.58,242.2,91.53Zm-6.08,3.59a1.56,1.56,0,0,0,1.41,0c4-2.3,3.94-6,0-8.33a1.56,1.56,0,0,0-1.41,0,.43.43,0,0,0,0,.82c1.6.93,2.4,2.14,2.41,3.35s-.78,2.42-2.37,3.35a.43.43,0,0,0,0,.82"/><path d="M186.25,99.21c.72.42.73,1.09,0,1.5a2.85,2.85,0,0,1-2.6,0,.79.79,0,0,1,0-1.5A2.85,2.85,0,0,1,186.25,99.21Z"/><path d="M182.35,97c.72.42.73,1.09,0,1.5a2.85,2.85,0,0,1-2.6,0,.79.79,0,0,1,0-1.5A2.85,2.85,0,0,1,182.35,97Z"/></g><path class="cls-6" d="M212.56,65.67l0,0c.37.23.36.58,0,.8a1.56,1.56,0,0,1-1.38,0l0,0-5.2-3,0,0a.43.43,0,0,1,0-.8,1.56,1.56,0,0,1,1.38,0l0,0Z"/><g class="cls-2"><path class="cls-33" d="M206.42,21.77l-51.68,30-5.08-2.93a1.27,1.27,0,0,1,0-2.4L197.2,18.84a4.56,4.56,0,0,1,4.14,0Z"/><path class="cls-34" d="M205.95,62.67a.43.43,0,0,0,0,.8c-4.67,2.3-11.68,2.17-16.12-.39s-4.68-6.62-.73-9.34q.32-.22.67-.43a16.6,16.6,0,0,1,7.42-2,17.69,17.69,0,0,1,9.43,2c4.44,2.56,4.68,6.62.73,9.34A1.56,1.56,0,0,0,205.95,62.67ZM204,62.36a1.56,1.56,0,0,0,1.41,0c4-2.3,3.94-6,0-8.33A1.56,1.56,0,0,0,204,54a.43.43,0,0,0,0,.82,4.11,4.11,0,0,1,2.41,3.35A4.05,4.05,0,0,1,204,61.54a.43.43,0,0,0,0,.82"/><path class="cls-31" d="M227.48,66.79c4,2.3,4,6,0,8.33a1.56,1.56,0,0,1-1.41,0,.43.43,0,0,1,0-.82c1.59-.93,2.38-2.13,2.37-3.35s-.81-2.42-2.41-3.35a.43.43,0,0,1,0-.82A1.56,1.56,0,0,1,227.48,66.79Z"/><path class="cls-6" d="M248.68,54.34c1.55.89,1.83,2.27.69,3.34L229.62,76.15a1.47,1.47,0,0,1-1.37.18l-.18-.08.71-.41c2.07-1.2,3.21-2.74,3.43-4.31l15.47-14.47c.65-.61.49-1.4-.39-1.91l-4.44-2.56a.43.43,0,0,1,0-.82,1.55,1.55,0,0,1,1.41,0Z"/><path class="cls-35" d="M222,27l-58.15,33.8-10-5.78c-1.3-.75-1.3-2,0-2.71l.91-.53,51.68-30,.91-.53a5.14,5.14,0,0,1,4.67,0Z"/><path class="cls-36" d="M180.21,81.49c.72.42.73,1.09,0,1.5a2.85,2.85,0,0,1-2.6,0,.8.8,0,0,1,0-1.5A2.86,2.86,0,0,1,180.21,81.49Z"/><path class="cls-36" d="M184.11,83.74c.72.42.73,1.09,0,1.5a2.85,2.85,0,0,1-2.6,0,.79.79,0,0,1,0-1.5A2.85,2.85,0,0,1,184.11,83.74Z"/><path class="cls-36" d="M188,86c.72.42.73,1.09,0,1.5a2.85,2.85,0,0,1-2.6,0,.79.79,0,0,1,0-1.5A2.85,2.85,0,0,1,188,86Z"/><path class="cls-35" d="M285,63.41c1.29.74,1.3,2,0,2.7l-.91.53-51.68,30-.91.53a5.15,5.15,0,0,1-4.66,0l-11-6.35L274,57.07Z"/><path class="cls-33" d="M289.21,69.57c1.15.66,1.16,1.74,0,2.4L241.68,99.61a4.57,4.57,0,0,1-4.15,0l-5.08-2.93,51.68-30Z"/><path class="cls-31" d="M208.24,0,320.74,65,220.62,123.15l-112.51-65Zm33.44,99.61L289.23,72c1.14-.66,1.13-1.74,0-2.4l-5.08-2.93.91-.53c1.29-.75,1.28-2,0-2.7l-11-6.35.65-.38c1.43-.83,1.42-2.17,0-3l-46.82-27a5.72,5.72,0,0,0-5.19,0L222,27l-10-5.78a5.14,5.14,0,0,0-4.67,0l-.91.53-5.08-2.93a4.56,4.56,0,0,0-4.14,0L149.65,46.47a1.27,1.27,0,0,0,0,2.4l5.08,2.93-.91.53c-1.28.74-1.28,2,0,2.71l10,5.78-.64.37c-1.43.83-1.42,2.18,0,3l46.82,27a5.72,5.72,0,0,0,5.19,0l.64-.37,11,6.35a5.15,5.15,0,0,0,4.66,0l.91-.53,5.08,2.93a4.57,4.57,0,0,0,4.15,0M177.63,83a2.85,2.85,0,0,0,2.6,0c.71-.41.71-1.08,0-1.5a2.86,2.86,0,0,0-2.59,0,.8.8,0,0,0,0,1.5m3.9,2.25a2.85,2.85,0,0,0,2.6,0c.71-.41.71-1.08,0-1.5a2.85,2.85,0,0,0-2.58,0,.79.79,0,0,0,0,1.5m3.9,2.25a2.85,2.85,0,0,0,2.6,0c.71-.41.71-1.08,0-1.5a2.85,2.85,0,0,0-2.58,0,.79.79,0,0,0,0,1.5m-11.76-6.79a2.85,2.85,0,0,0,2.6,0c.71-.41.71-1.08,0-1.5a2.85,2.85,0,0,0-2.58,0,.79.79,0,0,0,0,1.5m-3.9-2.25a2.85,2.85,0,0,0,2.6,0c.71-.41.71-1.08,0-1.5a2.85,2.85,0,0,0-2.58,0,.79.79,0,0,0,0,1.5"/><path class="cls-36" d="M274.67,53.69c1.44.83,1.44,2.17,0,3l-.65.38-58.15,33.8-.64.37a5.72,5.72,0,0,1-5.19,0l-46.82-27c-1.44-.83-1.44-2.18,0-3l.64-.37L222,27l.65-.38a5.72,5.72,0,0,1,5.19,0ZM228.25,76.33a1.47,1.47,0,0,0,1.37-.18l19.75-18.47c1.14-1.07.86-2.45-.69-3.34l-4.44-2.56a1.55,1.55,0,0,0-1.41,0,.43.43,0,0,0,0,.82l4.44,2.56c.88.51,1,1.3.39,1.91L232.2,71.53c.27-2-.9-4-3.49-5.45-4.43-2.56-11.45-2.69-16.12-.39l-5.23-3c3.92-2.73,3.68-6.79-.76-9.35a17.69,17.69,0,0,0-9.43-2l24.94-9a4.21,4.21,0,0,1,3.29.22l4.44,2.56a1.55,1.55,0,0,0,1.41,0c.39-.23.39-.59,0-.82L226.8,41.7a7.39,7.39,0,0,0-5.77-.38l-31.82,11.5c-.46.17-.61.52-.31.8l.14.1c-3.92,2.73-3.67,6.79.76,9.35s11.45,2.69,16.12.39l5.23,3c-3.92,2.73-3.67,6.8.76,9.35s11.46,2.69,16.13.39l.21.1"/><path class="cls-6" d="M231.24,44.27c.4.23.4.59,0,.82a1.55,1.55,0,0,1-1.41,0l-4.44-2.56a4.21,4.21,0,0,0-3.29-.22l-24.94,9a16.6,16.6,0,0,0-7.42,2q-.35.21-.67.43a.85.85,0,0,1-.17-.12c-.29-.27-.15-.63.31-.8L221,41.32a7.39,7.39,0,0,1,5.77.38Z"/><path class="cls-31" d="M205.37,54c4,2.3,4,6,0,8.33a1.56,1.56,0,0,1-1.41,0,.43.43,0,0,1,0-.82,4.05,4.05,0,0,0,2.37-3.35A4.11,4.11,0,0,0,204,54.85a.43.43,0,0,1,0-.82A1.56,1.56,0,0,1,205.37,54Z"/><path class="cls-34" d="M232.2,71.53c-.21,1.57-1.35,3.11-3.43,4.31-.24.14-.48.27-.73.39-4.67,2.3-11.69,2.17-16.13-.39s-4.68-6.62-.73-9.34a1.56,1.56,0,0,0,1.38,0c.38-.22.39-.57,0-.8,4.67-2.3,11.69-2.17,16.12.39C231.3,67.57,232.46,69.58,232.2,71.53Zm-6.08,3.59a1.56,1.56,0,0,0,1.41,0c4-2.3,3.94-6,0-8.33a1.56,1.56,0,0,0-1.41,0,.43.43,0,0,0,0,.82c1.6.93,2.4,2.14,2.41,3.35s-.78,2.42-2.37,3.35a.43.43,0,0,0,0,.82"/><path class="cls-36" d="M176.25,79.21c.72.42.73,1.09,0,1.5a2.85,2.85,0,0,1-2.6,0,.79.79,0,0,1,0-1.5A2.85,2.85,0,0,1,176.25,79.21Z"/></g><path class="cls-30" d="M172.35,77c.72.42.73,1.09,0,1.5a2.85,2.85,0,0,1-2.6,0,.79.79,0,0,1,0-1.5A2.85,2.85,0,0,1,172.35,77Z"/></g></g></g></svg>