<svg xmlns="http://www.w3.org/2000/svg" xmlns:xlink="http://www.w3.org/1999/xlink" viewBox="0 0 507.07 359.76"><defs><style>.cls-1{fill:#fcaa37;}.cls-2{fill:#f2a233;}.cls-3{isolation:isolate;}.cls-4{opacity:0.2;}.cls-5{fill:url(#linear-gradient);}.cls-6{fill:url(#linear-gradient-2);}.cls-7{clip-path:url(#clip-path);}.cls-8{fill:#8c5e1f;}.cls-13,.cls-9{fill:#fff;}.cls-10{fill:#333;}.cls-11{fill:#fafafa;}.cls-12{mix-blend-mode:overlay;}.cls-13{opacity:0.51;}.cls-14{fill:#496aec;}.cls-15,.cls-18{fill:#415fd4;}.cls-16{fill:#a4b0de;}.cls-17{fill:#fcfcfc;}.cls-18{opacity:0.3;}.cls-19{fill:#81abde;}.cls-20{fill:#1c4569;}.cls-21{fill:#3073aa;}.cls-22{fill:#1d4261;}.cls-23{fill:#78bcff;}.cls-24{fill:url(#linear-gradient-3);}.cls-25{fill:#10273b;}.cls-26{opacity:0.5;}.cls-27{fill:#336eff;}.cls-28{opacity:0.56;}.cls-29{fill:#215380;}.cls-30{opacity:0.13;}.cls-31{clip-path:url(#clip-path-2);}.cls-32{fill:#e68f17;}.cls-33{fill:#fcc881;}.cls-34{clip-path:url(#clip-path-3);}.cls-35{clip-path:url(#clip-path-4);}.cls-36{fill:#f2ac4b;}.cls-37{fill:#db8816;}.cls-38{fill:#f09518;}.cls-39{fill:#eb9217;}.cls-40{clip-path:url(#clip-path-5);}.cls-41{clip-path:url(#clip-path-6);}.cls-42{clip-path:url(#clip-path-7);}.cls-43{clip-path:url(#clip-path-8);}.cls-44{clip-path:url(#clip-path-9);}.cls-45{clip-path:url(#clip-path-10);}.cls-46{clip-path:url(#clip-path-11);}</style><linearGradient id="linear-gradient" x1="566.4" y1="285.73" x2="575.72" y2="179.24" gradientTransform="matrix(1.06, -0.35, 0.71, 0.71, -393, 269.47)" gradientUnits="userSpaceOnUse"><stop offset="0" stop-color="#371985"/><stop offset="0.32" stop-color="#343291"/><stop offset="0.99" stop-color="#2b71b0"/><stop offset="1" stop-color="#2b72b1"/></linearGradient><linearGradient id="linear-gradient-2" x1="567.8" y1="281.38" x2="577.12" y2="174.89" gradientTransform="matrix(1.06, -0.35, 0.71, 0.71, -393, 269.47)" gradientUnits="userSpaceOnUse"><stop offset="0" stop-color="#5727d1"/><stop offset="0.24" stop-color="#5140d8"/><stop offset="0.76" stop-color="#427fec"/><stop offset="1" stop-color="#3b9ef5"/></linearGradient><clipPath id="clip-path"><path class="cls-1" d="M345,249.8l-16.68,8.34a9.35,9.35,0,0,1-7.43,0l-10.81-5.4c-2.05-1-2.05-2.69,0-3.71l16.68-8.34a9.35,9.35,0,0,1,7.43,0l10.81,5.4C347,247.11,347,248.77,345,249.8Z"/></clipPath><linearGradient id="linear-gradient-3" x1="-64.98" y1="270.53" x2="-59.63" y2="260.03" gradientTransform="matrix(-1, 0, 0, 1, 190.18, 0)" gradientUnits="userSpaceOnUse"><stop offset="0" stop-color="#4da2ff"/><stop offset="0.3" stop-color="#55a7ff"/><stop offset="0.76" stop-color="#6ab4ff"/><stop offset="1" stop-color="#78bcff"/></linearGradient><clipPath id="clip-path-2"><path class="cls-2" d="M60.12,320.68A18.42,18.42,0,0,0,54,316c-10.94-5.47-28.69-5.47-39.63,0a18.42,18.42,0,0,0-6.16,4.65h-2v5.26h0c0,3.59,2.74,7.17,8.21,9.91,10.94,5.47,28.69,5.47,39.63,0,5.47-2.74,8.21-6.32,8.21-9.91v-5.26Z"/></clipPath><clipPath id="clip-path-3"><path class="cls-2" d="M60.12,313.92A18.42,18.42,0,0,0,54,309.28c-10.94-5.47-28.69-5.47-39.63,0a18.42,18.42,0,0,0-6.16,4.65h-2v5.26h0c0,3.59,2.74,7.17,8.21,9.91,10.94,5.47,28.69,5.47,39.63,0,5.47-2.74,8.21-6.32,8.21-9.91v-5.26Z"/></clipPath><clipPath id="clip-path-4"><path class="cls-2" d="M60.12,307.16A18.42,18.42,0,0,0,54,302.52C43,297,25.27,297,14.33,302.52a18.42,18.42,0,0,0-6.16,4.65h-2v5.26h0c0,3.59,2.74,7.17,8.21,9.91,10.94,5.47,28.69,5.47,39.63,0,5.47-2.74,8.21-6.32,8.21-9.91v-5.26Z"/></clipPath><clipPath id="clip-path-5"><path class="cls-2" d="M282,327.32a18.42,18.42,0,0,0-6.16-4.65c-10.94-5.47-28.69-5.47-39.63,0a18.42,18.42,0,0,0-6.16,4.65h-2v5.26h0c0,3.59,2.74,7.17,8.21,9.91,10.94,5.47,28.69,5.47,39.63,0,5.47-2.74,8.21-6.32,8.21-9.91v-5.26Z"/></clipPath><clipPath id="clip-path-6"><path class="cls-2" d="M344.16,139.64A18.42,18.42,0,0,0,338,135c-10.94-5.47-28.69-5.47-39.63,0a18.42,18.42,0,0,0-6.16,4.65h-2v5.26h0c0,3.59,2.74,7.17,8.21,9.91,10.94,5.47,28.69,5.47,39.63,0,5.47-2.74,8.21-6.32,8.21-9.91v-5.26Z"/></clipPath><clipPath id="clip-path-7"><path class="cls-2" d="M344.16,132.89a18.42,18.42,0,0,0-6.16-4.65c-10.94-5.47-28.69-5.47-39.63,0a18.42,18.42,0,0,0-6.16,4.65h-2v5.26h0c0,3.59,2.74,7.17,8.21,9.91,10.94,5.47,28.69,5.47,39.63,0,5.47-2.74,8.21-6.32,8.21-9.91v-5.26Z"/></clipPath><clipPath id="clip-path-8"><path class="cls-2" d="M344.16,126.13a18.42,18.42,0,0,0-6.16-4.65c-10.94-5.47-28.69-5.47-39.63,0a18.42,18.42,0,0,0-6.16,4.65h-2v5.26h0c0,3.59,2.74,7.17,8.21,9.91,10.94,5.47,28.69,5.47,39.63,0,5.47-2.74,8.21-6.32,8.21-9.91v-5.26Z"/></clipPath><clipPath id="clip-path-9"><path class="cls-2" d="M344.16,119.62A18.42,18.42,0,0,0,338,115c-10.94-5.47-28.69-5.47-39.63,0a18.42,18.42,0,0,0-6.16,4.65h-2v5.26h0c0,3.59,2.74,7.17,8.21,9.91,10.94,5.47,28.69,5.47,39.63,0,5.47-2.74,8.21-6.32,8.21-9.91v-5.26Z"/></clipPath><clipPath id="clip-path-10"><path class="cls-2" d="M344.16,112.87a18.42,18.42,0,0,0-6.16-4.65c-10.94-5.47-28.69-5.47-39.63,0a18.42,18.42,0,0,0-6.16,4.65h-2v5.26h0c0,3.59,2.74,7.17,8.21,9.91,10.94,5.47,28.69,5.47,39.63,0,5.47-2.74,8.21-6.32,8.21-9.91v-5.26Z"/></clipPath><clipPath id="clip-path-11"><path class="cls-2" d="M344.16,106.11a18.42,18.42,0,0,0-6.16-4.65c-10.94-5.47-28.69-5.47-39.63,0a18.42,18.42,0,0,0-6.16,4.65h-2v5.26h0c0,3.59,2.74,7.17,8.21,9.91,10.94,5.47,28.69,5.47,39.63,0,5.47-2.74,8.21-6.32,8.21-9.91v-5.26Z"/></clipPath></defs><title>Recurso 2</title><g class="cls-3"><g id="Capa_2" data-name="Capa 2"><g id="Layer_1" data-name="Layer 1"><path class="cls-4" d="M365.65,288.24l120.75-60.37c4.69-2.34,4.69-6.14,0-8.49l-69.83-34.91c-4.69-2.34-12.29-2.34-17,0L278.85,244.84c-4.69,2.34-4.69,6.14,0,8.49l69.83,34.91C353.36,290.58,361,290.58,365.65,288.24Z"/><path class="cls-5" d="M358.55,284.3,479.3,223.93c4.69-2.34,6-9.34,1.33-11.68l-71.16-31.72c-4.69-2.34-12.29-2.34-17,0L271.22,237.2c-4.69,2.34-4.16,9.84.53,12.19l69.83,34.91C346.26,286.64,353.86,286.64,358.55,284.3Z"/><path class="cls-6" d="M358.55,280.31,479.3,219.94c4.69-2.34,4.69-6.14,0-8.49l-69.83-34.91c-4.69-2.34-12.29-2.34-17,0L271.75,236.91c-4.69,2.34-4.69,6.14,0,8.49l69.83,34.91C346.26,282.65,353.86,282.65,358.55,280.31Z"/><path class="cls-1" d="M345,249.8l-16.68,8.34a9.35,9.35,0,0,1-7.43,0l-10.81-5.4c-2.05-1-2.05-2.69,0-3.71l16.68-8.34a9.35,9.35,0,0,1,7.43,0l10.81,5.4C347,247.11,347,248.77,345,249.8Z"/><g class="cls-7"><polygon class="cls-8" points="334.56 259.44 334.21 259.61 308.82 246.92 309.17 246.74 334.56 259.44"/><polygon class="cls-8" points="316.26 250.46 290.87 263.15 290.52 262.98 315.91 250.29 316.26 250.46"/><polygon class="cls-8" points="324.57 254.62 299.19 267.31 298.84 267.14 324.23 254.45 324.57 254.62"/><polygon class="cls-8" points="355.61 230.79 330.22 243.48 329.87 243.31 355.26 230.61 355.61 230.79"/><polygon class="cls-8" points="326.71 244.94 319.19 248.71 318.84 248.53 326.36 244.77 326.71 244.94"/><polygon class="cls-8" points="335.75 249.47 328.23 253.23 327.88 253.05 335.4 249.29 335.75 249.47"/><polygon class="cls-8" points="363.93 234.94 338.54 247.64 338.19 247.47 363.58 234.77 363.93 234.94"/><polygon class="cls-8" points="348.52 252.46 348.17 252.63 322.78 239.94 323.13 239.76 348.52 252.46"/></g><path class="cls-9" d="M349.73,215.25a5.7,5.7,0,0,1-2,1.46,10.76,10.76,0,0,1-9.36-.05c-2.93-1.46-2.93-3.45,0-4.9a9.59,9.59,0,0,1,2.64-.9l.69.64a8.5,8.5,0,0,0-2.28.75c-2.19,1.1-2.25,2.53.21,3.76a8.33,8.33,0,0,0,7.36.08,4.51,4.51,0,0,0,1.58-1.18Z"/><path class="cls-9" d="M346.84,212.37c-.79-.4-1.49-.73-2.15-1l1.07-.53,1.36.64.06,0c-.6-.6-.43-1.26.39-1.67a2.26,2.26,0,0,1,.39-.15l1.15.58a3,3,0,0,0-.46.19c-.86.43-.82,1.06-.07,1.6a3.9,3.9,0,0,0,.51.31l3.58,1.79-1.21.6Z"/><path class="cls-9" d="M353.41,210.57a5.28,5.28,0,0,0,4.64,0,4.17,4.17,0,0,0,1.51-1.1l1.08.33a5.12,5.12,0,0,1-1.82,1.33,7.68,7.68,0,0,1-6.69,0c-2-1-2.43-2.41-.47-3.39a7,7,0,0,1,5.94.19,5.64,5.64,0,0,1,.53.3Zm2.71-2.23a4.25,4.25,0,0,0-3.68-.15c-1.24.62-.64,1.46.11,1.93Z"/><path class="cls-9" d="M358.77,201.17l8.12,4.06c.6.3,1.29.63,1.79.84l-1.1.55-1.22-.56h0c.38.56.12,1.26-1,1.8a7.6,7.6,0,0,1-6.29-.27c-2.25-1.11-2.23-2.49-.6-3.31a5.46,5.46,0,0,1,3.05-.5h0l-4-2Zm4.65,3.55a3.64,3.64,0,0,0-.57-.23,4.61,4.61,0,0,0-3.18.17c-1.26.63-.9,1.56.58,2.3a5.25,5.25,0,0,0,4.47.25c.82-.41,1-1.06.33-1.62a2.42,2.42,0,0,0-.47-.29Z"/><path class="cls-9" d="M363.41,200.1c.43.2.46.52,0,.76a1.82,1.82,0,0,1-1.49,0c-.43-.21-.44-.54,0-.76A1.8,1.8,0,0,1,363.41,200.1Zm7.25,5-6.72-3.36,1.22-.61,6.72,3.36Z"/><path class="cls-9" d="M366.73,198.4l1.93,1,1.75-.87.93.47-1.75.87,3.62,1.81a2.36,2.36,0,0,0,2.22.19,3,3,0,0,0,.62-.4l1,.43a3,3,0,0,1-.92.62,3.84,3.84,0,0,1-1.83.4,5.12,5.12,0,0,1-2.22-.64l-3.66-1.83-1,.52-.93-.47,1-.52-1.61-.81Z"/><path class="cls-9" d="M387.72,196.25a5.68,5.68,0,0,1-2,1.46,10.76,10.76,0,0,1-9.36-.05c-2.93-1.46-2.93-3.45,0-4.9a9.57,9.57,0,0,1,2.64-.9l.69.64a8.49,8.49,0,0,0-2.28.75c-2.19,1.1-2.25,2.53.21,3.76a8.33,8.33,0,0,0,7.36.08,4.49,4.49,0,0,0,1.58-1.18Z"/><path class="cls-9" d="M393.13,193.85l-.94-.38,0,0c.15.45-.1,1-1.06,1.53a4.76,4.76,0,0,1-4,.06c-1.62-.81-1.07-2,1.54-3.27l-.14-.07a3.34,3.34,0,0,0-3.08,0,2.62,2.62,0,0,0-1.25,1.13l-1.08-.26a3.35,3.35,0,0,1,1.61-1.4,5.75,5.75,0,0,1,5.3.1l2.51,1.26a14.82,14.82,0,0,0,1.72.75Zm-3.61-1.62c-1.36.65-2.64,1.53-1.33,2.18a2.66,2.66,0,0,0,2.32,0c.87-.44.88-1,.5-1.37a1.24,1.24,0,0,0-.32-.23Z"/><path class="cls-9" d="M391.48,190.06c-.79-.4-1.49-.73-2.15-1l1.07-.53,1.36.64.06,0c-.6-.6-.43-1.26.39-1.67a2.21,2.21,0,0,1,.39-.15l1.15.58a3.09,3.09,0,0,0-.46.19c-.86.43-.82,1.06-.07,1.6a4,4,0,0,0,.51.31l3.58,1.79-1.21.6Z"/><path class="cls-9" d="M396.45,182.33l8.12,4.06c.6.3,1.29.63,1.79.84l-1.1.55-1.22-.56h0c.38.56.12,1.26-1,1.8a7.6,7.6,0,0,1-6.29-.27c-2.25-1.11-2.23-2.49-.6-3.31a5.46,5.46,0,0,1,3.05-.5h0l-4-2Zm4.65,3.55a3.64,3.64,0,0,0-.57-.23,4.61,4.61,0,0,0-3.18.17c-1.26.63-.9,1.56.58,2.3a5.26,5.26,0,0,0,4.47.25c.82-.41,1-1.06.33-1.62a2.43,2.43,0,0,0-.47-.29Z"/><path class="cls-9" d="M358.51,273.82a4.88,4.88,0,0,1-1.74,1.25,9.22,9.22,0,0,1-8,0c-2.51-1.25-2.51-3,0-4.2a8.22,8.22,0,0,1,2.26-.77l.59.55a7.23,7.23,0,0,0-1.95.64c-1.88.94-1.93,2.16.18,3.22a7.14,7.14,0,0,0,6.3.07,3.86,3.86,0,0,0,1.36-1Z"/><path class="cls-9" d="M363.14,271.77l-.81-.32,0,0c.13.39-.08.9-.9,1.31a4.07,4.07,0,0,1-3.41.05c-1.39-.7-.92-1.69,1.32-2.8l-.12-.06a2.86,2.86,0,0,0-2.64,0,2.24,2.24,0,0,0-1.07,1l-.93-.23a2.85,2.85,0,0,1,1.38-1.2,4.93,4.93,0,0,1,4.54.08l2.15,1.08a12.86,12.86,0,0,0,1.48.64ZM360,270.38c-1.17.56-2.26,1.31-1.14,1.87a2.28,2.28,0,0,0,2,0c.75-.37.75-.85.43-1.18a1.08,1.08,0,0,0-.27-.2Z"/><path class="cls-9" d="M361.72,268.52c-.68-.34-1.27-.62-1.84-.87l.92-.46,1.17.55,0,0c-.51-.52-.37-1.08.33-1.43a1.9,1.9,0,0,1,.33-.13l1,.49a2.76,2.76,0,0,0-.39.16c-.74.37-.7.91-.06,1.37a3.34,3.34,0,0,0,.44.27l3.07,1.53-1,.52Z"/><path class="cls-9" d="M366,261.9l7,3.48c.51.26,1.11.54,1.53.72l-.94.47-1-.48h0c.32.48.11,1.08-.83,1.55a6.52,6.52,0,0,1-5.39-.23c-1.93-1-1.91-2.14-.51-2.84a4.68,4.68,0,0,1,2.62-.43h0l-3.44-1.72Zm4,3a3.09,3.09,0,0,0-.49-.2,3.94,3.94,0,0,0-2.72.15c-1.08.54-.77,1.34.5,2a4.5,4.5,0,0,0,3.83.21c.7-.35.88-.9.28-1.39a2.06,2.06,0,0,0-.4-.25Z"/><path class="cls-9" d="M371.74,259.45l3.35,1.68,3.88-1.94-3.35-1.68,1-.52,8,4-1,.52-3.76-1.88L376,261.58l3.76,1.88-1,.52-8-4Z"/><path class="cls-9" d="M388.72,256.05c2.13,1.06,1.58,2.27.19,3a6.79,6.79,0,0,1-5.72-.1c-1.93-1-1.8-2.16-.2-3A6.74,6.74,0,0,1,388.72,256.05Zm-4.51,2.31a4.86,4.86,0,0,0,4,.23c1-.5.81-1.34-.49-2a4.83,4.83,0,0,0-3.94-.24C382.51,257,383.12,257.82,384.21,258.37Z"/><path class="cls-9" d="M384.52,252.63l1-.52,8.45,4.22-1,.52Z"/><path class="cls-9" d="M392.3,248.75l7,3.48c.51.26,1.11.54,1.53.72l-.94.47-1-.48h0c.32.48.11,1.08-.83,1.55a6.52,6.52,0,0,1-5.39-.23c-1.93-1-1.92-2.13-.51-2.84a4.68,4.68,0,0,1,2.62-.43h0l-3.44-1.72Zm4,3a3.11,3.11,0,0,0-.49-.2,3.94,3.94,0,0,0-2.72.15c-1.08.54-.77,1.34.5,2a4.5,4.5,0,0,0,3.83.21c.7-.35.88-.9.29-1.39a2.11,2.11,0,0,0-.41-.25Z"/><path class="cls-9" d="M400.37,250.46a4.53,4.53,0,0,0,4,0,3.55,3.55,0,0,0,1.3-.95l.93.29A4.37,4.37,0,0,1,405,251a6.57,6.57,0,0,1-5.73,0c-1.74-.87-2.08-2.06-.41-2.9a6,6,0,0,1,5.09.17,4.72,4.72,0,0,1,.45.26Zm2.32-1.91a3.63,3.63,0,0,0-3.15-.12c-1.06.53-.55,1.25.1,1.65Z"/><path class="cls-9" d="M404.48,247.14c-.68-.34-1.27-.62-1.84-.87l.91-.46,1.17.55,0,0c-.51-.52-.37-1.08.33-1.43a1.86,1.86,0,0,1,.33-.13l1,.49a2.66,2.66,0,0,0-.39.16c-.74.37-.7.91-.06,1.37a3.35,3.35,0,0,0,.44.27l3.07,1.53-1,.52Z"/><path class="cls-10" d="M334.86,261h0l-.6,1-.92-.27.77-1.21.84-.42,7.11,3.55-1,.48Z"/><path class="cls-10" d="M344.69,262.31l-.59-.3,0-.75c.14-1.8.07-2.68-1-3.22a3.12,3.12,0,0,0-2.84,0,1.61,1.61,0,0,0-1,1.08l-1-.18a2.24,2.24,0,0,1,1.35-1.39,5,5,0,0,1,4.31-.09c1.31.66,1.39,1.68,1.3,3.17l-.06.55h0l3.28-1.64.8.4Z"/><path class="cls-10" d="M349.6,258.76a7.07,7.07,0,0,0,2.07-.59c1.27-.64.88-1.23.28-1.52a4,4,0,0,0-3.31.23l-.55.27-.72-.36.55-.27c.72-.36,1.27-1,.43-1.42a2.66,2.66,0,0,0-2.35.11,2,2,0,0,0-1,1l-1-.22a2.72,2.72,0,0,1,1.37-1.23,4.43,4.43,0,0,1,3.79-.2c.73.37.91.9.32,1.51h0a4.79,4.79,0,0,1,3.46.1c1.14.57,1.22,1.52-.53,2.4a7.76,7.76,0,0,1-2.38.71Z"/><path class="cls-10" d="M359.29,255l-1.94-1-3.4,1.7-.63-.32-1.28-3.9,1.07-.53,4.42,2.21,1-.51.75.38-1,.51,1.94,1Zm-2.69-1.35-2.37-1.19q-.56-.28-1.08-.57l0,0c.19.32.32.56.44.83l.63,2.1h0Z"/><path class="cls-10" d="M367.22,244.75l-2.79,1.39L366,247.2a5.15,5.15,0,0,1,.55-.32,6.28,6.28,0,0,1,2-.6,5,5,0,0,1,2.87.39c1.39.69,1.29,1.78-.29,2.57a7.35,7.35,0,0,1-2.26.69l-.49-.49a6.83,6.83,0,0,0,2-.59c.93-.47,1.14-1.16.19-1.64a4.12,4.12,0,0,0-3.68.26,9.37,9.37,0,0,0-.94.54l-2.94-1.94,3.5-1.75Z"/><path class="cls-10" d="M372.66,241.9a4.74,4.74,0,0,0-.7.39c-1.3.9-1,1.86,0,2.53l0,0c-.1-.4.13-.89.94-1.29a5.29,5.29,0,0,1,4.5,0c1.3.65,1.59,1.71.07,2.47a6.52,6.52,0,0,1-5.61-.22c-1.4-.7-2-1.51-2-2.22a2.33,2.33,0,0,1,1.29-1.69,5.82,5.82,0,0,1,.66-.39Zm3.82,2.19a3.59,3.59,0,0,0-3.14-.06c-.6.3-.79.75-.54,1.15a.65.65,0,0,0,.31.27,4.3,4.3,0,0,0,3.64.21C377.61,245.23,377.5,244.6,376.48,244.09Z"/><path class="cls-10" d="M378.33,238.39l.63.32,3.29,4.83-1,.51-3.11-4.73h0l-3.58,1.79-.8-.4Z"/><path class="cls-10" d="M384.56,240.57c-.9-.45-1-1-.45-1.68h0a4.49,4.49,0,0,1-2.76-.22c-1.13-.56-.91-1.43.37-2.08a4.62,4.62,0,0,1,3.87-.19c.6.3.94.77.46,1.43l0,0a5.1,5.1,0,0,1,3.31.18c1.24.62,1,1.58-.42,2.28A5.31,5.31,0,0,1,384.56,240.57Zm3.89-2a4.35,4.35,0,0,0-3.16,0c-.61.55-.53,1.05.15,1.39a3.3,3.3,0,0,0,2.82-.05C389.15,239.5,389.18,238.95,388.45,238.58Zm-6.27-.42a3.77,3.77,0,0,0,2.71,0c.42-.42.47-.88-.18-1.2a2.76,2.76,0,0,0-2.4,0C381.49,237.37,381.57,237.86,382.18,238.17Z"/><path class="cls-10" d="M399.27,234.35a5.8,5.8,0,0,0,.77-.42,1.61,1.61,0,0,0,.84-1.11c.06-.45-.22-.94-.92-1.43l0,0c.08.44-.22.88-1,1.24a5.19,5.19,0,0,1-4.34,0c-1.34-.67-1.52-1.76,0-2.51a6.28,6.28,0,0,1,5.41.29c1.56.78,2.12,1.6,2.08,2.3a2.16,2.16,0,0,1-1.17,1.54,6.06,6.06,0,0,1-.86.48Zm-3.73-2.22a3.42,3.42,0,0,0,2.91.05c.66-.33.86-.75.7-1.09a.51.51,0,0,0-.26-.22,4.23,4.23,0,0,0-3.64-.32C394.41,231,394.53,231.62,395.54,232.12Z"/><path class="cls-10" d="M406.37,227.84c2.42,1.21,2.83,2.34,1.21,3.15-1.43.71-3.7.55-6.07-.62s-2.64-2.38-1.15-3.12S404.11,226.71,406.37,227.84Zm-3.86,2c1.85.92,3.48,1.16,4.38.71s.35-1.32-1.47-2.23-3.36-1.22-4.38-.71C400.17,228.09,400.57,228.91,402.51,229.88Z"/><path class="cls-10" d="M412.14,225c2.42,1.21,2.83,2.34,1.21,3.15-1.43.71-3.7.55-6.07-.62s-2.64-2.38-1.15-3.12S409.87,223.83,412.14,225Zm-3.86,2c1.85.92,3.48,1.16,4.38.71s.35-1.32-1.47-2.23-3.36-1.22-4.38-.71C405.94,225.2,406.34,226,408.28,227Z"/><path class="cls-10" d="M417.9,222.07c2.42,1.21,2.83,2.34,1.21,3.15-1.43.71-3.7.55-6.07-.62s-2.64-2.38-1.15-3.12S415.64,220.94,417.9,222.07Zm-3.86,2c1.85.92,3.48,1.16,4.38.71s.35-1.32-1.47-2.23-3.36-1.22-4.38-.71C411.71,222.32,412.11,223.15,414,224.11Z"/><path class="cls-10" d="M430.82,215.62c2.42,1.21,2.83,2.34,1.21,3.15-1.43.71-3.7.55-6.07-.62s-2.64-2.38-1.15-3.12S428.56,214.48,430.82,215.62Zm-3.86,2c1.85.92,3.48,1.16,4.38.71s.35-1.32-1.47-2.23-3.36-1.22-4.38-.71C424.63,215.86,425,216.69,427,217.65Z"/><path class="cls-10" d="M436.59,212.73c2.42,1.21,2.83,2.34,1.21,3.15-1.43.71-3.7.55-6.07-.62s-2.64-2.38-1.15-3.12S434.33,211.6,436.59,212.73Zm-3.86,2c1.85.92,3.48,1.16,4.38.71s.35-1.32-1.47-2.23-3.36-1.22-4.38-.71C430.4,213,430.8,213.8,432.73,214.77Z"/><path class="cls-10" d="M442.36,209.85c2.42,1.21,2.83,2.34,1.21,3.15-1.43.71-3.7.55-6.07-.62s-2.64-2.38-1.15-3.12S440.1,208.72,442.36,209.85Zm-3.86,2c1.85.92,3.48,1.16,4.38.71s.35-1.32-1.47-2.23-3.36-1.22-4.38-.71C436.17,210.09,436.56,210.92,438.5,211.89Z"/><path class="cls-10" d="M448.13,207c2.42,1.21,2.83,2.34,1.21,3.15-1.43.71-3.7.55-6.07-.62s-2.64-2.38-1.15-3.12S445.86,205.83,448.13,207Zm-3.86,2c1.85.92,3.48,1.16,4.38.71s.35-1.32-1.47-2.23-3.36-1.22-4.38-.71C441.93,207.21,442.33,208,444.27,209Z"/><path class="cls-9" d="M335.24,261h0l-.6,1-.92-.27.77-1.21.84-.42,7.11,3.55-1,.48Z"/><path class="cls-9" d="M345.06,262.25l-.59-.3,0-.75c.14-1.8.07-2.68-1-3.22a3.12,3.12,0,0,0-2.84,0,1.61,1.61,0,0,0-1,1.08l-1-.18a2.24,2.24,0,0,1,1.35-1.39,5,5,0,0,1,4.31-.09c1.31.66,1.39,1.68,1.3,3.17l-.06.55h0l3.28-1.64.8.4Z"/><path class="cls-9" d="M350,258.69a7.07,7.07,0,0,0,2.07-.59c1.27-.64.88-1.23.28-1.52a4,4,0,0,0-3.31.23l-.55.28-.72-.36.55-.27c.72-.36,1.27-1,.43-1.42a2.66,2.66,0,0,0-2.35.11,2,2,0,0,0-1,1l-1-.22a2.72,2.72,0,0,1,1.37-1.23,4.43,4.43,0,0,1,3.79-.2c.73.37.91.9.32,1.51h0a4.79,4.79,0,0,1,3.46.1c1.14.57,1.22,1.52-.53,2.4a7.76,7.76,0,0,1-2.38.71Z"/><path class="cls-9" d="M359.66,255l-1.94-1-3.4,1.7-.63-.32-1.28-3.9,1.07-.53,4.42,2.21,1-.51.75.38-1,.51,1.94,1ZM357,253.6l-2.37-1.19q-.56-.28-1.08-.57l0,0c.19.32.32.56.44.83l.63,2.1h0Z"/><path class="cls-9" d="M367.59,244.69l-2.79,1.39,1.54,1.05a5.15,5.15,0,0,1,.55-.32,6.28,6.28,0,0,1,2-.6,5,5,0,0,1,2.87.39c1.39.69,1.29,1.78-.29,2.57a7.35,7.35,0,0,1-2.26.69l-.49-.49a6.83,6.83,0,0,0,2-.59c.93-.47,1.14-1.16.19-1.64a4.12,4.12,0,0,0-3.68.26,9.34,9.34,0,0,0-.94.54L363.28,246l3.5-1.75Z"/><path class="cls-9" d="M373,241.84a4.73,4.73,0,0,0-.7.39c-1.3.9-1,1.86,0,2.53l0,0c-.1-.4.13-.89.94-1.29a5.29,5.29,0,0,1,4.5,0c1.3.65,1.59,1.71.07,2.47a6.52,6.52,0,0,1-5.61-.22c-1.4-.7-2-1.51-2-2.22a2.33,2.33,0,0,1,1.29-1.69,5.8,5.8,0,0,1,.66-.39Zm3.82,2.19a3.59,3.59,0,0,0-3.14-.06c-.6.3-.79.75-.54,1.15a.65.65,0,0,0,.31.27,4.3,4.3,0,0,0,3.64.21C378,245.17,377.87,244.54,376.85,244Z"/><path class="cls-9" d="M378.7,238.33l.63.32,3.29,4.83-1,.51-3.11-4.73h0L374.88,241l-.8-.4Z"/><path class="cls-9" d="M384.93,240.51c-.9-.45-1-1-.45-1.68h0a4.49,4.49,0,0,1-2.76-.22c-1.13-.56-.91-1.43.37-2.08a4.62,4.62,0,0,1,3.87-.19c.6.3.94.77.46,1.43l0,0a5.1,5.1,0,0,1,3.31.18c1.24.62,1,1.58-.42,2.28A5.31,5.31,0,0,1,384.93,240.51Zm3.89-2a4.35,4.35,0,0,0-3.16,0c-.61.55-.53,1.05.15,1.39a3.3,3.3,0,0,0,2.82-.05C389.52,239.44,389.56,238.89,388.82,238.52Zm-6.27-.42a3.77,3.77,0,0,0,2.71,0c.42-.42.47-.88-.18-1.2a2.76,2.76,0,0,0-2.4,0C381.86,237.31,381.94,237.8,382.55,238.11Z"/><path class="cls-9" d="M399.64,234.28a5.81,5.81,0,0,0,.77-.42,1.61,1.61,0,0,0,.84-1.11c.06-.45-.22-.94-.92-1.43l0,0c.08.44-.22.88-1,1.24a5.19,5.19,0,0,1-4.34,0c-1.34-.67-1.52-1.76,0-2.51a6.28,6.28,0,0,1,5.41.29c1.56.78,2.12,1.6,2.08,2.3a2.16,2.16,0,0,1-1.17,1.54,6.06,6.06,0,0,1-.86.48Zm-3.73-2.22a3.42,3.42,0,0,0,2.91.05c.66-.33.86-.75.7-1.09a.51.51,0,0,0-.26-.22,4.23,4.23,0,0,0-3.64-.32C394.78,230.9,394.9,231.56,395.91,232.06Z"/><path class="cls-9" d="M406.74,227.78c2.42,1.21,2.83,2.34,1.21,3.15-1.43.71-3.7.55-6.07-.62s-2.64-2.38-1.15-3.12S404.48,226.65,406.74,227.78Zm-3.86,2c1.85.92,3.48,1.16,4.38.71s.35-1.32-1.47-2.23-3.36-1.22-4.38-.71C400.54,228,400.94,228.85,402.88,229.82Z"/><path class="cls-9" d="M412.51,224.9c2.42,1.21,2.83,2.34,1.21,3.15-1.43.71-3.7.55-6.07-.62s-2.64-2.38-1.15-3.12S410.24,223.77,412.51,224.9Zm-3.86,2c1.85.92,3.48,1.16,4.38.71s.35-1.32-1.47-2.23-3.36-1.22-4.38-.71C406.31,225.14,406.71,226,408.65,226.94Z"/><path class="cls-9" d="M418.27,222c2.42,1.21,2.83,2.34,1.21,3.15-1.43.71-3.7.55-6.07-.62s-2.64-2.38-1.15-3.12S416,220.88,418.27,222Zm-3.86,2c1.85.92,3.48,1.16,4.38.71s.35-1.32-1.47-2.23-3.36-1.22-4.38-.71C412.08,222.26,412.48,223.08,414.41,224.05Z"/><path class="cls-9" d="M431.19,215.55c2.42,1.21,2.83,2.34,1.21,3.15-1.43.71-3.7.55-6.07-.62s-2.64-2.38-1.15-3.12S428.93,214.42,431.19,215.55Zm-3.86,2c1.85.92,3.48,1.16,4.38.71s.35-1.32-1.47-2.23-3.36-1.22-4.38-.71C425,215.8,425.4,216.63,427.33,217.59Z"/><path class="cls-9" d="M437,212.67c2.42,1.21,2.83,2.34,1.21,3.15-1.43.71-3.7.55-6.07-.62s-2.64-2.38-1.15-3.12S434.7,211.54,437,212.67Zm-3.86,2c1.85.92,3.48,1.16,4.38.71s.35-1.32-1.47-2.23-3.36-1.22-4.38-.71C430.77,212.91,431.17,213.74,433.1,214.71Z"/><path class="cls-9" d="M442.73,209.79c2.42,1.21,2.83,2.34,1.21,3.15-1.43.71-3.7.55-6.07-.62s-2.64-2.38-1.15-3.12S440.47,208.65,442.73,209.79Zm-3.86,2c1.85.92,3.48,1.16,4.38.71s.35-1.32-1.47-2.23-3.36-1.22-4.38-.71C436.54,210,436.93,210.86,438.87,211.83Z"/><path class="cls-9" d="M448.5,206.9c2.42,1.21,2.83,2.34,1.21,3.15-1.43.71-3.7.55-6.07-.62s-2.64-2.38-1.15-3.12S446.23,205.77,448.5,206.9Zm-3.86,2c1.85.92,3.48,1.16,4.38.71s.35-1.32-1.47-2.23-3.36-1.22-4.38-.71C442.3,207.15,442.7,208,444.64,208.94Z"/><path class="cls-9" d="M281.17,240.6a13.8,13.8,0,0,1,2-1.2,7.94,7.94,0,0,1,3.25-.94,4.67,4.67,0,0,1,2.43.44c.9.45,1.1,1.15.47,1.82h0a6.21,6.21,0,0,1,4.28.21c.81.4,1.1.87,1.08,1.33-.06.63-.83,1.29-2.36,2.05-.83.42-1.53.71-2,.88Zm5,1.31,1.1-.55c1.28-.64,1.36-1.35.46-1.8a4,4,0,0,0-3.58.26,6.09,6.09,0,0,0-1,.58Zm4.48,2.24a9.88,9.88,0,0,0,1.07-.48c1.25-.63,1.94-1.43.58-2.11a4.86,4.86,0,0,0-4.22.31l-1,.5Z"/><path class="cls-9" d="M301.61,239.61l-.94-.38,0,0c.15.45-.1,1-1.05,1.53a4.76,4.76,0,0,1-4,.06c-1.62-.81-1.07-2,1.54-3.27l-.14-.07a3.34,3.34,0,0,0-3.08,0,2.62,2.62,0,0,0-1.25,1.13l-1.08-.26a3.34,3.34,0,0,1,1.61-1.4,5.75,5.75,0,0,1,5.3.1l2.51,1.26a14.82,14.82,0,0,0,1.72.75ZM298,238c-1.36.65-2.64,1.53-1.33,2.18a2.66,2.66,0,0,0,2.32,0c.87-.44.88-1,.5-1.37a1.23,1.23,0,0,0-.32-.23Z"/><path class="cls-9" d="M299.68,235.68c-.69-.35-1.28-.62-1.88-.88l1.08-.54,1.18.52h0c-.31-.49-.15-1.19,1-1.74a6,6,0,0,1,5.23.24l4,2-1.22.61-3.87-1.94a4,4,0,0,0-3.54-.22c-.8.4-.86,1-.39,1.44a1.85,1.85,0,0,0,.49.33l4,2-1.22.61Z"/><path class="cls-9" d="M309.86,231.85h0a5.29,5.29,0,0,1-.17-.68l-.35-2.15,1.47-.74L311,231l6.91.5-1.49.74-5.54-.45.07.66,2.53,1.26-1.21.6-9.86-4.93,1.21-.6Z"/><path class="cls-11" d="M351.6,241.62a1.81,1.81,0,0,1-.79.16c-.62,0-1.12-.25-1.12-.56a2.34,2.34,0,0,0-1.54-2.16,11.21,11.21,0,0,0-4.21-.74c-.61,0-1.14-.22-1.17-.53s.44-.57,1.05-.59a15,15,0,0,1,5.85,1,3.3,3.3,0,0,1,2.25,3C351.93,241.38,351.81,241.52,351.6,241.62Z"/><path class="cls-11" d="M356.26,241.31a1.81,1.81,0,0,1-.79.16c-.62,0-1.12-.25-1.12-.56a4,4,0,0,0-2.65-3.67,18.92,18.92,0,0,0-7.14-1.26c-.61,0-1.14-.22-1.17-.53s.44-.57,1.05-.59c.21,0,5.22-.12,8.78,1.56,2.23,1.06,3.37,2.57,3.37,4.48C356.59,241.07,356.46,241.21,356.26,241.31Z"/><path class="cls-11" d="M360.92,240.71a1.81,1.81,0,0,1-.79.16c-.62,0-1.12-.25-1.12-.56,0-2.15-1.21-3.82-3.61-5-3.86-1.83-9.59-1.7-9.65-1.7-.62,0-1.14-.22-1.17-.53s.44-.57,1.05-.59c.27,0,6.72-.16,11.29,2,2.87,1.36,4.32,3.3,4.32,5.77C361.25,240.47,361.12,240.61,360.92,240.71Z"/><g class="cls-12"><path class="cls-13" d="M455.89,225.77c.22,3.13-4.68,5.76-10.95,5.87s-11.53-2.34-11.75-5.47,4.68-5.76,10.95-5.87S455.67,222.64,455.89,225.77Z"/><path class="cls-13" d="M463.92,221.76c.22,3.13-4.68,5.76-10.95,5.87s-11.53-2.34-11.75-5.47,4.68-5.76,10.95-5.87S463.7,218.62,463.92,221.76Z"/><path class="cls-13" d="M472,217.74c.22,3.13-4.68,5.76-10.95,5.87s-11.53-2.34-11.75-5.47,4.68-5.76,10.95-5.87S471.73,214.61,472,217.74Z"/></g><polygon class="cls-14" points="25.36 79.4 119.92 32.11 119.92 0 25.36 47.29 25.36 79.4"/><polygon class="cls-15" points="112.26 27.37 112.26 12.4 29.64 53.74 29.64 68.71 112.26 27.37"/><path class="cls-16" d="M109.55,21s61.19,14.9,60.22,131.91L93.26,193.83l-1.83-1.65C89.94,76.63,31.21,59.85,31.21,59.85l-.06-2.14Z"/><path class="cls-17" d="M109.16,18.19s62.37,18.07,62.37,135.09L93.26,193.83c0-117-62.11-136.12-62.11-136.12Z"/><polygon class="cls-18" points="112.26 19.38 34.12 58.9 34.12 60.96 29.64 62.64 29.64 53.74 112.26 12.4 112.26 19.38"/><path class="cls-19" d="M66.45,73.52l60-30q1.69,1.6,3.42,3.5l-60,30Q68.13,75.12,66.45,73.52Z"/><path class="cls-19" d="M135.83,54.51l-60,30q-1.41-2-2.84-3.79l60-30C133.94,51.92,134.89,53.17,135.83,54.51Z"/><path class="cls-19" d="M140.81,62.51l-60,30q-1.17-2.1-2.36-4l60-30Q139.65,60.41,140.81,62.51Z"/><path class="cls-19" d="M144.94,70.94,85,100.91q-1-2.19-2-4.22l60-30Q144,68.74,144.94,70.94Z"/><path class="cls-19" d="M148.32,79.74l-59.9,30c-.52-1.51-1.06-3-1.61-4.4l59.92-30Q147.55,77.47,148.32,79.74Z"/><polygon class="cls-19" points="104.42 180.34 163.16 150.97 163.16 145.09 104.42 174.47 104.42 180.34"/><path class="cls-4" d="M383.84,229.53l-219,108a24.88,24.88,0,0,1-22.26,0L28.06,281c-4.87-2.44,29.13,11.19,34,8.75l230-115a6.61,6.61,0,0,1,5.91,0l85.9,43A6.61,6.61,0,0,1,383.84,229.53Z"/><path class="cls-20" d="M21.62,277.72c-2.83-1.73-10.44-7.69-4.49-19.1l5.27,4a14.35,14.35,0,0,1,2.3-1.44l209-102.46c7.65-3.83,20.06-3.83,27.72,0l103.7,50.77.36.19,5.82-4.41c5.26,10.09,0,15.9-3.22,18.29a12.09,12.09,0,0,1-1.14.78l0,0-.27.16c-.4.23-.64.34-.64.34L154.73,330.47c-7.65,3.83-20.06,3.83-27.72,0L22.6,278.26s-.27-.12-.7-.38Z"/><path class="cls-21" d="M22.45,267.55,127,319.83c7.65,3.83,20.06,3.83,27.72,0L366,214.19c7.65-3.83,7.65-10,0-13.86L261.45,148c-7.65-3.83-20.06-3.83-27.72,0L22.45,253.69C14.8,257.51,14.8,263.72,22.45,267.55Z"/><path class="cls-22" d="M339.2,197.09c-1.51.75-1.51,2,0,2.73a6.88,6.88,0,0,0,5.46,0c1.51-.75,1.51-2,0-2.73A6.88,6.88,0,0,0,339.2,197.09Z"/><path class="cls-22" d="M346.93,200.95c-1.51.75-1.51,2,0,2.73a6.88,6.88,0,0,0,5.46,0c1.51-.75,1.51-2,0-2.73A6.88,6.88,0,0,0,346.93,200.95Z"/><path class="cls-22" d="M331.47,193.22c-1.51.75-1.51,2,0,2.73a6.88,6.88,0,0,0,5.46,0c1.51-.75,1.51-2,0-2.73A6.88,6.88,0,0,0,331.47,193.22Z"/><path class="cls-22" d="M278.65,169.65l32.46,16.23a4.11,4.11,0,0,0,3.67,0l2.65-1.33a1.37,1.37,0,0,0,0-2.45l-32.87-16.43a3.2,3.2,0,0,0-2.86,0l-3.06,1.53A1.37,1.37,0,0,0,278.65,169.65Z"/><path class="cls-23" d="M227.54,151.18l119.68,59.68c.86.43,1.74.84,2.64,1.19l-200.38,99.1c-3.14-2.29-7.25-3.78-10.45-5.37l-18.74-9.35L96.74,284.69,72.1,272.4l-22-11-15.75-7.85-5.77-2.88Z"/><path class="cls-24" d="M354.41,220l-199.88,100c.42-.21-.93-3.82-1.06-4.11a11.5,11.5,0,0,0-4-4.67l200.38-99.1C351.28,212.61,354.41,214.46,354.41,220Z"/><path class="cls-25" d="M30.58,275.93c0,.56-.46.79-1,.51a1.92,1.92,0,0,1-1-1.53c0-.56.46-.79,1-.51A1.92,1.92,0,0,1,30.58,275.93Z"/><path class="cls-25" d="M33.92,277.6c0,.56-.46.79-1,.51a1.92,1.92,0,0,1-1-1.53c0-.56.46-.79,1-.51A1.92,1.92,0,0,1,33.92,277.6Z"/><path class="cls-25" d="M37.26,279.27c0,.56-.46.79-1,.51a1.92,1.92,0,0,1-1-1.53c0-.56.46-.79,1-.51A1.92,1.92,0,0,1,37.26,279.27Z"/><path class="cls-25" d="M40.6,280.94c0,.56-.46.79-1,.51a1.92,1.92,0,0,1-1-1.53c0-.56.46-.79,1-.51A1.92,1.92,0,0,1,40.6,280.94Z"/><path class="cls-25" d="M43.94,282.61c0,.56-.46.79-1,.51a1.92,1.92,0,0,1-1-1.53c0-.56.46-.79,1-.51A1.92,1.92,0,0,1,43.94,282.61Z"/><path class="cls-25" d="M30.58,279c0,.56-.46.79-1,.51a1.92,1.92,0,0,1-1-1.53c0-.56.46-.79,1-.51A1.92,1.92,0,0,1,30.58,279Z"/><path class="cls-25" d="M33.92,280.66c0,.56-.46.79-1,.51a1.92,1.92,0,0,1-1-1.53c0-.56.46-.79,1-.51A1.92,1.92,0,0,1,33.92,280.66Z"/><path class="cls-25" d="M37.26,282.33c0,.56-.46.79-1,.51a1.92,1.92,0,0,1-1-1.53c0-.56.46-.79,1-.51A1.92,1.92,0,0,1,37.26,282.33Z"/><path class="cls-25" d="M40.6,284c0,.56-.46.79-1,.51a1.92,1.92,0,0,1-1-1.53c0-.56.46-.79,1-.51A1.92,1.92,0,0,1,40.6,284Z"/><path class="cls-25" d="M43.94,285.68c0,.56-.46.79-1,.51a1.92,1.92,0,0,1-1-1.53c0-.56.46-.79,1-.51A1.92,1.92,0,0,1,43.94,285.68Z"/><path class="cls-25" d="M76.68,302.39l-10.53-5.27A4.11,4.11,0,0,1,64,293.84h0c0-1.21,1-1.69,2.18-1.09L76.68,298a4.11,4.11,0,0,1,2.18,3.28h0C78.86,302.5,77.89,303,76.68,302.39Z"/><path class="cls-25" d="M111.85,317.28c0,1.69-1.37,2.37-3.06,1.53a5.75,5.75,0,0,1-3.06-4.59c0-1.69,1.37-2.37,3.06-1.53A5.75,5.75,0,0,1,111.85,317.28Z"/><path class="cls-9" d="M287.64,231.43,280.49,235,277,233.28l-7.25,3.63,7,3.5-3.53,1.77-3.54-1.77L266,242.25h.1l-3.7-1.8,3.5-1.75-3.55-1.77-3.5,1.75L251.58,235,248,236.81l-7.15-3.58v.05l3.5-1.75-3.65-1.82-3.5,1.75h.1L230,227.81l3.49-1.74-3.42-1.71-7.16,3.58,3.47,1.74-3.57,1.79h.1l-10.89-5.39,3.69-1.84,3.5,1.75,7.11-3.55-3.5-1.75,3.7-1.8h-.1l3.65,1.82,18-9H248l7.1,3.55-3.5,1.75-3.34-1.67-3.54,1.77,7,3.49,3.38-1.69,10.8,5.4,3.67-1.84,3.57,1.79,3.55-1.78-3.4-1.7,3.62-1.81,7,3.5,3.53-1.77,3.61,1.81-3.4,1.7,7.23,3.61-3.7,1.85h.1l-3.5-1.75-3.65,1.82,3.5,1.75Zm-21.73-3.53-10.62-5.31-10.53,5.26,10.62,5.31ZM266,235,283.84,226l-3.38-1.69-17.83,8.91Zm-25.18-12.53,3.45-1.73L240.9,219l-7,3.49,6.93,3.47,3.52-1.76Z"/><path class="cls-9" d="M179.68,202.68l10.76,5.38,7.2-3.6,3.57,1.78,3.55-1.77-3.4-1.7,18-9,3.59,1.65,7-3.49,3.67,1.84-10.68,5.34-3.51-1.75-3.45,1.72,3.46,1.73,3.5-1.75,7.18,3.65v-.05l-7.24,3.62h.1l-7.08-3.54-3.69,1.84,3.34,1.67-7.22,3.61-3.38-1.69-7.15,3.57,7.12,3.56-3.58,1.79-10.84-5.42-7.2,3.6h.1l-10.85-5.42,3.59-1.8,7.1,3.55,3.45-1.73-7.05-3.53-3.5,1.75-3.59-1.85v.05l7.24-3.62Z"/><path class="cls-9" d="M151,231.48l14.44-7.22-7.25-3.62v.05l3.69-1.85-7.13-3.57,3.43-1.72,10.74,5.37-3.37,1.68,3.58,1.79,14.28-7.14h-.1l3.7,1.85,3.54-1.77,3.54,1.77-3.39,1.7,7.15,3.57,3.5-1.75,3.65,1.83-7.26,3.63L194,224.25,190.43,226l-3.55-1.78,3.51-1.75-3.45-1.72-3.46,1.73,3.5,1.75-7.24,3.62-3.6-1.8-3.6,1.8-3.5-1.75-3.44,1.72,3.45,1.73,3.49-1.75,3.66,1.83-10.85,5.42-3.64-1.82,3.51-1.75-3.45-1.72-3.46,1.73,3.5,1.75-10.7,5.35-3.69-1.85,7.1-3.55L151,231.43Z"/><path class="cls-9" d="M172.74,188.27l25-12.48,25,12.48-25,12.48Zm42.75,0-17.76-8.88L180,188.31l17.76,8.88Z"/><path class="cls-9" d="M197.7,279.94l-25-12.49,25-12.5,25,12.49Zm17.79-12.5-17.76-8.88L180,267.45l17.76,8.88Z"/><path class="cls-9" d="M118.53,240.35l-25-12.48,25-12.48,25,12.48ZM100.8,227.84l17.76,8.88,17.76-8.88L118.56,219Z"/><path class="cls-9" d="M215.75,238.66l-3.57,1.79-3.53-1.76-3.6,1.8,3.37,1.68L204.81,244l-7.09-3.54v.05l7.31-3.65-3.52-1.76,10.74-5.37,7.12,3.56,3.58-1.79h-.1l3.68,1.84,3.69-1.85,3.57,1.78,3.55-1.77h-.1l3.65,1.82v-.05L230,238.65h.1l-3.56-1.78-7.25,3.63-3.68-1.84,3.51-1.75-3.45-1.72-3.46,1.73Z"/><path class="cls-9" d="M240.88,247.62l-3.65,1.83,7.24,3.62V253l-3.58,1.79-3.51-1.75-3.55,1.78L230.15,253l-3.71,1.85h.1l-7.08-3.54-7.12,3.56,3.5,1.75,3.48-1.74,3.58,1.79v-.05l-3.65,1.82,3.65,1.82v-.05L219.39,262l-14.3-7.15,7-3.5-3.54-1.77,3.62-1.81,3.4,1.7,7.14-3.57,3.61,1.81L223,249.34l3.69,1.84,10.68-5.34h-.1l3.65,1.82Z"/><path class="cls-9" d="M230.09,202.71l3.65-1.82h-.1l3.5,1.75,3.65-1.82-3.5-1.75v.05l3.5-1.75,7.11,3.56-7.1,3.55,3.68,1.84v-.05l-3.6,1.85-3.5-1.75L230.13,210l7,3.52-10.73,5.37h.1L222.84,217l3.48-1.74-3.55-1.78-3.36,1.68-3.62-1.81,7.09-3.55-3.51-1.76,3.58-1.79h-.1l3.5,1.75,7.24-3.62-3.5-1.75Z"/><path class="cls-9" d="M154.5,222.47l3.5,1.75-7.07,3.53-21.38-10.69,10.61-5.3,3.53,1.77,7.3-3.65h-.1l3.69,1.85-7.22,3.61,3.54,1.77-7,3.51,7.2,3.6,3.5-1.75Z"/><path class="cls-9" d="M151,209.88l-10.7-5.35,10.7-5.35,3.39,1.69,3.54-1.77,3.62,1.81-3.34,1.67,7.29,3.65,3.48-1.74h-.1l3.65,1.82v-.05l-7.26,3.63-3.64-1.82-3.59,1.79-3.55-1.78,3.51-1.75-3.45-1.72-3.46,1.73,3.5,1.75-3.7,1.79Z"/><path class="cls-9" d="M176.12,258.41l-3.57,1.78,3.53,1.76-3.56,1.78-10.6-5.3,7.05-3.53-3.58-1.79,7.2-3.6,3.46,1.73,7.21-3.6h-.11l3.6,1.8-14.32,7.16,3.7,1.85Z"/><path class="cls-9" d="M179.78,202.68,169,197.3l3.48-1.74-3.56-1.78-3.38,1.69L162,193.68l6.93-3.47,10.65,5.32-3.36,1.68,3.56,1.78,3.38-1.69,10.78,5.39-3.4,1.7-7.12-3.56-3.71,1.85Z"/><path class="cls-9" d="M255.27,247.62l-3.55,1.77-3.52-1.76-3.64,1.82-3.68-1.84v.05l3.5-1.75-3.65-1.82-3.5,1.75h.1L233.69,244v.05l10.84-5.42,3.6,1.8-3.5,1.75,3.55,1.77,3.5-1.75,3.6,1.85V244l-3.65,1.82,3.65,1.82Z"/><path class="cls-9" d="M136.61,242.25l-7.1-3.55,17.93-9,3.5,1.75v-.05l-10.88,5.44,3.6,1.8-7.16,3.58Z"/><path class="cls-9" d="M244.48,206.3l7.09-3.55,10.64,5.32-7,3.52-3.5-1.75v.05l3.5-1.75-3.65-1.82-3.5,1.75h.1l-3.65-1.82Z"/><path class="cls-9" d="M190.52,244l-7.37,3.63h.1l-3.52-1.83v.05l3.65-1.82-3.65-1.82v.05l3.68-1.84-3.65-1.83,3.56-1.78,7.2,3.65v-.05l-3.65,1.82,3.65,1.82Z"/><path class="cls-9" d="M226.44,254.84l10.68,5.34-3.51,1.75-3.49-1.74L226.44,262h.1l-3.65-1.82v.05l3.65-1.82-3.65-1.82v.05l3.65-1.82Z"/><path class="cls-9" d="M161.69,244l7.1,3.55-3.51,1.75-3.39-1.7-3.63,1.82-3.71-1.85v.05l7.24-3.62Z"/><path class="cls-9" d="M197.7,251.15l-7.19,3.59-3.36-1.68,7.14-3.57,3.41,1.71Z"/><path class="cls-9" d="M269.71,215.26l-7.08-3.54,3.45-1.73,7,3.52-3.5,1.75Z"/><path class="cls-9" d="M133,244l-3.5,1.75-7-3.52,3.44-1.72,7.1,3.55Z"/><path class="cls-9" d="M176.12,258.46l7.09-3.55,3.46,1.73-7,3.52-3.51-1.75Z"/><path class="cls-9" d="M154.55,247.62l-7.19,3.6-3.6-1.8v.05l7.19-3.6,3.6,1.8Z"/><path class="cls-9" d="M143.76,249.42l-3.5,1.75-7.14-3.57,3.5-1.75h-.1l7.24,3.62Z"/><path class="cls-9" d="M151.09,253l3.35-1.68,7,3.52-3.35,1.68Z"/><path class="cls-9" d="M133,244.07l3.66-1.83h-.1l3.7,1.8-3.7,1.8h.1L133,244Z"/><path class="cls-9" d="M233.74,200.88l-3.5-1.75,3.55-1.77,3.5,1.75v-.05l-3.65,1.82Z"/><path class="cls-9" d="M179.73,245.82l-3.5,1.75-3.55-1.77,3.5-1.75h-.1l3.65,1.82Z"/><path class="cls-9" d="M251.68,209.85,248,211.67h.1l-3.7-1.8,3.7-1.8H248l3.65,1.82Z"/><path class="cls-9" d="M197.72,240.42l-3.65,1.82h.1l-3.65-1.82v.05l3.6-1.85,3.59,1.85Z"/><path class="cls-9" d="M194.07,242.25l3.5,1.75L194,245.77l-3.5-1.75v.05l3.65-1.82Z"/><path class="cls-9" d="M201.36,249.44l-3.49-1.75,3.45-1.73,3.44,1.72-3.5,1.75Z"/><path class="cls-9" d="M266,217l-3.59,1.8-3.36-1.68,3.54-1.77,3.41,1.71Z"/><path class="cls-9" d="M201.26,249.44l3.49,1.75-3.5,1.75-3.56-1.78v.05l3.66-1.77Z"/><path class="cls-9" d="M215.78,242.36l3.34,1.67-3.43,1.72-3.34-1.67Z"/><path class="cls-9" d="M176.18,244l-3.65-1.83v.05l3.6-1.8,3.6,1.8v-.05L176.08,244Z"/><path class="cls-9" d="M269.61,215.26,273.1,217l-3.5,1.75L266,217V217l3.66-1.77Z"/><path class="cls-9" d="M136.55,209.78l-3.37-1.68,3.4-1.7,3.37,1.68Z"/><path class="cls-9" d="M172.54,242.22l-3.6,1.8-3.6-1.8v.05l3.6-1.8,3.6,1.8Z"/><path class="cls-9" d="M230.14,242.25l-3.6-1.8,3.6-1.8H230l3.6,1.8-3.6,1.8Z"/><path class="cls-9" d="M233.69,244l-3.5,1.75L226.64,244l3.5-1.75H230l3.65,1.82Z"/><path class="cls-9" d="M165.34,242.22,161.69,244h.1l-3.7-1.8,3.65-1.82,3.6,1.85Z"/><path class="cls-9" d="M169,204.48l-3.5-1.75,3.46-1.73,3.45,1.72-3.51,1.75Z"/><path class="cls-9" d="M158.15,220.64l-3.65,1.83h.1l-3.5-1.75,3.55-1.77,3.5,1.75Z"/><path class="cls-9" d="M262.46,244l-3.65,1.82h.1L255.27,244v.05l3.6-1.85,3.59,1.85Z"/><path class="cls-9" d="M226.44,262l3.5,1.75-3.46,1.73L223,263.78l3.51-1.75Z"/><path class="cls-9" d="M244.47,253.07l3.5-1.75,3.46,1.73L248,254.77,244.47,253Z"/><path class="cls-9" d="M258.82,245.84l3.5,1.75-3.55,1.77-3.5-1.75v.05l3.65-1.82Z"/><path class="cls-9" d="M266,242.25l3.5,1.75L266,245.77l-3.5-1.75v.05l3.65-1.82Z"/><path class="cls-9" d="M291.19,229.66l3.5,1.75-3.55,1.77-3.5-1.75v.05l3.65-1.82Z"/><path class="cls-9" d="M194.12,238.68l-7.19-3.6-3.6,1.8-3.56-1.78-3.46,1.73L172.62,235l7.11-3.55,3.58,1.79,3.51-1.75,3.55,1.78,3.54-1.77,3.62,1.81-3.39,1.7,3.69,1.84Z"/><path class="cls-9" d="M204.86,222.46l3.6-1.8-3.6-1.8,7.08-3.54,3.56,1.78-3.44,1.72,3.68,1.84-7.24,3.62Z"/><path class="cls-9" d="M208.51,224.24l3.65,1.82-3.5,1.75L205,226Z"/><path class="cls-9" d="M201.43,228l3.31,1.66-3.44,1.72L198,229.67Z"/><path class="cls-9" d="M176.08,229.66l3.65-1.82,3.65,1.82-3.65,1.82Z"/><path class="cls-9" d="M205,218.87l-3.65,1.82-3.65-1.82,3.65-1.82Z"/><path class="cls-9" d="M222.95,220.67l-3.65,1.82-3.65-1.82,3.65-1.82Z"/><path class="cls-9" d="M255.32,240.45l-3.65,1.82L248,240.45l3.65-1.82Z"/><path class="cls-9" d="M258.87,242.27l-3.65-1.82,3.65-1.82,3.65,1.82Z"/><path class="cls-9" d="M240.88,208.05l3.65,1.82-3.5,1.75-3.65-1.82Z"/><path class="cls-9" d="M251.88,227.84l3.39-1.69,3.38,1.69-3.39,1.69Z"/><path class="cls-9" d="M172.49,217l-7-3.49,3.38-1.69,7,3.49Z"/><path class="cls-9" d="M151,242.25l-7.24,3.62L140.11,244l7.24-3.62Z"/><path class="cls-9" d="M165.34,235l3.65,1.82-7.24,3.62-3.65-1.82Z"/><path class="cls-9" d="M158.2,242.25l-3.65,1.82-3.65-1.82,3.65-1.82Z"/><path class="cls-9" d="M187.13,188.27,197.7,183l10.57,5.28-10.57,5.28Z"/><path class="cls-9" d="M187.13,267.41l10.57-5.28,10.57,5.28-10.57,5.28Z"/><path class="cls-9" d="M118.59,222.56l10.56,5.28-10.59,5.3L108,227.85Z"/><g class="cls-26"><polygon class="cls-27" points="483.62 133.97 494.26 139.29 494.26 200.82 483.62 195.5 483.62 133.97"/><polygon class="cls-27" points="468.67 116.63 479.31 121.96 479.31 193.34 468.67 188.02 468.67 116.63"/><polygon class="cls-27" points="453.71 131.46 464.36 136.78 464.36 185.87 453.71 180.54 453.71 131.46"/><polygon class="cls-27" points="438.76 98.13 449.41 103.45 449.41 178.39 438.76 173.07 438.76 98.13"/><polygon class="cls-27" points="423.81 104.06 434.45 109.39 434.45 170.91 423.81 165.59 423.81 104.06"/><polygon class="cls-27" points="408.86 65.69 419.5 71.02 419.5 163.43 408.86 158.11 408.86 65.69"/><path class="cls-27" d="M398.84,158.24l100.87,50.44v-89c0-.42.34-.59.76-.38a1.43,1.43,0,0,1,.76,1.14v89l5.08,2.54a1.43,1.43,0,0,1,.76,1.14c0,.42-.34.59-.76.38L501.23,211v5.32c0,.42-.34.59-.76.38a1.43,1.43,0,0,1-.76-1.14v-5.32L398.84,159.76a1.43,1.43,0,0,1-.76-1.14C398.08,158.2,398.42,158,398.84,158.24Z"/></g><g class="cls-26"><path class="cls-27" d="M30.15,198.59a9.71,9.71,0,0,0,1.69,3l-3.28,4.92,6.65,3.32,3.39-5.09a14.14,14.14,0,0,0,3.73-.35v4.84l9.4-4.7v-4.83a34.16,34.16,0,0,0,3.73-3.37L58.85,198l6.65-10-3.27-1.63a29.34,29.34,0,0,0,1.7-4.7l4.52-2.26v-9.4l-4.28,2.14a10.19,10.19,0,0,0-1.62-3.36l3-4.44-6.65-3.32L56,165.34a13.79,13.79,0,0,0-4.28.32v-4l-9.4,4.7v4a34.49,34.49,0,0,0-4.27,4l-2.85-1.43-6.65,10,3,1.48a28.1,28.1,0,0,0-1.62,5l-4.31,2.16v9.4ZM47,194.42c-5.19,2.59-9.39.49-9.39-4.7s4.21-11.5,9.39-14.09,9.39-.49,9.39,4.7S52.23,191.82,47,194.42Z"/><path class="cls-27" d="M3.24,229.43a6.94,6.94,0,0,0,1.2,2.14L2.1,235.09l4.75,2.37,2.42-3.64a10.11,10.11,0,0,0,2.66-.25V237l6.72-3.36v-3.45a24.4,24.4,0,0,0,2.67-2.41L23.74,229l4.75-7.12-2.33-1.17a21,21,0,0,0,1.21-3.36l3.23-1.62V209l-3.06,1.53a7.28,7.28,0,0,0-1.16-2.4L28.5,205l-4.75-2.37-2,3a9.86,9.86,0,0,0-3.06.23v-2.84L12,206.42v2.84a24.63,24.63,0,0,0-3.05,2.82l-2-1-4.75,7.12,2.12,1.06a20.07,20.07,0,0,0-1.16,3.54L0,224.33v6.72Zm12.07-3c-3.71,1.85-6.71.35-6.71-3.35s3-8.21,6.71-10.07,6.71-.35,6.71,3.35S19,224.59,15.31,226.45Z"/><path class="cls-27" d="M5,198.12A6.27,6.27,0,0,0,5.65,200l-2,2.6,3.21,2.5,2.1-2.69a6.54,6.54,0,0,0,1.95.11l-.33,2.83,5.18-2,.33-2.82a17.52,17.52,0,0,0,2.16-1.66l1.64,1.28L24,194.94l-1.58-1.23a17.94,17.94,0,0,0,1.2-2.61l2.49-.94.63-5.49-2.36.89a6.66,6.66,0,0,0-.61-2.1l1.83-2.35-3.21-2.5-1.76,2.25a6.39,6.39,0,0,0-2.23-.17l.27-2.33-5.18,2-.27,2.33a17.78,17.78,0,0,0-2.47,1.95l-1.38-1.07-4.11,5.27,1.44,1.12a17.36,17.36,0,0,0-1.17,2.76l-2.37.9-.63,5.49Zm9-1c-2.86,1.08-4.89-.5-4.54-3.53a9.94,9.94,0,0,1,5.81-7.44c2.86-1.08,4.89.5,4.54,3.53A9.94,9.94,0,0,1,14,197.1Z"/></g><g class="cls-28"><path class="cls-27" d="M201.78,36.55a32,32,0,0,1,8.56-7.73l.32-.16a14.15,14.15,0,0,1,8.56-.83c3.76,1,8.22,4.7,8.57,16.45a2.72,2.72,0,0,1-1.46,2.22h0c-.79.4-1.43.08-1.46-.7-.4-13.9-6.78-15.51-11-15a12.92,12.92,0,0,0-6.79,3.4c-4.2,3.73-10.58,11.72-11,26.06a2.68,2.68,0,0,1-1.41,2.09l0,0c-.83.41-1.49.07-1.47-.76C193.56,49.47,198,41.32,201.78,36.55Z"/><path class="cls-27" d="M191.19,62.44V96.7c0,1.1.89,1.54,2,1l34.26-17.14a3.74,3.74,0,0,0,2-3V43.31c0-1.1-.89-1.54-2-1L193.17,59.46A3.74,3.74,0,0,0,191.19,62.44Zm17.26,10.41c-1.75.15-3-1-3-3,0-2.67,2.16-5.92,4.83-7.25s4.83-.25,4.83,2.42a8.77,8.77,0,0,1-3,6l2.39,5.85a2.22,2.22,0,0,1-1.24,2.35l-3,1.5-3,1.5c-.9.45-1.53-.12-1.24-1.11Z"/></g><path class="cls-25" d="M304.87,252.93,284.52,263.1c-1.25.62-2.27.11-2.27-1.14h0a4.29,4.29,0,0,1,2.27-3.41l20.35-10.18c1.25-.62,2.27-.11,2.27,1.14h0A4.29,4.29,0,0,1,304.87,252.93Z"/><path class="cls-29" d="M305.42,253.4l-20.35,10.18c-1.25.62-2.27.11-2.27-1.14h0a4.29,4.29,0,0,1,2.27-3.41l20.35-10.18c1.25-.62,2.27-.11,2.27,1.14h0A4.29,4.29,0,0,1,305.42,253.4Z"/><path class="cls-25" d="M333.51,238.42,313.17,248.6c-1.25.62-2.27.11-2.27-1.14h0a4.29,4.29,0,0,1,2.27-3.41l20.35-10.18c1.25-.62,2.27-.11,2.27,1.14h0A4.29,4.29,0,0,1,333.51,238.42Z"/><path class="cls-29" d="M334.07,238.89l-20.35,10.18c-1.25.62-2.27.11-2.27-1.14h0a4.29,4.29,0,0,1,2.27-3.41l20.35-10.18c1.25-.62,2.27-.11,2.27,1.14h0A4.29,4.29,0,0,1,334.07,238.89Z"/><path class="cls-30" d="M58.61,320.11c12.42,6.71,13,16.51,1.2,21.89S28.45,346.32,16,339.61s-13-16.51-1.2-21.89S46.19,313.4,58.61,320.11Z"/><path class="cls-2" d="M60.12,320.68A18.42,18.42,0,0,0,54,316c-10.94-5.47-28.69-5.47-39.63,0a18.42,18.42,0,0,0-6.16,4.65h-2v5.26h0c0,3.59,2.74,7.17,8.21,9.91,10.94,5.47,28.69,5.47,39.63,0,5.47-2.74,8.21-6.32,8.21-9.91v-5.26Z"/><g class="cls-31"><rect class="cls-32" x="8.61" y="295.96" width="1.03" height="45.82"/><rect class="cls-32" x="12.09" y="298.71" width="1.03" height="45.82"/><rect class="cls-32" x="15.56" y="301.46" width="1.03" height="45.82"/><rect class="cls-32" x="19.04" y="304.22" width="1.03" height="45.82"/><rect class="cls-32" x="23.05" y="302.68" width="1.03" height="45.82"/><rect class="cls-32" x="27.06" y="301.13" width="1.03" height="45.82"/><rect class="cls-32" x="31.07" y="299.59" width="1.03" height="45.82"/><rect class="cls-32" x="35.09" y="298.05" width="1.03" height="45.82"/><rect class="cls-32" x="38.81" y="299.59" width="1.03" height="45.82"/><rect class="cls-32" x="42.53" y="301.13" width="1.03" height="45.82"/><rect class="cls-32" x="46.25" y="302.68" width="1.03" height="45.82"/><rect class="cls-32" x="49.97" y="304.22" width="1.03" height="45.82"/><rect class="cls-32" x="53.7" y="305.76" width="1.03" height="45.82"/><rect class="cls-32" x="57.42" y="307.3" width="1.03" height="45.82"/></g><path class="cls-33" d="M54,310.77c10.94,5.47,10.94,14.34,0,19.82s-28.69,5.47-39.63,0-10.94-14.34,0-19.82S43,305.3,54,310.77Z"/><path class="cls-32" d="M16.44,313.71c9.78-4.89,25.63-4.89,35.41,0,4.41,2.2,6.81,5,7.24,7.91.53-3.51-1.87-7.11-7.24-9.79-9.78-4.89-25.63-4.89-35.41,0-5.37,2.68-7.77,6.28-7.24,9.79C9.63,318.74,12,315.91,16.44,313.71Z"/><path class="cls-2" d="M16.44,329.53c9.78,4.89,25.63,4.89,35.41,0,4.41-2.2,6.81-5,7.24-7.91-.43-2.88-2.83-5.71-7.24-7.91-9.78-4.89-25.63-4.89-35.41,0-4.41,2.2-6.81,5-7.24,7.91C9.63,324.5,12,327.32,16.44,329.53Z"/><path class="cls-2" d="M60.12,313.92A18.42,18.42,0,0,0,54,309.28c-10.94-5.47-28.69-5.47-39.63,0a18.42,18.42,0,0,0-6.16,4.65h-2v5.26h0c0,3.59,2.74,7.17,8.21,9.91,10.94,5.47,28.69,5.47,39.63,0,5.47-2.74,8.21-6.32,8.21-9.91v-5.26Z"/><g class="cls-34"><rect class="cls-32" x="8.61" y="289.2" width="1.03" height="45.82"/><rect class="cls-32" x="12.09" y="291.95" width="1.03" height="45.82"/><rect class="cls-32" x="15.56" y="294.71" width="1.03" height="45.82"/><rect class="cls-32" x="19.04" y="297.46" width="1.03" height="45.82"/><rect class="cls-32" x="23.05" y="295.92" width="1.03" height="45.82"/><rect class="cls-32" x="27.06" y="294.38" width="1.03" height="45.82"/><rect class="cls-32" x="31.07" y="292.84" width="1.03" height="45.82"/><rect class="cls-32" x="35.09" y="291.29" width="1.03" height="45.82"/><rect class="cls-32" x="38.81" y="292.84" width="1.03" height="45.82"/><rect class="cls-32" x="42.53" y="294.38" width="1.03" height="45.82"/><rect class="cls-32" x="46.25" y="295.92" width="1.03" height="45.82"/><rect class="cls-32" x="49.97" y="297.46" width="1.03" height="45.82"/><rect class="cls-32" x="53.7" y="299" width="1.03" height="45.82"/><rect class="cls-32" x="57.42" y="300.54" width="1.03" height="45.82"/></g><path class="cls-33" d="M54,304c10.94,5.47,10.94,14.34,0,19.82s-28.69,5.47-39.63,0-10.94-14.34,0-19.82S43,298.54,54,304Z"/><path class="cls-32" d="M16.44,307c9.78-4.89,25.63-4.89,35.41,0,4.41,2.2,6.81,5,7.24,7.91.53-3.51-1.87-7.11-7.24-9.79-9.78-4.89-25.63-4.89-35.41,0-5.37,2.68-7.77,6.28-7.24,9.79C9.63,312,12,309.16,16.44,307Z"/><path class="cls-2" d="M16.44,322.77c9.78,4.89,25.63,4.89,35.41,0,4.41-2.2,6.81-5,7.24-7.91-.43-2.88-2.83-5.71-7.24-7.91-9.78-4.89-25.63-4.89-35.41,0-4.41,2.2-6.81,5-7.24,7.91C9.63,317.75,12,320.57,16.44,322.77Z"/><path class="cls-2" d="M60.12,307.16A18.42,18.42,0,0,0,54,302.52C43,297,25.27,297,14.33,302.52a18.42,18.42,0,0,0-6.16,4.65h-2v5.26h0c0,3.59,2.74,7.17,8.21,9.91,10.94,5.47,28.69,5.47,39.63,0,5.47-2.74,8.21-6.32,8.21-9.91v-5.26Z"/><g class="cls-35"><rect class="cls-32" x="8.61" y="282.44" width="1.03" height="45.82"/><rect class="cls-32" x="12.09" y="285.2" width="1.03" height="45.82"/><rect class="cls-32" x="15.56" y="287.95" width="1.03" height="45.82"/><rect class="cls-32" x="19.04" y="290.7" width="1.03" height="45.82"/><rect class="cls-32" x="23.05" y="289.16" width="1.03" height="45.82"/><rect class="cls-32" x="27.06" y="287.62" width="1.03" height="45.82"/><rect class="cls-32" x="31.07" y="286.08" width="1.03" height="45.82"/><rect class="cls-32" x="35.09" y="284.54" width="1.03" height="45.82"/><rect class="cls-32" x="38.81" y="286.08" width="1.03" height="45.82"/><rect class="cls-32" x="42.53" y="287.62" width="1.03" height="45.82"/><rect class="cls-32" x="46.25" y="289.16" width="1.03" height="45.82"/><rect class="cls-32" x="49.97" y="290.7" width="1.03" height="45.82"/><rect class="cls-32" x="53.7" y="292.25" width="1.03" height="45.82"/><rect class="cls-32" x="57.42" y="293.79" width="1.03" height="45.82"/></g><path class="cls-33" d="M54,297.26c10.94,5.47,10.94,14.34,0,19.82s-28.69,5.47-39.63,0-10.94-14.34,0-19.82S43,291.78,54,297.26Z"/><path class="cls-32" d="M16.44,300.2c9.78-4.89,25.63-4.89,35.41,0,4.41,2.2,6.81,5,7.24,7.91.53-3.51-1.87-7.11-7.24-9.79-9.78-4.89-25.63-4.89-35.41,0-5.37,2.68-7.77,6.28-7.24,9.79C9.63,305.22,12,302.4,16.44,300.2Z"/><path class="cls-36" d="M16.44,316c9.78,4.89,25.63,4.89,35.41,0,4.41-2.2,6.81-5,7.24-7.91-.43-2.88-2.83-5.71-7.24-7.91-9.78-4.89-25.63-4.89-35.41,0-4.41,2.2-6.81,5-7.24,7.91C9.63,311,12,313.81,16.44,316Z"/><path class="cls-37" d="M22.22,307.56A10.78,10.78,0,0,0,26.41,311c2.31,1.16,4.49,1.29,5.94.56s1.12-1.62-.59-3.43c-2.41-2.49-2.77-4.72.46-6.34,3.8-1.9,9.87-1.77,15.12.86a12.6,12.6,0,0,1,4.55,3.4l-5.18,1.47a9.11,9.11,0,0,0-3.6-2.86c-2.18-1.09-4.23-1.12-5.38-.54-1.42.71-.79,1.65,1,3.63,2.48,2.69,2.28,4.64-.86,6.21-3.73,1.87-9.77,2-15.88-1a13,13,0,0,1-5-3.83Z"/><polygon class="cls-37" points="22.83 315.75 19.46 314.06 47.41 300.09 50.78 301.77 22.83 315.75"/><polygon class="cls-38" points="50.78 300.79 50.78 301.77 49.04 302.64 47.88 302.24 50.78 300.79"/><polygon class="cls-37" points="17.03 309.12 17.03 308.14 19.16 308.63 18.09 309.69 17.03 309.12"/><polygon class="cls-39" points="19.46 314.06 19.46 313.07 22.83 314.76 22.83 315.75 19.46 314.06"/><polygon class="cls-39" points="51.9 306.09 51.9 305.1 46.71 306.57 46.71 307.56 51.9 306.09"/><path class="cls-33" d="M22.22,306.57a10.78,10.78,0,0,0,4.19,3.48c2.31,1.16,4.49,1.29,5.94.56s1.12-1.62-.59-3.43c-2.41-2.49-2.77-4.72.46-6.34,3.8-1.9,9.87-1.77,15.12.86a12.6,12.6,0,0,1,4.55,3.4l-5.18,1.47a9.11,9.11,0,0,0-3.6-2.86c-2.18-1.09-4.23-1.12-5.38-.54-1.42.71-.79,1.65,1,3.63,2.48,2.69,2.28,4.64-.86,6.21-3.73,1.87-9.77,2-15.88-1a13,13,0,0,1-5-3.83Z"/><polygon class="cls-33" points="22.83 314.76 19.46 313.07 47.41 299.1 50.78 300.79 22.83 314.76"/><path class="cls-30" d="M280.51,326.76c12.42,6.71,13,16.51,1.2,21.89s-31.36,4.31-43.79-2.39-13-16.51-1.2-21.89S268.08,320.05,280.51,326.76Z"/><path class="cls-2" d="M282,327.32a18.42,18.42,0,0,0-6.16-4.65c-10.94-5.47-28.69-5.47-39.63,0a18.42,18.42,0,0,0-6.16,4.65h-2v5.26h0c0,3.59,2.74,7.17,8.21,9.91,10.94,5.47,28.69,5.47,39.63,0,5.47-2.74,8.21-6.32,8.21-9.91v-5.26Z"/><g class="cls-40"><rect class="cls-32" x="230.51" y="302.6" width="1.03" height="45.82"/><rect class="cls-32" x="233.98" y="305.35" width="1.03" height="45.82"/><rect class="cls-32" x="237.46" y="308.11" width="1.03" height="45.82"/><rect class="cls-32" x="240.93" y="310.86" width="1.03" height="45.82"/><rect class="cls-32" x="244.94" y="309.32" width="1.03" height="45.82"/><rect class="cls-32" x="248.96" y="307.78" width="1.03" height="45.82"/><rect class="cls-32" x="252.97" y="306.24" width="1.03" height="45.82"/><rect class="cls-32" x="256.98" y="304.7" width="1.03" height="45.82"/><rect class="cls-32" x="260.7" y="306.24" width="1.03" height="45.82"/><rect class="cls-32" x="264.42" y="307.78" width="1.03" height="45.82"/><rect class="cls-32" x="268.15" y="309.32" width="1.03" height="45.82"/><rect class="cls-32" x="271.87" y="310.86" width="1.03" height="45.82"/><rect class="cls-32" x="275.59" y="312.4" width="1.03" height="45.82"/><rect class="cls-32" x="279.31" y="313.95" width="1.03" height="45.82"/></g><path class="cls-33" d="M275.85,317.41c10.94,5.47,10.94,14.34,0,19.82s-28.69,5.47-39.63,0-10.94-14.34,0-19.82S264.91,311.94,275.85,317.41Z"/><path class="cls-32" d="M238.33,320.35c9.78-4.89,25.63-4.89,35.41,0,4.41,2.2,6.81,5,7.24,7.91.53-3.51-1.87-7.11-7.24-9.79-9.78-4.89-25.63-4.89-35.41,0-5.37,2.68-7.77,6.28-7.24,9.79C231.52,325.38,233.93,322.56,238.33,320.35Z"/><path class="cls-2" d="M238.33,336.17c9.78,4.89,25.63,4.89,35.41,0,4.41-2.2,6.81-5,7.24-7.91-.43-2.88-2.83-5.71-7.24-7.91-9.78-4.89-25.63-4.89-35.41,0-4.41,2.2-6.81,5-7.24,7.91C231.52,331.15,233.93,334,238.33,336.17Z"/><path class="cls-37" d="M244.11,328.4a10.77,10.77,0,0,0,4.19,3.48c2.31,1.16,4.49,1.29,5.94.56s1.12-1.62-.59-3.43c-2.41-2.49-2.77-4.72.46-6.34,3.8-1.9,9.87-1.77,15.12.86a12.6,12.6,0,0,1,4.55,3.4l-5.18,1.47a9.11,9.11,0,0,0-3.6-2.86c-2.18-1.09-4.23-1.12-5.38-.54-1.42.71-.79,1.65,1,3.63,2.48,2.69,2.28,4.64-.86,6.21-3.73,1.87-9.77,2-15.88-1a13,13,0,0,1-5-3.83Z"/><polygon class="cls-37" points="244.72 336.59 241.35 334.9 269.3 320.93 272.67 322.62 244.72 336.59"/><polygon class="cls-38" points="272.67 321.63 272.67 322.62 270.93 323.48 269.77 323.08 272.67 321.63"/><polygon class="cls-37" points="238.93 329.96 238.93 328.98 241.05 329.47 239.99 330.53 238.93 329.96"/><polygon class="cls-39" points="241.35 334.9 241.35 333.91 244.72 335.6 244.72 336.59 241.35 334.9"/><polygon class="cls-39" points="273.79 326.93 273.79 325.94 268.61 327.41 268.61 328.39 273.79 326.93"/><path class="cls-33" d="M244.11,327.41a10.77,10.77,0,0,0,4.19,3.48c2.31,1.16,4.49,1.29,5.94.56s1.12-1.62-.59-3.43c-2.41-2.49-2.77-4.72.46-6.34,3.8-1.9,9.87-1.77,15.12.86a12.6,12.6,0,0,1,4.55,3.4l-5.18,1.47a9.11,9.11,0,0,0-3.6-2.86c-2.18-1.09-4.23-1.12-5.38-.54-1.42.71-.79,1.65,1,3.63,2.48,2.69,2.28,4.64-.86,6.21-3.73,1.87-9.77,2-15.88-1a13,13,0,0,1-5-3.83Z"/><polygon class="cls-33" points="244.72 335.6 241.35 333.91 269.3 319.94 272.67 321.63 244.72 335.6"/><path class="cls-30" d="M342.65,139.08c12.42,6.71,13,16.51,1.2,21.89s-31.36,4.31-43.79-2.39-13-16.51-1.2-21.89S330.23,132.37,342.65,139.08Z"/><path class="cls-2" d="M344.16,139.64A18.42,18.42,0,0,0,338,135c-10.94-5.47-28.69-5.47-39.63,0a18.42,18.42,0,0,0-6.16,4.65h-2v5.26h0c0,3.59,2.74,7.17,8.21,9.91,10.94,5.47,28.69,5.47,39.63,0,5.47-2.74,8.21-6.32,8.21-9.91v-5.26Z"/><g class="cls-41"><rect class="cls-32" x="292.65" y="114.92" width="1.03" height="45.82"/><rect class="cls-32" x="296.12" y="117.68" width="1.03" height="45.82"/><rect class="cls-32" x="299.6" y="120.43" width="1.03" height="45.82"/><rect class="cls-32" x="303.07" y="123.18" width="1.03" height="45.82"/><rect class="cls-32" x="307.09" y="121.64" width="1.03" height="45.82"/><rect class="cls-32" x="311.1" y="120.1" width="1.03" height="45.82"/><rect class="cls-32" x="315.11" y="118.56" width="1.03" height="45.82"/><rect class="cls-32" x="319.12" y="117.02" width="1.03" height="45.82"/><rect class="cls-32" x="322.84" y="118.56" width="1.03" height="45.82"/><rect class="cls-32" x="326.57" y="120.1" width="1.03" height="45.82"/><rect class="cls-32" x="330.29" y="121.64" width="1.03" height="45.82"/><rect class="cls-32" x="334.01" y="123.18" width="1.03" height="45.82"/><rect class="cls-32" x="337.73" y="124.73" width="1.03" height="45.82"/><rect class="cls-32" x="341.46" y="126.27" width="1.03" height="45.82"/></g><path class="cls-33" d="M338,129.74c10.94,5.47,10.94,14.34,0,19.82s-28.69,5.47-39.63,0-10.94-14.34,0-19.82S327.05,124.26,338,129.74Z"/><path class="cls-32" d="M300.48,132.68c9.78-4.89,25.63-4.89,35.41,0,4.41,2.2,6.81,5,7.24,7.91.53-3.51-1.87-7.11-7.24-9.79-9.78-4.89-25.63-4.89-35.41,0-5.37,2.68-7.77,6.28-7.24,9.79C293.67,137.7,296.07,134.88,300.48,132.68Z"/><path class="cls-2" d="M300.48,148.5c9.78,4.89,25.63,4.89,35.41,0,4.41-2.2,6.81-5,7.24-7.91-.43-2.88-2.83-5.71-7.24-7.91-9.78-4.89-25.63-4.89-35.41,0-4.41,2.2-6.81,5-7.24,7.91C293.67,143.47,296.07,146.29,300.48,148.5Z"/><path class="cls-2" d="M344.16,132.89a18.42,18.42,0,0,0-6.16-4.65c-10.94-5.47-28.69-5.47-39.63,0a18.42,18.42,0,0,0-6.16,4.65h-2v5.26h0c0,3.59,2.74,7.17,8.21,9.91,10.94,5.47,28.69,5.47,39.63,0,5.47-2.74,8.21-6.32,8.21-9.91v-5.26Z"/><g class="cls-42"><rect class="cls-32" x="292.65" y="108.17" width="1.03" height="45.82"/><rect class="cls-32" x="296.12" y="110.92" width="1.03" height="45.82"/><rect class="cls-32" x="299.6" y="113.67" width="1.03" height="45.82"/><rect class="cls-32" x="303.07" y="116.43" width="1.03" height="45.82"/><rect class="cls-32" x="307.09" y="114.89" width="1.03" height="45.82"/><rect class="cls-32" x="311.1" y="113.34" width="1.03" height="45.82"/><rect class="cls-32" x="315.11" y="111.8" width="1.03" height="45.82"/><rect class="cls-32" x="319.12" y="110.26" width="1.03" height="45.82"/><rect class="cls-32" x="322.84" y="111.8" width="1.03" height="45.82"/><rect class="cls-32" x="326.57" y="113.34" width="1.03" height="45.82"/><rect class="cls-32" x="330.29" y="114.89" width="1.03" height="45.82"/><rect class="cls-32" x="334.01" y="116.43" width="1.03" height="45.82"/><rect class="cls-32" x="337.73" y="117.97" width="1.03" height="45.82"/><rect class="cls-32" x="341.46" y="119.51" width="1.03" height="45.82"/></g><path class="cls-33" d="M338,123c10.94,5.47,10.94,14.34,0,19.82s-28.69,5.47-39.63,0-10.94-14.34,0-19.82S327.05,117.51,338,123Z"/><path class="cls-32" d="M300.48,125.92c9.78-4.89,25.63-4.89,35.41,0,4.41,2.2,6.81,5,7.24,7.91.53-3.51-1.87-7.11-7.24-9.79-9.78-4.89-25.63-4.89-35.41,0-5.37,2.68-7.77,6.28-7.24,9.79C293.67,130.95,296.07,128.12,300.48,125.92Z"/><path class="cls-2" d="M300.48,141.74c9.78,4.89,25.63,4.89,35.41,0,4.41-2.2,6.81-5,7.24-7.91-.43-2.88-2.83-5.71-7.24-7.91-9.78-4.89-25.63-4.89-35.41,0-4.41,2.2-6.81,5-7.24,7.91C293.67,136.71,296.07,139.53,300.48,141.74Z"/><path class="cls-2" d="M344.16,126.13a18.42,18.42,0,0,0-6.16-4.65c-10.94-5.47-28.69-5.47-39.63,0a18.42,18.42,0,0,0-6.16,4.65h-2v5.26h0c0,3.59,2.74,7.17,8.21,9.91,10.94,5.47,28.69,5.47,39.63,0,5.47-2.74,8.21-6.32,8.21-9.91v-5.26Z"/><g class="cls-43"><rect class="cls-32" x="292.65" y="101.41" width="1.03" height="45.82"/><rect class="cls-32" x="296.12" y="104.16" width="1.03" height="45.82"/><rect class="cls-32" x="299.6" y="106.92" width="1.03" height="45.82"/><rect class="cls-32" x="303.07" y="109.67" width="1.03" height="45.82"/><rect class="cls-32" x="307.09" y="108.13" width="1.03" height="45.82"/><rect class="cls-32" x="311.1" y="106.59" width="1.03" height="45.82"/><rect class="cls-32" x="315.11" y="105.05" width="1.03" height="45.82"/><rect class="cls-32" x="319.12" y="103.51" width="1.03" height="45.82"/><rect class="cls-32" x="322.84" y="105.05" width="1.03" height="45.82"/><rect class="cls-32" x="326.57" y="106.59" width="1.03" height="45.82"/><rect class="cls-32" x="330.29" y="108.13" width="1.03" height="45.82"/><rect class="cls-32" x="334.01" y="109.67" width="1.03" height="45.82"/><rect class="cls-32" x="337.73" y="111.21" width="1.03" height="45.82"/><rect class="cls-32" x="341.46" y="112.75" width="1.03" height="45.82"/></g><path class="cls-33" d="M338,116.22c10.94,5.47,10.94,14.34,0,19.82s-28.69,5.47-39.63,0-10.94-14.34,0-19.82S327.05,110.75,338,116.22Z"/><path class="cls-32" d="M300.48,119.16c9.78-4.89,25.63-4.89,35.41,0,4.41,2.2,6.81,5,7.24,7.91.53-3.51-1.87-7.11-7.24-9.79-9.78-4.89-25.63-4.89-35.41,0-5.37,2.68-7.77,6.28-7.24,9.79C293.67,124.19,296.07,121.37,300.48,119.16Z"/><path class="cls-36" d="M300.48,135c9.78,4.89,25.63,4.89,35.41,0,4.41-2.2,6.81-5,7.24-7.91-.43-2.88-2.83-5.71-7.24-7.91-9.78-4.89-25.63-4.89-35.41,0-4.41,2.2-6.81,5-7.24,7.91C293.67,130,296.07,132.78,300.48,135Z"/><path class="cls-2" d="M344.16,119.62A18.42,18.42,0,0,0,338,115c-10.94-5.47-28.69-5.47-39.63,0a18.42,18.42,0,0,0-6.16,4.65h-2v5.26h0c0,3.59,2.74,7.17,8.21,9.91,10.94,5.47,28.69,5.47,39.63,0,5.47-2.74,8.21-6.32,8.21-9.91v-5.26Z"/><g class="cls-44"><rect class="cls-32" x="292.65" y="94.9" width="1.03" height="45.82"/><rect class="cls-32" x="296.12" y="97.65" width="1.03" height="45.82"/><rect class="cls-32" x="299.6" y="100.41" width="1.03" height="45.82"/><rect class="cls-32" x="303.07" y="103.16" width="1.03" height="45.82"/><rect class="cls-32" x="307.09" y="101.62" width="1.03" height="45.82"/><rect class="cls-32" x="311.1" y="100.08" width="1.03" height="45.82"/><rect class="cls-32" x="315.11" y="98.54" width="1.03" height="45.82"/><rect class="cls-32" x="319.12" y="97" width="1.03" height="45.82"/><rect class="cls-32" x="322.84" y="98.54" width="1.03" height="45.82"/><rect class="cls-32" x="326.57" y="100.08" width="1.03" height="45.82"/><rect class="cls-32" x="330.29" y="101.62" width="1.03" height="45.82"/><rect class="cls-32" x="334.01" y="103.16" width="1.03" height="45.82"/><rect class="cls-32" x="337.73" y="104.7" width="1.03" height="45.82"/><rect class="cls-32" x="341.46" y="106.24" width="1.03" height="45.82"/></g><path class="cls-33" d="M338,109.71c10.94,5.47,10.94,14.34,0,19.82s-28.69,5.47-39.63,0-10.94-14.34,0-19.82S327.05,104.24,338,109.71Z"/><path class="cls-32" d="M300.48,112.65c9.78-4.89,25.63-4.89,35.41,0,4.41,2.2,6.81,5,7.24,7.91.53-3.51-1.87-7.11-7.24-9.79-9.78-4.89-25.63-4.89-35.41,0-5.37,2.68-7.77,6.28-7.24,9.79C293.67,117.68,296.07,114.86,300.48,112.65Z"/><path class="cls-2" d="M300.48,128.47c9.78,4.89,25.63,4.89,35.41,0,4.41-2.2,6.81-5,7.24-7.91-.43-2.88-2.83-5.71-7.24-7.91-9.78-4.89-25.63-4.89-35.41,0-4.41,2.2-6.81,5-7.24,7.91C293.67,123.45,296.07,126.27,300.48,128.47Z"/><path class="cls-2" d="M344.16,112.87a18.42,18.42,0,0,0-6.16-4.65c-10.94-5.47-28.69-5.47-39.63,0a18.42,18.42,0,0,0-6.16,4.65h-2v5.26h0c0,3.59,2.74,7.17,8.21,9.91,10.94,5.47,28.69,5.47,39.63,0,5.47-2.74,8.21-6.32,8.21-9.91v-5.26Z"/><g class="cls-45"><rect class="cls-32" x="292.65" y="88.15" width="1.03" height="45.82"/><rect class="cls-32" x="296.12" y="90.9" width="1.03" height="45.82"/><rect class="cls-32" x="299.6" y="93.65" width="1.03" height="45.82"/><rect class="cls-32" x="303.07" y="96.41" width="1.03" height="45.82"/><rect class="cls-32" x="307.09" y="94.86" width="1.03" height="45.82"/><rect class="cls-32" x="311.1" y="93.32" width="1.03" height="45.82"/><rect class="cls-32" x="315.11" y="91.78" width="1.03" height="45.82"/><rect class="cls-32" x="319.12" y="90.24" width="1.03" height="45.82"/><rect class="cls-32" x="322.84" y="91.78" width="1.03" height="45.82"/><rect class="cls-32" x="326.57" y="93.32" width="1.03" height="45.82"/><rect class="cls-32" x="330.29" y="94.86" width="1.03" height="45.82"/><rect class="cls-32" x="334.01" y="96.41" width="1.03" height="45.82"/><rect class="cls-32" x="337.73" y="97.95" width="1.03" height="45.82"/><rect class="cls-32" x="341.46" y="99.49" width="1.03" height="45.82"/></g><path class="cls-33" d="M338,103c10.94,5.47,10.94,14.34,0,19.82s-28.69,5.47-39.63,0-10.94-14.34,0-19.82S327.05,97.49,338,103Z"/><path class="cls-32" d="M300.48,105.9c9.78-4.89,25.63-4.89,35.41,0,4.41,2.2,6.81,5,7.24,7.91.53-3.51-1.87-7.11-7.24-9.79-9.78-4.89-25.63-4.89-35.41,0-5.37,2.68-7.77,6.28-7.24,9.79C293.67,110.92,296.07,108.1,300.48,105.9Z"/><path class="cls-2" d="M300.48,121.72c9.78,4.89,25.63,4.89,35.41,0,4.41-2.2,6.81-5,7.24-7.91-.43-2.88-2.83-5.71-7.24-7.91-9.78-4.89-25.63-4.89-35.41,0-4.41,2.2-6.81,5-7.24,7.91C293.67,116.69,296.07,119.51,300.48,121.72Z"/><path class="cls-2" d="M344.16,106.11a18.42,18.42,0,0,0-6.16-4.65c-10.94-5.47-28.69-5.47-39.63,0a18.42,18.42,0,0,0-6.16,4.65h-2v5.26h0c0,3.59,2.74,7.17,8.21,9.91,10.94,5.47,28.69,5.47,39.63,0,5.47-2.74,8.21-6.32,8.21-9.91v-5.26Z"/><g class="cls-46"><rect class="cls-32" x="292.65" y="81.39" width="1.03" height="45.82"/><rect class="cls-32" x="296.12" y="84.14" width="1.03" height="45.82"/><rect class="cls-32" x="299.6" y="86.9" width="1.03" height="45.82"/><rect class="cls-32" x="303.07" y="89.65" width="1.03" height="45.82"/><rect class="cls-32" x="307.09" y="88.11" width="1.03" height="45.82"/><rect class="cls-32" x="311.1" y="86.57" width="1.03" height="45.82"/><rect class="cls-32" x="315.11" y="85.03" width="1.03" height="45.82"/><rect class="cls-32" x="319.12" y="83.48" width="1.03" height="45.82"/><rect class="cls-32" x="322.84" y="85.03" width="1.03" height="45.82"/><rect class="cls-32" x="326.57" y="86.57" width="1.03" height="45.82"/><rect class="cls-32" x="330.29" y="88.11" width="1.03" height="45.82"/><rect class="cls-32" x="334.01" y="89.65" width="1.03" height="45.82"/><rect class="cls-32" x="337.73" y="91.19" width="1.03" height="45.82"/><rect class="cls-32" x="341.46" y="92.73" width="1.03" height="45.82"/></g><path class="cls-33" d="M338,96.2c10.94,5.47,10.94,14.34,0,19.82s-28.69,5.47-39.63,0-10.94-14.34,0-19.82S327.05,90.73,338,96.2Z"/><path class="cls-32" d="M300.48,99.14c9.78-4.89,25.63-4.89,35.41,0,4.41,2.2,6.81,5,7.24,7.91.53-3.51-1.87-7.11-7.24-9.79-9.78-4.89-25.63-4.89-35.41,0-5.37,2.68-7.77,6.28-7.24,9.79C293.67,104.17,296.07,101.35,300.48,99.14Z"/><path class="cls-36" d="M300.48,115c9.78,4.89,25.63,4.89,35.41,0,4.41-2.2,6.81-5,7.24-7.91-.43-2.88-2.83-5.71-7.24-7.91-9.78-4.89-25.63-4.89-35.41,0-4.41,2.2-6.81,5-7.24,7.91C293.67,109.93,296.07,112.76,300.48,115Z"/><path class="cls-37" d="M306.25,106.24a10.77,10.77,0,0,0,4.19,3.48c2.31,1.16,4.49,1.29,5.94.56s1.12-1.62-.59-3.43c-2.41-2.49-2.77-4.72.46-6.34,3.8-1.9,9.87-1.77,15.12.86a12.6,12.6,0,0,1,4.56,3.4l-5.18,1.47a9.11,9.11,0,0,0-3.6-2.86c-2.18-1.09-4.23-1.12-5.38-.54-1.42.71-.79,1.65,1,3.63,2.48,2.69,2.28,4.64-.86,6.21-3.73,1.87-9.77,2-15.88-1a13,13,0,0,1-5-3.83Z"/><polygon class="cls-37" points="306.87 114.43 303.5 112.75 331.44 98.77 334.81 100.46 306.87 114.43"/><polygon class="cls-38" points="334.81 99.47 334.81 100.46 333.08 101.33 331.92 100.92 334.81 99.47"/><polygon class="cls-37" points="301.07 107.81 301.07 106.82 303.19 107.31 302.13 108.38 301.07 107.81"/><polygon class="cls-39" points="303.5 112.75 303.5 111.76 306.87 113.44 306.87 114.43 303.5 112.75"/><polygon class="cls-39" points="335.93 104.77 335.93 103.78 330.75 105.25 330.75 106.24 335.93 104.77"/><path class="cls-33" d="M306.25,105.25a10.78,10.78,0,0,0,4.19,3.48c2.31,1.16,4.49,1.29,5.94.56s1.12-1.62-.59-3.43c-2.41-2.49-2.77-4.72.46-6.34,3.8-1.9,9.87-1.77,15.12.86a12.6,12.6,0,0,1,4.56,3.4l-5.18,1.47a9.11,9.11,0,0,0-3.6-2.86c-2.18-1.09-4.23-1.12-5.38-.54-1.42.71-.79,1.65,1,3.63,2.48,2.69,2.28,4.64-.86,6.21-3.73,1.87-9.77,2-15.88-1a13,13,0,0,1-5-3.83Z"/><polygon class="cls-33" points="306.87 113.44 303.5 111.76 331.44 97.79 334.81 99.47 306.87 113.44"/></g></g></g></svg>