<svg xmlns="http://www.w3.org/2000/svg" viewBox="0 0 141.72 161.43"><defs><style>.cls-1,.cls-4{fill:#cee5ed;}.cls-1{opacity:0.43;}.cls-2{fill:#f2bf75;}.cls-3{fill:#1e394c;}.cls-5{fill:#87d3f9;}.cls-11,.cls-6{fill:#34648c;}.cls-6{opacity:0.25;}.cls-7{fill:#ea9249;}.cls-8{fill:#f6ba8e;}.cls-9{fill:#b4ccd3;}.cls-10{fill:#0e5c77;}.cls-12{fill:#0f2a3f;opacity:0.26;}.cls-13{fill:#67b8ef;}.cls-14{fill:#aac6ce;}</style></defs><title>payment</title><g id="Capa_2" data-name="Capa 2"><g id="OBJECTS"><ellipse class="cls-1" cx="70.19" cy="157.92" rx="70.19" ry="3.51"/><polygon class="cls-2" points="60.29 144.8 60.81 148.11 58.33 151.37 51.89 148.33 51.16 145.3 59.11 143.99 60.29 144.8"/><path class="cls-3" d="M55.27,155.54l-.67-.81a.31.31,0,0,0-.47,0l-.65.79a1.38,1.38,0,0,1-1.07.5l-14.88,0a.8.8,0,0,1,0-1.12c2.15-2.23,13.83-6.19,14.41-6.52s4.21,2.41,8.92-.22a50.35,50.35,0,0,1,1,6.12A1.7,1.7,0,0,1,60.09,156H56.31A1.36,1.36,0,0,1,55.27,155.54Z"/><polygon class="cls-2" points="84.13 144.93 84.65 148.24 82.17 151.51 75.73 148.46 74.99 145.44 82.94 144.12 84.13 144.93"/><path class="cls-3" d="M79.1,155.68l-.67-.81a.31.31,0,0,0-.47,0l-.65.79a1.38,1.38,0,0,1-1.07.5l-14.88,0a.8.8,0,0,1,0-1.12c2.15-2.23,13.83-6.19,14.41-6.52s4.21,2.41,8.92-.22a50.35,50.35,0,0,1,1,6.12,1.7,1.7,0,0,1-1.69,1.82H80.15A1.36,1.36,0,0,1,79.1,155.68Z"/><polygon class="cls-4" points="49.82 37.76 45.29 55.05 32.97 46.82 27.39 51.25 43.48 66.31 55.06 55.58 49.82 37.76"/><path class="cls-2" d="M32.95,46.83l-3.59-7.08a1.48,1.48,0,0,0-2.07-.59h0a5.38,5.38,0,0,0-2.53,5.75c.49,2.26,1.31,4.93,2.63,6.34Z"/><path class="cls-3" d="M28.52,33.16l-3.93-.32c-.57,0-.94.32-.81.82l2.79,11.05a1.48,1.48,0,0,0,1.26,1l3.93.32c.92.07,1.45,1.7.81-.82L29.78,34.15A1.48,1.48,0,0,0,28.52,33.16Z"/><path class="cls-2" d="M33,46.86l.82-2.62a1.49,1.49,0,0,0-.47-1.92L32,41.36a1,1,0,0,0-1.29.16h0a1,1,0,0,0,.14,1.41l.63.49.64.48-1.52,2.3Z"/><path class="cls-3" d="M84.92,145.7c0-3.86-4.49-68.15-4.49-68.15s-9.06-8.82-14-7.88c-4.93-.93-16.14,5.6-16.14,5.6s.23,66.57.23,70.43H61.22s.07-30.65,4.24-52.78a1,1,0,0,1,1.89-.1c4.16,22.13,6.9,52.88,6.9,52.88Z"/><path class="cls-4" d="M66.65,27.32S79.25,30.4,81,32.42,89.29,47,89.18,51.19c-.14,4.95-8.61,15.5-8.45,14.88V81s-19.31,6-31-1.34c0,0-1.34-38.26.27-42.52.49-1.31,6.84-6.84,8.72-7.51S66.65,27.32,66.65,27.32Z"/><path class="cls-4" d="M89.18,51.19C89.06,55.6,82.3,64.47,81,65.9h0l-.22.16L76.47,69.9l-5.13-4.63s9.45-6.74,8.15-15.39c-.92-6.09-7.24-17-7.24-17a23.4,23.4,0,0,1-5.95-5.47l.35-.09S79.26,30.4,81,32.41,89.29,47,89.18,51.19Z"/><rect class="cls-5" x="41.27" y="47.95" width="50.69" height="28.03" rx="4.55" ry="4.55"/><path class="cls-6" d="M87.41,47.95H82a4.55,4.55,0,0,1,4.55,4.55V71.43A4.55,4.55,0,0,1,82,76h5.38A4.55,4.55,0,0,0,92,71.43V52.5A4.55,4.55,0,0,0,87.41,47.95Z"/><rect class="cls-3" x="41.27" y="57.01" width="50.69" height="6.51"/><rect class="cls-3" x="46.09" y="67.91" width="9.98" height="1.38"/><rect class="cls-3" x="46.09" y="70.99" width="4.83" height="1.38"/><path class="cls-7" d="M67.32,20.31v9s-2.92,9-9.65,1.91L57.06,24Z"/><path class="cls-3" d="M49.82,13.31s-11.4-2.41-4.36-12.14c0,0,1.21,5.16,7.38.74,3.14-2.26,7.81-2.82,13,0,5.56,3,7.51,12.27,2.75,17.1l-9.32-1.88Z"/><path class="cls-2" d="M49.82,13.31S48.48,28.8,58.74,27.79c8-.79,7.71-6.84,7.71-6.84s2.61-.54,2.75-2.88-.6-4.29-3-2.75c0,0-4.16-2.68-4.43-4.56A26.06,26.06,0,0,1,49.82,13.31Z"/><path class="cls-8" d="M63.34,79.86a1.64,1.64,0,0,0,.42,2.27l1.74,1.41a1.64,1.64,0,0,0,2.31-.06l5.46-6.8-5.22-4-5.68,4a.7.7,0,0,0,0,1.15,1.32,1.32,0,0,0,.94.19,2.33,2.33,0,0,0,1.51-.77Z"/><path class="cls-4" d="M67.06,72.73l6.1,4.91S89.72,59.31,89.79,52.31c0-3.94-4.75-13.43-7.74-18.55H71.31s7.66,11.53,10,17.06A3.35,3.35,0,0,1,80.95,54C78.15,58.09,69.89,70,67.06,72.73Z"/><path class="cls-9" d="M82,33.76S88.16,48.93,88.13,52c-.06,6-13.29,20.38-16.71,24.27l1.73,1.39S89.72,59.31,89.79,52.31C89.83,48.37,85,38.88,82,33.76Z"/><path class="cls-9" d="M79.7,47.83l-.34.12H51.68l-.38-.12,26-.67S73.94,37.78,74.47,38,79.7,47.83,79.7,47.83Z"/><path class="cls-7" d="M54.33,25.53a6.07,6.07,0,0,1-1.25-3.22,4.63,4.63,0,0,1-1.37-.16c-.16-.16.37-4.44.28-5.19-.07-.53-.34-2.59-.5-3.72a15.88,15.88,0,0,1-1.67.06S48.48,28.8,58.74,27.79C56.24,27.83,55.42,26.69,54.33,25.53Z"/><path class="cls-10" d="M33.24,18.63A8.71,8.71,0,1,0,26,28.79l1.79,2.06.37-2.68A8.71,8.71,0,0,0,33.24,18.63ZM20.22,21a1.07,1.07,0,1,1,1.07-1.07A1.07,1.07,0,0,1,20.22,21Zm4.32,0a1.07,1.07,0,1,1,1.07-1.07A1.07,1.07,0,0,1,24.54,21Zm4.27,0a1.07,1.07,0,1,1,1.07-1.07A1.07,1.07,0,0,1,28.81,21Z"/><path class="cls-11" d="M135.38,113.06c3.15-3.34,3.93-7.73,1.74-9.79s-6.52-1-9.68,2.3-5.4,9.28-3.21,11.35S132.22,116.4,135.38,113.06Z"/><path class="cls-12" d="M137.12,103.27a4.05,4.05,0,0,0-2.56-1.05,3.62,3.62,0,0,1,.31.25c2.19,2.07,1.41,6.45-1.74,9.79-2.37,2.51-6.24,4.6-8.94,4.59l.06.07c2.19,2.07,8-.52,11.14-3.86S139.31,105.34,137.12,103.27Z"/><path class="cls-13" d="M119.35,100.2c.42-4.51-1.49-8.37-4.27-8.63s-5.38,3.18-5.8,7.69,1.29,10.46,4.07,10.72S118.92,104.71,119.35,100.2Z"/><path class="cls-6" d="M115.08,91.57a3.32,3.32,0,0,0-1.52.22c2.28.91,3.75,4.4,3.38,8.41-.35,3.73-2.32,8.16-4.57,9.43a2.25,2.25,0,0,0,1,.36c2.78.26,5.57-5.28,6-9.78S117.86,91.83,115.08,91.57Z"/><path class="cls-11" d="M105.81,96.74c-1.93-3.8-5.39-5.91-7.73-4.72s-2.68,5.23-.75,9,6.29,7.67,8.63,6.48S107.74,100.54,105.81,96.74Z"/><path class="cls-12" d="M105.81,96.74c-1.93-3.8-5.39-5.91-7.73-4.72a3.65,3.65,0,0,0-1.79,2.45A3,3,0,0,1,97,94c2.34-1.19,5.8.92,7.73,4.72,1.35,2.66,2,6.31,1.5,8.67C108.24,105.83,107.66,100.37,105.81,96.74Z"/><path class="cls-13" d="M102.09,112.6c-3.72-1.66-7.51-1.27-8.47.88s1.27,5.24,5,6.91,9.24,2,10.2-.11S105.8,114.27,102.09,112.6Z"/><path class="cls-6" d="M102.09,112.6c-3.72-1.66-7.51-1.27-8.47.88a2.76,2.76,0,0,0-.17,1.63c1-2.07,4.76-2.44,8.43-.8,3,1.34,6.13,4.1,6.75,6.25a1.63,1.63,0,0,0,.18-.29C109.76,118.13,105.8,114.27,102.09,112.6Z"/><path class="cls-11" d="M136.39,125.72c3.71-1.32,6-4.37,5.15-6.8s-4.58-3.33-8.29-2-7.74,5-6.87,7.41S132.68,127,136.39,125.72Z"/><path class="cls-12" d="M141.54,118.92a3.82,3.82,0,0,0-2.46-2.23,3.28,3.28,0,0,1,1,1.37c.87,2.43-1.44,5.48-5.15,6.8a13.26,13.26,0,0,1-7.94.3c1.7,1.63,6.22,1.7,9.45.55C140.1,124.4,142.41,121.35,141.54,118.92Z"/><path class="cls-3" d="M117.09,139.09a42.09,42.09,0,0,1,13.19-27.43c.3-.28-.15-.74-.46-.46a42.76,42.76,0,0,0-13.37,27.89c0,.41.61.41.64,0Z"/><path class="cls-3" d="M114.75,137.59A56.63,56.63,0,0,0,103,101.74c-.25-.32-.81,0-.56.32a56.08,56.08,0,0,1,11.67,35.52.32.32,0,0,0,.64,0Z"/><path class="cls-3" d="M112,118.68c1.76-5.59,2.2-11.53,2.42-17.36,0-.41-.63-.41-.64,0-.21,5.78-.66,11.65-2.4,17.19-.12.4.5.57.62.17Z"/><path class="cls-3" d="M102,117.6a57.58,57.58,0,0,0,10.13,4.73c.39.15.56-.48.17-.62a56.8,56.8,0,0,1-10-4.66c-.35-.22-.68.34-.32.56Z"/><path class="cls-3" d="M129.45,122.62a68.73,68.73,0,0,1-9.53,3.18.32.32,0,0,0,.17.62,68.74,68.74,0,0,0,9.53-3.18c.38-.16.21-.78-.17-.62Z"/><path class="cls-4" d="M104,136.1l2,17.71a4.37,4.37,0,0,0,4.34,3.89h11.29a4.37,4.37,0,0,0,4.34-3.89l2-17.71a1.63,1.63,0,0,0-1.62-1.81H105.58A1.63,1.63,0,0,0,104,136.1Z"/><path class="cls-14" d="M126.23,134.29h-7.16a1.63,1.63,0,0,1,1.62,1.81l-2,17.71a4.37,4.37,0,0,1-4.34,3.89h7.16a4.37,4.37,0,0,0,4.34-3.89l2-17.71A1.63,1.63,0,0,0,126.23,134.29Z"/></g></g></svg>