<svg xmlns="http://www.w3.org/2000/svg" viewBox="0 0 144.76 192.88"><defs><style>.cls-1,.cls-9{fill:#cee5ed;}.cls-1{opacity:0.43;}.cls-2{fill:#17161c;}.cls-3{fill:#1e394c;}.cls-4{fill:#62bdf4;}.cls-12,.cls-15,.cls-5{fill:#34648c;}.cls-5{opacity:0.25;}.cls-6{fill:#87d3f9;}.cls-7{fill:#f2bf75;}.cls-8{fill:#aac6ce;}.cls-10{fill:#ea9249;}.cls-11,.cls-14{fill:#0f2a3f;}.cls-13{fill:#67b8ef;}.cls-14{opacity:0.26;}.cls-15{opacity:0.42;}</style></defs><title>plan</title><g id="Capa_2" data-name="Capa 2"><g id="OBJECTS"><path class="cls-1" d="M119.94,188.65c.23-6.29-26.07-17.29-58.73-24.58S1.89,156,1.66,162.26s26.07,17.29,58.73,24.58S119.71,194.94,119.94,188.65Z"/><path class="cls-2" d="M90,118.69c-5.6-2-10.16-8.24-10.16-13.82V10.2c0-5.58,4.56-8.46,10.16-6.42l41.12,15c5.6,2,10.16,8.24,10.16,13.82v94.67c0,5.58-4.56,8.46-10.16,6.42Z"/><path class="cls-3" d="M90.7,121.82C84.8,119.67,80,113.13,80,107.25V7.46C80,1.57,84.8-1.46,90.7.69l43.35,15.8c5.9,2.15,10.71,8.69,10.71,14.57v99.8c0,5.88-4.8,8.92-10.71,6.76Z"/><path class="cls-4" d="M90,114.85c-3.47-1.27-6.3-5.11-6.3-8.57V11.61c0-3.46,2.83-5.24,6.3-4l41.12,15c3.47,1.27,6.3,5.11,6.3,8.57v94.67c0,3.46-2.83,5.24-6.3,4Z"/><path class="cls-5" d="M131.17,22.62,90,7.63c-2.46-.9-4.59-.26-5.63,1.41a5.18,5.18,0,0,1,4.13,0l41.12,15c3.47,1.27,6.3,5.11,6.3,8.57v94.67a4.81,4.81,0,0,1-.67,2.56,4.16,4.16,0,0,0,2.17-3.94V31.19C137.47,27.73,134.64,23.89,131.17,22.62Z"/><path class="cls-3" d="M125.9,19.94,95.31,8.79l1.36,3.65a6.4,6.4,0,0,0,3.6,3.67l20.68,7.54c1.57.57,3,.16,3.6-1Z"/><path class="cls-6" d="M129.49,35.63,91.71,21.86c-2-.74-3.67.3-3.67,2.32v17a5.8,5.8,0,0,0,3.67,5L129.49,60c2,.74,3.67-.3,3.67-2.32v-17A5.8,5.8,0,0,0,129.49,35.63Z"/><path class="cls-6" d="M129.49,65.58,91.71,51.81c-2-.74-3.67.3-3.67,2.32v17a5.8,5.8,0,0,0,3.67,5l37.78,13.77c2,.74,3.67-.3,3.67-2.32v-17A5.8,5.8,0,0,0,129.49,65.58Z"/><path class="cls-6" d="M129.49,95.85,91.71,82.08c-2-.74-3.67.3-3.67,2.32v17a5.8,5.8,0,0,0,3.67,5l37.78,13.77c2,.74,3.67-.3,3.67-2.32v-17A5.8,5.8,0,0,0,129.49,95.85Z"/><path class="cls-3" d="M117.39,38.48l-13.05-4.76a.54.54,0,0,0-.8.51h0a1.27,1.27,0,0,0,.8,1.09l13.05,4.76a.54.54,0,0,0,.8-.51h0A1.27,1.27,0,0,0,117.39,38.48Z"/><path class="cls-3" d="M117.39,47.44l-13.05-4.76a.54.54,0,0,0-.8.51h0a1.27,1.27,0,0,0,.8,1.09L117.39,49a.54.54,0,0,0,.8-.51h0A1.27,1.27,0,0,0,117.39,47.44Z"/><path class="cls-3" d="M121.41,44.48,99.8,36.61a.54.54,0,0,0-.8.51h0a1.27,1.27,0,0,0,.8,1.09l21.61,7.88a.54.54,0,0,0,.8-.51h0A1.27,1.27,0,0,0,121.41,44.48Z"/><path class="cls-3" d="M117.39,70.59l-13.05-4.76a.54.54,0,0,0-.8.51h0a1.27,1.27,0,0,0,.8,1.09l13.05,4.76a.54.54,0,0,0,.8-.51h0A1.27,1.27,0,0,0,117.39,70.59Z"/><path class="cls-3" d="M121.41,76.6,99.8,68.72a.54.54,0,0,0-.8.51h0a1.27,1.27,0,0,0,.8,1.09l21.61,7.88a.54.54,0,0,0,.8-.51h0A1.27,1.27,0,0,0,121.41,76.6Z"/><path class="cls-3" d="M117.39,98.67l-13.05-4.76a.54.54,0,0,0-.8.51h0a1.27,1.27,0,0,0,.8,1.09l13.05,4.76a.54.54,0,0,0,.8-.51h0A1.27,1.27,0,0,0,117.39,98.67Z"/><path class="cls-3" d="M117.39,107.55l-13.05-4.76a.54.54,0,0,0-.8.51h0a1.27,1.27,0,0,0,.8,1.09l13.05,4.76a.54.54,0,0,0,.8-.51h0A1.27,1.27,0,0,0,117.39,107.55Z"/><path class="cls-3" d="M121.41,104.68,99.8,96.8a.54.54,0,0,0-.8.51h0a1.27,1.27,0,0,0,.8,1.09l21.61,7.88a.54.54,0,0,0,.8-.51h0A1.27,1.27,0,0,0,121.41,104.68Z"/><path class="cls-7" d="M80.17,172.81s-2-.71-2.22-5H72.2l-.56,6,4.29,3.58,3.73-1.87Z"/><path class="cls-3" d="M71.64,173.72s6.71,2.22,8.53-.91c0,0,12.4,4.62,12.31,6-.14,2.18-10.4,2.63-12.67,2.08l-2-2L77,181.19H71.34S71.39,174.07,71.64,173.72Z"/><path class="cls-7" d="M58.7,172.86s-1.93-.8-2-5.14L51,167.45l-.83,5.92,4.12,3.78,3.82-1.69Z"/><path class="cls-3" d="M50.14,173.37s6.6,2.53,8.56-.52c0,0,10.85,3.91,11.48,5.71s-10,3-12.2,2.34l-1.88-2.06-1,2.23-5.65-.26S49.87,173.71,50.14,173.37Z"/><path class="cls-3" d="M46.26,104.68S50,119.82,50.9,122.35s2.83,14.84,2.93,15.24-4.24,32.1-4.24,32.1,5.85,1.31,8.18-.2l6.36-32L61.4,106Z"/><path class="cls-3" d="M47.07,103.88s5.75,9.84,10.9,14.23,11.51,16.2,11.51,16.2l.76,35.12h0a8.14,8.14,0,0,0,8.09.21l.39-.21s.91-36.49.76-38.91-13-30.28-13-30.28Z"/><path class="cls-3" d="M69.32,39.38s-4.5,15.9-11.73,15.44c-6.33-.4-7.51-7-6-15.06,1.59-8.4,8.53-7.29,12.57-7.34,0,0,5,0,5.83-3.86,0,0,5.83,7.95-.68,10.82"/><path class="cls-8" d="M57.84,58.77S49,57.21,44.95,76c-1.71,7.9,7.27,20.29,7.27,20.29L61.6,78.24Z"/><path class="cls-7" d="M94.83,48.09s3.33-9.16,3.33-11.66,1.89-.3,1.82,1.59a27.78,27.78,0,0,1-.53,4s2.57.23,2.57,1.44-.83,5.45-2,6.13Z"/><path class="cls-9" d="M62.74,60c5.85,3,18.39,10.9,21.27,8.33S94.83,48.09,94.83,48.09L100,49.6S89,79.12,85.72,79s-14.33-2.22-14.33-2.22-1,20.84-4,26.59c0,0-14.91,5.37-22.63,1a28.6,28.6,0,0,0,4.69-20.21C47.67,71.59,51,54,62.74,60Z"/><path class="cls-10" d="M69.32,39.38a15.16,15.16,0,0,0,1.36,4.09A12.12,12.12,0,0,0,73.33,46L71.9,47.86a6.54,6.54,0,0,1-5.68,7.57l-.68,6.28-7.65-2.57-.3-4.31a5.17,5.17,0,0,0,1.32-2.73,3.62,3.62,0,0,1-1-3.22c.49-1.74,2-3.07,2.76-2.42a3.22,3.22,0,0,1,.79,1.93h1s-.17-2.88.42-4.09A9.58,9.58,0,0,1,69.32,39.38Z"/><path class="cls-7" d="M65.54,61.71l.68-6.28a6.54,6.54,0,0,0,5.68-7.57L73.33,46a12.12,12.12,0,0,1-2.65-2.57,15.16,15.16,0,0,1-1.36-4.09c-.31.07-.59.17-.87.26a22.48,22.48,0,0,1,1.32,5.57c.25,3.25-.26,6.92-4.81,9.69-1.54.94-2.1,3.48-2.27,5.86Z"/><path class="cls-11" d="M63,124.72c-5-1.14-9.79-4.15-13.46-7.08-1.2-4.53-2.74-10.73-3.18-12.48a14,14,0,0,0,1.8.52c1.91,3.05,6,9.21,9.79,12.42a34.57,34.57,0,0,1,5,5.74Z"/><path class="cls-1" d="M134.18,158.83c-.07-2.39-11.83-6.51-26.26-9.2s-26.07-2.94-26-.54,11.83,6.51,26.26,9.2S134.25,161.22,134.18,158.83Z"/><path class="cls-12" d="M21.66,119.68s3.54-30.86-9.24-26C-.73,98.6,15.77,119,21.66,119.68Z"/><path class="cls-13" d="M18.18,138.3S14.3,107.42,3.07,116C-7.1,123.71,10.66,136,18.18,138.3Z"/><path class="cls-3" d="M9.86,126.71C15,133.84,20,141.08,21.59,149.89c.08.47.8.27.71-.2-1.6-8.87-6.62-16.18-11.8-23.36-.28-.38-.92,0-.64.37Z"/><path class="cls-13" d="M28,113.09S23.33,90.39,35,92.46,30.9,112,28,113.09Z"/><path class="cls-12" d="M29,135c-.6.4-1.18-19.16,7.08-18.47S40.53,127.34,29,135Z"/><path class="cls-3" d="M25.42,133.43c-.9-11.5,3.88-24.46,8.34-34.95.18-.43-.45-.81-.64-.37-4.53,10.65-9.36,23.58-8.44,35.32,0,.47.78.48.74,0Z"/><path class="cls-3" d="M26.47,148c-.59-13.49-1.78-27.19-9.34-38.8-.26-.4-.9,0-.64.37,7.5,11.5,8.65,25,9.24,38.42,0,.47.76.48.74,0Z"/><path class="cls-3" d="M28.21,147.44c.3-7.1.78-14.19,4.68-20.35.26-.4-.38-.78-.64-.37-4,6.25-4.48,13.51-4.78,20.72,0,.48.72.48.74,0Z"/><path class="cls-9" d="M15.19,146l1.92,17.39a4.29,4.29,0,0,0,4.27,3.82H32.47a4.29,4.29,0,0,0,4.27-3.82L38.65,146a1.6,1.6,0,0,0-1.59-1.77H16.78A1.6,1.6,0,0,0,15.19,146Z"/><path class="cls-8" d="M37.07,144.19H30A1.6,1.6,0,0,1,31.62,146L29.7,163.36a4.29,4.29,0,0,1-4.27,3.82h7a4.29,4.29,0,0,0,4.27-3.82L38.65,146A1.6,1.6,0,0,0,37.07,144.19Z"/><path class="cls-14" d="M17.32,117.3a9.71,9.71,0,0,0,4.34,2.38S25.17,89,12.54,93.6C15.92,97.82,23.12,108.57,17.32,117.3Z"/><path class="cls-14" d="M36.82,116.62c.28,3.89.24,14.16-8,13.54-.14,2.85.06,5,.26,4.85C40.19,127.57,44.12,117.83,36.82,116.62Z"/><path class="cls-15" d="M35.59,92.59c.26,4,.2,15.19-8.4,14.74a52.83,52.83,0,0,0,.76,5.77C30.85,112,46.16,95.13,35.59,92.59Z"/><path class="cls-15" d="M18.18,138.3S14.3,107.42,3.07,116a10.37,10.37,0,0,0-1,.83c3.51,1.21,15.08,6.28,11.3,19.41A27.13,27.13,0,0,0,18.18,138.3Z"/></g></g></svg>