<svg xmlns="http://www.w3.org/2000/svg" viewBox="0 0 178.17 161.69"><defs><style>.cls-1,.cls-5{fill:#cee5ed;}.cls-1{opacity:0.43;}.cls-2{fill:#aac6ce;}.cls-3{fill:#85b0ba;}.cls-4{fill:#3e8ccc;}.cls-6{fill:none;stroke:#3e8ccc;stroke-miterlimit:10;}.cls-18,.cls-7{fill:#1e394c;}.cls-8{fill:#62bdf4;}.cls-11,.cls-17,.cls-9{fill:#34648c;}.cls-10{fill:#67b8ef;}.cls-11{opacity:0.25;}.cls-12{fill:#f2bf75;}.cls-13{fill:#0f2a3f;}.cls-14,.cls-16{fill:#ea9249;}.cls-15{fill:#80a9b2;}.cls-16{opacity:0.67;}.cls-17{opacity:0.29;}.cls-18{opacity:0.48;}.cls-19{fill:#2173aa;}.cls-20{fill:#1a3651;}</style></defs><title>work</title><g id="Capa_2" data-name="Capa 2"><g id="OBJECTS"><ellipse class="cls-1" cx="89.08" cy="158.17" rx="89.08" ry="3.51"/><rect class="cls-2" x="55.96" y="115.92" width="4.05" height="38.76"/><rect class="cls-3" x="55.96" y="115.92" width="4.05" height="5.45"/><path class="cls-2" d="M41.64,154.69h34A2.35,2.35,0,0,1,78,157v1.21a0,0,0,0,1,0,0H39.29a0,0,0,0,1,0,0V157A2.35,2.35,0,0,1,41.64,154.69Z"/><path class="cls-2" d="M48.38,116H76.46c-10.22-3.67-6.27-38.24-4.38-51.35a4.38,4.38,0,0,0-4.34-5H49a7.66,7.66,0,0,0-7.6,6.61c-1.64,11.91-4.23,36.6.9,46.16A6.84,6.84,0,0,0,48.38,116Z"/><circle class="cls-4" cx="32.83" cy="19.69" r="19.69"/><circle class="cls-5" cx="32.83" cy="19.69" r="16.07"/><path class="cls-6" d="M32.83,8.08"/><path class="cls-4" d="M28.27,25.17a1,1,0,0,1-.71-1.71l4.19-4.19v-11a1,1,0,0,1,2,0V19.69a1,1,0,0,1-.29.71L29,24.88A1,1,0,0,1,28.27,25.17Z"/><circle class="cls-7" cx="32.62" cy="19.39" r="2.3"/><path class="cls-8" d="M144.92,38h-33.6a3.12,3.12,0,0,0-3.12,3.12V56.26a3.12,3.12,0,0,0,3.12,3.12h2.35V63a.59.59,0,0,0,1,.44l4.54-4.1h25.73A3.12,3.12,0,0,0,148,56.26V41.13A3.12,3.12,0,0,0,144.92,38Z"/><circle class="cls-9" cx="119.96" cy="48.92" r="1.37"/><circle class="cls-9" cx="128.41" cy="48.92" r="1.37"/><circle class="cls-9" cx="136.29" cy="48.92" r="1.37"/><path class="cls-10" d="M34.92,78.67c0-3.7-2.62-7.42-5.84-7.42S23.23,75,23.23,78.67s2.62,6.71,5.84,6.71S34.92,82.38,34.92,78.67Z"/><path class="cls-11" d="M29.07,71.26a4.32,4.32,0,0,0-1.5.28c2.5.92,4.34,4,4.34,7.14a6.61,6.61,0,0,1-4.34,6.48,5.13,5.13,0,0,0,1.5.23c3.23,0,5.84-3,5.84-6.71S32.3,71.26,29.07,71.26Z"/><path class="cls-5" d="M22.41,83.06l1,9.48a2.34,2.34,0,0,0,2.33,2.08h6a2.34,2.34,0,0,0,2.33-2.08l1-9.48a.87.87,0,0,0-.87-1H23.28A.87.87,0,0,0,22.41,83.06Z"/><path class="cls-2" d="M23.28,83.51H34.34a.86.86,0,0,1,.76.49l.1-.94a.87.87,0,0,0-.87-1H23.28a.87.87,0,0,0-.87,1l.1.94A.86.86,0,0,1,23.28,83.51Z"/><path class="cls-2" d="M34.34,82.09H30.5a.87.87,0,0,1,.87,1l-1,9.48A2.34,2.34,0,0,1,28,94.62h3.83a2.34,2.34,0,0,0,2.33-2.08l1-9.48A.87.87,0,0,0,34.34,82.09Z"/><polygon class="cls-12" points="82.76 148.96 82.36 151.7 84.45 154.37 89.74 151.78 90.31 149.27 83.73 148.28 82.76 148.96"/><path class="cls-7" d="M87,157.78l.55-.68a.25.25,0,0,1,.39,0l.55.64a1.14,1.14,0,0,0,.89.4l12.29-.21a.66.66,0,0,0,0-.93c-1.8-1.82-11.49-5-12-5.22s-3.45,2-7.37-.08a41.6,41.6,0,0,0-.73,5.07,1.4,1.4,0,0,0,1.42,1.48l3.12-.05A1.13,1.13,0,0,0,87,157.78Z"/><path class="cls-7" d="M60.21,102.65s-5.1,5.64,4.24,11.77c6.55,4.3,11.72,3,15.83,5.59a3.46,3.46,0,0,1,1.77,2.66L82.26,149l.5.25a9.06,9.06,0,0,0,7.88.09h0l3.72-30.08c.13-2.07-1-3.82-2.27-5.46-7.14-9.09-19.79-12.17-23-12.69C64.93,100.46,60.21,102.65,60.21,102.65Z"/><polygon class="cls-12" points="62.44 148.96 62.01 151.69 64.06 154.39 69.38 151.87 69.99 149.37 63.42 148.29 62.44 148.96"/><path class="cls-7" d="M66.59,157.83l.56-.67a.25.25,0,0,1,.39,0l.54.65a1.14,1.14,0,0,0,.88.41l12.29,0a.66.66,0,0,0,0-.93c-1.78-1.84-11.42-5.12-11.9-5.39s-3.47,2-7.37-.18a41.61,41.61,0,0,0-.8,5.06,1.4,1.4,0,0,0,1.4,1.5h3.12A1.13,1.13,0,0,0,66.59,157.83Z"/><path class="cls-7" d="M44.7,97.73s-6.18,6.89,2.76,14.67c6.27,5.46,11.9,3.13,15.85,6.45a3.68,3.68,0,0,1,1.47,3.05L62,148.73l.21.14a8.5,8.5,0,0,0,8.24.56h0l7-28.26c.44-2.16-.49-4.16-1.6-6.06-6.2-10.58-15.94-16.88-19.23-17.89C52.29,95.91,44.7,97.73,44.7,97.73Z"/><path class="cls-13" d="M78.81,119.26a12.26,12.26,0,0,0-1.44-.5,12.3,12.3,0,0,0-1.57-3.65,48.4,48.4,0,0,0-10.62-12.45c2.24-.38,3.38-.86,4-1.49A42.11,42.11,0,0,1,75.89,103C78.93,108.07,78.92,116.32,78.81,119.26Z"/><path class="cls-5" d="M61.35,61.27S52.43,60.08,48.73,67s-9.24,34.18-4.4,35c2.14.37,7.85,1.8,14.18,1.34,8.7-.64,10.59-1.44,11.22-3.09l5.54-25.38a10.73,10.73,0,0,0-4.21-9A30.23,30.23,0,0,0,61.35,61.27Z"/><path class="cls-2" d="M75.24,72.68S75.36,88,80.16,88.89s17.6.64,17.6.64v4.86H70.32Z"/><path class="cls-14" d="M68.6,65.74l1.08-5.41-7-5.34-1.34,6.37S63.53,71.1,68.6,65.74Z"/><path class="cls-7" d="M77.54,50s-3.67,1.78-9-1.49a12.72,12.72,0,0,1-4.85,4.24S61.78,49.65,60.7,52a5,5,0,0,0-.5,1.92c-3.37-4.36-1-10.1,2.15-13.19,3-2.94,9.43-1.77,13.46-.15,4.28,1.72,5.06-1.27,5.06-1.27C86.29,46.92,77.54,50,77.54,50Z"/><path class="cls-12" d="M63.65,52.79S61.78,49.65,60.7,52c-1.31,2.85.17,4.64,1.94,4.64,0,0,1.4,7.42,8.22,6.89s7.8-11.47,6.68-13.5c0,0-3.67,1.79-9-1.49A12.67,12.67,0,0,1,63.65,52.79Z"/><path class="cls-5" d="M122.72,70.13H94.27a3,3,0,0,0-2.89,2.36L87.59,91.06h34.47l3.55-17.38A3,3,0,0,0,122.72,70.13Z"/><rect class="cls-15" x="73.54" y="91.06" width="49.82" height="3.26" rx="1.4" ry="1.4"/><path class="cls-2" d="M121.95,91.06H87.22a1.4,1.4,0,0,1,1.4,1.4v.45a1.4,1.4,0,0,1-1.4,1.4h34.73a1.4,1.4,0,0,0,1.4-1.4v-.45A1.4,1.4,0,0,0,121.95,91.06Z"/><path class="cls-5" d="M76.46,90.06c-5.54-.64-21.07-2.23-23.74-2.51-3.36-.35,3.94-13.89,4.75-18.53s-2.72-4.81-2.72-4.81a5.66,5.66,0,0,0-6,2.81c-3.79,5.74-8,22.53-5.79,26.67a1.5,1.5,0,0,0,1.32.78h32.2Z"/><path class="cls-2" d="M76.46,90.06s-20-1.38-24.32-2c-3.35-.45,3.63-14.33,4.44-19s-2.78-4.44-2.78-4.44a8.59,8.59,0,0,0-3.12.29,5.79,5.79,0,0,1,4.07-.78s3.53.18,2.72,4.81S50.4,86.92,52.52,87.44C55.12,88.08,70.92,89.42,76.46,90.06Z"/><path class="cls-12" d="M76.46,94.56h7.46a.7.7,0,0,0,.59-1.09c-.7-1.07-1.8-2.59-2.61-2.85a35.44,35.44,0,0,0-5.44.12Z"/><path class="cls-16" d="M77.54,50a6,6,0,0,1-1.69.42c-.09.5-.25,1.48-.34,2.4-.12,1.31.53,5.38.12,5.41a11.84,11.84,0,0,1-1.25,0s-.62,5.88-6.5,4.94l-.15,0a7.43,7.43,0,0,0,3.12.39C77.67,63,78.65,52.07,77.54,50Z"/><path class="cls-10" d="M163.07,135.4s9.37-4.65,6.82-11.7-4.12-7.35.75-11.32,11.92-13.94,3-14.69-8.47,11.1-15.89,12.74S146.27,143.12,163.07,135.4Z"/><path class="cls-11" d="M155.69,136.1c1.8.83,4.22.75,7.38-.7,0,0,9.37-4.65,6.82-11.7s-4.12-7.35.75-11.32,11.92-13.94,3-14.69a8.2,8.2,0,0,0-2.38.13c2.51,1,5,3.11,1.78,6.94-5.37,6.38-8.25,8.63-7.62,12.75S165.68,130.66,155.69,136.1Z"/><path class="cls-10" d="M147.17,135.17s-8.25-.3-7.8-6.22.68-6.15-4.5-8c-9.15-3.3-1.91-20.87,5.55-9.82,5.17,7.67,7.42,5.94,10.8,6.54S161.94,137.8,147.17,135.17Z"/><path class="cls-17" d="M151.22,117.65c-3.37-.6-5.62,1.12-10.8-6.54-3.9-5.78-7.74-3.72-9.2,0,2.19-.67,5.53-1.08,5.94,2.5.54,4.63,11.38,12.24,11.16,21.7l.42,0c1.58-4.16,3.66-9.55,5.44-14.15C153.23,119.24,152.1,117.81,151.22,117.65Z"/><path class="cls-9" d="M149.09,134.91s-10.23-10-6.75-11.7,10.35,3.82,6.52-2.14-8.28-15.24-3-13.78,5.67,3.07,5-3.87c-.85-9,4.16-13.61,8.88-10.68s-4,22.72-.79,20.58,6-3.94,6.63-1.35-9.34,12.74-5.62,11c4.61-2.14,5.29,1.69,3.82,4S156.28,143.46,149.09,134.91Z"/><path class="cls-18" d="M163.82,127c1.46-2.36.79-6.19-3.82-4-3.71,1.72,6.3-8.43,5.62-11s-3.37-.79-6.63,1.35,5.51-17.66.79-20.58a4.82,4.82,0,0,0-6.15.52c2.44.6,4.4,2.56,3,7.87-2.87,11.25-4.62,20.63.63,17.88,4.95-2.59-5.74,9.35-5.85,18C157.58,140.46,162.52,129.14,163.82,127Z"/><path class="cls-5" d="M142,136.09,144,154a4.42,4.42,0,0,0,4.4,3.94h11.43a4.42,4.42,0,0,0,4.4-3.94l2-17.93a1.65,1.65,0,0,0-1.64-1.83H143.64A1.65,1.65,0,0,0,142,136.09Z"/><path class="cls-2" d="M164.55,134.26H157.3a1.65,1.65,0,0,1,1.64,1.83L157,154a4.42,4.42,0,0,1-4.4,3.94h7.25a4.42,4.42,0,0,0,4.4-3.94l2-17.93A1.65,1.65,0,0,0,164.55,134.26Z"/><rect class="cls-4" x="17.27" y="94.5" width="127.54" height="5.79" rx="2.49" ry="2.49"/><path class="cls-19" d="M142.32,94.5H19.76A2.49,2.49,0,0,0,17.27,97v.81a2.46,2.46,0,0,0,.13.75,2.48,2.48,0,0,1,2.36-1.74H142.32a2.48,2.48,0,0,1,2.36,1.74,2.46,2.46,0,0,0,.13-.75V97A2.49,2.49,0,0,0,142.32,94.5Z"/><polygon class="cls-9" points="58.5 158.04 54.4 158.04 25.9 100.32 30 100.32 58.5 158.04"/><polygon class="cls-9" points="13.4 158.04 17.49 158.04 45.99 100.32 41.9 100.32 13.4 158.04"/><polygon class="cls-9" points="146.73 158.04 142.63 158.04 114.13 100.32 118.23 100.32 146.73 158.04"/><polygon class="cls-9" points="101.63 158.04 105.72 158.04 134.22 100.32 130.13 100.32 101.63 158.04"/><polygon class="cls-20" points="31.13 102.61 30 100.32 25.9 100.32 27.03 102.61 31.13 102.61"/><polygon class="cls-20" points="44.86 102.61 45.99 100.32 41.9 100.32 40.77 102.61 44.86 102.61"/><polygon class="cls-20" points="119.36 102.61 118.23 100.32 114.13 100.32 115.26 102.61 119.36 102.61"/><polygon class="cls-20" points="133.09 102.61 134.22 100.32 130.13 100.32 129 102.61 133.09 102.61"/></g></g></svg>