<svg xmlns="http://www.w3.org/2000/svg" viewBox="0 0 160.53 142.83"><defs><style>.cls-1{fill:#407ffe;}.cls-2{fill:#edf4f6;}</style></defs><title>like</title><g id="Capa_2" data-name="Capa 2"><g id="BACKGROUND_2" data-name="BACKGROUND 2"><path class="cls-1" d="M138.58,10.05,32.6.11A24.21,24.21,0,0,0,6.23,22L.11,87.15A24.21,24.21,0,0,0,22,113.52L59.33,117h0l9,21.49a7,7,0,0,0,12.48.94l11.71-19.32h0l35.46,3.33a24.22,24.22,0,0,0,26.37-21.85l6.12-65.19A24.21,24.21,0,0,0,138.58,10.05Z"/><path class="cls-2" d="M75.15,87.16l29.92,2.74a1.83,1.83,0,0,0,.7-.07c1.11-.34,3.5-1.25,4.58-3.09a4.74,4.74,0,0,0,.25-4h0a1.86,1.86,0,0,1,.88-2.18h0c.41-.23,4.08-2.46,2.52-6.59l-.09-.37a1.66,1.66,0,0,1,.9-1.9h0a4.86,4.86,0,0,0,2-6.11h0a1.86,1.86,0,0,1,.86-2.35h0s3-1.67,2.81-4.32c-.16-2-4-2.73-5-2.83l-19-1.9A2.81,2.81,0,0,1,94,51.5h0c1.06-2.32,3.67-9.22,3-13.29a48.36,48.36,0,0,0-2.56-9.37,1.8,1.8,0,0,0-.59-.79,3.92,3.92,0,0,0-1.09-.6,3.74,3.74,0,0,0-2.76.19A1.84,1.84,0,0,0,89,29.19L88.19,38l-.14.3a74.38,74.38,0,0,1-12.61,17.4l-.22.23-3.86,2-.85.22-2.2,24a1.86,1.86,0,0,0,1.69,2h0a1.87,1.87,0,0,1,.91.33l3.34,2.36A1.86,1.86,0,0,0,75.15,87.16Z"/><path class="cls-2" d="M45.11,86.45,64,88.18h0l1.35-14.76L67,55.77h0L48.08,54h0l-3,32.41Z"/></g></g></svg>