<svg xmlns="http://www.w3.org/2000/svg" xmlns:xlink="http://www.w3.org/1999/xlink" viewBox="0 0 384.23 265.72"><defs><style>.cls-1{isolation:isolate;}.cls-2{opacity:0.4;mix-blend-mode:multiply;fill:url(#Degradado_sin_nombre_26);}.cls-3{fill:#17ceff;}.cls-4{fill:url(#Degradado_sin_nombre_2);}.cls-5{fill:#d0e8f7;}.cls-6{fill:url(#Degradado_sin_nombre_24);}.cls-7{fill:#aacfe2;}.cls-8{fill:#89bcd6;}.cls-9{fill:none;stroke:#89bcd6;stroke-miterlimit:10;stroke-width:0.87px;}</style><linearGradient id="Degradado_sin_nombre_26" y1="150.28" x2="384.23" y2="150.28" gradientUnits="userSpaceOnUse"><stop offset="0" stop-color="#a0ceff"/><stop offset="1" stop-color="#2f8bdd"/></linearGradient><linearGradient id="Degradado_sin_nombre_2" y1="146.94" x2="384.23" y2="146.94" gradientUnits="userSpaceOnUse"><stop offset="0.17" stop-color="#a4d2ef"/><stop offset="0.46" stop-color="#8bc7e9"/><stop offset="0.79" stop-color="#73bee4"/><stop offset="1" stop-color="#6abae2"/></linearGradient><linearGradient id="Degradado_sin_nombre_24" x1="26.08" y1="110.74" x2="362.67" y2="110.74" gradientUnits="userSpaceOnUse"><stop offset="0" stop-color="#a0ceff"/><stop offset="1" stop-color="#43dddd"/></linearGradient></defs><title>main-shape</title><g class="cls-1"><g id="Capa_2" data-name="Capa 2"><g id="OBJECTS"><path class="cls-2" d="M374.81,97.82h0L368.25,94,271.79,38.36a26.32,26.32,0,0,0-26.32,0L7.84,175.56h0C-3.86,182.29-2,200,10.26,207.11l90.94,52.51a45.59,45.59,0,0,0,45.59,0L374.91,127.88C387.56,120.61,387.15,104.94,374.81,97.82Z"/><path class="cls-3" d="M126.84,142.17l-17.13-9.86c-3.73-2.15-2-6.57,3.85-9.88l26.91-15.21c5.85-3.31,13.62-4.25,17.34-2.11L174.95,115c3.73,2.15,2,6.57-3.85,9.88l-26.91,15.21C138.33,143.37,130.57,144.32,126.84,142.17Z"/><path class="cls-4" d="M374.81,63c12.33,7.12,12.74,22.79.09,30.06L146.79,224.78a45.59,45.59,0,0,1-45.59,0L10.26,172.28C-2,165.21-3.86,147.46,7.84,140.72"/><path class="cls-5" d="M374.81,63l-6.57-3.79L271.79,3.53a26.33,26.33,0,0,0-26.32,0L7.84,140.72a12.32,12.32,0,0,0,0,21.33l94,54.25a44.33,44.33,0,0,0,44.32,0l228.66-132A12.3,12.3,0,0,0,374.81,63Z"/><polygon class="cls-6" points="26.08 137.24 148.48 207.9 362.67 84.24 240.27 13.57 26.08 137.24"/><path class="cls-7" d="M299.87,39.13l25.19,14.54a4.49,4.49,0,0,0,4.48,0h0a2.17,2.17,0,0,0,0-3.77l-25-14.45a4.65,4.65,0,0,0-4.63,0h0A2.12,2.12,0,0,0,299.87,39.13Z"/><path class="cls-8" d="M299.88,36.49a4.65,4.65,0,0,1,4.63,0l25,14.45a2.14,2.14,0,0,1,1,1.36,2.16,2.16,0,0,0-1-2.4l-25-14.45a4.65,4.65,0,0,0-4.63,0,2.12,2.12,0,0,0-1,2.37A2.09,2.09,0,0,1,299.88,36.49Z"/><path class="cls-9" d="M81.49,189.63,59.87,177.16a3,3,0,0,1,0-5.27h0a6.36,6.36,0,0,1,6.36,0l21.62,12.47a3,3,0,0,1,0,5.27h0A6.35,6.35,0,0,1,81.49,189.63Z"/></g></g></g></svg>