<svg xmlns="http://www.w3.org/2000/svg" viewBox="0 0 235.25 236.34"><defs><style>.cls-1{isolation:isolate;}.cls-2,.cls-3{fill:#73a6c8;}.cls-2{opacity:0.4;}</style></defs><title>tech-globe</title><g id="Capa_2" data-name="Capa 2"><g id="Network_Sphere" data-name="Network Sphere"><g class="cls-1"><path class="cls-2" d="M229.23,84.15l.33,1.1.82,3.06c-.21-.71-.21-.71-1.15-4.16Z"/><path class="cls-2" d="M231.7,93.77l-.12-.59.21.9.17.83-.24-1.07,0-.08Z"/><path class="cls-2" d="M231.44,143.82l-.23,1c-1,3.29-2.46,7.63-3.77,10.8,0-.18.06-.36.12-.54,1.15-3.38,2.91-7.82,3.88-11.26Z"/><path class="cls-2" d="M225.73,160.43l.24-.55a53.55,53.55,0,0,1-1.76,5.78l-.34.77a52.55,52.55,0,0,0,1.83-5.92l0-.07Z"/><path class="cls-2" d="M126.6,235l-.78.06c-.38,0-2.22,0-7,.05a36.38,36.38,0,0,1,4.54-.08c2.68,0,3.16,0,3.29,0Z"/><path class="cls-2" d="M30.14,39.72a10.39,10.39,0,0,1,3.29-.54l-.26.29c-.07.08-.08.22-.21.25a15.68,15.68,0,0,1-1.63.17,6,6,0,0,0-1.68.37l.49-.55Z"/><path class="cls-2" d="M151.21,6.08,150.83,6c2.37.79,5.55,1.79,7.89,2.67l1.14.44c-2.57-.92-6-2.17-8.61-3Z"/><path class="cls-2" d="M225,161.91l.19-.32c-3.61,9.74-3.75,10.12-8.39,18.14l-.73,1.16c5.35-9.29,5.56-9.65,8.9-18.93l0,0Z"/><path class="cls-2" d="M73.73,9.31a24.92,24.92,0,0,1,3.75-1c-.22.09-.44.19-.67.26-.46.14-1.09.26-1.56.37A22.89,22.89,0,0,0,73,9.6l.69-.28Z"/><path class="cls-2" d="M53.79,19.61c7.93-4.73,10.46-6.14,21.42-10.42-4,1.78-8.18,3.27-12.14,5.22-3.13,1.54-7.13,3.92-10.1,5.73l.82-.53Z"/><path class="cls-2" d="M113,1.07h.4c-10.23.65-18.31,1.17-32.08,5.89l-.38.12c8.85-2.88,15.83-5.15,32-6Z"/><path class="cls-2" d="M93.78,7c-.14.07-.24.21-.4.22-5,.4-10.07.53-15.09,1C78.9,8,79.59,7.78,93.78,7Z"/><path class="cls-2" d="M103.73,234.58l1.4.15h.11l-1.51-.16Z"/><path class="cls-2" d="M29.65,196.08l.74.83-.74-.83Z"/><path class="cls-2" d="M65.09,223.16c-1.82-1-1.85-1.07-2.54-2.16-.25-.39,0-1.09.21-1.52l.6.36c-.16.43-.43,1.13-.18,1.51a5,5,0,0,0,2.58,2.14l-.67-.33Z"/><path class="cls-2" d="M5,84.11c3.77-10.62,8.47-23.83,26.35-42-.86,2.38-3.95,4.39-5.67,6.24a98,98,0,0,0-21,36.78l0-.16.24-.8Z"/><path class="cls-2" d="M3.56,89.24l.17-.65c.88,1.55,4.31,2.85,19.22,4.93-.08.33-.1.41-.15.71C9.55,92.41,4,91,3.54,89.33l0-.09Z"/><path class="cls-2" d="M28.94,195.2l-.31-.37c9.09,9.11,15.22,13.91,31.52,22.77l.29.26C44.21,209.13,38.09,204.35,29,195.25l0,0Z"/><path class="cls-2" d="M27.18,193.09l-.44-.53c1.22.13,3.27.36,26.15.74l.28.48c-12.21,0-25.1-.51-26-.65l0,0Z"/><path class="cls-2" d="M33,151.18l.27.49c-10.6,13.18-17.34,23.75-7.5,39.66-13.27-16.15,1.62-33.59,7.23-40.15Z"/><path class="cls-2" d="M1.51,137.44c-1.22-14.87,4.32-25.68,21.18-41.3,0,.15,0,.36.07.51C7.5,111.53.05,122.06,1.66,138.31l-.15-.87Z"/><path class="cls-2" d="M3.47,146.84c.68.34,2,1,28.77,2,.05.33.07.4.13.66-7.28-.21-28.2-1-28.71-1.92l-.19-.74Z"/><path class="cls-2" d="M201.36,177.37c.16-.24.28-.45.34-.55,7.07,6,9.79,10.21,5,16.78l-.5.59c3.74-5.34,4-9.4-4.89-16.75l.05-.07Z"/><path class="cls-2" d="M110.08,235.13l-.73,0c.47,0,1,0,2.83.06l.57,0c-1.82,0-2.29,0-2.62-.06h-.06Z"/><path class="cls-2" d="M65.19,220.83l.44.2c5.12,2.73,9.77,6.32,15.33,8.22,10.45,3.56,14.39,4.28,25.45,5.6-24-2.2-36.05-10.49-41.22-14Z"/><path class="cls-2" d="M136,231.75c-1.12.46-15.29,2.94-16.9,3.22.09,0,.15-.06,3.59-.68,6.46-1.16,10.26-1.93,13.31-2.54Z"/><path class="cls-2" d="M32.25,42.28l.34-.26c-4.79,9-12,22.57-7.74,48.22l-.44.38C22.9,79.22,20.62,62,32.2,42.32l0,0Z"/><path class="cls-2" d="M74,9.86h.11c-10.49,5.05-22.37,10.78-37,26.31,7.19-7.39,17-17.51,36.85-26.3h0Z"/><path class="cls-2" d="M75.62,9.32l.5-.19C69.8,12.6,58,19.07,60.69,33.81c-.22.16-.29.22-.51.4-.7-6-1.87-16.06,15.37-24.87l.07,0Z"/><path class="cls-2" d="M58.62,35.94c-.14.21-.18.27-.33.52-12.79,1.3-17,1.87-23.07,2.93.35-.41,1-1.17,23.41-3.45Z"/><path class="cls-2" d="M54.81,195.69c.23.19.29.24.52.41-.63,7.7-.51,13.38,6.71,21.75-.09-.05-9-6.06-7.24-22.16Z"/><path class="cls-2" d="M66.84,221.12l-.2-.19c12.47,6,25.15,11.51,43.09,14l.25,0C99.37,233.39,87.3,231,66.86,221.14l0,0Z"/><path class="cls-2" d="M66,220.42l-.4-.29a306.16,306.16,0,0,0,37.07,12l.17.1a296.07,296.07,0,0,1-36.79-11.8l-.05,0Z"/><path class="cls-2" d="M25.18,98.65a3.66,3.66,0,0,0,.4-.15c.57,11.41,1.27,25.6,8.34,46.45l-.45.16c-3.54-11.39-8-25.56-8.35-46.45Z"/><path class="cls-2" d="M58.06,38.93l.24.14c-13,15.88-21.82,28.71-31.16,51l-.23-.14c7-17.11,14.29-30.94,31.15-51Z"/><path class="cls-2" d="M60.28,38.79l.46-.25c-1,16.24,1.85,32.07,19.75,64.9-.19.11-.44.26-.63.39-13.93-26.05-21.61-45-19.65-65l.06,0Z"/><path class="cls-2" d="M27.82,95.29c0-.14.09-.32.16-.66,7.79,2.27,19.56,5.69,50.26,11.73,0,.17-.08.4-.11.57A482.52,482.52,0,0,1,27.79,95.38l0-.09Z"/><path class="cls-2" d="M92,8.57C84,13.79,75.67,19.19,63.61,33l-.3-.09C70.07,25.54,78.48,16.38,92,8.57Z"/><path class="cls-2" d="M105.59,25.44c0,.13,0,.31,0,.44-13.73,3-27.93,6-42,9.61l.2-.39c6.16-1.64,12.53-3.34,41.83-9.67Z"/><path class="cls-2" d="M78.52,109.9c.08.15.19.35.27.5-18.91,14.81-28.4,22.24-41.32,36.7l-.29-.47c5.74-6.74,13.59-16,41.33-36.73Z"/><path class="cls-2" d="M58.1,196.83a1.52,1.52,0,0,0,.25-.15c7.18,7.87,24,26.31,43.91,35-5.68-2.64-23-10.68-44.19-34.85l0,0Z"/><path class="cls-2" d="M36.33,153.63a3.33,3.33,0,0,0,.41-.07c4.08,11.9,7,20.5,16.76,36.63l-.38.06c-6.8-11.49-10.93-18.86-16.84-36.61h.06Z"/><path class="cls-2" d="M38.35,149.95c0-.15,0-.31-.1-.64,12.05,1.36,22.6,2.5,48.68,4.75,0,.16,0,.37,0,.53-20.11-1.31-45.72-4.23-48.58-4.56v-.09Z"/><path class="cls-2" d="M58.61,195a4.73,4.73,0,0,0-.16-.47c9.25,3.42,15.92,5.83,35.45,12.25,0,.14,0,.32,0,.46C74.43,200.81,68.2,198.58,58.63,195l0-.06Z"/><path class="cls-2" d="M90.9,159l.48,0c1.37,22.51,1.94,31.83,5.09,46.07l-.46,0C94.26,197,91.62,184.8,90.9,159Z"/><path class="cls-2" d="M87.72,157.06a4.31,4.31,0,0,0,.46.58c-12.88,10.71-25,21.38-31.5,34.16-.22-.22-.27-.26-.5-.47,3.82-6.9,8.58-15.48,31.54-34.27Z"/><path class="cls-2" d="M94.27,8l.4-.19c-.52,4.17,1.12,7.57,11.85,15.6a3.23,3.23,0,0,0-.31.37C96.25,16.25,93.57,12.72,94.22,8l.06,0Z"/><path class="cls-2" d="M116.68,1h0Z"/><path class="cls-2" d="M115.17,1h.67c-14.44.34-21.51,2.21-21,5.53l-.48.22C94.07,3.29,101,1.36,115.08,1Z"/><path class="cls-2" d="M117.17,1l.1.11a25.65,25.65,0,0,1-3.23,1c-5.78,1.56-11.59,3-17.38,4.57.26-.17.26-.17,4.16-1.24.42-.11,2.18-.58,9.53-2.45,5.86-1.49,6.36-1.66,6.92-1.93l-.1,0Z"/><path class="cls-2" d="M118.24,235c-.1.05-.1.05-1.38.08-2.76,0-3.54.08-3.79.09l-.53,0c1.42,0,2.94-.08,5.71-.12Z"/><path class="cls-2" d="M105,233.13c.7.23,1.27.72,2,.94a38.51,38.51,0,0,0,4.42,1,14.16,14.16,0,0,1-6.4-1.91Z"/><path class="cls-2" d="M179.62,19.11l.64.41a6.62,6.62,0,0,1,1.69,1.66,2.41,2.41,0,0,1,.05,1.49l-.59-.42a3,3,0,0,0-.2-1.7,5.68,5.68,0,0,0-1.58-1.43Z"/><path class="cls-2" d="M96.24,210.35a4.1,4.1,0,0,0,.48.2c-.61,6.28-1.54,15.76,6.53,21.27-.1,0-9.55-3.87-7-21.47Z"/><path class="cls-2" d="M106,233l-.28-.13c8.11,1.25,10.84,1.66,12.65,2.12-.19.1-.51-.05-.72-.1-2.13-.44-4.14-.74-11.61-1.87l0,0Z"/><path class="cls-2" d="M117.54,1c1.13.81,1.81,1.3.09,6.26-1.33,3.83-4.81,10.22-7.6,15.35l-.3-.11C117.24,8.31,120.05,3,117.54,1Z"/><path class="cls-2" d="M128.8,228.25l.11.08c-3.84,3-6.16,4.79-9.44,6.36a56.45,56.45,0,0,0,9.33-6.43Z"/><path class="cls-2" d="M99.12,210.39a1.73,1.73,0,0,0,.27-.22c15.89,16.07,20.67,21.55,19.59,24.52l-.13,0c.66-3.09-2.66-7.18-19.77-24.31l0,0Z"/><path class="cls-2" d="M126,192.8a3,3,0,0,0,.18.45c-16.44,7.84-19,9-26.94,13.62a4.06,4.06,0,0,0-.28-.38c9.06-5.27,13.08-7.18,27-13.68Z"/><path class="cls-2" d="M99.79,209.52a2,2,0,0,0,.08-.37c19,9.17,25.26,12.47,30.09,16.69l-.27.23c-6.06-4.74-10.53-7.2-29.92-16.5l0,0Z"/><path class="cls-2" d="M107.19,27.7l.41.08c-11,30.38-16.49,45.64-23.82,75.35l-.44-.1c3.34-15.28,8.54-35,23.85-75.33Z"/><path class="cls-2" d="M225,159.31c0,.05-2.58,5.66-22.44,15.68a6.32,6.32,0,0,0,.18-.63c9.46-4.9,16.12-8.59,22.26-15.06Z"/><path class="cls-2" d="M131.45,55.22l.39.32c-14.53,17.07-31,32.28-46.11,48.82l-.39-.39c14.81-16.78,31.27-32,46.11-48.74Z"/><path class="cls-2" d="M94.24,158.05a3.51,3.51,0,0,0,.41-.43c28.3,26.55,28.3,26.55,32.76,31.12l-.37.3c-2.19-2.1-2.19-2.1-32.86-30.93l.06-.06Z"/><path class="cls-2" d="M95.45,155.4c0-.19,0-.44,0-.62,58.75,4.78,58.75,4.78,65.33,5.38-.05.21-.11.48-.15.69-4-.36-4-.36-65.18-5.36v-.09Z"/><path class="cls-2" d="M82.73,112.22a4.71,4.71,0,0,0,.63-.11c1.77,11.76,3.17,21.06,7.15,38.37l-.53.07a348.08,348.08,0,0,1-7.34-38.32Z"/><path class="cls-2" d="M86.72,108.11c0-.21,0-.48,0-.69,24.37,1.29,48.74,2.45,73.11,3.81,0,.23,0,.54,0,.77-24.38-1.35-48.76-2.52-73.14-3.81v-.08Z"/><path class="cls-2" d="M160.24,113.9c.09.21.23.49.35.69C139.23,128.26,116.74,140,95,152.92c-.11-.19-.26-.44-.38-.63,21.85-12.85,44.35-24.6,65.65-38.39Z"/><path class="cls-2" d="M109.89,27.27a3.2,3.2,0,0,0,.36-.26c5.46,6.56,7.1,8.54,21.23,22.66a3,3,0,0,0-.44.38c-12.67-12.75-16-16.36-21.2-22.74l.05,0Z"/><path class="cls-2" d="M122.8,3.83l.2.09c.09,3.91-1.1,7.07-12.37,19.15a2.14,2.14,0,0,0-.33-.25c8.11-8.74,13-14.39,12.5-19Z"/><path class="cls-2" d="M145.73,18.39l.25.29c-8,1.93-16.74,3.36-34.7,6.15,0-.13,0-.31,0-.44,13.39-2.08,24-3.73,34.46-6Z"/><path class="cls-2" d="M141.53,5.51c12.81,5.57,26.5,13,40.75,36.39l-.25,0c-9.52-14.61-19.14-27.43-40.5-36.36Z"/><path class="cls-2" d="M182.32,24.18c.07.05,7,5.88,2.67,19.39-.22-.22-.28-.28-.5-.47,1.58-5.55,3.07-10.79-2.17-18.91Z"/><path class="cls-2" d="M139.79,5.06c2.34.72,5.4,3.7,5.62,4,2.33,3.31,2.36,3.82,2.61,7.72l-.46-.28c-.44-5.83-1.38-7.63-7.77-11.46Z"/><path class="cls-2" d="M124.13,3.92V3.83c6.17,3.29,11.09,6.11,20.81,12.43a1.33,1.33,0,0,0-.08.21c-9-5.85-13.46-8.62-20.74-12.54Z"/><path class="cls-2" d="M164.1,116.57a4.22,4.22,0,0,0,.68-.06c.91,14.18,1.39,24,.32,40.12l-.48,0c.48-14.26.77-22.87-.52-40.09Z"/><path class="cls-2" d="M117.27,1h-.12c1.22.07,6.22.49,19.23,2.94l.5.17c-13.31-2.53-18.36-3-19.59-3.1Z"/><path class="cls-2" d="M117.66,1.05h0a31.38,31.38,0,0,1,3.69,1.35l0,0a30.94,30.94,0,0,0-3.63-1.38Z"/><path class="cls-2" d="M123.65,3.25l-.18-.13c7.54.55,9.43.71,13.65,1.07l.53.18c-4-.34-6.21-.52-14-1.09l0,0Z"/><path class="cls-2" d="M150.43,20.14a1.1,1.1,0,0,0,.06-.22,337.64,337.64,0,0,1,30.4,22.52,2.75,2.75,0,0,0-.1.35,342.56,342.56,0,0,0-30.38-22.62v0Z"/><path class="cls-2" d="M147.55,20l.34.19c-.13,5.36-.31,12.7-11.6,29.81a4.23,4.23,0,0,0-.54-.35c5.07-8,12-19,11.79-29.64Z"/><path class="cls-2" d="M196,105.72c0,.34.05.44.12.77-10.74,2.13-14.06,2.75-28,5.1a6.26,6.26,0,0,0-.1-.78c14-2.36,17.37-3,28-5.09Z"/><path class="cls-2" d="M135.79,56.18c.15-.05.35-.14.5-.21,8.86,15.7,17.22,30.53,26.28,51.44l-.48.2c-8.76-18.9-12-26-26.37-51.42l.07,0Z"/><path class="cls-2" d="M181.61,45.41l.27.44c-4.11.89-12.66,2.75-44.06,6.67,0-.14-.07-.33-.11-.47,40.24-5.95,40.24-5.95,43.9-6.64Z"/><path class="cls-2" d="M184,48.06l.26.17c.82,14.91-1.87,30.13-17.74,59.9-.17-.13-.41-.29-.59-.41,9.63-18.41,19-38.18,18.07-59.66Z"/><path class="cls-2" d="M130.06,194.75a4.47,4.47,0,0,0,.51-.15c1.65,8.42,4.14,21.14.93,30.5l-.34.09c1.25-5.09,3-12.06-1.16-30.43l.07,0Z"/><path class="cls-2" d="M161,163.58a2.83,2.83,0,0,0,.37.48c-10.67,9.61-12,10.78-28.77,25.11l-.28-.31c9.52-8.47,19.24-16.71,28.68-25.28Z"/><path class="cls-2" d="M132.86,192.48A4,4,0,0,0,133,192c11.31,2.78,32.37,7.94,43.22,13.71l-.36.36c-8.44-3.65-16.42-7.11-43.07-13.51l0-.07Z"/><path class="cls-2" d="M131.72,227.39l.26-.23c3.8,1.71,5,2.43,5.68,3.92l-.5.19c-.6-1.35-1.4-2-5.48-3.84l0,0Z"/><path class="cls-2" d="M174.44,207.85c0,.08-1.59,2.07-41.67,18.24l.06-.2c31.31-13.1,31.31-13.1,41.61-18Z"/><path class="cls-2" d="M197.64,179.72l.24.07c-5.67,9.17-8.52,13.78-17.71,24l-.25-.06c7.26-8.35,10.58-12.17,17.73-24Z"/><path class="cls-2" d="M166.25,164.11a4.8,4.8,0,0,0,.48-.41c9.35,15.71,13.93,26.82,11.36,40.58l-.38.24C179,194.38,179,185,166.18,164.16l.07-.05Z"/><path class="cls-2" d="M150.88,6a83.66,83.66,0,0,1,28.37,14.85l-.17-.09-.16-.08a48,48,0,0,1-5.39-4c-3.45-2.56-10.19-6.5-22.65-10.68Z"/><path class="cls-2" d="M141.43,5.24l-.27-.12a173.57,173.57,0,0,1,37.07,15.79l.29.28A175.33,175.33,0,0,0,141.46,5.26l0,0Z"/><path class="cls-2" d="M187,48.24a1.9,1.9,0,0,0,.11-.31c9.48,9.26,15.77,15.59,25.14,28.52,0,.09-.09.21-.12.3-7.53-9.91-12.08-15.89-25.15-28.47l0,0Z"/><path class="cls-2" d="M185.54,48.74l.3,0c4.3,9.17,11.49,24.53,13.38,52.12l-.3,0c-1.89-16.43-3.68-32-13.37-52.12Z"/><path class="cls-2" d="M197.3,109c.12.12.28.28.41.39-5.14,11.15-11,23.79-30.24,48.14-.13-.12-.31-.28-.46-.39,15.19-19.55,22.83-31.7,30.29-48.14Z"/><path class="cls-2" d="M213.48,146.7l.25.13c-3.79,10.33-5.52,15-11.41,25.43l-.31-.14c5-9.5,7.79-14.73,11.46-25.42Z"/><path class="cls-2" d="M167.74,162.25a5.76,5.76,0,0,0,.23-.59c13.87,4.92,21.15,7.8,30.39,12.94-.16.26-.21.35-.37.62-6.12-3.35-11.41-6.25-30.29-12.89l0-.08Z"/><path class="cls-2" d="M212.58,143.31c0,.17,0,.39,0,.55-8.25,4-17.27,7.94-44.27,16.18,0-.16,0-.37,0-.52,28-9.23,31.62-10.42,44.31-16.21Z"/><path class="cls-2" d="M213.34,82.39c.16.27.2.34.37.58-3.37,7.38-4.63,10.14-12.1,20a4.86,4.86,0,0,0-.36-.62c5.89-7.91,8.09-10.87,12.09-20Z"/><path class="cls-2" d="M201.23,109.3a3.21,3.21,0,0,0,.33-.42c4.63,8.51,9.41,17.3,12.79,29.8a4.45,4.45,0,0,0-.38.46,127.37,127.37,0,0,0-12.79-29.78l.05-.05Z"/><path class="cls-2" d="M174.08,209.26l.13.12c-8,6.5-18,14.6-33.66,21,8.76-4,18.69-8.51,33.53-21.09Z"/><path class="cls-2" d="M215.39,54.46c8.24,13.82,9.87,17.48,14.6,32.69-4.9-15.51-6.53-19.18-14.6-32.69Z"/><path class="cls-2" d="M202.46,198.36l-.51.54c-1.88,1.51-4.71,3.79-22.76,7.53.14-.16.18-.4.41-.48a38.86,38.86,0,0,1,4.16-.89c4.63-1,15.72-3.64,18.7-6.69Z"/><path class="cls-2" d="M190.18,209.7l-1,.79c-7.76,5.62-11.3,8.18-22.52,13.52,4.54-2.47,9.24-4.66,13.67-7.35,3.09-1.88,7-4.76,9.85-7Z"/><path class="cls-2" d="M177.07,208.34l.47-.36c-.57,4.4-1.28,9.87-12.05,16.31l-.6.27c4.91-3.14,11.63-7.44,12.12-16.18l.07,0Z"/><path class="cls-2" d="M184.67,24.94l-.24-.26C192.28,30,202,36.71,210.85,48l.21.29C205.58,41.84,199.38,34.53,184.7,25l0,0Z"/><path class="cls-2" d="M184.35,25.39c.19.07,21.28,15.4,29.5,50.68l-.23-.11c-3.74-13.49-8.85-32-29.27-50.57Z"/><path class="cls-2" d="M214,52.46c3.57,5.12,6.76,13.75,1.69,25.76-.15-.28-.19-.35-.35-.61,2.29-6.29,5.14-14.13-1.34-25.15Z"/><path class="cls-2" d="M140.3,3.3l.92.19,4,.93c-.53-.13-.53-.13-5-1.12Z"/><path class="cls-2" d="M123.83,1.19l.8,0c8.11.61,12.11,1.46,13.81,2.95-.2-.06-.4-.1-.59-.17a3.29,3.29,0,0,1-.65-.49,12,12,0,0,0-3.7-1.21,72.93,72.93,0,0,0-9.68-1.13Z"/><path class="cls-2" d="M139.38,4.47l-.52-.16c4.39.23,6.26.37,8,.58l.73.2c-1.63-.2-3.2-.34-8.17-.6l-.05,0Z"/><path class="cls-2" d="M231.9,95.82c1.83,12.43,4.59,31.21-4.27,58.24,4-13.85,8.9-31.09,4.27-58.24Z"/><path class="cls-2" d="M216.77,144.21c.1-.27.17-.5.21-.62,4.29,4,7.68,7.13,9.05,12.88l-.27.68c-1.2-3.9-2.07-6.72-9-12.85l0-.08Z"/><path class="cls-2" d="M137.55,231.74l.47-.17c.74.54,2.11,1.56-4.07,2.55l-1.5.22-.78.1c4.81-.65,7.65-1.35,5.88-2.64l-.06,0,.06,0Z"/><path class="cls-2" d="M161.09,226.54l.53-.21a77.23,77.23,0,0,1-10.78,4.07l-.88.26A79.84,79.84,0,0,0,161,226.56l.07,0Z"/><path class="cls-2" d="M162.33,225.73s-5,2.1-23.59,5.58a3.48,3.48,0,0,1,.48-.2c7.7-1.82,15.54-3,23.11-5.38Z"/><path class="cls-2" d="M215.32,84.32l.27.05c3.46,18,4.43,30.6.59,53.65l-.28-.06c3-20.16,3.54-32.07-.58-53.64Z"/><path class="cls-2" d="M216.74,81.3c0-.27-.11-.51-.14-.62,7.91,3.81,10.68,5.51,13.78,9.41l.16.72c-2.89-3.47-4.83-5.19-13.8-9.44V81.3Z"/><path class="cls-2" d="M231.37,94.16c.05.18,4.82,18.61-14,45.58,0-.15-.08-.35-.13-.5,6.38-9.82,16-24.65,14.16-45.08Z"/><path class="cls-2" d="M4.73,84.91c-.53,1.8-1.54,5.65-2,7.49q.85-3.79,2-7.49Z"/><path class="cls-2" d="M105.24,234.75l-.22,0c2.23.22,5.32.49,9.35.59h-.21q-4.51-.11-8.93-.56Z"/><path class="cls-2" d="M24.14,189.43l-.06-.08c.22.24,5.59,6.75,5.63,6.79l-.06-.06q-2.87-3.22-5.51-6.65Z"/><path class="cls-2" d="M117.1,1c-2,0-3.73.05-4.82.1q2.4-.1,4.82-.1Z"/><path class="cls-2" d="M78.11,8A28.24,28.24,0,0,0,74,9.83l0,0c.57-.07,7.88-2.93,8.14-3.1h0a38.09,38.09,0,0,0-4,1.29Z"/><path class="cls-2" d="M33.3,39.33c1.59-1.8,3.19-3.14,3.79-3.17,1,.19-3.17,5-4.88,6.16-.71.48-1.07.49-1,0a9.69,9.69,0,0,1,2.07-3Z"/><path class="cls-2" d="M62.14,219.08c-1.91-1.25-2.61-2-2.3-2.12h.08c1.23.1,7.5,4.08,7.06,4.48-.21.19-2.33-.72-4.84-2.35Z"/><path class="cls-2" d="M22.81,94.14c.38-2.11,1.56-4.27,3.35-4.37,2.8,0,2.53,5.89.22,8.15-1.68,1.65-3.78.77-3.72-2.42a8.85,8.85,0,0,1,.14-1.36Z"/><path class="cls-2" d="M32.32,149.26c-.59-3,.66-4.33,2.09-4.36,3.8.25,5,6.65,3.07,8.27-1.47,1.25-4.37,0-5.15-3.91Z"/><path class="cls-2" d="M112.49,235.17a27.84,27.84,0,0,1-3.08-.34c2.2.1,4.38.45,6.59.5-.39,0-1.8,0-3.5-.16Z"/><path class="cls-2" d="M53.06,193.59c-1.18-2-1-3.37.52-3.4,3.15.18,6.24,5.18,4.76,6.5-.88.79-3.55-.19-5.28-3.09Z"/><path class="cls-2" d="M58.6,36c1-1.42,2.67-3,4.42-3.09,2,0,.87,2.8-.95,4.61-2,2-4.31,2.15-4.36.69A4.3,4.3,0,0,1,58.6,36Z"/><path class="cls-2" d="M93.69,7.1a11.49,11.49,0,0,1,3.67-1.35c.13,0,.42,0,0,.39-1.32,1.21-5.48,3.12-5.43,2.32,0-.27.67-.78,1.75-1.35Z"/><path class="cls-2" d="M103.73,232.66c-1.23-.51-1.67-.88-1.47-1a.43.43,0,0,1,.16,0c1,0,4.62,1.64,4.6,1.91a10.6,10.6,0,0,1-3.29-.91Z"/><path class="cls-2" d="M78.08,107.53A4.43,4.43,0,0,1,82.52,103c4.67,0,5.37,5.71,2.79,8.11a4.29,4.29,0,0,1-7.22-3.54Z"/><path class="cls-2" d="M94.08,207.88c-.55-1.63.24-2.78,1.93-2.81,3.23,0,4.78,3.67,3.38,5.1-1.18,1.2-4.36.49-5.31-2.29Z"/><path class="cls-2" d="M86.95,154.8a3.74,3.74,0,0,1,3.89-4.34c4.58.11,5.79,5.27,3.53,7.48s-7.1.83-7.41-3.14Z"/><path class="cls-2" d="M105.69,24.88a3.27,3.27,0,0,1,3.18-2.45c2.7,0,3,2.93,1.58,4.4s-4.88,1.17-4.87-1.16a3.2,3.2,0,0,1,.11-.79Z"/><path class="cls-2" d="M125.93,191.12a3.82,3.82,0,0,1,4-3.15c4.07.14,3.94,4.16,2,5.87-2.3,2-6.27,1-6-2.36,0-.11,0-.25,0-.36Z"/><path class="cls-2" d="M117.1,1a1.9,1.9,0,0,1,.58.06h0l-.17,0a2.38,2.38,0,0,0-.41,0Z"/><path class="cls-2" d="M118.2,235a2.76,2.76,0,0,1,1.11-.42c.19,0,.17.08.09.15a4.12,4.12,0,0,1-1.7.51l0,0a4.13,4.13,0,0,0,.45-.22Z"/><path class="cls-2" d="M130.21,52.26A3.14,3.14,0,0,1,133.6,49c4.09.11,5.36,4.53,3.43,6.41s-6.81.81-6.81-3.19Z"/><path class="cls-2" d="M121.71,3.06c-.34-.32-.65-.71-.21-.72.94,0,3,1.25,2.57,1.66-.25.21-1.31.07-2.36-.93Z"/><path class="cls-2" d="M129.11,226.73a3.76,3.76,0,0,1,2.84-1.67c1.2,0,1.2,1,0,2.13-1.39,1.33-3.34,1.69-3.31.62a2.19,2.19,0,0,1,.47-1.08Z"/><path class="cls-2" d="M159.84,111.8c0-2.69,1.59-4.55,4-4.61,4.62.12,5.31,6.25,2.79,8.44-2.35,2-6.77.86-6.81-3.83Z"/><path class="cls-2" d="M160.62,160.86a4.7,4.7,0,0,1,4.49-4.23c4.21.12,3.73,5.08,1.56,7.13-2.33,2.21-6.13,1.4-6.12-2.08a5.66,5.66,0,0,1,.07-.82Z"/><path class="cls-2" d="M145.38,17.91c-.3-.45-1.18-1.91.33-2,2.52.11,5.58,3.5,4.57,4.4-.78.69-3.33-.14-4.89-2.43Z"/><path class="cls-2" d="M136.64,231.47a16.86,16.86,0,0,1,3.75-1.22c.12,0,.23,0,.12.15-.52.63-5.58,2.29-6.18,2.15l0,0c.08-.09.17-.2,2.32-1.06Z"/><path class="cls-2" d="M195.94,104.91c0-2.4,1.07-4,2.79-4.06,3.36,0,4.65,6.34,2.45,8.5-1.84,1.8-5.18.25-5.24-4.44Z"/><path class="cls-2" d="M181.32,44.88c-1-2.07-.46-3,.58-3,2.58,0,6.41,5.21,4.88,6.62-1,.91-3.82-.35-5.46-3.61Z"/><path class="cls-2" d="M137.66,4.36a23.92,23.92,0,0,1-2.74-1l0,0c.95,0,6.76,1.66,6.83,2.15a19,19,0,0,1-4.12-1.14Z"/><path class="cls-2" d="M175.41,206.58c1.52-1.72,3.19-2.84,4.38-2.91s.66,1.6-1.34,3.52C176.25,209.31,174,210,174,209a4.65,4.65,0,0,1,1.41-2.41Z"/><path class="cls-2" d="M197.65,175.91c1-2.24,2.6-3.74,4-3.82,2.36,0,.76,4.55-1.4,6.6-1.72,1.63-3.34,1.45-3.29-.37a6.43,6.43,0,0,1,.69-2.41Z"/><path class="cls-2" d="M212.8,141.95c.41-1.86,1.41-3.88,3-4,2.53.09,1.93,6.19-.25,8.3-1.21,1.17-3,.89-3-2.22a10.13,10.13,0,0,1,.26-2.09Z"/><path class="cls-2" d="M212.23,79.57c-.43-1.73-.43-3.61.87-3.71,2.27,0,4.88,6.56,3.29,8.22-.94,1-3.15-.51-4.16-4.51Z"/><path class="cls-2" d="M180.23,22.63c-1.27-1-2.68-2.18-2.21-2.26,1.31.09,7.38,4.59,6.92,5.12-.14.17-1.31-.22-4.71-2.87Z"/><path class="cls-2" d="M163.22,225.33a38.74,38.74,0,0,1,4.11-1.76c-.21.51-7.32,3.49-8,3.61,0-.08,0-.08,3.92-1.85Z"/><path class="cls-2" d="M225.41,158.09c.89-2.46,1.7-4,2.11-4.14.76.17-1.92,7.81-3,8.43-.3.18-.3-.43,0-1.57.23-.9.59-2,.86-2.72Z"/><path class="cls-2" d="M147.35,5c-1.4-.38-2.83-.66-4.23-1.09,1.84.35,7.21,1.8,8.71,2.35a3.69,3.69,0,0,1-.59-.16c-2.05-.6-2.67-.78-3.89-1.11Z"/><path class="cls-2" d="M230.68,91.39a21.36,21.36,0,0,1-.77-4.34c.39.31,2.24,8.19,2.09,8.87-.25-.08-.93-2.87-1.32-4.53Z"/><path class="cls-2" d="M212.61,50.49c-.75-1.07-1.54-2.11-2.27-3.2h0L211.63,49l3.81,5.51c-1-1.32-1.88-2.69-2.83-4Z"/><path class="cls-3" d="M159.26,228.18l-.4.17c9-3.56,12.67-5,22.21-10.88l.89-.58c-7.85,4.79-10.79,6.58-22.66,11.26l0,0Z"/><path class="cls-3" d="M189.45,211.54l.73-.57c5.19-4.48,5.29-4.56,7.58-7.27-.16.14-.33.28-.49.43-1,1-2.3,2.46-3.29,3.51a44.3,44.3,0,0,1-4.53,3.9Z"/><path class="cls-3" d="M160,227.78c14.19-6.4,21.39-10.23,35.69-22.59l0-.07C183.62,215.35,177,220.26,160,227.78Z"/><path class="cls-3" d="M201.25,35.28l-.63-.63-.53-.53c-8-7.34-23-21-50.46-29.24,18.83,7,33.71,12.6,51.62,30.4Z"/><path class="cls-3" d="M207.49,42.14l-.52-.61c-.94-.94-2.2-2.2-3.22-3.06.16.18.3.37.47.54,1,.95,2.36,2.12,3.27,3.12Z"/><path class="cls-3" d="M226.83,90c.08.11.18.27.25.39-.64-9.84-1.51-23.31-13.4-40.22l-.74-1c5.65,8.6,13.39,20.38,13.85,40.81l0,0Z"/><path class="cls-3" d="M149.72,8.66l.48.25c.45-1.23.57-1.56-.19-2.65a8.47,8.47,0,0,0-3.09-2l-.7-.2c1.73.82,2.6,1.23,3.33,2.2a2.12,2.12,0,0,1,.11,2.39l.07,0Z"/><path class="cls-3" d="M199.47,34.57C187.55,23.64,174.8,13.15,150,5c15.81,5.57,30.44,11.65,49.51,29.56Z"/><path class="cls-3" d="M200.57,36.06c-.09-.11-11.25-11.49-48.36-25.9,1.5,1.21,4.14,1.75,5.92,2.47,25.23,10.18,37.29,19.46,42.44,23.43Z"/><path class="cls-3" d="M158.08,228.42c.1,0,9.93-3.75,16.5-12.13-.18.11-.37.19-.54.31a23.94,23.94,0,0,0-2.94,3.28c-.16.17-3.93,4.32-13,8.55Z"/><path class="cls-3" d="M202.12,198.92c16.16-17.53,23.39-30.29,29.75-52.54q.32-1.31.61-2.63c-3.24,12.21-8.67,32.63-30.36,55.15h0Z"/><path class="cls-3" d="M235.23,115.15q0-.46,0-.92c-.66-5.62-1.22-10.48-6.7-18.49a2.47,2.47,0,0,0,0,.68c.52,1.5,1.92,3.16,2.74,4.51a31.72,31.72,0,0,1,4,14.22Z"/><path class="cls-3" d="M218.35,131c.07.09.15.22.21.32,3.72-9.45,7.23-18.37,8.33-33.4a4.26,4.26,0,0,1-.28-.42c-1,9.43-2,18.34-8.3,33.45l0,0Z"/><path class="cls-3" d="M219.06,133.77c0,.3,0,.55,0,.67,10.13-4.63,15.42-7.94,16.2-13.21q0-.41,0-.82c-.83,3.9-2.47,7.14-16.19,13.27,0,0,0,.06,0,.09Z"/><path class="cls-3" d="M131.14,234.65c7.48-1.9,21.42-5.43,40.91-17.63l.06-.2c-8.63,5.16-23.07,13.8-41,17.82Z"/><path class="cls-3" d="M198,59l.32.46c5.8-6.94,8.37-12.2,5.29-20.1l-.5-.52c2.33,6.58,2.15,11.27-5.17,20.09L198,59Z"/><path class="cls-3" d="M226.25,89.39l.2.15c-2.22-12-5.26-28.4-21-48.55l-.22-.15c7.18,9.74,17,23.07,21,48.54l0,0Z"/><path class="cls-3" d="M225.1,91.25c0-1-7-12.49-25.44-28.14,0,.12,0,.28,0,.4,9.55,8.62,17.79,16.07,25.46,27.74Z"/><path class="cls-3" d="M178.27,213.4l-.3.31a128.08,128.08,0,0,0,18.84-10l.45-.48a126.42,126.42,0,0,1-18.94,10.17l0,0Z"/><path class="cls-3" d="M201.19,199.38c.21-.16,20.7-18.89,16.3-60.45l-.24.24c1.37,19.68,1.11,37.8-16.06,60.21Z"/><path class="cls-3" d="M199.48,200.92c.08-.08,8.12-8.16-6.32-23.79-.18.27-.23.34-.43.6,6,6.83,11,13.74,6.75,23.19Z"/><path class="cls-3" d="M117.88,0a13.4,13.4,0,0,0,1.59,0h-.72a7.53,7.53,0,0,1-.89,0Z"/><path class="cls-3" d="M144.87,3.66c-2.8-.76-16.45-2.76-26.74-3.6,24,3.09,24,3.09,26.74,3.6Z"/><path class="cls-3" d="M143.22,3.1l.47.11a97.85,97.85,0,0,0-18.95-3l-1-.06a99.13,99.13,0,0,1,19.36,2.9l.07,0Z"/><path class="cls-3" d="M125.26,236.06l1.2-.09c12.5-1.37,15.74-2,26.62-5.5-8,2.51-15,4.68-27.82,5.59Z"/><path class="cls-3" d="M129.71,235l-.45.1a207.78,207.78,0,0,0,24.42-5.07l.64-.24A207.65,207.65,0,0,1,129.77,235h-.06Z"/><path class="cls-3" d="M148.68,224.43l-.22.23c10.95-3.58,16.79-5.75,24.34-8.73l.41-.4c-8.81,3.48-13.09,5.06-24.49,8.86l0,0Z"/><path class="cls-3" d="M177.48,212.38c.1,0,10.83-8.82,13.76-33.28l-.39.22c-1.73,10.86-3.22,20.25-13.37,33.06Z"/><path class="cls-3" d="M130.51,234.68A30.76,30.76,0,0,0,144.73,227a2.36,2.36,0,0,0-.38.12,27.76,27.76,0,0,0-3.63,3c-2.57,2.1-8.38,4.09-10.21,4.62Z"/><path class="cls-3" d="M117.63,236.34h.82c7.39-.13,9.07-.6,9.71-1l-.56.1a1.53,1.53,0,0,0-.33.17,16.19,16.19,0,0,1-3.15.5c-.77.07-2.63.2-6.49.24Z"/><path class="cls-3" d="M117.1,236.34a73.56,73.56,0,0,0,9-.76l.47-.09a76.79,76.79,0,0,1-9.45.85Z"/><path class="cls-3" d="M216.44,130.52l.3-.13c-.65-13.09-1.74-35-17.8-65.69l-.31.12c8.4,17.09,16.69,36.24,17.81,65.69Z"/><path class="cls-3" d="M193.92,172.12l.14.16c6.39-8.16,13-16.59,21-33a2.32,2.32,0,0,1-.29-.38c-5.28,10.45-9.1,18-20.86,33.21l0,0Z"/><path class="cls-3" d="M190.54,172.63l.33-.25c-1.3-7.83-4.74-28.64-31.79-67.2-.17.14-.39.33-.57.45,13.8,20.26,28.39,44.07,32,67Z"/><path class="cls-3" d="M214.5,133.67c0-.17.11-.4.16-.57-12.3-10-28.07-18.72-54.41-30.16,0,.17-.09.39-.14.56,22.87,10.66,39.39,18.35,54.39,30.17Z"/><path class="cls-3" d="M131.65,53.12l.63,0h0c-1.71-8.94-6.9-36.16-12.41-49.29h-.19c1.4,3.7,5.68,15,12,49.32Z"/><path class="cls-3" d="M147.08,8.41c-.93-.7-19.53-6.85-28.5-8.27,5.4,1.13,12.12,2.53,28.5,8.27Z"/><path class="cls-3" d="M147.88,8.95c-.44-.29-.45-.3-4.27-1.14-7.72-1.7-15.48-3.2-23.2-4.92l.05.15c9.12,2.08,18.3,3.85,27.42,5.91Z"/><path class="cls-3" d="M117.52,236.34c5.23-.51,11.16-1.1,25.8-9.25l-.06-.12c-7.57,4.12-16.14,8.79-25.73,9.37h0Z"/><path class="cls-3" d="M194.33,57l.23-.06c-10.14-17.72-21.12-32.31-41.76-45.87C166.59,20.76,179.23,30.9,194.33,57Z"/><path class="cls-3" d="M135,54c.12.1.28.23.39.34C148.88,39.16,160.11,23.38,151,10.68l-.49-.22c5.8,9.06,5.36,19.92-15.6,43.47L135,54Z"/><path class="cls-3" d="M159.36,98.68a5.17,5.17,0,0,1,.32.5c15.77-12.1,27.91-22.82,35.89-35.79-.19-.22-.28-.32-.47-.57-5.69,8.67-12.71,17.94-35.8,35.79l.06.08Z"/><path class="cls-3" d="M194.06,61c-.08-.2-.18-.46-.26-.66-11.69-.88-24.86-1.81-57.19-3.51,0,.2,0,.46,0,.65,14.1.75,37.69,2,57.39,3.52Z"/><path class="cls-3" d="M117.1,236.34h0Z"/><path class="cls-3" d="M117.1,236.34h0c3.6,0,5.09-1.13,4.42-3.35l-.21.12c.06.74,0,1.95-.55,2.4a6.1,6.1,0,0,1-3.66.83Z"/><path class="cls-3" d="M122.49,231.72l0,.13c7.1-1.87,21.15-5.7,21.29-5.74l.3-.3c-7.18,2-14.38,3.87-21.55,5.89v0Z"/><path class="cls-3" d="M189,174.58l.29-.49c-10.73-7.41-24-13.92-48.82-24-.06.16-.14.38-.2.54C168.39,162.82,176,166.1,189,174.58Z"/><path class="cls-3" d="M148.84,223.37c11.12-8.17,24.6-19.75,40.24-43.79a3.18,3.18,0,0,1-.37-.16c-7,10.49-18.68,28.06-39.9,43.95Z"/><path class="cls-3" d="M145.65,224.52l.47-.3c-2.69-5.56-7.18-9.39-20-17.06a3.22,3.22,0,0,1-.3.43c12.9,7.71,17.36,11.51,19.87,16.92Z"/><path class="cls-3" d="M126.33,204.42c0,.1.08.25.11.35,40.67-16.48,55.28-23.91,61.52-27.09,0-.18,0-.42.06-.6-18.71,9.33-27,12.77-61.72,27.28l0,.06Z"/><path class="cls-3" d="M129.37,54.34l.32-.34c-21.47-20.45-25.94-24.71-31.07-33.91l-.31.22c5.91,10.49,13.61,18,31.06,34Z"/><path class="cls-3" d="M128.62,56.57c0-.19,0-.44,0-.63-25.89-4.21-37.71-6.12-56-9.9-.08.18-.2.41-.29.59,18.81,3.85,29.78,5.64,56.28,9.95Z"/><path class="cls-3" d="M137.92,144.54l.52.21a403.13,403.13,0,0,0,16.4-38.69,4.88,4.88,0,0,1-.69-.29c-5,13.17-7.74,20.42-16.31,38.74l.09,0Z"/><path class="cls-3" d="M153.72,97.44l.48-.23c-4.6-9.8-6.9-14.72-19.23-36.82l-.44.2c15.7,29.69,15.7,29.69,19.19,36.85Z"/><path class="cls-3" d="M67.5,100.21l.17.32c20.51-13.93,41.46-27.18,62-41.1-.13-.16-.3-.38-.42-.55-20.59,13.76-41.8,26.6-61.79,41.26l0,.08Z"/><path class="cls-3" d="M68.14,102.72c0,.14,0,.32,0,.45,10.22.13,10.22.13,83.61-1.15,0-.23,0-.54,0-.77-27.85.48-55.7.89-83.55,1.41v.06Z"/><path class="cls-3" d="M113.48.08l-.6,0,4.94-.06-.15,0-4.14,0Z"/><path class="cls-3" d="M89.46,226.91l.36.21c2.31-5,8.06-9.81,30.57-19.7a2.77,2.77,0,0,1-.19-.45c-17.42,7.74-28.65,13.77-30.8,19.91l.06,0Z"/><path class="cls-3" d="M121.35,230.92l.24,0c.81-3.4,2-8.53,2-22.08a3.73,3.73,0,0,1-.52,0c0,6.31,0,15.84-1.73,22.06Z"/><path class="cls-3" d="M115.07,236.24c-8-1-15.81-4.29-22.69-7.22a74.23,74.23,0,0,0,22.69,7.22Z"/><path class="cls-3" d="M115.77,236.28l.24,0a3.16,3.16,0,0,1-1.36-.52c.31-.66.52-1.09,5.11-3a1.2,1.2,0,0,1,0-.17c-1.17.5-2.76,1.14-3.87,1.77a4.91,4.91,0,0,0-1.4,1.21c.3.52.31.53,1.28.66Z"/><path class="cls-3" d="M119.83,232.12l.07-.16c-9.59-1.59-19.26-2.68-28.88-4.08.38.27.38.27,3.78.77,8.34,1.23,16.7,2.23,25,3.47Z"/><path class="cls-3" d="M72.38,42.59a2.76,2.76,0,0,1,.24.22C81.32,34,85.29,30,95.32,20.67a1.25,1.25,0,0,1-.25-.22c-7.49,7-13.92,13-22.73,22.11l0,0Z"/><path class="cls-3" d="M120.43,204.52l.21-.34c-23.39-13.8-47.86-25.69-70.79-40.3l-.06.4c8.07,5.37,10,6.65,20.93,12.88,16.43,9.36,33.25,18,49.7,27.36Z"/><path class="cls-3" d="M123.84,202.81l.27,0c5.18-18.58,10.92-46.45,11.56-49.57a5.34,5.34,0,0,1-.72-.1c-2.68,13.06-4.46,21.69-11.18,49.63h.07Z"/><path class="cls-3" d="M132.14,146.79c.11-.2.27-.46.4-.66C84.4,117.2,84.4,117.2,67.64,105.26c-.1.21-.25.48-.37.68,16,11.24,16,11.24,64.87,40.85Z"/><path class="cls-3" d="M49.41,161.12l.15.44c54.17-8,54.17-8,82.14-11.77,0-.22,0-.52-.06-.74-37.61,5-60.32,8-82.27,12l0,.08Z"/><path class="cls-3" d="M119.47,1.94l.15.08L119.48.88l-.83-.65-.14,0,.84.67.09,1.06Z"/><path class="cls-3" d="M95.91,4.64l-.33.16C117.16.59,117.16.59,118,.19l0-.09-.16,0,0,.11c-.39.15-.39.15-21.91,4.43l-.05,0Z"/><path class="cls-3" d="M100,16.69a2,2,0,0,1,.09.22c12.44-8,15.82-10.59,18.69-13.41l-.16-.14c-2.74,2.55-4.39,4.09-18.64,13.29l0,0Z"/><path class="cls-3" d="M96,17.29a5,5,0,0,1,.38-.34c-2.86-3.47-5.81-7-2.85-11.23-.56.23-2.3,1.34-1.36,5.75.28,1.29,1.56,3.25,3.83,5.83Z"/><path class="cls-3" d="M95.47,4.85,95.13,5l23.2-2.12,0-.17c-7.58.7-15.17,1.35-22.75,2.1l-.05,0Z"/><path class="cls-3" d="M86.74,226c-9.25-7.6-26.48-21.75-38.82-59.81l-.31,0c5.5,17.31,15.53,42.35,39.13,59.79Z"/><path class="cls-3" d="M16.4,122.34c0,.18.06.41.09.59C29.42,116.12,38,112.35,60.18,104.8a5.83,5.83,0,0,1-.11-.76c-21.6,7.35-31.39,11.43-43.68,18.21l0,.09Z"/><path class="cls-3" d="M46.65,157.94l.29.14c3.61-18.43,5.88-27.55,15.47-50.49-.18-.09-.42-.21-.6-.31C52,130.72,49.3,141.4,46.58,157.91l.07,0Z"/><path class="cls-3" d="M63.55,98.54l.5-.07c.2-21.49.65-30.66,4.88-49.18l-.55.07c-3.6,15.79-5.07,26.12-4.83,49.19Z"/><path class="cls-3" d="M60.61,100.92a4.76,4.76,0,0,1,.39-.67c-12.17-9.93-22.07-18.5-29.63-30.69-.18.27-.23.34-.42.59,5.61,8.56,11,15.78,29.66,30.77Z"/><path class="cls-3" d="M97.67,234.11a2.37,2.37,0,0,1,.54.12c-3.77-1.29-6.74-2.31-8.24-5.51l-.5-.24c1.17,2.11,2,3.63,8.12,5.62l.07,0Z"/><path class="cls-3" d="M86.52,226.32c-13-7.5-21-12.35-36-24.82l0,.21a196.54,196.54,0,0,0,36,24.61Z"/><path class="cls-3" d="M46.17,195.89l.38.22c-2.37-10.48-3-15.82-.63-30.38a4.47,4.47,0,0,1-.55-.37c-1.94,12.66-2.12,19.17.75,30.49l.06,0Z"/><path class="cls-3" d="M43.15,159.34c0-.13.1-.29.16-.41-10.91-11-18.8-18.86-27-32a4.9,4.9,0,0,1-.19.53c5.33,8.16,10.83,16.59,27.06,31.91Z"/><path class="cls-3" d="M95.34,4.21l.46-.14c2.3-.82,5.31-2.12,7.68-2.74A53.73,53.73,0,0,1,110.56.27c-8.73.7-13.61,3.14-15.21,3.94Z"/><path class="cls-3" d="M69.79,42.45l.41-.13c2.43-11.47,5.46-25.75,21.53-35.94-.17,0-16.93,6.4-21.94,36.07Z"/><path class="cls-3" d="M69.33,11.68l-.44.24c5.91-1.86,10.57-3.33,23-6.3l.45-.22c-12.28,2.91-16.87,4.3-23,6.25l-.07,0Z"/><path class="cls-3" d="M32.86,65.47c0,.14,0,.33-.05.46a375.86,375.86,0,0,1,33.4-18.27,3.1,3.1,0,0,1,0-.55A353.83,353.83,0,0,0,32.86,65.4v.07Z"/><path class="cls-3" d="M67.6,44.05a6.16,6.16,0,0,1,.48-.5C58.61,32,55.25,23.4,66.06,13.42a15.71,15.71,0,0,0-7.19,13.92c.33,6.64,5.59,12.94,8.73,16.7Z"/><path class="cls-3" d="M17.75,54.25c1.91-2.7,4.45-6.3,6.51-8.89l.2-.3c-1.81,2.38-4.25,5.52-5.93,8l-.78,1.2Z"/><path class="cls-3" d="M26.52,42.35v.07l.49-.58v-.07l-.49.58Z"/><path class="cls-3" d="M95.54,233.68c-11.46-3.56-28.79-8.94-45.83-31.61l-.37-.07c9.77,12.27,21.38,24.82,46.18,31.68Z"/><path class="cls-3" d="M96.07,233.9c-16.26-4.54-20.13-5.62-34-12.49.08.06,11.08,7,34,12.49Z"/><path class="cls-3" d="M3.42,85.85c2.06-4.59,5.27-9,23.75-16.83.07-.29.09-.37.18-.68-13.44,5.8-21.2,10.18-23.7,16.74l-.22.78Z"/><path class="cls-3" d="M14.48,119.16l.24.09c1.93-13.76,3.75-26.76,13.36-47.5a2.58,2.58,0,0,1-.35-.14c-5.13,11.7-11,25-13.29,47.53h0Z"/><path class="cls-3" d="M28.35,66.1c.18-.29.23-.36.41-.63-4.25-6.84-7.13-12.8-2.54-22-1.69,2-6.54,9.45,2.13,22.62Z"/><path class="cls-3" d="M30.32,63.95l.46-.24c2.89-12.14,7.71-32.47,33.37-49.37-.26.1-26.16,12.94-33.83,49.62Z"/><path class="cls-3" d="M44.43,195.57c-10.19-14.48-24.14-34.31-29.34-67l-.32.11c2.35,12.6,7.25,38.83,29.65,66.84Z"/><path class="cls-3" d="M56.71,218l.42.24c-6.46-6.47-8.14-9.52-9.45-17.16-.19-.15-.3-.23-.54-.43,1.33,7.45,2.73,10.63,9.5,17.32l.07,0Z"/><path class="cls-3" d="M6.52,159.85c5.57,12.15,13.25,21.71,37.87,37.39-.05-.12-.07-.32-.17-.42-1.48-1.48-4.09-2.65-5.84-3.79C14.49,177.55,8.89,165,6.2,159l.32.84Z"/><path class="cls-3" d="M0,102.16c-.06,4.67-.14,10.47,12.1,20.55,0-.33,0-.43.08-.77-7.1-6.2-12.91-12-12.06-20.61l-.12.83Z"/><path class="cls-3" d="M2.63,147.55c-.7-5-1.49-10.75,9.76-21.49-.08-.32-.1-.41-.16-.76C7,130.57.47,137.12,2.42,146.74l.2.81Z"/><path class="cls-3" d="M117.1,236.34h-.94c.17,0,.33,0,.5,0Z"/><path class="cls-3" d="M116.23,236.32c-1.67-.07-6.54-.38-15.77-1.62,1.13.23,9.79,1.35,15.77,1.62Z"/><path class="cls-3" d="M78,229.68c3.86,1.26,8.66,2.82,20.21,4.72-17.18-3.67-17.18-3.67-21-5l.76.27Z"/><path class="cls-3" d="M111,236.18a56.19,56.19,0,0,1-10.64-1.37l-.68-.13c1.54.42,3.87,1,10.5,1.45l.82,0Z"/><path class="cls-3" d="M14.22,176.26c5.68,9.12,16.25,26.1,40.92,41.29-1.78-1.92-5.05-3.42-7.23-4.87a115.55,115.55,0,0,1-34.54-38l.85,1.53Z"/><path class="cls-3" d="M67.63,225.48c-3.49-1.76-5.41-2.73-7.72-4.8l-.63-.36a30.78,30.78,0,0,0,7.6,4.81l.74.35Z"/><path class="cls-3" d="M42.46,209.72a79.36,79.36,0,0,0,14.06,8.88c-.17-.12-.33-.24-.5-.35-1.34-.86-3.27-1.78-4.67-2.54a70.25,70.25,0,0,1-9.56-6.54l.68.56Z"/><path class="cls-3" d="M114.09,0a12.21,12.21,0,0,0-1.35.07C114.26,0,114.26,0,114.89,0l-.8,0Z"/><path class="cls-3" d="M91.7,2.75c-9.59,2.38-14.65,3.92-22.86,8.58C72,9.9,74.94,8,78.21,6.79A90.16,90.16,0,0,1,92.67,2.54l-1,.21Z"/><path class="cls-3" d="M71,10.68l-.18.12c10-4.1,21.33-8.75,38.56-10.45l.31,0C100.06,1.5,89.14,2.83,71,10.66l0,0Z"/><path class="cls-3" d="M67.74,10.81a3.51,3.51,0,0,0-1.14.85c-.12.18,0,.53.09.73l.66-.34a1.11,1.11,0,0,1,0-.87,3,3,0,0,1,1.06-.7l-.69.32Z"/><path class="cls-3" d="M31.43,36.85l-2.92,3.29c.6-.66.6-.66,3.6-4l-.69.72Z"/><path class="cls-3" d="M29.74,39.14l-.12.17C37.2,32,45.79,23.62,63.44,14.36l.21-.18c-9.32,5.15-20.91,11.56-33.89,24.93l0,0Z"/><path class="cls-3" d="M202.16,37.84c1.91,2.08,3.17,3.25,3.46,3.21.17-.61-5.21-6.41-6.13-6.61h0c-.07.22.84,1.36,2.7,3.39Z"/><path class="cls-3" d="M198.17,202.23c-2.69,2.74-2.55,3-2.44,3,.73,0,6.75-6,6.38-6.35l0,0c-.19,0-1,.4-3.89,3.39Z"/><path class="cls-3" d="M155.27,229.47c-3.56,1.33-3.56,1.33-3.69,1.4.68.09,7.73-2.57,8.42-3.06v0c-.28,0-.28,0-4.72,1.69Z"/><path class="cls-3" d="M145.49,3.83c4.45,1.23,4.45,1.23,4.55,1.23-.32-.36-7.45-2.23-8.67-2.35a8,8,0,0,0,1.24.35c.5.13,1.66.43,2.88.77Z"/><path class="cls-3" d="M225.52,94.43c.75,3.29,2,4.69,2.67,3.74,1-1.46-.46-8.75-2.3-8.9-1.11.17-.89,2.88-.38,5.16Z"/><path class="cls-3" d="M174,214.8c-2,1.72-2.23,2.38-1.76,2.43,1.45.16,7.4-4.41,6.7-5.16a.38.38,0,0,0-.27-.09c-.89,0-2.68,1.11-4.66,2.81Z"/><path class="cls-3" d="M214.19,135.69c-.22,3.54,1.49,4.87,3.05,3.48,2.2-2,2.61-8.69-.07-8.85-1.54,0-2.79,2.31-3,5.37Z"/><path class="cls-3" d="M194,60.86c1.67,4,4.83,5,5.51,3.14s-1.84-6.95-4.7-7.08c-1.45,0-1.78,1.65-.81,3.94Z"/><path class="cls-3" d="M188.35,175.9c-1.12,3.1.38,4.4,2.43,3.44,3-1.4,4.85-6.76,2.6-7.56a1.87,1.87,0,0,0-.61-.1c-1.76.08-3.53,1.77-4.42,4.21Z"/><path class="cls-3" d="M148.65,9.43c2.89,1.74,4.28,1.89,4.24,1.49-.07-.81-4.73-3.3-6.31-3.37-.18,0-.48,0,.19.62a16.6,16.6,0,0,0,1.87,1.27Z"/><path class="cls-3" d="M127.39,235.33c-.9.18-1.82.26-2.71.5a35.57,35.57,0,0,0,6.56-1.22l0,0c-.09,0-.09,0-3.81.75Z"/><path class="cls-3" d="M144.49,225.4c-1.24,1.07-1.57,1.75-.87,1.79,1.76.1,6.16-3,5.35-3.74a.66.66,0,0,0-.45-.12,7.72,7.72,0,0,0-4,2.07Z"/><path class="cls-3" d="M117.1,236.34h0Z"/><path class="cls-3" d="M151.7,101.63c.25,4.79,5.29,5.81,7.53,3.4,2-2.19,1.44-7.86-3.43-8.12-2.6.05-4.25,2-4.1,4.72Z"/><path class="cls-3" d="M117.74,0c.22,0,.42.07.66.13a2,2,0,0,0,.61.09A5.12,5.12,0,0,0,117.1,0h0a4.51,4.51,0,0,1,.64,0Z"/><path class="cls-3" d="M131.65,148.85c-.12,4.57,4.93,5.54,7.5,3.26s2-7.48-2.4-7.81h-.37c-3.39.18-4.66,2.48-4.72,4.56Z"/><path class="cls-3" d="M128.66,57.2c.51,4,5.49,4.59,7.29,2.41,1.56-1.88.61-6.35-3.65-6.53h0a3.44,3.44,0,0,0-3.63,4.12Z"/><path class="cls-3" d="M119.79,232.27c-.3,1.08.64,1.35,1.6.81s1.64-1.82.62-2.13a1.38,1.38,0,0,0-.38-.05,1.92,1.92,0,0,0-1.84,1.37Z"/><path class="cls-3" d="M118.27,2.72a1.43,1.43,0,0,0,1.42,1.09h0c1,0,1-.85.29-1.51a1.75,1.75,0,0,0-1.09-.49c-.81,0-.65.82-.63.91Z"/><path class="cls-3" d="M120.07,206c0,2.94,3.59,3.7,5.49,1.8,1.72-1.73,1.27-5-2-5-2.57.13-3.49,1.76-3.49,3.24Z"/><path class="cls-3" d="M95,18.76c-.85,2,.89,2.55,2.48,2,2.19-.81,3.5-3.8,2-4.52a1.84,1.84,0,0,0-.75-.15A4.51,4.51,0,0,0,95,18.76Z"/><path class="cls-3" d="M116.55,236.33h.55a17.35,17.35,0,0,1-2-.13l-.39,0h0a12.31,12.31,0,0,0,1.84.15Z"/><path class="cls-3" d="M60.06,103.25c-.2,4.56,4.15,5.69,6.5,3.53s2.51-8.06-2.2-8.33c-2,0-4.16,1.53-4.31,4.8Z"/><path class="cls-3" d="M66.51,45.91C65.33,49,67.69,50,69.86,49c2.92-1.33,4.3-5.8,2.06-6.64a2.53,2.53,0,0,0-.84-.14,5.43,5.43,0,0,0-4.57,3.71Z"/><path class="cls-3" d="M88.39,227.88c2.09,1.26,4.19,1.87,4.1,1.36-.12-.68-4-3.25-5.6-3.26-.5,0-.52.3-.06.77a9.06,9.06,0,0,0,1.56,1.14Z"/><path class="cls-3" d="M43.42,162.54c1.34,3.81,5.16,4.75,6.2,2.31.91-2.14-.73-7.1-4.26-7.19-2.46.14-2.73,2.63-1.93,4.88Z"/><path class="cls-3" d="M93,5.11c-1.75.77-2.35,1.28-2,1.37.66.19,6.24-2.18,6.22-2.65l-.12,0A16.83,16.83,0,0,0,93,5.11Z"/><path class="cls-3" d="M45.63,199.11c2.19,2.68,4.76,3.72,4.91,2.43.18-1.51-3.34-6-5.68-6.06-1.05,0-1.14,1.3.77,3.64Z"/><path class="cls-3" d="M27.57,67.7c-1.25,3.22-.1,4.71,1.72,3.85,2.76-1.3,4.78-7.26,2.71-8a1.49,1.49,0,0,0-.42-.07c-1.42,0-3.07,1.76-4,4.19Z"/><path class="cls-3" d="M112.92.1c-2.09.1-3.61.25-3.85.29,2.67-.09,5.34-.39,8-.39-1.39,0-2.79,0-4.16.1Z"/><path class="cls-3" d="M99.16,234.59c2.15.42,4.13.7,4.36.7,0,0-7.63-1.6-8-1.62a24.27,24.27,0,0,0,3.68.92Z"/><path class="cls-3" d="M12.11,124.13c.24,4.19,2.3,5.45,3.51,4.06,1.73-2,1.08-9-1.47-9.09-1.6.11-2.18,2.6-2,5Z"/><path class="cls-3" d="M66.31,12.59c-1.34.71-2.93,1.65-3,1.95.35.24,7.54-3.45,7.85-4l-.06,0a24.73,24.73,0,0,0-4.81,2.11Z"/><path class="cls-3" d="M58.28,219.74c1.84,1.12,4,2.25,4.29,2.15-.12-.46-6.78-4.54-7.58-4.65h0c-.09.26,1.67,1.48,3.34,2.49Z"/><path class="cls-3" d="M26.69,42.23a23.9,23.9,0,0,0-2.61,3.48c.36,0,5.81-6.47,5.83-6.92h0a26.83,26.83,0,0,0-3.21,3.44Z"/><path class="cls-3" d="M117.1,236.34h0Z"/><path class="cls-3" d="M5.27,88.27l-.2.34C7.42,75.15,9.12,68.7,17.75,54.25l.78-1.2C10.17,66.92,7.95,72.84,5.3,88.23l0,0Z"/><path class="cls-3" d="M26.52,42.35l.49-.58c.61-.21,1.36-.48,11.81-.93l-.42.57c-5.92.27-11.28.55-11.87.94Z"/><path class="cls-3" d="M4.2,90.85c-.06.22-.12.44-.18.66-1-2.88-1.1-3.32-.61-5.66l.22-.78c-.36,2.83-.42,3.27.59,5.69l0,.09Z"/><path class="cls-3" d="M6.52,159.85,6.2,159c-.44-1.52-1.12-3.53-1.44-5.09.69,1.95,1,4,1.76,5.93Z"/><path class="cls-3" d="M0,102.16l.12-.83c1.1-4.13,1.19-4.47,3.48-7.84a3.13,3.13,0,0,1-.11.73,25.12,25.12,0,0,1-1.94,3.12A15.94,15.94,0,0,0,0,102.16Z"/><path class="cls-3" d="M3.56,149.92l.16.62-1.09-3-.2-.81,1.12,3.09,0,.08Z"/><path class="cls-3" d="M117,236.34h0Z"/><path class="cls-3" d="M78,229.68l-.76-.27c-.93-.37-2.18-.84-3.1-1.25,1.29.51,2.56,1,3.86,1.52Z"/><path class="cls-3" d="M116,236.33h.68c-2.42,0-3.07,0-5.75-.16l-.82,0c2.54.12,3.07.15,5.79.2Z"/><path class="cls-3" d="M14.22,176.26l-.85-1.53c-4.74-9.6-5.23-10.6-7.9-19.07,0,.07.09.16.12.23,1,2.29,1.87,5.49,2.67,7.85a97.62,97.62,0,0,0,6,12.53Z"/><path class="cls-3" d="M71.32,227l.58.25c-1.28-.52-3-1.21-4.27-1.78l-.74-.35c1.3.57,3,1.33,4.36,1.85l.08,0Z"/><path class="cls-3" d="M42.46,209.72l-.68-.56c-4.1-3.74-6.15-5.62-8.57-10,.17.16.35.3.5.48a29.38,29.38,0,0,1,2.11,3.28c.07.11,1.8,2.74,6.63,6.77Z"/><path class="cls-3" d="M114.09,0l.8,0h.85l-1.65,0Z"/><path class="cls-3" d="M91.7,2.75l1-.21A120.84,120.84,0,0,1,112.89.08,124.86,124.86,0,0,0,91.7,2.75Z"/><path class="cls-3" d="M67.74,10.81l.69-.32C69.8,10,71.68,9.25,78.79,8.14a5.62,5.62,0,0,1-.62.28,19,19,0,0,1-2.29.38c-.6.1-5.9,1-8.15,2Z"/><path class="cls-3" d="M31.43,36.85l.69-.72c5.72-5.44,17.62-16.75,44.64-27a59.77,59.77,0,0,1-6.56,2.72,155.22,155.22,0,0,0-18,9.05c-10.9,6.67-16,11-20.72,16Z"/><path class="cls-3" d="M82.47,6.72l-.35.11C90.8,3.28,96.44,1.21,111.52.14l.45,0C101.81,1,94.48,1.56,82.52,6.71l-.05,0Z"/><path class="cls-3" d="M80.36,8.17c.64-.29,1-.44,20.13-1.23-.08.07-.11.21-.25.22-6.63.4-13.26.6-19.89,1Z"/><path class="cls-3" d="M112.75,236.26h.19c-10.52-.8-20.46-1.56-35.38-6.88l-.15-.07c10.17,3.24,19.77,6.31,35.33,6.94Z"/><path class="cls-3" d="M69.45,226.07a102.67,102.67,0,0,1-34.24-25.21c2.3,1.21,4.27,4.3,6.08,6.16a102.1,102.1,0,0,0,28.16,19.05Z"/><path class="cls-3" d="M73.25,227.63c-.83-.34-1-.4-1.32-.89a2,2,0,0,1-.25-1.26c.1-.67,1.25-1.39,2.18-2l.56.34c-1.32.85-1.87,1.2-2.12,2s.29,1.19.95,1.79Z"/><path class="cls-3" d="M3.47,147.51c-2.25-11.65-5.06-26.15.13-50.81-2.46,14.39-4.79,28-.13,50.81Z"/><path class="cls-3" d="M6.31,88.62c0-.12,5.39-19.09,31-44.75l0,.23C25.05,56.95,15,68.38,6.31,88.62Z"/><path class="cls-3" d="M40,97.8c0,.18-.06.37-.09.55-5.62-.53-24.69-2.48-34.2-5.3q.09-.37.17-.74h0C12,94,19.52,95.4,40,97.71l0,.09Z"/><path class="cls-3" d="M71.59,221.79l.12.13c-7.15-3.39-22-10.45-36.27-21.79l-.27-.41a183.41,183.41,0,0,0,36.39,22l0,0Z"/><path class="cls-3" d="M71.29,198.55l.19.4c-14.73,0-37.46-.88-37.64-.89l-.49-.56c3.92.18,10.47.48,37.92,1l0,0Z"/><path class="cls-3" d="M29.59,194.42c-6.87-8-16.28-18.94-23.64-38.3l0-.2c4.27,10.15,9.59,22.79,23.62,38.49v0Z"/><path class="cls-3" d="M32.24,196.3c-.12-.12-10.66-13.52,21.22-39.68l.3.49C42,167.77,27.34,181,32.24,196.3Z"/><path class="cls-3" d="M4.47,149.9c-.06-.18-5.81-18.72,35.51-49.47,0,.16.09.37.14.53C25.26,112.8,4.91,129,4.47,149.9Z"/><path class="cls-3" d="M52.74,154.32c0,.15.05.34.08.49-16.65-.18-42.19-1.62-47.61-2.5L5,151.55c4.45.65,11.79,1.4,47.74,2.71v.06Z"/><path class="cls-3" d="M208.69,192.74c1.62-2.67,3-5,1.33-9.08l.44-.61c.82,2.81,1.53,5.24-1.27,9.08l-.5.62Z"/><path class="cls-3" d="M117.1,236.34h0Z"/><path class="cls-3" d="M114.07,236.3c-23.42-.66-33.18-8-37.87-11.54.11.05.27.1.38.16a41,41,0,0,1,3.84,2.82,34.06,34.06,0,0,0,9.23,4.44c9.52,2.9,12.48,3.4,24.42,4.12Z"/><path class="cls-3" d="M117.45,236.34a138,138,0,0,0,16.75-1.85,145.67,145.67,0,0,1-16.75,1.85Z"/><path class="cls-3" d="M42.13,94.37c-.15.1-.33.24-.47.35C38,82.71,32.46,64.56,39,44.16l.48-.3c-4,14.59-4.89,27.52,2.68,50.47l-.07,0Z"/><path class="cls-3" d="M43,37.69h-.2C49.56,29.52,58,19.35,76,9.85h.18C66.72,15.18,56,21.24,43,37.69Z"/><path class="cls-3" d="M75,35.46l-.37.31c-3.29-5.91-9.41-16.91,3.14-26.48l.56-.23C73.64,13,65.8,19.53,75.05,35.41l-.06,0Z"/><path class="cls-3" d="M42.18,41.09l.31-.44c4.46-.62,8.66-1.21,30.77-3-.12.25-.15.33-.23.55-16.84,1.37-22.33,1.93-30.84,2.89Z"/><path class="cls-3" d="M74,222c-.08,0-7.18-5.31-1-21.16a5.89,5.89,0,0,0,.52.4c-2.83,7.69-4.21,12.92.48,20.76Z"/><path class="cls-3" d="M115.9,236.32h.22c-8.49-.69-17.77-2.06-37.89-11.27l-.15-.19c12,5.46,24,10.45,37.79,11.45h0Z"/><path class="cls-3" d="M110.89,234.69l.15.1c-17-4.62-26.1-7.8-33.41-10.36l-.38-.3c7.25,2.56,16.28,5.74,33.62,10.55h0Z"/><path class="cls-3" d="M55,150.38l-.29.07a193,193,0,0,1-11.28-47.38l.58-.17a210,210,0,0,0,11.05,47.46Z"/><path class="cls-3" d="M45.2,94.17l-.52-.22c7.7-18.88,14-31.65,28.94-53.14l.25.11c-12.17,18.48-19,29.24-28.66,53.25Z"/><path class="cls-3" d="M109.41,108.41l-.35.19c-27.68-41.53-31.4-60.69-32.8-67.9l.56-.29c3.67,16.94,9,30.13,32.68,68l-.09,0Z"/><path class="cls-3" d="M107,111.48c0,.21-.08.49-.1.7-20.51-3.84-40.56-7.68-60.35-12.51.06-.23.12-.54.17-.77,10.39,2.48,24.63,5.88,60.3,12.48l0,.09Z"/><path class="cls-3" d="M78.39,34.56l-.31-.08C82.56,27.84,89.32,17.8,99.8,8.59l.15,0C94.46,13.87,88.23,19.8,78.39,34.56Z"/><path class="cls-3" d="M79.27,37.22c0-.16.1-.37.13-.54,15.14-3.41,30.36-6.49,45.51-9.9,0,.14.1.33.15.47-15.25,3.37-30.56,6.49-45.79,10Z"/><path class="cls-3" d="M59.29,152.55l-.32-.47c5.71-5.29,16.35-15.14,48.5-37,.09.16.22.37.31.52-38.11,27.48-38.11,27.48-48.49,37Z"/><path class="cls-3" d="M110.73,234.33c-3.79-2.15-15.33-8.68-34.24-32.33l.37-.16c5.66,6.93,20.68,25.35,33.88,32.49Z"/><path class="cls-3" d="M72.61,195.48l-.24,0c-5.44-10.16-9.17-17.69-15-36.4a3.32,3.32,0,0,0,.58-.08c4.24,13.34,6.83,21,14.75,36.45Z"/><path class="cls-3" d="M115.15,159.89c0,.11,0,.25,0,.35-4.42-.24-17.85-1-55-4.74a6.66,6.66,0,0,0-.08-.73c14,1.41,26.1,2.59,55.08,5v.09Z"/><path class="cls-3" d="M113.07,211.79,113,212c-2.86-.87-11.58-3.53-35.43-11.77a3.59,3.59,0,0,0-.08-.52c4.38,1.51,4.38,1.51,35.59,12l0,.05Z"/><path class="cls-3" d="M116.23,210.16l-.46,0c.36-7.66.62-13.2,3.18-45.38a5.7,5.7,0,0,0,.73,0c-1.68,20.43-2.69,32.76-3.44,45.36Z"/><path class="cls-3" d="M76,197.07l-.36-.35c5.69-7,13.47-15.43,40-33.91.09.14.22.31.32.44-20.33,14.89-30.53,22.36-40,33.82Z"/><path class="cls-3" d="M125.13,24.67c0,.08-.11.2-.15.29C110.36,16.62,105.43,13,102.06,8l.35-.24c3.63,5.26,8.36,8.48,22.75,16.84l0,0Z"/><path class="cls-3" d="M115.14,0c.8,0,1.6,0,2.41,0h-2.41Z"/><path class="cls-3" d="M101.2,6.41l-.26.18c-1.57-1.21-5.75-4.44,5.55-6,2.62-.36,5.44-.48,7.13-.55l.75,0C101.67.55,97,2.47,100.45,5.75c.22.21.56.44.79.63l0,0Z"/><path class="cls-3" d="M103.7,6.53c0-.05.06-.15.12-.18,1.06-.41,2.52-.82,3.61-1.16,9.2-2.89,11.73-3.82,12-4.79A4,4,0,0,0,118.23,0c1,.07,1,.14,1.4.49-.62,1-2.15,1.72-15.94,6Z"/><path class="cls-3" d="M117.12,236.34h0Z"/><path class="cls-3" d="M116.95,236.34c-.69,0-2.44-.15-2.45-.15a7.37,7.37,0,0,1-2.2-.82c.42.15.74.49,1.19.58a24.51,24.51,0,0,0,3.46.38Z"/><path class="cls-3" d="M188.66,24.2l.09.08c-.24-.18-.48-.35-.71-.54l.61.47Z"/><path class="cls-3" d="M119.15,0h0Z"/><path class="cls-3" d="M111.54,234.42c-.06,0-5.62-2.29,2.84-19.25a3.09,3.09,0,0,0,.43.19c-3,6.24-7,14.78-3.27,19.06Z"/><path class="cls-3" d="M117.49,236.34h-.26a5.84,5.84,0,0,0,.84-.08l0-.09a32.35,32.35,0,0,0-4.84-.91l-.17-.11c4.59.73,5,.86,5.23,1.07a3.49,3.49,0,0,1-.72.1Z"/><path class="cls-3" d="M128.57,23.84a3.66,3.66,0,0,0-.47-.15C129.29,16.1,131.51,2,119.38.15c6.07.62,12.59,5.23,9.19,23.69Z"/><path class="cls-3" d="M118.81,236.27c5.32-.52,9.81-2.16,15.33-4.64l0,.08c-6.3,2.62-9.47,3.93-15.34,4.56Z"/><path class="cls-3" d="M118.65,236.27h-.11c7.31-1.45,9.44-5.36-1.28-21a2.74,2.74,0,0,0,.39-.23c8.07,12.12,10.83,19.49,1,21.26Z"/><path class="cls-3" d="M118.57,211.86l-.14-.32c5.62-2.75,5.62-2.75,28.59-13.18,0,.11,0,.26,0,.38-9.45,4.47-19,8.69-28.48,13.12Z"/><path class="cls-3" d="M136.94,229.59l-.32.17c-1-3.42-3.1-6.94-18.38-15.32a2.48,2.48,0,0,0,.23-.4c9.31,5.24,17.73,10.38,18.53,15.52l-.05,0Z"/><path class="cls-3" d="M113.17,108.05l-.79-.15c10.26-45.77,13.72-61.19,15-78.73l.39.08c-1.16,18.17-3.74,29.81-14.59,78.8Z"/><path class="cls-3" d="M223.14,170.27c-2.29,3.39-4.1,6.08-11.58,11,.11-.2.13-.45.31-.62a30.54,30.54,0,0,1,3.7-2.59,28.6,28.6,0,0,0,7.93-8.49l-.35.73Z"/><path class="cls-3" d="M115.38,109.35l-.45-.41c32.9-36.57,32.9-36.57,42.11-50.63l.41.34c-8.63,13.81-17.28,24.24-42.07,50.7Z"/><path class="cls-3" d="M149.11,194.45c-.17.12-.28.2-.39.3-5.55-8-9.93-14.33-26.23-30.86a4.08,4.08,0,0,0,.55-.49c11.21,11.51,18.56,19.34,26.14,31l-.07,0Z"/><path class="cls-3" d="M183.14,166.31l-.12.34c-19.69-1.39-39.29-3.71-59-5.38,0-.21.06-.5.07-.71,24.12,2.06,40.67,3.58,59,5.67l0,.08Z"/><path class="cls-3" d="M119.24,156.23l-.57.08c-3.3-18.55-6.25-36.8-6.57-38.82a5.5,5.5,0,0,0,.8-.12c2.11,13,4.32,25.89,6.43,38.85Z"/><path class="cls-3" d="M186.18,116.91c0,.13,0,.29,0,.42-23.24-.74-46.4-2.71-69.61-4a5.61,5.61,0,0,0,0-.8c32.54,1.81,48.8,2.81,69.59,4.3v.08Z"/><path class="cls-3" d="M123.81,158.69c-.09-.19-.23-.45-.34-.63,28.17-15.4,45.64-25.58,63-38.47.08.22.19.5.28.71-15.82,11.48-28.67,19.75-62.93,38.39Z"/><path class="cls-3" d="M156.11,52.52a2.3,2.3,0,0,0-.3.35c-8.55-8.09-17.23-16-25.82-24.1a2.2,2.2,0,0,0,.33-.31c8.61,8,17.29,15.94,25.83,24l0,0Z"/><path class="cls-3" d="M129.35,24.27a3.59,3.59,0,0,0-.44-.27c4.27-8.18,7.09-14.89,1.49-20.48,1.14.39,3.71,3.41,3.5,7.47-.23,4.56-1.65,7.92-4.55,13.29Z"/><path class="cls-3" d="M130.66,26.16l-.12-.36C155.27,21,155.27,21,160.8,19.45l.35.32c-2.6.82-8.68,2.74-30.49,6.39Z"/><path class="cls-3" d="M198.49,44.58l-.26,0h0c-12.66-17.53-24.73-29.54-49-39,19.25,7.74,33.49,16.61,49.31,39.07Z"/><path class="cls-3" d="M200.93,46.34c-.16-.17-.38-.28-.49-.5-.54-1-.25-2.74-.36-3.92-.31-3.32-2.23-8.8-9.63-16a27.53,27.53,0,0,1,10.48,20.46Z"/><path class="cls-3" d="M162.11,17.75a3.45,3.45,0,0,1-.53-.3c-.78-.67-1.12-2.13-1.6-3C157.61,9.88,150.64,6.58,147.3,5a37.47,37.47,0,0,1,8.11,4.38c4.27,3.68,4.41,3.94,6.7,8.38Z"/><path class="cls-3" d="M159.17,17.19s0,.1,0,.14C148.37,11.13,142.52,8,131.84,3.64l-.09-.11a183.89,183.89,0,0,1,27.43,13.64v0Z"/><path class="cls-3" d="M187.32,162.72h0l-.47,0c2-12.39,3.44-21.34,2.89-40.42h0a3.19,3.19,0,0,0,.58-.06c.17,12.7.31,22.73-3,40.43h0Z"/><path class="cls-3" d="M143.27,3.74l.46.14A218,218,0,0,0,118.64.05l-.33,0A204.57,204.57,0,0,1,143.2,3.72l.07,0Z"/><path class="cls-3" d="M127.05,1.87l0,0c-2.22-.62-5.21-1.36-7.48-1.75l-.11,0c2.29.41,5.32,1.09,7.56,1.73Z"/><path class="cls-3" d="M144.19,4l.57.18c-2.61-.29-5.87-.65-14.13-1.32l-.39-.17c3.43.28,9.16.75,13.87,1.29l.08,0Z"/><path class="cls-3" d="M197.59,45.17c0,.05,0,.12,0,.18a251.43,251.43,0,0,0-32-24,1.9,1.9,0,0,0,0-.27,233.81,233.81,0,0,1,32,24v0Z"/><path class="cls-3" d="M160.68,52.79a5,5,0,0,0-.56-.38c3.13-8.25,7.41-19.56,2.93-31.28.09,0,6.83,9.3-2.38,31.66Z"/><path class="cls-3" d="M193.29,117.23a7.67,7.67,0,0,0-.07-.8c11.74-2.35,14.51-3,22.81-5.12,0,.36,0,.46.08.8-8.33,2.14-11,2.76-22.82,5.12Z"/><path class="cls-3" d="M188.5,112.91l-.28.14c-7.09-17.61-11.77-29.24-27.08-53.7l.49-.24c9.39,15.1,18.52,30.57,26.94,53.77l-.07,0Z"/><path class="cls-3" d="M162.5,55.5c0-.15-.12-.34-.17-.49,30.78-5.21,30.78-5.21,36.55-6.74l.41.61c-6.49,1.64-14.68,3.51-36.79,6.63Z"/><path class="cls-3" d="M192,113.64c-.15-.14-.35-.31-.5-.43,10-23.14,14.78-40.73,9.84-62.15.14.1,10.25,18.31-9.34,62.58Z"/><path class="cls-3" d="M138.65,228.94l-.16,0c4.32-4.7,10.23-11.13,11.48-28.67a4.58,4.58,0,0,0,.54-.16c-.92,8-2.31,20.21-11.82,28.78Z"/><path class="cls-3" d="M153.63,194.85c0-.09-.11-.22-.17-.31,19.39-15.85,20.14-16.47,29.41-24.89,0,.11.11.26.17.37-7.28,6.73-12.09,11.18-29.4,24.83Z"/><path class="cls-3" d="M182.41,211.16l-.43.34c-2.45-2.6-6.15-6.52-29-13.35a5.45,5.45,0,0,0,.31-.55c8.77,2.7,25.1,7.72,29.18,13.5l-.07.05Z"/><path class="cls-3" d="M136.34,234l-.55.13c.52-.29,1.4-.59,1.6-1.14.35-1,.36-1-.43-2l.45-.23c.3.4.89,1,.74,1.49-.27.89-.37,1-1.73,1.76l-.08,0Z"/><path class="cls-3" d="M138.87,229.79c1.23-1,3.5-1.31,5-1.84a302.53,302.53,0,0,0,36.24-14.81s-10.65,6.45-41.25,16.65Z"/><path class="cls-3" d="M186,209.24l-.1-.06c8.87-8.21,12.54-11.61,21.14-23.3l.1.06c-7,9.27-10.14,13.51-21.14,23.3Z"/><path class="cls-3" d="M184.36,209.78,184,210c6.75-11.22,9.24-20.88,3.08-39.77a5.63,5.63,0,0,0,.53-.46c4.72,15.32,5.61,26.23-3.17,40l-.06,0Z"/><path class="cls-3" d="M183.29,20.33l2.85,2-4-2.78,1.12.75Z"/><path class="cls-3" d="M186,22.41l.34.27c-12-7.64-19.81-11.75-37.48-17.45l-.4-.16c16.37,5.24,24.43,9,37.49,17.3l0,0Z"/><path class="cls-3" d="M225.51,81c0,.11,0,.26,0,.38-5.52-9.84-9.17-16.34-21.94-30.1a3,3,0,0,0,0-.36c9,9.86,14.41,16.11,21.95,30v0Z"/><path class="cls-3" d="M218.44,106.33l-.31,0c-1.37-14.14-3.06-31.74-15.5-54.49l.3,0c5.78,11.12,13.69,26.35,15.52,54.5Z"/><path class="cls-3" d="M189.15,163.68a4.48,4.48,0,0,0-.32-.39c11.38-14.64,20.67-27.5,28.15-48.51.1.14.24.33.35.46-4.4,11.64-9.38,24.83-28.17,48.45Z"/><path class="cls-3" d="M212.26,178.53l-.08-.1c5.79-9.85,8.7-14.8,12.66-25.36l.1.11c-3.92,9.73-6.08,15.08-12.68,25.35Z"/><path class="cls-3" d="M209,180.89l-.31.46c-4.47-4.5-7.72-7.08-20.12-12.92a7.34,7.34,0,0,0,.33-.66c10.8,5.14,15.46,7.88,20.15,13.05l-.05.07Z"/><path class="cls-3" d="M189.45,166.15a5.83,5.83,0,0,0,.08-.69c15.82-5.54,25.63-9.5,35.34-15.82q-.06.28-.11.55c-6.26,4.26-12.83,8.13-35.31,15.95Z"/><path class="cls-3" d="M220.21,108.5a5.9,5.9,0,0,0-.26-.65c4.3-8.63,5.6-11.53,7-20.67,0,0,1.54,5.19-6.72,21.31Z"/><path class="cls-3" d="M226.56,145.05l-.22.34c-.65-8.63-1.27-16.78-6.5-30.28a3.49,3.49,0,0,0,.29-.49c3.17,9.13,6.16,17.75,6.46,30.37l0,.05Z"/><path class="cls-3" d="M139.27,233.42c10.39-3.15,22.17-6.72,39.79-18.93-8.52,5.76-20.2,13.66-39.79,18.93Z"/><path class="cls-3" d="M193.83,208c-1.92,1.2-3.18,2-9.95,3.86.18-.15.3-.37.53-.46a28.88,28.88,0,0,1,2.9-.82,23,23,0,0,0,7.1-3.08l-.58.5Z"/><path class="cls-3" d="M162.56,227.24c8.07-3.72,13.74-6.68,18.83-13.56l.57-.38c-3.25,4.14-6.32,8.06-18.56,13.59l-.84.36Z"/><path class="cls-3" d="M193.91,28.45l-2.07-1.69-.38-.32,1.6,1.3.84.72Z"/><path class="cls-3" d="M226.32,80.61c-2.13-1.64-2-5.94-2.82-8.51-2.26-7.23-9.83-26.09-31.31-44.91,12.89,11.75,26.15,25.55,34.13,53.42Z"/><path class="cls-3" d="M225.61,71.41c1.83,5.85,1.94,6.2,2,11.45a3.57,3.57,0,0,1-.27-.64,32.56,32.56,0,0,1-.16-4.39c-.08-2.24-1.16-5.11-1.9-7.22l.35.81Z"/><path class="cls-3" d="M136.57,1.6c2.51.46,6.29,1.16,8.6,2.41-1.17-.34-2.24-.93-3.42-1.25a53.87,53.87,0,0,0-6-1.29l.8.13Z"/><path class="cls-3" d="M150.78,4.89a34.4,34.4,0,0,0-4.45-.53l-.68-.2a35.17,35.17,0,0,1,4.39.52l.74.22Z"/><path class="cls-3" d="M227.65,159.88c.7-3.53,1.05-5.3-.6-9.2q.13-.35.25-.71c1.17,3.64,1.76,5.47.63,9.15l-.28.76Z"/><path class="cls-3" d="M127.94,235.85c3.43-.35,5.68-.68,7-1.34l.67-.14c-1,.49-2.11.9-6.89,1.41l-.8.08Z"/><path class="cls-3" d="M154.28,230.35c-4.11,1.23-7.79,2.22-17.73,3.81C142.69,232.74,149,232,155,230.1l-.75.25Z"/><path class="cls-3" d="M227.73,144.35c3.7-20.41,4.87-31.79.51-55.14,3.67,18.31,4.53,31.23-.51,55.14Z"/><path class="cls-3" d="M232.1,91c-1.41-2.84-1.43-2.89-3.51-4.82q-.08-.37-.18-.73c2.68,2.78,2.79,2.89,3.5,4.77l.19.78Z"/><path class="cls-3" d="M235.2,121.59c-1.17,10.55-1.8,13.32-7.09,24.51a2.44,2.44,0,0,1,0-.57c.54-1.93,2-4.23,2.84-6a55,55,0,0,0,4.27-19q0,.54,0,1.07Z"/><path class="cls-3" d="M5.08,151.86c.36,1.24,1.17,4.16.8,4.35-.69-.23-3.15-8.55-2.63-8.9.35.12,1,1.82,1.83,4.55Z"/><path class="cls-3" d="M74,227.93c1.2.49,2.44.87,3.6,1.47A61.48,61.48,0,0,1,69.15,226h0c.08,0,.08,0,4.84,2Z"/><path class="cls-3" d="M5.91,92.28h0c-.89,4.09-2,5-2.29,4.42-.81-1.45,1-8.82,2.26-9,.28,0,.85.54,0,4.51Z"/><path class="cls-3" d="M117.1,236.34c-2.52,0-4.44-.09-4.46-.09l4.46.09Z"/><path class="cls-3" d="M33.59,197.77c2.05,2.36,2.4,3.22,2,3.24-1.12.07-6.68-6.09-6-6.66a.15.15,0,0,1,.1,0c.58.06,2.06,1.38,3.86,3.45Z"/><path class="cls-3" d="M115.48,0c-1.85,0-3,.08-4.63.16,0,0,2.49-.17,6.25-.17h-1.62Z"/><path class="cls-3" d="M80.51,8.1c-2.87,1.32-4.43,1.9-4.63,1.71,0-.61,6.38-3.25,7.57-3.32h.05l0,0c-.09.13-.41.36-3,1.56Z"/><path class="cls-3" d="M42.2,41.06c-2.57,3.5-4.76,4-4.92,3-.24-1.6,3.67-6.32,5.69-6.35,1.14,0,.4,1.78-.77,3.38Z"/><path class="cls-3" d="M76.29,223.44c2.36,1.62,2.06,1.86,1.83,1.9-1.37.18-7.28-3.41-6.73-4.09.06-.07.18-.08.27-.08.91.06,2.6.89,4.63,2.28Z"/><path class="cls-3" d="M46.82,98.5c-.52,4.7-4.46,5.77-6.17,3.5s-.5-8,3.22-8.17c1.72,0,3.3,1.49,2.95,4.67Z"/><path class="cls-3" d="M60.08,154.75c.66,4.27-2.9,5.32-5.27,3.49-2.8-2.17-3-7.5.49-7.9l.37,0a4.89,4.89,0,0,1,4.41,4.43Z"/><path class="cls-3" d="M117.1,236.34c-.94,0-1.55,0-1.55,0h0c.52,0,1,0,1.55,0Z"/><path class="cls-3" d="M77.24,199c1.07,2.62-.67,3.74-2.85,2.8-2.6-1.11-4.66-5.13-2.58-6.1a2.31,2.31,0,0,1,.95-.19A5.4,5.4,0,0,1,77.24,199Z"/><path class="cls-3" d="M78.9,38.14c-1.65,3.26-5.31,3.67-6,1.87-.6-1.6,1.46-5.4,4.71-5.57,1.81,0,2.35,1.57,1.27,3.7Z"/><path class="cls-3" d="M103.19,7.12C101.47,8.84,99.49,9,99.54,8.2s2.48-2.62,4-2.67c.91,0,.43.84-.31,1.59Z"/><path class="cls-3" d="M112.9,235.09c.73.44.74.51.75.55-.2.29-3-.84-3-1.22,0-.08.08-.12.25-.12a5,5,0,0,1,2,.79Z"/><path class="cls-3" d="M116.59,112.74c-.07,4.92-5.76,5.94-8.32,3.41a4.85,4.85,0,0,1,3.48-8.28,4.64,4.64,0,0,1,4.84,4.87Z"/><path class="cls-3" d="M118.72,213.07c-.21,2.62-3.57,3.24-5.1,1.5a2.64,2.64,0,0,1,2.15-4.44,2.71,2.71,0,0,1,3,2.94Z"/><path class="cls-3" d="M124.14,160.55c-.2,4.58-5.61,5.29-8,2.84a4.34,4.34,0,0,1,3.51-7.18c3.09.08,4.58,2.24,4.45,4.34Z"/><path class="cls-3" d="M130.78,26.7c.36,2.77-3,3.25-4.77,1.8s-1.62-4.64,1-4.9l.32,0a3.56,3.56,0,0,1,3.5,3.12Z"/><path class="cls-3" d="M153.5,197.15c-1.29,3.33-5.35,4.24-6.3,2.07-.75-1.7.82-5.42,4.32-5.56,2.42.1,2.58,1.94,2,3.49Z"/><path class="cls-3" d="M117.83,0a12.62,12.62,0,0,1,1.85.16l-.27,0L118.31,0c-.53,0-.92,0-1.21,0h.73Z"/><path class="cls-3" d="M117.1,236.34c.63,0,1.25-.07,1.88-.09a15.64,15.64,0,0,1-1.87.09Z"/><path class="cls-3" d="M162.63,55.95c.74,3.32-2.41,4.52-5,2.8s-3.2-6.12-.35-6.83a3.7,3.7,0,0,1,.77-.09,5,5,0,0,1,4.61,4.12Z"/><path class="cls-3" d="M130.3,2.74c1.3.55,1.74.94,1.49,1-.09,0-.5.11-2-.51A14.75,14.75,0,0,1,127,1.84s0,0,.12,0a12.52,12.52,0,0,1,3.14.93Z"/><path class="cls-3" d="M137.87,230.46c-1.78,1-3.9,1.68-3.72,1.14s3.41-2.68,4.91-2.71c.72,0,.22.54.05.7a7.19,7.19,0,0,1-1.25.87Z"/><path class="cls-3" d="M193.28,118c-.16,2.56-1.58,4.3-3.54,4.32h0c-4.13-.16-4.42-6.86-2.06-8.91a3.09,3.09,0,0,1,2-.78c2.29.09,3.76,2.3,3.57,5.37Z"/><path class="cls-3" d="M189.22,167c-1.33,4.14-5.14,5-6.22,2.92s1-7.2,4.31-7.24h0c1.94.08,2.71,1.82,1.9,4.32Z"/><path class="cls-3" d="M164.43,19.54c1.54,1.49,1.46,2.27.59,2.27-1.9,0-6.63-4-5.75-4.85a.65.65,0,0,1,.43-.13c1.35.08,3.4,1.42,4.74,2.71Z"/><path class="cls-3" d="M135.89,234.31c-2.18.48-4,.76-4.31.77.16-.1,7.4-1.72,7.75-1.74h0a19.75,19.75,0,0,1-3.48,1Z"/><path class="cls-3" d="M220.68,111.62c0,3.67-1.75,5.13-3.21,3.76-2.08-2-2.14-9,.61-9.1,1.49.05,2.59,2.3,2.6,5.34Z"/><path class="cls-3" d="M202.61,48.58c1.44,2.36,1.14,3.48,0,3.21-2.18-.54-6.06-6.37-4.77-7.17a.73.73,0,0,1,.33-.09h0c1.14,0,3,1.78,4.41,4Z"/><path class="cls-3" d="M145.89,4.23a20.77,20.77,0,0,1,3.47,1.25l0,0c-.59,0-7.87-2.3-8.11-2.45h0a39.25,39.25,0,0,1,4.65,1.17Z"/><path class="cls-3" d="M183.44,212.18c-2.37,1.92-4.39,2.89-4.38,2.34,0-.85,5.2-5.23,6.75-5.36.55,0,.08.82-1.16,2-.44.41-.9.79-1.21,1Z"/><path class="cls-3" d="M210.94,182.32c-1.88,3-3.82,4.36-4,3.28-.29-1.51,3.25-7.11,5-7.26.85,0,.45,1.68-1,4Z"/><path class="cls-3" d="M227.6,149c-1,3.62-2.29,4.85-2.76,4.1-.85-1.33,1-8.59,2.67-8.78.77.08.81,2,.09,4.69Z"/><path class="cls-3" d="M228.26,84.87c.89,3.14.71,4.78,0,4.34-1.51-.91-3.58-8.49-2.41-8.82h.07c.65.05,1.62,1.9,2.36,4.49Z"/><path class="cls-3" d="M189.43,24.8a31,31,0,0,1,3,2.54c-.31-.12-7.08-5.34-7.17-5.53a46.81,46.81,0,0,1,4.15,3Z"/></g></g></g></svg>