<svg xmlns="http://www.w3.org/2000/svg" viewBox="0 0 258.05 350.41"><defs><style>.cls-1{isolation:isolate;}.cls-2{fill:#a1dbff;}.cls-3{fill:#9b948d;}.cls-4{fill:#e9e1d5;}.cls-5{fill:#cfc5b8;}.cls-6,.cls-7{fill:#133248;}.cls-7{opacity:0.5;mix-blend-mode:multiply;}.cls-8{fill:#fdb487;}.cls-9{fill:#011b2e;}.cls-10,.cls-15{fill:#fff;}.cls-11{fill:#0ec8d4;}.cls-12{fill:#0ca1c1;}.cls-13{fill:#f48568;}.cls-14{fill:#fdd462;}.cls-15,.cls-19{opacity:0.3;}.cls-16{fill:#f37e00;}.cls-17{fill:#f7a219;}.cls-18{fill:#fbe6a1;opacity:0.2;}.cls-20{fill:#50a4ff;}</style></defs><title>receive</title><g class="cls-1"><g id="Capa_2" data-name="Capa 2"><g id="OBJECTS"><path class="cls-2" d="M209.52,244.33l2.24-1.4h0a0,0,0,0,1,0,0h0Z"/><path class="cls-2" d="M214,241.46l2.14-1.54a0,0,0,1,1,0,.05h0L214,241.5h0A0,0,0,0,1,214,241.46Z"/><path class="cls-2" d="M218.19,238.31l2-1.68a.06.06,0,1,1,.07.08h0l-2,1.67a0,0,0,0,1-.06,0A0,0,0,0,1,218.19,238.31Z"/><path class="cls-2" d="M222.19,234.87,224.1,233a.08.08,0,0,1,.11.11h0L222.28,235a.07.07,0,0,1-.1,0A.07.07,0,0,1,222.19,234.87Z"/><path class="cls-2" d="M225.95,231.16l1.78-1.95a.1.1,0,0,1,.15.13h0l-1.8,1.94a.09.09,0,0,1-.13,0A.09.09,0,0,1,225.95,231.16Z"/><path class="cls-2" d="M229.44,227.21l1.64-2.07a.12.12,0,1,1,.2.15h0l-1.66,2.06a.11.11,0,0,1-.16,0A.12.12,0,0,1,229.44,227.21Z"/><path class="cls-2" d="M232.64,223l1.49-2.17a.15.15,0,1,1,.25.16h0l-1.52,2.17a.13.13,0,0,1-.19,0A.14.14,0,0,1,232.64,223Z"/><path class="cls-2" d="M235.55,218.62l1.34-2.27h0a.17.17,0,1,1,.29.17h0l-1.37,2.27a.16.16,0,0,1-.27-.16Z"/><path class="cls-2" d="M238.16,214l1.19-2.35h0a.19.19,0,1,1,.34.17h0l-1.21,2.35a.18.18,0,0,1-.32-.16Z"/><path class="cls-2" d="M240.46,209.3l1-2.42h0a.21.21,0,0,1,.39.17h0l-1.06,2.43a.2.2,0,0,1-.37-.16Z"/><path class="cls-2" d="M242.45,204.42l.88-2.48h0a.24.24,0,0,1,.44.16h0l-.9,2.49a.22.22,0,0,1-.42-.15Z"/><path class="cls-2" d="M244.12,199.43l.72-2.53h0a.26.26,0,1,1,.5.14h0l-.75,2.54a.25.25,0,0,1-.47-.14Z"/><path class="cls-2" d="M245.5,194.35l.58-2.57h0a.27.27,0,0,1,.53.12h0l-.59,2.58a.27.27,0,1,1-.52-.12Z"/><path class="cls-2" d="M246.58,189.19l.43-2.6h0a.28.28,0,1,1,.55.09h0l-.44,2.61a.27.27,0,0,1-.54-.09Z"/><path class="cls-2" d="M247.36,184l.28-2.62h0a.29.29,0,0,1,.57.06h0l-.29,2.63a.28.28,0,1,1-.56-.06Z"/><path class="cls-2" d="M247.84,178.74l.13-2.63h0a.29.29,0,1,1,.58,0h0l-.14,2.65a.29.29,0,0,1-.58,0Z"/><path class="cls-2" d="M248,173.48v-2.63h0a.3.3,0,1,1,.6,0h0v2.65a.3.3,0,0,1-.59,0Z"/><path class="cls-2" d="M247.94,168.22l-.16-2.63h0a.31.31,0,0,1,.62,0h0l.15,2.65a.3.3,0,1,1-.61,0Z"/><path class="cls-2" d="M247.56,163l-.3-2.62h0a.32.32,0,1,1,.63-.07h0l.29,2.63a.31.31,0,1,1-.62.07Z"/><path class="cls-2" d="M246.89,157.74l-.44-2.6h0a.32.32,0,0,1,.64-.11h0l.43,2.61a.32.32,0,1,1-.63.1Z"/><path class="cls-2" d="M245.95,152.57l-.58-2.57h0a.33.33,0,1,1,.65-.15h0l.57,2.59a.33.33,0,0,1-.64.14Z"/><path class="cls-2" d="M244.72,147.45l-.72-2.53h0a.34.34,0,1,1,.65-.18h0l.71,2.55a.34.34,0,1,1-.65.18Z"/><path class="cls-2" d="M243.22,142.4l-.86-2.49h0a.35.35,0,0,1,.66-.23h0l.85,2.51a.34.34,0,0,1-.65.22Z"/><path class="cls-2" d="M241.44,137.45l-1-2.44h0a.35.35,0,0,1,.66-.27h0l1,2.46a.35.35,0,0,1-.65.26Z"/><path class="cls-2" d="M239.38,132.61l-1.13-2.37h0a.36.36,0,1,1,.65-.31h0l1.14,2.4a.36.36,0,0,1-.65.31Z"/><path class="cls-2" d="M237,127.9l-1.27-2.3h0a.37.37,0,1,1,.65-.36h0l1.28,2.32a.37.37,0,1,1-.64.35Z"/><path class="cls-2" d="M234.43,123.34,233,121.12h0a.38.38,0,0,1,.64-.41h0l1.42,2.24a.37.37,0,1,1-.63.4Z"/><path class="cls-2" d="M231.53,118.95,230,116.83h0a.39.39,0,0,1,.62-.46h0l1.56,2.15a.38.38,0,1,1-.62.45Z"/><path class="cls-2" d="M228.35,114.76l-1.69-2h0a.39.39,0,1,1,.6-.51h0l1.7,2a.39.39,0,1,1-.6.5Z"/><path class="cls-2" d="M224.91,110.8l-1.83-1.89h0a.4.4,0,1,1,.58-.56h0l1.84,1.91a.4.4,0,0,1-.57.55Z"/><path class="cls-2" d="M221.19,107.08l-2-1.75h0a.41.41,0,0,1,.55-.61h0l2,1.78a.4.4,0,0,1-.54.6Z"/><path class="cls-2" d="M217.21,103.65l-2.08-1.6h0a.42.42,0,0,1,.51-.66h0l2.1,1.63a.41.41,0,0,1-.51.65Z"/><path class="cls-2" d="M213,100.52l-2.18-1.46h0a.42.42,0,1,1,.47-.7h0l2.2,1.48a.42.42,0,1,1-.47.7Z"/><path class="cls-2" d="M208.53,97.62l-2.26-1.35h0a.43.43,0,1,1,.44-.74h0L209,96.89a.43.43,0,0,1-.44.73Z"/><path class="cls-2" d="M204,95l-2.32-1.25h0a.44.44,0,0,1,.42-.78h0l2.33,1.26A.44.44,0,0,1,204,95Z"/><path class="cls-2" d="M199.31,92.53l-2.37-1.16h0a.45.45,0,1,1,.39-.8h0l2.38,1.17a.44.44,0,1,1-.39.8Z"/><path class="cls-2" d="M194.56,90.25l-2.4-1.08h0a.46.46,0,1,1,.37-.83h0l2.41,1.09a.45.45,0,0,1-.37.82Z"/><path class="cls-2" d="M189.75,88.12l-2.43-1h0a.46.46,0,1,1,.36-.86h0l2.44,1a.46.46,0,0,1-.36.85Z"/><path class="cls-2" d="M184.87,86.12l-2.46-1h0a.47.47,0,1,1,.34-.88h0l2.46,1a.47.47,0,0,1-.34.87Z"/><path class="cls-2" d="M179.95,84.23l-2.48-.91a.48.48,0,1,1,.32-.9h0l2.48.92a.48.48,0,1,1-.33.89Z"/><path class="cls-2" d="M175,82.43l-2.49-.87a.49.49,0,0,1,.31-.92h0l2.5.88a.48.48,0,1,1-.32.91Z"/><path class="cls-2" d="M170,80.71l-2.5-.83a.49.49,0,0,1,.31-.94h0l2.51.84a.49.49,0,1,1-.31.93Z"/><path class="cls-2" d="M165,79.07l-2.51-.8a.5.5,0,1,1,.3-1h0l2.52.81a.5.5,0,1,1-.31.95Z"/><path class="cls-2" d="M160,77.48l-2.52-.78a.51.51,0,1,1,.3-1h0l2.52.78a.51.51,0,1,1-.3,1Z"/><path class="cls-2" d="M154.91,75.94l-2.53-.76a.52.52,0,0,1,.29-1h0l2.53.76a.51.51,0,1,1-.3,1Z"/><path class="cls-2" d="M149.85,74.44l-2.53-.74a.53.53,0,0,1,.29-1h0l2.53.75a.52.52,0,0,1-.3,1Z"/><path class="cls-2" d="M144.78,73l-2.54-.74a.52.52,0,0,1,.29-1l2.54.73a.53.53,0,1,1-.29,1Z"/><path class="cls-2" d="M139.71,71.49l-2.54-.73a.51.51,0,0,1,.28-1l2.54.72a.52.52,0,0,1-.28,1Z"/><path class="cls-2" d="M134.63,70l-2.54-.73a.51.51,0,0,1,.28-1l2.54.72a.51.51,0,0,1-.28,1Z"/><path class="cls-2" d="M129.56,68.57,127,67.83a.5.5,0,0,1,.28-1l2.54.73a.5.5,0,1,1-.28,1Z"/><path class="cls-2" d="M124.48,67.09l-2.53-.75a.49.49,0,1,1,.28-.94l2.53.74a.49.49,0,1,1-.27,1Z"/><path class="cls-2" d="M119.42,65.59l-2.53-.77a.48.48,0,1,1,.28-.92l2.53.76a.49.49,0,1,1-.28.93Z"/><path class="cls-2" d="M114.36,64l-2.52-.79a.47.47,0,1,1,.29-.9l2.52.79a.48.48,0,1,1-.28.92Z"/><path class="cls-2" d="M109.32,62.44l-2.51-.83a.47.47,0,1,1,.3-.88l2.5.82a.47.47,0,1,1-.29.9Z"/><path class="cls-2" d="M104.31,60.74l-2.49-.89a.46.46,0,1,1,.31-.86h0l2.49.88h0a.46.46,0,1,1-.31.87Z"/><path class="cls-2" d="M99.33,58.93l-2.47-1a.45.45,0,1,1,.33-.84h0l2.46.95h0a.45.45,0,1,1-.33.85Z"/><path class="cls-2" d="M94.41,57,92,55.9a.44.44,0,1,1,.36-.81h0l2.41,1h0a.45.45,0,1,1-.36.82Z"/><path class="cls-2" d="M89.58,54.77l-2.37-1.21a.44.44,0,1,1,.4-.77h0L90,54h0a.44.44,0,1,1-.4.78Z"/><path class="cls-2" d="M84.9,52.25l-2.25-1.43a.43.43,0,1,1,.46-.72h0l2.22,1.39h0a.43.43,0,1,1-.46.73Z"/><path class="cls-2" d="M80.48,49.25c-.7-.55-1.38-1.14-2-1.76a.42.42,0,0,1,.58-.61c.63.6,1.29,1.16,2,1.7a.42.42,0,0,1-.52.67Z"/><path class="cls-2" d="M76.64,45.51a15.6,15.6,0,0,1-1.51-2.25.41.41,0,0,1,.72-.39A14.77,14.77,0,0,0,77.29,45a.42.42,0,0,1-.65.52Z"/><path class="cls-2" d="M74.08,40.74a12.51,12.51,0,0,1-.45-2.68h0a.4.4,0,0,1,.8-.06,11.67,11.67,0,0,0,.43,2.52.41.41,0,1,1-.78.23h0Z"/><path class="cls-2" d="M73.56,35.38a25.3,25.3,0,0,1,.2-2.68.4.4,0,0,1,.78.1,24.51,24.51,0,0,0-.18,2.59.4.4,0,1,1-.8,0Z"/><path class="cls-2" d="M74.25,30.06A24,24,0,0,1,75,27.5a.39.39,0,0,1,.73.26A23.23,23.23,0,0,0,75,30.25a.39.39,0,0,1-.76-.18Z"/><path class="cls-2" d="M76.08,25a26.07,26.07,0,0,1,1.31-2.34.38.38,0,0,1,.64.4,25.31,25.31,0,0,0-1.27,2.27.38.38,0,0,1-.69-.34Z"/><path class="cls-2" d="M78.92,20.5q.82-1.06,1.72-2a.37.37,0,0,1,.55.5q-.88,1-1.67,2a.38.38,0,1,1-.6-.46Z"/><path class="cls-2" d="M82.52,16.56q1-.91,2-1.75a.36.36,0,0,1,.46.56q-1,.83-2,1.73a.37.37,0,1,1-.5-.53Z"/><path class="cls-2" d="M86.64,13.18l2.2-1.5a.36.36,0,1,1,.4.59h0l-2.16,1.48h0a.36.36,0,1,1-.41-.59Z"/><path class="cls-2" d="M91.11,10.3,93.43,9a.35.35,0,1,1,.34.61h0l-2.3,1.27h0a.35.35,0,1,1-.34-.61Z"/><path class="cls-2" d="M95.81,7.83l2.42-1.1a.34.34,0,1,1,.28.62h0L96.1,8.45h0a.34.34,0,1,1-.29-.62Z"/><path class="cls-2" d="M100.67,5.72l2.48-.94a.33.33,0,1,1,.24.62h0l-2.46.94h0a.34.34,0,1,1-.24-.63Z"/><path class="cls-2" d="M105.66,3.91l2.53-.8a.32.32,0,0,1,.2.62h0l-2.51.8h0a.33.33,0,0,1-.2-.62Z"/><path class="cls-2" d="M110.73,2.38l2.56-.67a.32.32,0,1,1,.16.61h0L110.9,3h0a.32.32,0,1,1-.16-.62Z"/><path class="cls-2" d="M115.87,1.09l2.59-.55a.31.31,0,0,1,.13.6h0L116,1.7h0a.31.31,0,0,1-.13-.61Z"/><path class="cls-2" d="M121.07.08l.47-.07h0l2.18,0a.3.3,0,0,1,0,.6h0l-2.16,0h0l-.46.07a.3.3,0,1,1-.1-.6Z"/><path class="cls-2" d="M126.41.14,129,.3a.29.29,0,1,1,0,.58h0L126.38.73h0a.3.3,0,0,1,0-.59Z"/><path class="cls-2" d="M131.68.51l2.63.25a.28.28,0,0,1,.26.31.29.29,0,0,1-.31.26l-2.63-.24a.29.29,0,1,1,0-.57Z"/><path class="cls-2" d="M136.94,1l2.62.32a.28.28,0,1,1-.07.55l-2.62-.32a.28.28,0,0,1,.06-.56Z"/><path class="cls-2" d="M142.19,1.73l2.61.39a.27.27,0,1,1-.08.53l-2.61-.38a.27.27,0,0,1,.07-.54Z"/><path class="cls-2" d="M147.41,2.55,150,3a.25.25,0,0,1,.2.29.26.26,0,0,1-.29.2l-2.6-.44a.26.26,0,1,1,.08-.52Z"/><path class="cls-2" d="M152.61,3.52,155.2,4a.23.23,0,0,1,.18.27.23.23,0,0,1-.27.18L152.52,4a.24.24,0,1,1,.09-.48Z"/><path class="cls-2" d="M157.78,4.61l2.58.59a.21.21,0,0,1,.16.25.21.21,0,0,1-.25.16L157.69,5a.22.22,0,1,1,.09-.43Z"/><path class="cls-2" d="M162.93,5.82l2.56.65a.18.18,0,0,1,.13.22.19.19,0,0,1-.22.13l-2.56-.63a.2.2,0,0,1,.09-.38Z"/><path class="cls-2" d="M168,7.16l2.54.72a.16.16,0,0,1,.11.2.16.16,0,0,1-.2.11l-2.55-.69a.17.17,0,1,1,.09-.33Z"/><path class="cls-2" d="M173.12,8.62l2.53.78a.14.14,0,0,1,.09.17.14.14,0,0,1-.17.09L173,8.91a.15.15,0,0,1,.08-.29Z"/><path class="cls-2" d="M178.16,10.21l2.51.84a.12.12,0,0,1,.07.15.12.12,0,0,1-.15.07l-2.51-.81a.13.13,0,1,1,.08-.24Z"/><path class="cls-2" d="M183.16,11.91l2.49.9a.09.09,0,0,1,.06.12.09.09,0,0,1-.12.06l-2.49-.87a.1.1,0,0,1,.07-.2Z"/><path class="cls-2" d="M188.12,13.73l2.46,1a.07.07,0,0,1,0,.09.07.07,0,0,1-.09,0l-2.47-.93a.08.08,0,0,1,.06-.15Z"/><path class="cls-2" d="M193,15.68l2.44,1a0,0,0,0,1,0,.06,0,0,0,0,1-.06,0l-2.45-1a.06.06,0,1,1,0-.11Z"/><path class="cls-2" d="M197.9,17.74l2.41,1.08a0,0,0,0,1,0,0h0l-2.42-1.06a0,0,0,1,1,0-.06Z"/><path class="cls-2" d="M202.71,19.93l2.38,1.14h0l-2.39-1.12a0,0,0,0,1,0,0h0Z"/><path class="cls-3" d="M25,74s78.28-6.87,144.21.87c0,0-28,13.89-68.47,13.89C41.36,88.81,25,74,25,74Z"/><path class="cls-4" d="M194.18,254.86c0,31-10.7,51.78-25,65.59l0,0c-24.59,23.76-59.75,27-69.16,26.69-1.55,0-3.1-.07-4.65-.07-13.91,0-87.45-3.5-94.8-82.23-8.26-88.52,76.5-141.09,76.5-141.09h41.11S194.18,165.85,194.18,254.86Z"/><path class="cls-5" d="M169.17,320.47c-24.59,23.76-59.75,27-69.16,26.69-1.55,0-3.1-.07-4.65-.07-13.91,0-87.45-3.5-94.8-82.23-8.26-88.52,76.5-141.09,76.5-141.09H96.82S31.24,182.5,41.68,251.53,142.61,346,169.17,320.47Z"/><path class="cls-4" d="M169.2,74.91l-29.27,29.27h0l-3.11,3.11L126.07,118H69L25,74c12.74,2.15,25.45,4,38.13,5.27q4.25.44,8.49.8C104.39,82.92,136.94,82.1,169.2,74.91Z"/><path class="cls-5" d="M93.36,118H69L25,74c12.74,2.15,25.45,4,38.13,5.27q4.25.44,8.49.8h0S67.4,88,81.19,99.07A33.42,33.42,0,0,1,93.36,118Z"/><path class="cls-3" d="M110.08,273.1v13.13H93.41V273.71c-11.83-.7-23.31-3.88-30.42-8.26l9-20.36a56.82,56.82,0,0,0,27.34,7.55c7.93,0,10.77-1.67,10.76-4.51,0-10.41-45.79-2-45.82-32.85,0-13.37,9.68-24.62,29.08-27.36V175H110v12.66c8.76.82,17.28,3.06,24,6.84l-8.38,20.24c-8.17-4.13-15.86-6.14-23.08-6.13-8.16,0-10.77,2.38-10.76,5.22,0,9.94,45.79,1.62,45.82,32.14C137.64,258.76,128.42,269.89,110.08,273.1Z"/><path class="cls-6" d="M73.63,123.77l0,.08-.43,1.67-1.06,4.13L71,134.13,65.62,155a3.23,3.23,0,1,1-6.25-1.62l5.05-19.3,2.26-8.61.46-1.75Z"/><path class="cls-6" d="M81.19,154.76a3.23,3.23,0,0,1-6.44.33l-2.16-21-.46-4.48-.43-4.13-.1-.92,2-.75,4.07-1.53.35,3.2.94,8.61,2.2,20.28A3.08,3.08,0,0,1,81.19,154.76Z"/><polygon class="cls-7" points="78.97 134.13 72.59 134.13 72.12 129.64 70.97 134.13 64.42 134.13 66.68 125.52 78.03 125.52 78.97 134.13"/><path class="cls-6" d="M130.52,122.42a4.38,4.38,0,0,1-4.38,4.38H67.51a4.38,4.38,0,0,1-4.38-4.38s0-.07,0-.1A4.38,4.38,0,0,1,67.51,118h58.63a4.38,4.38,0,0,1,4.38,4.28S130.52,122.38,130.52,122.42Z"/><path class="cls-7" d="M130.52,122.42a4.38,4.38,0,0,1-4.38,4.38H67.51a4.38,4.38,0,0,1-4.38-4.38s0-.07,0-.1h67.39S130.52,122.38,130.52,122.42Z"/><path class="cls-6" d="M133.26,115.11a2.93,2.93,0,0,1-2.93,2.93H64.28a2.93,2.93,0,0,1,0-5.85h66.06A2.93,2.93,0,0,1,133.26,115.11Z"/><path class="cls-7" d="M133.26,115.11a2.93,2.93,0,0,1-2.93,2.93H64.28a2.92,2.92,0,0,1-2.93-2.93Z"/><path class="cls-6" d="M200,83.44s4.39-11.18,21.08-9.4,17.52,18.45,18.19,25.45-.32,11.43,6.63,16.82c8.38,6.5,3.88,12.11,5.21,17.81s9.58,6.71,5.5,17.37-26,9.8-38.33,5.07-21.09-25.09-15.71-34S200,83.44,200,83.44Z"/><path class="cls-8" d="M202.54,122.57s-16.14,37.69-19.72,47.81c0,0-18.75.48-26.65,0l2.12,9.27s19.48,2,25.76,2.52c5.74.43,20.46-33.65,20.46-33.65C205.95,135.13,205.05,128.28,202.54,122.57Z"/><path class="cls-9" d="M211.76,341.3h-9.39l-6-72.18,6.72-66.21,25.37-2.38L213.27,276C217.57,293.44,214,315.76,211.76,341.3Z"/><path class="cls-10" d="M212,340.73a4.38,4.38,0,0,1,.57,2.42c0,1.63-.16,7.26-.16,7.26H185a8.16,8.16,0,0,1,3.38-6.56c3.48-2.28,8.83,0,13.94-3.64C202.28,340.21,203.65,341.46,212,340.73Z"/><path class="cls-6" d="M257.42,340.75c-1.82-19.57-10.35-58.94-15.78-67.43l-.05-73.82-24.79,5.88,7.41,68.1,23.72,66.73C250.74,341.79,254,341.5,257.42,340.75Z"/><path class="cls-10" d="M257.42,340.75a4.31,4.31,0,0,1,.63,2.46v7.2H230.59a8.16,8.16,0,0,1,3.38-6.56c3.48-2.28,8.83,0,13.94-3.64C247.92,340.21,249,341.48,257.42,340.75Z"/><path class="cls-11" d="M201.69,157.9l1.14,45.74c24.17,8.66,39.43-1.74,39.43-1.74l-6.89-38.13,9.24-34.65L238.37,126l-1.27-.64h0l-2.75-1.38-8.68-4.37-17.44,2.26-2.42.31-1.43.18-1.84.24c.84,5.69.24,12.61-.47,19.62a23.18,23.18,0,0,0-2.43,8.71,9,9,0,0,0,1.86,5.83h0l.21.27Z"/><path class="cls-12" d="M201.72,157l0,.89a55.21,55.21,0,0,0,14.12,1.8,52.68,52.68,0,0,0,10.28-1,.53.53,0,1,0-.21-1,54,54,0,0,1-24.39-.93Z"/><path class="cls-6" d="M226.12,112.08l-17-2.46a10.43,10.43,0,0,1-10.34-9q-.4-2.91-.72-6a30.44,30.44,0,0,1,1-9c1.56-5.07,6.27-9.85,16.87-10.23,12.5-.45,19.38,10.52,19.07,23.93v.11C234.9,105.08,231.81,112.08,226.12,112.08Z"/><path class="cls-8" d="M215.25,113.85l.55,3.09.62,3.49.53,3a6.73,6.73,0,0,0,5.62.11,16.5,16.5,0,0,0,4.28-2.38l0-.24-.09-1.14-.63-7.71-.13-1.62c-1-.49-2.48-.14-4.09.48s-3.24,1.45-4.55,2S215.25,113.85,215.25,113.85Z"/><path class="cls-13" d="M215.26,113.85l1.17,6.58c4.36-1.58,7.37-8.24,7.37-8.24l-6.44.73C216.11,113.44,215.26,113.85,215.26,113.85Z"/><path class="cls-8" d="M229.1,106.84s-1.45,4.2-3,5.24a34.52,34.52,0,0,1-3.89,2.44,24.54,24.54,0,0,1-6.43,2.42,15,15,0,0,1-7.6-.25c-6.52-2-8.05-13-8.29-20.65,0-.22,0-.43,0-.63-.07-2.75,0-5,.09-6.16,0-.52,0-.82,0-.82l19.45-.18,4.11,0c2.51,1.16,3.9,4.56,4.65,8.33a51.47,51.47,0,0,1,.85,9.11C229.1,106.08,229.1,106.47,229.1,106.84Z"/><path class="cls-8" d="M225,98.94s2.39-4,5.11-1.78c3,2.39,1.65,10.82-4.32,10.77Z"/><path class="cls-6" d="M200,89.26c.06,2.51,4.46,5,20.53,5.17,0,0,0,7.41,3.17,6.73.75-.16,1.5-4.44,4.56-4.65.86-7-2.17-7.15-4.65-8.29L200,88.44S200,88.73,200,89.26Z"/><path class="cls-14" d="M211.58,182.31a55.25,55.25,0,0,1-99.22,18q-1.13-1.64-2.13-3.36a55.33,55.33,0,0,1-6.35-16.27q-.37-1.69-.63-3.4a55.08,55.08,0,0,1,1-21.53q.25-1,.54-2a55.3,55.3,0,0,1,85.57-29.53q1.62,1.18,3.15,2.46a55.36,55.36,0,0,1,11.28,13q1,1.61,1.9,3.28A55,55,0,0,1,212,180.31C211.9,181,211.75,181.65,211.58,182.31Z"/><path class="cls-15" d="M213.2,169.71l-80,48.8a54.81,54.81,0,0,1-12.26-8.35l90.61-54.5A55,55,0,0,1,213.2,169.71Z"/><path class="cls-15" d="M193.52,126.75l-89.63,54q-.37-1.69-.63-3.4l87.11-53Q192,125.47,193.52,126.75Z"/><path class="cls-15" d="M206.7,143l-94.33,57.3q-1.13-1.64-2.13-3.36l94.57-57.23Q205.8,141.37,206.7,143Z"/><path class="cls-16" d="M200.81,179.65c-.16.66-.34,1.31-.53,2a44.18,44.18,0,0,1-85.7-21.17c.14-.66.28-1.32.44-2a44.18,44.18,0,0,1,85.78,21.19Z"/><path class="cls-17" d="M200.29,181.61a44.24,44.24,0,0,1-53,30.34c-.51-.13-1-.26-1.52-.41a44,44,0,0,1-24.18-17.33q-1.07-1.55-2-3.19a44.25,44.25,0,0,1-5.49-16.29,42.13,42.13,0,0,1-.35-4.2,43.83,43.83,0,0,1,.82-10.09,44.19,44.19,0,0,1,61.25-27.39,43.14,43.14,0,0,1,3.88,2.07,44.13,44.13,0,0,1,12.89,11.81q1.11,1.52,2.09,3.15a44,44,0,0,1,6.11,28.24C200.68,179.42,200.51,180.52,200.29,181.61Z"/><path class="cls-18" d="M200.81,178.33l-55,33.21a43.85,43.85,0,0,1-13.79-6.7l68.13-41.13A43.93,43.93,0,0,1,200.81,178.33Z"/><path class="cls-18" d="M179.72,135.13l-65.6,39.6a42.13,42.13,0,0,1-.35-4.2l62.08-37.48A43.14,43.14,0,0,1,179.72,135.13Z"/><path class="cls-18" d="M194.7,150.09l-73.08,44.12q-1.07-1.55-2-3.19l73-44.08Q193.72,148.46,194.7,150.09Z"/><path class="cls-16" d="M157.88,194.87,156.12,202l-9.05-2.24,1.68-6.8c-6.32-2-12.12-5.24-15.39-8.57l7.61-9.84a31.76,31.76,0,0,0,13.81,7.77c4.3,1.06,6.06.54,6.44-1,1.4-5.65-24.57-7.23-20.43-24,1.79-7.25,8.56-12.05,19.46-10.93l1.73-7,9.05,2.24-1.7,6.87a34.54,34.54,0,0,1,12.11,6.94l-7.27,9.85a28.56,28.56,0,0,0-11.69-6.43c-4.43-1.09-6.16-.16-6.54,1.38-1.33,5.39,24.62,7,20.53,23.6C174.75,190.79,168.26,195.59,157.88,194.87Z"/><path class="cls-14" d="M158.2,192.43l-1.76,7.13-9.05-2.24,1.68-6.8c-6.32-2-12.12-5.24-15.39-8.57l7.61-9.84a31.76,31.76,0,0,0,13.81,7.77c4.3,1.06,6.06.54,6.44-1,1.4-5.65-24.57-7.23-20.43-24,1.79-7.25,8.56-12.05,19.46-10.93l1.73-7,9.05,2.24-1.7,6.87A34.54,34.54,0,0,1,181.76,153l-7.27,9.85a28.56,28.56,0,0,0-11.69-6.43c-4.43-1.09-6.16-.16-6.54,1.38-1.33,5.39,24.62,7,20.53,23.6C175.08,188.36,168.58,193.15,158.2,192.43Z"/><path class="cls-8" d="M190.71,181.18c18.69,7.07,39-1.6,39-1.6s14.46-14.45,17.84-30.1-3-20.31-3-20.31c-11.45,29.35-20.26,43.06-20.26,43.06s-13.89,2.45-23.69,1.81c-4.08-.26-9.84-1.27-9.84-1.27A27.42,27.42,0,0,0,190.71,181.18Z"/><path class="cls-8" d="M190.71,172.77s-2.88-3.49-4.3-3.49-2.26,1.75-2.26,1.75-3.81-1.32-5.5.48-2.35,13.51,12.07,9.67Z"/><g class="cls-19"><path class="cls-20" d="M222.06,15.69a8.78,8.78,0,1,0,8.79,8.77A8.78,8.78,0,0,0,222.06,15.69Zm0,12.73a4,4,0,1,1,4-4A4,4,0,0,1,222.06,28.43Z"/><path class="cls-20" d="M222.06,6.36a18.1,18.1,0,1,0,18.1,18.1A18.11,18.11,0,0,0,222.06,6.36Zm0,31.54A13.43,13.43,0,1,1,235.5,24.46,13.43,13.43,0,0,1,222.06,37.9Z"/><path class="cls-20" d="M222.06,15.69a8.78,8.78,0,1,0,8.79,8.77A8.78,8.78,0,0,0,222.06,15.69Zm0,12.73a4,4,0,1,1,4-4A4,4,0,0,1,222.06,28.43Z"/><path class="cls-20" d="M222.06,15.69a8.78,8.78,0,1,0,8.79,8.77A8.78,8.78,0,0,0,222.06,15.69Zm0,12.73a4,4,0,1,1,4-4A4,4,0,0,1,222.06,28.43Z"/><rect class="cls-20" x="218.13" y="14.86" width="25.43" height="0.82" transform="translate(60.23 171.52) rotate(-46.27)"/><rect class="cls-20" x="221.82" y="23.24" width="0.41" height="2.45" transform="translate(54.86 172.62) rotate(-47.84)"/><rect class="cls-20" x="220.8" y="24.26" width="2.45" height="0.41" transform="translate(54.9 172.67) rotate(-47.85)"/><path class="cls-20" d="M242.43,6.52h-2.78a.41.41,0,0,1-.41-.45l.26-3a.4.4,0,0,1,.44-.38.41.41,0,0,1,.37.44l-.22,2.59h2.33a.41.41,0,1,1,0,.82Z"/><path class="cls-20" d="M240.87,8.08H238.1a.41.41,0,0,1-.41-.45l.26-3a.41.41,0,0,1,.45-.38.41.41,0,0,1,.37.44l-.22,2.59h2.33a.41.41,0,1,1,0,.82Z"/></g></g></g></g></svg>