<svg xmlns="http://www.w3.org/2000/svg" viewBox="0 0 245.39 308.4"><defs><style>.cls-1{fill:#a1dbff;}.cls-2{fill:#80cfff;}.cls-3{fill:#a4e1ff;}.cls-4{fill:#c3ecfe;}.cls-5{fill:#e4eff4;}.cls-6{fill:#f7a219;}.cls-7{fill:#f37e00;}.cls-8{fill:#fdd462;}.cls-12,.cls-9{fill:#fff;}.cls-9{opacity:0.3;}.cls-10{fill:#fbe6a1;opacity:0.2;}.cls-11{fill:#011b2e;}.cls-13{fill:#133248;}.cls-14{fill:#ff4c1f;}.cls-15{fill:#fdb487;}.cls-16{fill:#f48568;}.cls-17{fill:#e32922;}</style></defs><title>send</title><g id="Capa_2" data-name="Capa 2"><g id="OBJECTS"><path class="cls-1" d="M39.13,18.63,37,20.2a.06.06,0,0,1-.07-.09h0Z"/><path class="cls-1" d="M35,21.87l-2,1.74h0a.15.15,0,1,1-.2-.23h0l2-1.68a.11.11,0,0,1,.15,0A.11.11,0,0,1,35,21.87Z"/><path class="cls-1" d="M31.1,25.43l-1.84,1.89h0a.24.24,0,0,1-.34-.33h0l1.91-1.84a.19.19,0,0,1,.27.27Z"/><path class="cls-1" d="M27.5,29.26l-1.69,2h0a.3.3,0,1,1-.46-.39h0l1.75-2a.27.27,0,0,1,.42.36Z"/><path class="cls-1" d="M24.21,33.36,22.7,35.5h0a.35.35,0,0,1-.58-.41h0L23.69,33a.33.33,0,0,1,.53.38Z"/><path class="cls-1" d="M21.3,37.72,20,40v0a.41.41,0,1,1-.71-.4h0l1.36-2.29a.38.38,0,0,1,.66.38Z"/><path class="cls-1" d="M18.85,42.34l-1,2.4v0A.45.45,0,1,1,17,44.4h0L18.07,42a.43.43,0,0,1,.79.35Z"/><path class="cls-1" d="M16.91,47.19l-.75,2.5v0a.47.47,0,0,1-.9-.27h0L16,46.9a.46.46,0,0,1,.88.26Z"/><path class="cls-1" d="M15.58,52.23l-.41,2.58v0a.48.48,0,0,1-1-.15h0L14.65,52a.48.48,0,0,1,.94.15Z"/><path class="cls-1" d="M14.94,57.41l0,2.6v0a.5.5,0,1,1-1,0h0L14,57.35a.49.49,0,0,1,1,0Z"/><path class="cls-1" d="M15,62.61l.31,2.59v0a.52.52,0,0,1-1,.12h0L14,62.69a.51.51,0,0,1,1-.12Z"/><path class="cls-1" d="M15.81,67.76l.63,2.53v0a.52.52,0,0,1-1,.25L14.78,68a.53.53,0,1,1,1-.26h0Z"/><path class="cls-1" d="M17.24,72.77l1,2.42v0a.5.5,0,0,1-.93.38l-1-2.48a.51.51,0,0,1,.94-.39h0Z"/><path class="cls-1" d="M19.36,77.53l1.31,2.25,0,0a.48.48,0,0,1-.83.49L18.49,78a.49.49,0,1,1,.85-.5h0Z"/><path class="cls-1" d="M22.13,81.94,23.74,84l0,0a.47.47,0,0,1-.73.58L21.36,82.5a.47.47,0,0,1,.74-.59h0Z"/><path class="cls-1" d="M25.49,85.93l1.87,1.83,0,0a.45.45,0,0,1-.62.64l-1.92-1.85a.46.46,0,0,1,.64-.66h0Z"/><path class="cls-1" d="M29.32,89.48l2.06,1.61h0a.4.4,0,0,1-.49.64l-2.13-1.6a.43.43,0,0,1,.51-.69h0Z"/><path class="cls-1" d="M33.54,92.59,35.76,94h0a.35.35,0,0,1-.36.59l-2.28-1.36a.37.37,0,0,1,.38-.64h0Z"/><path class="cls-1" d="M38.05,95.26l2.35,1.18h0a.3.3,0,0,1-.26.53l-2.4-1.14a.32.32,0,0,1,.28-.58h0Z"/><path class="cls-1" d="M42.8,97.52l2.44,1h0a.23.23,0,0,1-.17.42L42.59,98a.27.27,0,0,1,.19-.5h0Z"/><path class="cls-1" d="M47.71,99.43l2.51.81h0a.14.14,0,0,1-.08.27l-2.55-.73a.18.18,0,0,1,.1-.35h0Z"/><path class="cls-1" d="M52.76,101l2.57.62a0,0,0,0,1,0,.05,0,0,0,0,1-.05,0l-2.6-.52a.1.1,0,0,1,0-.19Z"/><path class="cls-2" d="M45.21,5.11c0-.1-5.32,3.22-5.32,3.22l1.39,9,2.63-6.76,6.93-1.32L60.72,0Z"/><polygon class="cls-3" points="60.72 0 41.29 17.37 43.92 10.61 60.72 0"/><polygon class="cls-4" points="60.72 0 35.01 5.46 39.9 8.33 60.72 0 43.92 10.61 52.22 15.74 60.72 0"/><ellipse class="cls-5" cx="88.84" cy="294.57" rx="88.84" ry="11.56"/><path class="cls-6" d="M221.82,286.36c0,.06,0,.11,0,.17,0,2.1-1.12,4.11-3.18,6a18.59,18.59,0,0,1-1.68,1.35,34.07,34.07,0,0,1-6.35,3.49q-.81.35-1.68.69c-1.94.76-4.06,1.48-6.35,2.14l-1.68.47c-2,.54-4.13,1-6.35,1.49l-1.68.33q-3.06.58-6.35,1l-1.68.23q-3.09.4-6.35.7l-1.68.14q-3.11.26-6.35.41l-1.68.07q-3.13.12-6.35.14h-1.68q-3.22,0-6.35-.12l-1.68-.07q-2.38-.1-4.71-.27l-1.65-.12-1.68-.14q-3.25-.28-6.35-.68l-1.68-.22q-2-.27-3.87-.58l-2.49-.44-1.68-.32c-2.22-.44-4.34-.93-6.35-1.45l-1.18-.31-.5-.14c-.91-.25-1.79-.52-2.65-.79q-1.95-.62-3.7-1.29l-1.68-.67a38.43,38.43,0,0,1-5.63-2.87l-.72-.47q-.44-.29-.84-.6c-.29-.22-.57-.44-.84-.66-2.42-2-3.75-4.21-3.75-6.49q0-.24,0-.48V273.13h121l0,13.41Z"/><path class="cls-7" d="M106.23,273.13v21.15q-.44-.29-.84-.6c-.29-.22-.57-.44-.84-.66V273.13Z"/><path class="cls-7" d="M114.26,273.11v25.17l-1.68-.67v-24.5Z"/><path class="cls-7" d="M122.28,273.1v27.71l-1.18-.31-.5-.14V273.1Z"/><path class="cls-7" d="M130.32,273.09v29.5l-1.68-.32V273.09Z"/><path class="cls-7" d="M138.35,273.08v30.75l-1.68-.22V273.08Z"/><path class="cls-7" d="M146.38,273.07v31.58l-1.68-.14V273.07Z"/><path class="cls-7" d="M154.4,273.05v32l-1.68-.07v-32Z"/><path class="cls-7" d="M162.44,273v32.18h-1.68V273Z"/><path class="cls-7" d="M170.47,273v32l-1.68.07V273Z"/><path class="cls-7" d="M178.49,273v31.44l-1.68.14V273Z"/><path class="cls-7" d="M186.52,273v30.52l-1.68.23V273Z"/><path class="cls-7" d="M194.55,273v29.16l-1.68.33V273Z"/><path class="cls-7" d="M202.59,273V300.2l-1.68.47V273Z"/><path class="cls-7" d="M210.61,273v24.4q-.81.35-1.68.69V273Z"/><path class="cls-7" d="M218.64,273v19.57a18.59,18.59,0,0,1-1.68,1.35V273Z"/><path class="cls-8" d="M221.81,273.12c0,9.49-27.08,17.18-60.49,17.18-4.57,0-9-.14-13.29-.42-5.38-.34-10.48-.89-15.21-1.61-4.22-.64-8.15-1.42-11.69-2.32q-1.63-.41-3.15-.85a50.6,50.6,0,0,1-11-4.44c-.55-.32-1.08-.65-1.56-1-3-2-4.58-4.24-4.58-6.57a4,4,0,0,1,0-.64c1.17-9.19,27.79-16.54,60.44-16.54A200,200,0,0,1,184,257.19q2,.23,4,.51a122.54,122.54,0,0,1,15.4,3.08q1.49.41,2.88.85a50.2,50.2,0,0,1,8.48,3.44,18,18,0,0,1,5.44,4.12,6.5,6.5,0,0,1,1.54,3.29A4.06,4.06,0,0,1,221.81,273.12Z"/><path class="cls-9" d="M220.22,269.19,148,289.88c-5.38-.34-10.48-.89-15.21-1.61l82-23.2A18,18,0,0,1,220.22,269.19Z"/><path class="cls-9" d="M188,257.7l-81.06,23c-.55-.32-1.08-.65-1.56-1L184,257.19Q186.07,257.43,188,257.7Z"/><path class="cls-9" d="M206.31,261.63,121.12,286q-1.63-.41-3.15-.85l85.45-24.32Q204.92,261.19,206.31,261.63Z"/><path class="cls-7" d="M209.67,273.12a4.91,4.91,0,0,1,0,.63c-1.17,7.28-22.38,13.1-48.3,13.1S114.18,281,113,273.75a4.94,4.94,0,0,1,0-.63c0-7.57,21.69-13.73,48.35-13.73S209.67,265.55,209.67,273.12Z"/><path class="cls-6" d="M209.62,273.75c-1.17,7.28-22.38,13.1-48.3,13.1h-1.73a157.75,157.75,0,0,1-16.41-1,108.53,108.53,0,0,1-13.83-2.44c-1-.26-2-.53-3-.81a34.21,34.21,0,0,1-10.11-4.5,11.8,11.8,0,0,1-1.47-1.24,5.78,5.78,0,0,1-1.77-3.11c1.17-7.28,22.38-13.1,48.3-13.1,3.28,0,6.48.09,9.59.27,1.58.09,3.14.2,4.66.34a117.8,117.8,0,0,1,16.8,2.6q1.58.38,3,.79a41.58,41.58,0,0,1,9.36,3.71c2.32,1.35,3.89,2.81,4.55,4.36A4.17,4.17,0,0,1,209.62,273.75Z"/><path class="cls-10" d="M209.32,272.72l-49.73,14.12a157.75,157.75,0,0,1-16.41-1l61.59-17.49C207.09,269.7,208.66,271.17,209.32,272.72Z"/><path class="cls-10" d="M175.57,261.26,116.26,278.1a11.8,11.8,0,0,1-1.47-1.24l56.12-15.94C172.48,261,174,261.12,175.57,261.26Z"/><path class="cls-10" d="M195.41,264.65l-66.06,18.76c-1-.26-2-.53-3-.81l66-18.74Q193.94,264.24,195.41,264.65Z"/><path class="cls-7" d="M168,280.91v2.28h-10.2V281a133.53,133.53,0,0,1-18.6-1.44l5.5-3.54a108.84,108.84,0,0,0,16.72,1.32c4.85,0,6.59-.29,6.59-.78,0-1.81-28-.35-28-5.71,0-2.32,5.93-4.28,17.8-4.75v-2.24H168v2.2a118.09,118.09,0,0,1,14.69,1.19l-5.14,3.51a99.13,99.13,0,0,0-14.11-1.07c-5,0-6.59.41-6.59.9,0,1.73,28,.29,28,5.59C184.9,278.42,179.26,280.35,168,280.91Z"/><path class="cls-8" d="M167.74,280.15v2.28h-10.2v-2.18a133.53,133.53,0,0,1-18.6-1.44l5.5-3.54a108.85,108.85,0,0,0,16.72,1.32c4.85,0,6.59-.29,6.59-.78,0-1.81-28-.35-28-5.71,0-2.32,5.93-4.28,17.8-4.75v-2.24h10.2v2.2a118.09,118.09,0,0,1,14.69,1.19L177.3,270a99.13,99.13,0,0,0-14.11-1.07c-5,0-6.59.41-6.59.9,0,1.73,28,.29,28,5.59C184.61,277.66,179,279.6,167.74,280.15Z"/><path class="cls-6" d="M225.63,265.17c0,.06,0,.11,0,.17,0,2.1-1.12,4.11-3.18,6a18.56,18.56,0,0,1-1.68,1.35,34.07,34.07,0,0,1-6.35,3.49q-.81.35-1.68.69c-1.94.76-4.06,1.48-6.35,2.14l-1.68.47c-2,.54-4.13,1-6.35,1.49l-1.68.33q-3.06.58-6.35,1l-1.68.23q-3.09.4-6.35.7l-1.68.14q-3.11.26-6.35.41l-1.68.07q-3.13.12-6.35.14h-1.68q-3.22,0-6.35-.12l-1.68-.07q-2.38-.1-4.71-.27l-1.65-.12-1.68-.14q-3.25-.28-6.35-.68l-1.68-.22q-2-.27-3.87-.58l-2.49-.44-1.68-.32c-2.22-.44-4.34-.93-6.35-1.45l-1.18-.31-.5-.14c-.91-.25-1.79-.52-2.65-.79q-1.95-.62-3.7-1.29l-1.68-.67a38.43,38.43,0,0,1-5.63-2.87l-.72-.47q-.44-.3-.84-.6c-.29-.22-.57-.44-.84-.66-2.42-2-3.75-4.21-3.75-6.49q0-.24,0-.48V251.94h121l0,13.41Z"/><path class="cls-7" d="M110,251.93v21.15q-.44-.3-.84-.6c-.29-.22-.57-.44-.84-.66V251.94Z"/><path class="cls-7" d="M118.06,251.92v25.17l-1.68-.67v-24.5Z"/><path class="cls-7" d="M126.09,251.91v27.71l-1.18-.31-.5-.14V251.91Z"/><path class="cls-7" d="M134.12,251.9v29.5l-1.68-.32V251.9Z"/><path class="cls-7" d="M142.15,251.89v30.75l-1.68-.22V251.89Z"/><path class="cls-7" d="M150.18,251.87v31.58l-1.68-.14V251.87Z"/><path class="cls-7" d="M158.21,251.86v32l-1.68-.07v-32Z"/><path class="cls-7" d="M166.24,251.85V284h-1.68V251.85Z"/><path class="cls-7" d="M174.27,251.84v32l-1.68.07v-32Z"/><path class="cls-7" d="M182.3,251.83v31.44l-1.68.14V251.83Z"/><path class="cls-7" d="M190.33,251.81v30.52l-1.68.23V251.82Z"/><path class="cls-7" d="M198.36,251.8V281l-1.68.33V251.81Z"/><path class="cls-7" d="M206.39,251.79V279l-1.68.47V251.79Z"/><path class="cls-7" d="M214.42,251.78v24.4q-.81.35-1.68.69V251.78Z"/><path class="cls-7" d="M222.45,251.77v19.57a18.56,18.56,0,0,1-1.68,1.35V251.77Z"/><path class="cls-8" d="M225.61,251.93c0,9.49-27.08,17.18-60.49,17.18-4.57,0-9-.14-13.29-.42-5.38-.34-10.48-.89-15.21-1.61-4.22-.64-8.15-1.42-11.69-2.32q-1.63-.41-3.15-.85a50.6,50.6,0,0,1-11-4.44c-.55-.32-1.08-.65-1.56-1-3-2-4.58-4.24-4.58-6.57a4.05,4.05,0,0,1,0-.64c1.17-9.19,27.79-16.54,60.44-16.54A200,200,0,0,1,187.84,236q2,.23,4,.51a122.54,122.54,0,0,1,15.4,3.08q1.49.41,2.88.85a50.21,50.21,0,0,1,8.48,3.44A18,18,0,0,1,224,248a6.5,6.5,0,0,1,1.54,3.29A4.06,4.06,0,0,1,225.61,251.93Z"/><path class="cls-9" d="M224,248l-72.19,20.69c-5.38-.34-10.48-.89-15.21-1.61l82-23.2A18,18,0,0,1,224,248Z"/><path class="cls-9" d="M191.83,236.51l-81.06,23c-.55-.32-1.08-.65-1.56-1L187.84,236Q189.87,236.23,191.83,236.51Z"/><path class="cls-9" d="M210.11,240.44l-85.19,24.32q-1.63-.41-3.15-.85l85.45-24.32Q208.72,240,210.11,240.44Z"/><path class="cls-7" d="M213.47,251.93a4.91,4.91,0,0,1,0,.63c-1.17,7.28-22.38,13.1-48.3,13.1s-47.14-5.82-48.3-13.1a5,5,0,0,1,0-.63c0-7.57,21.69-13.73,48.35-13.73S213.47,244.35,213.47,251.93Z"/><path class="cls-6" d="M213.42,252.56c-1.17,7.28-22.38,13.1-48.3,13.1h-1.73a157.75,157.75,0,0,1-16.41-1,108.57,108.57,0,0,1-13.83-2.44c-1-.26-2-.53-3-.81a34.21,34.21,0,0,1-10.11-4.5,11.81,11.81,0,0,1-1.47-1.24,5.78,5.78,0,0,1-1.77-3.11c1.17-7.28,22.38-13.1,48.3-13.1,3.28,0,6.48.09,9.59.27,1.58.09,3.14.2,4.66.34a117.8,117.8,0,0,1,16.8,2.6c1.05.25,2.07.52,3,.79a41.59,41.59,0,0,1,9.36,3.71c2.32,1.35,3.89,2.81,4.55,4.36A4.17,4.17,0,0,1,213.42,252.56Z"/><path class="cls-10" d="M213.12,251.53l-49.73,14.12a157.75,157.75,0,0,1-16.41-1l61.59-17.49C210.89,248.51,212.46,250,213.12,251.53Z"/><path class="cls-10" d="M179.37,240.06,120.06,256.9a11.81,11.81,0,0,1-1.47-1.24l56.12-15.94C176.29,239.82,177.84,239.93,179.37,240.06Z"/><path class="cls-10" d="M199.22,243.46l-66.06,18.76c-1-.26-2-.53-3-.81l66-18.74C197.22,242.92,198.24,243.18,199.22,243.46Z"/><path class="cls-7" d="M171.84,259.72V262h-10.2v-2.18a133.55,133.55,0,0,1-18.6-1.44l5.5-3.54a108.84,108.84,0,0,0,16.72,1.32c4.85,0,6.59-.29,6.59-.78,0-1.81-28-.35-28-5.71,0-2.32,5.93-4.28,17.8-4.75v-2.24h10.2v2.2a118.09,118.09,0,0,1,14.69,1.19l-5.14,3.51a99.14,99.14,0,0,0-14.11-1.07c-5,0-6.59.41-6.59.9,0,1.73,28,.29,28,5.59C188.71,257.23,183.06,259.16,171.84,259.72Z"/><path class="cls-8" d="M171.55,259v2.28h-10.2v-2.18a133.52,133.52,0,0,1-18.6-1.44l5.5-3.54A108.84,108.84,0,0,0,165,255.4c4.85,0,6.59-.29,6.59-.78,0-1.81-28-.35-28-5.71,0-2.32,5.93-4.28,17.8-4.75v-2.24h10.2v2.2a118.09,118.09,0,0,1,14.69,1.19l-5.14,3.51A99.15,99.15,0,0,0,167,247.76c-5,0-6.59.41-6.59.9,0,1.73,28,.29,28,5.59C188.41,256.47,182.76,258.4,171.55,259Z"/><path class="cls-6" d="M225.07,244c0,.06,0,.11,0,.17,0,2.1-1.12,4.11-3.18,6a18.57,18.57,0,0,1-1.68,1.35,34.07,34.07,0,0,1-6.35,3.49q-.81.35-1.68.69c-1.94.76-4.06,1.48-6.35,2.14l-1.68.47c-2,.54-4.13,1-6.35,1.49l-1.68.33q-3.06.58-6.35,1l-1.68.23q-3.09.4-6.35.7l-1.68.14q-3.11.26-6.35.41l-1.68.07q-3.13.12-6.35.14H164q-3.22,0-6.35-.12l-1.68-.07q-2.38-.1-4.71-.27l-1.65-.12-1.68-.14q-3.25-.28-6.35-.68l-1.68-.22q-2-.27-3.87-.58l-2.49-.44-1.68-.32c-2.22-.44-4.34-.93-6.35-1.45l-1.18-.31-.5-.14c-.91-.25-1.79-.52-2.65-.79q-1.95-.62-3.7-1.29l-1.68-.67a38.41,38.41,0,0,1-5.63-2.87l-.72-.47q-.44-.29-.84-.6c-.29-.22-.57-.44-.84-.66-2.42-2-3.75-4.21-3.75-6.49q0-.24,0-.48V230.75H225l0,13.41Z"/><path class="cls-7" d="M109.47,230.74v21.15q-.44-.29-.84-.6c-.29-.22-.57-.44-.84-.66V230.74Z"/><path class="cls-7" d="M117.5,230.73V255.9l-1.68-.67V230.73Z"/><path class="cls-7" d="M125.53,230.72v27.71l-1.18-.31-.5-.14V230.72Z"/><path class="cls-7" d="M133.56,230.7v29.5l-1.68-.32V230.71Z"/><path class="cls-7" d="M141.59,230.69v30.75l-1.68-.22V230.69Z"/><path class="cls-7" d="M149.62,230.68v31.58l-1.68-.14V230.68Z"/><path class="cls-7" d="M157.65,230.67v32l-1.68-.07v-32Z"/><path class="cls-7" d="M165.68,230.66v32.18H164V230.66Z"/><path class="cls-7" d="M173.71,230.65v32l-1.68.07v-32Z"/><path class="cls-7" d="M181.74,230.63v31.44l-1.68.14V230.63Z"/><path class="cls-7" d="M189.77,230.62v30.52l-1.68.23V230.62Z"/><path class="cls-7" d="M197.8,230.61v29.16l-1.68.33V230.61Z"/><path class="cls-7" d="M205.83,230.6v27.22l-1.68.47V230.6Z"/><path class="cls-7" d="M213.86,230.59V255q-.81.35-1.68.69V230.59Z"/><path class="cls-7" d="M221.89,230.57v19.57a18.57,18.57,0,0,1-1.68,1.35V230.58Z"/><path class="cls-8" d="M225.06,230.73c0,9.49-27.08,17.18-60.49,17.18-4.57,0-9-.14-13.29-.42-5.38-.34-10.48-.89-15.21-1.61-4.22-.64-8.15-1.42-11.69-2.32q-1.63-.41-3.15-.85a50.6,50.6,0,0,1-11-4.44c-.55-.32-1.08-.65-1.56-1-3-2-4.58-4.24-4.58-6.57a4,4,0,0,1,0-.64c1.17-9.19,27.79-16.54,60.44-16.54a200,200,0,0,1,22.72,1.25q2,.23,4,.51a122.55,122.55,0,0,1,15.4,3.08q1.49.41,2.88.85a50.21,50.21,0,0,1,8.48,3.44,18,18,0,0,1,5.44,4.12,6.5,6.5,0,0,1,1.54,3.29A4.06,4.06,0,0,1,225.06,230.73Z"/><path class="cls-9" d="M223.47,226.81,151.28,247.5c-5.38-.34-10.48-.89-15.21-1.61l82-23.2A18,18,0,0,1,223.47,226.81Z"/><path class="cls-9" d="M191.28,215.31l-81.06,23c-.55-.32-1.08-.65-1.56-1l78.63-22.5Q189.32,215,191.28,215.31Z"/><path class="cls-9" d="M209.55,219.25l-85.19,24.32q-1.63-.41-3.15-.85l85.45-24.32Q208.17,218.81,209.55,219.25Z"/><path class="cls-7" d="M212.92,230.73a4.91,4.91,0,0,1,0,.63c-1.17,7.28-22.38,13.1-48.3,13.1s-47.14-5.82-48.3-13.1a4.94,4.94,0,0,1,0-.63c0-7.57,21.69-13.73,48.35-13.73S212.92,223.16,212.92,230.73Z"/><path class="cls-6" d="M212.87,231.36c-1.17,7.28-22.38,13.1-48.3,13.1h-1.73a157.72,157.72,0,0,1-16.41-1A108.55,108.55,0,0,1,132.6,241c-1-.26-2-.53-3-.81a34.21,34.21,0,0,1-10.11-4.5,11.79,11.79,0,0,1-1.47-1.24,5.78,5.78,0,0,1-1.77-3.11c1.17-7.28,22.38-13.1,48.3-13.1,3.28,0,6.48.09,9.59.27,1.58.09,3.14.2,4.66.34a117.79,117.79,0,0,1,16.8,2.6c1.05.25,2.07.52,3,.79A41.58,41.58,0,0,1,208,226c2.32,1.35,3.89,2.81,4.55,4.36A4.18,4.18,0,0,1,212.87,231.36Z"/><path class="cls-10" d="M212.57,230.33l-49.73,14.12a157.72,157.72,0,0,1-16.41-1L208,226C210.34,227.32,211.9,228.79,212.57,230.33Z"/><path class="cls-10" d="M178.81,218.87l-59.31,16.84a11.79,11.79,0,0,1-1.47-1.24l56.12-15.94C175.73,218.62,177.29,218.74,178.81,218.87Z"/><path class="cls-10" d="M198.66,222.27,132.6,241c-1-.26-2-.53-3-.81l66-18.74C196.66,221.72,197.68,222,198.66,222.27Z"/><path class="cls-7" d="M171.29,238.52v2.28h-10.2v-2.18a133.53,133.53,0,0,1-18.6-1.44l5.5-3.54A108.84,108.84,0,0,0,164.7,235c4.85,0,6.59-.29,6.59-.78,0-1.81-28-.35-28-5.71,0-2.32,5.93-4.27,17.8-4.75v-2.24h10.2v2.2A118.09,118.09,0,0,1,186,224.88l-5.14,3.51a99.13,99.13,0,0,0-14.11-1.07c-5,0-6.59.41-6.59.9,0,1.73,28,.29,28,5.59C188.15,236,182.51,238,171.29,238.52Z"/><path class="cls-8" d="M171,237.76V240h-10.2v-2.18a133.53,133.53,0,0,1-18.6-1.44l5.5-3.54a108.84,108.84,0,0,0,16.72,1.32c4.85,0,6.59-.29,6.59-.78,0-1.81-28-.35-28-5.71,0-2.32,5.93-4.28,17.8-4.75v-2.24H171v2.2a118.08,118.08,0,0,1,14.69,1.19l-5.14,3.51a99.13,99.13,0,0,0-14.11-1.07c-5,0-6.59.41-6.59.9,0,1.73,28,.29,28,5.59C187.85,235.28,182.21,237.21,171,237.76Z"/><path class="cls-6" d="M229.57,225c0,.06,0,.11,0,.17,0,2.1-1.12,4.11-3.18,6a18.59,18.59,0,0,1-1.68,1.35,34.08,34.08,0,0,1-6.35,3.49q-.81.35-1.68.69c-1.94.76-4.06,1.48-6.35,2.14l-1.68.47c-2,.54-4.13,1-6.35,1.49l-1.68.33q-3.06.58-6.35,1l-1.68.23q-3.09.4-6.35.7l-1.68.14q-3.11.26-6.35.41l-1.68.07q-3.13.12-6.35.14h-1.68q-3.22,0-6.35-.12l-1.68-.07q-2.38-.1-4.71-.27l-1.65-.12-1.68-.14q-3.25-.28-6.35-.68l-1.68-.22q-2-.27-3.87-.58l-2.49-.43-1.68-.32c-2.22-.44-4.34-.93-6.35-1.45l-1.18-.31-.5-.14c-.91-.25-1.79-.52-2.65-.79q-1.95-.62-3.7-1.29l-1.68-.67a38.41,38.41,0,0,1-5.63-2.87l-.72-.47q-.44-.29-.84-.6c-.29-.22-.57-.44-.84-.66-2.42-2-3.75-4.21-3.75-6.49q0-.24,0-.48V211.79h121l0,13.41Z"/><path class="cls-7" d="M114,211.78v21.15q-.44-.29-.84-.6c-.29-.22-.57-.44-.84-.66V211.79Z"/><path class="cls-7" d="M122,211.77v25.17l-1.68-.67V211.78Z"/><path class="cls-7" d="M130,211.76v27.71l-1.18-.31-.5-.14V211.76Z"/><path class="cls-7" d="M138.06,211.75v29.5l-1.68-.32V211.75Z"/><path class="cls-7" d="M146.09,211.74v30.75l-1.68-.22V211.74Z"/><path class="cls-7" d="M154.12,211.73v31.58l-1.68-.14V211.73Z"/><path class="cls-7" d="M162.15,211.71v32l-1.68-.07v-32Z"/><path class="cls-7" d="M170.18,211.7v32.18h-1.68V211.7Z"/><path class="cls-7" d="M178.21,211.69v32l-1.68.07v-32Z"/><path class="cls-7" d="M186.24,211.68v31.44l-1.68.14V211.68Z"/><path class="cls-7" d="M194.27,211.67v30.52l-1.68.23V211.67Z"/><path class="cls-7" d="M202.3,211.65v29.16l-1.68.33V211.66Z"/><path class="cls-7" d="M210.33,211.64v27.22l-1.68.47V211.65Z"/><path class="cls-7" d="M218.36,211.63V236q-.81.35-1.68.69V211.63Z"/><path class="cls-7" d="M226.39,211.62v19.57a18.59,18.59,0,0,1-1.68,1.35V211.62Z"/><path class="cls-8" d="M229.56,211.78c0,9.49-27.08,17.18-60.49,17.18-4.57,0-9-.14-13.29-.42-5.38-.34-10.48-.89-15.21-1.61-4.22-.64-8.15-1.42-11.69-2.32q-1.63-.41-3.15-.85a50.59,50.59,0,0,1-11-4.44c-.55-.32-1.08-.65-1.56-1-3-2-4.58-4.24-4.58-6.57a4,4,0,0,1,0-.64c1.17-9.19,27.79-16.54,60.44-16.54a200,200,0,0,1,22.72,1.25q2,.23,4,.51a122.56,122.56,0,0,1,15.4,3.08q1.49.41,2.88.85a50.21,50.21,0,0,1,8.48,3.44,18,18,0,0,1,5.44,4.12,6.5,6.5,0,0,1,1.54,3.29A4.06,4.06,0,0,1,229.56,211.78Z"/><path class="cls-9" d="M228,207.85l-72.19,20.69c-5.38-.34-10.48-.89-15.21-1.61l82-23.2A18,18,0,0,1,228,207.85Z"/><path class="cls-9" d="M195.78,196.36l-81.06,23c-.55-.32-1.08-.65-1.56-1l78.63-22.5Q193.82,196.08,195.78,196.36Z"/><path class="cls-9" d="M214.06,200.29l-85.19,24.32q-1.63-.41-3.15-.85l85.45-24.32Q212.67,199.85,214.06,200.29Z"/><path class="cls-7" d="M217.42,211.78a4.91,4.91,0,0,1,0,.63c-1.17,7.28-22.38,13.1-48.3,13.1s-47.14-5.82-48.3-13.1a4.94,4.94,0,0,1,0-.63c0-7.57,21.69-13.73,48.35-13.73S217.42,204.21,217.42,211.78Z"/><path class="cls-6" d="M217.37,212.41c-1.17,7.28-22.38,13.1-48.3,13.1h-1.73a157.75,157.75,0,0,1-16.41-1,108.53,108.53,0,0,1-13.83-2.44q-1.55-.39-3-.81a34.22,34.22,0,0,1-10.11-4.5,11.79,11.79,0,0,1-1.47-1.24,5.78,5.78,0,0,1-1.77-3.11c1.17-7.28,22.38-13.1,48.3-13.1,3.28,0,6.48.09,9.59.27,1.58.09,3.14.2,4.66.34a117.81,117.81,0,0,1,16.8,2.6c1.05.25,2.07.52,3,.79a41.58,41.58,0,0,1,9.36,3.71c2.32,1.35,3.89,2.81,4.55,4.36A4.17,4.17,0,0,1,217.37,212.41Z"/><path class="cls-10" d="M217.07,211.38,167.34,225.5a157.75,157.75,0,0,1-16.41-1L212.52,207C214.84,208.36,216.4,209.83,217.07,211.38Z"/><path class="cls-10" d="M183.31,199.91,124,216.76a11.79,11.79,0,0,1-1.47-1.24l56.12-15.94C180.23,199.67,181.79,199.78,183.31,199.91Z"/><path class="cls-10" d="M203.16,203.31,137.1,222.07q-1.55-.39-3-.81l66-18.74C201.16,202.77,202.18,203,203.16,203.31Z"/><path class="cls-7" d="M175.79,219.57v2.28h-10.2v-2.18a133.53,133.53,0,0,1-18.6-1.44l5.5-3.54A108.85,108.85,0,0,0,169.2,216c4.85,0,6.59-.29,6.59-.78,0-1.81-28-.35-28-5.71,0-2.32,5.93-4.27,17.8-4.75v-2.24h10.2v2.2a118.09,118.09,0,0,1,14.69,1.19l-5.14,3.51a99.13,99.13,0,0,0-14.11-1.07c-5,0-6.59.41-6.59.9,0,1.73,28,.29,28,5.59C192.65,217.08,187,219,175.79,219.57Z"/><path class="cls-8" d="M175.49,218.81v2.28h-10.2v-2.18a133.53,133.53,0,0,1-18.6-1.44l5.5-3.54a108.85,108.85,0,0,0,16.72,1.32c4.85,0,6.59-.29,6.59-.78,0-1.81-28-.35-28-5.71,0-2.32,5.93-4.28,17.8-4.75v-2.24h10.2V204a118.09,118.09,0,0,1,14.69,1.19L185,208.68a99.13,99.13,0,0,0-14.11-1.07c-5,0-6.59.41-6.59.9,0,1.73,28,.29,28,5.59C192.35,216.32,186.71,218.25,175.49,218.81Z"/><path class="cls-6" d="M220.35,203.91c0,.06,0,.11,0,.17,0,2.1-1.12,4.11-3.18,6a18.57,18.57,0,0,1-1.68,1.35,34.07,34.07,0,0,1-6.35,3.49q-.81.35-1.68.69c-1.94.76-4.06,1.48-6.35,2.14l-1.68.47c-2,.54-4.13,1-6.35,1.49l-1.68.33q-3.06.58-6.35,1l-1.68.23q-3.09.4-6.35.7l-1.68.14q-3.11.26-6.35.41l-1.68.07q-3.13.12-6.35.14h-1.68q-3.22,0-6.35-.12l-1.68-.07q-2.38-.1-4.71-.27l-1.65-.12-1.68-.14q-3.25-.28-6.35-.68l-1.68-.22q-2-.27-3.87-.58l-2.49-.44-1.68-.32c-2.22-.44-4.34-.93-6.35-1.45l-1.18-.31-.5-.14c-.91-.25-1.79-.52-2.65-.79q-1.95-.62-3.7-1.29l-1.68-.67a38.43,38.43,0,0,1-5.63-2.87l-.72-.47q-.44-.29-.84-.6c-.29-.22-.57-.44-.84-.66-2.42-2-3.75-4.21-3.75-6.49q0-.24,0-.48V190.69h121l0,13.41Z"/><path class="cls-7" d="M104.75,190.68v21.15q-.44-.29-.84-.6c-.29-.22-.57-.44-.84-.66V190.68Z"/><path class="cls-7" d="M112.78,190.67v25.17l-1.68-.67v-24.5Z"/><path class="cls-7" d="M120.81,190.65v27.71l-1.18-.31-.5-.14V190.66Z"/><path class="cls-7" d="M128.84,190.64v29.5l-1.68-.32V190.65Z"/><path class="cls-7" d="M136.87,190.63v30.75l-1.68-.22V190.63Z"/><path class="cls-7" d="M144.9,190.62V222.2l-1.68-.14V190.62Z"/><path class="cls-7" d="M152.93,190.61v32l-1.68-.07v-32Z"/><path class="cls-7" d="M161,190.59v32.18h-1.68V190.6Z"/><path class="cls-7" d="M169,190.58v32l-1.68.07v-32Z"/><path class="cls-7" d="M177,190.57V222l-1.68.14V190.57Z"/><path class="cls-7" d="M185,190.56v30.52l-1.68.23V190.56Z"/><path class="cls-7" d="M193.08,190.55v29.16l-1.68.33V190.55Z"/><path class="cls-7" d="M201.11,190.54v27.22l-1.68.47V190.54Z"/><path class="cls-7" d="M209.14,190.53v24.4q-.81.35-1.68.69V190.53Z"/><path class="cls-7" d="M217.17,190.51v19.57a18.57,18.57,0,0,1-1.68,1.35V190.51Z"/><path class="cls-8" d="M220.34,190.67c0,9.49-27.08,17.18-60.49,17.18-4.57,0-9-.14-13.29-.42-5.38-.34-10.48-.89-15.21-1.61-4.22-.64-8.15-1.42-11.69-2.32q-1.63-.41-3.15-.85a50.6,50.6,0,0,1-11-4.44c-.55-.32-1.08-.65-1.56-1-3-2-4.58-4.24-4.58-6.57a4.05,4.05,0,0,1,0-.64c1.17-9.19,27.79-16.54,60.44-16.54a200,200,0,0,1,22.72,1.25q2,.23,4,.51a122.53,122.53,0,0,1,15.4,3.08q1.49.41,2.88.85a50.21,50.21,0,0,1,8.48,3.44,18,18,0,0,1,5.44,4.12,6.5,6.5,0,0,1,1.54,3.29A4.06,4.06,0,0,1,220.34,190.67Z"/><path class="cls-9" d="M218.75,186.75l-72.19,20.69c-5.38-.34-10.48-.89-15.21-1.61l82-23.2A18,18,0,0,1,218.75,186.75Z"/><path class="cls-9" d="M186.55,175.25l-81.06,23c-.55-.32-1.08-.65-1.56-1l78.63-22.5Q184.59,175,186.55,175.25Z"/><path class="cls-9" d="M204.83,179.19l-85.19,24.32q-1.63-.41-3.15-.85L202,178.34Q203.44,178.75,204.83,179.19Z"/><path class="cls-7" d="M208.19,190.67a4.91,4.91,0,0,1,0,.63c-1.17,7.28-22.38,13.1-48.3,13.1s-47.14-5.82-48.3-13.1a5,5,0,0,1,0-.63c0-7.57,21.69-13.73,48.35-13.73S208.19,183.1,208.19,190.67Z"/><path class="cls-6" d="M208.15,191.3c-1.17,7.28-22.38,13.1-48.3,13.1h-1.73a157.75,157.75,0,0,1-16.41-1A108.53,108.53,0,0,1,127.88,201c-1-.26-2-.53-3-.81a34.21,34.21,0,0,1-10.11-4.5,11.81,11.81,0,0,1-1.47-1.24,5.78,5.78,0,0,1-1.77-3.11c1.17-7.28,22.38-13.1,48.3-13.1,3.28,0,6.48.09,9.59.27,1.58.09,3.14.2,4.66.34a117.78,117.78,0,0,1,16.8,2.6c1.05.25,2.07.52,3,.79a41.58,41.58,0,0,1,9.36,3.71c2.32,1.35,3.89,2.81,4.55,4.36A4.17,4.17,0,0,1,208.15,191.3Z"/><path class="cls-10" d="M207.84,190.27l-49.73,14.12a157.75,157.75,0,0,1-16.41-1l61.59-17.49C205.62,187.26,207.18,188.73,207.84,190.27Z"/><path class="cls-10" d="M174.09,178.81l-59.31,16.84a11.81,11.81,0,0,1-1.47-1.24l56.12-15.94C171,178.56,172.57,178.67,174.09,178.81Z"/><path class="cls-10" d="M193.94,182.21,127.88,201c-1-.26-2-.53-3-.81l66-18.74C191.94,181.66,193,181.93,193.94,182.21Z"/><path class="cls-7" d="M166.57,198.46v2.28h-10.2v-2.18a133.53,133.53,0,0,1-18.6-1.44l5.5-3.54A108.84,108.84,0,0,0,160,194.91c4.85,0,6.59-.29,6.59-.78,0-1.81-28-.35-28-5.71,0-2.32,5.93-4.28,17.8-4.75v-2.24h10.2v2.2a118.09,118.09,0,0,1,14.69,1.19l-5.14,3.51A99.13,99.13,0,0,0,162,187.26c-5,0-6.59.41-6.59.9,0,1.73,28,.29,28,5.59C183.43,196,177.78,197.91,166.57,198.46Z"/><path class="cls-8" d="M166.27,197.7V200h-10.2v-2.18a133.53,133.53,0,0,1-18.6-1.44l5.5-3.54a108.84,108.84,0,0,0,16.72,1.32c4.85,0,6.59-.29,6.59-.78,0-1.81-28-.35-28-5.71,0-2.32,5.93-4.28,17.8-4.75v-2.24h10.2v2.2A118.09,118.09,0,0,1,181,184.06l-5.14,3.51a99.13,99.13,0,0,0-14.11-1.07c-5,0-6.59.41-6.59.9,0,1.73,28,.29,28,5.59C183.13,195.22,177.49,197.15,166.27,197.7Z"/><path class="cls-6" d="M227.32,182.63c0,.06,0,.11,0,.17,0,2.1-1.12,4.11-3.18,6a18.58,18.58,0,0,1-1.68,1.35,34.07,34.07,0,0,1-6.35,3.49q-.81.35-1.68.69c-1.94.76-4.06,1.48-6.35,2.14l-1.68.47c-2,.54-4.13,1-6.35,1.49l-1.68.33q-3.06.58-6.35,1l-1.68.23q-3.09.4-6.35.7l-1.68.14q-3.11.26-6.35.41l-1.68.07q-3.13.12-6.35.14h-1.68q-3.22,0-6.35-.12l-1.68-.07q-2.38-.1-4.71-.27l-1.65-.12-1.68-.14q-3.25-.28-6.35-.68l-1.68-.22q-2-.27-3.87-.58l-2.49-.44-1.68-.32c-2.22-.44-4.34-.93-6.35-1.45l-1.18-.31-.5-.14c-.91-.25-1.79-.52-2.65-.79q-1.95-.62-3.7-1.29l-1.68-.67a38.42,38.42,0,0,1-5.63-2.87l-.72-.47q-.44-.3-.84-.6c-.29-.22-.57-.44-.84-.66-2.42-2-3.75-4.21-3.75-6.49q0-.24,0-.48V169.41h121l0,13.41Z"/><path class="cls-7" d="M111.72,169.4v21.15q-.44-.3-.84-.6c-.29-.22-.57-.44-.84-.66V169.4Z"/><path class="cls-7" d="M119.75,169.39v25.17l-1.68-.67v-24.5Z"/><path class="cls-7" d="M127.78,169.37v27.71l-1.18-.31-.5-.14V169.38Z"/><path class="cls-7" d="M135.81,169.36v29.5l-1.68-.32V169.37Z"/><path class="cls-7" d="M143.84,169.35V200.1l-1.68-.22V169.35Z"/><path class="cls-7" d="M151.87,169.34v31.58l-1.68-.14V169.34Z"/><path class="cls-7" d="M159.9,169.33v32l-1.68-.07v-32Z"/><path class="cls-7" d="M167.93,169.32v32.18h-1.68V169.32Z"/><path class="cls-7" d="M176,169.3v32l-1.68.07v-32Z"/><path class="cls-7" d="M184,169.29v31.44l-1.68.14V169.29Z"/><path class="cls-7" d="M192,169.28V199.8l-1.68.23V169.28Z"/><path class="cls-7" d="M200,169.27v29.16l-1.68.33V169.27Z"/><path class="cls-7" d="M208.08,169.26v27.22l-1.68.47V169.26Z"/><path class="cls-7" d="M216.11,169.25v24.4q-.81.35-1.68.69V169.25Z"/><path class="cls-7" d="M224.14,169.23V188.8a18.58,18.58,0,0,1-1.68,1.35V169.24Z"/><path class="cls-8" d="M227.31,169.39c0,9.49-27.08,17.18-60.49,17.18-4.57,0-9-.14-13.29-.42-5.38-.34-10.48-.89-15.21-1.61-4.22-.64-8.15-1.42-11.69-2.32q-1.63-.41-3.15-.85a50.6,50.6,0,0,1-11-4.44c-.55-.32-1.08-.65-1.56-1-3-2-4.58-4.24-4.58-6.57a4,4,0,0,1,0-.64c1.17-9.19,27.79-16.54,60.44-16.54a200,200,0,0,1,22.72,1.25q2,.23,4,.51a122.54,122.54,0,0,1,15.4,3.08q1.49.41,2.88.85a50.21,50.21,0,0,1,8.48,3.44,18,18,0,0,1,5.44,4.12,6.5,6.5,0,0,1,1.54,3.29A4.06,4.06,0,0,1,227.31,169.39Z"/><path class="cls-9" d="M225.72,165.47l-72.19,20.69c-5.38-.34-10.48-.89-15.21-1.61l82-23.2A18,18,0,0,1,225.72,165.47Z"/><path class="cls-9" d="M193.52,154l-81.06,23c-.55-.32-1.08-.65-1.56-1l78.63-22.5Q191.57,153.7,193.52,154Z"/><path class="cls-9" d="M211.8,157.91l-85.19,24.32q-1.63-.41-3.15-.85l85.45-24.32Q210.41,157.47,211.8,157.91Z"/><path class="cls-7" d="M215.16,169.39a4.91,4.91,0,0,1,0,.63c-1.17,7.28-22.38,13.1-48.3,13.1s-47.14-5.82-48.3-13.1a4.94,4.94,0,0,1,0-.63c0-7.57,21.69-13.73,48.35-13.73S215.16,161.82,215.16,169.39Z"/><path class="cls-6" d="M215.12,170c-1.17,7.28-22.38,13.1-48.3,13.1h-1.73a157.72,157.72,0,0,1-16.41-1,108.55,108.55,0,0,1-13.83-2.44c-1-.26-2-.53-3-.81a34.21,34.21,0,0,1-10.11-4.5,11.81,11.81,0,0,1-1.47-1.24,5.78,5.78,0,0,1-1.77-3.11c1.17-7.28,22.38-13.1,48.3-13.1,3.28,0,6.48.09,9.59.27,1.58.09,3.14.2,4.66.34a117.79,117.79,0,0,1,16.8,2.6c1.05.25,2.07.52,3,.79a41.58,41.58,0,0,1,9.36,3.71c2.32,1.35,3.89,2.81,4.55,4.36A4.17,4.17,0,0,1,215.12,170Z"/><path class="cls-10" d="M214.81,169l-49.73,14.12a157.72,157.72,0,0,1-16.41-1l61.59-17.49C212.59,166,214.15,167.45,214.81,169Z"/><path class="cls-10" d="M181.06,157.53l-59.31,16.84a11.81,11.81,0,0,1-1.47-1.24l56.12-15.94C178,157.28,179.54,157.39,181.06,157.53Z"/><path class="cls-10" d="M200.91,160.93l-66.06,18.76c-1-.26-2-.53-3-.81l66-18.74C198.91,160.38,199.93,160.65,200.91,160.93Z"/><path class="cls-7" d="M173.54,177.18v2.28h-10.2v-2.18a133.53,133.53,0,0,1-18.6-1.44l5.5-3.54A108.84,108.84,0,0,0,167,173.63c4.85,0,6.59-.29,6.59-.78,0-1.81-28-.35-28-5.71,0-2.32,5.93-4.28,17.8-4.75v-2.24h10.2v2.2a118.07,118.07,0,0,1,14.69,1.19l-5.14,3.51A99.13,99.13,0,0,0,169,166c-5,0-6.59.41-6.59.9,0,1.73,28,.29,28,5.59C190.4,174.7,184.75,176.63,173.54,177.18Z"/><path class="cls-8" d="M173.24,176.42v2.28H163v-2.18a133.53,133.53,0,0,1-18.6-1.44l5.5-3.54a108.84,108.84,0,0,0,16.72,1.32c4.85,0,6.59-.29,6.59-.78,0-1.81-28-.35-28-5.71,0-2.32,5.93-4.27,17.8-4.75v-2.24h10.2v2.2a118.07,118.07,0,0,1,14.69,1.19l-5.14,3.51a99.13,99.13,0,0,0-14.11-1.07c-5,0-6.59.41-6.59.9,0,1.73,28,.29,28,5.59C190.1,173.94,184.46,175.87,173.24,176.42Z"/><path class="cls-6" d="M228.15,161.29c0,.06,0,.11,0,.17,0,2.1-1.12,4.11-3.18,6a18.58,18.58,0,0,1-1.68,1.35,34.08,34.08,0,0,1-6.35,3.49q-.81.35-1.68.69c-1.94.76-4.06,1.48-6.35,2.14l-1.68.47c-2,.54-4.13,1-6.35,1.49l-1.68.33q-3.06.58-6.35,1l-1.68.23q-3.09.4-6.35.7l-1.68.14q-3.11.26-6.35.41l-1.68.07q-3.13.12-6.35.14h-1.68q-3.22,0-6.35-.12l-1.68-.07q-2.38-.1-4.71-.27l-1.65-.12-1.68-.14q-3.25-.28-6.35-.68l-1.68-.22q-2-.27-3.87-.58l-2.49-.44-1.68-.32c-2.22-.44-4.34-.93-6.35-1.45l-1.18-.31-.5-.14c-.91-.25-1.79-.52-2.65-.79q-1.95-.62-3.7-1.29l-1.68-.67a38.4,38.4,0,0,1-5.63-2.87l-.72-.47q-.44-.29-.84-.6c-.29-.22-.57-.44-.84-.66-2.42-2-3.75-4.21-3.75-6.49q0-.24,0-.48V148.07h121l0,13.41Z"/><path class="cls-7" d="M112.55,148.06V169.2q-.44-.29-.84-.6c-.29-.22-.57-.44-.84-.66V148.06Z"/><path class="cls-7" d="M120.58,148v25.17l-1.68-.67V148Z"/><path class="cls-7" d="M128.61,148v27.71l-1.18-.31-.5-.14V148Z"/><path class="cls-7" d="M136.65,148v29.5l-1.68-.32V148Z"/><path class="cls-7" d="M144.67,148v30.75l-1.68-.22V148Z"/><path class="cls-7" d="M152.7,148v31.58l-1.68-.14V148Z"/><path class="cls-7" d="M160.73,148v32l-1.68-.07V148Z"/><path class="cls-7" d="M168.76,148v32.18h-1.68V148Z"/><path class="cls-7" d="M176.79,148v32l-1.68.07V148Z"/><path class="cls-7" d="M184.82,148v31.44l-1.68.14V148Z"/><path class="cls-7" d="M192.85,147.94v30.52l-1.68.23V147.94Z"/><path class="cls-7" d="M200.88,147.93v29.16l-1.68.33V147.93Z"/><path class="cls-7" d="M208.91,147.91v27.22l-1.68.47V147.92Z"/><path class="cls-7" d="M216.94,147.9v24.4q-.81.35-1.68.69V147.9Z"/><path class="cls-7" d="M225,147.89v19.57a18.58,18.58,0,0,1-1.68,1.35V147.89Z"/><path class="cls-8" d="M228.14,148c0,9.49-27.08,17.18-60.49,17.18-4.57,0-9-.14-13.29-.42-5.38-.34-10.48-.89-15.21-1.61-4.22-.64-8.15-1.42-11.69-2.32q-1.63-.41-3.15-.85a50.59,50.59,0,0,1-11-4.44c-.55-.32-1.08-.65-1.56-1-3-2-4.58-4.24-4.58-6.57a4.05,4.05,0,0,1,0-.64c1.17-9.19,27.79-16.54,60.44-16.54a200,200,0,0,1,22.72,1.25q2,.23,4,.51a122.55,122.55,0,0,1,15.4,3.08q1.49.41,2.88.85a50.21,50.21,0,0,1,8.48,3.44,18,18,0,0,1,5.44,4.12,6.5,6.5,0,0,1,1.54,3.29A4.05,4.05,0,0,1,228.14,148Z"/><path class="cls-9" d="M226.55,144.13l-72.19,20.69c-5.38-.34-10.48-.89-15.21-1.61l82-23.2A18,18,0,0,1,226.55,144.13Z"/><path class="cls-9" d="M194.36,132.63l-81.06,23c-.55-.32-1.08-.65-1.56-1l78.63-22.5Q192.4,132.36,194.36,132.63Z"/><path class="cls-9" d="M212.64,136.56l-85.19,24.32q-1.63-.41-3.15-.85l85.45-24.32Q211.25,136.13,212.64,136.56Z"/><path class="cls-7" d="M216,148a4.91,4.91,0,0,1,0,.63c-1.17,7.28-22.38,13.1-48.3,13.1s-47.14-5.82-48.3-13.1a5,5,0,0,1,0-.63c0-7.57,21.69-13.73,48.35-13.73S216,140.48,216,148Z"/><path class="cls-6" d="M216,148.68c-1.17,7.28-22.38,13.1-48.3,13.1h-1.73a157.75,157.75,0,0,1-16.41-1,108.53,108.53,0,0,1-13.83-2.44c-1-.26-2-.53-3-.81a34.21,34.21,0,0,1-10.11-4.5,11.79,11.79,0,0,1-1.47-1.24,5.78,5.78,0,0,1-1.77-3.11c1.17-7.28,22.38-13.1,48.3-13.1,3.28,0,6.48.09,9.59.27,1.58.09,3.14.2,4.66.34a117.81,117.81,0,0,1,16.8,2.6c1.05.25,2.07.52,3,.79a41.58,41.58,0,0,1,9.36,3.71c2.32,1.35,3.89,2.81,4.55,4.36A4.17,4.17,0,0,1,216,148.68Z"/><path class="cls-10" d="M215.65,147.65l-49.73,14.12a157.75,157.75,0,0,1-16.41-1l61.59-17.49C213.42,144.64,215,146.1,215.65,147.65Z"/><path class="cls-10" d="M181.9,136.19,122.59,153a11.79,11.79,0,0,1-1.47-1.24l56.12-15.94C178.81,135.94,180.37,136.05,181.9,136.19Z"/><path class="cls-10" d="M201.74,139.58l-66.06,18.76c-1-.26-2-.53-3-.81l66-18.74C199.75,139,200.76,139.31,201.74,139.58Z"/><path class="cls-7" d="M174.37,155.84v2.28h-10.2v-2.18a133.53,133.53,0,0,1-18.6-1.44l5.5-3.54a108.85,108.85,0,0,0,16.72,1.32c4.85,0,6.59-.29,6.59-.78,0-1.81-28-.35-28-5.71,0-2.32,5.93-4.28,17.8-4.75V138.8h10.2V141a118.09,118.09,0,0,1,14.69,1.19l-5.14,3.51a99.13,99.13,0,0,0-14.11-1.07c-5,0-6.59.41-6.59.9,0,1.73,28,.29,28,5.59C191.23,153.35,185.59,155.29,174.37,155.84Z"/><path class="cls-8" d="M174.07,155.08v2.28h-10.2v-2.18a133.53,133.53,0,0,1-18.6-1.44l5.5-3.54a108.85,108.85,0,0,0,16.72,1.32c4.85,0,6.59-.29,6.59-.78,0-1.81-28-.35-28-5.71,0-2.32,5.93-4.28,17.8-4.75V138h10.2v2.2a118.09,118.09,0,0,1,14.69,1.19l-5.14,3.51a99.13,99.13,0,0,0-14.11-1.07c-5,0-6.59.41-6.59.9,0,1.73,28,.29,28,5.59C190.94,152.59,185.29,154.53,174.07,155.08Z"/><path class="cls-8" d="M245.35,255.4a55.25,55.25,0,0,1-93.63,37.48Q150.29,291.5,149,290a55.33,55.33,0,0,1-9.47-14.67q-.7-1.58-1.29-3.2a55.08,55.08,0,0,1-3.31-21.29q0-1,.13-2a55.3,55.3,0,0,1,78-46q1.82.83,3.58,1.79a55.36,55.36,0,0,1,13.65,10.5q1.31,1.38,2.52,2.84a55,55,0,0,1,12.67,35.45C245.39,254,245.38,254.72,245.35,255.4Z"/><path class="cls-9" d="M244.42,242.73l-68.65,63.79a54.81,54.81,0,0,1-13.68-5.74L240,229.28A55,55,0,0,1,244.42,242.73Z"/><path class="cls-9" d="M216.55,204.57,139.5,275.35q-.7-1.58-1.29-3.2L213,202.78Q214.8,203.61,216.55,204.57Z"/><path class="cls-9" d="M232.72,217.9l-81,75Q150.29,291.5,149,290l81.24-75Q231.51,216.44,232.72,217.9Z"/><path class="cls-7" d="M234.26,254.95c0,.68-.07,1.35-.13,2a44.18,44.18,0,0,1-88.2-3.64c0-.67,0-1.35,0-2a44.18,44.18,0,1,1,88.28,3.64Z"/><path class="cls-6" d="M234.14,257a44.24,44.24,0,0,1-45.83,40.3c-.53,0-1.05-.06-1.58-.1A44,44,0,0,1,159.58,285q-1.36-1.31-2.61-2.72a44.25,44.25,0,0,1-8.64-14.86,42.14,42.14,0,0,1-1.18-4,43.83,43.83,0,0,1-1.21-10.05,44.19,44.19,0,0,1,54.55-39.07,43.11,43.11,0,0,1,4.21,1.26,44.13,44.13,0,0,1,15,9q1.39,1.27,2.68,2.66A44,44,0,0,1,234,253.65C234.09,254.74,234.13,255.86,234.14,257Z"/><path class="cls-10" d="M234,253.65l-47.27,43.53a43.85,43.85,0,0,1-14.85-3.81l58.54-53.91A43.93,43.93,0,0,1,234,253.65Z"/><path class="cls-10" d="M204.7,215.53l-56.38,51.91a42.14,42.14,0,0,1-1.18-4l53.34-49.12A43.11,43.11,0,0,1,204.7,215.53Z"/><path class="cls-10" d="M222.37,227.2,159.58,285q-1.36-1.31-2.61-2.72l62.73-57.76Q221.08,225.8,222.37,227.2Z"/><path class="cls-7" d="M195.23,278.43l-.3,7.33-9.32-.38.29-7c-6.59-.67-12.93-2.72-16.79-5.32l5.49-11.16a31.76,31.76,0,0,0,15.09,4.86c4.43.18,6.05-.68,6.12-2.26.24-5.81-25.52-2.18-24.81-19.42.31-7.47,6-13.52,16.88-14.59l.3-7.2,9.32.38-.29,7.07a34.54,34.54,0,0,1,13.25,4.39l-5.16,11.1a28.56,28.56,0,0,0-12.74-4c-4.56-.19-6.07,1.07-6.13,2.66-.23,5.55,25.53,2,24.83,19C211,271.07,205.54,277.06,195.23,278.43Z"/><path class="cls-8" d="M195.06,276l-.3,7.33-9.32-.38.29-7c-6.59-.67-12.93-2.72-16.79-5.32l5.49-11.16a31.76,31.76,0,0,0,15.09,4.86c4.43.18,6.05-.68,6.12-2.26.24-5.81-25.52-2.18-24.81-19.42.31-7.47,6-13.52,16.88-14.59l.3-7.2,9.32.38-.29,7.07a34.54,34.54,0,0,1,13.25,4.39l-5.16,11.1a28.56,28.56,0,0,0-12.74-4c-4.56-.19-6.07,1.07-6.13,2.66-.23,5.55,25.53,2,24.83,19C210.78,268.61,205.37,274.61,195.06,276Z"/><path class="cls-11" d="M86,290.32H95.4l6-72.16L94.66,152,69.3,149.6,84.51,225C80.21,242.48,83.8,264.79,86,290.32Z"/><path class="cls-12" d="M85.74,289.75a4.38,4.38,0,0,0-.57,2.42c0,1.63.16,7.26.16,7.26h27.47a8.16,8.16,0,0,0-3.38-6.56c-3.48-2.28-8.83,0-13.94-3.64C95.49,289.24,94.12,290.49,85.74,289.75Z"/><path class="cls-13" d="M34.62,289.78C36.43,270.22,45,230.86,50.4,222.37l.05-73.79,24.79,5.87-7.41,68.08L44.12,289.24C41.29,290.82,38,290.52,34.62,289.78Z"/><path class="cls-12" d="M34.62,289.78a4.31,4.31,0,0,0-.63,2.46v7.19H61.44a8.16,8.16,0,0,0-3.38-6.56c-3.48-2.28-8.83,0-13.94-3.64C44.12,289.24,43,290.51,34.62,289.78Z"/><path class="cls-14" d="M96.18,152.29c-1.19,2-5.27,3.56-8.78,4.43l-.72.17c-.61.14-1.2.25-1.74.34a104.48,104.48,0,0,1-17.4,1.41,27.9,27.9,0,0,1-3.41-.22l-.72-.09c-6.07-.88-12.82-3.51-16.21-6.89l4.89-22.1L42.61,74.4l12.6-4.34.68-.23,2.83-1L61,68.08,74.3,69.84l2.17.28.77.1,9.54,1.26Z"/><path class="cls-13" d="M85.76,38.07s10.11-6.58,7.19-10.72c-1.28-1.82-6.74.59-6.74.59S93.86,22,90.1,19.84c-3.28-1.9-8,2.89-8,2.89S86.47,18,83.16,17c-4.55-1.33-9.81,2.82-17,4.37-7.74,1.68-15.59,8.68-9.62,19Z"/><path class="cls-15" d="M72.5,60.81l-.62,7.53-.28,3.45c-4.43,3.1-11.37-1.51-11.37-1.51l-.31-11.83C62,57.15,67,59,70,60,71.5,60.44,72.5,60.81,72.5,60.81Z"/><path class="cls-16" d="M72.5,60.81l-.62,7.53c-5.07-1.31-9.16-8.49-9.16-8.49L70,60C71.5,60.44,72.5,60.81,72.5,60.81Z"/><path class="cls-15" d="M86.79,41.67c0,.26,0,.52,0,.78a118.1,118.1,0,0,1-2.14,15.14,9,9,0,0,1-10.77,7A98.89,98.89,0,0,1,62.4,61.37a8.11,8.11,0,0,1-3-2,8,8,0,0,1-1.56-2.29A27.16,27.16,0,0,1,56,51.21a41.62,41.62,0,0,1-.66-5,2.44,2.44,0,0,0,0-.3c0-.91.05-1.82.09-2.72h0C55.57,37.69,56,33,56,33c7.37-8.71,27.23-4.75,30.1,1.82.05.12.1.25.15.38A19.06,19.06,0,0,1,86.79,41.67Z"/><path class="cls-13" d="M59.36,59.39a8,8,0,0,1-1.56-2.29A27.16,27.16,0,0,1,56,51.21a5.28,5.28,0,0,1,3.08.53S63.15,58,59.36,59.39Z"/><path class="cls-13" d="M86.21,35.16h0C80.14,39.06,70,33.54,70,33.54c-.66,2.73-4.66,2.57-5.73,4.87a14.73,14.73,0,0,0-1,4.58,2.13,2.13,0,0,1-2.18,2h0c-2.59-3.77-5.83-1.77-5.83-1.77h0C55.57,37.69,56,33,56,33c7.37-8.71,27.23-4.75,30.1,1.82C86.11,34.9,86.16,35,86.21,35.16Z"/><path class="cls-15" d="M61.18,44.95s-3.1-3.95-5.83-1.77c-3,2.4-1,10.83,5,10.79Z"/><path class="cls-17" d="M86.78,71.49s18.1,36.24,21.94,47.08c0,0,20.1.51,28.57,0L135,128.51s-20.87,2.19-27.61,2.7c-6.16.46-15.84-18.5-15.84-18.5Z"/><path class="cls-8" d="M174.46,93.69a55.25,55.25,0,0,1-76.35,65.89q-1.8-.84-3.54-1.81A55.33,55.33,0,0,1,80.85,147q-1.17-1.27-2.26-2.61A55.08,55.08,0,0,1,68.53,125.3q-.29-1-.54-2a55.3,55.3,0,0,1,58.75-68.87q2,.19,4,.53A55.36,55.36,0,0,1,147,60.46q1.68.88,3.3,1.87a55,55,0,0,1,23.51,29.4C174.06,92.38,174.27,93,174.46,93.69Z"/><path class="cls-9" d="M169.46,82l-44.18,82.64a54.81,54.81,0,0,1-14.8-1l50.43-92.95A54.94,54.94,0,0,1,169.46,82Z"/><path class="cls-9" d="M130.7,55,80.85,147q-1.17-1.27-2.26-2.61l48.15-89.9Q128.73,54.64,130.7,55Z"/><path class="cls-9" d="M150.32,62.33,98.11,159.57q-1.8-.84-3.54-1.81L147,60.46Q148.7,61.34,150.32,62.33Z"/><path class="cls-7" d="M163.83,96.86c.19.65.37,1.3.54,2a44.18,44.18,0,0,1-84.59,25.24c-.22-.64-.43-1.28-.62-1.93a44.18,44.18,0,1,1,84.67-25.27Z"/><path class="cls-6" d="M164.37,98.81a44.24,44.24,0,0,1-30.24,53c-.51.15-1,.29-1.52.42A44,44,0,0,1,103,149.58q-1.71-.79-3.36-1.73a44.25,44.25,0,0,1-13-11.24c-.86-1.1-1.68-2.25-2.43-3.44a43.84,43.84,0,0,1-4.41-9.11,44.19,44.19,0,0,1,38.88-54.68,43.16,43.16,0,0,1,4.39-.18,44.13,44.13,0,0,1,17.1,3.64q1.73.75,3.4,1.65a44,44,0,0,1,19.59,21.24C163.6,96.72,164,97.76,164.37,98.81Z"/><path class="cls-10" d="M163.15,95.72l-30.55,56.53a43.85,43.85,0,0,1-15.28,1.23l37.83-70A43.92,43.92,0,0,1,163.15,95.72Z"/><path class="cls-10" d="M123.06,69.19,86.62,136.61c-.86-1.1-1.68-2.25-2.43-3.44l34.47-63.79A43.16,43.16,0,0,1,123.06,69.19Z"/><path class="cls-10" d="M143.56,74.48,103,149.58q-1.71-.79-3.36-1.73l40.54-75Q141.89,73.58,143.56,74.48Z"/><path class="cls-7" d="M134.55,131.75l2.1,7-8.93,2.67-2-6.72c-6.45,1.51-13.11,1.63-17.61.42l1.56-12.34a31.76,31.76,0,0,0,15.85-.31c4.25-1.27,5.5-2.61,5-4.13-1.66-5.58-24.84,6.24-29.78-10.3C98.64,100.92,102,93.35,112,88.8l-2.06-6.91,8.93-2.67,2,6.78a34.54,34.54,0,0,1,14-.16L133.59,98a28.56,28.56,0,0,0-13.34.39c-4.37,1.3-5.39,3-4.93,4.51,1.59,5.32,24.79-6.43,29.67,9.92C147,119.68,143.86,127.11,134.55,131.75Z"/><path class="cls-8" d="M133.59,129.49l2.1,7-8.93,2.67-2-6.72c-6.45,1.51-13.11,1.63-17.61.42l1.56-12.34a31.76,31.76,0,0,0,15.85-.31c4.25-1.27,5.5-2.61,5-4.13-1.66-5.58-24.84,6.24-29.78-10.3-2.14-7.16,1.26-14.73,11.22-19.29L109,79.63,117.92,77l2,6.78a34.54,34.54,0,0,1,14-.16l-1.27,12.18a28.56,28.56,0,0,0-13.34.39c-4.37,1.3-5.39,3-4.93,4.51,1.59,5.32,24.79-6.43,29.67,9.92C146.07,117.42,142.9,124.85,133.59,129.49Z"/><path class="cls-17" d="M100.26,130.14c-20,7.58-41.8-1.72-41.8-1.72S43,112.93,39.34,96.17,42.61,74.4,42.61,74.4c12.27,31.45,22.28,44.17,22.28,44.17s16.84,2.84,24.83,3.93c4.34.59,10.55-1.36,10.55-1.36A29.4,29.4,0,0,1,100.26,130.14Z"/><path class="cls-15" d="M100.26,121.13s3.09-3.74,4.61-3.74,2.43,1.87,2.43,1.87,4.08-1.42,5.9.51,2.52,14.48-12.93,10.37Z"/></g></g></svg>