<svg xmlns="http://www.w3.org/2000/svg" viewBox="0 0 219.56 184.21"><defs><style>.cls-1{isolation:isolate;}.cls-2{fill:#93b7fa;}.cls-3{fill:#648bd4;}.cls-23,.cls-4,.cls-8{fill:none;}.cls-4{stroke:#eaebfb;stroke-width:0.99px;}.cls-23,.cls-4{stroke-linecap:round;stroke-linejoin:round;}.cls-5{fill:#ecedfd;}.cls-6{fill:#fff;}.cls-7{fill:#c9cdea;}.cls-8{stroke:#8b94c8;stroke-miterlimit:10;stroke-width:1.04px;}.cls-9{fill:#bec2df;}.cls-10{fill:#6d99d7;}.cls-11{fill:#e3e4f7;}.cls-12{fill:#95b9fc;}.cls-13{fill:#583bf9;}.cls-14{fill:#e5be9c;}.cls-15{fill:#d4667c;}.cls-16{fill:#df7383;}.cls-17{fill:#cacaca;opacity:0.44;mix-blend-mode:multiply;}.cls-18{fill:#29323d;}.cls-19{fill:#dfb48f;}.cls-20{fill:#282c3c;}.cls-21{fill:#3d415b;}.cls-22{fill:#2a2f45;}.cls-23{stroke:#e5be9c;stroke-width:1.52px;}.cls-24{fill:#8992c6;}</style></defs><title>configure</title><g class="cls-1"><g id="Capa_2" data-name="Capa 2"><g id="OBJECTS"><path class="cls-2" d="M15.66,149.85c-.43.08-11.55,0-13.25-10.09s5-13.48,1.83-24.62-8.38-13.83,1.46-23.39c0,0,4.43-3.9,4.11-8.61-.39-5.63,8.52-13.27,15.44-10.29s6.08,8.93,1.62,18.92,1.09,11,2.51,13.89,4.27,5.77-.55,13.66,3,15.9-1,23.38C27.78,142.71,24.14,148.32,15.66,149.85Z"/><path class="cls-3" d="M19.21,165.28a.47.47,0,0,0,.28-.57C9.95,134.27,17,90.42,17,90a.47.47,0,0,0-.92-.15C16.05,90.27,9,134.34,18.6,165a.47.47,0,0,0,.58.31Z"/><path class="cls-3" d="M14.88,107.12l.07,0a.47.47,0,0,0,.16-.64,62.56,62.56,0,0,1-4.68-9.84.47.47,0,1,0-.88.3,63.53,63.53,0,0,0,4.76,10A.47.47,0,0,0,14.88,107.12Z"/><path class="cls-3" d="M14.4,116.72a.46.46,0,0,0,.17-.11c2.1-2.2,7.53-6.51,7.59-6.55a.47.47,0,1,0-.58-.73c-.22.18-5.53,4.39-7.68,6.64a.47.47,0,0,0,.5.76Z"/><path class="cls-3" d="M14.16,126l.09,0a.47.47,0,0,0,.13-.65l-4-6.06a.47.47,0,1,0-.78.52l4,6.06A.47.47,0,0,0,14.16,126Z"/><path class="cls-4" d="M168.42,8.07a27.84,27.84,0,0,0-2-2.12c-1.39-1.2-3-3.32-8.1-1.76a12,12,0,0,0-1.16.44,3.75,3.75,0,0,1-3.28-.94C151.58,1.9,150.69.54,147.58.5c-3.62,0-4.19,4.46-7,5.62-1.79.74-6.51,1.47-7.49,1.79Z"/><path class="cls-5" d="M188.24,46.65a24.67,24.67,0,0,1,1.8-1.88c1.23-1.06,2.65-2.94,7.18-1.55a10.59,10.59,0,0,1,1,.39,3.33,3.33,0,0,0,2.9-.83c2-1.6,2.8-2.8,5.56-2.84,3.21,0,3.71,4,6.2,5,1.59.65,5.77,1.3,6.64,1.59Z"/><path class="cls-6" d="M159,59.41l-.35-1-.35,1a3.48,3.48,0,0,1-1.94,2h0a3.49,3.49,0,0,1,1.94,2l.35,1,.35-1a3.49,3.49,0,0,1,1.94-2h0A3.48,3.48,0,0,1,159,59.41Z"/><path class="cls-6" d="M179.36,143l-.35-1-.35,1a3.49,3.49,0,0,1-1.94,2h0a3.49,3.49,0,0,1,1.94,2l.35,1,.35-1a3.49,3.49,0,0,1,1.94-2h0A3.49,3.49,0,0,1,179.36,143Z"/><path class="cls-6" d="M42.26,98.42l-.58-1.67-.58,1.67a5.84,5.84,0,0,1-3.25,3.31h0A5.84,5.84,0,0,1,41.09,105l.58,1.67.58-1.67a5.84,5.84,0,0,1,3.25-3.31h0A5.84,5.84,0,0,1,42.26,98.42Z"/><rect class="cls-7" x="52.21" y="19.65" width="73.41" height="145.24" rx="7.69" ry="7.69"/><rect class="cls-6" x="57.4" y="24" width="62.77" height="121" rx="6.49" ry="6.49"/><circle class="cls-8" cx="88.92" cy="155.34" r="5.74"/><path class="cls-9" d="M121.57,25.73H56a1.92,1.92,0,0,1,1.92-1.93h61.72a1.93,1.93,0,0,1,1.93,1.93Z"/><path class="cls-9" d="M41.21,43.6H51.73a0,0,0,0,1,0,0v3.05a4.21,4.21,0,0,1-4.21,4.21h-2.1a4.21,4.21,0,0,1-4.21-4.21V43.6A0,0,0,0,1,41.21,43.6Z"/><path class="cls-10" d="M51.73,43.6H63.07a0,0,0,0,1,0,0v3.05a4.21,4.21,0,0,1-4.21,4.21H55.94a4.21,4.21,0,0,1-4.21-4.21V43.6A0,0,0,0,1,51.73,43.6Z"/><path class="cls-9" d="M69.46,50.86H67.28a4.21,4.21,0,0,1-4.21-4.21V43.6h10.6v3.05A4.21,4.21,0,0,1,69.46,50.86Z"/><path class="cls-10" d="M73.68,43.6h10a0,0,0,0,1,0,0v3.05a4.21,4.21,0,0,1-4.21,4.21H77.89a4.21,4.21,0,0,1-4.21-4.21V43.6A0,0,0,0,1,73.68,43.6Z"/><polygon class="cls-11" points="56.01 25.73 41.21 43.6 88.79 43.6 88.79 25.73 56.01 25.73"/><polygon class="cls-12" points="62.4 25.73 51.73 43.6 88.79 43.6 88.79 25.73 62.4 25.73"/><polygon class="cls-11" points="70.08 25.73 63.07 43.6 88.79 43.6 88.79 25.73 70.08 25.73"/><polygon class="cls-12" points="77.27 25.73 73.68 43.6 88.79 43.6 88.79 25.73 77.27 25.73"/><path class="cls-9" d="M83.71,43.6v3.73c0,2,2.25,3.53,5,3.53h.11c2.77,0,5-1.58,5-3.53V43.6Z"/><path class="cls-9" d="M130.06,50.86h2.1a4.21,4.21,0,0,0,4.21-4.21V43.6H125.85v3.05A4.21,4.21,0,0,0,130.06,50.86Z"/><path class="cls-10" d="M118.72,43.6h2.92a4.21,4.21,0,0,1,4.21,4.21v3.05a0,0,0,0,1,0,0H114.51a0,0,0,0,1,0,0V47.81A4.21,4.21,0,0,1,118.72,43.6Z" transform="translate(240.35 94.46) rotate(180)"/><path class="cls-9" d="M108.11,50.86h2.18a4.21,4.21,0,0,0,4.21-4.21V43.6H103.9v3.05A4.21,4.21,0,0,0,108.11,50.86Z"/><path class="cls-10" d="M98.08,43.6h1.61a4.21,4.21,0,0,1,4.21,4.21v3.05a0,0,0,0,1,0,0h-10a0,0,0,0,1,0,0V47.81A4.21,4.21,0,0,1,98.08,43.6Z" transform="translate(197.77 94.46) rotate(180)"/><polygon class="cls-11" points="121.57 25.73 88.79 25.73 88.79 43.6 136.37 43.6 121.57 25.73"/><polygon class="cls-12" points="115.18 25.73 88.79 25.73 88.79 43.6 125.85 43.6 115.18 25.73"/><polygon class="cls-11" points="88.79 25.73 88.79 43.6 114.5 43.6 107.5 25.73 88.79 25.73"/><polygon class="cls-12" points="88.79 25.73 88.79 43.6 103.9 43.6 100.31 25.73 88.79 25.73"/><polygon class="cls-11" points="85.17 25.73 83.71 43.6 93.86 43.6 92.41 25.73 85.17 25.73"/><rect class="cls-10" x="62.4" y="23.81" width="7.63" height="1.93"/><rect class="cls-10" x="107.5" y="23.81" width="7.68" height="1.93"/><rect class="cls-10" x="77.27" y="23.81" width="7.9" height="1.93"/><rect class="cls-10" x="92.41" y="23.81" width="7.9" height="1.93"/><rect class="cls-5" x="65.79" y="90.84" width="45.36" height="39.08" rx="4.32" ry="4.32"/><rect class="cls-5" x="65.79" y="63.64" width="45.36" height="18.32" rx="4.32" ry="4.32"/><path class="cls-13" d="M97.35,99.57H73.64a.82.82,0,0,1-.82-.82h0a.82.82,0,0,1,.82-.82H97.35a.82.82,0,0,1,.82.82h0A.82.82,0,0,1,97.35,99.57Z"/><path class="cls-13" d="M89.56,104.81H73.64a.82.82,0,0,1-.82-.82h0a.82.82,0,0,1,.82-.82H89.56a.82.82,0,0,1,.82.82h0A.82.82,0,0,1,89.56,104.81Z"/><polygon class="cls-13" points="75.2 108.37 75.94 109.87 77.59 110.11 76.4 111.28 76.68 112.92 75.2 112.14 73.73 112.92 74.01 111.28 72.81 110.11 74.47 109.87 75.2 108.37"/><polygon class="cls-13" points="81.84 108.37 82.58 109.87 84.23 110.11 83.03 111.28 83.32 112.92 81.84 112.14 80.36 112.92 80.64 111.28 79.45 110.11 81.1 109.87 81.84 108.37"/><polygon class="cls-13" points="88.48 108.37 89.21 109.87 90.87 110.11 89.67 111.28 89.95 112.92 88.48 112.14 87 112.92 87.28 111.28 86.08 110.11 87.74 109.87 88.48 108.37"/><polygon class="cls-12" points="95.11 108.37 95.85 109.87 97.5 110.11 96.31 111.28 96.59 112.92 95.11 112.14 93.63 112.92 93.92 111.28 92.72 110.11 94.37 109.87 95.11 108.37"/><polygon class="cls-12" points="101.75 108.37 102.49 109.87 104.14 110.11 102.94 111.28 103.22 112.92 101.75 112.14 100.27 112.92 100.55 111.28 99.36 110.11 101.01 109.87 101.75 108.37"/><rect class="cls-12" x="72.81" y="115.7" width="31.32" height="8.04" rx="1.81" ry="1.81"/><path class="cls-14" d="M129.24,94.71l-6.66,6-11.43-8.16L108.39,95,122,106.56a1.5,1.5,0,0,0,2.15,0l7.94-7.14Z"/><path class="cls-15" d="M134.24,87.55s-.53-.37-7.17,7.06l5.16,6.92,3-3.32Z"/><path class="cls-14" d="M149.05,94.91l7.87,5,.4,17.16,3.37,1.62,1.92-20.44a1.5,1.5,0,0,0-.77-2l-9.44-5.73Z"/><path class="cls-16" d="M139.63,86.22l-4.59,1a3,3,0,0,0-2.31,2.53l-3.06,25.89,19.07-1.25L150,90a3,3,0,0,0-2.73-3.15Z"/><polygon class="cls-14" points="157.14 176.1 155.72 168.24 151.19 168.87 152.87 176.83 157.14 176.1"/><polygon class="cls-14" points="130.64 175.88 130.92 167.65 126.33 167.5 126.45 175.71 130.64 175.88"/><polygon class="cls-13" points="129.66 115.67 128.1 123.32 149.74 122.28 148.74 114.42 129.66 115.67"/><polygon class="cls-13" points="138.71 120.34 133.85 141.31 132.53 173.28 125.25 172.99 124.78 141.11 128.53 121.28 138.71 120.34"/><polygon class="cls-17" points="137.95 122.85 132.37 123.04 136.82 127.05 137.95 122.85"/><polygon class="cls-13" points="149.61 121.23 151.81 141.58 158.23 172.4 150.81 174.01 142.97 142.83 139.66 120.35 149.61 121.23"/><path class="cls-18" d="M126.45,175.71l4.19.17-.13,6.28-13,.71h0a2.16,2.16,0,0,1,1.71-1.92l7-2.43Z"/><polygon class="cls-7" points="130.51 182.16 117.53 182.87 117.5 183.84 130.48 183.13 130.51 182.16"/><path class="cls-18" d="M152.87,176.83l4.27-.72,1.07,6.18-12.36,1h0a2.23,2.23,0,0,1,1.31-2.24l6.21-1.38Z"/><polygon class="cls-7" points="158.21 182.29 145.84 183.25 146 184.21 158.36 183.25 158.21 182.29"/><path class="cls-19" d="M140.49,89.36l-.48,0a2.35,2.35,0,0,1-2.24-2.43l.31-8.91,5.18.24L143,87.09A2.35,2.35,0,0,1,140.49,89.36Z"/><path class="cls-14" d="M131.07,71.67h12.75a0,0,0,0,1,0,0v7.56a6.27,6.27,0,0,1-6.27,6.27h-.21a6.27,6.27,0,0,1-6.27-6.27V71.67A0,0,0,0,1,131.07,71.67Z" transform="translate(1.86 -3.16) rotate(1.33)"/><path class="cls-20" d="M143.78,77.64H142a.79.79,0,0,1-.77-.94c.26-1.31.57-3.56-.28-3.84-1.21-.4-7.72,1.2-9.92-.51-3.09-2.42-.78-6.18,2-6.3s2.36,3.13,5.63,3.11,8.27-1.21,6,7.45Z"/><circle class="cls-14" cx="144.01" cy="77.99" r="2" transform="translate(-19.41 67.27) rotate(-24.68)"/><path class="cls-6" d="M132.45,80.48l4.26.28a2.08,2.08,0,0,1-2.6,1.56A1.74,1.74,0,0,1,132.45,80.48Z"/><path class="cls-16" d="M148.16,87.07s1,.1,9.57,5.23L153.92,100l-5-2.66Z"/><path class="cls-21" d="M147.14,125.29l21.55-.08,1.52,15.67s-21.93,1-21.9.72S147.14,125.29,147.14,125.29Z"/><polygon class="cls-22" points="147.14 125.29 144.61 139.76 148.31 141.61 147.14 125.29"/><path class="cls-6" d="M161.76,128.06h0a.34.34,0,0,1-.32-.36s.28-4.43-1.29-6.23a2,2,0,0,0-1.43-.72,1.84,1.84,0,0,0-1.42.52c-1.82,1.65-2,6.48-2,6.53a.34.34,0,0,1-.68,0c0-.21.21-5.17,2.25-7a2.54,2.54,0,0,1,1.92-.69,2.68,2.68,0,0,1,1.9,1c1.76,2,1.47,6.54,1.46,6.73A.34.34,0,0,1,161.76,128.06Z"/><circle class="cls-14" cx="108.72" cy="94.33" r="3.1" transform="translate(-3.17 3.79) rotate(-1.97)"/><line class="cls-23" x1="110.73" y1="93.14" x2="106.17" y2="89.6"/><circle class="cls-14" cx="158.67" cy="119.7" r="3.28" transform="translate(-4.01 5.51) rotate(-1.97)"/><path class="cls-24" d="M103.33,69.21H71.81a.58.58,0,1,1,0-1.15h31.52a.58.58,0,0,1,0,1.15Z"/><path class="cls-24" d="M91.31,77.4H71.81a.58.58,0,1,1,0-1.15h19.5a.58.58,0,1,1,0,1.15Z"/><path class="cls-24" d="M85.64,73.2H71.81a.58.58,0,1,1,0-1.15H85.64a.58.58,0,0,1,0,1.15Z"/></g></g></g></svg>