<svg xmlns="http://www.w3.org/2000/svg" xmlns:xlink="http://www.w3.org/1999/xlink" viewBox="0 0 550.51 361.7"><defs><style>.cls-1{fill:none;}.cls-2,.cls-31,.cls-6{fill:#242993;}.cls-2,.cls-28{opacity:0.5;}.cls-10,.cls-28,.cls-3{fill:#42ffff;}.cls-4{fill:url(#Áåçûìÿííûé_ãðàäèåíò_13);}.cls-5{fill:url(#Áåçûìÿííûé_ãðàäèåíò_11);}.cls-33,.cls-7{fill:#4553c7;}.cls-8{fill:url(#Áåçûìÿííûé_ãðàäèåíò_13-2);}.cls-9{fill:url(#Áåçûìÿííûé_ãðàäèåíò_11-2);}.cls-10{opacity:0.4;}.cls-11{fill:url(#Áåçûìÿííûé_ãðàäèåíò_13-3);}.cls-12{fill:url(#Áåçûìÿííûé_ãðàäèåíò_11-4);}.cls-13{fill:url(#Áåçûìÿííûé_ãðàäèåíò_11-5);}.cls-14{fill:url(#Áåçûìÿííûé_ãðàäèåíò_14);}.cls-15{opacity:0.51;}.cls-16{fill:url(#Áåçûìÿííûé_ãðàäèåíò_14-2);}.cls-17{fill:url(#Áåçûìÿííûé_ãðàäèåíò_11-6);}.cls-18{fill:#2859cb;}.cls-19{fill:#adc8ff;}.cls-20{fill:#91afff;}.cls-21{fill:url(#Áåçûìÿííûé_ãðàäèåíò_11-7);}.cls-22{opacity:0.11;}.cls-23{clip-path:url(#clip-path);}.cls-24{fill:url(#Áåçûìÿííûé_ãðàäèåíò_11-8);}.cls-25{fill:url(#Áåçûìÿííûé_ãðàäèåíò_11-9);}.cls-26,.cls-27{opacity:0.42;}.cls-26{fill:url(#Áåçûìÿííûé_ãðàäèåíò_36);}.cls-27{fill:url(#Áåçûìÿííûé_ãðàäèåíò_36-2);}.cls-29{fill:url(#Áåçûìÿííûé_ãðàäèåíò_35);}.cls-30{fill:url(#Áåçûìÿííûé_ãðàäèåíò_11-10);}.cls-31{opacity:0.6;}.cls-32{opacity:0.96;fill:url(#Áåçûìÿííûé_ãðàäèåíò_21);}.cls-33{opacity:0.8;}.cls-34{opacity:0.32;}.cls-35{fill:#88fff3;}</style><linearGradient id="Áåçûìÿííûé_ãðàäèåíò_13" x1="115.3" y1="121.42" x2="45.13" y2="177.69" gradientUnits="userSpaceOnUse"><stop offset="0" stop-color="#bcd5ff"/><stop offset="0.15" stop-color="#a3beff"/><stop offset="0.39" stop-color="#82a0ff"/><stop offset="0.61" stop-color="#6a8aff"/><stop offset="0.82" stop-color="#5c7dff"/><stop offset="1" stop-color="#5778ff"/></linearGradient><linearGradient id="Áåçûìÿííûé_ãðàäèåíò_11" x1="-26.34" y1="608.91" x2="-90.13" y2="660.07" gradientTransform="matrix(0.87, 0.5, -1, 0.58, 760.29, -199.83)" gradientUnits="userSpaceOnUse"><stop offset="0" stop-color="#c0d6ff"/><stop offset="0.3" stop-color="#c5dbff"/><stop offset="0.65" stop-color="#d3e9ff"/><stop offset="1" stop-color="#e9ffff"/></linearGradient><linearGradient id="Áåçûìÿííûé_ãðàäèåíò_13-2" x1="509.34" y1="170.85" x2="439.16" y2="227.13" xlink:href="#Áåçûìÿííûé_ãðàäèåíò_13"/><linearGradient id="Áåçûìÿííûé_ãðàäèåíò_11-2" x1="250.61" y1="454.71" x2="186.81" y2="505.86" xlink:href="#Áåçûìÿííûé_ãðàäèåíò_11"/><linearGradient id="Áåçûìÿííûé_ãðàäèåíò_13-3" x1="509.34" y1="152.39" x2="439.16" y2="208.66" xlink:href="#Áåçûìÿííûé_ãðàäèåíò_13"/><linearGradient id="Áåçûìÿííûé_ãðàäèåíò_11-4" x1="232.14" y1="438.72" x2="168.35" y2="489.87" xlink:href="#Áåçûìÿííûé_ãðàäèåíò_11"/><linearGradient id="Áåçûìÿííûé_ãðàäèåíò_11-5" x1="1244.12" y1="128.16" x2="1460.36" y2="128.16" gradientTransform="matrix(-1, 0, 0, 1, 1677.46, 0)" xlink:href="#Áåçûìÿííûé_ãðàäèåíò_11"/><linearGradient id="Áåçûìÿííûé_ãðàäèåíò_14" x1="1244.12" y1="183.62" x2="1281.25" y2="183.62" gradientTransform="matrix(-1, 0, 0, 1, 1677.46, 0)" gradientUnits="userSpaceOnUse"><stop offset="0" stop-color="#5778ff"/><stop offset="0.18" stop-color="#5c7dff"/><stop offset="0.39" stop-color="#6a8aff"/><stop offset="0.61" stop-color="#82a0ff"/><stop offset="0.85" stop-color="#a3beff"/><stop offset="1" stop-color="#bcd5ff"/></linearGradient><linearGradient id="Áåçûìÿííûé_ãðàäèåíò_14-2" x1="1273.09" y1="245.96" x2="1578.5" y2="245.96" xlink:href="#Áåçûìÿííûé_ãðàäèåíò_14"/><linearGradient id="Áåçûìÿííûé_ãðàäèåíò_11-6" x1="1375.71" y1="235.77" x2="1681.28" y2="235.77" gradientTransform="matrix(-1, 0, 0, 1, 1677.46, 0)" xlink:href="#Áåçûìÿííûé_ãðàäèåíò_11"/><linearGradient id="Áåçûìÿííûé_ãðàäèåíò_11-7" x1="1427.46" y1="253.12" x2="1505.67" y2="253.12" gradientTransform="matrix(-1, 0, 0, 1, 1677.46, 0)" xlink:href="#Áåçûìÿííûé_ãðàäèåíò_11"/><clipPath id="clip-path"><polygon id="SVGID" class="cls-1" points="243.2 11.03 423.63 115.2 401.26 247.11 220.94 143.01 243.2 11.03"/></clipPath><linearGradient id="Áåçûìÿííûé_ãðàäèåíò_11-8" x1="1258.96" y1="168.05" x2="1564.53" y2="168.05" gradientTransform="matrix(-1, 0, 0, 1, 1677.46, 0)" xlink:href="#Áåçûìÿííûé_ãðàäèåíò_11"/><linearGradient id="Áåçûìÿííûé_ãðàäèåíò_11-9" x1="1238.85" y1="145.61" x2="1317.07" y2="145.61" gradientTransform="matrix(-1, 0, 0, 1, 1677.46, 0)" xlink:href="#Áåçûìÿííûé_ãðàäèåíò_11"/><radialGradient id="Áåçûìÿííûé_ãðàäèåíò_36" cx="1362.1" cy="207.38" r="87.6" gradientTransform="matrix(-1, 0, 0, 1, 1677.46, 0)" gradientUnits="userSpaceOnUse"><stop offset="0" stop-color="#2b3aa5"/><stop offset="1" stop-color="#182484"/></radialGradient><radialGradient id="Áåçûìÿííûé_ãðàäèåíò_36-2" cx="1342.94" cy="167.97" r="67.05" xlink:href="#Áåçûìÿííûé_ãðàäèåíò_36"/><linearGradient id="Áåçûìÿííûé_ãðàäèåíò_35" x1="1318.8" y1="187.33" x2="1377.86" y2="80.97" gradientTransform="matrix(-1, 0, 0, 1, 1677.46, 0)" gradientUnits="userSpaceOnUse"><stop offset="0" stop-color="#5778ff"/><stop offset="0.04" stop-color="#5c7dff"/><stop offset="0.09" stop-color="#6a8aff"/><stop offset="0.14" stop-color="#82a0ff"/><stop offset="0.19" stop-color="#a3beff"/><stop offset="0.22" stop-color="#bcd5ff"/></linearGradient><linearGradient id="Áåçûìÿííûé_ãðàäèåíò_11-10" x1="1391.36" y1="187.71" x2="1352.04" y2="110.85" gradientTransform="matrix(-1, 0, 0, 1, 1677.46, 0)" xlink:href="#Áåçûìÿííûé_ãðàäèåíò_11"/><linearGradient id="Áåçûìÿííûé_ãðàäèåíò_21" x1="1497.62" y1="325.86" x2="1372.67" y2="104.46" gradientTransform="matrix(-1, 0, 0, 1, 1677.46, 0)" gradientUnits="userSpaceOnUse"><stop offset="0" stop-color="#c0d6ff"/><stop offset="0.08" stop-color="#c3d9ff"/><stop offset="0.13" stop-color="#cce2ff"/><stop offset="0.18" stop-color="#dcf2ff"/><stop offset="0.21" stop-color="#e9ffff"/><stop offset="0.26" stop-color="#d8eeff"/><stop offset="0.31" stop-color="#cbe1ff"/><stop offset="0.39" stop-color="#c2d8ff"/><stop offset="0.51" stop-color="#c0d6ff"/><stop offset="0.62" stop-color="#d0e6ff"/><stop offset="0.75" stop-color="#e9ffff"/><stop offset="1" stop-color="#c0d6ff"/></linearGradient></defs><title>receive</title><g id="Capa_2" data-name="Capa 2"><g id="Ñëîé_1" data-name="Ñëîé 1"><path class="cls-2" d="M88.18,189.43,45,164.49c-.74-.43-.65-1.17.21-1.66L88,138.13a3.2,3.2,0,0,1,2.88-.12L134,162.95c.74.43.65,1.17-.21,1.66l-42.78,24.7A3.2,3.2,0,0,1,88.18,189.43Z"/><path class="cls-3" d="M89.4,202.22a4.21,4.21,0,0,1-2.07-.49L24.14,165.26a1.71,1.71,0,0,1-1-1.47A2.19,2.19,0,0,1,24.44,162L87,125.87a5.14,5.14,0,0,1,4.69-.17l63.19,36.48a1.71,1.71,0,0,1,1,1.47,2.19,2.19,0,0,1-1.27,1.79L92,201.56A5.36,5.36,0,0,1,89.4,202.22Zm-1.6-1.3a4.24,4.24,0,0,0,3.75-.17l62.58-36.13c.5-.29.8-.65.8-1a.84.84,0,0,0-.49-.65L91.24,126.52a4.24,4.24,0,0,0-3.75.17L24.91,162.82c-.5.29-.8.65-.8,1a.84.84,0,0,0,.49.65Z"/><path class="cls-4" d="M134.54,146.05v-8.33H121L90.85,120.34a3.2,3.2,0,0,0-2.88.12L58,137.77H44.49v8.35h0a.86.86,0,0,0,.49.69l43.2,24.94a3.2,3.2,0,0,0,2.88-.12l42.78-24.7A1.22,1.22,0,0,0,134.54,146.05Z"/><path class="cls-5" d="M88.18,163.43,45,138.49c-.74-.43-.65-1.17.21-1.66L88,112.13a3.2,3.2,0,0,1,2.88-.12L134,136.95c.74.43.65,1.17-.21,1.66l-42.78,24.7A3.2,3.2,0,0,1,88.18,163.43Z"/><path class="cls-6" d="M88.33,160.51,50,138.4c-.65-.38-.57-1,.18-1.48L88.15,115a2.84,2.84,0,0,1,2.56-.11L129,137c.65.38.57,1-.18,1.48L90.89,160.4A2.84,2.84,0,0,1,88.33,160.51Z"/><path class="cls-7" d="M88.43,158.66,53.25,138.35c-.6-.35-.53-1,.17-1.36l34.84-20.11a2.61,2.61,0,0,1,2.35-.1l35.18,20.31c.6.35.53,1-.17,1.36L90.78,158.56A2.61,2.61,0,0,1,88.43,158.66Z"/><polygon class="cls-3" points="88.71 136.4 84.59 134.02 86.84 132.72 90.95 135.1 88.71 136.4"/><polygon class="cls-3" points="96.35 136.06 92.24 138.44 89.99 137.14 94.11 134.76 96.35 136.06"/><polygon class="cls-3" points="87.77 136.94 85.53 138.23 83.28 136.94 85.53 135.64 87.77 136.94"/><polygon class="cls-3" points="95.54 141.42 93.29 142.71 86.81 138.97 89.06 137.68 95.54 141.42"/><path class="cls-2" d="M482.22,237.75,439,212.81c-.74-.43-.65-1.17.21-1.66L482,186.44a3.2,3.2,0,0,1,2.88-.12l43.2,24.94c.74.43.65,1.17-.21,1.66l-42.78,24.7A3.2,3.2,0,0,1,482.22,237.75Z"/><path class="cls-3" d="M483.44,248.95a4.05,4.05,0,0,1-2-.47l-60.54-35a1.66,1.66,0,0,1-.93-1.42,2.12,2.12,0,0,1,1.22-1.73l60-34.62a4.94,4.94,0,0,1,4.51-.17l60.54,35a1.66,1.66,0,0,1,.93,1.42,2.12,2.12,0,0,1-1.22,1.73l-60,34.62A5.15,5.15,0,0,1,483.44,248.95Zm.24-72.88a4.24,4.24,0,0,0-2.06.51l-60,34.62c-.47.27-.75.61-.75.91a.78.78,0,0,0,.46.6l60.54,35a4,4,0,0,0,3.57-.17l60-34.62c.47-.27.75-.61.75-.91a.79.79,0,0,0-.46-.61l-60.54-35A3.1,3.1,0,0,0,483.68,176.06Z"/><path class="cls-8" d="M528.58,195.49v-8.33H515l-30.11-17.39a3.2,3.2,0,0,0-2.88.12l-30,17.31H438.52v8.35h0a.86.86,0,0,0,.49.69l43.2,24.94a3.2,3.2,0,0,0,2.88-.12l42.78-24.7A1.22,1.22,0,0,0,528.58,195.49Z"/><path class="cls-9" d="M482.22,212.87,439,187.93c-.74-.43-.65-1.17.21-1.66L482,161.56a3.2,3.2,0,0,1,2.88-.12l43.2,24.94c.74.43.65,1.17-.21,1.66l-42.78,24.7A3.2,3.2,0,0,1,482.22,212.87Z"/><path class="cls-9" d="M482.22,212.87,439,187.93c-.74-.43-.65-1.17.21-1.66L482,161.56a3.2,3.2,0,0,1,2.88-.12l43.2,24.94c.74.43.65,1.17-.21,1.66l-42.78,24.7A3.2,3.2,0,0,1,482.22,212.87Z"/><path class="cls-6" d="M482.37,209.95l-38.29-22.11c-.65-.38-.57-1,.18-1.48l37.92-21.89a2.84,2.84,0,0,1,2.56-.11L523,186.47c.65.38.57,1-.18,1.48l-37.92,21.89A2.84,2.84,0,0,1,482.37,209.95Z"/><path class="cls-7" d="M482.47,208.09l-35.18-20.31c-.6-.35-.53-1,.17-1.36l34.84-20.11a2.61,2.61,0,0,1,2.35-.1l35.18,20.31c.6.35.53,1-.17,1.36L484.81,208A2.61,2.61,0,0,1,482.47,208.09Z"/><polygon class="cls-3" points="482.75 185.83 478.63 183.46 480.88 182.16 484.99 184.53 482.75 185.83"/><polygon class="cls-3" points="490.39 185.5 486.28 187.87 484.03 186.57 488.14 184.2 490.39 185.5"/><polygon class="cls-3" points="481.81 186.37 479.57 187.67 477.32 186.37 479.57 185.07 481.81 186.37"/><polygon class="cls-3" points="489.57 190.85 487.33 192.15 480.85 188.41 483.1 187.11 489.57 190.85"/><path class="cls-10" d="M528.59,176l-18.38.11-25.32-14.62a3.2,3.2,0,0,0-2.88.12l-25.67,14.82-17.82.11v10.82h0a.9.9,0,0,0,.49.61l43.2,24.94a3.2,3.2,0,0,0,2.88-.12L527.88,188a1.31,1.31,0,0,0,.68-.78l0,0Z"/><path class="cls-11" d="M528.58,177v-8.33H515l-30.11-17.39a3.2,3.2,0,0,0-2.88.12l-30,17.31H438.52v8.35h0a.86.86,0,0,0,.49.69l43.2,24.94a3.2,3.2,0,0,0,2.88-.12l42.78-24.7A1.22,1.22,0,0,0,528.58,177Z"/><path class="cls-12" d="M482.22,194.4,439,169.46c-.74-.43-.65-1.17.21-1.66L482,143.1a3.2,3.2,0,0,1,2.88-.12l43.2,24.94c.74.43.65,1.17-.21,1.66l-42.78,24.7A3.2,3.2,0,0,1,482.22,194.4Z"/><path class="cls-6" d="M482.37,191.48l-38.29-22.11c-.65-.38-.57-1,.18-1.48L482.18,146a2.84,2.84,0,0,1,2.56-.11L523,168c.65.38.57,1-.18,1.48l-37.92,21.89A2.84,2.84,0,0,1,482.37,191.48Z"/><path class="cls-7" d="M482.47,189.63l-35.18-20.31c-.6-.35-.53-1,.17-1.36l34.84-20.11a2.61,2.61,0,0,1,2.35-.1l35.18,20.31c.6.35.53,1-.17,1.36l-34.84,20.11A2.61,2.61,0,0,1,482.47,189.63Z"/><polygon class="cls-3" points="482.75 167.37 478.63 164.99 480.88 163.7 484.99 166.07 482.75 167.37"/><polygon class="cls-3" points="490.39 167.03 486.28 169.41 484.03 168.11 488.14 165.74 490.39 167.03"/><polygon class="cls-3" points="481.81 167.91 479.57 169.21 477.32 167.91 479.57 166.61 481.81 167.91"/><polygon class="cls-3" points="489.57 172.39 487.33 173.69 480.85 169.95 483.1 168.65 489.57 172.39"/><path class="cls-3" d="M389.3,347.39a4,4,0,0,1-2-.53l-35.46-20.47.47-.82L387.79,346a3,3,0,0,0,3,0l158.4-91.45a.7.7,0,0,0,0-1.22L513,232.44l.47-.82,36.24,20.93a1.65,1.65,0,0,1,0,2.85l-158.4,91.45A4,4,0,0,1,389.3,347.39Z"/><path class="cls-3" d="M89.51,269.55a5.06,5.06,0,0,1-2.53-.67L.75,219.13a1.49,1.49,0,0,1,0-2.58l56.83-32.81.47.82L1.21,217.37a.55.55,0,0,0,0,.95l86.24,49.74a4.13,4.13,0,0,0,4.12,0L109,258l.47.82-17.4,10A5.07,5.07,0,0,1,89.51,269.55Z"/><path class="cls-13" d="M217.14,141.61l23.42-139-1.88-.79L241.51.23v0a2,2,0,0,1,2.18.15L430.88,108.48a5.28,5.28,0,0,1,2.43,4.75L409.7,253.3a1.76,1.76,0,0,1-1,1.43h0l-2.77,1.6-.48-2.59.16,0L219.57,146.36A5.28,5.28,0,0,1,217.14,141.61Z"/><path class="cls-14" d="M429.83,112.28l3.08-1.36a4.23,4.23,0,0,1,.4,2.32L409.7,253.3a1.76,1.76,0,0,1-1,1.43h0l-2.77,1.6-.48-2.59.16,0-9.41-5.44Z"/><path class="cls-6" d="M216.63,148,403.82,256.12c1.45.83,2.68.35,2.94-1.14l23.61-140.06a5.28,5.28,0,0,0-2.43-4.75L240.75,2.09c-1.45-.83-2.68-.35-2.94,1.14L214.2,143.29A5.28,5.28,0,0,0,216.63,148Z"/><g class="cls-15"><polygon class="cls-7" points="243.2 11.03 423.63 115.2 401.26 247.11 220.94 143.01 243.2 11.03"/></g><path class="cls-3" d="M289.17,361.7a9.48,9.48,0,0,1-4.63-1.17L85.33,245.47a3.67,3.67,0,0,1-2.14-3,2.78,2.78,0,0,1,1.58-2.36l125.73-72.59c2.16-1.25,5.79-1.11,8.26.32L418,282.94a3.67,3.67,0,0,1,2.14,3,2.78,2.78,0,0,1-1.58,2.36L292.8,360.85A7.37,7.37,0,0,1,289.17,361.7Zm-75-194a6.41,6.41,0,0,0-3.15.72L85.24,241a1.86,1.86,0,0,0-1.11,1.55,2.79,2.79,0,0,0,1.67,2.14L285,359.71c2.17,1.25,5.46,1.4,7.32.32l125.73-72.59a1.86,1.86,0,0,0,1.11-1.54,2.79,2.79,0,0,0-1.67-2.14L218.3,168.7A8.58,8.58,0,0,0,214.13,167.66Z"/><path class="cls-2" d="M100.55,243.89l185.29,107a7.62,7.62,0,0,0,6.85.28l110.57-63.84c1.76-1,1.54-2.79-.49-4l-185.29-107a7.62,7.62,0,0,0-6.85-.28L100.05,239.93C98.3,240.94,98.52,242.72,100.55,243.89Z"/><path class="cls-16" d="M99,214.36l10.22,5.33,102.44-59.14a7.43,7.43,0,0,1,6.69.28L395,262.83c1.69-.95,9.4-4.65,9.4-4.65l-3.74,9.74h0a2.23,2.23,0,0,1-1,1.16L291.69,331.36a7.43,7.43,0,0,1-6.69-.28L104.21,226.7a3.23,3.23,0,0,1-1.52-1.61h0Z"/><path class="cls-17" d="M100.55,216,285.83,323a7.62,7.62,0,0,0,6.85.28l110.57-63.84c1.76-1,1.54-2.79-.49-4l-185.29-107a7.62,7.62,0,0,0-6.85-.28L100.05,212.08C98.3,213.1,98.52,214.87,100.55,216Z"/><path class="cls-18" d="M341.72,299.88v-2c0-.19-.12-.28-.26-.2l-7.17,4.14a.63.63,0,0,0-.26.5v2c0,.19.12.28.26.2l7.17-4.14A.63.63,0,0,0,341.72,299.88Z"/><path class="cls-18" d="M331,306.06v-2c0-.19-.12-.28-.26-.2L323.57,308a.63.63,0,0,0-.26.5v2c0,.19.12.28.26.2l7.17-4.14A.63.63,0,0,0,331,306.06Z"/><path class="cls-19" d="M374.43,253.49l-154-88.9a3.31,3.31,0,0,0-3.32,0l-54.83,31.72a1.18,1.18,0,0,0,0,2l153.9,88.86a3.31,3.31,0,0,0,3.31,0l54.9-31.68A1.18,1.18,0,0,0,374.43,253.49Z"/><path class="cls-20" d="M374.43,255.53l-.55.32L220.45,167.27a3.31,3.31,0,0,0-3.32,0l-54.28,31.4-.55-.32a1.18,1.18,0,0,1,0-2l54.83-31.72a3.31,3.31,0,0,1,3.32,0l154,88.9A1.18,1.18,0,0,1,374.43,255.53Z"/><polygon class="cls-6" points="213 172.62 346.75 249.84 352.69 246.41 218.94 169.19 213 172.62"/><polygon class="cls-6" points="198.42 181.04 323.87 253.47 329.82 250.04 204.37 177.61 198.42 181.04"/><polygon class="cls-6" points="188.92 186.52 336.63 271.8 342.57 268.37 194.87 183.09 188.92 186.52"/><polygon class="cls-6" points="179.43 192.01 327.13 277.28 333.08 273.85 185.37 188.57 179.43 192.01"/><polygon class="cls-6" points="169.93 197.49 317.63 282.77 323.58 279.33 175.88 194.06 169.93 197.49"/><polygon class="cls-6" points="354.83 254.51 360.77 257.94 366.72 254.51 360.77 251.08 354.83 254.51"/><polygon class="cls-6" points="333.85 259.23 346.19 266.36 352.14 262.93 339.8 255.8 333.85 259.23"/><path class="cls-21" d="M214.52,275,173,251c-1.62-.94-1.62-2.46,0-3.39l28.39-16.39a6.49,6.49,0,0,1,5.88,0l41.52,24c1.62.94,1.62,2.46,0,3.39L220.4,275A6.49,6.49,0,0,1,214.52,275Z"/><path class="cls-20" d="M248.79,256.6l-41.52-24a6.49,6.49,0,0,0-5.88,0L173,249a2.54,2.54,0,0,0-1,1c-.43-.82-.1-1.74,1-2.39l28.39-16.39a6.49,6.49,0,0,1,5.88,0l41.52,24c1.12.65,1.45,1.57,1,2.39A2.54,2.54,0,0,0,248.79,256.6Z"/><g class="cls-22"><g class="cls-23"><path class="cls-24" d="M217.29,148.31l185.29,107a7.62,7.62,0,0,0,6.85.28L520,191.74c1.76-1,1.54-2.79-.49-4L334.22,80.8a7.62,7.62,0,0,0-6.85-.28L216.8,144.36C215,145.37,215.26,147.14,217.29,148.31Z"/><path class="cls-25" d="M403.13,167.49l-41.52-24c-1.62-.94-1.62-2.46,0-3.39L390,123.74a6.49,6.49,0,0,1,5.88,0l41.52,24c1.62.94,1.62,2.46,0,3.39L409,167.49A6.49,6.49,0,0,1,403.13,167.49Z"/><path class="cls-20" d="M437.4,149.1l-41.52-24a6.49,6.49,0,0,0-5.88,0l-28.39,16.39a2.54,2.54,0,0,0-1,1c-.43-.82-.1-1.74,1-2.39L390,123.74a6.49,6.49,0,0,1,5.88,0l41.52,24c1.12.65,1.45,1.57,1,2.39A2.54,2.54,0,0,0,437.4,149.1Z"/><path class="cls-19" d="M455.65,205l-154-88.9a3.31,3.31,0,0,0-3.32,0l-54.83,31.72a1.18,1.18,0,0,0,0,2l153.9,88.86a3.31,3.31,0,0,0,3.31,0L455.65,207A1.18,1.18,0,0,0,455.65,205Z"/><path class="cls-20" d="M455.65,207l-.55.32L301.67,118.74a3.31,3.31,0,0,0-3.32,0l-54.28,31.4-.55-.32a1.18,1.18,0,0,1,0-2l54.83-31.72a3.31,3.31,0,0,1,3.32,0l154,88.9A1.18,1.18,0,0,1,455.65,207Z"/><polygon class="cls-6" points="257.88 145.62 392.01 223.06 386.7 226.13 252.56 148.68 257.88 145.62"/><polygon class="cls-6" points="272.01 137.46 399.5 211.06 394.19 214.13 266.69 140.52 272.01 137.46"/><polygon class="cls-6" points="409.02 216.56 420.93 223.44 415.62 226.5 403.71 219.63 409.02 216.56"/><polygon class="cls-6" points="398.51 226.81 406.8 231.6 401.49 234.66 393.19 229.88 398.51 226.81"/><polygon class="cls-6" points="280.86 132.34 429.79 218.32 424.48 221.39 275.55 135.41 280.86 132.34"/><polygon class="cls-6" points="289.72 127.23 438.64 213.21 433.33 216.28 284.41 130.3 289.72 127.23"/><polygon class="cls-6" points="298.58 122.12 447.5 208.1 442.19 211.16 293.26 125.18 298.58 122.12"/></g></g><polygon class="cls-26" points="303.08 245.57 343 221 253.25 169.19 210.9 197.66 303.08 245.57"/><polygon class="cls-27" points="343 221 352.14 163.25 267.92 114.94 267.92 177.54 343 221"/><polygon class="cls-28" points="349.55 91.83 340.01 86.4 340.34 84.34 349.88 89.77 349.55 91.83"/><polygon class="cls-28" points="354.44 94.61 351.01 92.66 351.33 90.59 354.77 92.55 354.44 94.61"/><polygon class="cls-28" points="358.24 96.77 355.9 95.44 356.23 93.38 358.56 94.7 358.24 96.77"/><polygon class="cls-28" points="344.47 94.07 339.27 91.12 339.6 89.05 344.8 92.01 344.47 94.07"/><polygon class="cls-28" points="352.3 98.52 345.93 94.9 346.25 92.84 352.62 96.46 352.3 98.52"/><polygon class="cls-28" points="356.09 100.68 353.75 99.35 354.08 97.29 356.41 98.62 356.09 100.68"/><polygon class="cls-28" points="359.7 102.73 357.36 101.41 357.69 99.34 360.02 100.67 359.7 102.73"/><polygon class="cls-3" points="342.29 97.97 338.53 95.83 338.86 93.77 342.62 95.91 342.29 97.97"/><polygon class="cls-3" points="345.04 99.53 343.75 98.8 344.07 96.73 345.36 97.47 345.04 99.53"/><polygon class="cls-28" points="348.83 101.69 346.49 100.36 346.82 98.29 349.15 99.62 348.83 101.69"/><polygon class="cls-28" points="351.67 108.44 337.79 100.54 338.12 98.48 352 106.38 351.67 108.44"/><polygon class="cls-28" points="356.56 111.22 353.13 109.27 353.45 107.2 356.89 109.16 356.56 111.22"/><polygon class="cls-28" points="340.81 107.4 337.05 105.26 337.38 103.19 341.14 105.33 340.81 107.4"/><polygon class="cls-28" points="349.64 112.42 342.27 108.23 342.59 106.16 349.96 110.35 349.64 112.42"/><polygon class="cls-28" points="353.43 114.57 351.1 113.25 351.42 111.18 353.75 112.51 353.43 114.57"/><polygon class="cls-28" points="344.01 114.35 336.31 109.97 336.64 107.91 344.33 112.28 344.01 114.35"/><polygon class="cls-3" points="351.03 118.34 345.46 115.18 345.79 113.11 351.35 116.28 351.03 118.34"/><polygon class="cls-28" points="356.25 121.31 352.49 119.17 352.81 117.11 356.57 119.25 356.25 121.31"/><polygon class="cls-28" points="338.17 116.16 335.57 114.69 335.89 112.62 338.49 114.1 338.17 116.16"/><polygon class="cls-28" points="343.06 118.94 339.63 116.99 339.95 114.93 343.39 116.88 343.06 118.94"/><polygon class="cls-28" points="350.05 122.92 344.52 119.77 344.84 117.71 350.38 120.86 350.05 122.92"/><polygon class="cls-28" points="342.79 123.93 334.83 119.4 335.15 117.34 343.12 121.86 342.79 123.93"/><polygon class="cls-28" points="351.71 129 344.25 124.75 344.57 122.69 352.03 126.93 351.71 129"/><polygon class="cls-3" points="355.5 131.15 353.17 129.83 353.49 127.76 355.82 129.09 355.5 131.15"/><polygon class="cls-28" points="359.14 133.22 356.8 131.9 357.13 129.83 359.46 131.16 359.14 133.22"/><polygon class="cls-28" points="338.86 126.83 334.09 124.11 334.41 122.05 339.18 124.76 338.86 126.83"/><polygon class="cls-3" points="364.73 100.46 371.35 104.22 371.67 102.16 365.06 98.4 364.73 100.46"/><polygon class="cls-28" points="365.41 105.98 370.61 108.94 370.93 106.87 365.73 103.92 365.41 105.98"/><polygon class="cls-28" points="366.1 111.51 369.86 113.65 370.19 111.58 366.43 109.45 366.1 111.51"/><polygon class="cls-28" points="363.65 115.25 369.12 118.36 369.45 116.3 363.98 113.19 363.65 115.25"/><polygon class="cls-28" points="364.62 120.94 368.38 123.08 368.71 121.01 364.95 118.87 364.62 120.94"/><polygon class="cls-28" points="362.87 125.08 367.64 127.79 367.97 125.73 363.2 123.01 362.87 125.08"/><polygon class="cls-28" points="364.3 131.03 366.9 132.5 367.23 130.44 364.63 128.96 364.3 131.03"/><polygon class="cls-28" points="361.13 134.35 366.16 137.22 366.49 135.15 361.45 132.29 361.13 134.35"/><polygon class="cls-28" points="360.65 139.22 365.42 141.93 365.75 139.87 360.98 137.16 360.65 139.22"/><polygon class="cls-28" points="342.35 128.81 340.32 127.65 340.64 125.59 342.67 126.74 342.35 128.81"/><polygon class="cls-28" points="348.37 132.23 343.8 129.64 344.13 127.57 348.69 130.17 348.37 132.23"/><polygon class="cls-28" points="386.56 112.78 377.02 107.36 377.34 105.3 386.88 110.72 386.56 112.78"/><polygon class="cls-28" points="391.45 115.57 388.01 113.61 388.34 111.55 391.77 113.5 391.45 115.57"/><polygon class="cls-3" points="395.24 117.72 392.91 116.39 393.23 114.33 395.56 115.66 395.24 117.72"/><polygon class="cls-28" points="381.48 115.03 376.28 112.07 376.6 110.01 381.8 112.97 381.48 115.03"/><polygon class="cls-28" points="389.3 119.48 382.93 115.86 383.26 113.79 389.63 117.42 389.3 119.48"/><polygon class="cls-3" points="393.09 121.64 390.76 120.31 391.08 118.25 393.42 119.57 393.09 121.64"/><polygon class="cls-28" points="396.7 123.69 394.37 122.36 394.69 120.3 397.02 121.62 396.7 123.69"/><polygon class="cls-28" points="379.3 118.92 375.54 116.79 375.86 114.72 379.62 116.86 379.3 118.92"/><polygon class="cls-28" points="382.04 120.48 380.75 119.75 381.08 117.69 382.36 118.42 382.04 120.48"/><polygon class="cls-28" points="385.83 122.64 383.5 121.31 383.82 119.25 386.15 120.58 385.83 122.64"/><polygon class="cls-28" points="388.68 129.39 374.8 121.5 375.12 119.44 389 127.33 388.68 129.39"/><polygon class="cls-28" points="393.57 132.18 390.13 130.22 390.46 128.16 393.89 130.11 393.57 132.18"/><polygon class="cls-28" points="377.82 128.35 374.06 126.21 374.38 124.15 378.14 126.29 377.82 128.35"/><polygon class="cls-28" points="386.64 133.37 379.27 129.18 379.6 127.12 386.97 131.31 386.64 133.37"/><polygon class="cls-28" points="390.43 135.53 388.1 134.2 388.42 132.14 390.76 133.46 390.43 135.53"/><polygon class="cls-3" points="381.01 135.3 373.31 130.93 373.64 128.86 381.33 133.24 381.01 135.3"/><polygon class="cls-28" points="388.03 139.3 382.47 136.13 382.79 134.07 388.36 137.23 388.03 139.3"/><polygon class="cls-28" points="393.25 142.26 389.49 140.13 389.81 138.06 393.57 140.2 393.25 142.26"/><polygon class="cls-28" points="375.17 137.12 372.57 135.64 372.9 133.58 375.5 135.06 375.17 137.12"/><polygon class="cls-28" points="380.06 139.9 376.63 137.95 376.95 135.88 380.39 137.84 380.06 139.9"/><polygon class="cls-3" points="387.06 143.88 381.52 140.73 381.85 138.67 387.38 141.81 387.06 143.88"/><polygon class="cls-28" points="379.8 144.88 371.83 140.35 372.16 138.29 380.12 142.82 379.8 144.88"/><polygon class="cls-28" points="388.71 149.95 381.25 145.71 381.58 143.65 389.04 147.89 388.71 149.95"/><polygon class="cls-28" points="392.5 152.11 390.17 150.78 390.49 148.72 392.83 150.04 392.5 152.11"/><polygon class="cls-28" points="396.14 154.18 393.81 152.85 394.13 150.79 396.46 152.12 396.14 154.18"/><polygon class="cls-28" points="375.86 147.78 371.09 145.07 371.42 143 376.19 145.72 375.86 147.78"/><polygon class="cls-3" points="401.73 121.42 408.35 125.18 408.67 123.11 402.06 119.35 401.73 121.42"/><polygon class="cls-28" points="402.41 126.94 407.61 129.89 407.93 127.83 402.74 124.87 402.41 126.94"/><polygon class="cls-28" points="403.11 132.47 406.87 134.6 407.19 132.54 403.43 130.4 403.11 132.47"/><polygon class="cls-28" points="400.66 136.21 406.13 139.32 406.45 137.25 400.98 134.14 400.66 136.21"/><polygon class="cls-28" points="401.63 141.89 405.39 144.03 405.71 141.97 401.95 139.83 401.63 141.89"/><polygon class="cls-28" points="399.88 146.03 404.65 148.75 404.97 146.68 400.2 143.97 399.88 146.03"/><polygon class="cls-28" points="401.31 151.98 403.91 153.46 404.23 151.4 401.63 149.92 401.31 151.98"/><polygon class="cls-28" points="398.13 155.31 403.17 158.17 403.49 156.11 398.45 153.25 398.13 155.31"/><polygon class="cls-28" points="397.65 160.17 402.43 162.89 402.75 160.82 397.98 158.11 397.65 160.17"/><polygon class="cls-3" points="379.35 149.76 377.32 148.61 377.64 146.55 379.67 147.7 379.35 149.76"/><polygon class="cls-28" points="385.37 153.19 380.81 150.59 381.13 148.53 385.7 151.13 385.37 153.19"/><polygon class="cls-28" points="342.88 134.28 333.35 128.85 333.67 126.79 343.21 132.22 342.88 134.28"/><polygon class="cls-28" points="347.78 137.06 344.34 135.11 344.67 133.04 348.1 135 347.78 137.06"/><polygon class="cls-28" points="351.57 139.22 349.23 137.89 349.56 135.83 351.89 137.15 351.57 139.22"/><polygon class="cls-28" points="337.8 136.52 332.61 133.57 332.93 131.5 338.13 134.46 337.8 136.52"/><polygon class="cls-28" points="345.63 140.97 339.26 137.35 339.58 135.29 345.95 138.91 345.63 140.97"/><polygon class="cls-28" points="349.42 143.13 347.09 141.8 347.41 139.74 349.75 141.07 349.42 143.13"/><polygon class="cls-28" points="353.03 145.18 350.69 143.85 351.02 141.79 353.35 143.12 353.03 145.18"/><polygon class="cls-28" points="335.63 140.42 331.86 138.28 332.19 136.22 335.95 138.36 335.63 140.42"/><polygon class="cls-28" points="338.37 141.98 337.08 141.25 337.41 139.19 338.69 139.92 338.37 141.98"/><polygon class="cls-28" points="342.16 144.14 339.82 142.81 340.15 140.75 342.48 142.07 342.16 144.14"/><polygon class="cls-28" points="345 150.89 331.12 143 331.45 140.93 345.33 148.82 345 150.89"/><polygon class="cls-28" points="349.9 153.67 346.46 151.72 346.79 149.65 350.22 151.61 349.9 153.67"/><polygon class="cls-28" points="334.14 149.85 330.38 147.71 330.71 145.65 334.47 147.78 334.14 149.85"/><polygon class="cls-28" points="342.97 154.87 335.6 150.68 335.93 148.61 343.29 152.8 342.97 154.87"/><polygon class="cls-28" points="346.76 157.02 344.43 155.69 344.75 153.63 347.08 154.96 346.76 157.02"/><polygon class="cls-28" points="337.34 156.8 329.64 152.42 329.97 150.36 337.66 154.74 337.34 156.8"/><polygon class="cls-28" points="344.36 160.79 338.8 157.63 339.12 155.56 344.68 158.73 344.36 160.79"/><polygon class="cls-28" points="349.58 163.76 345.82 161.62 346.14 159.56 349.9 161.7 349.58 163.76"/><polygon class="cls-28" points="331.5 158.61 328.9 157.14 329.23 155.07 331.82 156.55 331.5 158.61"/><polygon class="cls-28" points="336.39 161.4 332.96 159.44 333.28 157.38 336.72 159.33 336.39 161.4"/><polygon class="cls-28" points="343.38 165.37 337.85 162.22 338.18 160.16 343.71 163.31 343.38 165.37"/><polygon class="cls-28" points="336.12 166.38 328.16 161.85 328.49 159.79 336.45 164.31 336.12 166.38"/><polygon class="cls-28" points="345.04 171.45 337.58 167.21 337.9 165.14 345.36 169.38 345.04 171.45"/><polygon class="cls-28" points="348.83 173.6 346.5 172.28 346.82 170.21 349.15 171.54 348.83 173.6"/><polygon class="cls-28" points="352.47 175.67 350.13 174.35 350.46 172.28 352.79 173.61 352.47 175.67"/><polygon class="cls-28" points="332.19 169.28 327.42 166.56 327.75 164.5 332.51 167.21 332.19 169.28"/><polygon class="cls-28" points="358.06 142.91 364.68 146.67 365 144.61 358.39 140.85 358.06 142.91"/><polygon class="cls-28" points="358.74 148.43 363.94 151.39 364.26 149.32 359.06 146.37 358.74 148.43"/><polygon class="cls-28" points="359.44 153.96 363.19 156.1 363.52 154.04 359.76 151.9 359.44 153.96"/><polygon class="cls-28" points="356.99 157.7 362.45 160.81 362.78 158.75 357.31 155.64 356.99 157.7"/><polygon class="cls-28" points="357.95 163.39 361.71 165.53 362.04 163.46 358.28 161.32 357.95 163.39"/><polygon class="cls-28" points="356.2 167.53 360.97 170.24 361.3 168.18 356.53 165.46 356.2 167.53"/><polygon class="cls-28" points="357.63 173.48 360.23 174.95 360.56 172.89 357.96 171.41 357.63 173.48"/><polygon class="cls-28" points="354.46 176.8 359.49 179.67 359.82 177.6 354.78 174.74 354.46 176.8"/><polygon class="cls-28" points="353.98 181.67 358.75 184.38 359.08 182.32 354.31 179.6 353.98 181.67"/><polygon class="cls-28" points="335.68 171.26 333.65 170.1 333.97 168.04 336 169.19 335.68 171.26"/><polygon class="cls-28" points="341.7 174.68 337.13 172.09 337.46 170.02 342.02 172.62 341.7 174.68"/><polygon class="cls-28" points="343.32 190.54 335.62 186.16 335.94 184.09 343.65 188.48 343.32 190.54"/><polygon class="cls-28" points="348.6 193.54 345.56 191.81 345.89 189.75 348.92 191.48 348.6 193.54"/><polygon class="cls-28" points="379.89 155.24 370.35 149.81 370.67 147.75 380.21 153.17 379.89 155.24"/><polygon class="cls-28" points="384.78 158.02 381.35 156.06 381.67 154 385.1 155.95 384.78 158.02"/><polygon class="cls-28" points="388.57 160.17 386.24 158.84 386.56 156.78 388.89 158.11 388.57 160.17"/><polygon class="cls-28" points="374.81 157.48 369.61 154.52 369.93 152.46 375.13 155.42 374.81 157.48"/><polygon class="cls-28" points="382.63 161.93 376.26 158.31 376.59 156.25 382.96 159.87 382.63 161.93"/><polygon class="cls-28" points="386.42 164.09 384.09 162.76 384.41 160.7 386.75 162.02 386.42 164.09"/><polygon class="cls-28" points="390.03 166.14 387.7 164.81 388.02 162.75 390.36 164.07 390.03 166.14"/><polygon class="cls-28" points="372.63 161.38 368.87 159.24 369.19 157.17 372.95 159.31 372.63 161.38"/><polygon class="cls-28" points="375.37 162.94 374.09 162.21 374.41 160.14 375.69 160.87 375.37 162.94"/><polygon class="cls-28" points="379.16 165.09 376.83 163.76 377.15 161.7 379.49 163.03 379.16 165.09"/><polygon class="cls-28" points="382.01 171.84 368.13 163.95 368.45 161.89 382.33 169.78 382.01 171.84"/><polygon class="cls-28" points="386.9 174.63 383.46 172.67 383.79 170.61 387.22 172.56 386.9 174.63"/><polygon class="cls-28" points="371.15 170.8 367.39 168.66 367.71 166.6 371.47 168.74 371.15 170.8"/><polygon class="cls-28" points="379.97 175.82 372.61 171.63 372.93 169.57 380.3 173.76 379.97 175.82"/><polygon class="cls-28" points="383.76 177.98 381.43 176.65 381.75 174.59 384.09 175.91 383.76 177.98"/><polygon class="cls-28" points="374.34 177.75 366.65 173.38 366.97 171.31 374.67 175.69 374.34 177.75"/><polygon class="cls-28" points="381.36 181.75 375.8 178.58 376.12 176.52 381.69 179.68 381.36 181.75"/><polygon class="cls-28" points="386.58 184.72 382.82 182.58 383.14 180.51 386.9 182.65 386.58 184.72"/><polygon class="cls-28" points="368.5 179.57 365.91 178.09 366.23 176.03 368.83 177.51 368.5 179.57"/><polygon class="cls-28" points="373.4 182.35 369.96 180.4 370.29 178.34 373.72 180.29 373.4 182.35"/><polygon class="cls-28" points="380.39 186.33 374.85 183.18 375.18 181.12 380.71 184.26 380.39 186.33"/><polygon class="cls-28" points="373.13 187.33 365.17 182.81 365.49 180.74 373.45 185.27 373.13 187.33"/><polygon class="cls-28" points="382.04 192.4 374.58 188.16 374.91 186.1 382.37 190.34 382.04 192.4"/><polygon class="cls-28" points="385.83 194.56 383.5 193.23 383.82 191.17 386.16 192.5 385.83 194.56"/><polygon class="cls-28" points="389.47 196.63 387.14 195.3 387.46 193.24 389.8 194.56 389.47 196.63"/><polygon class="cls-28" points="369.19 190.23 364.43 187.52 364.75 185.46 369.52 188.17 369.19 190.23"/><polygon class="cls-28" points="395.07 163.87 401.68 167.63 402 165.56 395.39 161.8 395.07 163.87"/><polygon class="cls-28" points="395.74 169.39 400.94 172.34 401.26 170.28 396.07 167.32 395.74 169.39"/><polygon class="cls-28" points="396.44 174.92 400.2 177.06 400.52 174.99 396.76 172.85 396.44 174.92"/><polygon class="cls-28" points="393.99 178.66 399.46 181.77 399.78 179.71 394.31 176.59 393.99 178.66"/><polygon class="cls-28" points="394.96 184.34 398.72 186.48 399.04 184.42 395.28 182.28 394.96 184.34"/><polygon class="cls-28" points="393.21 188.48 397.98 191.2 398.3 189.13 393.53 186.42 393.21 188.48"/><polygon class="cls-28" points="394.64 194.43 397.24 195.91 397.56 193.85 394.96 192.37 394.64 194.43"/><polygon class="cls-28" points="391.46 197.76 396.5 200.62 396.82 198.56 391.79 195.7 391.46 197.76"/><polygon class="cls-28" points="390.99 202.63 395.76 205.34 396.08 203.27 391.31 200.56 390.99 202.63"/><polygon class="cls-28" points="372.68 192.21 370.65 191.06 370.98 189 373 190.15 372.68 192.21"/><polygon class="cls-28" points="378.7 195.64 374.14 193.04 374.46 190.98 379.03 193.58 378.7 195.64"/><polygon class="cls-28" points="380.33 211.5 372.62 207.11 372.95 205.05 380.65 209.43 380.33 211.5"/><polygon class="cls-28" points="385.6 214.5 382.57 212.77 382.89 210.71 385.93 212.43 385.6 214.5"/><polygon class="cls-28" points="260.62 40.81 251.08 35.38 251.41 33.32 260.95 38.74 260.62 40.81"/><polygon class="cls-28" points="265.51 43.59 262.08 41.63 262.4 39.57 265.84 41.52 265.51 43.59"/><polygon class="cls-28" points="269.31 45.74 266.97 44.42 267.3 42.35 269.63 43.68 269.31 45.74"/><polygon class="cls-28" points="255.54 43.05 250.34 40.09 250.67 38.03 255.86 40.99 255.54 43.05"/><polygon class="cls-28" points="263.37 47.5 257 43.88 257.32 41.82 263.69 45.44 263.37 47.5"/><polygon class="cls-28" points="267.16 49.66 264.82 48.33 265.15 46.27 267.48 47.59 267.16 49.66"/><polygon class="cls-28" points="270.77 51.71 268.43 50.38 268.76 48.32 271.09 49.65 270.77 51.71"/><polygon class="cls-3" points="253.36 46.95 249.6 44.81 249.93 42.75 253.69 44.88 253.36 46.95"/><polygon class="cls-3" points="256.11 48.51 254.82 47.78 255.14 45.71 256.43 46.44 256.11 48.51"/><polygon class="cls-28" points="259.9 50.66 257.56 49.34 257.89 47.27 260.22 48.6 259.9 50.66"/><polygon class="cls-28" points="262.74 57.42 248.86 49.52 249.19 47.46 263.07 55.35 262.74 57.42"/><polygon class="cls-28" points="267.63 60.2 264.2 58.24 264.52 56.18 267.96 58.13 267.63 60.2"/><polygon class="cls-28" points="251.88 56.38 248.12 54.24 248.44 52.17 252.21 54.31 251.88 56.38"/><polygon class="cls-28" points="260.71 61.39 253.34 57.2 253.66 55.14 261.03 59.33 260.71 61.39"/><polygon class="cls-28" points="264.5 63.55 262.17 62.22 262.49 60.16 264.82 61.49 264.5 63.55"/><polygon class="cls-28" points="255.07 63.33 247.38 58.95 247.71 56.89 255.4 61.26 255.07 63.33"/><polygon class="cls-3" points="262.1 67.32 256.53 64.16 256.86 62.09 262.42 65.26 262.1 67.32"/><polygon class="cls-28" points="267.31 70.29 263.55 68.15 263.88 66.08 267.64 68.22 267.31 70.29"/><polygon class="cls-28" points="249.24 65.14 246.64 63.66 246.96 61.6 249.56 63.08 249.24 65.14"/><polygon class="cls-28" points="254.13 67.92 250.7 65.97 251.02 63.91 254.46 65.86 254.13 67.92"/><polygon class="cls-28" points="261.12 71.9 255.59 68.75 255.91 66.69 261.45 69.84 261.12 71.9"/><polygon class="cls-28" points="253.86 72.91 245.9 68.38 246.22 66.31 254.18 70.84 253.86 72.91"/><polygon class="cls-28" points="262.78 77.97 255.32 73.73 255.64 71.67 263.1 75.91 262.78 77.97"/><polygon class="cls-3" points="266.57 80.13 264.23 78.8 264.56 76.74 266.89 78.07 266.57 80.13"/><polygon class="cls-28" points="270.21 82.2 267.87 80.87 268.2 78.81 270.53 80.14 270.21 82.2"/><polygon class="cls-28" points="249.93 75.8 245.16 73.09 245.48 71.03 250.25 73.74 249.93 75.8"/><polygon class="cls-3" points="275.8 49.44 282.41 53.2 282.74 51.14 276.12 47.38 275.8 49.44"/><polygon class="cls-28" points="276.48 54.96 281.67 57.91 282 55.85 276.8 52.89 276.48 54.96"/><polygon class="cls-28" points="277.17 60.49 280.93 62.63 281.26 60.56 277.5 58.42 277.17 60.49"/><polygon class="cls-28" points="274.72 64.23 280.19 67.34 280.52 65.28 275.05 62.17 274.72 64.23"/><polygon class="cls-28" points="275.69 69.92 279.45 72.05 279.78 69.99 276.02 67.85 275.69 69.92"/><polygon class="cls-28" points="273.94 74.06 278.71 76.77 279.04 74.7 274.27 71.99 273.94 74.06"/><polygon class="cls-28" points="275.37 80 277.97 81.48 278.3 79.42 275.7 77.94 275.37 80"/><polygon class="cls-28" points="272.19 83.33 277.23 86.19 277.56 84.13 272.52 81.27 272.19 83.33"/><polygon class="cls-28" points="271.72 88.2 276.49 90.91 276.81 88.85 272.05 86.13 271.72 88.2"/><polygon class="cls-28" points="253.41 77.79 251.39 76.63 251.71 74.57 253.74 75.72 253.41 77.79"/><polygon class="cls-28" points="259.44 81.21 254.87 78.61 255.2 76.55 259.76 79.15 259.44 81.21"/><polygon class="cls-28" points="297.63 61.76 288.09 56.34 288.41 54.27 297.95 59.7 297.63 61.76"/><polygon class="cls-28" points="302.52 64.54 299.08 62.59 299.41 60.53 302.84 62.48 302.52 64.54"/><polygon class="cls-3" points="306.31 66.7 303.98 65.37 304.3 63.31 306.63 64.64 306.31 66.7"/><polygon class="cls-28" points="292.54 64.01 287.35 61.05 287.67 58.99 292.87 61.94 292.54 64.01"/><polygon class="cls-28" points="300.37 68.46 294 64.84 294.32 62.77 300.69 66.39 300.37 68.46"/><polygon class="cls-3" points="304.16 70.61 301.83 69.29 302.15 67.22 304.49 68.55 304.16 70.61"/><polygon class="cls-28" points="307.77 72.67 305.44 71.34 305.76 69.28 308.09 70.6 307.77 72.67"/><polygon class="cls-28" points="290.37 67.9 286.61 65.77 286.93 63.7 290.69 65.84 290.37 67.9"/><polygon class="cls-28" points="293.11 69.46 291.82 68.73 292.15 66.67 293.43 67.4 293.11 69.46"/><polygon class="cls-28" points="296.9 71.62 294.57 70.29 294.89 68.23 297.22 69.56 296.9 71.62"/><polygon class="cls-28" points="299.75 78.37 285.87 70.48 286.19 68.42 300.07 76.31 299.75 78.37"/><polygon class="cls-28" points="304.64 81.15 301.2 79.2 301.53 77.14 304.96 79.09 304.64 81.15"/><polygon class="cls-28" points="288.88 77.33 285.13 75.19 285.45 73.13 289.21 75.27 288.88 77.33"/><polygon class="cls-28" points="297.71 82.35 290.34 78.16 290.67 76.1 298.04 80.29 297.71 82.35"/><polygon class="cls-28" points="301.5 84.51 299.17 83.18 299.49 81.11 301.83 82.44 301.5 84.51"/><polygon class="cls-3" points="292.08 84.28 284.38 79.91 284.71 77.84 292.4 82.22 292.08 84.28"/><polygon class="cls-28" points="299.1 88.28 293.54 85.11 293.86 83.05 299.43 86.21 299.1 88.28"/><polygon class="cls-28" points="304.32 91.24 300.56 89.1 300.88 87.04 304.64 89.18 304.32 91.24"/><polygon class="cls-28" points="286.24 86.1 283.64 84.62 283.97 82.56 286.57 84.03 286.24 86.1"/><polygon class="cls-28" points="291.13 88.88 287.7 86.93 288.02 84.86 291.46 86.82 291.13 88.88"/><polygon class="cls-3" points="298.13 92.86 292.59 89.71 292.92 87.64 298.45 90.79 298.13 92.86"/><polygon class="cls-28" points="290.86 93.86 282.9 89.33 283.23 87.27 291.19 91.8 290.86 93.86"/><polygon class="cls-28" points="299.78 98.93 292.32 94.69 292.64 92.63 300.1 96.87 299.78 98.93"/><polygon class="cls-28" points="303.57 101.09 301.24 99.76 301.56 97.7 303.89 99.02 303.57 101.09"/><polygon class="cls-28" points="307.21 103.16 304.88 101.83 305.2 99.77 307.53 101.09 307.21 103.16"/><polygon class="cls-28" points="286.93 96.76 282.16 94.05 282.49 91.98 287.26 94.7 286.93 96.76"/><polygon class="cls-3" points="312.8 70.39 319.42 74.16 319.74 72.09 313.13 68.33 312.8 70.39"/><polygon class="cls-28" points="313.48 75.91 318.68 78.87 319 76.81 313.8 73.85 313.48 75.91"/><polygon class="cls-28" points="314.18 81.44 317.94 83.58 318.26 81.52 314.5 79.38 314.18 81.44"/><polygon class="cls-28" points="311.73 85.19 317.2 88.3 317.52 86.23 312.05 83.12 311.73 85.19"/><polygon class="cls-28" points="312.69 90.87 316.46 93.01 316.78 90.95 313.02 88.81 312.69 90.87"/><polygon class="cls-28" points="310.95 95.01 315.71 97.72 316.04 95.66 311.27 92.95 310.95 95.01"/><polygon class="cls-28" points="312.38 100.96 314.98 102.44 315.3 100.37 312.7 98.9 312.38 100.96"/><polygon class="cls-28" points="309.2 104.29 314.23 107.15 314.56 105.09 309.52 102.22 309.2 104.29"/><polygon class="cls-28" points="308.72 109.15 313.49 111.86 313.82 109.8 309.05 107.09 308.72 109.15"/><polygon class="cls-3" points="290.42 98.74 288.39 97.59 288.71 95.53 290.74 96.68 290.42 98.74"/><polygon class="cls-28" points="296.44 102.17 291.88 99.57 292.2 97.51 296.76 100.1 296.44 102.17"/><polygon class="cls-28" points="253.95 83.26 244.41 77.83 244.74 75.77 254.28 81.19 253.95 83.26"/><polygon class="cls-28" points="258.85 86.04 255.41 84.09 255.74 82.02 259.17 83.98 258.85 86.04"/><polygon class="cls-28" points="262.64 88.19 260.3 86.87 260.63 84.81 262.96 86.13 262.64 88.19"/><polygon class="cls-28" points="248.87 85.5 243.67 82.55 244 80.48 249.2 83.44 248.87 85.5"/><polygon class="cls-28" points="256.7 89.95 250.33 86.33 250.65 84.27 257.02 87.89 256.7 89.95"/><polygon class="cls-28" points="260.49 92.11 258.16 90.78 258.48 88.72 260.81 90.05 260.49 92.11"/><polygon class="cls-28" points="264.1 94.16 261.76 92.83 262.09 90.77 264.42 92.1 264.1 94.16"/><polygon class="cls-28" points="246.69 89.4 242.93 87.26 243.26 85.2 247.02 87.33 246.69 89.4"/><polygon class="cls-28" points="249.44 90.96 248.15 90.23 248.47 88.16 249.76 88.89 249.44 90.96"/><polygon class="cls-28" points="253.23 93.11 250.89 91.79 251.22 89.72 253.55 91.05 253.23 93.11"/><polygon class="cls-28" points="256.07 99.87 242.19 91.97 242.52 89.91 256.4 97.8 256.07 99.87"/><polygon class="cls-28" points="260.96 102.65 257.53 100.7 257.86 98.63 261.29 100.59 260.96 102.65"/><polygon class="cls-28" points="245.21 98.83 241.45 96.69 241.78 94.62 245.54 96.76 245.21 98.83"/><polygon class="cls-28" points="254.04 103.84 246.67 99.66 246.99 97.59 254.36 101.78 254.04 103.84"/><polygon class="cls-28" points="257.83 106 255.5 104.67 255.82 102.61 258.15 103.94 257.83 106"/><polygon class="cls-28" points="248.41 105.78 240.71 101.4 241.04 99.34 248.73 103.71 248.41 105.78"/><polygon class="cls-28" points="255.43 109.77 249.86 106.61 250.19 104.54 255.75 107.71 255.43 109.77"/><polygon class="cls-28" points="260.65 112.74 256.89 110.6 257.21 108.53 260.97 110.67 260.65 112.74"/><polygon class="cls-28" points="242.57 107.59 239.97 106.11 240.3 104.05 242.89 105.53 242.57 107.59"/><polygon class="cls-28" points="247.46 110.37 244.03 108.42 244.35 106.36 247.79 108.31 247.46 110.37"/><polygon class="cls-28" points="254.45 114.35 248.92 111.2 249.24 109.14 254.78 112.29 254.45 114.35"/><polygon class="cls-28" points="247.19 115.36 239.23 110.83 239.56 108.77 247.52 113.29 247.19 115.36"/><polygon class="cls-28" points="256.11 120.43 248.65 116.18 248.97 114.12 256.43 118.36 256.11 120.43"/><polygon class="cls-28" points="259.9 122.58 257.56 121.25 257.89 119.19 260.22 120.52 259.9 122.58"/><polygon class="cls-28" points="263.54 124.65 261.2 123.32 261.53 121.26 263.86 122.59 263.54 124.65"/><polygon class="cls-28" points="243.26 118.25 238.49 115.54 238.81 113.48 243.58 116.19 243.26 118.25"/><polygon class="cls-28" points="269.13 91.89 275.75 95.65 276.07 93.59 269.45 89.83 269.13 91.89"/><polygon class="cls-28" points="269.81 97.41 275 100.36 275.33 98.3 270.13 95.34 269.81 97.41"/><polygon class="cls-28" points="270.5 102.94 274.26 105.08 274.59 103.01 270.83 100.88 270.5 102.94"/><polygon class="cls-28" points="268.05 106.68 273.52 109.79 273.85 107.73 268.38 104.62 268.05 106.68"/><polygon class="cls-28" points="269.02 112.37 272.78 114.5 273.11 112.44 269.35 110.3 269.02 112.37"/><polygon class="cls-28" points="267.27 116.51 272.04 119.22 272.37 117.16 267.6 114.44 267.27 116.51"/><polygon class="cls-28" points="268.7 122.45 271.3 123.93 271.63 121.87 269.03 120.39 268.7 122.45"/><polygon class="cls-28" points="265.53 125.78 270.56 128.65 270.89 126.58 265.85 123.72 265.53 125.78"/><polygon class="cls-28" points="265.05 130.65 269.82 133.36 270.15 131.3 265.38 128.58 265.05 130.65"/><polygon class="cls-28" points="246.75 120.24 244.72 119.08 245.04 117.02 247.07 118.17 246.75 120.24"/><polygon class="cls-28" points="252.77 123.66 248.2 121.06 248.53 119 253.09 121.6 252.77 123.66"/><polygon class="cls-28" points="254.39 139.52 246.69 135.14 247.01 133.07 254.72 137.45 254.39 139.52"/><polygon class="cls-28" points="259.67 142.52 256.63 140.79 256.96 138.73 259.99 140.46 259.67 142.52"/><polygon class="cls-28" points="290.96 104.21 281.42 98.79 281.74 96.72 291.28 102.15 290.96 104.21"/><polygon class="cls-28" points="295.85 107 292.41 105.04 292.74 102.98 296.17 104.93 295.85 107"/><polygon class="cls-28" points="299.64 109.15 297.31 107.82 297.63 105.76 299.96 107.09 299.64 109.15"/><polygon class="cls-28" points="285.88 106.46 280.68 103.5 281 101.44 286.2 104.39 285.88 106.46"/><polygon class="cls-28" points="293.7 110.91 287.33 107.29 287.66 105.22 294.03 108.84 293.7 110.91"/><polygon class="cls-28" points="297.49 113.06 295.16 111.74 295.48 109.67 297.82 111 297.49 113.06"/><polygon class="cls-28" points="301.1 115.12 298.77 113.79 299.09 111.73 301.43 113.05 301.1 115.12"/><polygon class="cls-28" points="283.7 110.35 279.94 108.22 280.26 106.15 284.02 108.29 283.7 110.35"/><polygon class="cls-28" points="286.44 111.91 285.15 111.18 285.48 109.12 286.76 109.85 286.44 111.91"/><polygon class="cls-28" points="290.23 114.07 287.9 112.74 288.22 110.68 290.56 112.01 290.23 114.07"/><polygon class="cls-28" points="293.08 120.82 279.2 112.93 279.52 110.87 293.4 118.76 293.08 120.82"/><polygon class="cls-28" points="297.97 123.61 294.54 121.65 294.86 119.59 298.29 121.54 297.97 123.61"/><polygon class="cls-28" points="282.22 119.78 278.46 117.64 278.78 115.58 282.54 117.72 282.22 119.78"/><polygon class="cls-28" points="291.04 124.8 283.67 120.61 284 118.55 291.37 122.74 291.04 124.8"/><polygon class="cls-28" points="294.83 126.96 292.5 125.63 292.82 123.57 295.16 124.89 294.83 126.96"/><polygon class="cls-28" points="285.41 126.73 277.71 122.36 278.04 120.29 285.73 124.67 285.41 126.73"/><polygon class="cls-28" points="292.43 130.73 286.87 127.56 287.19 125.5 292.76 128.66 292.43 130.73"/><polygon class="cls-28" points="297.65 133.69 293.89 131.56 294.21 129.49 297.97 131.63 297.65 133.69"/><polygon class="cls-28" points="279.57 128.55 276.98 127.07 277.3 125.01 279.9 126.48 279.57 128.55"/><polygon class="cls-28" points="284.47 131.33 281.03 129.38 281.36 127.31 284.79 129.27 284.47 131.33"/><polygon class="cls-28" points="291.46 135.31 285.92 132.16 286.25 130.1 291.78 133.24 291.46 135.31"/><polygon class="cls-28" points="284.19 136.31 276.23 131.78 276.56 129.72 284.52 134.25 284.19 136.31"/><polygon class="cls-28" points="293.11 141.38 285.65 137.14 285.98 135.08 293.44 139.32 293.11 141.38"/><polygon class="cls-28" points="296.9 143.54 294.57 142.21 294.89 140.15 297.23 141.47 296.9 143.54"/><polygon class="cls-28" points="300.54 145.61 298.21 144.28 298.53 142.22 300.87 143.54 300.54 145.61"/><polygon class="cls-28" points="280.26 139.21 275.49 136.5 275.82 134.43 280.59 137.15 280.26 139.21"/><polygon class="cls-28" points="306.13 112.84 312.75 116.61 313.07 114.54 306.46 110.78 306.13 112.84"/><polygon class="cls-28" points="306.81 118.36 312.01 121.32 312.33 119.26 307.13 116.3 306.81 118.36"/><polygon class="cls-28" points="307.51 123.89 311.27 126.03 311.59 123.97 307.83 121.83 307.51 123.89"/><polygon class="cls-28" points="305.06 127.64 310.53 130.75 310.85 128.68 305.38 125.57 305.06 127.64"/><polygon class="cls-28" points="306.03 133.32 309.79 135.46 310.11 133.4 306.35 131.26 306.03 133.32"/><polygon class="cls-28" points="304.28 137.46 309.05 140.18 309.37 138.11 304.6 135.4 304.28 137.46"/><polygon class="cls-28" points="305.71 143.41 308.31 144.89 308.63 142.82 306.03 141.35 305.71 143.41"/><polygon class="cls-28" points="302.53 146.74 307.57 149.6 307.89 147.54 302.85 144.68 302.53 146.74"/><polygon class="cls-28" points="302.06 151.6 306.82 154.32 307.15 152.25 302.38 149.54 302.06 151.6"/><polygon class="cls-28" points="283.75 141.19 281.72 140.04 282.05 137.97 284.07 139.13 283.75 141.19"/><polygon class="cls-28" points="289.77 144.62 285.21 142.02 285.53 139.96 290.1 142.55 289.77 144.62"/><polygon class="cls-28" points="291.4 160.47 283.69 156.09 284.01 154.03 291.72 158.41 291.4 160.47"/><polygon class="cls-28" points="296.67 163.47 293.64 161.75 293.96 159.69 297 161.41 296.67 163.47"/><path class="cls-29" d="M259.11,86.88,268,81.75h0a.41.41,0,0,1,.44,0l111.64,64.46a1.58,1.58,0,0,1,.66,1.26v21.08a.63.63,0,0,1-.18.5h0l0,0-9,5.18-.07-10.18-103-59.48a1.58,1.58,0,0,1-.66-1.26V96.12Z"/><path class="cls-30" d="M259.51,109.76l111.64,64.46c.36.21.66,0,.66-.5V152.65a1.58,1.58,0,0,0-.66-1.26L259.51,86.93c-.36-.21-.66,0-.66.5V108.5A1.58,1.58,0,0,0,259.51,109.76Z"/><path class="cls-31" d="M274.91,105.5l86.93,51.11a59.87,59.87,0,0,0-7.57,7.87L266.7,113.92A59.37,59.37,0,0,1,274.91,105.5Z"/><path class="cls-6" d="M262.69,103.43,368,164.21c.25.14.45,0,.45-.34v-5.29a1.08,1.08,0,0,0-.45-.86L262.69,96.94c-.25-.14-.45,0-.45.34v5.29A1.08,1.08,0,0,0,262.69,103.43Z"/><path class="cls-7" d="M262.69,96.94l2.14,1.24V101a1.08,1.08,0,0,0,.45.86l103.13,59.54v2.44c0,.33-.2.48-.45.34L262.69,103.43a1.08,1.08,0,0,1-.45-.86V97.28C262.24,96.95,262.44,96.79,262.69,96.94Z"/><path class="cls-32" d="M203.55,331.48,116,280.91h0c11.3-6.52,20.82-20.8,23.73-34.45a19.92,19.92,0,0,1,9.46-13.17l66.18-38.2A63.33,63.33,0,0,0,247,144c1.06-17.94,14.62-35.58,25.15-41.66h0l87.58,50.56h0c-10.37,6-21.79,22.72-23.09,40.36a64.12,64.12,0,0,1-31.57,51.13l-68.3,39.43A19.92,19.92,0,0,0,227.28,297c-2.91,13.65-12.43,27.93-23.73,34.45Z"/><path class="cls-33" d="M272.13,102.38l87.58,50.56c-.7.41-1.4.85-2.09,1.3h0L270,103.68C270.74,103.23,271.43,102.79,272.13,102.38Z"/><g class="cls-34"><polygon class="cls-7" points="305.06 162.19 320.42 171.09 320.55 169.32 305.21 160.46 305.06 162.19"/><polygon class="cls-7" points="297.32 157.7 302.75 160.85 302.9 159.12 297.48 155.99 297.32 157.7"/><polygon class="cls-7" points="291.38 154.26 295.03 156.38 295.2 154.66 291.55 152.56 291.38 154.26"/><polygon class="cls-7" points="311.69 170.24 320.13 175.16 320.26 173.38 311.83 168.48 311.69 170.24"/><polygon class="cls-7" points="299.17 162.95 309.34 168.87 309.49 167.11 299.33 161.21 299.17 162.95"/><polygon class="cls-7" points="293.19 159.46 296.86 161.6 297.03 159.87 293.36 157.74 293.19 159.46"/><polygon class="cls-7" points="287.54 156.17 291.19 158.3 291.36 156.58 287.72 154.46 287.54 156.17"/><polygon class="cls-7" points="313.7 175.67 319.85 179.27 319.97 177.47 313.84 173.88 313.7 175.67"/><polygon class="cls-7" points="309.25 173.06 311.33 174.28 311.48 172.5 309.4 171.29 309.25 173.06"/><polygon class="cls-7" points="303.15 169.49 306.9 171.69 307.05 169.91 303.31 167.73 303.15 169.49"/><polygon class="cls-7" points="297.06 170.16 319.56 183.41 319.68 181.59 297.22 168.39 297.06 170.16"/><polygon class="cls-7" points="289.3 165.59 294.74 168.79 294.91 167.03 289.48 163.84 289.3 165.59"/><polygon class="cls-7" points="313.07 183.91 319.26 187.58 319.39 185.75 313.21 182.1 313.07 183.91"/><polygon class="cls-7" points="298.75 175.44 310.68 182.5 310.83 180.69 298.91 173.65 298.75 175.44"/><polygon class="cls-7" points="292.69 171.85 296.41 174.05 296.58 172.28 292.86 170.08 292.69 171.85"/><polygon class="cls-7" points="306.3 184.25 318.97 191.79 319.1 189.95 306.45 182.44 306.3 184.25"/><polygon class="cls-7" points="294.95 177.49 303.93 182.84 304.08 181.03 295.12 175.7 294.95 177.49"/><polygon class="cls-7" points="286.63 172.54 292.61 176.1 292.79 174.32 286.82 170.77 286.63 172.54"/><polygon class="cls-7" points="314.35 193.46 318.67 196.04 318.8 194.18 314.49 191.6 314.35 193.46"/><polygon class="cls-7" points="306.29 188.63 311.94 192.01 312.08 190.16 306.44 186.8 306.29 188.63"/><polygon class="cls-7" points="294.93 181.83 303.9 187.2 304.06 185.38 295.1 180.03 294.93 181.83"/><polygon class="cls-7" points="305.16 192.38 318.37 200.33 318.5 198.45 305.32 190.53 305.16 192.38"/><polygon class="cls-7" points="290.67 183.66 302.77 190.94 302.93 189.1 290.85 181.84 290.67 183.66"/><polygon class="cls-7" points="284.6 180 288.33 182.25 288.51 180.44 284.79 178.21 284.6 180"/><polygon class="cls-7" points="278.83 176.53 282.53 178.75 282.72 176.96 279.03 174.75 278.83 176.53"/><polygon class="cls-7" points="310.09 199.82 318.06 204.65 318.2 202.75 310.24 197.95 310.09 199.82"/><polygon class="cls-7" points="274.95 144.74 264.96 138.95 265.18 137.3 275.15 143.07 274.95 144.74"/><polygon class="cls-7" points="272.32 147.31 264.46 142.72 264.68 141.06 272.53 145.63 272.32 147.31"/><polygon class="cls-7" points="269.66 149.87 263.95 146.53 264.18 144.86 269.87 148.18 269.66 149.87"/><polygon class="cls-7" points="271.79 155.28 263.45 150.36 263.67 148.68 272 153.57 271.79 155.28"/><polygon class="cls-7" points="268.68 157.63 262.94 154.23 263.16 152.53 268.9 155.92 268.68 157.63"/><polygon class="cls-7" points="269.74 162.49 262.42 158.13 262.65 156.42 269.96 160.76 269.74 162.49"/><polygon class="cls-7" points="265.9 164.45 261.9 162.06 262.13 160.34 266.12 162.72 265.9 164.45"/><polygon class="cls-7" points="269.17 170.72 261.38 166.03 261.61 164.29 269.39 168.96 269.17 170.72"/><polygon class="cls-7" points="268.25 174.5 260.85 170.02 261.08 168.27 268.47 172.73 268.25 174.5"/><polygon class="cls-7" points="304.32 196.33 307.67 198.36 307.82 196.49 304.48 194.47 304.32 196.33"/><polygon class="cls-7" points="294.46 190.37 301.92 194.88 302.08 193.02 294.64 188.53 294.46 190.37"/></g><g class="cls-34"><polygon class="cls-7" points="248.51 220.18 225.68 207 227.31 206.05 250.14 219.24 248.51 220.18"/><polygon class="cls-7" points="261.79 227.84 253.55 223.09 255.18 222.15 263.42 226.9 261.79 227.84"/><polygon class="cls-7" points="268.4 231.66 265.98 230.27 267.62 229.33 270.03 230.72 268.4 231.66"/><polygon class="cls-7" points="280.84 238.84 272.6 234.09 274.23 233.14 282.47 237.9 280.84 238.84"/><polygon class="cls-7" points="228.97 212.8 222.3 208.94 223.93 208 230.6 211.85 228.97 212.8"/><polygon class="cls-7" points="258.41 229.79 234.01 215.7 235.64 214.76 260.04 228.85 258.41 229.79"/><polygon class="cls-7" points="265.02 233.61 262.61 232.22 264.24 231.28 266.66 232.67 265.02 233.61"/><polygon class="cls-7" points="277.46 240.79 269.22 236.03 270.85 235.09 279.09 239.85 277.46 240.79"/><polygon class="cls-7" points="222.26 212.82 218.93 210.89 220.56 209.95 223.89 211.88 222.26 212.82"/><polygon class="cls-7" points="231.25 218.01 227.3 215.73 228.93 214.78 232.89 217.07 231.25 218.01"/><polygon class="cls-7" points="237.87 221.83 235.45 220.43 237.08 219.49 239.5 220.89 237.87 221.83"/><polygon class="cls-7" points="250.31 229.01 242.06 224.25 243.69 223.31 251.94 228.07 250.31 229.01"/><polygon class="cls-7" points="222.22 216.69 215.55 212.84 217.18 211.9 223.85 215.75 222.22 216.69"/><polygon class="cls-7" points="235.5 224.36 227.26 219.6 228.89 218.66 237.13 223.42 235.5 224.36"/><polygon class="cls-7" points="242.11 228.18 239.7 226.78 241.33 225.84 243.74 227.23 242.11 228.18"/><polygon class="cls-7" points="254.55 235.36 246.31 230.6 247.94 229.66 256.18 234.41 254.55 235.36"/><polygon class="cls-7" points="234.76 228.12 211.92 214.93 213.56 213.99 236.39 227.18 234.76 228.12"/><polygon class="cls-7" points="248.04 235.78 239.8 231.03 241.43 230.09 249.67 234.84 248.04 235.78"/><polygon class="cls-7" points="254.65 239.6 252.23 238.21 253.87 237.27 256.28 238.66 254.65 239.6"/><polygon class="cls-7" points="267.09 246.78 258.85 242.03 260.48 241.08 268.72 245.84 267.09 246.78"/><polygon class="cls-7" points="215.22 220.74 208.55 216.88 210.18 215.94 216.85 219.79 215.22 220.74"/><polygon class="cls-7" points="244.66 237.73 220.26 223.64 221.89 222.7 246.29 236.79 244.66 237.73"/><polygon class="cls-7" points="251.28 241.55 248.86 240.16 250.49 239.21 252.91 240.61 251.28 241.55"/><polygon class="cls-7" points="263.71 248.73 255.47 243.97 257.1 243.03 265.34 247.79 263.71 248.73"/><polygon class="cls-7" points="208.51 220.76 205.18 218.83 206.81 217.89 210.14 219.81 208.51 220.76"/><polygon class="cls-7" points="217.5 225.95 213.55 223.66 215.18 222.72 219.13 225.01 217.5 225.95"/><polygon class="cls-7" points="224.12 229.77 221.7 228.37 223.33 227.43 225.75 228.82 224.12 229.77"/><polygon class="cls-7" points="236.55 236.95 228.31 232.19 229.94 231.25 238.19 236.01 236.55 236.95"/><polygon class="cls-7" points="208.47 224.63 201.8 220.78 203.43 219.84 210.1 223.69 208.47 224.63"/><polygon class="cls-7" points="221.75 232.3 213.51 227.54 215.14 226.6 223.38 231.35 221.75 232.3"/><polygon class="cls-7" points="228.36 236.11 225.95 234.72 227.58 233.78 229.99 235.17 228.36 236.11"/><polygon class="cls-7" points="240.8 243.29 232.56 238.54 234.19 237.6 242.43 242.35 240.8 243.29"/><polygon class="cls-7" points="221.01 236.06 198.17 222.87 199.81 221.93 222.64 235.12 221.01 236.06"/><polygon class="cls-7" points="234.29 243.72 226.05 238.97 227.68 238.02 235.92 242.78 234.29 243.72"/><polygon class="cls-7" points="240.9 247.54 238.48 246.15 240.11 245.21 242.53 246.6 240.9 247.54"/><polygon class="cls-7" points="253.34 254.72 245.1 249.96 246.73 249.02 254.97 253.78 253.34 254.72"/><polygon class="cls-7" points="201.47 228.67 194.8 224.82 196.43 223.88 203.1 227.73 201.47 228.67"/><polygon class="cls-7" points="230.91 245.67 206.51 231.58 208.14 230.64 232.54 244.73 230.91 245.67"/><polygon class="cls-7" points="237.53 249.49 235.11 248.09 236.74 247.15 239.16 248.55 237.53 249.49"/><polygon class="cls-7" points="249.96 256.67 241.72 251.91 243.35 250.97 251.59 255.73 249.96 256.67"/><polygon class="cls-7" points="194.76 228.7 191.43 226.77 193.06 225.83 196.39 227.75 194.76 228.7"/><polygon class="cls-7" points="203.75 233.89 199.8 231.6 201.43 230.66 205.38 232.95 203.75 233.89"/><polygon class="cls-7" points="210.37 237.71 207.95 236.31 209.58 235.37 212 236.76 210.37 237.71"/><polygon class="cls-7" points="222.8 244.89 214.56 240.13 216.19 239.19 224.44 243.94 222.8 244.89"/><polygon class="cls-7" points="194.72 232.57 188.05 228.72 189.68 227.78 196.35 231.63 194.72 232.57"/><polygon class="cls-7" points="208 240.24 199.76 235.48 201.39 234.54 209.63 239.29 208 240.24"/><polygon class="cls-7" points="214.61 244.05 212.2 242.66 213.83 241.72 216.24 243.11 214.61 244.05"/><polygon class="cls-7" points="227.05 251.23 218.81 246.48 220.44 245.53 228.68 250.29 227.05 251.23"/></g><path class="cls-35" d="M161.09,127l-31.77-18.34,31.77-18.34,31.77,18.34Zm-30-18.34,30,17.34,30-17.34-30-17.34Z"/><path class="cls-35" d="M98.28,344.31,66.51,326l31.77-18.34L130.06,326ZM68.24,326l30,17.34,30-17.34-30-17.34Z"/><path class="cls-35" d="M443.64,289.91l-31.77-18.34,31.77-18.34,31.77,18.34Zm-30-18.34,30,17.34,30-17.34-30-17.34Z"/></g></g></svg>