<svg xmlns="http://www.w3.org/2000/svg" xmlns:xlink="http://www.w3.org/1999/xlink" viewBox="0 0 70.24 59.07"><defs><style>.cls-1{isolation:isolate;}.cls-2{opacity:0.28;mix-blend-mode:multiply;fill:url(#linear-gradient);}.cls-3{fill:#fff;}.cls-4,.cls-8{fill:#f88;}.cls-5{opacity:0.2;}.cls-6{fill:#ffe7db;}.cls-7{fill:none;stroke:#9a9fb3;stroke-miterlimit:10;stroke-width:0.25px;}.cls-8{opacity:0.68;}</style><linearGradient id="linear-gradient" x1="1.79" y1="30.48" x2="56.48" y2="30.48" gradientUnits="userSpaceOnUse"><stop offset="0" stop-color="#fff"/><stop offset="1" stop-color="#392ecf"/></linearGradient></defs><title>register-click</title><g class="cls-1"><g id="Capa_2" data-name="Capa 2"><g id="OBJECTS"><rect class="cls-2" x="1.79" y="1.9" width="54.68" height="57.17" rx="3.25" ry="3.25"/><rect class="cls-3" width="54.68" height="57.17" rx="3.25" ry="3.25"/><path class="cls-4" d="M51.43,0H3.25A3.25,3.25,0,0,0,0,3.25V7.94H54.68V3.25A3.25,3.25,0,0,0,51.43,0Z"/><circle class="cls-3" cx="3.64" cy="4.08" r="1.09"/><circle class="cls-3" cx="8.58" cy="4.08" r="1.09"/><circle class="cls-3" cx="13.52" cy="4.08" r="1.09"/><rect class="cls-3" x="46.36" y="2.62" width="3.5" height="0.46"/><rect class="cls-3" x="46.36" y="3.74" width="3.5" height="0.46"/><rect class="cls-3" x="46.36" y="4.87" width="3.5" height="0.46"/><rect class="cls-5" x="6.88" y="14.03" width="42.47" height="15.52"/><rect class="cls-6" x="6.1" y="13.07" width="42.47" height="15.52"/><line class="cls-7" x1="9.11" y1="16.83" x2="44.19" y2="16.83"/><line class="cls-7" x1="9.11" y1="19.49" x2="44.19" y2="19.49"/><line class="cls-7" x1="9.11" y1="22.16" x2="44.19" y2="22.16"/><line class="cls-7" x1="9.11" y1="24.83" x2="24.52" y2="24.83"/><rect class="cls-5" x="6.88" y="35.77" width="42.47" height="15.52"/><rect class="cls-6" x="6.1" y="34.81" width="42.47" height="15.52"/><line class="cls-7" x1="9.11" y1="38.57" x2="44.19" y2="38.57"/><line class="cls-7" x1="9.11" y1="41.24" x2="44.19" y2="41.24"/><line class="cls-7" x1="9.11" y1="43.9" x2="44.19" y2="43.9"/><line class="cls-7" x1="9.11" y1="46.57" x2="24.52" y2="46.57"/><circle class="cls-8" cx="53.27" cy="26.94" r="10.01"/><polygon class="cls-3" points="59.62 25.48 49.02 22.82 51.69 33.42 53.61 31.49 65.02 44.04 70.24 38.82 57.7 27.41 59.62 25.48"/></g></g></g></svg>