<svg xmlns="http://www.w3.org/2000/svg" xmlns:xlink="http://www.w3.org/1999/xlink" viewBox="0 0 105.19 185.59"><defs><style>.cls-1{fill:none;}.cls-2{isolation:isolate;}.cls-3{fill:#6a64ff;opacity:0.34;mix-blend-mode:multiply;}.cls-4{opacity:0.91;mix-blend-mode:screen;fill:url(#linear-gradient);}.cls-5{fill:#9a9fb3;}.cls-6{fill:#f88;}.cls-7{opacity:0.83;}.cls-8{fill:#4d70ff;}.cls-9{clip-path:url(#clip-path);}.cls-10{fill:#fff;}.cls-11{fill:#2d24a3;}.cls-12{opacity:0.2;}.cls-13{fill:#ffadad;}.cls-14{fill:#212226;}.cls-15{fill:#4340a3;}.cls-16{fill:#a67070;}</style><linearGradient id="linear-gradient" x1="69.25" y1="28.28" x2="69.25" y2="79.15" gradientTransform="matrix(1, 0, -0.19, 1, 11.38, 0)" gradientUnits="userSpaceOnUse"><stop offset="0" stop-color="#fff"/><stop offset="1"/></linearGradient><clipPath id="clip-path"><path class="cls-1" d="M75.14,36.93a13.88,13.88,0,0,1-13,11C56,47.91,52,43,53.17,36.93a13.88,13.88,0,0,1,13-11C72.28,25.94,76.28,30.86,75.14,36.93Z"/></clipPath></defs><title>register</title><g class="cls-2"><g id="Capa_2" data-name="Capa 2"><g id="OBJECTS"><ellipse class="cls-3" cx="33.15" cy="179.1" rx="33.15" ry="6.49"/><polygon class="cls-4" points="98.47 55.37 41.99 55.37 48.71 19.61 105.19 19.61 98.47 55.37"/><polygon class="cls-5" points="96.75 29.18 80 29.18 80.13 28.47 96.88 28.47 96.75 29.18"/><polygon class="cls-5" points="96.2 32.1 79.45 32.1 79.58 31.39 96.33 31.39 96.2 32.1"/><polygon class="cls-5" points="95.65 35.02 78.9 35.02 79.03 34.31 95.78 34.31 95.65 35.02"/><polygon class="cls-5" points="95.1 37.94 78.35 37.94 78.49 37.23 95.24 37.23 95.1 37.94"/><polygon class="cls-5" points="94.55 40.86 77.8 40.86 77.94 40.15 94.69 40.15 94.55 40.86"/><polygon class="cls-5" points="93.31 47.48 87.75 47.48 87.88 46.77 93.44 46.77 93.31 47.48"/><path class="cls-6" d="M51.69,21.7a1,1,0,0,1-.95.8.64.64,0,0,1-.65-.8,1,1,0,0,1,.95-.8A.64.64,0,0,1,51.69,21.7Z"/><path class="cls-6" d="M55.25,21.7a1,1,0,0,1-.95.8.64.64,0,0,1-.65-.8,1,1,0,0,1,.95-.8A.64.64,0,0,1,55.25,21.7Z"/><path class="cls-6" d="M58.81,21.7a1,1,0,0,1-.95.8.64.64,0,0,1-.65-.8,1,1,0,0,1,.95-.8A.64.64,0,0,1,58.81,21.7Z"/><g class="cls-7"><path class="cls-8" d="M75.14,36.93a13.88,13.88,0,0,1-13,11C56,47.91,52,43,53.17,36.93a13.88,13.88,0,0,1,13-11C72.28,25.94,76.28,30.86,75.14,36.93Z"/><g class="cls-9"><path class="cls-10" d="M68.37,34.44a4.74,4.74,0,0,1-4.45,3.75,3,3,0,0,1-3-3.75,4.74,4.74,0,0,1,4.45-3.75A3,3,0,0,1,68.37,34.44Z"/><path class="cls-10" d="M70.79,47.91a11,11,0,0,1-10.33,8.7c-4.8,0-8-3.89-7.06-8.7a11,11,0,0,1,10.33-8.7C68.53,39.22,71.69,43.11,70.79,47.91Z"/></g></g><path class="cls-6" d="M36.78,167.45l-.66,11H55.88s-8.06-5.37-11.67-7.14l-.4-3.9Z"/><path class="cls-11" d="M42.89,79.64l1.32,90.76h-7.8S27.79,134.85,32,124.47L24.51,79.64Z"/><path class="cls-12" d="M42.89,79.64H24.51L32,124.47c-1.47,3.6-1.39,10.22-.66,17.33L44,157.25Z"/><path class="cls-6" d="M15.91,168.86l-3,11H34.46s-9.13-5.37-12.73-7.14l.66-3.9Z"/><path class="cls-11" d="M43.44,78.54,35.75,124,22.86,170.4H15.11s2.48-44.51,10.48-49.15L19.27,78.54Z"/><polygon class="cls-12" points="42.91 81.64 43.44 78.54 19.27 78.54 19.82 82.23 42.97 85.19 42.91 81.64"/><path class="cls-13" d="M55.88,47.11s4.78-7.75,12.29-9.51l-2.94,3.55s1.4,3.68-.37,5.52a7.72,7.72,0,0,1-4.64,2l-2,2.21Z"/><path class="cls-10" d="M36.89,40.78l6.55,13.4,12.88-8.69,3.24,4.93S48.37,71.47,43.44,69.93s-9.2-12.66-9.2-12.66Z"/><path class="cls-12" d="M43.44,54.18l-6.55-13.4L34.24,57.27s4.27,11.11,9.2,12.66a1.78,1.78,0,0,0,.36.06l5.95-20.07Z"/><path class="cls-13" d="M41.89,9.09s.77,6.85,1.55,8.5H41.29s.17,6.57-1.16,7.4c-.95.59-3.72,0-4.37.77S34.16,32,34.16,32l-8.56-.72.88-7.67s-4.8-5.74-3.37-12.81S40.62,2.52,41.89,9.09Z"/><path class="cls-12" d="M31.18,20.5l-6.77-.35a17.23,17.23,0,0,0,2.08,3.46l-.88,7.67,8.56.72s.94-5.47,1.59-6.24a2.1,2.1,0,0,1,1.41-.43C33.9,24.41,30.93,20.67,31.18,20.5Z"/><path class="cls-14" d="M42.18,11.34S40.38,12.4,36.74,10c0,0-2.43,4.38-4.56,3.83,0,0-.11,3.13-.55,3.35s-1.36-2.69-2.28-2.87-1.84.74-.88,3.46,2.72,2.72,2.72,2.72l-4.69,3.11s-3.7-1.2-4.43-4.25c0,0-4.71-4.6-1.88-7.84,0,0-3.13-2.65,4.16-5.85,0,0,1.71-6.35,5.13-3.42,0,0,6.28-4.69,7.86-.52,0,0,8.1-.66,8.61,3.72s-1.44,5.45-1.44,5.45.44,3.61-1.8,3.83Z"/><path class="cls-15" d="M19.66,40.19a4.79,4.79,0,0,1-3.53-5.59c.74-4.56,6.72-6.62,19-3.75,1.45.34,2.58,2.72,1.62,4.78,0,0,3.94,9.68,5.15,17.63s1.88,16.23,3.2,20.09.22,8.17-3.42,8.17H19.27c-4.43,0-5-6.18-3.23-12.59S20.4,44.79,19.66,40.19Z"/><path class="cls-10" d="M29.64,37.69c7,1.49,2.13,15.35.73,19.32s-2.94,7.51-.73,10.6a47.42,47.42,0,0,0,6.12,6.51l-2.61,5.52s-14.57-1.88-18-6.18-1.5-13.94,1.5-20.54S24.45,36.58,29.64,37.69Z"/><path class="cls-16" d="M32.72,80.6h0a.34.34,0,0,1-.17-.46l3.55-7.69a.34.34,0,0,1,.46-.17h0a.34.34,0,0,1,.17.46l-3.55,7.69A.34.34,0,0,1,32.72,80.6Z"/></g></g></g></svg>