<svg xmlns="http://www.w3.org/2000/svg" xmlns:xlink="http://www.w3.org/1999/xlink" viewBox="0 0 239.56 232.53"><defs><style>.cls-1{fill:none;}.cls-2{isolation:isolate;}.cls-3{fill:url(#Gradient_bez_nazwy_3);}.cls-4{fill:url(#Gradient_bez_nazwy_3-2);}.cls-5{fill:url(#Gradient_bez_nazwy_3-3);}.cls-6{fill:url(#Gradient_bez_nazwy_3-4);}.cls-7{fill:url(#Gradient_bez_nazwy_3-5);}.cls-8{fill:url(#Gradient_bez_nazwy_3-6);}.cls-9{fill:url(#Gradient_bez_nazwy_3-7);}.cls-10{fill:url(#Gradient_bez_nazwy_3-8);}.cls-11{fill:url(#Gradient_bez_nazwy_5);}.cls-12{fill:url(#Gradient_bez_nazwy_5-2);}.cls-13{fill:url(#Gradient_bez_nazwy_5-3);}.cls-14{fill:url(#Gradient_bez_nazwy_5-4);}.cls-15{fill:url(#Gradient_bez_nazwy_5-5);}.cls-16{fill:url(#Gradient_bez_nazwy_5-6);}.cls-17{fill:url(#Gradient_bez_nazwy_5-7);}.cls-18{fill:url(#Gradient_bez_nazwy_5-8);}.cls-19{fill:url(#Gradient_bez_nazwy_5-9);}.cls-20{fill:#ff7676;}.cls-20,.cls-64,.cls-71,.cls-86{opacity:0.3;}.cls-20,.cls-29{mix-blend-mode:screen;}.cls-21{fill:#fff;}.cls-22{fill:url(#Gradient_bez_nazwy_12);}.cls-23{fill:url(#Gradient_bez_nazwy_11);}.cls-24{fill:url(#Gradient_bez_nazwy_10);}.cls-25{fill:url(#Gradient_bez_nazwy_11-2);}.cls-26{fill:url(#Gradient_bez_nazwy_11-3);}.cls-27{opacity:0.2;fill:url(#Gradient_bez_nazwy_5-10);}.cls-27,.cls-64,.cls-86{mix-blend-mode:multiply;}.cls-28{fill:url(#Gradient_bez_nazwy_9);}.cls-29{fill:#78c2ff;opacity:0.1;}.cls-30{fill:url(#Gradient_bez_nazwy_2);}.cls-31{fill:#e2e2e2;}.cls-32{fill:url(#Gradient_bez_nazwy_5-11);}.cls-33{fill:url(#Gradient_bez_nazwy_3-9);}.cls-34{fill:#c9fca7;}.cls-35{fill:url(#Gradient_bez_nazwy_2-2);}.cls-36{fill:url(#Gradient_bez_nazwy_2-3);}.cls-37{fill:url(#Gradient_bez_nazwy_2-4);}.cls-38{fill:url(#Gradient_bez_nazwy_7);}.cls-39{fill:url(#Gradient_bez_nazwy_7-2);}.cls-40{fill:url(#Gradient_bez_nazwy_7-3);}.cls-41{fill:url(#Gradient_bez_nazwy_5-12);}.cls-42{fill:url(#Gradient_bez_nazwy_11-4);}.cls-43{fill:url(#Gradient_bez_nazwy_11-5);}.cls-44{fill:url(#Gradient_bez_nazwy_11-6);}.cls-45{fill:url(#Gradient_bez_nazwy_2-5);}.cls-46{fill:url(#Gradient_bez_nazwy_9-2);}.cls-47{fill:url(#Gradient_bez_nazwy_7-4);}.cls-48{fill:url(#Gradient_bez_nazwy_7-5);}.cls-49{fill:#e89672;}.cls-50{fill:url(#Gradient_bez_nazwy_7-6);}.cls-51{fill:#ffaf84;}.cls-52{fill:url(#Gradient_bez_nazwy_7-7);}.cls-53{fill:url(#Gradient_bez_nazwy_7-8);}.cls-54{fill:url(#Gradient_bez_nazwy_2-6);}.cls-55{fill:url(#Gradient_bez_nazwy_2-7);}.cls-56{fill:url(#Gradient_bez_nazwy_9-3);}.cls-57{fill:url(#Gradient_bez_nazwy_9-4);}.cls-58{fill:url(#Gradient_bez_nazwy_8);}.cls-59{fill:url(#Gradient_bez_nazwy_8-2);}.cls-60{fill:url(#Gradient_bez_nazwy_8-3);}.cls-61{fill:url(#Gradient_bez_nazwy_8-4);}.cls-62{fill:url(#Gradient_bez_nazwy_8-5);}.cls-63{clip-path:url(#clip-path);}.cls-64{fill:url(#Gradient_bez_nazwy_4);}.cls-65{fill:url(#Gradient_bez_nazwy_2-8);}.cls-66{fill:url(#Gradient_bez_nazwy_2-9);}.cls-67{fill:url(#Gradient_bez_nazwy_2-10);}.cls-68{fill:url(#Gradient_bez_nazwy_2-11);}.cls-69{fill:url(#Gradient_bez_nazwy_8-6);}.cls-70{fill:url(#Gradient_bez_nazwy_9-5);}.cls-71{fill:url(#Gradient_bez_nazwy_10-2);}.cls-72{fill:url(#Gradient_bez_nazwy_9-6);}.cls-73{fill:url(#Gradient_bez_nazwy_7-9);}.cls-74{fill:url(#Gradient_bez_nazwy_2-12);}.cls-75{fill:url(#Gradient_bez_nazwy_2-13);}.cls-76{fill:url(#Gradient_bez_nazwy_7-10);}.cls-77{fill:url(#Gradient_bez_nazwy_8-7);}.cls-78{fill:url(#Gradient_bez_nazwy_8-8);}.cls-79{fill:url(#Gradient_bez_nazwy_8-9);}.cls-80{fill:url(#Gradient_bez_nazwy_8-10);}.cls-81{fill:url(#Gradient_bez_nazwy_8-11);}.cls-82{fill:url(#Gradient_bez_nazwy_5-13);}.cls-83{fill:url(#Gradient_bez_nazwy_7-11);}.cls-84{fill:url(#Gradient_bez_nazwy_5-14);}.cls-85{clip-path:url(#clip-path-2);}.cls-86{fill:url(#Gradient_bez_nazwy_4-2);}</style><linearGradient id="Gradient_bez_nazwy_3" x1="93.37" y1="17.31" x2="76.63" y2="-26.91" gradientTransform="matrix(0.86, -0.51, 0.51, 0.86, -61.53, 133.04)" gradientUnits="userSpaceOnUse"><stop offset="0" stop-color="#008161"/><stop offset="1" stop-color="#9fff31"/></linearGradient><linearGradient id="Gradient_bez_nazwy_3-2" x1="85.4" y1="16.34" x2="99.33" y2="-9.06" gradientTransform="matrix(-0.86, 0.51, 0.51, 0.86, 93.71, 41.81)" xlink:href="#Gradient_bez_nazwy_3"/><linearGradient id="Gradient_bez_nazwy_3-3" x1="95.34" y1="2.55" x2="97.47" y2="-1.33" gradientTransform="matrix(-0.86, 0.51, 0.51, 0.86, 93.71, 41.81)" xlink:href="#Gradient_bez_nazwy_3"/><linearGradient id="Gradient_bez_nazwy_3-4" x1="96.8" y1="-3.34" x2="98.14" y2="-6.86" gradientTransform="matrix(-0.86, 0.51, 0.51, 0.86, 93.71, 41.81)" xlink:href="#Gradient_bez_nazwy_3"/><linearGradient id="Gradient_bez_nazwy_3-5" x1="89.16" y1="0.37" x2="89.17" y2="-2.95" gradientTransform="matrix(-0.86, 0.51, 0.51, 0.86, 93.71, 41.81)" xlink:href="#Gradient_bez_nazwy_3"/><linearGradient id="Gradient_bez_nazwy_3-6" x1="93.71" y1="9.3" x2="96.53" y2="4.15" gradientTransform="matrix(-0.86, 0.51, 0.51, 0.86, 93.71, 41.81)" xlink:href="#Gradient_bez_nazwy_3"/><linearGradient id="Gradient_bez_nazwy_3-7" x1="85.72" y1="6.55" x2="85.73" y2="1.29" gradientTransform="matrix(-0.86, 0.51, 0.51, 0.86, 93.71, 41.81)" xlink:href="#Gradient_bez_nazwy_3"/><linearGradient id="Gradient_bez_nazwy_3-8" x1="92.03" y1="-5.26" x2="92.59" y2="-7.79" gradientTransform="matrix(-0.86, 0.51, 0.51, 0.86, 93.71, 41.81)" xlink:href="#Gradient_bez_nazwy_3"/><linearGradient id="Gradient_bez_nazwy_5" x1="114.24" y1="11.57" x2="90.86" y2="-50.22" gradientTransform="translate(-77.35 103.07) rotate(-9)" gradientUnits="userSpaceOnUse"><stop offset="0" stop-color="#2c27ce"/><stop offset="0.65" stop-color="#ef1d68"/><stop offset="1" stop-color="#efba92"/></linearGradient><linearGradient id="Gradient_bez_nazwy_5-2" x1="63.28" y1="10.42" x2="82.75" y2="-25.08" gradientTransform="matrix(-0.99, 0.16, 0.16, 0.99, 99.7, 74.45)" xlink:href="#Gradient_bez_nazwy_5"/><linearGradient id="Gradient_bez_nazwy_5-3" x1="77.17" y1="-8.85" x2="80.14" y2="-14.27" gradientTransform="matrix(-0.99, 0.16, 0.16, 0.99, 99.7, 74.45)" xlink:href="#Gradient_bez_nazwy_5"/><linearGradient id="Gradient_bez_nazwy_5-4" x1="79.2" y1="-17.08" x2="81.08" y2="-22" gradientTransform="matrix(-0.99, 0.16, 0.16, 0.99, 99.7, 74.45)" xlink:href="#Gradient_bez_nazwy_5"/><linearGradient id="Gradient_bez_nazwy_5-5" x1="68.54" y1="-11.89" x2="68.55" y2="-16.54" gradientTransform="matrix(-0.99, 0.16, 0.16, 0.99, 99.7, 74.45)" xlink:href="#Gradient_bez_nazwy_5"/><linearGradient id="Gradient_bez_nazwy_5-6" x1="74.9" y1="0.57" x2="78.84" y2="-6.61" gradientTransform="matrix(-0.99, 0.16, 0.16, 0.99, 99.7, 74.45)" xlink:href="#Gradient_bez_nazwy_5"/><linearGradient id="Gradient_bez_nazwy_5-7" x1="63.73" y1="-3.27" x2="63.75" y2="-10.62" gradientTransform="matrix(-0.99, 0.16, 0.16, 0.99, 99.7, 74.45)" xlink:href="#Gradient_bez_nazwy_5"/><linearGradient id="Gradient_bez_nazwy_5-8" x1="72.54" y1="-19.76" x2="73.33" y2="-23.3" gradientTransform="matrix(-0.99, 0.16, 0.16, 0.99, 99.7, 74.45)" xlink:href="#Gradient_bez_nazwy_5"/><linearGradient id="Gradient_bez_nazwy_5-9" x1="203.62" y1="142.88" x2="192.85" y2="52.56" gradientTransform="translate(-7.01 25.39) rotate(-8.17)" xlink:href="#Gradient_bez_nazwy_5"/><linearGradient id="Gradient_bez_nazwy_12" x1="77.14" y1="147.82" x2="88.53" y2="156.93" gradientUnits="userSpaceOnUse"><stop offset="0" stop-color="#2c27ce"/><stop offset="0.72" stop-color="#b82085"/><stop offset="1" stop-color="#ef1d68"/></linearGradient><linearGradient id="Gradient_bez_nazwy_11" x1="72.18" y1="159.67" x2="91.36" y2="199.86" gradientUnits="userSpaceOnUse"><stop offset="0" stop-color="#2c27ce"/><stop offset="1" stop-color="#ef1d68"/></linearGradient><linearGradient id="Gradient_bez_nazwy_10" x1="86.1" y1="221.74" x2="86.1" y2="46.15" gradientUnits="userSpaceOnUse"><stop offset="0" stop-color="#2ca6ef"/><stop offset="1" stop-color="#b1ffff"/></linearGradient><linearGradient id="Gradient_bez_nazwy_11-2" x1="81.08" y1="112.54" x2="176.38" y2="75.28" gradientTransform="translate(3.5 -2.75) rotate(1.95)" xlink:href="#Gradient_bez_nazwy_11"/><linearGradient id="Gradient_bez_nazwy_11-3" x1="45.78" y1="117.69" x2="101.81" y2="99.49" gradientTransform="translate(3.5 -2.75) rotate(1.95)" xlink:href="#Gradient_bez_nazwy_11"/><linearGradient id="Gradient_bez_nazwy_5-10" x1="-67.74" y1="198.31" x2="176.26" y2="97.98" gradientTransform="matrix(1, 0, 0, 1, 0, 0)" xlink:href="#Gradient_bez_nazwy_5"/><linearGradient id="Gradient_bez_nazwy_9" x1="155.73" y1="72.65" x2="154.52" y2="14.23" gradientTransform="matrix(0.99, 0.14, -0.14, 0.99, 7.09, -19.51)" gradientUnits="userSpaceOnUse"><stop offset="0" stop-color="#36078b"/><stop offset="1" stop-color="#16b1ff"/></linearGradient><linearGradient id="Gradient_bez_nazwy_2" x1="26.15" y1="34.96" x2="77.16" y2="-1.37" gradientUnits="userSpaceOnUse"><stop offset="0" stop-color="#f70f47"/><stop offset="1" stop-color="#ffb41d"/></linearGradient><linearGradient id="Gradient_bez_nazwy_5-11" x1="61.97" y1="32.38" x2="72.43" y2="17.42" gradientTransform="translate(0.73 -8.8) rotate(0.01)" xlink:href="#Gradient_bez_nazwy_5"/><linearGradient id="Gradient_bez_nazwy_3-9" x1="200.15" y1="74.94" x2="230.22" y2="31.06" gradientTransform="translate(44.12 -74) rotate(20.18)" xlink:href="#Gradient_bez_nazwy_3"/><linearGradient id="Gradient_bez_nazwy_2-2" x1="187.42" y1="27.57" x2="187.42" y2="18.88" gradientTransform="translate(7.19 -29.21) rotate(8.13)" xlink:href="#Gradient_bez_nazwy_2"/><linearGradient id="Gradient_bez_nazwy_2-3" x1="187.42" y1="42.92" x2="187.42" y2="24.68" gradientTransform="translate(7.19 -29.21) rotate(8.13)" xlink:href="#Gradient_bez_nazwy_2"/><linearGradient id="Gradient_bez_nazwy_2-4" x1="187.42" y1="27.57" x2="187.42" y2="18.88" gradientTransform="translate(7.19 -29.21) rotate(8.13)" xlink:href="#Gradient_bez_nazwy_2"/><linearGradient id="Gradient_bez_nazwy_7" x1="60.77" y1="207.41" x2="60.77" y2="199.69" gradientTransform="matrix(0.84, -0.54, 0.54, 0.84, -130.15, 25.72)" gradientUnits="userSpaceOnUse"><stop offset="0" stop-color="#f70f47"/><stop offset="1" stop-color="#9e005d"/></linearGradient><linearGradient id="Gradient_bez_nazwy_7-2" x1="60.77" y1="221.04" x2="60.77" y2="204.85" xlink:href="#Gradient_bez_nazwy_7"/><linearGradient id="Gradient_bez_nazwy_7-3" x1="60.77" y1="207.41" x2="60.77" y2="199.69" xlink:href="#Gradient_bez_nazwy_7"/><linearGradient id="Gradient_bez_nazwy_5-12" x1="14.43" y1="135.07" x2="33.23" y2="167.46" gradientTransform="matrix(1, 0, 0, 1, 0, 0)" xlink:href="#Gradient_bez_nazwy_5"/><linearGradient id="Gradient_bez_nazwy_11-4" x1="20.75" y1="158.28" x2="41.27" y2="173.7" xlink:href="#Gradient_bez_nazwy_11"/><linearGradient id="Gradient_bez_nazwy_11-5" x1="20.31" y1="158.87" x2="40.83" y2="174.29" xlink:href="#Gradient_bez_nazwy_11"/><linearGradient id="Gradient_bez_nazwy_11-6" x1="18.72" y1="160.99" x2="39.23" y2="176.41" xlink:href="#Gradient_bez_nazwy_11"/><linearGradient id="Gradient_bez_nazwy_2-5" x1="96.97" y1="183.27" x2="128.81" y2="144.44" xlink:href="#Gradient_bez_nazwy_2"/><linearGradient id="Gradient_bez_nazwy_9-2" x1="1.77" y1="89.9" x2="69.77" y2="35.9" gradientTransform="matrix(1, 0, 0, 1, 0, 0)" xlink:href="#Gradient_bez_nazwy_9"/><linearGradient id="Gradient_bez_nazwy_7-4" x1="92.46" y1="109.75" x2="106.71" y2="97.92" gradientTransform="matrix(-0.9, -0.43, -0.43, 0.9, 231.26, 57.77)" xlink:href="#Gradient_bez_nazwy_7"/><linearGradient id="Gradient_bez_nazwy_7-5" x1="154.88" y1="184.86" x2="169.13" y2="173.02" gradientTransform="matrix(-1, 0.03, 0.03, 1, 236.1, -116.84)" xlink:href="#Gradient_bez_nazwy_7"/><linearGradient id="Gradient_bez_nazwy_7-6" x1="71.41" y1="41.67" x2="75.47" y2="64.17" gradientTransform="matrix(1, 0, 0, 1, 0, 0)" xlink:href="#Gradient_bez_nazwy_7"/><linearGradient id="Gradient_bez_nazwy_7-7" x1="85.36" y1="37.2" x2="77.45" y2="56.92" gradientTransform="translate(-11.16 14.74) rotate(-10.87)" xlink:href="#Gradient_bez_nazwy_7"/><linearGradient id="Gradient_bez_nazwy_7-8" x1="69.07" y1="22.73" x2="63.53" y2="36.53" gradientTransform="translate(28.31 107.79) rotate(-76.91)" xlink:href="#Gradient_bez_nazwy_7"/><linearGradient id="Gradient_bez_nazwy_2-6" x1="163.31" y1="82.29" x2="164.55" y2="66.98" gradientTransform="matrix(-0.98, 0.19, 0.19, 0.98, 195.31, -24.25)" xlink:href="#Gradient_bez_nazwy_2"/><linearGradient id="Gradient_bez_nazwy_2-7" x1="224.3" y1="153.07" x2="225.54" y2="137.76" gradientTransform="matrix(-1, 0.06, 0.06, 1, 265.01, -56.14)" xlink:href="#Gradient_bez_nazwy_2"/><linearGradient id="Gradient_bez_nazwy_9-3" x1="0.31" y1="109.45" x2="68.3" y2="55.46" gradientTransform="matrix(-0.92, 0.4, 0.4, 0.92, 168.62, -35.65)" xlink:href="#Gradient_bez_nazwy_9"/><linearGradient id="Gradient_bez_nazwy_9-4" x1="1.56" y1="111.03" x2="69.55" y2="57.04" gradientTransform="matrix(-0.92, 0.4, 0.4, 0.92, 168.62, -35.65)" xlink:href="#Gradient_bez_nazwy_9"/><linearGradient id="Gradient_bez_nazwy_8" x1="72.97" y1="48.82" x2="29.55" y2="44.49" gradientTransform="matrix(0.74, 0.67, -0.67, 0.74, 39.79, -9.16)" gradientUnits="userSpaceOnUse"><stop offset="0" stop-color="#000061"/><stop offset="1" stop-color="#0065ff"/></linearGradient><linearGradient id="Gradient_bez_nazwy_8-2" x1="73.61" y1="66.49" x2="57.29" y2="69.67" gradientTransform="translate(-11.16 14.74) rotate(-10.87)" xlink:href="#Gradient_bez_nazwy_8"/><linearGradient id="Gradient_bez_nazwy_8-3" x1="72.01" y1="58.31" x2="55.7" y2="61.5" gradientTransform="translate(-11.16 14.74) rotate(-10.87)" xlink:href="#Gradient_bez_nazwy_8"/><linearGradient id="Gradient_bez_nazwy_8-4" x1="50.01" y1="87.55" x2="85.5" y2="31.39" gradientTransform="translate(-11.16 14.74) rotate(-10.87)" xlink:href="#Gradient_bez_nazwy_8"/><linearGradient id="Gradient_bez_nazwy_8-5" x1="56.18" y1="91.45" x2="91.67" y2="35.29" gradientTransform="translate(-11.16 14.74) rotate(-10.87)" xlink:href="#Gradient_bez_nazwy_8"/><clipPath id="clip-path"><path class="cls-1" d="M80.58,60.55c-.09-.29-1.31-3-1.45-3.29-.39-.87-.75-1.76-1.05-2.66-.17-.5-.31-1-.45-1.53a22.58,22.58,0,0,0,2.91-2.16,1.62,1.62,0,0,0,.44-.58.8.8,0,0,0,.14-.41c0-.07,0-.15,0-.23v0c0-1.09-.21-3.3-1.48-7.79a36.38,36.38,0,0,0-1.72-5,1.89,1.89,0,0,0-.83-1,3.35,3.35,0,0,0-1.67-.6c.55-4.35-.09-8.1-3.44-10.92-2-1.69-7.5-3.6-9.47,4.13S47.74,40.37,50.9,48.76a8.81,8.81,0,0,0,4.52,4.77l-.25.14a5.48,5.48,0,0,0-.86,0c-.87.12-1.28.72-1.16.94l.08.11a4.46,4.46,0,0,0-.93-.15,1.72,1.72,0,0,0-.93.11,1.64,1.64,0,0,0-1,.87,4.33,4.33,0,0,0-.58,1.76c-.56,4.34-.53,8.52-2.05,16.84l0,0a.81.81,0,0,0-.06.11,4.43,4.43,0,0,1-1.54,1.72c-.88.62-2.89,1.21-1.68,1.37a6.93,6.93,0,0,0,3.14-.56,13.83,13.83,0,0,1,2.09-.53c.79-.16,1-.23.86-.76h0c1-4.93,3.18-9.88,3.8-14.39,3.67,2.53,8.66,5.7,10.91,7.06a13.51,13.51,0,0,0,1.35.71c-3.08,2.52-6.38,5.36-8.2,6.86a2,2,0,0,0-.58,1,5.65,5.65,0,0,0-.42.92C56,81.71,51.09,93,49.32,96.46h0a.82.82,0,0,0-.11.15,4.43,4.43,0,0,1-1.75,1.5c-1,.5-3,.83-1.84,1.14a6.93,6.93,0,0,0,3.18-.15A13.89,13.89,0,0,1,51,98.84c1.06-.07,1.06-.14.85-1.32l0-.06,0-.05c1.6-2.31,9.45-13.71,10.5-18.68l.28-.15c2.33-1.36,15.61-8,16.86-8.75a6.78,6.78,0,0,0,1.71-1.35C82.15,67.64,83,65.59,80.58,60.55ZM78,49.17l-.87.67c0-1.1,0-2.2,0-3.3C77.55,47.66,77.86,48.55,78,49.17Zm2.42,11.4-1.2.23Zm-2.09.4-.43.08ZM74,61.81l.94-.18ZM55.13,55.47l.26-.12c.54.09.94-.42,2.29-1a13.79,13.79,0,0,0,10-1.19,65.91,65.91,0,0,1,.13,8.2C63.36,59.33,57,56.41,55.13,55.47Z"/></clipPath><linearGradient id="Gradient_bez_nazwy_4" x1="-268.14" y1="736.66" x2="-129.73" y2="821.7" gradientTransform="matrix(0.49, -0.68, -0.48, -0.42, 565.97, 283.26)" gradientUnits="userSpaceOnUse"><stop offset="0" stop-color="blue"/><stop offset="1" stop-color="#9e005d"/></linearGradient><linearGradient id="Gradient_bez_nazwy_2-8" x1="58.21" y1="72.67" x2="58.21" y2="49.1" gradientTransform="matrix(1, -0.06, 0.06, 1, -2.66, 3.25)" xlink:href="#Gradient_bez_nazwy_2"/><linearGradient id="Gradient_bez_nazwy_2-9" x1="68.98" y1="55.01" x2="87.42" y2="55.01" gradientTransform="matrix(1, -0.06, 0.06, 1, -2.66, 3.25)" xlink:href="#Gradient_bez_nazwy_2"/><linearGradient id="Gradient_bez_nazwy_2-10" x1="56.62" y1="67.09" x2="56.62" y2="57.94" gradientTransform="matrix(1, -0.06, 0.06, 1, -2.66, 3.25)" xlink:href="#Gradient_bez_nazwy_2"/><linearGradient id="Gradient_bez_nazwy_2-11" x1="57.98" y1="67.08" x2="57.98" y2="57.94" gradientTransform="matrix(1, -0.06, 0.06, 1, -2.66, 3.25)" xlink:href="#Gradient_bez_nazwy_2"/><linearGradient id="Gradient_bez_nazwy_8-6" x1="178.88" y1="70.37" x2="175.21" y2="74.15" gradientTransform="translate(348.37 5.48) rotate(135)" xlink:href="#Gradient_bez_nazwy_8"/><linearGradient id="Gradient_bez_nazwy_9-5" x1="206.99" y1="57" x2="226.11" y2="68.94" gradientTransform="translate(262.39 -121.03) rotate(98.04)" xlink:href="#Gradient_bez_nazwy_9"/><linearGradient id="Gradient_bez_nazwy_10-2" x1="176.88" y1="64.25" x2="193.15" y2="64.25" gradientTransform="matrix(0.99, -0.13, 0.13, 0.99, -13.67, 33.46)" xlink:href="#Gradient_bez_nazwy_10"/><linearGradient id="Gradient_bez_nazwy_9-6" x1="178.48" y1="73.26" x2="195.15" y2="62.26" gradientTransform="translate(262.39 -121.03) rotate(98.04)" xlink:href="#Gradient_bez_nazwy_9"/><linearGradient id="Gradient_bez_nazwy_7-9" x1="192.54" y1="120.57" x2="225.37" y2="113.41" gradientTransform="matrix(1, -0.06, 0.06, 1, -5.55, 11.93)" xlink:href="#Gradient_bez_nazwy_7"/><linearGradient id="Gradient_bez_nazwy_2-12" x1="155.96" y1="177.46" x2="163.92" y2="177.46" gradientTransform="matrix(1, -0.06, 0.06, 1, -5.55, 11.93)" xlink:href="#Gradient_bez_nazwy_2"/><linearGradient id="Gradient_bez_nazwy_2-13" x1="188.83" y1="198.4" x2="193.76" y2="198.4" gradientTransform="matrix(1, -0.06, 0.06, 1, -5.55, 11.93)" xlink:href="#Gradient_bez_nazwy_2"/><linearGradient id="Gradient_bez_nazwy_7-10" x1="177.81" y1="153.51" x2="194.81" y2="90.14" gradientTransform="matrix(1, -0.06, 0.06, 1, -5.55, 11.93)" xlink:href="#Gradient_bez_nazwy_7"/><linearGradient id="Gradient_bez_nazwy_8-7" x1="304.59" y1="218.67" x2="304.59" y2="145.94" gradientTransform="translate(-111.62 -14.07) rotate(2.81)" xlink:href="#Gradient_bez_nazwy_8"/><linearGradient id="Gradient_bez_nazwy_8-8" x1="310.4" y1="220.28" x2="310.4" y2="147.55" gradientTransform="translate(-146.32 59.22) rotate(-10.29)" xlink:href="#Gradient_bez_nazwy_8"/><linearGradient id="Gradient_bez_nazwy_8-9" x1="309.97" y1="219.48" x2="309.97" y2="146.76" gradientTransform="translate(-77.34 -66.92) rotate(13.37)" xlink:href="#Gradient_bez_nazwy_8"/><linearGradient id="Gradient_bez_nazwy_8-10" x1="197.77" y1="613.41" x2="197.77" y2="541.46" gradientTransform="translate(-47.39 -407) rotate(-1.56)" xlink:href="#Gradient_bez_nazwy_8"/><linearGradient id="Gradient_bez_nazwy_8-11" x1="-711.2" y1="-833.48" x2="-711.2" y2="-892.18" gradientTransform="translate(-267.92 1192.21) rotate(61.73)" xlink:href="#Gradient_bez_nazwy_8"/><linearGradient id="Gradient_bez_nazwy_5-13" x1="318.59" y1="115.08" x2="303.2" y2="87.86" gradientTransform="translate(-111.62 -14.07) rotate(2.81)" xlink:href="#Gradient_bez_nazwy_5"/><linearGradient id="Gradient_bez_nazwy_7-11" x1="165.19" y1="88.27" x2="196.19" y2="117.11" gradientTransform="matrix(1, -0.06, 0.06, 1, -5.55, 11.93)" xlink:href="#Gradient_bez_nazwy_7"/><linearGradient id="Gradient_bez_nazwy_5-14" x1="318.07" y1="115.37" x2="302.68" y2="88.15" gradientTransform="translate(-111.62 -14.07) rotate(2.81)" xlink:href="#Gradient_bez_nazwy_5"/><clipPath id="clip-path-2"><path class="cls-1" d="M210.3,129.69A22.21,22.21,0,0,0,210,125c-.49-4.66-.82-5.77-2.13-8.51v0a.58.58,0,0,0,0-.11c-.58-.91-2.19-2.75-7.1-6a41.79,41.79,0,0,0-4.29-2.58,7.27,7.27,0,0,0-1.71-.88,9.31,9.31,0,0,0-1.74-.42c0-.62,0-1.23,0-1.8a1.92,1.92,0,0,0-.07-.44,3.57,3.57,0,0,0,1.25-1.84,6.61,6.61,0,0,0,.67-1.44,3.14,3.14,0,0,0,.65-.93c.42-.91.4-1.81,0-2.09.21-1.94,0-3.41-1.23-4,.11-1.38-5.23-1.84-5.74-2.08-1.1-.51-.08-.79-1.46-.86-2.46.11-2.75,3.42-1.06,4.1l.11,0a2.72,2.72,0,0,0-.23.66c-.12.64-.19,1.24-.25,1.82a.79.79,0,0,0-.73-.2c-.52.18-.65,1.13-.31,2.11a2.5,2.5,0,0,0,1,1.38,12.4,12.4,0,0,0,.22,1.49c.26,1.17,1.09,2.88,2.47,3,0,.1,0,.2,0,.31s0,.32,0,.48a13.85,13.85,0,0,0-3.28.41c-4.26-3.78-7.74-6.44-8.62-7.55l-.11-.11a2.76,2.76,0,0,0-.09-.4c-.55-1.78-3.56-6.68-5-9a.76.76,0,0,0,.13-.66,3,3,0,0,0,.1-.63c0-.41.16-3.2-.29-3.27a.4.4,0,0,0-.12,0l1.76-2.5-.21-.17.8-1a9.37,9.37,0,1,0-1.45-1.11l-.8,1-.21-.16-2.08,2.48c-.32-.34-.62-.46-.88-.21-1.33,1.33-1.58,2.29-1.51,3l-2,2.34a1.61,1.61,0,1,0,2.55,2l1-1.38a3.91,3.91,0,0,0,.54.38c0,.83.47,1.44,1.18,4.17a37,37,0,0,0,2.33,6.67s0,0,0,0a8.83,8.83,0,0,0,.86,1.64h0a39.2,39.2,0,0,0,4.79,5.77c1.17,1.22,2.07,2.07,2.78,2.7a6.58,6.58,0,0,0-.29,1c-1.56,8.6-2.43,24.4-2.43,24.4s-.3,1.72-.6,4.28c-3.85,1.89-9.06,4.46-11.08,5.35a8.2,8.2,0,0,0-2.37,1.5,2.59,2.59,0,0,0-.58.67,3,3,0,0,0-.54,2.33c0,.15,0,.3,0,.46.39,5.47,2.33,16,2.05,26.65a.52.52,0,0,0,.05.22,1.13,1.13,0,0,0-.29.67,5.74,5.74,0,0,1-1.42,2.6c-.92,1-3.27,2.43-1.7,2.23a9.33,9.33,0,0,0,3.78-1.72,18.67,18.67,0,0,1,2.47-1.34c1.25-.6,1.22-.67.42-2l0,0h0c0-6.91,2.09-18,1.32-25.13,3.84-1.06,8-2.73,11.52-3.88a12.22,12.22,0,0,0,4-2.17h.3c0,.13,0,.25-.07.38-.55,3.7-.14,17.06.23,22.6a1.78,1.78,0,0,0,.1.46,6.62,6.62,0,0,0,.44,1.35c2.24,5,8,19.06,9.41,24.14a.89.89,0,0,0,.21.4,1.24,1.24,0,0,0,0,1.15,5.74,5.74,0,0,1,.23,3c-.2,1.38-1.41,3.82-.21,2.79a9.34,9.34,0,0,0,2.23-3.5,18.63,18.63,0,0,1,1.33-2.47c.69-1.14.65-1.23-.59-1.8,0-.24-.09-.53-.13-.8-.5-3.51-3.45-20.84-6.87-26.18,0-.18,0-.35.07-.54.33-3.38,3.35-21.77,3.53-23.57a9.62,9.62,0,0,0,0-1.69,27.75,27.75,0,0,0-.33-5.55,58,58,0,0,1,3.53-20.08c.14-.38.25-.76.36-1.13a51,51,0,0,1,5.53,3.1,1.56,1.56,0,0,0,.62.31,3.27,3.27,0,0,0,0,.5c.36,2,2.89,7.88,3.64,10.18a2.24,2.24,0,0,0-.61,1.66c0,1.78,1,1.76,2,2,.74.2,1.3-.73,1.28-1.59A6.08,6.08,0,0,0,210.3,129.69Z"/></clipPath><linearGradient id="Gradient_bez_nazwy_4-2" x1="-228.09" y1="536.64" x2="-89.67" y2="621.68" xlink:href="#Gradient_bez_nazwy_4"/></defs><title>marketing</title><g class="cls-2"><g id="Capa_2" data-name="Capa 2"><g id="Objects"><path class="cls-3" d="M2.4,78.31c-3.14,1.17-2.73,3.78-1.4,5,1.89,1.73,3.15,1.12,1.82,4.9C1.83,91,3.41,94,6.65,93.6,11.17,93,9,97,9.48,99.17c1,4.42,4.09,3.33,9.3,1.91s7.74-4.62,8.58-9.38c.62-3.52.2-6.62-2.56-7.6-4-1.4-5.44,2.78-6.4-.82-.57-2.15-2.85-5.23-6.75-2.64S6.92,76.63,2.4,78.31Z"/><path class="cls-4" d="M26.88,101.08l-.67-1-1.34-2c-.47-.63-1-1.24-1.46-1.87l-.73-.93c-.25-.31-.52-.59-.78-.89-.53-.59-1-1.18-1.59-1.76a50.47,50.47,0,0,0-7.21-6.13,35.62,35.62,0,0,0-8.35-4.43l0,.08q.54.24,1.06.52c.35.17.7.36,1,.54s.69.38,1,.58.68.39,1,.61c.66.42,1.33.82,2,1.29l1,.66.93.7.93.7.9.74.9.74c.3.24.58.52.87.78l.87.78.44.39.42.41,1.65,1.65c.54.56,1.05,1.14,1.58,1.72.26.29.53.57.78.87l.74.91c.49.6,1,1.19,1.48,1.81s.92,1.26,1.39,1.88l.7.94"/><path class="cls-5" d="M13.85,89.9a5.79,5.79,0,0,0-1.67.06c-.27,0-.54.11-.8.17s-.52.16-.78.25a8.55,8.55,0,0,0-1.48.72,4.84,4.84,0,0,0-1.27,1.1l0,0a16.58,16.58,0,0,1,2.92-1.33,31,31,0,0,1,3.07-1Z"/><path class="cls-6" d="M9.65,86a4.29,4.29,0,0,0-1.39-.2,6.32,6.32,0,0,0-.69,0L6.9,86a6.36,6.36,0,0,0-1.31.45,3.67,3.67,0,0,0-1.15.82l0,.05A13.77,13.77,0,0,1,7,86.56a25.79,25.79,0,0,1,2.64-.45Z"/><path class="cls-7" d="M16.4,87.53a4.55,4.55,0,0,0,0-.93c0-.28-.09-.55-.14-.81s-.05-.25-.08-.38l0-.19a1.47,1.47,0,0,0,0-.19,4,4,0,0,1,0-.85l0,0a1.65,1.65,0,0,0-.33.83,2.86,2.86,0,0,0,0,.9,5.42,5.42,0,0,0,.66,1.66Z"/><path class="cls-8" d="M19,94.15a7.66,7.66,0,0,0-2.21.08c-.36,0-.71.14-1.06.23s-.69.21-1,.32a11.32,11.32,0,0,0-2,1,6.42,6.42,0,0,0-1.68,1.46l0,.07A21.92,21.92,0,0,1,15,95.5,41.17,41.17,0,0,1,19,94.22Z"/><path class="cls-9" d="M22.07,91.36A8.06,8.06,0,0,0,21.82,89a9.89,9.89,0,0,1-.21-2.29q0-.3,0-.61c0-.11,0-.28-.1-.14a1.37,1.37,0,0,0-.1.29c-.05.17-.11.34-.15.52a9.7,9.7,0,0,0-.2,1.14A5.7,5.7,0,0,0,22,91.39Z"/><path class="cls-10" d="M11.3,84.1a3.32,3.32,0,0,0-.2-.69c-.08-.21-.17-.4-.25-.58s-.18-.36-.26-.54a2.52,2.52,0,0,1-.19-.62l0,0a1.23,1.23,0,0,0-.08.68,2.26,2.26,0,0,0,.2.66,4.93,4.93,0,0,0,.79,1.13Z"/><path class="cls-11" d="M15.71,54.45C11,54.37,10.23,58,11.34,60.24c1.58,3.21,3.53,3.06-.13,7.3-2.7,3.13-2.17,7.83,2.24,9,6.17,1.59,1.28,5.65.85,8.69-.9,6.28,3.63,6.42,11.13,7.21,7.69.81,12.42-2.07,15.93-7.84C43.95,80.3,45,76,41.9,73.38c-4.44-3.83-8.49.85-7.9-4.32.35-3.09-1-8.26-7.43-6.87S22.45,54.57,15.71,54.45Z"/><path class="cls-12" d="M36,96.53l-.38-1.61-.76-3.22c-.29-1.06-.63-2.11-.95-3.17l-.48-1.58c-.17-.52-.38-1-.57-1.55-.39-1-.76-2.07-1.17-3.1a70.54,70.54,0,0,0-6.26-11.65,49.8,49.8,0,0,0-8.62-10l-.08.1q.58.59,1.12,1.21c.37.4.73.82,1.08,1.24s.7.84,1,1.28.68.85,1,1.31c.64.88,1.31,1.75,1.89,2.67.3.46.61.9.92,1.35l.86,1.39.86,1.39.8,1.42.8,1.42c.27.47.49,1,.73,1.45s.49,1,.73,1.45l.37.72c.12.24.22.5.33.74l1.31,3c.41,1,.79,2,1.18,3,.19.51.4,1,.58,1.52s.32,1,.5,1.55c.33,1,.7,2.06,1,3.1s.56,2.11.85,3.16l.44,1.58"/><path class="cls-13" d="M24.71,75.35a8.07,8.07,0,0,0-2.2-.77c-.37-.09-.75-.13-1.13-.19s-.76-.06-1.14-.08a11.93,11.93,0,0,0-2.3.18,6.76,6.76,0,0,0-2.21.78l0,.08a23.09,23.09,0,0,1,4.48-.24,43.39,43.39,0,0,1,4.48.3Z"/><path class="cls-14" d="M21.21,68.21a6,6,0,0,0-1.71-1,8.83,8.83,0,0,0-.91-.3c-.31-.08-.62-.14-.94-.2a8.89,8.89,0,0,0-1.93-.08,5.13,5.13,0,0,0-1.92.49v.08a19.24,19.24,0,0,1,3.72.32,36.23,36.23,0,0,1,3.67.75Z"/><path class="cls-15" d="M29.23,73.57a6.37,6.37,0,0,0,.41-1.23c.09-.39.17-.76.23-1.12,0-.18.06-.35.09-.53l0-.26a2,2,0,0,0,.06-.26A5.57,5.57,0,0,1,30.44,69l0-.06a2.31,2.31,0,0,0-.86.91,4,4,0,0,0-.4,1.19,7.59,7.59,0,0,0,0,2.49Z"/><path class="cls-16" d="M29.28,83.52a10.7,10.7,0,0,0-2.92-1c-.5-.12-1-.17-1.5-.25s-1-.07-1.52-.1a15.79,15.79,0,0,0-3,.24,9,9,0,0,0-2.93,1l0,.11a30.63,30.63,0,0,1,5.93-.32,57.52,57.52,0,0,1,5.94.4Z"/><path class="cls-17" d="M34.67,81.44a11.3,11.3,0,0,0,.85-3.15,13.8,13.8,0,0,1,.89-3.09q.17-.39.36-.77c.07-.13.13-.38-.06-.23a1.92,1.92,0,0,0-.28.32c-.16.19-.32.39-.46.6a13.4,13.4,0,0,0-.84,1.38,8,8,0,0,0-.56,5Z"/><path class="cls-18" d="M24.34,66.52a4.7,4.7,0,0,0,.09-1c0-.31,0-.6,0-.89s0-.56-.06-.83a3.53,3.53,0,0,1,.07-.9l0,0a1.73,1.73,0,0,0-.46.85,3.19,3.19,0,0,0-.07,1,6.9,6.9,0,0,0,.46,1.87Z"/><path class="cls-19" d="M209.73,48.55l3.87,27a3,3,0,0,1-2.54,3.39l-27,3.87a2.84,2.84,0,0,1-.89,0h0a3,3,0,0,1-2.49-2.53l-3.88-27a3,3,0,0,1,2.54-3.38l27-3.87A3,3,0,0,1,209.73,48.55Z"/><path class="cls-20" d="M193.22,47.9l-.33,33.65-8.81,1.27a2.84,2.84,0,0,1-.89,0l.33-33.51Z"/><polygon class="cls-20" points="199.9 46.95 199.56 80.59 194.85 81.27 195.18 47.62 199.9 46.95"/><path class="cls-21" d="M202.74,56.43a5.94,5.94,0,0,0-8.53,1,5.94,5.94,0,0,0-8.48,1.43A6,6,0,0,0,187.23,67l7.51,5.62A2.32,2.32,0,0,0,198,72.2l5.62-7.51A6,6,0,0,0,202.74,56.43Z"/><path class="cls-22" d="M86.59,156.78a6.87,6.87,0,0,1-1.71,1.73l-6.13,4.38a105,105,0,0,1-8.47-13.84,47,47,0,0,1-3.43-8.46c0-.15-.07-.26-.09-.33l14-3.34a45.12,45.12,0,0,0,3.84,8.42c.62,1.13,1.34,2.36,2.17,3.69A7.07,7.07,0,0,1,86.59,156.78Z"/><path class="cls-23" d="M86.09,181.15l-12.27,8.76c-11.56-16.19-17.73-28.62-20.9-36.35a63.56,63.56,0,0,1-3.07-8.92l4.43-1,11.28-2.69,1.29-.31,11-2.61,0-.13a62.9,62.9,0,0,0,3.32,8.4c1.32,2.85,3.11,6.37,5.5,10.53q1.45,2.55,3.24,5.42A14.09,14.09,0,0,1,86.09,181.15Z"/><path class="cls-24" d="M148.91,149.7l-43.15-6.63a38.11,38.11,0,0,0-15.44.78l-5.74,1.49-3.49.91-10.81,2.8-1.54.4L57.5,152.37l-4.58,1.19-3.36.87a20.4,20.4,0,0,1-24.87-14.62l-6.88-26.49-2-7.78A20.4,20.4,0,0,1,30.42,80.68l7.94-2.06L49.6,75.7l21.59-5.6a38.36,38.36,0,0,0,13.87-6.82L119.54,36.5a7.07,7.07,0,0,1,11.17,3.81l2.22,8.57,14,54L156.83,141A7.06,7.06,0,0,1,148.91,149.7Z"/><path class="cls-25" d="M128,46h0a4,4,0,0,1,4.92,2.9l21.66,83.5a4,4,0,0,1-2.9,4.92h0a4,4,0,0,1-4.92-2.9l-21.66-83.5A4,4,0,0,1,128,46Z"/><path class="cls-26" d="M68.74,149.45,57.5,152.37A340.8,340.8,0,0,1,38.37,78.62L49.61,75.7A328.88,328.88,0,0,0,68.74,149.45Z"/><path class="cls-27" d="M148.91,149.7l-43.15-6.63a38.11,38.11,0,0,0-15.44.78l-5.74,1.49c.62,1.13,1.34,2.36,2.17,3.69a7.07,7.07,0,0,1-.16,7.75q1.45,2.55,3.24,5.42a14.09,14.09,0,0,1-3.74,19l-12.27,8.76c-11.56-16.19-17.73-28.62-20.9-36.35l-3.36.87a20.4,20.4,0,0,1-24.87-14.62l-6.88-26.49c9.19-2,19.23,1.9,28.91,5.94,4.62,1.93,9.16,3.9,13.49,5.26C71,128,80.43,127.73,86.63,114.32c13.19-28.51,34.75-27.06,50.06-18.76a51.29,51.29,0,0,1,10.23,7.27h0L156.83,141A7.06,7.06,0,0,1,148.91,149.7Z"/><path class="cls-28" d="M166.79,40.62l-2.62,18.48a2,2,0,0,1-2.31,1.74l-18.47-2.62a2,2,0,0,1-.59-.18h0a2.05,2.05,0,0,1-1.15-2.14l2.62-18.48a2,2,0,0,1,2.31-1.73L165,38.31A2,2,0,0,1,166.79,40.62Z"/><path class="cls-29" d="M156.07,37l-6.65,22-6-.85a2,2,0,0,1-.59-.18l6.63-21.94Z"/><polygon class="cls-29" points="160.63 37.68 153.98 59.71 150.75 59.26 157.41 37.22 160.63 37.68"/><path class="cls-21" d="M154.55,41.54a1.37,1.37,0,0,0-1.9.31,21.9,21.9,0,0,1-2.86,3.78l-1.26-.18a.19.19,0,0,0-.22.16l-.94,6.63a.19.19,0,0,0,.16.22l.94.13a3.35,3.35,0,0,0,2.67,2.14l.55.08,3.64.52.81.12a1.35,1.35,0,0,0,1.26-2.17l.59.08a1.35,1.35,0,0,0,1.17-2.27,1.35,1.35,0,0,0-.08-2.67h0a1.35,1.35,0,0,0-.6-2.44l-5.12-.73C154.26,44,155.62,42.27,154.55,41.54Z"/><path class="cls-30" d="M77.49,0,32.93,9.11a2,2,0,0,0-1.55,2.34l2.65,13A2,2,0,0,0,36.37,26l4.39-.89,2.13-.43c.48.41,1.7,1.46,2.2,1.83a1,1,0,0,0,1.41-.29c.31-.54,1-2,1.31-2.54l10.83-2.2L80.93,17a2,2,0,0,0,1.55-2.34l-2.65-13A2,2,0,0,0,77.49,0Z"/><path class="cls-21" d="M43.07,16.27a2.18,2.18,0,0,0,.39-1.74l-.22-1.06a2.25,2.25,0,0,0-2.54-1.81,2.19,2.19,0,0,0-1.78,2.6l.23,1.15a2.18,2.18,0,0,0,1,1.45,4.63,4.63,0,0,0-2.31,3.76.94.94,0,0,0,1.14,1l7-1.42a.94.94,0,0,0,.68-1.32A4.63,4.63,0,0,0,43.07,16.27Z"/><path class="cls-21" d="M60.45,7.63,51.57,9.44a1.34,1.34,0,0,0-1,1.58l.89,4.36a1.34,1.34,0,0,0,1.58,1l.87-.18s1.45,1.25,2,1.64A.8.8,0,0,0,57,17.66c.32-.55,1.17-2.27,1.17-2.27l3.73-.76a1.34,1.34,0,0,0,1-1.58L62,8.68A1.34,1.34,0,0,0,60.45,7.63Z"/><path class="cls-31" d="M60,9.93l-7.2,1.47a.4.4,0,1,1-.16-.78l7.2-1.47a.4.4,0,1,1,.16.78Z"/><path class="cls-31" d="M60.43,11.82l-7.2,1.46a.4.4,0,0,1-.16-.78L60.27,11a.4.4,0,0,1,.16.78Z"/><path class="cls-31" d="M56.86,14.52l-3.25.66a.4.4,0,1,1-.16-.78l3.25-.66a.4.4,0,1,1,.16.78Z"/><path class="cls-21" d="M78,11.76a4.06,4.06,0,0,0-1.27-2.22l-.19-.94A3.28,3.28,0,0,0,73.25,6l-.06-.28a.57.57,0,1,0-1.13.23l.06.28a3.28,3.28,0,0,0-2,3.71l.19.94h0a4.08,4.08,0,0,0-.3,2.54l.08.41a.38.38,0,0,0,.45.3l1.59-.32a.33.33,0,0,0,.19.3,3.29,3.29,0,0,0,3.82-.78.32.32,0,0,0,.06-.35l1.59-.32a.38.38,0,0,0,.3-.45Z"/><circle class="cls-32" cx="69.52" cy="13.83" r="1.73" transform="translate(-1.36 14.15) rotate(-11.51)"/><path class="cls-33" d="M237.91,45.8,222,40a2.51,2.51,0,0,0-3.23,1.49L215,51.81A2.51,2.51,0,0,0,216.45,55l1.55.57s1.08,3.42,1.52,4.54a1.5,1.5,0,0,0,2.07.76c1.06-.56,4.09-2.47,4.09-2.47l6.68,2.46a2.51,2.51,0,0,0,3.23-1.49L239.4,49A2.51,2.51,0,0,0,237.91,45.8Z"/><path class="cls-34" d="M234.6,50.15,221.7,45.41a.81.81,0,1,1,.56-1.53l12.91,4.74a.81.81,0,1,1-.56,1.53Z"/><path class="cls-34" d="M233.27,53.79,220.36,49a.81.81,0,0,1,.56-1.53l12.91,4.74a.81.81,0,0,1-.56,1.53Z"/><path class="cls-34" d="M224.84,54.83,219,52.69a.81.81,0,1,1,.56-1.53l5.82,2.14a.81.81,0,0,1-.56,1.53Z"/><path class="cls-35" d="M190.6,21.23l6.35,8.51-17.37-2.48,8.48-6.39A1.81,1.81,0,0,1,190.6,21.23Z"/><path class="cls-36" d="M196.95,29.76l-1.17,8.16a.83.83,0,0,1-.94.7l-15.73-2.25a.83.83,0,0,1-.7-.94l1.17-8.17a.83.83,0,0,1,.94-.7l15.73,2.25a.83.83,0,0,1,.7.94Z"/><path class="cls-37" d="M196.76,29.11l-2,1.16-5.43,3.19a2.89,2.89,0,0,1-3.55-.51l-4.32-4.58-1.56-1.66a.83.83,0,0,1,.58-.13l15.73,2.25A.83.83,0,0,1,196.76,29.11Z"/><path class="cls-21" d="M195.57,24.87l-.77,5.4-5.43,3.19a2.89,2.89,0,0,1-3.55-.51l-4.32-4.58.77-5.4a1.53,1.53,0,0,1,1.74-1.3l10.25,1.47A1.54,1.54,0,0,1,195.57,24.87Z"/><path class="cls-31" d="M192.84,26.16,184.53,25a.5.5,0,0,1,.14-1L193,25.17a.5.5,0,0,1-.14,1Z"/><path class="cls-31" d="M192.51,28.5l-8.32-1.19a.5.5,0,0,1,.14-1l8.32,1.19a.5.5,0,0,1-.14,1Z"/><path class="cls-31" d="M187.61,30.19l-3.75-.54a.5.5,0,1,1,.14-1l3.75.54a.5.5,0,0,1-.14,1Z"/><path class="cls-38" d="M32.32,164.07l9.21,2-13.11,8.42,2-9.22A1.61,1.61,0,0,1,32.32,164.07Z"/><path class="cls-39" d="M41.53,166.11l4,6.16a.73.73,0,0,1-.22,1L33.4,180.92a.74.74,0,0,1-1-.22l-4-6.16a.74.74,0,0,1,.22-1l11.87-7.62a.74.74,0,0,1,1,.22Z"/><path class="cls-40" d="M41,165.79l-.65,1.92L38.59,173a2.56,2.56,0,0,1-2.68,1.72l-5.56-.57-2-.21a.74.74,0,0,1,.31-.43l11.87-7.62A.74.74,0,0,1,41,165.79Z"/><path class="cls-41" d="M37.77,163.63l2.62,4.07L38.59,173a2.56,2.56,0,0,1-2.68,1.72l-5.56-.57-2.62-4.07a1.36,1.36,0,0,1,.41-1.88l7.74-5A1.37,1.37,0,0,1,37.77,163.63Z"/><path class="cls-42" d="M36.69,166.08l-6.28,4a.44.44,0,0,1-.48-.74l6.28-4a.44.44,0,1,1,.48.74Z"/><path class="cls-43" d="M37.82,167.85l-6.28,4a.44.44,0,1,1-.48-.74l6.28-4a.44.44,0,0,1,.48.74Z"/><path class="cls-44" d="M35.51,171.83l-2.83,1.82a.44.44,0,0,1-.48-.74L35,171.09a.44.44,0,1,1,.48.74Z"/><path class="cls-45" d="M123.14,162.8l-3.58,2.36,1.09-5.33a2,2,0,0,0-1.55-2.35l-14.66-3a2,2,0,0,0-2.35,1.55l-3,14.66a2,2,0,0,0,1.55,2.35l14.66,3a2,2,0,0,0,2.35-1.55l1.09-5.32,2.36,3.58a1.19,1.19,0,0,0,2.15-.42L125,164A1.19,1.19,0,0,0,123.14,162.8Z"/><polygon class="cls-21" points="109.18 160.62 107.41 169.27 112.62 165.82 109.18 160.62"/><path class="cls-46" d="M72,24.37c-2-1.69-7.5-3.6-9.47,4.13S47.74,40.37,50.9,48.76,69.52,56.9,72.36,47.4,78.17,29.58,72,24.37Z"/><path class="cls-47" d="M65.33,50.89c.62-.76,1.8-2.61,3.59-7.35a36.62,36.62,0,0,0,1.58-5c.39-1.59-.83-2.29-1.66-1.95A5.71,5.71,0,0,0,66,39.45c-1.43,4.73-2.39,8.33-2.93,9.48C62.3,50.59,64.59,51.79,65.33,50.89Z"/><path class="cls-48" d="M55.28,55.34c.72.24,1.06-.61,3.37-1.34A21.52,21.52,0,0,0,65,51.1c1.44-.9.73-3.33-1.19-2.58-1.63.63-8,4.92-9,5.3C54.2,54.07,54.69,55.15,55.28,55.34Z"/><path class="cls-49" d="M72.66,31.2c0,.14.83,3,1.3,5.29A2.13,2.13,0,0,1,72.8,39h0a2,2,0,0,1-2-1.76c-.25-2-.73-4-.74-4Z"/><path class="cls-50" d="M77.39,43.49a39.27,39.27,0,0,0-.23,6.46,16,16,0,0,0,.91,4.65c.3.91.66,1.79,1.05,2.66.15.33,1.36,3,1.45,3.28L67.83,63c-.36-2.52,1-10.91-1.92-15.62-2-3.26-.26-3.71.38-6.87a8.8,8.8,0,0,1,.61-2.32,3.73,3.73,0,0,1,1.72-1.57,7.33,7.33,0,0,1,1.15-.39c2.12-.59,7.08-2.19,8.15.79a5.52,5.52,0,0,1,.22,2.53c-.11,1-.38,1.88-.57,2.81Q77.47,42.91,77.39,43.49Z"/><path class="cls-51" d="M70.2,56.18c-.64,1.47-1.23,2.14-1.14,2.91s1.33,0,1.63-.46,1.48-2.12,1.27-2.75S70.67,55.09,70.2,56.18Z"/><path class="cls-52" d="M81.12,49.91c0-1-.1-3.17-1.48-8a36.33,36.33,0,0,0-1.72-5c-.63-1.51-2-1.35-2.49-.58a5.71,5.71,0,0,0-.54,4c1.65,4.66,3,8.13,3.26,9.37C78.51,51.47,81.07,51.08,81.12,49.91Z"/><path class="cls-53" d="M71.43,56.6c.59.14,1-.93,3.2-2a21.51,21.51,0,0,0,5.92-3.73c1.31-1.09.27-3.4-1.53-2.4-1.53.84-7.35,6-8.13,6.68C70.39,55.62,70.83,56.46,71.43,56.6Z"/><path class="cls-51" d="M72.68,28.46c.78,2.45.93,3,.32,4.41a6,6,0,0,1-3,3c-1.2.52-2.64-.37-3.35-1.25a18.63,18.63,0,0,1-2.87-5.91A4.14,4.14,0,0,1,66,24.31C67.64,23.59,70.78,22.47,72.68,28.46Z"/><path class="cls-51" d="M56.46,53.83a9.57,9.57,0,0,0-2.15-.18c-.87.12-1.28.72-1.16.94s.9,1,1.47,1A1.92,1.92,0,0,0,55.89,55C56.17,54.62,57.17,54,56.46,53.83Z"/><path class="cls-54" d="M47.73,74.21a4.43,4.43,0,0,1-1.54,1.72c-.88.62-2.89,1.21-1.68,1.37a6.93,6.93,0,0,0,3.14-.56,13.83,13.83,0,0,1,2.09-.53c1-.21,1-.27.67-1.42C49.9,73.2,48,73.2,47.73,74.21Z"/><path class="cls-55" d="M49.24,96.6a4.43,4.43,0,0,1-1.75,1.5c-1,.5-3,.83-1.84,1.14a6.93,6.93,0,0,0,3.18-.15A13.89,13.89,0,0,1,51,98.84c1.06-.07,1.06-.14.85-1.32C51.53,95.88,49.66,95.64,49.24,96.6Z"/><path class="cls-56" d="M63.65,27.28c-.24,2,7.69,2,9.07,1.08s-.18-3.58-2-4.53S64.22,22.63,63.65,27.28Z"/><path class="cls-57" d="M66,25.81c.33,1.44-1.87,2.75-1.79,4,0,.79-1-1.32-.87-2.53S65.29,22.93,66,25.81Z"/><path class="cls-58" d="M49.82,57.28c.52-4.06,4.29-3.32,4.68.12.61,5.42-2.65,11.74-3.89,18-.47-1.21-.77-1.52-1.32-1.69a1.78,1.78,0,0,0-1.52.37C49.29,65.81,49.26,61.62,49.82,57.28Z"/><path class="cls-59" d="M80.07,69s4.34-.52.51-8.49L67.83,63s-2.42,5,3.32,7.75Z"/><path class="cls-60" d="M51,58.53c-1.35-1.11-1.46-5.91,4-3.16,2.41,1.22,16,7.41,17.24,8.05A3.13,3.13,0,0,1,74,66c0,3.71-3.87,5-8.69,2.1C62.17,66.22,53.75,60.83,51,58.53Z"/><path class="cls-61" d="M57.44,77.59c1.5-4.25,5.54-2.57,5,.84-.8,4.82-8.93,16.62-10.57,19-.21.31-.34.14-.48,0-.4-.52-.77-.92-1-1a4.09,4.09,0,0,0-1,0C51.09,93,56,81.71,57.44,77.59Z"/><path class="cls-62" d="M73,64c4.85-2.53,9.46-1.23,9.06,2.47a4.64,4.64,0,0,1-2.61,3.33c-1.24.72-14.53,7.38-16.86,8.75-5.26,3.07-5.54-1.8-4.19-2.9C61.86,72.88,70.4,65.41,73,64Z"/><ellipse class="cls-51" cx="73.23" cy="29.26" rx="1.73" ry="0.91" transform="translate(30.12 95.29) rotate(-78.64)"/><g class="cls-63"><path class="cls-64" d="M105.31,31c-9.92-5.94-26.78,1.31-31.72,11.49-5,10.4,4.14,16.1-5.94,30.3-8,11.23-2.34,24.46-2,34.63.41,11.18-15.88,19.52-15,29.53,2.13,23-16.5,31.48,2.12,37.51,19.12,6.19,20.18-4,41.71-2.65,18.7,1.13,24.89-37.31,25-52.16.06-15.72-10.66-19.09-3.65-35.37,4.2-9.74,7.3-15.26-3.44-26.77C106.93,51.64,124.29,42.39,105.31,31Z"/></g><path class="cls-65" d="M67.59,59.14h-.22l-3.94-9.24a.61.61,0,0,0-.27-1.17l-13.76.77a.62.62,0,0,0-.53.86l4.43,10.4a.61.61,0,0,0,.6.37l13.76-.77a.62.62,0,0,0-.07-1.23Z"/><path class="cls-66" d="M76.63,59.87l-9,.5a.62.62,0,0,1-.6-.37L62.62,49.6a.62.62,0,1,1,1.13-.48l4.26,10,8.55-.48a.61.61,0,1,1,.07,1.23Z"/><polygon class="cls-67" points="54.12 55.37 59.99 55.04 59.74 54.63 53.87 54.96 54.12 55.37"/><polygon class="cls-68" points="56.48 55.99 60.44 55.77 60.19 55.36 56.23 55.58 56.48 55.99"/><rect class="cls-69" x="171.2" y="79.39" width="1.83" height="3.33" transform="translate(259.08 250.25) rotate(-142.42)"/><path class="cls-70" d="M164.47,91h0a1.61,1.61,0,0,0,2.3-.35l5.76-8.19L170.66,81l-6.44,7.67A1.61,1.61,0,0,0,164.47,91Z"/><path class="cls-71" d="M170,74.34A8.13,8.13,0,0,0,184,78.91a8,8,0,0,0,1.15-1.51,8.33,8.33,0,0,0,.52-1,8.08,8.08,0,0,0,.59-3.48c0-.21,0-.42-.06-.64a8.14,8.14,0,0,0-9.12-7l-.63.11a8,8,0,0,0-3.21,1.46,8.19,8.19,0,0,0-.88.77A7.91,7.91,0,0,0,171.15,69,8.11,8.11,0,0,0,170,74.34Z"/><path class="cls-29" d="M173.2,66.78l12.43,9.57a8.08,8.08,0,0,0,.59-3.48l-9.81-7.55A8,8,0,0,0,173.2,66.78Z"/><path class="cls-29" d="M171.15,69,184,78.91a8,8,0,0,0,1.15-1.51l-12.79-9.85A7.91,7.91,0,0,0,171.15,69Z"/><path class="cls-72" d="M179.3,82.59a9.38,9.38,0,0,1-8.64-15h0a9.38,9.38,0,1,1,8.64,15Zm-2.1-16.13a6.85,6.85,0,0,0-4.57,2.63h0a6.89,6.89,0,1,0,4.57-2.63Z"/><path class="cls-51" d="M171.06,88.69c-.33-.84-2.28-6.5-3.36-5.41-2.11,2.12-1.51,3.3-1.19,4.22A3.64,3.64,0,0,0,169.79,90C170.56,90,171.37,89.48,171.06,88.69Z"/><path class="cls-51" d="M171.19,88.19c0-.41.16-3.2-.29-3.27-.7-.1-1.13,1.62-1.26,2.68-.07.57.5,1.61,1,1.61S171.14,88.85,171.19,88.19Z"/><path class="cls-73" d="M210,125c-.49-4.66-.82-5.77-2.13-8.51v0a.58.58,0,0,0,0-.11c-.58-.91-2.19-2.75-7.1-6a37.81,37.81,0,0,0-5.42-3.14c-1.79-.87-3.45.33-3.53,1.37-.13,1.67.81,4,1.72,4.55,5.12,2.89,9.24,4.81,10.35,5.73a1.56,1.56,0,0,0,.62.31,3.27,3.27,0,0,0,0,.5c.41,2.22,3.6,9.54,3.84,10.89.16.9,1.24,1.14,1.7.12C210.6,129.35,210.32,128.21,210,125Z"/><path class="cls-74" d="M164.15,178.19a5.74,5.74,0,0,1-1.42,2.6c-.92,1-3.27,2.43-1.7,2.23a9.33,9.33,0,0,0,3.78-1.72,18.67,18.67,0,0,1,2.47-1.34c1.25-.6,1.22-.67.42-2C166.58,176.25,164.22,176.87,164.15,178.19Z"/><path class="cls-75" d="M195.09,197.25a5.74,5.74,0,0,1,.23,3c-.2,1.38-1.41,3.82-.21,2.79a9.35,9.35,0,0,0,2.23-3.5,18.63,18.63,0,0,1,1.33-2.47c.72-1.18.65-1.23-.72-1.86C196.06,194.3,194.42,196.11,195.09,197.25Z"/><path class="cls-51" d="M194.58,99.76c-.42,2.78-.53,3.39-1.8,4.48a6.58,6.58,0,0,1-4.51,1.09c-1.43-.07-2.29-1.84-2.55-3a17.22,17.22,0,0,1,0-6.59A4.52,4.52,0,0,1,190,92.47C192,92.57,195.6,93,194.58,99.76Z"/><path class="cls-51" d="M192.92,104.61c0,1,0,2.09,0,3.11a2.67,2.67,0,0,1-2.46,2.59h-.15c-1.21-.06-2.57-1.22-2.41-2.42.11-.78.17-1.57.21-2.27a3.14,3.14,0,0,1,2.24-2.84h0A2,2,0,0,1,192.92,104.61Z"/><path class="cls-76" d="M197.92,116.82a58,58,0,0,0-3.53,20.08l-16.88-.83s.88-15.8,2.43-24.4a6.49,6.49,0,0,1,3.81-4.79,12.13,12.13,0,0,1,4.55-.77l3.12.15a11.84,11.84,0,0,1,3.27.57C199.22,108.47,199.43,112.62,197.92,116.82Z"/><path class="cls-77" d="M193.81,147.22s1.63-3.47.58-10.32l-16.88-.83a96.08,96.08,0,0,0-1.12,10.29Z"/><path class="cls-78" d="M185.46,171.57c-2.31-5.17,3-7.13,5.5-3.53,3.47,5.09,6.49,22.83,7,26.39.07.47.25,1,0,1.22a3.63,3.63,0,0,1-1.71.6c-.62.09-1.23.21-1.43-.55C193.51,190.63,187.7,176.58,185.46,171.57Z"/><path class="cls-79" d="M184.69,147.16c1-6.79,4.86-11.32,8.47-8.15,1.52,1.34,1.71,3.34,1.53,5.13s-3.2,20.19-3.53,23.57c-.74,7.61-6.09,4.24-6.24,2C184.55,164.22,184.14,150.86,184.69,147.16Z"/><path class="cls-80" d="M167.65,177.95c0-8.05,2.85-21.8.69-28.31-1.37-4.14-6.36-4.11-6,1,.39,5.47,2.33,16,2.05,26.65C164.37,178.34,167.64,178.89,167.65,177.95Z"/><path class="cls-81" d="M166.14,153.5c-2.16.41-7.31-4.72-.32-7.8,3.1-1.37,13.77-6.71,15.42-7.45s4.11-1.7,4.83-1.06c3.58,3.2.93,9.59-5.58,11.75C176.14,150.38,170.62,152.65,166.14,153.5Z"/><ellipse class="cls-51" cx="185.41" cy="99.1" rx="0.99" ry="1.89" transform="matrix(0.94, -0.33, 0.33, 0.94, -22.39, 67.21)"/><ellipse class="cls-51" cx="194.51" cy="99.55" rx="1.89" ry="0.99" transform="translate(22.03 233.69) rotate(-64.97)"/><path class="cls-82" d="M194,94.22c-1.17,1.57-6.43,1.46-8.12.78s-1.4-4,1.06-4.1c1.38.07.36.35,1.46.86C189,92,195.24,92.54,194,94.22Z"/><path class="cls-83" d="M185.1,106.76c-4.39-3.92-8-6.66-8.9-7.8l-.11-.11a2.76,2.76,0,0,0-.09-.4c-.67-2.15-4.95-8.9-5.75-10a1.08,1.08,0,0,0-1.87.54c-.35,1.32.19,1.45,1.07,4.84a36.94,36.94,0,0,0,2.33,6.67s0,0,0,0a8.83,8.83,0,0,0,.86,1.64h0a39.2,39.2,0,0,0,4.79,5.77,38,38,0,0,0,4.63,4.23c1.56,1.23,3.44.41,3.74-.59C186.31,110,185.88,107.45,185.1,106.76Z"/><path class="cls-51" d="M210.83,131.9c0-.9-.53-3.16-1.43-2.84a2.3,2.3,0,0,0-1.88,2.39c0,1.78,1,1.76,2,2C210.29,133.68,210.84,132.75,210.83,131.9Z"/><path class="cls-84" d="M188.09,93.65c-1.67.9-2.08,1.74-2.14,3.74s.63,5.46,4.28,6.4,4.7-2.67,5-5.18.29-4.4-1.55-4.95C191,92.85,189.1,93.1,188.09,93.65Z"/><g class="cls-85"><path class="cls-86" d="M221.3,87c-9.92-5.94-26.78,1.31-31.71,11.49-5,10.4,4.14,16.1-5.94,30.3-8,11.23-2.34,24.45-2,34.63.41,11.18-15.88,19.52-15,29.53,2.13,23-16.5,31.48,2.12,37.51,19.12,6.19,20.18-4,41.7-2.65,18.7,1.13,24.9-37.31,25-52.16.06-15.72-10.66-19.09-3.65-35.37,4.2-9.74,7.3-15.26-3.44-26.77C222.93,107.66,240.28,98.41,221.3,87Z"/></g></g></g></g></svg>