<svg xmlns="http://www.w3.org/2000/svg" viewBox="0 0 194.8 144.6"><defs><style>.cls-1{isolation:isolate;}.cls-2{fill:#489aff;}.cls-3,.cls-8{fill:#e3eaff;}.cls-4{fill:#6db8ff;}.cls-5{fill:#2f6dff;}.cls-6{fill:#c8d6f2;}.cls-7{fill:#424261;opacity:0.2;mix-blend-mode:multiply;}.cls-8{opacity:0.21;}.cls-9{fill:#f9fbfc;}.cls-10{fill:#9570ee;}.cls-11{fill:#bb87ee;}.cls-12{fill:#7f57ee;}.cls-13{fill:#ced6ff;}.cls-14{fill:#f7d3a9;}.cls-15{fill:#544db8;}.cls-16{fill:#ff8b40;}.cls-17{fill:#cdd4ff;}.cls-18{fill:#ffc240;}.cls-19{fill:#90c240;}.cls-20{fill:#eb4f24;}.cls-21{fill:#fff;}.cls-22{fill:#fd4940;}.cls-23{fill:#0cf;}.cls-24{fill:#ff56a9;}.cls-25{fill:#ffc359;}.cls-26{fill:#ff4dd1;}.cls-27{fill:#f79a74;}.cls-28{fill:#ff4f72;}.cls-29{fill:#fec800;}</style></defs><title>build</title><g class="cls-1"><g id="Capa_2" data-name="Capa 2"><g id="OBJECTS"><path class="cls-2" d="M163.84,121.74A16.39,16.39,0,0,0,165.4,94.8a61.34,61.34,0,0,1,6.76-8c1.18-1.18,2.38-2.29,3.6-3.36q.73.61,1.42,1.27l4-2.47a4.38,4.38,0,0,1,6,1.45l4,6.54a4.38,4.38,0,0,1-1.45,6l-4,2.47a31.57,31.57,0,0,1,1.29,9.32l4.56,1.27a4.38,4.38,0,0,1,3,5.4l-2.06,7.38a4.38,4.38,0,0,1-5.4,3l-4.56-1.27a31.53,31.53,0,0,1-4.34,5.74l2.47,4a4.38,4.38,0,0,1-1.45,6l-6.54,4a4.38,4.38,0,0,1-6-1.45l-2.47-4a31.49,31.49,0,0,1-7.18,1.24,50.22,50.22,0,0,1-1.8-15.29A16.32,16.32,0,0,0,163.84,121.74Z"/><rect class="cls-3" x="4.48" y="30.77" width="154.86" height="110.03" rx="6.93" ry="6.93"/><rect class="cls-4" x="6.52" y="32.22" width="150.78" height="107.13" rx="5.49" ry="5.49"/><rect class="cls-5" x="13.04" y="37.26" width="137.74" height="92.64" rx="3.38" ry="3.38"/><path class="cls-3" d="M.72,135.09A5.74,5.74,0,0,0,0,137.84a5.81,5.81,0,0,0,5.81,5.81H158a5.81,5.81,0,0,0,5.81-5.81,5.74,5.74,0,0,0-.72-2.75Z"/><path class="cls-6" d="M.72,140.59a5.78,5.78,0,0,0,5.08,3.06H158a5.78,5.78,0,0,0,5.08-3.06Z"/><path class="cls-7" d="M152.41,30.77H49.08V99.82a2.76,2.76,0,0,0,2.76,2.77h107.5V37.7A6.93,6.93,0,0,0,152.41,30.77Z"/><rect class="cls-8" x="52.88" y="22.75" width="120.97" height="76.73" rx="2.76" ry="2.76"/><rect class="cls-9" x="57.72" y="17.57" width="120.97" height="76.73" rx="2.76" ry="2.76"/><rect class="cls-7" x="21.39" y="53.51" width="15.73" height="16.42" rx="1.73" ry="1.73"/><rect class="cls-4" x="20.48" y="77.36" width="15.73" height="16.42" rx="1.73" ry="1.73"/><rect class="cls-4" x="20.48" y="100.69" width="15.73" height="16.42" rx="1.73" ry="1.73"/><path class="cls-10" d="M31.78,107.09a3.74,3.74,0,0,0-7.48,0s-.53,4,3.74,7.11C32.3,111,31.78,107.09,31.78,107.09Z"/><path class="cls-9" d="M28.26,109.79a2.71,2.71,0,1,1,2.48-2.48A2.71,2.71,0,0,1,28.26,109.79Z"/><circle class="cls-10" cx="27.96" cy="85.35" r="5.17"/><circle class="cls-9" cx="27.96" cy="85.35" r="4.17"/><path class="cls-11" d="M28,81.18a4.17,4.17,0,0,1,4,3,.17.17,0,0,0,.16.12h0a.17.17,0,0,0,.16-.21,4.5,4.5,0,0,0-8.64,0,.17.17,0,0,0,.16.21h0a.17.17,0,0,0,.16-.12A4.17,4.17,0,0,1,28,81.18Z"/><path class="cls-12" d="M32.59,85.48a.5.5,0,0,0-.49.43,4.17,4.17,0,0,1-8.26,0,.5.5,0,0,0-.49-.43h0a.5.5,0,0,0-.5.56,5.17,5.17,0,0,0,10.25,0,.5.5,0,0,0-.5-.56Z"/><circle class="cls-9" cx="27.96" cy="85.35" r="4.17"/><path class="cls-10" d="M32,86.7a.17.17,0,0,0-.16.11,4.17,4.17,0,0,1-7.82,0,.17.17,0,0,0-.16-.11h0a.17.17,0,0,0-.16.23,4.51,4.51,0,0,0,8.45,0A.17.17,0,0,0,32,86.7Z"/><path class="cls-10" d="M28,85.72h0a.2.2,0,0,1-.2-.2V82.58a.2.2,0,0,1,.2-.2h0a.2.2,0,0,1,.2.2v2.94A.2.2,0,0,1,28,85.72Z"/><path class="cls-10" d="M27.81,85.41h0a.2.2,0,0,1,.28,0l1.81,1.53a.2.2,0,0,1,0,.28h0a.2.2,0,0,1-.28,0l-1.81-1.53A.2.2,0,0,1,27.81,85.41Z"/><rect class="cls-13" x="27.85" y="81.46" width="0.15" height="0.4"/><rect class="cls-13" x="27.85" y="88.77" width="0.15" height="0.4"/><rect class="cls-13" x="24.19" y="85.12" width="0.15" height="0.4" transform="translate(-61.05 109.59) rotate(-90)"/><rect class="cls-13" x="31.5" y="85.12" width="0.15" height="0.4" transform="translate(-53.74 116.89) rotate(-90)"/><rect class="cls-13" x="25.26" y="82.53" width="0.15" height="0.4" transform="translate(-51.06 42.12) rotate(-44.98)"/><rect class="cls-13" x="30.43" y="87.7" width="0.15" height="0.4" transform="translate(-53.22 47.32) rotate(-45)"/><rect class="cls-13" x="25.26" y="87.7" width="0.15" height="0.4" transform="translate(-18.9 167.97) rotate(-135)"/><rect class="cls-13" x="30.43" y="82.53" width="0.15" height="0.4" transform="translate(-6.39 162.82) rotate(-135.03)"/><rect class="cls-4" x="20.48" y="52.99" width="15.73" height="16.42" rx="1.73" ry="1.73"/><polyline class="cls-14" points="19.72 67.72 21.02 66.82 21.6 64.68 20.95 64.55 20.56 65.33 20.95 61.63 20.3 61.76 19.66 65.33 18.88 67.01 19.59 67.47"/><polygon class="cls-14" points="27.39 71.57 27.56 70.02 29.46 68.11 29.9 68.72 29.2 69.5 32.83 68.63 32.83 69.41 29.46 70.71 28.77 71.92 27.39 71.57"/><polygon class="cls-15" points="3.73 110.02 10.8 144.6 16.15 144.03 12.52 142.69 13.86 142.31 11.95 110.02 3.73 110.02"/><path class="cls-15" d="M15,109.45s9,8.41,7.64,18.53c-1.53,8-4.78,11.08-4.78,11.08l-1-.19,1.48,3.92-4.3-4.58s5.3-7.31,2-14.9A20.47,20.47,0,0,0,5.64,113s6.16-5.59,6.59-5.44A29.68,29.68,0,0,1,15,109.45Z"/><path class="cls-16" d="M18.82,66.42S4.07,84.33,2.35,87.91c0,0-.72,1.29-.72,5S2.92,110.4,2.92,110.4l15,.86s-4.87-16.76-5-17.19a10.23,10.23,0,0,0-4.87-3.58L20.68,67.71Z"/><path class="cls-14" d="M9.48,88.76s.63,1.86,1,3c0,0-3.07-.06-4.15-1.49L7.45,87.5Z"/><path class="cls-14" d="M11.81,82.95s.91,5.29,0,6.49-4-.84-5.32-2.76-1.56-6.25.65-6.61A4.08,4.08,0,0,1,11.81,82.95Z"/><path class="cls-16" d="M10.42,92.74s11.83-7.44,12.79-9,3.63-12.88,3.63-12.88l2.29.57s-1.34,12.69-1.72,14-12,13.74-14.69,13.74S9.08,95.79,10.42,92.74Z"/><path class="cls-15" d="M5.44,80.3a4.48,4.48,0,0,1,4.32-1.64c2.76.52,3.46-.09,3.46-.09s-.6,3-2.51,3.72-2.42.52-2.42.52a6.45,6.45,0,0,1,1.3,1.81c.26.78-.86-1-1.3-.35s0,1.9.86,1.81.35.6,0,1.3-.86,1.56-1.38,1.3a6.11,6.11,0,0,1-3-3.46C4.06,83.06,3.89,81,5.44,80.3Z"/><rect class="cls-3" x="65.15" y="25.6" width="36.29" height="61.17" rx="1.3" ry="1.3"/><rect class="cls-4" x="71.37" y="30.53" width="23.5" height="5.18" rx="1.04" ry="1.04"/><path class="cls-4" d="M79.23,64.53H74.57a2,2,0,0,1-2-2h0a2,2,0,0,1,2-2h4.67a2,2,0,0,1,2,2h0A2,2,0,0,1,79.23,64.53Z"/><path class="cls-10" d="M92.71,64.53H88a2,2,0,0,1-2-2h0a2,2,0,0,1,2-2h4.67a2,2,0,0,1,2,2h0A2,2,0,0,1,92.71,64.53Z"/><rect class="cls-9" x="70.85" y="40.9" width="25.23" height="3.97"/><rect class="cls-9" x="70.85" y="47.64" width="25.23" height="3.97"/><rect class="cls-17" x="76.3" y="54.12" width="14.52" height="0.91"/><path class="cls-10" d="M176.22,75.46H130.86a5.05,5.05,0,0,1-5.05-5.05h0a5.05,5.05,0,0,1,5.05-5.05h45.36a5.05,5.05,0,0,1,5.05,5.05h0A5.05,5.05,0,0,1,176.22,75.46Z"/><path class="cls-3" d="M137,32.6H108.7a4.15,4.15,0,0,1-4.15-4.15h0a4.15,4.15,0,0,1,4.15-4.15H137a4.15,4.15,0,0,1,4.15,4.15h0A4.15,4.15,0,0,1,137,32.6Z"/><circle class="cls-18" cx="114.14" cy="28.45" r="1.3"/><circle class="cls-19" cx="123.04" cy="28.45" r="1.3"/><circle class="cls-20" cx="131.25" cy="28.45" r="1.3"/><circle class="cls-21" cx="28.16" cy="62.21" r="3.16"/><path class="cls-10" d="M31.43,58.4h-.56l-.8-1.13a.34.34,0,0,0-.27-.14H26.61a.34.34,0,0,0-.27.14l-.8,1.13H25A1.58,1.58,0,0,0,23.41,60v4.58A1.58,1.58,0,0,0,25,66.12h6.45A1.58,1.58,0,0,0,33,64.55V60A1.58,1.58,0,0,0,31.43,58.4Zm-3.22,6.14a2.32,2.32,0,1,1,2.32-2.32A2.32,2.32,0,0,1,28.21,64.54Z"/><circle class="cls-4" cx="28.21" cy="62.22" r="1.53"/><rect class="cls-3" x="115.29" y="41.09" width="27.81" height="18.27" rx="2.04" ry="2.04"/><path class="cls-22" d="M129.22,50.09h-.05a.73.73,0,0,1-.36-.09l-10.72-6a.73.73,0,1,1,.71-1.28l10.39,5.77,10.39-5.77A.73.73,0,1,1,140.3,44l-10.72,6A.73.73,0,0,1,129.22,50.09Z"/><rect class="cls-15" x="149.39" y="12.9" width="34.48" height="44.58" rx="1.81" ry="1.81"/><path class="cls-23" d="M157.1,18.88h-2.3c-.12,0-.22-.2-.22-.44h0c0-.25.1-.44.22-.44h2.3c.12,0,.22.2.22.44h0C157.32,18.68,157.22,18.88,157.1,18.88Z"/><path class="cls-23" d="M171.32,18.88H158.18c-.12,0-.22-.2-.22-.44h0c0-.25.1-.44.22-.44h13.14c.12,0,.22.2.22.44h0C171.54,18.68,171.44,18.88,171.32,18.88Z"/><path class="cls-24" d="M162.37,20.71h-4.19c-.12,0-.22-.2-.22-.44h0c0-.25.1-.44.22-.44h4.19c.12,0,.22.2.22.44h0C162.59,20.52,162.49,20.71,162.37,20.71Z"/><path class="cls-3" d="M169.26,20.71h-6c-.12,0-.22-.2-.22-.44h0c0-.25.1-.44.22-.44h6c.12,0,.22.2.22.44h0C169.48,20.52,169.38,20.71,169.26,20.71Z"/><path class="cls-3" d="M171.32,29.65H158.18c-.12,0-.22-.2-.22-.44h0c0-.25.1-.44.22-.44h13.14c.12,0,.22.2.22.44h0C171.54,29.45,171.44,29.65,171.32,29.65Z"/><path class="cls-23" d="M157.1,31.49h-2.3c-.12,0-.22-.2-.22-.44h0c0-.25.1-.44.22-.44h2.3c.12,0,.22.2.22.44h0C157.32,31.29,157.22,31.49,157.1,31.49Z"/><path class="cls-3" d="M162.37,31.49h-4.19c-.12,0-.22-.2-.22-.44h0c0-.25.1-.44.22-.44h4.19c.12,0,.22.2.22.44h0C162.59,31.29,162.49,31.49,162.37,31.49Z"/><path class="cls-24" d="M169.26,31.49h-6c-.12,0-.22-.2-.22-.44h0c0-.25.1-.44.22-.44h6c.12,0,.22.2.22.44h0C169.48,31.29,169.38,31.49,169.26,31.49Z"/><path class="cls-24" d="M174.57,22.55h-16.4c-.12,0-.22-.2-.22-.44h0c0-.25.1-.44.22-.44h16.4c.12,0,.22.2.22.44h0C174.8,22.35,174.7,22.55,174.57,22.55Z"/><rect class="cls-23" x="167.09" y="23.5" width="4.29" height="0.89" rx="0.23" ry="0.23"/><path class="cls-3" d="M163.62,24.39h-5.45c-.12,0-.22-.2-.22-.44h0c0-.25.1-.44.22-.44h5.45c.12,0,.22.2.22.44h0C163.84,24.19,163.75,24.39,163.62,24.39Z"/><path class="cls-23" d="M166.52,24.39h-2.16c-.12,0-.22-.2-.22-.44h0c0-.25.1-.44.22-.44h2.16c.12,0,.22.2.22.44h0C166.74,24.19,166.64,24.39,166.52,24.39Z"/><path class="cls-3" d="M157.1,26.16h-2.3c-.12,0-.22-.2-.22-.44h0c0-.25.1-.44.22-.44h2.3c.12,0,.22.2.22.44h0C157.32,26,157.22,26.16,157.1,26.16Z"/><path class="cls-3" d="M174.57,26.16h-16.4c-.12,0-.22-.2-.22-.44h0c0-.25.1-.44.22-.44h16.4c.12,0,.22.2.22.44h0C174.8,26,174.7,26.16,174.57,26.16Z"/><path class="cls-3" d="M157.1,33.19h-2.3c-.12,0-.22-.2-.22-.44h0c0-.25.1-.44.22-.44h2.3c.12,0,.22.2.22.44h0C157.32,33,157.22,33.19,157.1,33.19Z"/><rect class="cls-3" x="167.09" y="32.3" width="5.93" height="0.89" rx="0.28" ry="0.28"/><path class="cls-3" d="M163.62,33.19h-5.45c-.12,0-.22-.2-.22-.44h0c0-.25.1-.44.22-.44h5.45c.12,0,.22.2.22.44h0C163.84,33,163.75,33.19,163.62,33.19Z"/><path class="cls-3" d="M166.52,33.19h-2.16c-.12,0-.22-.2-.22-.44h0c0-.25.1-.44.22-.44h2.16c.12,0,.22.2.22.44h0C166.74,33,166.64,33.19,166.52,33.19Z"/><path class="cls-25" d="M157.1,35h-2.3c-.12,0-.22-.2-.22-.44h0c0-.25.1-.44.22-.44h2.3c.12,0,.22.2.22.44h0C157.32,34.76,157.22,35,157.1,35Z"/><path class="cls-23" d="M161,35h-2.84c-.12,0-.22-.2-.22-.44h0c0-.25.1-.44.22-.44H161c.12,0,.22.2.22.44h0C161.24,34.76,161.14,35,161,35Z"/><path class="cls-23" d="M154.8,28c-.12,0-.22-.2-.22-.44h0c0-.25.1-.44.22-.44h2.3c.12,0,.22.2.22.44h0c0,.25-.1.44-.22.44"/><rect class="cls-3" x="167.09" y="27.11" width="6.7" height="0.89" rx="0.29" ry="0.29"/><path class="cls-25" d="M163.62,28h-5.45c-.12,0-.22-.2-.22-.44h0c0-.25.1-.44.22-.44h5.45c.12,0,.22.2.22.44h0C163.84,27.8,163.75,28,163.62,28Z"/><path class="cls-25" d="M166.52,28h-2.16c-.12,0-.22-.2-.22-.44h0c0-.25.1-.44.22-.44h2.16c.12,0,.22.2.22.44h0C166.74,27.8,166.64,28,166.52,28Z"/><path class="cls-3" d="M171.32,36.85H158.18c-.12,0-.22-.2-.22-.44h0c0-.25.1-.44.22-.44h13.14c.12,0,.22.2.22.44h0C171.54,36.65,171.44,36.85,171.32,36.85Z"/><path class="cls-3" d="M162.37,38.69h-4.19c-.12,0-.22-.2-.22-.44h0c0-.25.1-.44.22-.44h4.19c.12,0,.22.2.22.44h0C162.59,38.49,162.49,38.69,162.37,38.69Z"/><path class="cls-3" d="M169.26,38.69h-6c-.12,0-.22-.2-.22-.44h0c0-.25.1-.44.22-.44h6c.12,0,.22.2.22.44h0C169.48,38.49,169.38,38.69,169.26,38.69Z"/><path class="cls-3" d="M171.32,47.62H158.18c-.12,0-.22-.2-.22-.44h0c0-.25.1-.44.22-.44h13.14c.12,0,.22.2.22.44h0C171.54,47.43,171.44,47.62,171.32,47.62Z"/><path class="cls-24" d="M157.1,49.46h-2.3c-.12,0-.22-.2-.22-.44h0c0-.25.1-.44.22-.44h2.3c.12,0,.22.2.22.44h0C157.32,49.26,157.22,49.46,157.1,49.46Z"/><path class="cls-23" d="M162.37,49.46h-4.19c-.12,0-.22-.2-.22-.44h0c0-.25.1-.44.22-.44h4.19c.12,0,.22.2.22.44h0C162.59,49.26,162.49,49.46,162.37,49.46Z"/><path class="cls-3" d="M169.26,49.46h-6c-.12,0-.22-.2-.22-.44h0c0-.25.1-.44.22-.44h6c.12,0,.22.2.22.44h0C169.48,49.26,169.38,49.46,169.26,49.46Z"/><path class="cls-24" d="M157.1,40.52h-2.3c-.12,0-.22-.2-.22-.44h0c0-.25.1-.44.22-.44h2.3c.12,0,.22.2.22.44h0C157.32,40.32,157.22,40.52,157.1,40.52Z"/><rect class="cls-24" x="157.96" y="39.63" width="12.22" height="0.89" rx="0.27" ry="0.27"/><path class="cls-3" d="M157.1,42.36h-2.3c-.12,0-.22-.2-.22-.44h0c0-.25.1-.44.22-.44h2.3c.12,0,.22.2.22.44h0C157.32,42.16,157.22,42.36,157.1,42.36Z"/><path class="cls-3" d="M163.62,42.36h-5.45c-.12,0-.22-.2-.22-.44h0c0-.25.1-.44.22-.44h5.45c.12,0,.22.2.22.44h0C163.84,42.16,163.75,42.36,163.62,42.36Z"/><path class="cls-3" d="M166.52,42.36h-2.16c-.12,0-.22-.2-.22-.44h0c0-.25.1-.44.22-.44h2.16c.12,0,.22.2.22.44h0C166.74,42.16,166.64,42.36,166.52,42.36Z"/><path class="cls-3" d="M157.1,44.13h-2.3c-.12,0-.22-.2-.22-.44h0c0-.25.1-.44.22-.44h2.3c.12,0,.22.2.22.44h0C157.32,43.93,157.22,44.13,157.1,44.13Z"/><rect class="cls-3" x="157.96" y="43.24" width="15.39" height="0.89" rx="0.3" ry="0.3"/><path class="cls-3" d="M157.1,51.16h-2.3c-.12,0-.22-.2-.22-.44h0c0-.25.1-.44.22-.44h2.3c.12,0,.22.2.22.44h0C157.32,51,157.22,51.16,157.1,51.16Z"/><path class="cls-3" d="M174.56,51.16h-7.25c-.12,0-.22-.2-.22-.44h0c0-.25.1-.44.22-.44h7.25c.12,0,.22.2.22.44h0C174.78,51,174.68,51.16,174.56,51.16Z"/><path class="cls-3" d="M163.62,51.16h-5.45c-.12,0-.22-.2-.22-.44h0c0-.25.1-.44.22-.44h5.45c.12,0,.22.2.22.44h0C163.84,51,163.75,51.16,163.62,51.16Z"/><path class="cls-3" d="M166.52,51.16h-2.16c-.12,0-.22-.2-.22-.44h0c0-.25.1-.44.22-.44h2.16c.12,0,.22.2.22.44h0C166.74,51,166.64,51.16,166.52,51.16Z"/><rect class="cls-25" x="157.96" y="52.05" width="10.16" height="0.89" rx="0.24" ry="0.24"/><rect class="cls-24" x="167.09" y="45.08" width="7.09" height="0.89" rx="0.3" ry="0.3"/><path class="cls-25" d="M163.62,46h-5.45c-.12,0-.22-.2-.22-.44h0c0-.25.1-.44.22-.44h5.45c.12,0,.22.2.22.44h0C163.84,45.77,163.75,46,163.62,46Z"/><path class="cls-25" d="M166.52,46h-2.16c-.12,0-.22-.2-.22-.44h0c0-.25.1-.44.22-.44h2.16c.12,0,.22.2.22.44h0C166.74,45.77,166.64,46,166.52,46Z"/><circle class="cls-26" cx="181.09" cy="13.82" r="7.26"/><path class="cls-9" d="M180.56,13.14l-2.88,1.06,2.88,1v1.08l-4.12-1.57V13.64l4.12-1.57Z"/><path class="cls-9" d="M181.5,12.07l4.12,1.57v1.13l-4.12,1.57V15.25l2.88-1-2.88-1.06Z"/><circle class="cls-18" cx="133.08" cy="136.2" r="7.87"/><path class="cls-21" d="M137.24,135.75a3.71,3.71,0,0,1-.23,1.34,2.22,2.22,0,0,1-.66,1,1.53,1.53,0,0,1-1,.35,1.24,1.24,0,0,1-.67-.18,1,1,0,0,1-.42-.48h-.08a1.75,1.75,0,0,1-1.4.66,1.87,1.87,0,0,1-1.42-.54,2.06,2.06,0,0,1-.52-1.48,2.29,2.29,0,0,1,.68-1.73,2.46,2.46,0,0,1,1.78-.66,6.18,6.18,0,0,1,1,.08,5.3,5.3,0,0,1,.87.2l-.12,2.49q0,.71.39.71t.52-.48a3.36,3.36,0,0,0,.19-1.24,3,3,0,0,0-.34-1.45,2.32,2.32,0,0,0-1-1,3,3,0,0,0-1.41-.33,3.61,3.61,0,0,0-1.79.42,2.82,2.82,0,0,0-1.16,1.22,4,4,0,0,0-.4,1.84,2.92,2.92,0,0,0,.75,2.16,3,3,0,0,0,2.18.75,6.54,6.54,0,0,0,1.19-.12,7.87,7.87,0,0,0,1.27-.35v1a6.12,6.12,0,0,1-2.42.46,4.23,4.23,0,0,1-3-1,3.7,3.7,0,0,1-1.08-2.83,4.74,4.74,0,0,1,.55-2.28,4,4,0,0,1,1.57-1.61,4.65,4.65,0,0,1,2.35-.58,4.27,4.27,0,0,1,2,.46,3.25,3.25,0,0,1,1.36,1.3A3.89,3.89,0,0,1,137.24,135.75Zm-5.21.64q0,1.07.88,1.07a.81.81,0,0,0,.7-.32,2,2,0,0,0,.29-1.05L134,135a2.78,2.78,0,0,0-.59-.06,1.26,1.26,0,0,0-1,.4A1.57,1.57,0,0,0,132,136.39Z"/><path class="cls-10" d="M93.52,0H44.12a7.26,7.26,0,1,0,0,14.53h3.63L51.27,18l3.51-3.51H93.52A7.26,7.26,0,1,0,93.52,0Z"/><path class="cls-21" d="M79.38,9.58H46.88a.81.81,0,0,1-.81-.81h0A.81.81,0,0,1,46.88,8h32.5a.81.81,0,0,1,.81.81h0A.81.81,0,0,1,79.38,9.58Z"/><path class="cls-21" d="M69.23,5.11H46.88a.81.81,0,0,1-.81-.81h0a.81.81,0,0,1,.81-.81H69.23A.81.81,0,0,1,70,4.3h0A.81.81,0,0,1,69.23,5.11Z"/><path class="cls-14" d="M161,92s-.6,1.79-.94,2.88c0,0,3-.06,4-1.44L163,90.83Z"/><polygon class="cls-27" points="160.58 141.49 160.83 142.62 162.47 142.71 162.12 141.33 160.58 141.49"/><path class="cls-15" d="M160.83,142.62s-2.74,1.43-2.72,1.52,4.63-.39,4.63-.39l-.28-1Z"/><polygon class="cls-27" points="174.4 139.22 175.04 140.18 176.6 139.68 175.78 138.51 174.4 139.22"/><path class="cls-15" d="M175,140.18s-2,2.32-2,2.4,4.18-2,4.18-2l-.63-.87Z"/><path class="cls-18" d="M157.54,111.67s-4.7,15.34,2.76,30.12h2.21s-4.42-16.72,1.11-30.26Z"/><path class="cls-18" d="M161.62,112.21s.73,16,12.72,27.44l2.08-.74s-9.78-14.26-9.12-28.87Z"/><path class="cls-27" d="M159.47,76.11v-.95a.46.46,0,0,0,0-.12l-.18-.68-.54.14-.55-.51a.47.47,0,0,0-.74.14,5.2,5.2,0,0,0-.42,1.18.46.46,0,0,0,.12.39l.84.92a.47.47,0,0,0,.48.13l.67-.2A.47.47,0,0,0,159.47,76.11Z"/><path class="cls-28" d="M167.57,96.85s-6.13-6.57-6.53-9-1.3-11.6-1.3-11.6l-1.89.36s-.65,13.08-.07,14.58,4.26,9.18,6.66,9.89S168.52,99.4,167.57,96.85Z"/><path class="cls-27" d="M159.06,86s-1.38,4.6-.51,5.76,4.1.11,5.35-1.75,1.5-6-.63-6.38S159.56,84.16,159.06,86Z"/><path class="cls-28" d="M167.35,112.91s1.24-13.26,1.24-16.86c0-.16,0-.32,0-.47a3.54,3.54,0,0,0-4.14-2.11A29.12,29.12,0,0,0,160,95h0a8.89,8.89,0,0,0-2.27,2.22,21.41,21.41,0,0,0-.41,15.2Z"/><path class="cls-27" d="M149.79,76.79l-.16-.93a.47.47,0,0,0,0-.12l-.3-.63-.51.23-.63-.4a.47.47,0,0,0-.7.27,5.2,5.2,0,0,0-.21,1.23.46.46,0,0,0,.18.36l1,.76a.47.47,0,0,0,.49,0l.63-.31A.47.47,0,0,0,149.79,76.79Z"/><path class="cls-28" d="M161.41,95.78s-7.18-5.39-8-7.74-3.32-11.19-3.32-11.19l-1.8.69s1.66,13,2.49,14.37,5.8,8.29,8.29,8.57S162.79,98.13,161.41,95.78Z"/><path class="cls-15" d="M164.17,83.62s-3.68-1.57-5.43,1.66c-.92,2,2,.09,2.58.74s-.74,1.93-.37,2.39,1-.83,1.38-.09-.55.83-1.2,1.66.55,2-.37,2.76S157.26,94,158.83,98s-2.58,5-.83,10.41,13.63,8.47,15.84,2-5.16-8-4.7-10.87,2.12-3.59-.09-6.45-3.59-4.51-2.95-6.36A2.41,2.41,0,0,0,164.17,83.62Z"/><path class="cls-29" d="M174.22,61.35a7.92,7.92,0,1,0,7.92,7.92A7.92,7.92,0,0,0,174.22,61.35Zm-4,7.3a1,1,0,1,1,1,1A1,1,0,0,1,170.22,68.66Zm4,4.94a2.52,2.52,0,0,1-2.49-2.18h5A2.52,2.52,0,0,1,174.22,73.59Zm3-4a1,1,0,1,1,1-1A1,1,0,0,1,177.26,69.62Z"/><polygon class="cls-9" points="56.57 125.61 56.1 124.68 68.66 118.4 84.5 118.66 101.7 112.18 114.83 112.18 128.86 107.51 128.97 107.52 140.22 108.8 146.56 105.5 147.04 106.42 140.42 109.86 140.26 109.84 128.97 108.56 114.92 113.22 101.79 113.22 84.68 119.7 84.58 119.7 68.9 119.44 56.57 125.61"/><path class="cls-15" d="M102.65,100.73s12.44,20.15,10.89,34.17l8.47.18-3.63-2.1,1-.18s-3.11-21.73-6-29.44c-3.08-8.08-4-5.08-4-5.08Z"/><path class="cls-15" d="M98.16,99.48s.69,14-.35,19.35-4.15,15.9-4.15,15.9l7.95.17-2.09-1.47-1.32-.77s5.66-15.21,6.18-22.47a95.14,95.14,0,0,1,1.38-11.41Z"/><polyline class="cls-14" points="114.42 58.05 115.72 57.14 116.3 55 115.65 54.87 115.26 55.65 115.65 51.96 115 52.09 114.36 55.65 113.58 57.34 114.29 57.79"/><polygon class="cls-14" points="122.09 61.89 122.26 60.34 124.16 58.44 124.59 59.04 123.9 59.82 127.53 58.95 127.53 59.73 124.16 61.03 123.47 62.24 122.09 61.89"/><path class="cls-4" d="M113.52,56.74S98.76,74.65,97,78.23c0,0-.72,1.29-.72,5s1.29,17.48,1.29,17.48l15,.86s-4.87-16.76-5-17.19a10.23,10.23,0,0,0-4.87-3.58L115.38,58Z"/><path class="cls-14" d="M104.18,79.08s.63,1.86,1,3c0,0-3.07-.06-4.15-1.49l1.15-2.75Z"/><path class="cls-14" d="M106.51,73.27s.91,5.29,0,6.49-4-.84-5.32-2.76-1.56-6.25.65-6.61A4.08,4.08,0,0,1,106.51,73.27Z"/><path class="cls-4" d="M105.12,83.06s11.83-7.44,12.79-9,3.63-12.88,3.63-12.88l2.29.57s-1.34,12.69-1.72,14-12,13.74-14.69,13.74S103.78,86.11,105.12,83.06Z"/><path class="cls-15" d="M105.67,72.09S106.28,70,105,69a4.18,4.18,0,0,0-3.89-.52c0,.6,1.38,1,1,1.3s-2.16,0-2.59,1.81.17,2.16.17,2.16a2.15,2.15,0,0,0,.17,2.68c1.12,1.56,3.66,2.84,4.29,2.67s.29-2.59.29-2.59-1.47-.17-1.56-1.12.69-1,1-.69.43,1.12.69,1-.09-2-.09-2A3.64,3.64,0,0,0,105.67,72.09Z"/><path class="cls-10" d="M112.64,125l-8.89,2.44a4.62,4.62,0,0,0-3.22,5.66l1.68,6.13a4.62,4.62,0,0,0,5.66,3.22l2.66-.73,2.62,2.59.93-3.57,2.66-.73a4.62,4.62,0,0,0,3.22-5.66l-1.68-6.13A4.62,4.62,0,0,0,112.64,125Z"/><circle class="cls-21" cx="105.77" cy="135.34" r="1.02" transform="translate(-32.03 32.8) rotate(-15.34)"/><circle class="cls-21" cx="110.25" cy="134.11" r="1.02" transform="translate(-31.55 33.94) rotate(-15.34)"/><circle class="cls-21" cx="114.73" cy="132.88" r="1.02" transform="translate(-31.07 35.08) rotate(-15.34)"/><circle class="cls-18" cx="68.69" cy="118.66" r="1.64"/><circle class="cls-28" cx="129" cy="108.12" r="1.64"/></g></g></g></svg>