<svg xmlns="http://www.w3.org/2000/svg" viewBox="0 0 166.31 61.54"><defs><style>.cls-1{fill:#fff;}</style></defs><title>signature</title><g id="Capa_2" data-name="Capa 2"><g id="PRINT"><path class="cls-1" d="M.07,36.36C-.66,44.13,4.68,50.43,12.14,52c8,1.68,16.28-.85,23.88-3.08A276.44,276.44,0,0,0,91.48,25.81q6.63-3.65,13-7.66c3.88-2.43,8.09-4.78,11.57-7.76,2.34-2,4-5.12,1.87-7.92-2.24-3-6.21-2.88-9.36-1.69C100.9,3.68,93.86,9.88,88.77,16.24c-4.3,5.38-10.18,13.69-8.5,21.05s10.09,7,15.47,4.05A30.44,30.44,0,0,0,103,35.13c1.84-1.94,4.59-5.7,7.43-6.09,2.58-.35,2.39,2.72,1.61,4.28-.59,1.18-1.41,2.24-1.92,3.46a3.4,3.4,0,0,0,2,4.85c2.9,1.15,5.65-.46,7.76-2.34,1.88-1.67,4.7-4.06,5.07-6.72.18-1.26-.8-3.47-2.22-3.74s-1.74,1.28-1.93,2.29c-.57,3-.71,8.2,2.19,10.05,3.35,2.15,7.63.33,10.61-1.61a31.41,31.41,0,0,0,10.16-11.08c1.74-3.18,3.46-7.74,1.23-11.11-1.88-2.84-4.56-2.49-6.68-.19-3.45,3.75-5.33,9.2-6.93,13.94a99,99,0,0,0-4.54,19.93,52.33,52.33,0,0,0-.37,9c0,.53.88.72,1,.13l.35-2.11c.1-.63-.86-.9-1-.27L126.58,60l1,.13c-.59-10.61,2.21-21.86,6-31.71,1.41-3.71,3.11-8.29,6.14-11,2.82-2.55,5.38.53,5.45,3.6.09,4.07-2.45,8.11-4.88,11.18a26.93,26.93,0,0,1-9.61,8c-2.79,1.26-7.52,1.86-8.49-2a18,18,0,0,1-.39-5.82c0-.45.08-2,.54-2.34,1.08-.68,1.84,2,1.7,2.71-.51,2.46-3.46,4.82-5.29,6.36a6.49,6.49,0,0,1-5.07,1.84c-2.61-.35-3.31-2.28-2.22-4.41s4.54-7.47,0-8.47c-3.54-.79-7.52,4.7-9.53,6.81-4,4.19-10.74,10-17,6.94-8-3.91-2-15.13,1.24-20.22a54.36,54.36,0,0,1,15.77-16c3.24-2.15,7.85-5.36,11.93-4.48,2.76.6,4.93,3.17,3.69,6-.93,2.11-3.12,3.42-5,4.66q-10.13,6.87-20.84,12.82A275.36,275.36,0,0,1,47.2,44.32c-7.27,2.48-14.72,5-22.28,6.42C18.28,52,10.19,52.32,5,47.28A13.25,13.25,0,0,1,1.07,36.36c.06-.64-.94-.64-1,0Z"/><path class="cls-1" d="M32.13,61.52A449.7,449.7,0,0,1,136,48.31q14.94-.14,29.86.72c.64,0,.64-1,0-1A450.88,450.88,0,0,0,61.08,54.32q-14.71,2.63-29.21,6.24a.5.5,0,0,0,.27,1Z"/></g></g></svg>