<?xml version="1.0" encoding="iso-8859-1"?>
<!-- Generator: Adobe Illustrator 19.0.0, SVG Export Plug-In . SVG Version: 6.00 Build 0)  -->
<svg version="1.1" id="Capa_1" xmlns="http://www.w3.org/2000/svg" xmlns:xlink="http://www.w3.org/1999/xlink" x="0px" y="0px"
	 viewBox="0 0 488 488" style="enable-background:new 0 0 488 488;" xml:space="preserve">
<path style="fill:#cde8fe;" d="M236.736,19.896c-44.182-0.161-80.13,35.525-80.291,79.707s35.525,80.13,79.707,80.291
	c43.361,0.158,78.955-34.257,80.256-77.599c0.073-0.718,0.103-1.439,0.088-2.16C316.629,55.954,280.919,20.029,236.736,19.896
	C236.736,19.896,236.736,19.896,236.736,19.896z"/>
<g>
	<path style="fill:#f4f8fb;" d="M472,212.104v23.768c0,6.627-5.373,12-12,12v7.928c-0.184-70.144-54.4-133.432-135.672-159.328
		c-1.853-47.068-40.425-84.339-87.528-84.576h-0.264c-35.817-0.107-68.092,21.601-81.496,54.816
		c-15.452-12.347-34.621-19.113-54.4-19.2c-4.568,0-11.56,0-12.68,7.056c-0.148,0.85-0.148,1.718,0,2.568v82.44
		c-21.492,15.736-38.349,36.971-48.8,61.472l-33.264,9.08c-3.482,0.949-5.897,4.111-5.896,7.72v74.72
		c-0.002,3.585,2.382,6.733,5.832,7.704l33.048,9.288c12.412,28.873,32.462,53.815,57.992,72.144l10.6,87.36
		c0.485,4.015,3.891,7.037,7.936,7.04H160c4.418,0,8-3.582,8-8v-8h32c4.418,0,8-3.582,8-8v-26.688
		c29.271,4.044,59.01,3.189,88-2.528v29.216c0,4.418,3.582,8,8,8h16c0,4.418,3.582,8,8,8h51.408
		c3.991,0.003,7.373-2.936,7.928-6.888l11.928-85.512c38.776-31.888,60.264-73.68,60.736-118.08v6.248c15.464,0,28-12.536,28-28
		v-23.768H472z M236.496,27.896h0.216c39.745,0.159,71.859,32.463,71.784,72.208c0,0.432,0,0.864-0.08,1.96
		c-0.924,38.991-32.911,70.056-71.912,69.84h-0.216c-39.72-0.07-71.863-32.326-71.793-72.047c0.01-5.735,0.706-11.448,2.073-17.017
		C174.331,50.535,203.272,27.796,236.496,27.896z M16,223.952l16-4.352V291l-16-4.496V223.952z M176,444.104v-24.856
		c5.536,1.328,10.752,2.488,16,3.496v21.36H176z M312,444.104v-23.672c2.72-0.672,5.336-1.504,8-2.256v25.928H312z M386.792,365.216
		c-1.601,1.276-2.651,3.117-2.936,5.144l-11.408,81.744H344v-47.36c-0.004-4.418-3.589-7.997-8.008-7.992
		c-0.936,0.001-1.865,0.166-2.744,0.488c-0.512,0.184-1.064,0.328-1.6,0.512c-2.374-1.255-5.221-1.225-7.568,0.08
		c-8.317,3.991-17.14,6.828-26.224,8.432c-17.842,3.837-36.046,5.733-54.296,5.656c-13.432-0.055-26.838-1.192-40.088-3.4
		c-0.646-0.364-1.341-0.633-2.064-0.8c-10.47-1.876-20.79-4.507-30.88-7.872c-1.703-0.498-3.523-0.407-5.168,0.256l-0.728-0.184
		l-2.696-0.68c-4.285-1.078-8.632,1.521-9.71,5.806c-0.161,0.639-0.242,1.295-0.242,1.954v53.104h-29.488l-10.16-83.808
		c-0.27-2.232-1.466-4.247-3.296-5.552c-25.449-17.447-45.178-42.021-56.712-70.64c-0.799-1.97-2.36-3.534-4.328-4.336v-80.736
		c2.08-0.762,3.746-2.361,4.592-4.408c9.684-24.472,26.408-45.522,48.056-60.488c2.104-1.502,3.352-3.927,3.352-6.512V63.576
		c17.273,0.746,33.668,7.819,46.064,19.872c-0.248,1.296-0.368,2.608-0.56,3.904c-0.136,0.976-0.304,1.936-0.416,2.912
		c-5.337,48.272,29.467,91.73,77.739,97.068c3.126,0.346,6.268,0.523,9.413,0.532h0.264c2.888,0,5.744-0.152,8.56-0.416
		c0.96-0.096,1.888-0.272,2.832-0.392c1.84-0.232,3.68-0.464,5.48-0.8c1.128-0.216,2.224-0.512,3.344-0.8
		c1.6-0.36,3.128-0.72,4.656-1.16c1.216-0.352,2.4-0.8,3.584-1.168c1.368-0.464,2.736-0.92,4.072-1.448s2.504-1.048,3.736-1.6
		s2.4-1.064,3.52-1.648c1.32-0.656,2.608-1.368,3.88-2.088c0.992-0.56,1.968-1.128,2.936-1.728c1.368-0.848,2.704-1.728,4-2.648
		c0.8-0.544,1.544-1.104,2.296-1.672c1.432-1.064,2.816-2.16,4.168-3.304c0.552-0.472,1.088-0.952,1.6-1.432
		c1.488-1.32,2.928-2.68,4.32-4.096c0.304-0.312,0.592-0.632,0.896-0.952c1.552-1.6,3.064-3.32,4.488-5.072l0.096-0.128
		c9.814-12.096,16.172-26.623,18.4-42.04c0-0.144,0.056-0.272,0.072-0.408c72.68,24.592,120.72,81.328,120.528,143.592
		C443.912,297.296,423.584,335.912,386.792,365.216L386.792,365.216z"/>
	<path style="fill:#f4f8fb;" d="M112.072,179.872c-15.464,0-28,12.536-28,28h16c0-6.627,5.373-12,12-12c6.627,0,12,5.373,12,12h16
		C140.072,192.408,127.536,179.872,112.072,179.872z"/>
	<path style="fill:#f4f8fb;" d="M368,164.104v16c17.673,0,32,14.327,32,32h16C415.974,185.605,394.499,164.131,368,164.104z"/>
	<path style="fill:#f4f8fb;" d="M271.2,84.104V78.68c0.06-13.367-9.925-24.649-23.2-26.216v-8.36h-16v8h-3.584
		c-14.587,0.013-26.419,11.814-26.472,26.4v3.04c-0.022,14.612,11.789,26.483,26.4,26.536l3.656,0.024l12.696,0.048
		c5.751,0.057,10.387,4.729,10.4,10.48v3.072c-0.044,5.757-4.723,10.4-10.48,10.4l-16.368-0.056
		c-5.761-0.057-10.4-4.743-10.4-10.504v-5.44h-16v5.424c-0.022,14.612,11.789,26.483,26.4,26.536l3.752,0.04v8l16,0.064V147.8
		c13.156-1.668,23.033-12.835,23.08-26.096v-3.048c0.013-14.608-11.792-26.474-26.4-26.536L240,92.104l-11.696-0.048
		c-5.754-0.057-10.392-4.733-10.4-10.488v-3.064c0.044-5.757,4.723-10.4,10.48-10.4l16.368,0.056
		c5.761,0.057,10.4,4.743,10.4,10.504v5.44L271.2,84.104z"/>
</g>
<g>
</g>
<g>
</g>
<g>
</g>
<g>
</g>
<g>
</g>
<g>
</g>
<g>
</g>
<g>
</g>
<g>
</g>
<g>
</g>
<g>
</g>
<g>
</g>
<g>
</g>
<g>
</g>
<g>
</g>
</svg>
