<?xml version="1.0" encoding="iso-8859-1"?>
<!-- Generator: Adobe Illustrator 19.0.0, SVG Export Plug-In . SVG Version: 6.00 Build 0)  -->
<svg version="1.1" id="Capa_1" xmlns="http://www.w3.org/2000/svg" xmlns:xlink="http://www.w3.org/1999/xlink" x="0px" y="0px"
	 viewBox="0 0 483.104 483.104" style="enable-background:new 0 0 483.104 483.104;" xml:space="preserve">
<path style="fill:#cde8fe;" d="M241.552,112l-8,48h-40l32,24l-16,32l32-24l32,24l-8-32l24-24h-32L241.552,112z"/>
<g>
	<path style="fill:#f4f8fb;" d="M258.72,152l-17.168-52.72L224.384,152h-55.488l44.928,32.576l-17.176,52.744l44.904-32.52
		l44.904,32.552l-17.176-52.744L314.208,152H258.72z M256.008,195.48L241.552,185l-14.456,10.48l5.544-17.008L218.208,168H236
		l5.552-17.048L247.104,168h17.792l-14.4,10.472L256.008,195.48z"/>
	<path style="fill:#f4f8fb;" d="M404.8,203.4c7.164-7.472,11.648-17.108,12.752-27.4c-1.104-10.292-5.588-19.928-12.752-27.4
		c-3.685-4.136-6.617-8.885-8.664-14.032c-0.871-5.719-0.727-11.547,0.424-17.216c2.378-9.802,1.475-20.112-2.568-29.352
		c-6.046-8.227-14.636-14.231-24.44-17.08c-5.394-1.787-10.429-4.514-14.872-8.056c-3.536-4.442-6.258-9.474-8.04-14.864
		c-2.853-9.802-8.859-18.39-17.088-24.432c-9.25-4.056-19.577-4.961-29.392-2.576c-5.67,1.147-11.497,1.291-17.216,0.424
		c-5.144-2.049-9.89-4.981-14.024-8.664C261.457,5.595,251.833,1.11,241.552,0c-10.292,1.104-19.928,5.588-27.4,12.752
		c-4.136,3.685-8.885,6.617-14.032,8.664c-5.719,0.867-11.546,0.723-17.216-0.424c-9.801-2.381-20.113-1.479-29.352,2.568
		c-8.227,6.046-14.231,14.636-17.08,24.44c-1.787,5.394-4.514,10.429-8.056,14.872c-4.442,3.536-9.474,6.257-14.864,8.04
		C103.75,73.765,95.162,79.771,89.12,88c-4.056,9.251-4.961,19.577-2.576,29.392c1.151,5.669,1.295,11.497,0.424,17.216
		c-2.049,5.144-4.981,9.89-8.664,14.024c-7.157,7.463-11.642,17.087-12.752,27.368c1.104,10.292,5.588,19.928,12.752,27.4
		c3.685,4.136,6.617,8.885,8.664,14.032c0.871,5.719,0.727,11.547-0.424,17.216c-2.378,9.802-1.475,20.112,2.568,29.352
		c6.046,8.227,14.636,14.231,24.44,17.08c5.394,1.787,10.429,4.514,14.872,8.056c3.536,4.442,6.257,9.474,8.04,14.864l1.088,2.6
		v176.504l104-34.672l104,34.672V306.592c0.36-0.864,0.728-1.728,1.08-2.576c1.787-5.394,4.514-10.429,8.056-14.872
		c4.441-3.541,9.473-6.269,14.864-8.056c9.802-2.853,18.39-8.859,24.432-17.088c4.056-9.251,4.961-19.577,2.576-29.392
		c-1.151-5.669-1.295-11.497-0.424-17.216C398.188,212.26,401.12,207.525,404.8,203.4z M249.552,434.24V376h-16v58.24l-80,26.656
		V384h56v-16h-56v-39.552c9.245,4.036,19.556,4.935,29.36,2.56c5.67-1.143,11.496-1.287,17.216-0.424
		c5.144,2.049,9.89,4.981,14.024,8.664c7.472,7.164,17.108,11.648,27.4,12.752c10.292-1.104,19.928-5.588,27.4-12.752
		c4.136-3.685,8.885-6.617,14.032-8.664c5.72-0.862,11.546-0.719,17.216,0.424c9.801,2.377,20.111,1.478,29.352-2.56V400h-24v16h24
		v44.896L249.552,434.24z M392.104,193.648c-5.049,5.74-8.927,12.412-11.416,19.64c-1.52,7.729-1.52,15.679,0,23.408
		c1.638,6.358,1.447,13.05-0.552,19.304c-4.471,4.954-10.268,8.524-16.704,10.288c-7.373,2.498-14.186,6.415-20.056,11.528
		c-5.113,5.87-9.03,12.683-11.528,20.056c-1.763,6.443-5.336,12.246-10.296,16.72c-6.258,1.993-12.95,2.184-19.312,0.552
		c-7.725-1.528-15.675-1.528-23.4,0c-7.231,2.487-13.906,6.365-19.648,11.416c-4.84,4.79-10.969,8.07-17.64,9.44
		c-6.675-1.371-12.806-4.653-17.648-9.448c-5.74-5.049-12.412-8.927-19.64-11.416c-3.19-0.821-6.474-1.217-9.768-1.176
		c-4.554,0.101-9.097,0.496-13.6,1.184c-6.371,1.647-13.079,1.453-19.344-0.56c-4.954-4.471-8.524-10.268-10.288-16.704
		c-2.498-7.373-6.415-14.186-11.528-20.056c-5.87-5.113-12.683-9.03-20.056-11.528c-6.443-1.763-12.246-5.336-16.72-10.296
		c-2.001-6.257-2.193-12.951-0.552-19.312c1.52-7.726,1.52-15.674,0-23.4c-2.487-7.231-6.365-13.906-11.416-19.648
		c-4.79-4.84-8.07-10.969-9.44-17.64c1.371-6.675,4.653-12.806,9.448-17.648c5.049-5.74,8.927-12.412,11.416-19.64
		c1.52-7.729,1.52-15.679,0-23.408c-1.638-6.358-1.447-13.05,0.552-19.304c4.471-4.954,10.268-8.524,16.704-10.288
		c7.373-2.498,14.186-6.415,20.056-11.528c5.113-5.87,9.03-12.683,11.528-20.056c1.763-6.443,5.336-12.246,10.296-16.72
		c6.257-1.997,12.951-2.188,19.312-0.552c7.725,1.532,15.675,1.532,23.4,0c7.231-2.487,13.906-6.365,19.648-11.416
		c4.84-4.79,10.969-8.07,17.64-9.44c6.675,1.371,12.806,4.653,17.648,9.448c5.74,5.049,12.412,8.927,19.64,11.416
		c7.727,1.532,15.681,1.532,23.408,0c6.359-1.633,13.049-1.442,19.304,0.552c4.954,4.471,8.524,10.268,10.288,16.704
		c2.498,7.373,6.415,14.186,11.528,20.056c5.87,5.113,12.683,9.03,20.056,11.528c6.443,1.763,12.246,5.336,16.72,10.296
		c2.001,6.257,2.193,12.951,0.552,19.312c-1.52,7.726-1.52,15.674,0,23.4c2.487,7.231,6.365,13.906,11.416,19.648
		c4.79,4.84,8.07,10.969,9.44,17.64C400.181,182.675,396.899,188.806,392.104,193.648L392.104,193.648z"/>
	<path style="fill:#f4f8fb;" d="M241.552,48c-70.692,0-128,57.308-128,128s57.308,128,128,128s128-57.308,128-128
		C369.468,105.342,312.21,48.084,241.552,48z M283.048,280c-57.454,22.918-122.608-5.079-145.525-62.533
		s5.079-122.608,62.533-145.525s122.608,5.079,145.525,62.533c5.269,13.21,7.974,27.303,7.971,41.525
		C353.469,221.804,325.566,262.964,283.048,280z"/>
	<path style="fill:#f4f8fb;" d="M273.552,400h16v16h-16V400z"/>
</g>
<g>
</g>
<g>
</g>
<g>
</g>
<g>
</g>
<g>
</g>
<g>
</g>
<g>
</g>
<g>
</g>
<g>
</g>
<g>
</g>
<g>
</g>
<g>
</g>
<g>
</g>
<g>
</g>
<g>
</g>
</svg>
