<?xml version="1.0" encoding="iso-8859-1"?>
<!-- Generator: Adobe Illustrator 19.0.0, SVG Export Plug-In . SVG Version: 6.00 Build 0)  -->
<svg version="1.1" id="Capa_1" xmlns="http://www.w3.org/2000/svg" xmlns:xlink="http://www.w3.org/1999/xlink" x="0px" y="0px"
	 viewBox="0 0 480.063 480.063" style="enable-background:new 0 0 480.063 480.063;" xml:space="preserve">
<g>
	<path style="fill:#cde8fe;" d="M224.014,248.063h16h16v-24h-32V248.063z"/>
	<path style="fill:#cde8fe;" d="M240.014,96.063c-30.928-0.027-56.022,25.024-56.048,55.952
		c-0.021,24.802,16.274,46.663,40.048,53.728v18.32h32v-18.32c29.647-8.81,46.538-39.985,37.728-69.632
		C286.677,112.337,264.816,96.042,240.014,96.063z"/>
</g>
<g>
	<path style="fill:#f4f8fb;" d="M396.814,99.839c-15.52-68.918-83.97-112.206-152.888-96.687
		c-34.873,7.853-64.869,29.94-82.72,60.911h-1.192c-50.189,0.119-93.16,36.004-102.224,85.368
		c-37.49,13.882-61.015,51.179-57.392,90.992c2.657,27.768,18.546,52.549,42.672,66.552l8.2-13.736
		c-19.719-11.407-32.727-31.623-34.936-54.296c-3.131-34.129,18.109-65.775,50.88-75.808c3.003-0.915,5.193-3.503,5.6-6.616
		c5.844-43.713,43.098-76.377,87.2-76.456c1.248,0,2.48,0.088,3.712,0.168l1.6,0.104c3.133,0.182,6.084-1.486,7.544-4.264
		c28.672-54.759,96.307-75.907,151.066-47.235c30.526,15.984,51.988,45.138,58.182,79.035c0.575,3.189,3.017,5.716,6.184,6.4
		c47.596,10.354,79.934,54.657,75.288,103.144c-2.497,25.946-15.715,49.671-36.464,65.448l9.808,12.632
		c24.25-18.472,39.686-46.23,42.584-76.576C484.736,164.353,449.767,114.003,396.814,99.839L396.814,99.839z"/>
	<path style="fill:#f4f8fb;" d="M248.014,368.063h-16c-30.913,0.035-55.965,25.087-56,56v56h128v-56
		C303.978,393.15,278.927,368.098,248.014,368.063z M288.014,464.063h-96v-40c0.026-22.08,17.92-39.974,40-40h16
		c22.08,0.026,39.974,17.92,40,40V464.063z"/>
	<path style="fill:#f4f8fb;" d="M280.014,320.063c0-22.091-17.909-40-40-40s-40,17.909-40,40s17.909,40,40,40
		C262.094,360.037,279.987,342.144,280.014,320.063z M216.014,320.063c0-13.255,10.745-24,24-24c13.255,0,24,10.745,24,24
		s-10.745,24-24,24C226.759,344.063,216.014,333.318,216.014,320.063z"/>
	<path style="fill:#f4f8fb;" d="M104.014,368.063h-16c-30.913,0.035-55.965,25.087-56,56v56h128v-56
		C159.978,393.15,134.927,368.098,104.014,368.063z M144.014,464.063h-96v-40c0.026-22.08,17.92-39.974,40-40h16
		c22.08,0.026,39.974,17.92,40,40V464.063z"/>
	<path style="fill:#f4f8fb;" d="M136.014,320.063c0-22.091-17.909-40-40-40s-40,17.909-40,40s17.909,40,40,40
		C118.094,360.037,135.987,342.144,136.014,320.063z M72.014,320.063c0-13.255,10.745-24,24-24s24,10.745,24,24s-10.745,24-24,24
		S72.014,333.318,72.014,320.063z"/>
	<path style="fill:#f4f8fb;" d="M392.014,368.063h-16c-30.913,0.035-55.965,25.087-56,56v56h128v-56
		C447.978,393.15,422.927,368.098,392.014,368.063z M432.014,464.063h-96v-40c0.026-22.08,17.92-39.974,40-40h16
		c22.08,0.026,39.974,17.92,40,40V464.063z"/>
	<path style="fill:#f4f8fb;" d="M424.014,320.063c0-22.091-17.909-40-40-40s-40,17.909-40,40s17.909,40,40,40
		C406.094,360.037,423.987,342.144,424.014,320.063z M360.014,320.063c0-13.255,10.745-24,24-24s24,10.745,24,24s-10.745,24-24,24
		S360.014,333.318,360.014,320.063z"/>
	<path style="fill:#f4f8fb;" d="M240.014,88.063c-35.346-0.031-64.025,28.598-64.055,63.944
		c-0.023,26.121,15.831,49.635,40.055,59.408v4.648h-16v16h16v16c0,4.418,3.582,8,8,8h8v8h16v-8h8c4.418,0,8-3.582,8-8v-16h16v-16
		h-16v-4.648c32.779-13.224,48.632-50.517,35.408-83.296C289.648,103.894,266.135,88.04,240.014,88.063z M248.014,240.063h-16v-8h16
		V240.063z M253.734,198.071c-3.395,1.009-5.722,4.13-5.72,7.672v10.32h-16v-10.32c0.002-3.542-2.325-6.663-5.72-7.672
		c-25.404-7.577-39.855-34.314-32.277-59.717s34.314-39.855,59.717-32.277c25.404,7.577,39.855,34.314,32.277,59.717
		C281.384,181.308,269.247,193.444,253.734,198.071z"/>
	<path style="fill:#f4f8fb;" d="M200.014,152.063h16c0-13.255,10.745-24,24-24v-16C217.933,112.09,200.04,129.983,200.014,152.063z"
		/>
	<path style="fill:#f4f8fb;" d="M232.014,64.063h16v16h-16V64.063z"/>
	<path style="fill:#f4f8fb;" d="M285.266,95.494L296.58,84.18l11.314,11.314l-11.314,11.314L285.266,95.494z"/>
	<path style="fill:#f4f8fb;" d="M312.014,144.063h16v16h-16V144.063z"/>
	<path style="fill:#f4f8fb;" d="M172.132,95.491l11.316-11.312l11.312,11.316l-11.316,11.312L172.132,95.491z"/>
	<path style="fill:#f4f8fb;" d="M152.014,144.063h16v16h-16V144.063z"/>
</g>
<g>
</g>
<g>
</g>
<g>
</g>
<g>
</g>
<g>
</g>
<g>
</g>
<g>
</g>
<g>
</g>
<g>
</g>
<g>
</g>
<g>
</g>
<g>
</g>
<g>
</g>
<g>
</g>
<g>
</g>
</svg>
