<?xml version="1.0" encoding="iso-8859-1"?>
<!-- Generator: Adobe Illustrator 19.0.0, SVG Export Plug-In . SVG Version: 6.00 Build 0)  -->
<svg version="1.1" id="Capa_1" xmlns="http://www.w3.org/2000/svg" xmlns:xlink="http://www.w3.org/1999/xlink" x="0px" y="0px"
	 viewBox="0 0 480.075 480.075" style="enable-background:new 0 0 480.075 480.075;" xml:space="preserve">
<g>
	<path style="fill:#cde8fe;" d="M96.027,232.075h288v176h-288V232.075z"/>
	<path style="fill:#cde8fe;" d="M224.027,440.075h32v8h-32V440.075z"/>
</g>
<g>
	<path style="fill:#f4f8fb;" d="M396.827,99.859C381.323,30.942,312.886-12.358,243.969,3.147
		c-34.888,7.849-64.896,29.944-82.75,60.928h-1.192c-50.188,0.122-93.157,36.006-102.224,85.368
		c-37.491,13.877-61.016,51.172-57.392,90.984c2.659,27.767,18.544,52.549,42.664,66.56l8.216-13.736
		c-19.724-11.403-32.736-31.62-34.944-54.296c-3.133-34.128,18.108-65.773,50.88-75.8c3.006-0.917,5.196-3.508,5.6-6.624
		c5.844-43.713,43.099-76.377,87.2-76.456c1.216,0,2.4,0.088,3.6,0.168l1.712,0.104c3.122,0.149,6.051-1.51,7.528-4.264
		c28.672-54.759,96.307-75.907,151.066-47.235c30.526,15.984,51.988,45.138,58.182,79.035c0.575,3.189,3.017,5.716,6.184,6.4
		c47.596,10.354,79.934,54.657,75.288,103.144c-2.497,25.946-15.715,49.671-36.464,65.448l9.808,12.64
		c24.25-18.475,39.686-46.236,42.584-76.584C484.738,164.37,449.775,114.023,396.827,99.859L396.827,99.859z"/>
	<path style="fill:#f4f8fb;" d="M424.027,192.075h-368v240h-32v48h432v-48h-32V192.075z M72.027,208.075h336v224h-336V208.075z
		 M440.027,448.075v16h-400v-16h176v8h48v-8H440.027z"/>
	<path style="fill:#f4f8fb;" d="M392.027,224.075h-304v192h304V224.075z M376.027,400.075h-272v-160h272V400.075z"/>
	<path style="fill:#f4f8fb;" d="M136.871,332.496l31.999-63.998l14.311,7.155l-31.999,63.998L136.871,332.496z"/>
	<path style="fill:#f4f8fb;" d="M168.87,332.522l31.999-63.998l14.311,7.155l-31.999,63.998L168.87,332.522z"/>
</g>
<g>
</g>
<g>
</g>
<g>
</g>
<g>
</g>
<g>
</g>
<g>
</g>
<g>
</g>
<g>
</g>
<g>
</g>
<g>
</g>
<g>
</g>
<g>
</g>
<g>
</g>
<g>
</g>
<g>
</g>
</svg>
