<?xml version="1.0" encoding="iso-8859-1"?>
<!-- Generator: Adobe Illustrator 19.0.0, SVG Export Plug-In . SVG Version: 6.00 Build 0)  -->
<svg version="1.1" id="Layer_1" xmlns="http://www.w3.org/2000/svg" xmlns:xlink="http://www.w3.org/1999/xlink" x="0px" y="0px"
	 viewBox="0 0 501.551 501.551" style="enable-background:new 0 0 501.551 501.551;" xml:space="preserve">
<g>
	<path style="fill:#FFD15C;" d="M253.91,10.449v52.245c-1.045,0-2.09,0-3.135,0s-2.09,0-3.135,0V10.449H253.91z"/>
	<path style="fill:#FFD15C;" d="M253.91,389.747v52.245h-5.224v-52.245c1.045,0,2.09,0,3.135,0
		C251.82,389.747,252.865,389.747,253.91,389.747z"/>
	<path style="fill:#FFD15C;" d="M183.902,57.469l7.314,17.763c-1.045,0-2.09,1.045-2.09,1.045c-1.045,0-2.09,1.045-2.09,1.045
		l-7.314-17.763L183.902,57.469z"/>
	<path style="fill:#FFD15C;" d="M315.559,376.163l7.314,17.763l-5.225,2.09l-7.314-17.763c1.045,0,2.09-1.045,2.09-1.045
		C314.514,377.208,314.514,376.163,315.559,376.163z"/>
	<path style="fill:#FFD15C;" d="M83.592,154.645l17.763,7.314c0,1.045-1.045,2.09-1.045,2.09c0,1.045-1.045,2.09-1.045,2.09
		l-17.763-7.314L83.592,154.645z"/>
	<path style="fill:#FFD15C;" d="M402.286,286.302l17.763,7.314l-2.09,5.224l-17.763-7.314c0-1.045,1.045-2.09,1.045-2.09
		C402.286,288.392,402.286,287.347,402.286,286.302z"/>
	<path style="fill:#FFD15C;" d="M81.502,293.616l17.763-7.314c0,1.045,1.045,2.09,1.045,2.09c0,1.045,1.045,2.09,1.045,2.09
		l-17.763,7.314L81.502,293.616z"/>
	<path style="fill:#FFD15C;" d="M400.196,161.959l17.763-7.314l2.09,5.224l-17.763,6.269c0-1.045-1.045-2.09-1.045-2.09
		C401.241,163.004,401.241,161.959,400.196,161.959z"/>
	<path style="fill:#FFD15C;" d="M317.649,57.469l-7.314,17.763c1.045,0,2.09,1.045,2.09,1.045c1.045,0,2.09,1.045,2.09,1.045
		l7.314-17.763L317.649,57.469z"/>
	<path style="fill:#FFD15C;" d="M185.992,376.163l-7.314,17.763l5.224,2.09l7.314-17.763c-1.045,0-2.09-1.045-2.09-1.045
		C187.037,377.208,187.037,376.163,185.992,376.163z"/>
	<path style="fill:#FFD15C;" d="M417.959,154.645l-17.763,7.314c0,1.045,1.045,2.09,1.045,2.09c0,1.045,1.045,2.09,1.045,2.09
		l17.763-7.314L417.959,154.645z"/>
	<path style="fill:#FFD15C;" d="M99.265,286.302l-17.763,7.314l2.09,5.224l17.763-7.314c0-1.045-1.045-2.09-1.045-2.09
		C99.265,288.392,99.265,287.347,99.265,286.302z"/>
	<path style="fill:#FFD15C;" d="M420.049,293.616l-17.763-7.314c0,1.045-1.045,2.09-1.045,2.09c0,1.045-1.045,2.09-1.045,2.09
		l17.763,7.314L420.049,293.616z"/>
	<path style="fill:#FFD15C;" d="M101.355,161.959l-17.763-7.314l-2.09,5.224l17.763,7.314c0-1.045,1.045-2.09,1.045-2.09
		C100.31,163.004,100.31,161.959,101.355,161.959z"/>
	<path style="fill:#FFD15C;" d="M405.42,76.278l-37.616,37.616c-1.045-1.045-1.045-1.045-2.09-2.09
		c-1.045-1.045-1.045-1.045-2.09-2.09l37.616-37.616L405.42,76.278z"/>
	<path style="fill:#FFD15C;" d="M137.927,343.771l-37.616,37.616l-4.18-4.18l37.616-37.616c1.045,1.045,1.045,1.045,2.09,2.09
		C135.837,342.727,136.882,342.727,137.927,343.771z"/>
	<path style="fill:#FFD15C;" d="M466.024,228.833H413.78c0-1.045,0-2.09,0-3.135c0-1.045,0-2.09,0-3.135h52.245V228.833z"/>
	<path style="fill:#FFD15C;" d="M87.771,228.833H35.527v-5.225h52.245c0,1.045,0,2.09,0,3.135
		C87.771,227.788,87.771,228.833,87.771,228.833z"/>
	<path style="fill:#FFD15C;" d="M401.241,380.343l-37.616-37.616c1.045-1.045,1.045-1.045,2.09-2.09
		c1.045-1.045,1.045-1.045,2.09-2.09l37.616,37.616L401.241,380.343z"/>
	<path style="fill:#FFD15C;" d="M133.747,112.849L96.131,76.278l4.18-4.18l37.616,37.616c-1.045,1.045-1.045,1.045-2.09,2.09
		C134.792,111.804,133.747,112.849,133.747,112.849z"/>
</g>
<path style="fill:#CDD6E0;" d="M339.592,441.992c0-8.359-6.269-14.629-14.629-14.629H176.588c-8.359,0-14.629,6.269-14.629,14.629
	c0,6.269,4.18,12.539,10.449,13.584v1.045c0,8.359,6.269,14.629,14.629,14.629h128.522c8.359,0,14.629-6.269,14.629-14.629v-1.045
	C335.412,453.486,339.592,448.261,339.592,441.992z"/>
<path style="fill:#334A5E;" d="M201.665,471.249L201.665,471.249c0,16.718,13.584,30.302,29.257,30.302h39.706
	c16.718,0,29.257-13.584,29.257-29.257v-1.045L201.665,471.249L201.665,471.249z"/>
<path style="fill:#F2F2F2;" d="M406.465,229.878c0-87.771-73.143-158.824-163.004-154.645
	c-79.412,3.135-144.196,68.963-148.376,147.331c-2.09,48.065,17.763,91.951,50.155,121.208
	c19.853,18.808,31.347,45.976,31.347,73.143v9.404h148.376v-10.449c0-28.212,12.539-54.335,33.437-74.188
	C387.657,314.514,406.465,273.763,406.465,229.878z"/>
<path style="fill:#F8B64C;" d="M311.38,60.604c0,19.853-9.404,36.571-24.033,48.065c-4.18,3.135-8.359,5.224-12.539,7.314
	c-16.718-4.18-34.482-4.18-50.155,0c-4.18-2.09-8.359-4.18-12.539-7.314c-14.629-11.494-24.033-28.212-24.033-48.065
	C188.082,27.167,215.249,0,248.686,0C284.212,0,311.38,27.167,311.38,60.604z"/>
<circle style="fill:#FFD15C;" cx="250.776" cy="60.604" r="48.065"/>
<path style="fill:#F8B64C;" d="M254.955,54.335c-7.314-3.135-8.359-4.18-8.359-6.269s2.09-4.18,5.224-4.18
	c4.18,0,7.314,2.09,9.404,2.09l3.135,2.09l4.18-12.539l-2.09-1.045c-3.135-2.09-6.269-3.135-9.404-3.135v-8.359h-11.494v9.404
	c-7.314,2.09-12.539,8.359-12.539,16.718c0,10.449,8.359,14.629,15.673,17.763C256,68.963,256,71.053,256,73.143
	c0,3.135-3.135,5.224-6.269,5.224c-3.135,0-7.314-1.045-10.449-3.135l-4.18-3.135l-4.18,12.539l2.09,1.045
	c3.135,2.09,7.314,3.135,11.494,4.18v9.404h12.539v-9.404c8.359-2.09,13.584-9.404,13.584-16.718
	C270.629,61.649,262.269,56.424,254.955,54.335z"/>
<path style="fill:#ACB3BA;" d="M335.412,145.241c-1.045,1.045-2.09,1.045-4.18,1.045c-2.09,0-3.135,0-4.18-1.045
	c-14.629-14.629-32.392-24.033-52.245-29.257c-16.718-4.18-34.482-4.18-50.155,0c-18.808,4.18-36.571,14.629-52.245,29.257
	c-2.09,2.09-5.224,2.09-7.314,0c-2.09-2.09-2.09-5.224,0-7.314c13.584-13.584,30.302-22.988,47.02-29.257
	c5.224-2.09,11.494-3.135,17.763-4.18c13.584-2.09,27.167-2.09,40.751,0c6.269,1.045,11.494,2.09,17.763,4.18
	c17.763,5.224,33.437,15.673,47.02,29.257C337.502,140.016,337.502,143.151,335.412,145.241z"/>
<g>
	<polygon style="fill:#FFD15C;" points="307.2,194.351 250.776,250.776 277.943,277.943 	"/>
	<polygon style="fill:#FFD15C;" points="194.351,306.155 250.776,250.776 223.608,222.563 	"/>
</g>
<g>
</g>
<g>
</g>
<g>
</g>
<g>
</g>
<g>
</g>
<g>
</g>
<g>
</g>
<g>
</g>
<g>
</g>
<g>
</g>
<g>
</g>
<g>
</g>
<g>
</g>
<g>
</g>
<g>
</g>
</svg>
