<?xml version="1.0" encoding="iso-8859-1"?>
<!-- Generator: Adobe Illustrator 19.0.0, SVG Export Plug-In . SVG Version: 6.00 Build 0)  -->
<svg version="1.1" id="Layer_1" xmlns="http://www.w3.org/2000/svg" xmlns:xlink="http://www.w3.org/1999/xlink" x="0px" y="0px"
	 viewBox="0 0 289.789 289.789" style="enable-background:new 0 0 289.789 289.789;" xml:space="preserve">
<g>
	<path style="fill:#349886;" d="M13.424,13.689c-0.692,2.431-1.165,5.053-1.165,8.048v246.356c0,2.95,0.473,5.544,1.138,7.948
		l138.267-130.993C151.664,145.047,13.424,13.689,13.424,13.689z"/>
	<path style="fill:#3DB39E;" d="M205.621,93.921L44.185,4.121C37.749,0.207,31.413-0.785,26.06,0.58l138.85,131.931
		C164.91,132.511,205.621,93.921,205.621,93.921z"/>
	<path style="fill:#F4B459;" d="M265.142,127.031l-43.088-23.97l-44.135,41.804l44.954,42.733l41.923-23.023
		C285.261,152.913,277.796,134.141,265.142,127.031z"/>
	<path style="fill:#E2574C;" d="M25.65,289.095c5.435,1.52,11.926,0.61,18.526-3.405l161.928-88.907L164.655,157.4
		C164.655,157.401,25.65,289.095,25.65,289.095z"/>
</g>
<g>
</g>
<g>
</g>
<g>
</g>
<g>
</g>
<g>
</g>
<g>
</g>
<g>
</g>
<g>
</g>
<g>
</g>
<g>
</g>
<g>
</g>
<g>
</g>
<g>
</g>
<g>
</g>
<g>
</g>
</svg>
