<?xml version="1.0" encoding="iso-8859-1"?>
<!-- Generator: Adobe Illustrator 19.0.0, SVG Export Plug-In . SVG Version: 6.00 Build 0)  -->
<svg version="1.1" id="Layer_1" xmlns="http://www.w3.org/2000/svg" xmlns:xlink="http://www.w3.org/1999/xlink" x="0px" y="0px"
	 viewBox="0 0 501.33 501.33" style="enable-background:new 0 0 501.33 501.33;" xml:space="preserve">
<path style="fill:#FF7058;" d="M219.318,367.171c-12.539,30.302-6.269,66.873,18.808,90.906l13.584,12.539l13.584-12.539
	c25.078-25.078,31.347-60.604,18.808-90.906H219.318z"/>
<path style="fill:#F1543F;" d="M228.722,367.171c0,4.18-1.045,7.314-1.045,11.494c0,21.943,8.359,41.796,22.988,58.514
	c17.763-19.853,25.078-44.931,21.943-70.008L228.722,367.171L228.722,367.171z"/>
<path style="fill:#54C0EB;" d="M383.367,266.861c0,29.257-10.449,57.469-26.122,79.412c-8.359-6.269-18.808-10.449-30.302-12.539
	c-3.135,0-6.269-1.045-9.404-1.045c-18.808,0-35.527,7.314-47.02,18.808h-39.706c-12.539-11.494-28.212-18.808-47.02-18.808
	c-3.135,0-6.269,0-9.404,1.045c-11.494,2.09-21.943,6.269-30.302,12.539c-16.718-21.943-26.122-49.11-26.122-79.412
	c0-32.392,11.494-62.694,31.347-85.682c24.033-28.212,60.604-47.02,101.355-47.02s77.322,17.763,101.355,45.976
	C371.873,204.167,383.367,234.469,383.367,266.861z"/>
<path style="fill:#F2F2F2;" d="M290.371,367.171c74.188-113.894,60.604-266.449-39.706-366.759l0,0
	c-100.31,99.265-113.894,252.865-39.706,366.759H290.371z"/>
<path style="fill:#54C0EB;" d="M298.73,63.106c-12.539-22.988-29.257-43.886-48.065-62.694l0,0
	C230.812,19.22,215.138,41.163,202.6,63.106H298.73z"/>
<ellipse style="fill:#84DBFF;" cx="250.665" cy="146.698" rx="50.155" ry="50.155"/>
<ellipse style="fill:#FFFFFF;" cx="250.665" cy="146.698" rx="37.616" ry="37.616"/>
<path style="fill:#F2F2F2;" d="M253.8,177c-18.808,0-34.482-15.673-34.482-34.482s14.629-33.437,32.392-34.482
	c-1.045,0-1.045,0-2.09,0c-20.898,0-37.616,16.718-37.616,37.616s16.718,37.616,37.616,37.616s37.616-16.718,37.616-37.616
	c0-1.045,0-1.045,0-2.09C287.236,162.371,272.608,177,253.8,177z"/>
<rect x="210.959" y="367.171" style="fill:#CDD6E0;" width="79.412" height="12.539"/>
<g>
	<path style="fill:#FFD15C;" d="M441.881,353.587c17.763-17.763,18.808-29.257,18.808-29.257
		c-1.045-17.763-15.673-3.135-15.673-3.135c-21.943,22.988-65.829,31.347-65.829,31.347c-70.008,13.584-57.469,77.322-57.469,77.322
		c1.045,10.449,1.045,19.853,1.045,26.122l55.38,44.931c4.18-59.559,29.257-73.143,29.257-73.143
		c47.02-17.763,63.739-44.931,63.739-44.931c47.02-68.963,25.078-147.331,25.078-147.331
		c-15.673-19.853-19.853,17.763-19.853,17.763c-15.673-26.122-21.943,25.078-21.943,25.078
		c-13.584-22.988-24.033,41.796-24.033,41.796c25.078-24.033,34.482-13.584,34.482-13.584c19.853,16.718-8.359,48.065-8.359,48.065
		c-28.212,35.527-54.335,33.437-54.335,33.437c-10.449,0,0-7.314,9.404-12.539C423.073,369.261,433.522,362.991,441.881,353.587z"/>
	<path style="fill:#FFD15C;" d="M59.449,353.587C41.685,335.824,40.64,324.33,40.64,324.33c1.045-17.763,15.673-3.135,15.673-3.135
		c21.943,22.988,65.829,31.347,65.829,31.347c70.008,13.584,57.469,77.322,57.469,77.322c-1.045,10.449-1.045,19.853-1.045,26.122
		l-55.38,44.931c-4.18-59.559-29.257-73.143-29.257-73.143c-47.02-17.763-63.739-44.931-63.739-44.931
		c-47.02-68.963-25.078-147.331-25.078-147.331c15.673-19.853,19.853,17.763,19.853,17.763C40.64,228.2,46.91,278.355,46.91,278.355
		c13.584-22.988,24.033,41.796,24.033,41.796c-25.078-24.033-34.482-13.584-34.482-13.584c-19.853,16.718,8.359,48.065,8.359,48.065
		c28.212,35.527,54.335,33.437,54.335,33.437c10.449,0,0-7.314-9.404-12.539C78.257,369.261,67.808,362.991,59.449,353.587z"/>
</g>
<g>
</g>
<g>
</g>
<g>
</g>
<g>
</g>
<g>
</g>
<g>
</g>
<g>
</g>
<g>
</g>
<g>
</g>
<g>
</g>
<g>
</g>
<g>
</g>
<g>
</g>
<g>
</g>
<g>
</g>
</svg>
