<?xml version="1.0" encoding="iso-8859-1"?>
<!-- Generator: Adobe Illustrator 19.0.0, SVG Export Plug-In . SVG Version: 6.00 Build 0)  -->
<svg version="1.1" id="Layer_1" xmlns="http://www.w3.org/2000/svg" xmlns:xlink="http://www.w3.org/1999/xlink" x="0px" y="0px"
	 viewBox="0 0 502.596 502.596" style="enable-background:new 0 0 502.596 502.596;" xml:space="preserve">
<path style="fill:#F2F2F2;" d="M484.833,349.518H16.718C7.314,349.518,0,356.833,0,366.237v1.045C0,376.686,7.314,384,16.718,384
	h469.159c9.404,0,16.718-7.314,16.718-16.718v-1.045C501.551,356.833,494.237,349.518,484.833,349.518z"/>
<path style="fill:#CDD6E0;" d="M460.8,382.955l-21.943,15.673l-14.629,10.449c-4.18,2.09-8.359,4.18-12.539,4.18H89.861
	c-4.18,0-9.404-1.045-12.539-4.18l-14.629-10.449l-21.943-15.673H460.8z"/>
<polygon style="fill:#B8CAD8;" points="460.8,382.955 438.857,399.673 62.694,399.673 40.751,382.955 "/>
<path style="fill:#40596B;" d="M458.71,41.273H42.841c-11.494,0-20.898,9.404-20.898,20.898v287.347h458.71V62.171
	C479.608,50.678,470.204,41.273,458.71,41.273z"/>
<rect x="48.577" y="67.908" style="fill:#84DBFF;" width="404.375" height="254.955"/>
<path style="fill:#B8CAD8;" d="M266.449,362.057h-31.347c-3.135,0-5.224,2.09-5.224,5.224c0,3.135,2.09,5.224,5.224,5.224h31.347
	c3.135,0,5.224-2.09,5.224-5.224C270.629,364.147,268.539,362.057,266.449,362.057z"/>
<path style="fill:#334A5E;" d="M480.653,139.494H310.335c-11.494,0-20.898,9.404-20.898,20.898v280.033
	c0,11.494,9.404,20.898,20.898,20.898h170.318c11.494,0,20.898-9.404,20.898-20.898V160.392
	C501.551,148.898,492.147,139.494,480.653,139.494z"/>
<rect x="306.364" y="178.27" style="fill:#F2F2F2;" width="178.678" height="234.057"/>
<g>
	<path style="fill:#4CDBC4;" d="M409.6,428.931h-32.392c-4.18,0-7.314,3.135-7.314,7.314c0,4.18,3.135,7.314,7.314,7.314H409.6
		c4.18,0,7.314-3.135,7.314-7.314C417.959,432.065,413.78,428.931,409.6,428.931z"/>
	<path style="fill:#4CDBC4;" d="M422.139,156.212h-53.29c-2.09,0-3.135,1.045-3.135,3.135c0,2.09,1.045,3.135,3.135,3.135h53.29
		c2.09,0,3.135-1.045,3.135-3.135C425.273,157.257,424.229,156.212,422.139,156.212z"/>
</g>
<polygon style="fill:#FF7058;" points="317.649,187.559 262.269,187.559 262.269,168.751 216.294,207.412 262.269,247.118 
	262.269,228.31 317.649,228.31 "/>
<polygon style="fill:#FFD15C;" points="277.943,281.6 334.367,281.6 334.367,300.408 380.343,261.747 334.367,222.041 
	334.367,240.849 277.943,240.849 "/>
<g>
</g>
<g>
</g>
<g>
</g>
<g>
</g>
<g>
</g>
<g>
</g>
<g>
</g>
<g>
</g>
<g>
</g>
<g>
</g>
<g>
</g>
<g>
</g>
<g>
</g>
<g>
</g>
<g>
</g>
</svg>
