<?xml version="1.0" encoding="iso-8859-1"?>
<!-- Generator: Adobe Illustrator 19.0.0, SVG Export Plug-In . SVG Version: 6.00 Build 0)  -->
<svg version="1.1" id="Layer_1" xmlns="http://www.w3.org/2000/svg" xmlns:xlink="http://www.w3.org/1999/xlink" x="0px" y="0px"
	 viewBox="0 0 491.5 491.5" style="enable-background:new 0 0 491.5 491.5;" xml:space="preserve">
<g>
	<g>
		<path style="fill:#2C2F33;" d="M65,387.897h33.3v87.8c0,4,2.4,7.5,6,9.1c1.3,0.5,2.6,0.8,3.9,0.8c2.5,0,5-1,6.9-2.8l99.1-94.9H400
			c26.4,0,50.7-16.6,60.5-41.3c2-5.1-0.5-10.8-5.6-12.8s-10.8,0.5-12.8,5.6c-6.8,17.2-23.7,28.7-42.1,28.7H210.2c-2.6,0-5,1-6.8,2.8
			l-85.2,81.6v-74.4c0-5.5-4.4-9.9-9.9-9.9H65c-24.9,0-45.2-20.3-45.2-45.2v-204.5c0-24.9,20.3-45.2,45.2-45.2h205.4
			c5.5,0,9.9-4.4,9.9-9.9s-4.4-9.9-9.9-9.9H65c-35.9,0-65,29.2-65,65v204.4C0,358.797,29.1,387.897,65,387.897z"/>
		<path style="fill:#3C92CA;" d="M255.8,129.197c-3.6-4.7-9.2-7.8-15.6-7.8H193c-10.8,0-19.5,8.8-19.5,19.5v144.1
			c0,10.8,8.8,19.5,19.5,19.5h47.2c5.1,0,9.7-2,13.2-5.2c8.3,8.2,19.7,13.4,32.3,13.4h133.8c30.8,0,50.4-16.2,53.9-44.3l18-114.3
			c0.1-0.5,0.1-1,0.1-1.5c0-25.2-20.5-45.7-45.7-45.7h-65.5v-46.7c0-21.3-6.3-36.7-18.7-45.8c-19.6-14.4-46.4-6.2-47.6-5.9
			c-4.1,1.3-6.9,5.1-6.9,9.4v54.7c0,41.5-48.5,55.7-50.5,56.3C256.2,128.997,256,129.097,255.8,129.197z M239.9,284.797h-46.7
			v-143.6h46.7V284.797z M259.7,148.297c0.7,0,1.4-0.1,2.1-0.3c2.7-0.7,65-18.8,65-75.4v-46.6c6.4-0.8,16-0.8,23,4.4
			s10.6,15.2,10.6,29.8v56.5c0,5.5,4.4,9.9,9.9,9.9h75.4c14.1,0,25.5,11.2,25.9,25.2l-17.9,113.7c0,0.1,0,0.2,0,0.3
			c-2.2,18-13.7,27.1-34.3,27.1H285.7c-14.3,0-25.9-11.6-25.9-25.9v-118.7L259.7,148.297L259.7,148.297z"/>
	</g>
</g>
<g>
</g>
<g>
</g>
<g>
</g>
<g>
</g>
<g>
</g>
<g>
</g>
<g>
</g>
<g>
</g>
<g>
</g>
<g>
</g>
<g>
</g>
<g>
</g>
<g>
</g>
<g>
</g>
<g>
</g>
</svg>
