<?xml version="1.0" encoding="iso-8859-1"?>
<!-- Generator: Adobe Illustrator 19.0.0, SVG Export Plug-In . SVG Version: 6.00 Build 0)  -->
<svg version="1.1" id="Layer_1" xmlns="http://www.w3.org/2000/svg" xmlns:xlink="http://www.w3.org/1999/xlink" x="0px" y="0px"
	 viewBox="0 0 492.4 492.4" style="enable-background:new 0 0 492.4 492.4;" xml:space="preserve">
<g>
	<g>
		<path style="fill:#2C2F33;" d="M0,206.043v198.4c0,14.6,11.9,26.5,26.5,26.5h61.1c8.5,0,16-4,20.8-10.2
			c11.1,13.3,27.9,21.8,46.5,21.8h121.3c5.5,0,9.9-4.4,9.9-9.9s-4.4-9.9-9.9-9.9H154.9c-22.5,0-40.9-18.3-40.9-40.9v-169.9
			c23.3-8.4,95.1-39.8,95.1-105.7v-69.6c9.5-1.6,26.7-2.8,39.1,6.3c11.1,8.2,16.8,23.5,16.8,45.6v80.1c0,5.5,4.4,9.9,9.9,9.9h106.8
			c22.5,0,40.9,18.3,40.9,40.9v1.1l-1.5,9.2c-0.9,5.4,2.8,10.5,8.2,11.3c0.5,0.1,1.1,0.1,1.6,0.1c4.8,0,9-3.5,9.8-8.3l1.6-10
			c0.1-0.5,0.1-1,0.1-1.6v-1.9c0-33.5-27.2-60.7-60.7-60.7h-96.9v-70c0-28.8-8.4-49.5-24.9-61.6c-26.2-19.2-62.2-8.2-63.7-7.7
			c-4.1,1.3-6.9,5.1-6.9,9.4v77.5c0,50.2-57,77.3-79.2,85.9c-4.7-7.6-13-12.6-22.5-12.6H26.5C11.9,179.543,0,191.443,0,206.043z
			 M94.2,206.043v198.4c0,3.6-3.1,6.7-6.7,6.7h-61c-3.6,0-6.7-3.1-6.7-6.7v-198.4c0-3.6,3.1-6.7,6.7-6.7h61.1
			C91.1,199.343,94.2,202.443,94.2,206.043z"/>
		<path style="fill:#3C92CA;" d="M402.5,263.343c-33.4,0-60.5,27.2-60.5,60.5v29.8h-19.4c-5.5,0-9.9,4.4-9.9,9.9v103.2
			c0,5.5,4.4,9.9,9.9,9.9h159.9c5.5,0,9.9-4.4,9.9-9.9v-103.1c0-5.5-4.4-9.9-9.9-9.9h-19.4v-29.8
			C463.1,290.543,435.9,263.343,402.5,263.343z M361.8,323.943c0-22.5,18.3-40.7,40.7-40.7s40.7,18.3,40.7,40.7v29.8h-81.4
			L361.8,323.943L361.8,323.943z M472.6,373.543v83.4H332.5v-83.4H472.6z"/>
	</g>
</g>
<g>
</g>
<g>
</g>
<g>
</g>
<g>
</g>
<g>
</g>
<g>
</g>
<g>
</g>
<g>
</g>
<g>
</g>
<g>
</g>
<g>
</g>
<g>
</g>
<g>
</g>
<g>
</g>
<g>
</g>
</svg>
