<?xml version="1.0" encoding="iso-8859-1"?>
<!-- Generator: Adobe Illustrator 19.0.0, SVG Export Plug-In . SVG Version: 6.00 Build 0)  -->
<svg version="1.1" id="Layer_1" xmlns="http://www.w3.org/2000/svg" xmlns:xlink="http://www.w3.org/1999/xlink" x="0px" y="0px"
	 viewBox="0 0 490.1 490.1" style="enable-background:new 0 0 490.1 490.1;" xml:space="preserve">
<g>
	<g>
		<path style="fill:#2C2F33;" d="M356.319,424l2.5-2.2c0.4-0.3,0.7-0.6,1-1c1.3-1.5,30.5-35.2,41.6-61.1h5.3
			c15.1,0,27.4-12.3,27.4-27.4V289c0-15.1-12.3-27.4-27.4-27.4h-5.9c-9.1-23.7-24.6-45.1-45.2-62.5c-3-10.7-0.8-22.1,6.7-34
			c4.2-6.7,4.2-15.1-0.1-21.8c-4.3-6.7-11.8-10.3-19.7-9.3c-28.9,3.6-46.2,16.7-56.3,28.9c-9.5-2.6-19.3-4.6-29.2-5.7
			c-5.4-0.6-10.4,3.2-11,8.7c-0.6,5.4,3.2,10.4,8.7,11c11,1.3,21.9,3.7,32.3,7c4.2,1.3,8.7-0.3,11.2-3.9
			c6.8-10.1,20.5-22.9,46.7-26.2c0.2,0,0.4,0,0.6,0.3s0.1,0.5,0,0.6c-10.4,16.6-13.5,33.9-8.9,50.1c0.1,2.9,1.4,5.6,3.7,7.4
			c21.1,17,36.4,38.6,44.2,62.5c1.3,4.1,5.2,6.8,9.4,6.8l0,0h12.8c4.2,0,7.6,3.4,7.6,7.6v43.3c0,4.2-3.4,7.6-7.6,7.6h-12.1
			c-4.3,0-8.2,2.8-9.5,7c-5.6,18.3-30.2,49.3-39.8,60.4l-2.2,1.9c-20.6,18.6-22.7,40.6-22.8,47.2v13.9h-57.1V457
			c0-2.8-1.2-5.5-3.3-7.4c-2.1-1.9-4.9-2.8-7.7-2.5c-14.6,1.5-29.3,1.3-43.5-0.6c-2.8-0.4-5.7,0.5-7.8,2.4c-2.2,1.9-3.4,4.6-3.4,7.5
			v13.9h-57.1v-3.9c0-0.1,0-0.3,0-0.4c-0.5-10.5-3.8-37.1-24.6-58.5c-9.8-10.1-18.6-23.5-26.2-39.7c-0.1-0.1-0.1-0.2-0.2-0.4
			c-4.5-8.6-7.9-17.7-10.2-27.3l-0.1-0.4c0-0.1-0.1-0.2-0.1-0.3c-3.6-12-3.2-27.1-3.2-27.2s0-0.2,0-0.3c0-6.6,0.6-13.3,1.6-19.8
			c0.9-5.4-2.7-10.5-8.1-11.4s-10.5,2.7-11.4,8.1c-1.3,7.5-1.9,15.2-1.9,22.9c-0.1,2-0.3,18.8,4,33.3l0,0
			c2.6,10.7,6.6,21.2,11.7,31.2c8.4,18.2,18.5,33.3,29.8,45c15.9,16.4,18.6,37,19,45.4v4.1c0,0.4,0,0.7,0.1,1.3
			c0.7,10.1,9.2,18.1,19.3,18.1h57.9c10.7,0,19.4-8.7,19.4-19.4v-3.3c8.7,0.7,17.3,0.8,26.1,0.4v2.9c0,10.7,8.7,19.4,19.4,19.4h57.9
			c10.7,0,19.4-8.7,19.4-19.4v-14.1C340.219,453.5,341.319,437.5,356.319,424z"/>
		<path style="fill:#3C92CA;" d="M56.819,191.4c0,44.9,36.5,81.5,81.5,81.5c44.9,0,81.5-36.5,81.5-81.5c0-44.9-36.5-81.5-81.5-81.5
			C93.419,109.9,56.819,146.4,56.819,191.4z M200.019,191.4c0,34-27.7,61.7-61.7,61.7s-61.7-27.7-61.7-61.7s27.7-61.7,61.7-61.7
			S200.019,157.4,200.019,191.4z"/>
		<path style="fill:#3C92CA;" d="M288.219,56.8c0-31.3-25.5-56.8-56.8-56.8s-56.8,25.5-56.8,56.8s25.5,56.8,56.8,56.8
			S288.219,88.1,288.219,56.8z M194.319,56.8c0-20.4,16.6-37,37-37s37,16.6,37,37s-16.6,37-37,37S194.319,77.2,194.319,56.8z"/>
	</g>
</g>
<g>
</g>
<g>
</g>
<g>
</g>
<g>
</g>
<g>
</g>
<g>
</g>
<g>
</g>
<g>
</g>
<g>
</g>
<g>
</g>
<g>
</g>
<g>
</g>
<g>
</g>
<g>
</g>
<g>
</g>
</svg>
