<svg xmlns="http://www.w3.org/2000/svg" viewBox="0 0 239.11 133.96"><defs><style>.cls-1{fill:#27b6ce;}.cls-2{fill:#d1d3d4;}.cls-3{fill:#902aa2;}.cls-4{font-size:35.28px;fill:#285b6c;font-family:OpenSans-Bold, Open Sans;font-weight:700;}</style></defs><title>1</title><g id="Layer_2" data-name="Layer 2"><g id="Objects"><polygon class="cls-1" points="134.23 63.37 106.57 11.5 128.15 66.83 134.23 63.37"/><polygon class="cls-2" points="136.47 69.85 154.75 21.46 130.5 67.69 136.47 69.85"/><polygon class="cls-2" points="196.19 40.72 153.74 23.62 193.68 44.79 196.19 40.72"/><polygon class="cls-3" points="59.93 61.88 106.69 10.26 56.41 60.31 59.93 61.88"/><polygon class="cls-3" points="108.02 7.53 64.25 4.74 107.67 12.26 108.02 7.53"/><polygon class="cls-1" points="130.04 67.4 59.01 60.75 128.95 73.67 130.04 67.4"/><path class="cls-1" d="M120.41,71.41A11.69,11.69,0,1,1,133,82.13,11.7,11.7,0,0,1,120.41,71.41Z"/><path class="cls-3" d="M97.08,11.8a10,10,0,1,1,10.73,9.13A10,10,0,0,1,97.08,11.8Z"/><path class="cls-2" d="M149.62,23.41a4.74,4.74,0,1,1,5.1,4.35A4.74,4.74,0,0,1,149.62,23.41Z"/><path class="cls-3" d="M54.29,61.12a4.74,4.74,0,1,1,5.1,4.35A4.74,4.74,0,0,1,54.29,61.12Z"/><path class="cls-3" d="M59.6,3.79a4.74,4.74,0,1,1,3.69,5.59A4.74,4.74,0,0,1,59.6,3.79Z"/><path class="cls-2" d="M180.41,41.33a11,11,0,0,1,10-11.72,10.84,10.84,0,0,1,11.69,10,11,11,0,0,1-10.08,11.72A10.77,10.77,0,0,1,180.41,41.33Z"/><text class="cls-4" transform="translate(0 123.62)">HITECH LOGO</text></g></g></svg>