<svg xmlns="http://www.w3.org/2000/svg" viewBox="0 0 292.65 104.49"><defs><style>.cls-1,.cls-7{fill:#fff;}.cls-2{fill:#59bdeb;}.cls-3{font-size:38.62px;font-family:NexaBold, Nexa Bold;}.cls-4{letter-spacing:0.03em;}.cls-5{letter-spacing:0em;}.cls-6{fill:#d1d3d4;letter-spacing:0em;}.cls-7{font-size:10.74px;font-family:OpenSans, Open Sans;letter-spacing:0.4em;}</style></defs><title>2</title><g id="Layer_2" data-name="Layer 2"><g id="Objects"><polygon class="cls-1" points="66.81 66.16 79 56.66 79 25.22 39.59 0 12.29 15.76 12.38 15.81 12.38 34.82 0 44.32 0 79.27 39.59 104.49 66.81 88.78 66.81 66.16"/><path class="cls-2" d="M61.82,44.45A5.76,5.76,0,0,0,51.3,41.71L31.76,30.4c0-.05,0-.1,0-.15a2.7,2.7,0,0,0-.27-1l13.37-7.06a4.85,4.85,0,1,0-1.39-2.05L31.31,29a2.73,2.73,0,1,0-3.12,4.11L22.61,52.7a6.76,6.76,0,1,0,4.26,11.06l19.74,7.46a2.66,2.66,0,0,0,.25,2.57l-13.18,5.3a6.26,6.26,0,0,0-10.16,0,6.34,6.34,0,0,0,1.42,8.82,6.26,6.26,0,0,0,8.76-1.44,6.36,6.36,0,0,0,.82-5.77l12.55-6.65A2.73,2.73,0,1,0,50,69.67l5.84-19a5.72,5.72,0,0,0,6-6.22ZM28.4,33.13a2.64,2.64,0,0,0,2.65-.81l20,9.76a5.71,5.71,0,0,0-.73,3.3,5.79,5.79,0,0,0,.26,1.31L27.39,55.73a6.78,6.78,0,0,0-3.17-2.61ZM49.75,69.61a2.65,2.65,0,0,0-.84-.07,2.72,2.72,0,0,0-2.09,1.27L28.25,61.07a6.72,6.72,0,0,0,.21-1.84L50.85,47.3a5.76,5.76,0,0,0,3.36,3.06Z"/><text class="cls-3" transform="translate(94.56 64.83)">TE<tspan class="cls-4" x="47.85" y="0">C</tspan><tspan class="cls-5" x="74.54" y="0">H</tspan><tspan class="cls-6" x="102.81" y="0">Cube</tspan></text><text class="cls-7" transform="translate(102.35 81.2) scale(0.9 1)">Your Tagline Here</text></g></g></svg>