<svg xmlns="http://www.w3.org/2000/svg" viewBox="0 0 230.9 145.35"><defs><style>.cls-1{font-size:52.89px;font-family:BebasNeueBold, Bebas Neue;font-weight:700;letter-spacing:0.03em;}.cls-1,.cls-4{fill:#22bcb9;}.cls-2,.cls-3{fill:#fbb034;}.cls-2{letter-spacing:0.03em;}.cls-5{fill:#35bdb2;}.cls-6{font-size:12.3px;font-family:OpenSans, Open Sans;letter-spacing:0.2em;}.cls-6,.cls-7{fill:#939598;}</style></defs><title>3</title><g id="Layer_2" data-name="Layer 2"><g id="Objects"><text class="cls-1" transform="translate(0 137.31) scale(1 0.85)">Techno <tspan class="cls-2" x="144.12" y="0">Logo</tspan></text><circle class="cls-3" cx="74.23" cy="11.28" r="11.28" transform="translate(2.79 34.38) rotate(-26.56)"/><path class="cls-3" d="M108.66,62.11a8.06,8.06,0,1,1-10.81-3.6A8.06,8.06,0,0,1,108.66,62.11Z"/><rect class="cls-3" x="86.49" y="8.07" width="2.71" height="60.86" transform="translate(-7.94 43.35) rotate(-26.57)"/><circle class="cls-4" cx="154.01" cy="62.88" r="11.28" transform="translate(0.64 127.31) rotate(-45)"/><path class="cls-5" d="M105.27,45.69a8.06,8.06,0,1,1,11.4,0A8.06,8.06,0,0,1,105.27,45.69Z"/><rect class="cls-4" x="131.14" y="27.06" width="2.71" height="48.74" transform="translate(24.86 144.26) rotate(-61.99)"/><circle class="cls-4" cx="145.68" cy="13.18" r="9.69"/><circle class="cls-4" cx="133.03" cy="33.18" r="5.1" transform="translate(15.52 103.81) rotate(-45.02)"/><path class="cls-3" d="M81.92,56.73a5.21,5.21,0,1,1-7.38,0A5.21,5.21,0,0,1,81.92,56.73Z"/><path class="cls-3" d="M70.32,45.28a3.39,3.39,0,1,1-4.8,0A3.4,3.4,0,0,1,70.32,45.28Z"/><text class="cls-6" transform="translate(100 94.97) scale(0.9 1)">THE</text><rect class="cls-7" x="1.35" y="91.22" width="94.69" height="1.02"/><rect class="cls-7" x="132.3" y="91.22" width="94.69" height="1.02"/></g></g></svg>