<svg xmlns="http://www.w3.org/2000/svg" xmlns:xlink="http://www.w3.org/1999/xlink" viewBox="0 0 258.29 133.59"><defs><style>.cls-1{isolation:isolate;}.cls-2{font-size:39.64px;font-family:Exo2-Bold, Exo 2;font-weight:700;}.cls-11,.cls-2{fill:#d75ba1;}.cls-3{letter-spacing:0em;}.cls-4{letter-spacing:0em;}.cls-5,.cls-9{fill:#fff;}.cls-5{letter-spacing:-0.02em;}.cls-6,.cls-7{fill:#50c8e8;}.cls-7{letter-spacing:-0.01em;}.cls-8{mix-blend-mode:multiply;fill:url(#radial-gradient);}.cls-10{fill:#0096d6;}.cls-12{fill:#00d2c2;}</style><radialGradient id="radial-gradient" cx="97.35" cy="79.79" r="91.77" gradientTransform="translate(-6.35 68.7) scale(1.31 0.13)" gradientUnits="userSpaceOnUse"><stop offset="0" stop-color="#939598"/><stop offset="0.14" stop-color="#acadb0" stop-opacity="0.77"/><stop offset="0.33" stop-color="#c9cacc" stop-opacity="0.5"/><stop offset="0.51" stop-color="#e1e1e2" stop-opacity="0.28"/><stop offset="0.69" stop-color="#f1f2f2" stop-opacity="0.13"/><stop offset="0.86" stop-color="#fcfcfc" stop-opacity="0.03"/><stop offset="1" stop-color="#fff" stop-opacity="0"/></radialGradient></defs><title>4</title><g class="cls-1"><g id="Layer_2" data-name="Layer 2"><g id="Objects"><text class="cls-2" transform="translate(15.37 122.01)">P<tspan class="cls-3" x="24.34" y="0">O</tspan><tspan class="cls-4" x="51.38" y="0">WER</tspan><tspan class="cls-5" x="138.27" y="0"> </tspan><tspan class="cls-6" x="146" y="0">T</tspan><tspan class="cls-7" x="169.83" y="0">E</tspan><tspan class="cls-6" x="192.42" y="0">CH</tspan></text><ellipse class="cls-8" cx="121.05" cy="78.87" rx="121.05" ry="8.36"/><path class="cls-9" d="M189.08,28l-7.6,35L151.24,44.25l.45-.41-39.93-8.66L107.61,7.33l-1,.15-.53-.83L75.91,26,77,27.65,105.89,9.12,110,36.82h.06L118.7,72l1-.23.66.73,29.42-26.85,31.9,19.82.52-.84,1,.21,7.23-33.32,33.54,25.85,1.2-1.56ZM120.21,69.91l-8-32.61L147.55,45Z"/><circle class="cls-10" cx="107.01" cy="7.05" r="7.05" transform="translate(30.96 82.66) rotate(-48.6)"/><circle class="cls-11" cx="76.12" cy="28.04" r="7.05" transform="translate(4.74 66.59) rotate(-48.59)"/><circle class="cls-11" cx="223.19" cy="55.06" r="7.05" transform="translate(34.28 186.05) rotate(-48.6)"/><circle class="cls-11" cx="149.04" cy="44.64" r="7.05" transform="translate(16.97 126.88) rotate(-48.58)"/><circle class="cls-10" cx="189.71" cy="29.78" r="7.04" transform="translate(41.91 152.38) rotate(-48.59)"/><circle class="cls-12" cx="181.07" cy="63.28" r="7.05" transform="translate(13.84 157.22) rotate(-48.59)"/><circle class="cls-10" cx="119.65" cy="71.75" r="7.05" transform="matrix(0.66, -0.75, 0.75, 0.66, -13.3, 114.04)"/><circle class="cls-12" cx="110.89" cy="36" r="7.04" transform="translate(10.54 95.35) rotate(-48.59)"/></g></g></g></svg>