<svg xmlns="http://www.w3.org/2000/svg" xmlns:xlink="http://www.w3.org/1999/xlink" viewBox="0 0 500 500"><defs><style>.cls-1{fill:#5757a0;}.cls-2{opacity:0.7;fill:url(#radial-gradient);}.cls-18,.cls-3{fill:#78cbc4;}.cls-4,.cls-6{fill:#5a9792;}.cls-4{opacity:0.3;}.cls-5{fill:#f5debd;}.cls-10,.cls-7{fill:#fff;}.cls-7{stroke:#5a9792;stroke-linecap:square;stroke-width:5px;}.cls-20,.cls-21,.cls-22,.cls-7{stroke-miterlimit:10;}.cls-8{fill:#2f2f53;}.cls-9{fill:#dfcdad;}.cls-11{fill:#ecb6ba;}.cls-12{fill:#483d36;}.cls-13{fill:#5e4f44;}.cls-14,.cls-16,.cls-17,.cls-20,.cls-21,.cls-22{fill:none;}.cls-15{fill:#77c5ca;}.cls-16,.cls-17,.cls-20,.cls-21{stroke:#fff;}.cls-16,.cls-17{stroke-linecap:round;stroke-linejoin:round;}.cls-16{stroke-width:2.6px;}.cls-17{stroke-width:3.29px;}.cls-18{font-size:29px;font-family:Neris-Black, Neris Black;}.cls-19{font-size:13px;}.cls-20{stroke-width:2px;}.cls-21{stroke-width:1.94px;}.cls-22{stroke:#434379;stroke-dasharray:4 3;}.cls-23{fill:#434379;}</style><radialGradient id="radial-gradient" cx="250" cy="250" r="250" gradientUnits="userSpaceOnUse"><stop offset="0.11" stop-color="#5757c2" stop-opacity="0"/><stop offset="0.21" stop-color="#5151ac" stop-opacity="0.12"/><stop offset="0.41" stop-color="#474787" stop-opacity="0.32"/><stop offset="0.53" stop-color="#434379" stop-opacity="0.4"/><stop offset="1" stop-color="#34346e" stop-opacity="0.7"/></radialGradient></defs><title>Asset 1</title><g id="Layer_2" data-name="Layer 2"><g id="BACKGROUND_1" data-name="BACKGROUND 1"><rect class="cls-1" width="500" height="500"/><rect class="cls-2" width="500" height="500"/><path class="cls-3" d="M313.27,293,257,277.73c-1.54,1.86-4,11.88-7.31,11.88s-5.76-10-7.3-11.88L186.75,293c-29.17,0-29.37,24.75-29.37,47.18L155,367.67H345l-2.41-27.47C342.62,317.77,342.43,293,313.27,293Z"/><path class="cls-4" d="M259,293.37c13,10.11,33.44,14.43,35.09,33.9.4,4.68.65,10.09-1,14.6a19.64,19.64,0,0,1-7.11,9c-4.67,3.51-9.06,6.81-10.65,12.75-.26,1-.44,3-.6,4H345l-2.41-27.47c0-22.43-.19-47.18-29.36-47.18L257,277.73c-1,1.23-2.43,6.07-4.25,9.18A32.77,32.77,0,0,0,259,293.37Z"/><polygon class="cls-5" points="193.05 367.67 154 367.67 156.89 338.41 193.05 338.41 193.05 367.67"/><polygon class="cls-5" points="306.95 367.67 346 367.67 343.11 338.41 306.95 338.41 306.95 367.67"/><path class="cls-6" d="M222.13,283.93c3.37,14.81,17.18,22.6,31.67,20.89,12.52-1.48,21.54-8.25,24.08-20.89.88-4.4-5.86-6.28-6.75-1.86-1.87,9.31-7.55,14.3-16.92,15.69-11.6,1.73-22.59-3.66-25.33-15.69-1-4.39-7.75-2.53-6.75,1.86Z"/><path class="cls-6" d="M155.59,340.82H193.9c4.5,0,4.51-7,0-7H155.59c-4.5,0-4.51,7,0,7Z"/><path class="cls-6" d="M306.1,340.82H345.4c4.5,0,4.51-7,0-7H306.1c-4.5,0-4.51,7,0,7Z"/><path class="cls-7" d="M222.85,337c15.23-13.91,38.15-14.85,54.3,0-11.26,16.56-42.38,15.89-54.3,0"/><path class="cls-3" d="M250,344.75c10,0,10-15,0-15s-10,15,0,15Z"/><path class="cls-8" d="M250,340.75c4.67,0,4.67-7,0-7s-4.67,7,0,7Z"/><path class="cls-6" d="M230.23,322c1.4,2.41,3.24,4.62,4.87,6.88.94,1.29,3.11,0,2.16-1.26-1.63-2.25-3.47-4.47-4.87-6.87a1.25,1.25,0,0,0-2.16,1.26Z"/><path class="cls-6" d="M242.48,318.71,244,327c.29,1.58,2.7.91,2.41-.66l-1.5-8.25c-.29-1.58-2.7-.91-2.41.66Z"/><path class="cls-6" d="M255.11,317.29,254,325.54c-.21,1.57,2.19,2.25,2.41.66l1.13-8.25c.21-1.57-2.19-2.25-2.41-.66Z"/><path class="cls-6" d="M267.48,320l-2.87,7.75c-.56,1.51,1.86,2.16,2.41.66l2.87-7.75c.56-1.51-1.86-2.16-2.41-.66Z"/><path class="cls-9" d="M270.75,281.41c0,12.62-9.29,16.3-20.75,16.3h0c-11.46,0-20.75-3.68-20.75-16.3l2.18-23.74c0-12.62,7.1-22.85,18.56-22.85h0c11.46,0,18.56,10.23,18.56,22.85Z"/><path class="cls-5" d="M294.91,222.18c0,18.07-3.07,22-11.57,30.87s-20.24,15.61-33.2,15.61-24.7-6.73-33.2-15.61-11.58-12.8-11.58-30.87-6.85-42.71,0-58.11,25.11-28.64,44.82-28.64c19.08,0,37.37,13.25,44.34,28.64S294.91,204.11,294.91,222.18Z"/><path class="cls-5" d="M207,230.1l-5.09.78c-4,.61-7.87-3.61-8.62-9.41h0c-.76-5.8,1.88-11,5.89-11.6l7.28-.78"/><path class="cls-5" d="M293.56,209.09l7.28.78c4,.61,6.64,5.8,5.89,11.6h0c-.76,5.8-4.62,10-8.62,9.41L293,230.1"/><path class="cls-10" d="M269.95,233.65c0,9.65-8.93,17.47-19.95,17.47s-20-7.82-20-17.47"/><path class="cls-11" d="M255.68,222.8a5.68,5.68,0,0,1-5.68,5.68h0a5.68,5.68,0,0,1-5.68-5.68V204.06a5.68,5.68,0,0,1,5.68-5.68h0a5.68,5.68,0,0,1,5.68,5.68Z"/><path class="cls-11" d="M219.55,237.44c6.77,0,6.77-10.5,0-10.5s-6.77,10.5,0,10.5Z"/><path class="cls-11" d="M280.45,237.44c6.77,0,6.77-10.5,0-10.5s-6.77,10.5,0,10.5Z"/><path class="cls-12" d="M216.79,162.84c16.1,12.6,47.9,13.1,67.5,8.2,10.5-2.8,18.9-6.3,21-16.8,1.4-8.4-.7-21.7-9.8-23.8,0,14-24.66-7.44-41.3-8.6-18.21-1.26-32.9,3-35.7,22.6-31.5-2.8-28,51.8-13.3,66.5,6.3-16.8,9.1-44.1,25.2-55.3"/><path class="cls-12" d="M283,166.74c7.34,15.15,9.7,30.9,10.4,45.6,12.6-11.9,18.9-50.4.7-60.9"/><path class="cls-13" d="M232.9,148.62c.31.5.61,1,.93,1.49s.66.92,1,1.35a16.13,16.13,0,0,0,2.47,2.32,16.84,16.84,0,0,0,1.39,1,13.33,13.33,0,0,0,1.46.84,13.61,13.61,0,0,0,1.52.72c.51.23,1,.44,1.57.63s1.06.37,1.61.53,1.08.31,1.64.44,1.1.27,1.66.37,1.11.22,1.68.3c1.12.19,2.25.31,3.39.41s2.28.19,3.42.24c2.29.09,4.59.07,6.89,0,1.15,0,2.3-.06,3.45-.12l3.46-.18c2.31-.13,4.62-.34,6.93-.59s4.62-.54,6.92-.94l0,1.1c-.85-.25-1.72-.48-2.59-.67s-1.76-.35-2.66-.5c-1.78-.33-3.58-.57-5.37-1-.9-.19-1.8-.39-2.68-.67-.45-.12-.88-.29-1.32-.45s-.86-.37-1.3-.55a12.53,12.53,0,0,1-1.25-.67c-.42-.23-.79-.55-1.18-.83s-.71-.65-1.07-1-.62-.75-.93-1.13a.74.74,0,0,1,.66-1.21h.11c2.76.32,5.54.54,8.3.64a71.16,71.16,0,0,0,8.25,0,33.25,33.25,0,0,0,7.92-1.28c.62-.2,1.22-.43,1.8-.68a12.76,12.76,0,0,0,1.63-.89,7.79,7.79,0,0,0,1.37-1.11,7.26,7.26,0,0,0,1-1.32l1.51,2.39-3,.14c-1,.07-2,0-3-.06a23.26,23.26,0,0,1-3-.29l-1.51-.2-1.49-.31-1.48-.31c-.49-.12-1-.27-1.46-.4-1-.26-1.94-.56-2.87-.91s-1.89-.67-2.8-1.06-1.84-.74-2.74-1.16c-1.81-.8-3.57-1.66-5.33-2.5s-3.5-1.69-5.28-2.44c-.88-.41-1.79-.7-2.69-1.06s-1.82-.61-2.74-.92-1.87-.47-2.81-.71l-2.87-.48h0a.15.15,0,0,1,0-.3c1,0,2,0,3,.07s2,.21,3,.38,2,.34,2.91.62,1.93.51,2.86.84c1.89.61,3.74,1.3,5.57,2s3.63,1.46,5.44,2.12q1.36.52,2.71,1c.9.33,1.81.61,2.73.88s1.83.52,2.75.74c.46.11.92.24,1.38.34l1.39.25,1.39.26,1.4.15c.93.1,1.87.21,2.81.23s1.87.13,2.82.06l2.82-.12h.11a1.57,1.57,0,0,1,1.4,2.4,9.38,9.38,0,0,1-1.58,2,10.92,10.92,0,0,1-1.93,1.48,15.67,15.67,0,0,1-2.09,1.05,22.26,22.26,0,0,1-2.15.73,28.91,28.91,0,0,1-4.33.84q-2.17.26-4.32.3a71.18,71.18,0,0,1-8.53-.44c-2.82-.33-5.6-.8-8.37-1.32l.76-1.19.73,1c.29.3.56.63.87.92s.63.57,1,.8a11.3,11.3,0,0,0,1.09.69,10,10,0,0,0,1.17.57c.41.17.81.35,1.23.47a22,22,0,0,0,2.57.73c1.75.39,3.53.69,5.32,1s3.6.58,5.39,1a.56.56,0,0,1,0,1.09h0c-2.29.52-4.57,1.06-6.88,1.51s-4.63.86-7,1.2c-1.17.17-2.34.33-3.52.42s-2.36.21-3.54.25-2.37.07-3.56.07-2.38-.06-3.56-.14a48.68,48.68,0,0,1-7.1-.93c-.59-.11-1.17-.25-1.76-.4s-1.17-.29-1.74-.49-1.15-.37-1.71-.59-1.13-.43-1.68-.69a15.35,15.35,0,0,1-1.63-.8,15.11,15.11,0,0,1-1.56-.93,14.83,14.83,0,0,1-1.48-1.06,12.62,12.62,0,0,1-1.37-1.2,17.2,17.2,0,0,1-2.3-2.79c-.33-.5-.61-1-.9-1.57s-.44-1.09-.66-1.63a.15.15,0,0,1,.08-.2A.15.15,0,0,1,232.9,148.62Z"/><path class="cls-8" d="M201.63,208.17A4.63,4.63,0,0,1,197,212.8h0a4.63,4.63,0,0,1-4.63-4.63V196a4.63,4.63,0,0,1,4.63-4.63h0a4.63,4.63,0,0,1,4.63,4.63Z"/><path class="cls-8" d="M307.63,208.17A4.63,4.63,0,0,1,303,212.8h0a4.63,4.63,0,0,1-4.63-4.63V196a4.63,4.63,0,0,1,4.63-4.63h0a4.63,4.63,0,0,1,4.63,4.63Z"/><path class="cls-8" d="M302.68,202A19.06,19.06,0,0,1,283.61,221H216.38A19.06,19.06,0,0,1,197.32,202h0a19.06,19.06,0,0,1,19.06-19.06h67.23A19.06,19.06,0,0,1,302.68,202Z"/><path class="cls-1" d="M296.88,202c0,8.21-7.6,14.87-17,14.87H220.08c-9.37,0-17-6.66-17-14.87h0c0-8.21,7.59-14.87,17-14.87h59.83c9.37,0,17,6.66,17,14.87Z"/><path class="cls-14" d="M210.83,212.94"/><path class="cls-3" d="M96.33,191.24c-9.6-6.11-21.15-30.8-5.15-36.91,10.14-4.07,18,3.16,18,12.33,0,8.15-5.66,16.82-12.86,24.58"/><path class="cls-10" d="M96.6,160.07c-7.6-.63-7.6,10.08-1.09,10.71,7.05,1.26,8.69-9.45,1.09-10.71"/><circle class="cls-15" cx="383.42" cy="291.11" r="5.32"/><rect class="cls-15" x="381.4" y="293.88" width="4.04" height="5.68"/><path class="cls-15" d="M390.14,310.94a3.78,3.78,0,0,1-3.94,3.59h-5.57a3.77,3.77,0,0,1-3.94-3.59v-10c0-2,1.09-3.59,3.26-3.59h6.92c2.17,0,3.27,1.6,3.27,3.59Z"/><path class="cls-15" d="M382.51,325.56a2.11,2.11,0,0,1-2.12,2.12h0a2.12,2.12,0,0,1-2.11-2.12V313.93a2.12,2.12,0,0,1,2.11-2.12h0a2.11,2.11,0,0,1,2.12,2.12Z"/><path class="cls-15" d="M388.56,325.56a2.12,2.12,0,0,1-2.12,2.12h0a2.12,2.12,0,0,1-2.11-2.12V313.93a2.12,2.12,0,0,1,2.11-2.12h0a2.12,2.12,0,0,1,2.12,2.12Z"/><path class="cls-15" d="M396.5,306.91a1.84,1.84,0,0,1-.21,2.59h0a1.84,1.84,0,0,1-2.59-.21l-6.55-7.72a1.84,1.84,0,0,1,.21-2.59h0a1.84,1.84,0,0,1,2.59.21Z"/><path class="cls-15" d="M370.33,306.91a1.83,1.83,0,0,0,.21,2.59h0a1.84,1.84,0,0,0,2.59-.21l6.55-7.72a1.84,1.84,0,0,0-.21-2.59h0a1.84,1.84,0,0,0-2.59.21Z"/><circle class="cls-10" cx="413.35" cy="291.11" r="5.32"/><rect class="cls-10" x="411.33" y="293.88" width="4.04" height="5.68"/><path class="cls-10" d="M420.07,310.94a3.77,3.77,0,0,1-3.94,3.59h-5.57a3.78,3.78,0,0,1-3.94-3.59v-10c0-2,1.09-3.59,3.27-3.59h6.92c2.18,0,3.26,1.6,3.26,3.59Z"/><path class="cls-10" d="M412.44,325.56a2.12,2.12,0,0,1-2.12,2.12h0a2.12,2.12,0,0,1-2.11-2.12V313.93a2.12,2.12,0,0,1,2.11-2.12h0a2.12,2.12,0,0,1,2.12,2.12Z"/><path class="cls-10" d="M418.49,325.56a2.12,2.12,0,0,1-2.12,2.12h0a2.12,2.12,0,0,1-2.12-2.12V313.93a2.12,2.12,0,0,1,2.12-2.12h0a2.12,2.12,0,0,1,2.12,2.12Z"/><path class="cls-10" d="M426.44,306.91a1.84,1.84,0,0,1-.21,2.59h0a1.84,1.84,0,0,1-2.59-.21l-6.55-7.72a1.84,1.84,0,0,1,.21-2.59h0a1.84,1.84,0,0,1,2.59.21Z"/><path class="cls-10" d="M400.27,306.91a1.84,1.84,0,0,0,.21,2.59h0a1.84,1.84,0,0,0,2.59-.21l6.55-7.72a1.84,1.84,0,0,0-.21-2.59h0a1.84,1.84,0,0,0-2.59.21Z"/><circle class="cls-16" cx="370.5" cy="156.37" r="21.61"/><path class="cls-16" d="M387.18,142.87c-10.28,4.22-23,5.13-33.33-.15"/><path class="cls-16" d="M387.18,169.87c-10.28-4.22-23-5.13-33.33.15"/><ellipse class="cls-16" cx="370.5" cy="156.37" rx="11.6" ry="21.61"/><line class="cls-16" x1="370.5" y1="134.76" x2="370.5" y2="177.98"/><line class="cls-16" x1="348.88" y1="156.37" x2="392.11" y2="156.37"/><path class="cls-3" d="M125.67,312.18a7,7,0,0,1-4.75,8.72L97.7,327.76A7,7,0,0,1,89,323L73.42,270.33a7,7,0,0,1,4.74-8.72l23.23-6.86a7,7,0,0,1,8.72,4.75Z"/><rect class="cls-10" x="83.25" y="266.97" width="32.09" height="46.95" transform="translate(-78.19 40.01) rotate(-16.45)"/><path class="cls-10" d="M103.24,258.93a1.61,1.61,0,0,1-1.09,2l-21.28,6.28a1.61,1.61,0,0,1-2-1.09h0a1.61,1.61,0,0,1,1.09-2l21.28-6.28a1.61,1.61,0,0,1,2,1.09Z"/><ellipse class="cls-10" cx="107.47" cy="318.1" rx="3.59" ry="3.1" transform="translate(-85.67 43.45) rotate(-16.45)"/><rect class="cls-17" x="161.56" y="95.17" width="38.59" height="29.88"/><line class="cls-17" x1="200.14" y1="95.17" x2="180.73" y2="115.26"/><line class="cls-17" x1="161.56" y1="95.17" x2="180.73" y2="115.26"/><line class="cls-17" x1="186.18" y1="109.63" x2="200.14" y2="125.05"/><line class="cls-17" x1="175.18" y1="109.45" x2="161.56" y2="125.05"/><polygon class="cls-10" points="408.08 249 395.96 230.5 398.34 228.94 410.46 247.42 408.08 249"/><polygon class="cls-10" points="386.11 212.88 391.97 242.97 397.98 230.98 411.37 230.25 386.11 212.88"/><text class="cls-18" transform="translate(285.94 109.35)">360<tspan class="cls-19" x="44.63" y="-13">0</tspan></text><rect class="cls-20" x="130.13" y="199.17" width="24.2" height="24.2"/><rect class="cls-20" x="142.23" y="186.52" width="24.2" height="24.2"/><line class="cls-20" x1="130.13" y1="199.17" x2="142.23" y2="186.52"/><line class="cls-20" x1="154.34" y1="198.62" x2="166.44" y2="186.52"/><line class="cls-20" x1="154.34" y1="223.37" x2="166.44" y2="210.72"/><line class="cls-20" x1="130.13" y1="223.37" x2="142.23" y2="210.72"/><ellipse class="cls-21" cx="340.2" cy="252" rx="23" ry="18.96"/><path class="cls-10" d="M330.57,254.91c3.74,0,3.75-5.82,0-5.82s-3.75,5.82,0,5.82Z"/><path class="cls-10" d="M340.2,254.91c3.74,0,3.75-5.82,0-5.82s-3.75,5.82,0,5.82Z"/><path class="cls-10" d="M349.84,254.91c3.74,0,3.75-5.82,0-5.82s-3.75,5.82,0,5.82Z"/><text class="cls-18" transform="translate(134.16 272.39)">VR</text><path class="cls-22" d="M187.33,168.33C178,157,165.67,153,151.67,153c-13.33,0-19.53,4.37-30.67,11"/><circle class="cls-23" cx="121" cy="164" r="3.76" transform="translate(-66.87 85) rotate(-30.77)"/><path class="cls-22" d="M316,220c16.67-2.67,38.67-13.33,40-32.67"/><circle class="cls-23" cx="356" cy="187.33" r="3.76" transform="translate(144.61 529.6) rotate(-86.05)"/><path class="cls-22" d="M217,129.67c1.33-30,28-28.67,52-28.67"/><circle class="cls-23" cx="269" cy="101" r="3.76"/><path class="cls-22" d="M353.67,355c12.67,2,36-2.67,38-18"/><circle class="cls-23" cx="391.67" cy="337" r="3.76" transform="translate(6.84 681.79) rotate(-82.57)"/><path class="cls-22" d="M149.67,352.33C134.33,355,118.33,349,115,333"/><circle class="cls-23" cx="115" cy="333" r="3.76" transform="translate(-65.48 30.44) rotate(-11.77)"/><path class="cls-22" d="M210.33,281c-1.33-14.67-14.67-20.67-28.67-21.33"/><circle class="cls-23" cx="181.67" cy="259.67" r="3.76" transform="translate(-86.34 428.79) rotate(-87.28)"/><polygon class="cls-10" points="225.51 187 240.22 187.08 232.54 216.85 218.56 216.93 225.51 187"/><polyline class="cls-10" points="249.95 216.88 240.58 216.93 247.54 187 257.46 187.05"/></g></g></svg>