<svg xmlns="http://www.w3.org/2000/svg" viewBox="0 0 266.7 287.89"><defs><style>.cls-1{fill:#d4ecff;}.cls-2{fill:#f9bf30;}.cls-3{fill:#e8a200;}.cls-4{fill:#fdd762;}.cls-5{fill:#d3008d;}.cls-6{fill:#cc0293;}.cls-7{fill:#ff2c9c;}.cls-8{fill:#b45ef4;}.cls-9{fill:#983be9;}.cls-10{fill:#721bd5;}.cls-11{fill:#8a2ae3;}.cls-12{fill:#fff;}.cls-13{fill:#f2b42a;}.cls-14{fill:#173d7a;}.cls-15{fill:#ffc2b0;}.cls-16{fill:#ea9c92;}.cls-17{fill:#d8892b;}.cls-18{fill:#95d359;}.cls-19{fill:#c13d1a;}.cls-20{fill:#db5126;}.cls-21{fill:#ef602e;}</style></defs><title>goals</title><g id="Capa_2" data-name="Capa 2"><g id="Ñëîé_1" data-name="Ñëîé 1"><path class="cls-1" d="M63.32,224.26l-1.64-14.07a106.47,106.47,0,0,0-28,5.34L46.9,227.39A68.79,68.79,0,0,1,63.32,224.26Z"/><path class="cls-2" d="M63.32,216.9l-1.64-14.07a106.48,106.48,0,0,0-28,5.34L46.9,220A68.77,68.77,0,0,1,63.32,216.9Z"/><polygon class="cls-2" points="63.32 187.07 47.22 187.79 46.9 190.21 46.9 220.03 59.42 215.3 63.32 216.9 63.32 187.07"/><polygon class="cls-3" points="33.66 178.34 33.66 208.17 46.9 220.03 46.9 190.21 33.66 178.34"/><path class="cls-4" d="M63.32,187.07,61.68,173a106.48,106.48,0,0,0-28,5.34L46.9,190.21A68.79,68.79,0,0,1,63.32,187.07Z"/><path class="cls-1" d="M68.32,224c10.75-.07,21.52,2.1,30.06,6.51l17.26-10c-13.74-7.38-31.43-10.92-49-10.61Z"/><path class="cls-5" d="M68.32,216.71c10.75-.07,21.52,2.1,30.06,6.51l17.26-10c-13.74-7.38-31.43-10.92-49-10.61Z"/><polygon class="cls-6" points="68.32 216.71 68.32 206.41 66.68 192.34 66.68 202.64 68.32 216.71"/><polygon class="cls-5" points="98.38 212.92 79.15 195.64 68.32 206.41 68.32 216.71 96.28 216.53 98.38 223.22 98.38 212.92"/><polygon class="cls-5" points="115.63 202.96 115.63 213.25 98.38 223.22 98.38 212.92 115.63 202.96"/><path class="cls-7" d="M68.32,206.41c10.75-.07,21.52,2.1,30.06,6.51l17.26-10c-13.74-7.38-31.43-10.92-49-10.61Z"/><path class="cls-1" d="M31,262.91c-10.55-9.88-8.42-23,6.41-31.57a47.14,47.14,0,0,1,5.29-2.61L29.47,216.88a74,74,0,0,0-9.33,4.5C-3.18,234.85-6.25,255.58,10.93,271Z"/><path class="cls-8" d="M31,255.77c-10.55-9.88-8.42-23,6.41-31.57a47.13,47.13,0,0,1,5.29-2.61L29.47,209.75a74,74,0,0,0-9.33,4.5c-23.33,13.47-26.39,34.2-9.21,49.58Z"/><path class="cls-8" d="M42.69,203.27V221.6L31,225.95s-15.2-8.3-15.2-8.49,2.57-17.77,4.44-18.56S42.69,203.27,42.69,203.27Z"/><polygon class="cls-9" points="30.98 255.77 30.98 237.44 10.93 245.5 10.93 263.83 30.98 255.77"/><path class="cls-10" d="M10.93,234v29.83S.47,255,0,243.31l0-19.15L12.2,222.4Z"/><path class="cls-11" d="M31,237.44c-10.55-9.88-8.42-23,6.41-31.57a47.16,47.16,0,0,1,5.29-2.61L29.47,191.42a74,74,0,0,0-9.33,4.5c-23.33,13.47-26.39,34.2-9.21,49.58Z"/><path class="cls-1" d="M200.81,225.23c-13.41,7.74-35.15,7.74-48.56,0s-13.41-20.3,0-28,35.15-7.74,48.56,0S214.22,217.48,200.81,225.23Z"/><path class="cls-10" d="M215.14,176.15l-9.2.06c-.67-.45-1.37-.9-2.11-1.33-15.08-8.71-39.53-8.71-54.61,0q-1.42.82-2.66,1.7l-8.65.05v14h0c0,5.71,3.77,11.41,11.31,15.76,15.08,8.71,39.53,8.71,54.61,0,7.54-4.35,11.31-10.06,11.31-15.77h0Z"/><path class="cls-9" d="M175.24,168.37c-9.45.18-18.8,2.35-26,6.51q-1.42.82-2.66,1.7l-8.65.05v14c0,5.71,3.77,11.41,11.31,15.76,7.21,4.16,16.57,6.33,26,6.51Z"/><path class="cls-8" d="M143.22,176.6l-5.31,0v14c0,3.91,1.77,7.81,5.31,11.29Z"/><path class="cls-11" d="M203.83,191.92c-15.08,8.71-39.53,8.71-54.61,0s-15.08-22.82,0-31.53,39.53-8.71,54.61,0S218.92,183.21,203.83,191.92Z"/><path class="cls-8" d="M203.83,191.92c-15.08,8.71-39.53,8.71-54.61,0-7.16-4.13-10.91-9.49-11.28-14.9-.4,6,3.36,12.05,11.28,16.63,15.08,8.71,39.53,8.71,54.61,0,7.92-4.57,11.67-10.64,11.27-16.63C214.75,182.43,211,187.79,203.83,191.92Z"/><path class="cls-10" d="M204.55,170l-6.67,0c-.49-.33-1-.65-1.53-1-10.94-6.32-28.68-6.32-39.62,0q-1,.59-1.93,1.23l-6.28,0v4.82h0c0,4.14,2.74,8.28,8.21,11.44,10.94,6.32,28.68,6.32,39.62,0,5.47-3.16,8.21-7.3,8.21-11.44h0Z"/><path class="cls-9" d="M175.59,164.39c-6.86.13-13.64,1.7-18.88,4.72q-1,.59-1.93,1.23l-6.28,0v4.82c0,4.14,2.74,8.28,8.21,11.44,5.23,3,12,4.59,18.87,4.73Z"/><path class="cls-8" d="M152.36,170.36l-3.85,0v4.82a11.53,11.53,0,0,0,3.85,8.19Z"/><path class="cls-11" d="M196.34,181.47c-10.94,6.32-28.68,6.32-39.62,0s-10.94-16.56,0-22.88,28.68-6.32,39.62,0S207.28,175.16,196.34,181.47Z"/><path class="cls-4" d="M125.33,121.26a26.89,26.89,0,0,1-22.94-12.93L87.71,84a9.28,9.28,0,0,1,7.95-14.08h29v7.56h-29a1.72,1.72,0,0,0-1.48,2.61l14.68,24.34a19.23,19.23,0,0,0,16.75,9.28l25.25-.38.11,7.56-25.25.38Z"/><path class="cls-4" d="M227.73,121.26h-.4l-25.25-.38.11-7.56,25.25.38a19.22,19.22,0,0,0,16.76-9.28l14.68-24.34a1.72,1.72,0,0,0-1.48-2.61h-29V69.91h29A9.28,9.28,0,0,1,265.35,84l-14.68,24.34A26.9,26.9,0,0,1,227.73,121.26Z"/><path class="cls-3" d="M251.21,92.8l-7,11.63a19.22,19.22,0,0,1-16.76,9.28l-25.25-.38-.11,7.56,25.25.38h.4a26.9,26.9,0,0,0,21.38-10.66C252.43,102.07,251.9,95.9,251.21,92.8Z"/><path class="cls-12" d="M161.52,156.84c8.29,4.78,21.72,4.78,30,0s8.29-12.54,0-17.33-21.72-4.78-30,0S153.24,152.05,161.52,156.84Z"/><path class="cls-2" d="M151.75,160.42c4.47-3.32,3.61-6.56,3.61-6.56l3.38,4.08c10.28-5,25.3-5,35.58,0l3.38-4.08s-.86,3.25,3.61,6.56,3,9.83,3,9.83h0c0,4.11-2.71,8.22-8.14,11.35-10.85,6.27-28.45,6.27-39.3,0-5.43-3.13-8.14-7.24-8.14-11.35C148.74,170.25,147.28,163.74,151.75,160.42Z"/><path class="cls-3" d="M192.05,161.4s-8-4.75-8-5.75a1.69,1.69,0,0,1,.43-.75,37.34,37.34,0,0,1,9.86,3l3.38-4.08s-.86,3.25,3.61,6.56,3,9.83,3,9.83h0a10.69,10.69,0,0,1-2.45,6.56c.07-.51.93-7.22-4.12-9.42C192.5,165.1,192.05,161.4,192.05,161.4Z"/><path class="cls-3" d="M161.52,161.71c8.29,4.78,21.72,4.78,30,0s8.29-12.54,0-17.33-21.72-4.78-30,0S153.24,156.93,161.52,161.71Z"/><path class="cls-2" d="M232,70.36c-.56,30.94-16.51,34.68-25,46.26-8,10.81-7.06,26.44-6.9,28.47,0,.08,0,.15,0,.23h0c0,3.48-2.3,7-6.91,9.63-9.21,5.32-24.14,5.32-33.36,0-4.32-2.49-6.58-5.71-6.85-9h-.05v-.65h0c0-.07,0-.15,0-.22.16-2,1.07-17.67-6.9-28.48-8.53-11.58-24.48-15.33-25-46.26Z"/><path class="cls-3" d="M191.49,104s-1.3,3.7-5.33,14.27S184,155.65,184,155.65l6.85.47a24.7,24.7,0,0,0,2.33-1.16c4.61-2.66,6.91-6.14,6.91-9.63h0c0-.08,0-.15,0-.23-.16-2-1.06-17.67,6.9-28.47,8.53-11.58,24.48-15.33,25-46.26H226Z"/><path class="cls-4" d="M137.28,93c21.68,12.51,56.82,12.51,78.5,0s21.68-32.81,0-45.32-56.82-12.51-78.5,0S115.6,80.51,137.28,93Z"/><path class="cls-12" d="M137.28,93c21.68,12.51,56.82,12.51,78.5,0C226,87.12,231.39,79.5,232,71.77c.66,8.66-4.74,17.45-16.2,24.07-21.68,12.52-56.82,12.52-78.5,0-11.46-6.62-16.85-15.4-16.2-24.07C121.67,79.5,127.06,87.12,137.28,93Z"/><path class="cls-13" d="M143.59,89.38c18.19,10.5,47.69,10.5,65.88,0s18.19-27.53,0-38-47.69-10.5-65.88,0S125.39,78.88,143.59,89.38Z"/><path class="cls-3" d="M143.59,89.38c7.62,4.4,17.24,6.93,27.17,7.65a6.44,6.44,0,0,0,1.41-6.3c-4.84-14.5-3-44.53-3-44.53l-8.76-1a57.87,57.87,0,0,0-16.85,6.2C125.39,61.85,125.39,78.88,143.59,89.38Z"/><path class="cls-12" d="M209.47,53.73c-18.19-10.5-47.69-10.5-65.88,0C135,58.68,130.49,65.08,130,71.56c-.56-7.28,4-14.66,13.6-20.21,18.19-10.5,47.69-10.5,65.88,0,9.62,5.56,14.15,12.94,13.59,20.21C222.57,65.07,218,58.68,209.47,53.73Z"/><path class="cls-3" d="M199.34,93.81a77.38,77.38,0,0,1-45.61,0c.48-.32,1-.64,1.51-.95,11.76-6.79,30.83-6.79,42.59,0C198.35,93.17,198.85,93.49,199.34,93.81Z"/><path class="cls-12" d="M153,145.1c0-.24,0-.69.07-1.3.36,3.18,2.6,6.31,6.82,8.75,9.21,5.32,24.14,5.32,33.36,0,4.12-2.38,6.39-5.42,6.83-8.54,0,.49,0,.87.06,1.08s0,.15,0,.23h0c0,3.48-2.3,7-6.91,9.63-9.21,5.32-24.14,5.32-33.36,0-4.32-2.49-6.58-5.71-6.85-9h-.05v-.65h0C152.94,145.25,153,145.18,153,145.1Z"/><path class="cls-14" d="M145.68,131.64s-2.92-1.47-4.71.72-4.35,7.36-4.43,10.85,2.76,3.26,4.45,2.43,6.63-8,6.93-9.39a4.87,4.87,0,0,0-.83-3.67C146.63,132.2,145.68,131.64,145.68,131.64Z"/><path class="cls-3" d="M146.32,130.93l.14,3a1.71,1.71,0,0,1-.85,1.57,3.36,3.36,0,0,1-2.25.35c-2.2-.35-2.39-1-2.55-4S146.32,130.93,146.32,130.93Z"/><path class="cls-14" d="M135,125.83s-2.92-1.47-4.71.72-4.35,7.36-4.43,10.85,2.76,3.26,4.45,2.43,6.63-8,6.93-9.39a4.87,4.87,0,0,0-.83-3.67C136,126.39,135,125.83,135,125.83Z"/><path class="cls-3" d="M135.65,125.13l.13,3a1.71,1.71,0,0,1-.85,1.57,3.36,3.36,0,0,1-2.25.35c-2.2-.35-2.39-1-2.55-4S135.65,125.13,135.65,125.13Z"/><path class="cls-4" d="M161.67,69.66c-.86-14-15.21,2.07-15.21,2.07l-9.82,9.62-8.84,9.71a8.71,8.71,0,0,0-2.2,7l3.58,27.23a2.68,2.68,0,0,0,2.68,2.33,9.1,9.1,0,0,0,1.33-.12,3.33,3.33,0,0,0,3-3.53l-.65-25.47,18.57-11.19S162.53,83.7,161.67,69.66Z"/><path class="cls-3" d="M149.31,81.92S138.2,94.17,137.58,97.59s11.74-3.15,11.74-3.15l8.46-13.81Z"/><path class="cls-4" d="M172.34,75c-.86-14-15.21,2.07-15.21,2.07l-9.82,9.62-8.84,9.71a8.71,8.71,0,0,0-2.2,7l3.58,27.23a2.68,2.68,0,0,0,2.68,2.33,9.1,9.1,0,0,0,1.32-.12,3.33,3.33,0,0,0,3-3.53l-.65-25.47,18.57-11.19S173.2,89.05,172.34,75Z"/><path class="cls-9" d="M163.85,29.93c10.88,4.51,10.66,10.94,10.66,10.94s-2.13,23.57-1.4,39.31c.3,6.58-35,7.08-29.7-10.47,6.2-20.7,3.88-37.46,6.78-40S161,28.76,163.85,29.93Z"/><ellipse class="cls-15" cx="161.92" cy="34.23" rx="4.13" ry="5.61" transform="translate(88.38 182.49) rotate(-75.56)"/><path class="cls-12" d="M162.75,39a8,8,0,0,1-2-.26c-3.27-.84-5.42-3.55-4.78-6s3.82-3.82,7.1-3a7.24,7.24,0,0,1,3.81,2.34,4.16,4.16,0,0,1,1,3.69h0a4.16,4.16,0,0,1-2.63,2.77A6.66,6.66,0,0,1,162.75,39Zm-1.66-8.48c-2,0-3.71.94-4.1,2.45-.5,1.93,1.31,4.06,4,4.76a6.2,6.2,0,0,0,3.82-.16,3.15,3.15,0,0,0,2-2.06h0a3.14,3.14,0,0,0-.76-2.78,6.2,6.2,0,0,0-3.27-2A7,7,0,0,0,161.09,30.51Z"/><path class="cls-15" d="M159.49,29.44a26.82,26.82,0,0,1-.09,3.88c-.06,1.08,3.73,2.1,4.72,1.11s.59-2,.82-5.69S159.49,29.44,159.49,29.44Z"/><path class="cls-16" d="M164.94,28.75s-.93,3.42-5.54,4.73l.07-3.11Z"/><circle class="cls-15" cx="159.75" cy="22.16" r="8.37" transform="translate(-0.46 40.69) rotate(-14.5)"/><path class="cls-16" d="M161.67,22.46s-4.61,2-7.8,2-2.49-2.65-2.49-2.65l9.47-1.37Z"/><path class="cls-7" d="M152.92,23s4-1.7,7.54-1a3.69,3.69,0,0,1,2.13,1.27,1.26,1.26,0,0,0,.64.47c.62.14,1.65-2.45,2.86-2.51s2,.8,1,2.39-.66,3.38-.2,3.63,5.32-3.47,1-12-15.17-3.92-16.86-2.2c0,0-1.78,1.55-3.23.17C147.85,13.26,146.23,25.44,152.92,23Z"/><path class="cls-15" d="M144.87,28,139,25.48a2.59,2.59,0,0,1-1.43-1.54L131.82,7.2l-2.68.47,4.67,20.83a3.51,3.51,0,0,0,1.71,2.29l9.74,5.47Z"/><path class="cls-15" d="M205.71,30.72l1.34-.62A10.79,10.79,0,0,0,210.13,28l.93-.92a1.81,1.81,0,0,0,.4-2h0a1,1,0,0,0-1.37-.5L207.29,26s.44-1.24.23-1.56-2.38,2.07-3.38,3.77S205.71,30.72,205.71,30.72Z"/><path class="cls-15" d="M182.37,37.41l5-.56a8.81,8.81,0,0,0,3.36-1.09l13.4-7.58,1.57,2.54L192,41.3a6.31,6.31,0,0,1-1.38.81l-8.17,3.49Z"/><path class="cls-15" d="M129.14,7.67l-.51-.59a4.7,4.7,0,0,1-1.1-2.4l-.36-2.44a2.09,2.09,0,0,1,.8-2l.07,0a1.26,1.26,0,0,1,1.85.6l1.2,2.91s-.38-1.51.11-1.67,1,1.75.63,2.79a4.39,4.39,0,0,0,0,2.37Z"/><path class="cls-12" d="M156.43,27.92l-2.16-.59a5.22,5.22,0,0,0,2.54,2c1.51.41,1.74-.86,1.74-.86Z"/><path class="cls-9" d="M153.19,28.52s-9.77-1.93-12.75-2.84-4.23,7.29-4,9.36,10.39,4.39,11.59,8S153.19,28.52,153.19,28.52Z"/><path class="cls-9" d="M168.12,32.11s7.14,3.06,19.09,4.56a1.29,1.29,0,0,1,1.06.84,14.14,14.14,0,0,1,.63,7.18,2.64,2.64,0,0,1-2.61,2.08c-3.74,0-11.79.33-13.1,3.83C171.49,55.18,168.12,32.11,168.12,32.11Z"/><path class="cls-1" d="M55.93,269.23c11.75,6.78,30.79,6.78,42.54,0s11.75-17.78,0-24.56-30.79-6.78-42.54,0S44.18,262.45,55.93,269.23Z"/><path class="cls-14" d="M62.85,249.51a4.64,4.64,0,0,0-2.62,4.64,7.83,7.83,0,0,0,.38,2.27c.54,1.13,2.31,2.68,5.13,1.57s9.08-7,9.32-10.85C75.49,240,67.31,247.6,62.85,249.51Z"/><path class="cls-14" d="M79.42,261.34s-.68,4.13-.35,4.88,2.29,2.37,5.19,2,11.24-3.23,13.1-8.72c2.88-8.52-16.1.64-16.1.64Z"/><path class="cls-4" d="M87.57,195.39l.65,64.4a4.51,4.51,0,0,1-3.51,4.46q-.37.06-.78.1a4,4,0,0,1-3.83-1.58,4.73,4.73,0,0,1-.86-2.6l-.82-27.49-4.1-24.58-5.68,43.51a3.76,3.76,0,0,1-1.56,2.86,4.35,4.35,0,0,1-2.59.7,4.76,4.76,0,0,1-3.44-1.7,3.45,3.45,0,0,1-.82-2.33L62.47,225l.84-33.39Z"/><path class="cls-15" d="M79.23,137.74l-1,5.87a2.69,2.69,0,0,0,2.2,2.56c2.24.55,2.93-.89,2.93-.89l1-6.61Z"/><path class="cls-15" d="M91.31,138c-2.42,4.69-7.75,6.73-11.92,4.56s-5.58-7.72-3.16-12.41,7.75-6.73,11.92-4.56S93.73,133.28,91.31,138Z"/><path class="cls-9" d="M79.5,143.72c-.15-.06-9.49-6.07-12.93.22-5.62,10.25-5.29,43.25-3.52,47.52,1.64,4,5.75,6.87,8.62,8.52A17.22,17.22,0,0,0,80,202.36c2.92,0,8.51-2.57,8.3-6.38-.93-17.53.62-32.31,2-46.65C90.39,149.33,88.6,147.41,79.5,143.72Z"/><path class="cls-17" d="M74.31,208.1l-5.68,43.51a3.76,3.76,0,0,1-1.56,2.86,4.19,4.19,0,0,1-.48.27c1.18-.88,4.62-37.4,5.26-41.46S74.31,208.1,74.31,208.1Z"/><polygon class="cls-15" points="109.33 145.66 114.4 129.05 111.72 127.94 105.75 140.95 109.33 145.66"/><polygon class="cls-15" points="58.23 132.57 62.03 115.28 65.05 115.31 63.92 129.65 58.23 132.57"/><path class="cls-9" d="M90.39,149.33s9.11,1.82,14.9-8.79a1.44,1.44,0,0,1,2.4-.25c.93,1.41,2.16,3.58,1.52,5.93-2.82,10.37-18.13,12.66-20.88,18.67S90.39,149.33,90.39,149.33Z"/><path class="cls-9" d="M73.58,141.57s-7.21.55-8.25-5.69a47.72,47.72,0,0,1-.73-6.24,1.26,1.26,0,0,0-1.41-1.22c-1.73.21-4.4.73-4.77,1.89-.54,1.73-1.56,10.21,5.56,23.22C68.65,162,73.58,141.57,73.58,141.57Z"/><path class="cls-15" d="M62,115.32l.07-2a4.06,4.06,0,0,1,.59-2l2-3.28.52-.66a1.52,1.52,0,0,1,2-.34l.46.29a1.89,1.89,0,0,1,.88,1.72l-1,2.81,1.31-.25a.46.46,0,0,1,.55.37h0a.46.46,0,0,1-.28.51l-2.13.86L65,116.15Z"/><path class="cls-15" d="M114.48,129.14l.6-1.88a4.06,4.06,0,0,0,.11-2.05l-.76-3.77-.27-.79a1.52,1.52,0,0,0-1.76-1l-.53.12a1.89,1.89,0,0,0-1.41,1.32l0,3-1.14-.68a.46.46,0,0,0-.64.17h0a.46.46,0,0,0,.09.58l1.72,1.53,1,3.64Z"/><path class="cls-10" d="M86.12,161.89c-.83,3.79,1.5,33.19-6.09,40.47,2.92,0,8.51-2.57,8.3-6.38a233.05,233.05,0,0,1,.7-32.24c3-3.85,11.16-6.31,16.28-11.25C104.94,152.6,86.94,158.14,86.12,161.89Z"/><path class="cls-12" d="M76.14,142.06l1.3-1.33s2.13,2.18,3.84,2.56a20,20,0,0,0,3.07.63l.83,2.3S78.4,145.73,76.14,142.06Z"/><path class="cls-14" d="M85.29,137.09a1.09,1.09,0,0,0,1-.3c.44-.45.62-2.81,1.76-3,1.78-.31,5.41,2.48,6.88-3.51.76-3.11-.63-4.22-.32-5.94,0,0,0,.89-8-1s-11.9,4.81-12.68,8.21-.09,9.33,5.32,11.05c.9.29,5.29-2.15,5.26-2.58s-1.49-.65-1.08-1.8A1.55,1.55,0,0,1,85.29,137.09Z"/><circle class="cls-12" cx="166.95" cy="24.46" r="1.04"/><polygon class="cls-1" points="170.46 280.83 158.23 273.78 146.01 280.83 158.23 287.89 170.46 280.83"/><polygon class="cls-3" points="158.23 281.35 158.23 273.39 172.84 264.96 172.84 272.91 158.23 281.35"/><polygon class="cls-2" points="158.23 273.39 143.63 264.96 143.63 272.91 158.23 281.35 158.23 273.39"/><polygon class="cls-4" points="172.84 264.96 158.23 256.53 143.63 264.96 158.23 273.39 172.84 264.96"/><polygon class="cls-1" points="72.33 95.83 60.11 88.77 47.88 95.83 60.11 102.89 72.33 95.83"/><polygon class="cls-5" points="60.11 96.34 60.11 88.39 74.72 79.95 74.72 87.91 60.11 96.34"/><polygon class="cls-5" points="60.11 88.39 45.5 79.95 45.5 87.91 60.11 96.34 60.11 88.39"/><polygon class="cls-7" points="74.72 79.95 60.11 71.52 45.5 79.95 60.11 88.39 74.72 79.95"/><polygon class="cls-1" points="254.37 264.39 239.34 255.72 224.31 264.39 239.34 273.07 254.37 264.39"/><polygon class="cls-10" points="243.71 252.88 243.71 198.84 256.48 191.47 256.48 245.51 243.71 252.88"/><polygon class="cls-8" points="243.71 198.84 230.95 191.47 230.95 245.51 243.71 252.88 243.71 198.84"/><polygon class="cls-11" points="256.48 191.47 243.71 184.1 230.95 191.47 243.71 198.84 256.48 191.47"/><polygon class="cls-18" points="256.48 255.34 243.71 247.97 243.71 252.88 256.48 260.25 256.48 255.34"/><polygon class="cls-19" points="230.95 260.25 230.95 220.94 243.71 213.58 243.71 252.88 230.95 260.25"/><polygon class="cls-20" points="230.95 220.94 218.18 213.58 218.18 252.88 230.95 260.25 230.95 220.94"/><polygon class="cls-21" points="243.71 213.58 230.95 206.21 218.18 213.58 230.95 220.94 243.71 213.58"/><polygon class="cls-5" points="230.95 260.25 230.95 220.94 243.71 213.58 243.71 252.88 230.95 260.25"/><polygon class="cls-5" points="230.95 220.94 218.18 213.58 218.18 252.88 230.95 260.25 230.95 220.94"/><polygon class="cls-7" points="243.71 213.58 230.95 206.21 218.18 213.58 230.95 220.94 243.71 213.58"/><polygon class="cls-3" points="243.71 267.62 243.71 245.51 256.48 238.14 256.48 260.25 243.71 267.62"/><polygon class="cls-2" points="243.71 245.51 230.95 238.14 230.95 260.25 243.71 267.62 243.71 245.51"/><polygon class="cls-4" points="256.48 238.14 243.71 230.77 230.95 238.14 243.71 245.51 256.48 238.14"/></g></g></svg>