<svg xmlns="http://www.w3.org/2000/svg" viewBox="0 0 254.17 300.52"><defs><style>.cls-1{fill:#d4ecff;}.cls-2{fill:#721bd5;}.cls-3{fill:#b45ef4;}.cls-4{fill:#e8a200;}.cls-5{fill:#f9bf30;}.cls-6{fill:#d3008d;}.cls-7{fill:#ff2c9c;}.cls-8{fill:#8a2ae3;}.cls-9{fill:#95d359;}.cls-10{fill:#c13d1a;}.cls-11{fill:#db5126;}.cls-12{fill:#ef602e;}.cls-13{fill:#fdd762;}.cls-14{opacity:0.4;}.cls-15,.cls-16,.cls-20{fill:#fff;}.cls-15{opacity:0.2;}.cls-16{opacity:0.7;}.cls-17{fill:#983be9;}.cls-18{fill:#d8892b;}.cls-19{fill:#ffc2b0;}.cls-21{fill:#ea9c92;}</style></defs><title>grow</title><g id="Capa_2" data-name="Capa 2"><g id="Ñëîé_1" data-name="Ñëîé 1"><polygon class="cls-1" points="200.25 300.52 0 184.9 7.44 179.87 207.69 295.49 200.25 300.52"/><path class="cls-1" d="M116.28,173.82c-12.79,7.38-33.52,7.38-46.31,0s-12.79-19.35,0-26.73,33.52-7.38,46.31,0S129.06,166.43,116.28,173.82Z"/><path class="cls-1" d="M174.49,207.26c-12.79,7.38-33.52,7.38-46.31,0s-12.79-19.35,0-26.73,33.52-7.38,46.31,0S187.27,199.88,174.49,207.26Z"/><path class="cls-1" d="M235.52,242.51c-12.79,7.38-33.52,7.38-46.31,0s-12.79-19.35,0-26.73,33.52-7.38,46.31,0S248.31,235.13,235.52,242.51Z"/><polygon class="cls-1" points="21.91 239.57 11.39 233.5 0.88 239.57 11.39 245.65 21.91 239.57"/><polygon class="cls-2" points="11.39 238.83 11.39 224.3 22.48 217.9 22.48 232.43 11.39 238.83"/><polygon class="cls-3" points="11.39 224.3 0.31 217.9 0.31 232.43 11.39 238.83 11.39 224.3"/><polygon class="cls-4" points="11.39 224.3 11.39 214.03 22.48 207.63 22.48 217.9 11.39 224.3"/><polygon class="cls-5" points="11.39 214.03 0.31 207.63 0.31 217.9 11.39 224.3 11.39 214.03"/><polygon class="cls-6" points="11.39 214.03 11.39 206.67 22.48 200.27 22.48 207.63 11.39 214.03"/><polygon class="cls-6" points="11.39 206.67 0.31 200.27 0.31 207.63 11.39 214.03 11.39 206.67"/><polygon class="cls-7" points="22.48 200.27 11.39 193.87 0.31 200.27 11.39 206.67 22.48 200.27"/><polygon class="cls-1" points="249.21 151.19 236.94 144.1 224.66 151.19 236.94 158.28 249.21 151.19"/><polygon class="cls-2" points="242.69 139.73 242.69 95.58 253.12 89.56 253.12 133.71 242.69 139.73"/><polygon class="cls-3" points="242.69 95.58 232.26 89.56 232.26 133.71 242.69 139.73 242.69 95.58"/><polygon class="cls-8" points="253.12 89.56 242.69 83.54 232.26 89.56 242.69 95.58 253.12 89.56"/><polygon class="cls-9" points="253.12 141.74 242.69 135.72 242.69 139.73 253.12 145.75 253.12 141.74"/><polygon class="cls-10" points="232.26 145.75 232.26 113.64 242.69 107.62 242.69 139.73 232.26 145.75"/><polygon class="cls-11" points="232.26 113.64 221.83 107.62 221.83 139.73 232.26 145.75 232.26 113.64"/><polygon class="cls-12" points="242.69 107.62 232.26 101.6 221.83 107.62 232.26 113.64 242.69 107.62"/><polygon class="cls-6" points="232.26 145.75 232.26 113.64 242.69 107.62 242.69 139.73 232.26 145.75"/><polygon class="cls-6" points="232.26 113.64 221.83 107.62 221.83 139.73 232.26 145.75 232.26 113.64"/><polygon class="cls-7" points="242.69 107.62 232.26 101.6 221.83 107.62 232.26 113.64 242.69 107.62"/><polygon class="cls-4" points="242.69 151.77 242.69 133.71 253.12 127.69 253.12 145.75 242.69 151.77"/><polygon class="cls-5" points="242.69 133.71 232.26 127.69 232.26 145.75 242.69 151.77 242.69 133.71"/><polygon class="cls-13" points="253.12 127.69 242.69 121.67 232.26 127.69 242.69 133.71 253.12 127.69"/><polygon class="cls-1" points="55.28 58.79 44.79 52.73 34.3 58.79 44.79 64.85 55.28 58.79"/><polygon class="cls-4" points="44.79 59.23 44.79 52.41 57.32 45.17 57.32 51.99 44.79 59.23"/><polygon class="cls-5" points="44.79 52.41 32.26 45.17 32.26 51.99 44.79 59.23 44.79 52.41"/><polygon class="cls-13" points="57.32 45.17 44.79 37.94 32.26 45.17 44.79 52.41 57.32 45.17"/><polygon class="cls-4" points="53.1 45.17 44.79 40.37 36.48 45.17 44.79 49.97 53.1 45.17"/><polygon class="cls-6" points="44.79 46.08 44.79 39.26 57.32 32.02 57.32 38.84 44.79 46.08"/><polygon class="cls-6" points="44.79 39.26 32.26 32.02 32.26 38.84 44.79 46.08 44.79 39.26"/><polygon class="cls-7" points="57.32 32.02 44.79 24.78 32.26 32.02 44.79 39.26 57.32 32.02"/><path class="cls-5" d="M133.38,133.1h-1.56c-1.75-3.43-5-6.67-9.66-9.38-15-8.64-39.21-8.64-54.17,0-4.69,2.71-7.91,5.95-9.66,9.38H56.77v6.26h0C56.77,145,60.51,150.67,68,155c15,8.64,39.21,8.64,54.17,0,7.48-4.32,11.22-10,11.22-15.64h0Z"/><path class="cls-13" d="M86.76,117.77A50.76,50.76,0,0,0,68,123.72c-4.69,2.71-7.91,5.95-9.66,9.38H56.77v6.26C56.77,145,60.51,150.67,68,155a50.77,50.77,0,0,0,18.78,5.95Z"/><path class="cls-4" d="M122.26,154.93c7.41-4.31,11.12-9.94,11.12-15.58V133.1h-1.56a22.33,22.33,0,0,0-7.69-8.15h-1.87Z"/><g class="cls-14"><path class="cls-4" d="M131.41,132.37a18.27,18.27,0,0,0-1.66-2.4v18.8a18.26,18.26,0,0,0,1.66-2.41Z"/><path class="cls-4" d="M68,123.72a30.17,30.17,0,0,0-5.35,3.89v23.51c.52.48,1.07.95,1.66,1.41V127h3.13v27.62L68,155c.36.21.73.41,1.1.61V127h3.13V157.1q.82.35,1.66.68V127H77v31.82l1.66.48V127h3.13V160.1l1.66.33V127H86.6v33.88l1.66.2V127H91.4v34.33l1.66.07V127h3.13v34.42l1.66,0V127H101V161.2l1.66-.17V127h3.13v33.55l1.66-.3V127h3.13v32.54l1.66-.45V127h3.13v31.07q.84-.3,1.66-.64V127h3.13v29q.85-.42,1.66-.88V127H125v26.15c.59-.42,1.14-.85,1.66-1.29V127h.28a31.12,31.12,0,0,0-4.73-3.32,46.1,46.1,0,0,0-11.75-4.63H79.74A46.1,46.1,0,0,0,68,123.72Z"/><path class="cls-4" d="M59.5,131.16a17.13,17.13,0,0,0-1.18,1.94h-.48v11.47a16.42,16.42,0,0,0,1.66,3Z"/></g><path class="cls-13" d="M122.16,148.74c-15,8.64-39.21,8.64-54.17,0s-15-22.64,0-31.28,39.21-8.64,54.17,0S137.12,140.1,122.16,148.74Z"/><path class="cls-15" d="M103.65,136.88c11-6.36,13.91-15.62,8.7-23.51C98,109.17,80,110.53,68,117.46c-11,6.36-13.91,15.62-8.7,23.51C73.65,145.17,91.65,143.81,103.65,136.88Z"/><path class="cls-16" d="M122.16,148.74c-15,8.64-39.21,8.64-54.17,0-7.23-4.17-11-9.6-11.2-15.07-.26,5.85,3.47,11.75,11.2,16.21,15,8.64,39.21,8.64,54.17,0,7.73-4.46,11.45-10.36,11.2-16.21C133.11,139.14,129.39,144.56,122.16,148.74Z"/><path class="cls-4" d="M114.3,144.2c-10.62,6.13-27.83,6.13-38.45,0s-10.62-16.07,0-22.2,27.83-6.13,38.45,0S124.92,138.07,114.3,144.2Z"/><path class="cls-5" d="M75.85,123.43c10.62-6.13,27.83-6.13,38.45,0,5,2.88,7.64,6.61,7.93,10.38.33-4.25-2.31-8.57-7.93-11.82-10.62-6.13-27.83-6.13-38.45,0-5.62,3.25-8.27,7.56-7.93,11.82C68.21,130,70.85,126.31,75.85,123.43Z"/><path class="cls-5" d="M108.44,125.69l-2.11.6.6.24-2.06,1.19a11.62,11.62,0,0,0-5.22-1.22,10,10,0,0,0-5,1.36,7.79,7.79,0,0,0-1.52,1.1,3.23,3.23,0,0,0-.81,1.16,3.91,3.91,0,0,0-.27,1.11,6.29,6.29,0,0,0,0,1.21l.24,1.92a5.74,5.74,0,0,1,0,1.35,2.41,2.41,0,0,1-.46,1.09,3.68,3.68,0,0,1-1.21,1,2.46,2.46,0,0,1-2.58.19q-.86-.5-.44-1.24A6.7,6.7,0,0,1,90,134.92v-1.44l-1.8.68-2.59-1.1a8.39,8.39,0,0,0-3.07,2.76l-.3-.33v1.41h0c0,1,.75,1.92,2.23,2.87l-1,.59-1.39-.64v1.44l1.25.72,2.44-1.41a10.65,10.65,0,0,0,4.93,1,9.8,9.8,0,0,0,4.65-1.25A7.87,7.87,0,0,0,97,139a4,4,0,0,0,.92-1.33,5,5,0,0,0,.34-1.32,7.07,7.07,0,0,0,0-1.4L98,133.07c0-.37,0-.64,0-.81a3.72,3.72,0,0,1,.09-.7,1.63,1.63,0,0,1,.42-.8,3.89,3.89,0,0,1,.9-.68,3.65,3.65,0,0,1,1.38-.44,2.23,2.23,0,0,1,1.38.23,1.28,1.28,0,0,1,.43.33.4.4,0,0,1,.08.24l-2.14.45v1.44l4.34,1.93q.53-.34,1-.63a9.06,9.06,0,0,0,.88-.7,5.18,5.18,0,0,0,.73-.78,2.77,2.77,0,0,0,.41-.85,1.88,1.88,0,0,0,.07-.43h0v0s0,0,0,0v-1.47l-.55.12,0,0a5.13,5.13,0,0,0-1.16-1l2.28-1.32Z"/><path class="cls-13" d="M82.05,139.72l2.42-1.39q-2.48-1.57-2.22-3.19t3.34-3.51L90,133.48a6.7,6.7,0,0,0-2.29,1.85q-.42.74.44,1.24a2.46,2.46,0,0,0,2.58-.19,3.68,3.68,0,0,0,1.21-1,2.41,2.41,0,0,0,.46-1.09,5.74,5.74,0,0,0,0-1.35L92.09,131a6.29,6.29,0,0,1,0-1.21,3.91,3.91,0,0,1,.27-1.11,3.23,3.23,0,0,1,.81-1.16,7.8,7.8,0,0,1,1.52-1.1,10,10,0,0,1,5-1.36,11.62,11.62,0,0,1,5.22,1.22l2.29-1.32,1.27.74L106.16,127a5.13,5.13,0,0,1,1.16,1,2.49,2.49,0,0,1,.53.95,1.73,1.73,0,0,1,0,.91,2.77,2.77,0,0,1-.41.85,5.18,5.18,0,0,1-.73.78,9.06,9.06,0,0,1-.88.7q-.42.29-1,.63l-4.34-1.93.81-.5q.31-.2.64-.45a2.66,2.66,0,0,0,.47-.43,1.17,1.17,0,0,0,.21-.38.39.39,0,0,0-.07-.37,1.28,1.28,0,0,0-.43-.33,2.23,2.23,0,0,0-1.38-.23,3.65,3.65,0,0,0-1.38.44,3.89,3.89,0,0,0-.9.68,1.63,1.63,0,0,0-.42.8,3.72,3.72,0,0,0-.09.7c0,.17,0,.44,0,.81l.21,1.86a7.07,7.07,0,0,1,0,1.4,5,5,0,0,1-.34,1.32,4,4,0,0,1-.92,1.33,7.87,7.87,0,0,1-1.65,1.23A9.8,9.8,0,0,1,90.67,140a10.65,10.65,0,0,1-4.93-1l-2.44,1.41Z"/><path class="cls-5" d="M133.38,126.84h-1.56c-1.75-3.43-5-6.67-9.66-9.38-15-8.64-39.21-8.64-54.17,0-4.69,2.71-7.91,5.95-9.66,9.38H56.77v6.26h0c0,5.66,3.74,11.32,11.22,15.64,15,8.64,39.21,8.64,54.17,0,7.48-4.32,11.22-10,11.22-15.64h0Z"/><path class="cls-13" d="M86.76,111.51A50.76,50.76,0,0,0,68,117.45c-4.69,2.71-7.91,5.95-9.66,9.38H56.77v6.26c0,5.66,3.74,11.32,11.22,15.64a50.76,50.76,0,0,0,18.78,5.95Z"/><path class="cls-4" d="M122.26,148.67c7.41-4.31,11.12-9.94,11.12-15.58v-6.26h-1.56a22.33,22.33,0,0,0-7.69-8.15h-1.87Z"/><g class="cls-14"><path class="cls-4" d="M131.41,126.11a18.28,18.28,0,0,0-1.66-2.4v18.8a18.26,18.26,0,0,0,1.66-2.41Z"/><path class="cls-4" d="M68,117.45a30.17,30.17,0,0,0-5.35,3.89v23.51c.52.48,1.07.95,1.66,1.41V120.78h3.13v27.62l.56.34c.36.21.73.41,1.1.61V120.78h3.13v30.07q.82.35,1.66.68V120.78H77V152.6l1.66.48V120.78h3.13v33.06l1.66.33V120.78H86.6v33.88l1.66.2V120.78H91.4v34.33l1.66.07v-34.4h3.13v34.42l1.66,0V120.78H101v34.16l1.66-.17v-34h3.13v33.55l1.66-.3V120.78h3.13v32.54l1.66-.45V120.78h3.13v31.07q.84-.3,1.66-.64V120.78h3.13v29q.85-.42,1.66-.88V120.78H125v26.15c.59-.42,1.14-.85,1.66-1.29V120.78h.28a31.12,31.12,0,0,0-4.73-3.32,46.1,46.1,0,0,0-11.75-4.63H79.74A46.1,46.1,0,0,0,68,117.45Z"/><path class="cls-4" d="M59.5,124.9a17.15,17.15,0,0,0-1.18,1.94h-.48V138.3a16.42,16.42,0,0,0,1.66,3Z"/></g><path class="cls-13" d="M122.16,142.48c-15,8.64-39.21,8.64-54.17,0s-15-22.64,0-31.28,39.21-8.64,54.17,0S137.12,133.84,122.16,142.48Z"/><path class="cls-15" d="M103.65,130.62c11-6.36,13.91-15.62,8.7-23.51C98,102.91,80,104.27,68,111.2c-11,6.36-13.91,15.62-8.7,23.51C73.65,138.91,91.65,137.55,103.65,130.62Z"/><path class="cls-16" d="M122.16,142.48c-15,8.64-39.21,8.64-54.17,0-7.23-4.17-11-9.6-11.2-15.07-.26,5.85,3.47,11.75,11.2,16.21,15,8.64,39.21,8.64,54.17,0,7.73-4.46,11.45-10.36,11.2-16.21C133.11,132.88,129.39,138.3,122.16,142.48Z"/><path class="cls-4" d="M114.3,137.94c-10.62,6.13-27.83,6.13-38.45,0s-10.62-16.07,0-22.2,27.83-6.13,38.45,0S124.92,131.81,114.3,137.94Z"/><path class="cls-5" d="M75.85,117.17c10.62-6.13,27.83-6.13,38.45,0,5,2.88,7.64,6.61,7.93,10.38.33-4.25-2.31-8.57-7.93-11.82-10.62-6.13-27.83-6.13-38.45,0-5.62,3.25-8.27,7.56-7.93,11.82C68.21,123.78,70.85,120.05,75.85,117.17Z"/><path class="cls-5" d="M108.44,119.42l-2.11.6.6.24-2.06,1.19a11.61,11.61,0,0,0-5.22-1.22,10,10,0,0,0-5,1.36,7.8,7.8,0,0,0-1.52,1.1,3.23,3.23,0,0,0-.81,1.16A3.91,3.91,0,0,0,92,125a6.29,6.29,0,0,0,0,1.21l.24,1.92a5.74,5.74,0,0,1,0,1.35,2.41,2.41,0,0,1-.46,1.09,3.68,3.68,0,0,1-1.21,1,2.46,2.46,0,0,1-2.58.19q-.86-.5-.44-1.24A6.7,6.7,0,0,1,90,128.66v-1.44l-1.8.68-2.59-1.1a8.39,8.39,0,0,0-3.07,2.76l-.3-.33v1.41h0c0,1,.75,1.92,2.23,2.87l-1,.59-1.39-.64v1.44l1.25.72,2.44-1.41a10.65,10.65,0,0,0,4.93,1,9.8,9.8,0,0,0,4.65-1.25A7.87,7.87,0,0,0,97,132.72a4,4,0,0,0,.92-1.33,5,5,0,0,0,.34-1.32,7.07,7.07,0,0,0,0-1.4L98,126.81c0-.37,0-.64,0-.81a3.72,3.72,0,0,1,.09-.7,1.63,1.63,0,0,1,.42-.8,3.9,3.9,0,0,1,.9-.68,3.65,3.65,0,0,1,1.38-.44,2.23,2.23,0,0,1,1.38.23,1.28,1.28,0,0,1,.43.33.4.4,0,0,1,.08.24l-2.14.45v1.44l4.34,1.93q.53-.34,1-.63a9.06,9.06,0,0,0,.88-.7,5.18,5.18,0,0,0,.73-.78,2.77,2.77,0,0,0,.41-.85,1.88,1.88,0,0,0,.07-.43h0v0s0,0,0,0v-1.47l-.55.12,0,0a5.13,5.13,0,0,0-1.16-1l2.28-1.32Z"/><path class="cls-13" d="M82.05,133.46l2.42-1.39q-2.48-1.57-2.22-3.19t3.34-3.51L90,127.22a6.7,6.7,0,0,0-2.29,1.85q-.42.74.44,1.24a2.46,2.46,0,0,0,2.58-.19,3.68,3.68,0,0,0,1.21-1,2.41,2.41,0,0,0,.46-1.09,5.74,5.74,0,0,0,0-1.35l-.24-1.92a6.29,6.29,0,0,1,0-1.21,3.91,3.91,0,0,1,.27-1.11,3.23,3.23,0,0,1,.81-1.16,7.79,7.79,0,0,1,1.52-1.1,10,10,0,0,1,5-1.36,11.62,11.62,0,0,1,5.22,1.22l2.29-1.32,1.27.74-2.28,1.32a5.13,5.13,0,0,1,1.16,1,2.5,2.5,0,0,1,.53.95,1.73,1.73,0,0,1,0,.91,2.77,2.77,0,0,1-.41.85,5.18,5.18,0,0,1-.73.78,9.06,9.06,0,0,1-.88.7q-.42.29-1,.63l-4.34-1.93.81-.5q.31-.2.64-.45a2.66,2.66,0,0,0,.47-.43,1.17,1.17,0,0,0,.21-.38.39.39,0,0,0-.07-.37,1.28,1.28,0,0,0-.43-.33,2.23,2.23,0,0,0-1.38-.23,3.65,3.65,0,0,0-1.38.44,3.89,3.89,0,0,0-.9.68,1.63,1.63,0,0,0-.42.8,3.72,3.72,0,0,0-.09.7c0,.17,0,.44,0,.81l.21,1.86a7.07,7.07,0,0,1,0,1.4,5,5,0,0,1-.34,1.32,4,4,0,0,1-.92,1.33,7.87,7.87,0,0,1-1.65,1.23,9.8,9.8,0,0,1-4.65,1.25,10.65,10.65,0,0,1-4.93-1l-2.44,1.41Z"/><path class="cls-5" d="M133.38,120.58h-1.56c-1.75-3.43-5-6.67-9.66-9.38-15-8.64-39.21-8.64-54.17,0-4.69,2.71-7.91,5.95-9.66,9.38H56.77v6.26h0c0,5.66,3.74,11.32,11.22,15.64,15,8.64,39.21,8.64,54.17,0,7.48-4.32,11.22-10,11.22-15.64h0Z"/><path class="cls-13" d="M86.76,105.25A50.76,50.76,0,0,0,68,111.19c-4.69,2.71-7.91,5.95-9.66,9.38H56.77v6.26c0,5.66,3.74,11.32,11.22,15.64a50.76,50.76,0,0,0,18.78,5.95Z"/><path class="cls-4" d="M122.26,142.41c7.41-4.31,11.12-9.94,11.12-15.58v-6.26h-1.56a22.33,22.33,0,0,0-7.69-8.15h-1.87Z"/><g class="cls-14"><path class="cls-4" d="M131.41,119.85a18.27,18.27,0,0,0-1.66-2.4v18.8a18.26,18.26,0,0,0,1.66-2.41Z"/><path class="cls-4" d="M68,111.19a30.16,30.16,0,0,0-5.35,3.89v23.51c.52.48,1.07.95,1.66,1.41V114.52h3.13v27.62l.56.34c.36.21.73.41,1.1.61V114.52h3.13v30.07q.82.35,1.66.68V114.52H77v31.82l1.66.48V114.52h3.13v33.06l1.66.33V114.52H86.6V148.4l1.66.2V114.52H91.4v34.33l1.66.07v-34.4h3.13v34.42l1.66,0V114.52H101v34.16l1.66-.17v-34h3.13v33.55l1.66-.3V114.52h3.13v32.54l1.66-.45V114.52h3.13v31.07q.84-.3,1.66-.64V114.52h3.13v29q.85-.42,1.66-.88V114.52H125v26.15c.59-.42,1.14-.85,1.66-1.29V114.52h.28a31.12,31.12,0,0,0-4.73-3.32,46.1,46.1,0,0,0-11.75-4.63H79.74A46.1,46.1,0,0,0,68,111.19Z"/><path class="cls-4" d="M59.5,118.64a17.13,17.13,0,0,0-1.18,1.94h-.48V132a16.42,16.42,0,0,0,1.66,3Z"/></g><path class="cls-13" d="M122.16,136.22c-15,8.64-39.21,8.64-54.17,0s-15-22.64,0-31.28,39.21-8.64,54.17,0S137.12,127.58,122.16,136.22Z"/><path class="cls-15" d="M103.65,124.36c11-6.36,13.91-15.62,8.7-23.51C98,96.64,80,98,68,104.94c-11,6.36-13.91,15.62-8.7,23.51C73.65,132.65,91.65,131.29,103.65,124.36Z"/><path class="cls-16" d="M122.16,136.22c-15,8.64-39.21,8.64-54.17,0-7.23-4.17-11-9.6-11.2-15.07-.26,5.85,3.47,11.75,11.2,16.21,15,8.64,39.21,8.64,54.17,0,7.73-4.46,11.45-10.36,11.2-16.21C133.11,126.62,129.39,132,122.16,136.22Z"/><path class="cls-4" d="M114.3,131.68c-10.62,6.13-27.83,6.13-38.45,0s-10.62-16.07,0-22.2,27.83-6.13,38.45,0S124.92,125.55,114.3,131.68Z"/><path class="cls-5" d="M75.85,110.91c10.62-6.13,27.83-6.13,38.45,0,5,2.88,7.64,6.61,7.93,10.38.33-4.25-2.31-8.57-7.93-11.82-10.62-6.13-27.83-6.13-38.45,0-5.62,3.25-8.27,7.56-7.93,11.82C68.21,117.52,70.85,113.79,75.85,110.91Z"/><path class="cls-5" d="M108.44,113.16l-2.11.6.6.24-2.06,1.19A11.62,11.62,0,0,0,99.66,114a10,10,0,0,0-5,1.36,7.8,7.8,0,0,0-1.52,1.1,3.23,3.23,0,0,0-.81,1.16,3.91,3.91,0,0,0-.27,1.11,6.29,6.29,0,0,0,0,1.21l.24,1.92a5.74,5.74,0,0,1,0,1.35,2.41,2.41,0,0,1-.46,1.09,3.68,3.68,0,0,1-1.21,1,2.46,2.46,0,0,1-2.58.19q-.86-.5-.44-1.24A6.7,6.7,0,0,1,90,122.4V121l-1.8.68-2.59-1.1a8.39,8.39,0,0,0-3.07,2.76l-.3-.33v1.41h0c0,1,.75,1.92,2.23,2.87l-1,.59-1.39-.64v1.44l1.25.72L85.74,128a10.65,10.65,0,0,0,4.93,1,9.8,9.8,0,0,0,4.65-1.25A7.87,7.87,0,0,0,97,126.46a4,4,0,0,0,.92-1.33,5,5,0,0,0,.34-1.32,7.07,7.07,0,0,0,0-1.4L98,120.55c0-.37,0-.64,0-.81a3.72,3.72,0,0,1,.09-.7,1.63,1.63,0,0,1,.42-.8,3.89,3.89,0,0,1,.9-.68,3.65,3.65,0,0,1,1.38-.44,2.23,2.23,0,0,1,1.38.23,1.28,1.28,0,0,1,.43.33.4.4,0,0,1,.08.24l-2.14.45v1.44l4.34,1.93q.53-.34,1-.63a9.06,9.06,0,0,0,.88-.7,5.18,5.18,0,0,0,.73-.78,2.77,2.77,0,0,0,.41-.85,1.88,1.88,0,0,0,.07-.43h0v0s0,0,0,0v-1.47l-.55.12,0,0a5.13,5.13,0,0,0-1.16-1l2.28-1.32Z"/><path class="cls-13" d="M82.05,127.2l2.42-1.39q-2.48-1.57-2.22-3.19t3.34-3.51L90,121a6.7,6.7,0,0,0-2.29,1.85q-.42.74.44,1.24a2.46,2.46,0,0,0,2.58-.19,3.68,3.68,0,0,0,1.21-1,2.41,2.41,0,0,0,.46-1.09,5.74,5.74,0,0,0,0-1.35l-.24-1.92a6.29,6.29,0,0,1,0-1.21,3.91,3.91,0,0,1,.27-1.11,3.23,3.23,0,0,1,.81-1.16,7.8,7.8,0,0,1,1.52-1.1,10,10,0,0,1,5-1.36,11.61,11.61,0,0,1,5.22,1.22l2.29-1.32,1.27.74-2.28,1.32a5.13,5.13,0,0,1,1.16,1,2.5,2.5,0,0,1,.53.95,1.73,1.73,0,0,1,0,.91,2.77,2.77,0,0,1-.41.85,5.18,5.18,0,0,1-.73.78,9.06,9.06,0,0,1-.88.7q-.42.29-1,.63l-4.34-1.93.81-.5q.31-.2.64-.45a2.66,2.66,0,0,0,.47-.43,1.17,1.17,0,0,0,.21-.38.39.39,0,0,0-.07-.37,1.28,1.28,0,0,0-.43-.33,2.23,2.23,0,0,0-1.38-.23,3.65,3.65,0,0,0-1.38.44,3.89,3.89,0,0,0-.9.68,1.63,1.63,0,0,0-.42.8,3.72,3.72,0,0,0-.09.7c0,.17,0,.44,0,.81l.21,1.86a7.07,7.07,0,0,1,0,1.4,5,5,0,0,1-.34,1.32A4,4,0,0,1,97,125a7.87,7.87,0,0,1-1.65,1.23,9.8,9.8,0,0,1-4.65,1.25,10.65,10.65,0,0,1-4.93-1l-2.44,1.41Z"/><path class="cls-5" d="M133.38,114.32h-1.56c-1.75-3.43-5-6.67-9.66-9.38-15-8.64-39.21-8.64-54.17,0-4.69,2.71-7.91,5.95-9.66,9.38H56.77v6.26h0c0,5.66,3.74,11.32,11.22,15.64,15,8.64,39.21,8.64,54.17,0,7.48-4.32,11.22-10,11.22-15.64h0Z"/><path class="cls-13" d="M86.76,99A50.76,50.76,0,0,0,68,104.93c-4.69,2.71-7.91,5.95-9.66,9.38H56.77v6.26c0,5.66,3.74,11.32,11.22,15.64a50.77,50.77,0,0,0,18.78,5.95Z"/><path class="cls-4" d="M122.26,136.15c7.41-4.31,11.12-9.94,11.12-15.58v-6.26h-1.56a22.33,22.33,0,0,0-7.69-8.15h-1.87Z"/><g class="cls-14"><path class="cls-4" d="M131.41,113.59a18.27,18.27,0,0,0-1.66-2.4V130a18.26,18.26,0,0,0,1.66-2.41Z"/><path class="cls-4" d="M68,104.93a30.17,30.17,0,0,0-5.35,3.89v23.51c.52.48,1.07.95,1.66,1.41V108.26h3.13v27.62l.56.34c.36.21.73.41,1.1.61V108.26h3.13v30.07q.82.35,1.66.68V108.26H77v31.82l1.66.48V108.26h3.13v33.06l1.66.33V108.26H86.6v33.88l1.66.2V108.26H91.4v34.33l1.66.07v-34.4h3.13v34.42l1.66,0V108.26H101v34.16l1.66-.17v-34h3.13v33.55l1.66-.3V108.26h3.13V140.8l1.66-.45V108.26h3.13v31.07q.84-.3,1.66-.64V108.26h3.13v29q.85-.42,1.66-.88V108.26H125v26.15c.59-.42,1.14-.85,1.66-1.29V108.26h.28a31.12,31.12,0,0,0-4.73-3.32,46.1,46.1,0,0,0-11.75-4.63H79.74A46.1,46.1,0,0,0,68,104.93Z"/><path class="cls-4" d="M59.5,112.38a17.14,17.14,0,0,0-1.18,1.94h-.48v11.47a16.42,16.42,0,0,0,1.66,3Z"/></g><path class="cls-13" d="M122.16,130c-15,8.64-39.21,8.64-54.17,0s-15-22.64,0-31.28,39.21-8.64,54.17,0S137.12,121.32,122.16,130Z"/><path class="cls-15" d="M103.65,118.1c11-6.36,13.91-15.62,8.7-23.51C98,90.38,80,91.75,68,98.68c-11,6.36-13.91,15.62-8.7,23.51C73.65,126.39,91.65,125,103.65,118.1Z"/><path class="cls-16" d="M122.16,130c-15,8.64-39.21,8.64-54.17,0-7.23-4.17-11-9.6-11.2-15.07-.26,5.85,3.47,11.75,11.2,16.21,15,8.64,39.21,8.64,54.17,0,7.73-4.46,11.45-10.36,11.2-16.21C133.11,120.36,129.39,125.78,122.16,130Z"/><path class="cls-4" d="M114.3,125.42c-10.62,6.13-27.83,6.13-38.45,0s-10.62-16.07,0-22.2,27.83-6.13,38.45,0S124.92,119.29,114.3,125.42Z"/><path class="cls-5" d="M75.85,104.65c10.62-6.13,27.83-6.13,38.45,0,5,2.88,7.64,6.61,7.93,10.38.33-4.25-2.31-8.57-7.93-11.82-10.62-6.13-27.83-6.13-38.45,0-5.62,3.25-8.27,7.56-7.93,11.82C68.21,111.26,70.85,107.53,75.85,104.65Z"/><path class="cls-5" d="M108.44,106.9l-2.11.6.6.24-2.06,1.19a11.61,11.61,0,0,0-5.22-1.22,10,10,0,0,0-5,1.36,7.79,7.79,0,0,0-1.52,1.1,3.23,3.23,0,0,0-.81,1.16,3.91,3.91,0,0,0-.27,1.11,6.29,6.29,0,0,0,0,1.21l.24,1.92a5.74,5.74,0,0,1,0,1.35,2.41,2.41,0,0,1-.46,1.09,3.68,3.68,0,0,1-1.21,1,2.46,2.46,0,0,1-2.58.19q-.86-.5-.44-1.24A6.7,6.7,0,0,1,90,116.14V114.7l-1.8.68-2.59-1.1A8.39,8.39,0,0,0,82.52,117l-.3-.33v1.41h0c0,1,.75,1.92,2.23,2.87l-1,.59-1.39-.64v1.44l1.25.72,2.44-1.41a10.65,10.65,0,0,0,4.93,1,9.8,9.8,0,0,0,4.65-1.25A7.87,7.87,0,0,0,97,120.2a4,4,0,0,0,.92-1.33,5,5,0,0,0,.34-1.32,7.07,7.07,0,0,0,0-1.4L98,114.29c0-.37,0-.64,0-.81a3.72,3.72,0,0,1,.09-.7,1.63,1.63,0,0,1,.42-.8,3.89,3.89,0,0,1,.9-.68,3.65,3.65,0,0,1,1.38-.44,2.23,2.23,0,0,1,1.38.23,1.28,1.28,0,0,1,.43.33.4.4,0,0,1,.08.24l-2.14.45v1.44l4.34,1.93q.53-.34,1-.63a9.06,9.06,0,0,0,.88-.7,5.18,5.18,0,0,0,.73-.78,2.77,2.77,0,0,0,.41-.85,1.88,1.88,0,0,0,.07-.43h0v0s0,0,0,0v-1.47l-.55.12,0,0a5.13,5.13,0,0,0-1.16-1l2.28-1.32Z"/><path class="cls-13" d="M82.05,120.94l2.42-1.39Q82,118,82.25,116.35t3.34-3.51L90,114.7a6.7,6.7,0,0,0-2.29,1.85q-.42.74.44,1.24a2.46,2.46,0,0,0,2.58-.19,3.68,3.68,0,0,0,1.21-1,2.41,2.41,0,0,0,.46-1.09,5.74,5.74,0,0,0,0-1.35l-.24-1.92A6.29,6.29,0,0,1,92,111a3.91,3.91,0,0,1,.27-1.11,3.23,3.23,0,0,1,.81-1.16,7.8,7.8,0,0,1,1.52-1.1,10,10,0,0,1,5-1.36,11.62,11.62,0,0,1,5.22,1.22l2.29-1.32,1.27.74-2.28,1.32a5.13,5.13,0,0,1,1.16,1,2.49,2.49,0,0,1,.53.95,1.73,1.73,0,0,1,0,.91,2.77,2.77,0,0,1-.41.85,5.18,5.18,0,0,1-.73.78,9.06,9.06,0,0,1-.88.7q-.42.29-1,.63l-4.34-1.93.81-.5q.31-.2.64-.45a2.66,2.66,0,0,0,.47-.43,1.17,1.17,0,0,0,.21-.38.39.39,0,0,0-.07-.37,1.28,1.28,0,0,0-.43-.33,2.23,2.23,0,0,0-1.38-.23,3.65,3.65,0,0,0-1.38.44,3.89,3.89,0,0,0-.9.68,1.63,1.63,0,0,0-.42.8,3.72,3.72,0,0,0-.09.7c0,.17,0,.44,0,.81l.21,1.86a7.07,7.07,0,0,1,0,1.4,5,5,0,0,1-.34,1.32,4,4,0,0,1-.92,1.33A7.87,7.87,0,0,1,95.33,120a9.8,9.8,0,0,1-4.65,1.25,10.65,10.65,0,0,1-4.93-1l-2.44,1.41Z"/><path class="cls-5" d="M133.38,108.06h-1.56c-1.75-3.43-5-6.67-9.66-9.38C107.2,90,82.94,90,68,98.67c-4.69,2.71-7.91,5.95-9.66,9.38H56.77v6.26h0c0,5.66,3.74,11.32,11.22,15.64,15,8.64,39.21,8.64,54.17,0,7.48-4.32,11.22-10,11.22-15.64h0Z"/><path class="cls-13" d="M86.76,92.73A50.76,50.76,0,0,0,68,98.67c-4.69,2.71-7.91,5.95-9.66,9.38H56.77v6.26c0,5.66,3.74,11.32,11.22,15.64a50.77,50.77,0,0,0,18.78,5.95Z"/><path class="cls-4" d="M122.26,129.89c7.41-4.31,11.12-9.94,11.12-15.58v-6.26h-1.56a22.33,22.33,0,0,0-7.69-8.15h-1.87Z"/><g class="cls-14"><path class="cls-4" d="M131.41,107.33a18.28,18.28,0,0,0-1.66-2.4v18.8a18.26,18.26,0,0,0,1.66-2.41Z"/><path class="cls-4" d="M68,98.67a30.17,30.17,0,0,0-5.35,3.89v23.51c.52.48,1.07.95,1.66,1.41V102h3.13v27.62l.56.34c.36.21.73.41,1.1.61V102h3.13v30.07q.82.35,1.66.68V102H77v31.82q.82.25,1.66.48V102h3.13v33.06l1.66.33V102H86.6v33.88l1.66.2V102H91.4v34.33l1.66.07V102h3.13v34.42l1.66,0V102H101v34.16l1.66-.17V102h3.13v33.55l1.66-.3V102h3.13v32.54l1.66-.45V102h3.13v31.07q.84-.3,1.66-.64V102h3.13v29q.85-.42,1.66-.88V102H125v26.15c.59-.42,1.14-.85,1.66-1.29V102h.28a31.11,31.11,0,0,0-4.73-3.32A46.09,46.09,0,0,0,110.4,94H79.74A46.1,46.1,0,0,0,68,98.67Z"/><path class="cls-4" d="M59.5,106.12a17.14,17.14,0,0,0-1.18,1.94h-.48v11.47a16.42,16.42,0,0,0,1.66,3Z"/></g><path class="cls-13" d="M122.16,123.7c-15,8.64-39.21,8.64-54.17,0s-15-22.64,0-31.28,39.21-8.64,54.17,0S137.12,115.06,122.16,123.7Z"/><path class="cls-15" d="M103.65,111.84c11-6.36,13.91-15.62,8.7-23.51C98,84.12,80,85.49,68,92.42c-11,6.36-13.91,15.62-8.7,23.51C73.65,120.13,91.65,118.77,103.65,111.84Z"/><path class="cls-16" d="M122.16,123.7c-15,8.64-39.21,8.64-54.17,0-7.23-4.17-11-9.6-11.2-15.07-.26,5.85,3.47,11.75,11.2,16.21,15,8.64,39.21,8.64,54.17,0,7.73-4.46,11.45-10.36,11.2-16.21C133.11,114.1,129.39,119.52,122.16,123.7Z"/><path class="cls-4" d="M114.3,119.16c-10.62,6.13-27.83,6.13-38.45,0s-10.62-16.07,0-22.2,27.83-6.13,38.45,0S124.92,113,114.3,119.16Z"/><path class="cls-5" d="M75.85,98.39c10.62-6.13,27.83-6.13,38.45,0,5,2.88,7.64,6.61,7.93,10.38.33-4.25-2.31-8.57-7.93-11.82-10.62-6.13-27.83-6.13-38.45,0-5.62,3.25-8.27,7.56-7.93,11.82C68.21,105,70.85,101.27,75.85,98.39Z"/><path class="cls-5" d="M108.44,100.64l-2.11.6.6.24-2.06,1.19a11.62,11.62,0,0,0-5.22-1.22,10,10,0,0,0-5,1.36,7.8,7.8,0,0,0-1.52,1.1,3.23,3.23,0,0,0-.81,1.16,3.91,3.91,0,0,0-.27,1.11,6.29,6.29,0,0,0,0,1.21l.24,1.92a5.74,5.74,0,0,1,0,1.35,2.41,2.41,0,0,1-.46,1.09,3.68,3.68,0,0,1-1.21,1,2.46,2.46,0,0,1-2.58.19q-.86-.5-.44-1.24A6.7,6.7,0,0,1,90,109.88v-1.44l-1.8.68L85.6,108a8.39,8.39,0,0,0-3.07,2.76l-.3-.33v1.41h0c0,1,.75,1.92,2.23,2.87l-1,.59-1.39-.64v1.44l1.25.72,2.44-1.41a10.65,10.65,0,0,0,4.93,1,9.8,9.8,0,0,0,4.65-1.25A7.87,7.87,0,0,0,97,113.94a4,4,0,0,0,.92-1.33,5,5,0,0,0,.34-1.32,7.07,7.07,0,0,0,0-1.4L98,108c0-.37,0-.64,0-.81a3.72,3.72,0,0,1,.09-.7,1.63,1.63,0,0,1,.42-.8,3.89,3.89,0,0,1,.9-.68,3.65,3.65,0,0,1,1.38-.44,2.23,2.23,0,0,1,1.38.23,1.28,1.28,0,0,1,.43.33.4.4,0,0,1,.08.24l-2.14.45v1.44l4.34,1.93q.53-.34,1-.63a9.07,9.07,0,0,0,.88-.7,5.18,5.18,0,0,0,.73-.78,2.77,2.77,0,0,0,.41-.85,1.88,1.88,0,0,0,.07-.43h0v0s0,0,0,0v-1.47l-.55.12,0,0a5.13,5.13,0,0,0-1.16-1l2.28-1.32Z"/><path class="cls-13" d="M82.05,114.68l2.42-1.39q-2.48-1.57-2.22-3.19t3.34-3.51L90,108.44a6.7,6.7,0,0,0-2.29,1.85q-.42.74.44,1.24a2.46,2.46,0,0,0,2.58-.19,3.68,3.68,0,0,0,1.21-1,2.41,2.41,0,0,0,.46-1.09,5.74,5.74,0,0,0,0-1.35L92.09,106a6.29,6.29,0,0,1,0-1.21,3.91,3.91,0,0,1,.27-1.11,3.23,3.23,0,0,1,.81-1.16,7.79,7.79,0,0,1,1.52-1.1,10,10,0,0,1,5-1.36,11.61,11.61,0,0,1,5.22,1.22l2.29-1.32,1.27.74L106.16,102a5.13,5.13,0,0,1,1.16,1,2.5,2.5,0,0,1,.53.95,1.73,1.73,0,0,1,0,.91,2.77,2.77,0,0,1-.41.85,5.18,5.18,0,0,1-.73.78,9.06,9.06,0,0,1-.88.7q-.42.29-1,.63l-4.34-1.93.81-.5q.31-.2.64-.45a2.66,2.66,0,0,0,.47-.43,1.17,1.17,0,0,0,.21-.38.39.39,0,0,0-.07-.37,1.28,1.28,0,0,0-.43-.33,2.23,2.23,0,0,0-1.38-.23,3.65,3.65,0,0,0-1.38.44,3.89,3.89,0,0,0-.9.68,1.63,1.63,0,0,0-.42.8,3.72,3.72,0,0,0-.09.7c0,.17,0,.44,0,.81l.21,1.86a7.07,7.07,0,0,1,0,1.4,5,5,0,0,1-.34,1.32A4,4,0,0,1,97,112.5a7.87,7.87,0,0,1-1.65,1.23A9.8,9.8,0,0,1,90.67,115a10.65,10.65,0,0,1-4.93-1L83.3,115.4Z"/><path class="cls-5" d="M133.38,101.8h-1.56c-1.75-3.43-5-6.67-9.66-9.38-15-8.64-39.21-8.64-54.17,0-4.69,2.71-7.91,5.95-9.66,9.38H56.77v6.26h0c0,5.66,3.74,11.32,11.22,15.64,15,8.64,39.21,8.64,54.17,0,7.48-4.32,11.22-10,11.22-15.64h0Z"/><path class="cls-13" d="M86.76,86.47A50.76,50.76,0,0,0,68,92.41c-4.69,2.71-7.91,5.95-9.66,9.38H56.77v6.26c0,5.66,3.74,11.32,11.22,15.64a50.76,50.76,0,0,0,18.78,5.95Z"/><path class="cls-4" d="M122.26,123.63c7.41-4.31,11.12-9.94,11.12-15.58V101.8h-1.56a22.33,22.33,0,0,0-7.69-8.15h-1.87Z"/><g class="cls-14"><path class="cls-4" d="M131.41,101.07a18.27,18.27,0,0,0-1.66-2.4v18.8a18.26,18.26,0,0,0,1.66-2.41Z"/><path class="cls-4" d="M68,92.41a30.17,30.17,0,0,0-5.35,3.89v23.51c.52.48,1.07.95,1.66,1.41V95.74h3.13v27.62l.56.34c.36.21.73.41,1.1.61V95.74h3.13V125.8q.82.35,1.66.68V95.74H77v31.82l1.66.48V95.74h3.13V128.8l1.66.33V95.74H86.6v33.88l1.66.2V95.74H91.4v34.33l1.66.07V95.74h3.13v34.42l1.66,0V95.74H101V129.9l1.66-.17v-34h3.13v33.55l1.66-.3V95.74h3.13v32.54l1.66-.45V95.74h3.13v31.07q.84-.3,1.66-.64V95.74h3.13v29q.85-.42,1.66-.88V95.74H125v26.15c.59-.42,1.14-.85,1.66-1.29V95.74h.28a31.12,31.12,0,0,0-4.73-3.32,46.1,46.1,0,0,0-11.75-4.63H79.74A46.1,46.1,0,0,0,68,92.41Z"/><path class="cls-4" d="M59.5,99.86a17.13,17.13,0,0,0-1.18,1.94h-.48v11.47a16.42,16.42,0,0,0,1.66,3Z"/></g><path class="cls-13" d="M122.16,117.43c-15,8.64-39.21,8.64-54.17,0S53,94.79,68,86.16s39.21-8.64,54.17,0S137.12,108.8,122.16,117.43Z"/><path class="cls-15" d="M103.65,105.58c11-6.36,13.91-15.62,8.7-23.51C98,77.86,80,79.23,68,86.16c-11,6.36-13.91,15.62-8.7,23.51C73.65,113.87,91.65,112.51,103.65,105.58Z"/><path class="cls-16" d="M122.16,117.43c-15,8.64-39.21,8.64-54.17,0-7.23-4.17-11-9.6-11.2-15.07-.26,5.85,3.47,11.75,11.2,16.21,15,8.64,39.21,8.64,54.17,0,7.73-4.46,11.45-10.36,11.2-16.21C133.11,107.84,129.39,113.26,122.16,117.43Z"/><path class="cls-4" d="M114.3,112.9c-10.62,6.13-27.83,6.13-38.45,0s-10.62-16.07,0-22.2,27.83-6.13,38.45,0S124.92,106.77,114.3,112.9Z"/><path class="cls-5" d="M75.85,92.13c10.62-6.13,27.83-6.13,38.45,0,5,2.88,7.64,6.61,7.93,10.38.33-4.25-2.31-8.57-7.93-11.82-10.62-6.13-27.83-6.13-38.45,0-5.62,3.25-8.27,7.56-7.93,11.82C68.21,98.74,70.85,95,75.85,92.13Z"/><path class="cls-5" d="M108.44,94.38l-2.11.6.6.24-2.06,1.19a11.61,11.61,0,0,0-5.22-1.22,10,10,0,0,0-5,1.36,7.8,7.8,0,0,0-1.52,1.1,3.23,3.23,0,0,0-.81,1.16A3.91,3.91,0,0,0,92,99.93a6.29,6.29,0,0,0,0,1.21l.24,1.92a5.74,5.74,0,0,1,0,1.35,2.41,2.41,0,0,1-.46,1.09,3.68,3.68,0,0,1-1.21,1,2.46,2.46,0,0,1-2.58.19q-.86-.5-.44-1.24A6.7,6.7,0,0,1,90,103.62v-1.44l-1.8.68-2.59-1.1a8.39,8.39,0,0,0-3.07,2.76l-.3-.33v1.41h0c0,1,.75,1.92,2.23,2.87l-1,.59-1.39-.64v1.44l1.25.72,2.44-1.41a10.65,10.65,0,0,0,4.93,1,9.8,9.8,0,0,0,4.65-1.25A7.87,7.87,0,0,0,97,107.68a4,4,0,0,0,.92-1.33,5,5,0,0,0,.34-1.32,7.07,7.07,0,0,0,0-1.4L98,101.77c0-.37,0-.64,0-.81a3.72,3.72,0,0,1,.09-.7,1.63,1.63,0,0,1,.42-.8,3.89,3.89,0,0,1,.9-.68,3.65,3.65,0,0,1,1.38-.44,2.23,2.23,0,0,1,1.38.23,1.28,1.28,0,0,1,.43.33.4.4,0,0,1,.08.24l-2.14.45V101l4.34,1.93q.53-.34,1-.63a9,9,0,0,0,.88-.7,5.18,5.18,0,0,0,.73-.78,2.77,2.77,0,0,0,.41-.85,1.88,1.88,0,0,0,.07-.43h0v0s0,0,0,0V98l-.55.12,0,0a5.13,5.13,0,0,0-1.16-1l2.28-1.32Z"/><path class="cls-13" d="M82.05,108.42,84.47,107q-2.48-1.57-2.22-3.19t3.34-3.51L90,102.18A6.7,6.7,0,0,0,87.69,104q-.42.74.44,1.24a2.46,2.46,0,0,0,2.58-.19,3.68,3.68,0,0,0,1.21-1,2.41,2.41,0,0,0,.46-1.09,5.74,5.74,0,0,0,0-1.35l-.24-1.92a6.29,6.29,0,0,1,0-1.21,3.91,3.91,0,0,1,.27-1.11,3.23,3.23,0,0,1,.81-1.16,7.8,7.8,0,0,1,1.52-1.1,10,10,0,0,1,5-1.36A11.62,11.62,0,0,1,104.88,95l2.29-1.32,1.27.74-2.28,1.32a5.13,5.13,0,0,1,1.16,1,2.5,2.5,0,0,1,.53.95,1.73,1.73,0,0,1,0,.91,2.77,2.77,0,0,1-.41.85,5.18,5.18,0,0,1-.73.78,9.06,9.06,0,0,1-.88.7q-.42.29-1,.63l-4.34-1.93.81-.5q.31-.2.64-.45a2.66,2.66,0,0,0,.47-.43,1.17,1.17,0,0,0,.21-.38.39.39,0,0,0-.07-.37,1.28,1.28,0,0,0-.43-.33,2.23,2.23,0,0,0-1.38-.23,3.65,3.65,0,0,0-1.38.44,3.89,3.89,0,0,0-.9.68,1.63,1.63,0,0,0-.42.8,3.72,3.72,0,0,0-.09.7c0,.17,0,.44,0,.81l.21,1.86a7.07,7.07,0,0,1,0,1.4,5,5,0,0,1-.34,1.32,4,4,0,0,1-.92,1.33,7.87,7.87,0,0,1-1.65,1.23,9.8,9.8,0,0,1-4.65,1.25,10.65,10.65,0,0,1-4.93-1l-2.44,1.41Z"/><path class="cls-5" d="M136.11,95.54h-1.56c-1.75-3.43-5-6.67-9.66-9.38-15-8.64-39.21-8.64-54.17,0-4.69,2.71-7.91,5.95-9.66,9.38H59.5v6.26h0c0,5.66,3.74,11.32,11.22,15.64,15,8.64,39.21,8.64,54.17,0,7.48-4.32,11.22-10,11.22-15.64h0Z"/><path class="cls-13" d="M89.5,80.21a50.76,50.76,0,0,0-18.78,5.95c-4.69,2.71-7.91,5.95-9.66,9.38H59.5v6.26c0,5.66,3.74,11.32,11.22,15.64a50.77,50.77,0,0,0,18.78,5.95Z"/><path class="cls-4" d="M125,117.37c7.41-4.31,11.12-9.94,11.11-15.58V95.54h-1.56a22.33,22.33,0,0,0-7.69-8.15H125Z"/><g class="cls-14"><path class="cls-4" d="M134.14,94.81a18.28,18.28,0,0,0-1.66-2.4v18.8a18.26,18.26,0,0,0,1.66-2.41Z"/><path class="cls-4" d="M70.72,86.15A30.17,30.17,0,0,0,65.37,90v23.51c.52.48,1.07.95,1.66,1.41V89.48h3.13v27.62l.56.34c.36.21.73.41,1.1.61V89.48H75v30.07q.82.35,1.66.68V89.48h3.13V121.3l1.66.48V89.48h3.13v33.06l1.66.33V89.48h3.13v33.88l1.66.2V89.48h3.13v34.33l1.66.07V89.48h3.13v34.42l1.66,0V89.48h3.13v34.16l1.66-.17v-34h3.13V123l1.66-.3V89.48h3.13V122l1.66-.45V89.48h3.13v31.07q.84-.3,1.66-.64V89.48h3.13v29q.85-.42,1.66-.88V89.48h3.13v26.15c.59-.42,1.14-.85,1.66-1.29V89.48h.28a31.12,31.12,0,0,0-4.73-3.32,46.1,46.1,0,0,0-11.75-4.63H82.48A46.09,46.09,0,0,0,70.72,86.15Z"/><path class="cls-4" d="M62.24,93.6a17.17,17.17,0,0,0-1.18,1.94h-.48V107a16.43,16.43,0,0,0,1.66,3Z"/></g><path class="cls-13" d="M124.89,111.17c-15,8.64-39.21,8.64-54.17,0s-15-22.64,0-31.28,39.21-8.64,54.17,0S139.85,102.54,124.89,111.17Z"/><path class="cls-15" d="M106.39,99.32c11-6.36,13.91-15.62,8.7-23.51C100.72,71.6,82.73,73,70.72,79.9c-11,6.36-13.91,15.62-8.7,23.51C76.39,107.61,94.38,106.25,106.39,99.32Z"/><path class="cls-16" d="M124.89,111.17c-15,8.64-39.21,8.64-54.17,0-7.23-4.17-11-9.6-11.2-15.07-.26,5.85,3.47,11.75,11.2,16.21,15,8.64,39.21,8.64,54.17,0,7.73-4.46,11.45-10.36,11.2-16.21C135.85,101.58,132.12,107,124.89,111.17Z"/><path class="cls-4" d="M117,106.64c-10.62,6.13-27.83,6.13-38.45,0s-10.62-16.07,0-22.2,27.83-6.13,38.45,0S127.65,100.51,117,106.64Z"/><path class="cls-5" d="M78.58,85.87c10.62-6.13,27.83-6.13,38.45,0,5,2.88,7.64,6.61,7.93,10.38.33-4.25-2.31-8.57-7.93-11.82-10.62-6.13-27.83-6.13-38.45,0C73,87.68,70.31,92,70.65,96.25,70.95,92.48,73.59,88.75,78.58,85.87Z"/><path class="cls-5" d="M111.18,88.12l-2.11.6.6.24-2.06,1.19a11.61,11.61,0,0,0-5.22-1.22,10,10,0,0,0-5,1.36,7.79,7.79,0,0,0-1.52,1.1A3.23,3.23,0,0,0,95,92.55a3.91,3.91,0,0,0-.27,1.11,6.29,6.29,0,0,0,0,1.21l.24,1.92a5.74,5.74,0,0,1,0,1.35,2.41,2.41,0,0,1-.46,1.09,3.68,3.68,0,0,1-1.21,1,2.46,2.46,0,0,1-2.58.19q-.86-.5-.44-1.24a6.69,6.69,0,0,1,2.29-1.85V95.92l-1.8.68-2.59-1.1a8.39,8.39,0,0,0-3.07,2.76l-.3-.33v1.41h0c0,1,.75,1.92,2.23,2.87l-1,.59-1.39-.64v1.44l1.25.72,2.44-1.41a10.65,10.65,0,0,0,4.93,1,9.8,9.8,0,0,0,4.65-1.25,7.87,7.87,0,0,0,1.65-1.23,4,4,0,0,0,.92-1.33,5,5,0,0,0,.34-1.32,7.07,7.07,0,0,0,0-1.4l-.21-1.86c0-.37,0-.64,0-.81a3.72,3.72,0,0,1,.09-.7,1.63,1.63,0,0,1,.42-.8,3.89,3.89,0,0,1,.9-.68,3.65,3.65,0,0,1,1.38-.44,2.23,2.23,0,0,1,1.38.23,1.28,1.28,0,0,1,.43.33.4.4,0,0,1,.08.24l-2.14.45v1.44l4.34,1.93q.53-.34,1-.63a9.06,9.06,0,0,0,.88-.7,5.18,5.18,0,0,0,.73-.78,2.77,2.77,0,0,0,.41-.85,1.88,1.88,0,0,0,.07-.43h0v0s0,0,0,0V91.78l-.55.12,0,0a5.13,5.13,0,0,0-1.16-1l2.28-1.32Z"/><path class="cls-13" d="M84.79,102.16l2.42-1.39Q84.73,99.19,85,97.57t3.34-3.51l4.39,1.86a6.7,6.7,0,0,0-2.29,1.85q-.42.74.44,1.24a2.46,2.46,0,0,0,2.58-.19,3.68,3.68,0,0,0,1.21-1,2.41,2.41,0,0,0,.46-1.09,5.74,5.74,0,0,0,0-1.35l-.24-1.92a6.28,6.28,0,0,1,0-1.21A3.91,3.91,0,0,1,95,91.11,3.23,3.23,0,0,1,95.86,90a7.8,7.8,0,0,1,1.52-1.1,10,10,0,0,1,5-1.36,11.61,11.61,0,0,1,5.22,1.22l2.29-1.32,1.27.74-2.28,1.32a5.13,5.13,0,0,1,1.16,1,2.5,2.5,0,0,1,.53.95,1.73,1.73,0,0,1,0,.91,2.77,2.77,0,0,1-.41.85,5.18,5.18,0,0,1-.73.78,9,9,0,0,1-.88.7q-.42.29-1,.63l-4.34-1.93.81-.5q.32-.2.64-.45a2.66,2.66,0,0,0,.47-.43,1.17,1.17,0,0,0,.21-.38.39.39,0,0,0-.07-.37,1.28,1.28,0,0,0-.43-.33,2.23,2.23,0,0,0-1.38-.23,3.65,3.65,0,0,0-1.38.44,3.89,3.89,0,0,0-.9.68,1.63,1.63,0,0,0-.42.8,3.72,3.72,0,0,0-.09.7c0,.17,0,.44,0,.81l.21,1.86a7.07,7.07,0,0,1,0,1.4,5,5,0,0,1-.34,1.32,4,4,0,0,1-.92,1.33,7.88,7.88,0,0,1-1.65,1.23,9.8,9.8,0,0,1-4.65,1.25,10.65,10.65,0,0,1-4.93-1L86,102.88Z"/><path class="cls-5" d="M128.42,87.9h-1.56c-1.75-3.43-5-6.67-9.66-9.38-15-8.64-39.21-8.64-54.17,0-4.69,2.71-7.91,5.95-9.66,9.38H51.81v6.26h0c0,5.66,3.74,11.32,11.22,15.64,15,8.64,39.21,8.64,54.17,0,7.48-4.32,11.22-10,11.22-15.64h0Z"/><path class="cls-13" d="M81.81,72.57A50.77,50.77,0,0,0,63,78.51c-4.69,2.71-7.91,5.95-9.66,9.38H51.81v6.26c0,5.66,3.74,11.32,11.22,15.64a50.76,50.76,0,0,0,18.78,5.95Z"/><path class="cls-4" d="M117.31,109.73c7.41-4.31,11.12-9.94,11.11-15.58V87.9h-1.56a22.33,22.33,0,0,0-7.69-8.15h-1.87Z"/><g class="cls-14"><path class="cls-4" d="M126.45,87.17a18.28,18.28,0,0,0-1.66-2.4v18.8a18.27,18.27,0,0,0,1.66-2.41Z"/><path class="cls-4" d="M63,78.51a30.18,30.18,0,0,0-5.35,3.89v23.51c.52.48,1.07.95,1.66,1.41V81.84h3.13v27.62l.56.34c.36.21.73.41,1.1.61V81.84h3.13V111.9q.82.35,1.66.68V81.84h3.13v31.82l1.66.48V81.84h3.13V114.9l1.66.33V81.84h3.13v33.88l1.66.2V81.84h3.13v34.33l1.66.07V81.84h3.13v34.42l1.66,0V81.84H96V116l1.66-.17v-34h3.13v33.55l1.66-.3V81.84h3.13v32.54l1.66-.45V81.84h3.13v31.07q.84-.3,1.66-.64V81.84h3.13v29q.85-.42,1.66-.88V81.84H120V108c.59-.42,1.14-.85,1.66-1.29V81.84h.28a31.11,31.11,0,0,0-4.73-3.32,46.1,46.1,0,0,0-11.75-4.63H74.78A46.1,46.1,0,0,0,63,78.51Z"/><path class="cls-4" d="M54.55,86a17.13,17.13,0,0,0-1.18,1.94h-.48V99.36a16.42,16.42,0,0,0,1.66,3Z"/></g><path class="cls-13" d="M117.2,103.53c-15,8.64-39.21,8.64-54.17,0s-15-22.64,0-31.28,39.21-8.64,54.17,0S132.16,94.9,117.2,103.53Z"/><path class="cls-15" d="M98.7,91.68c11-6.36,13.91-15.62,8.7-23.51C93,64,75,65.33,63,72.26c-11,6.36-13.91,15.62-8.7,23.51C68.69,100,86.69,98.61,98.7,91.68Z"/><path class="cls-16" d="M117.2,103.53c-15,8.64-39.21,8.64-54.17,0-7.23-4.17-11-9.6-11.2-15.07-.26,5.85,3.47,11.75,11.2,16.21,15,8.64,39.21,8.64,54.17,0,7.73-4.46,11.45-10.36,11.2-16.21C128.15,93.94,124.43,99.36,117.2,103.53Z"/><path class="cls-4" d="M109.34,99c-10.62,6.13-27.83,6.13-38.45,0s-10.62-16.07,0-22.2,27.83-6.13,38.45,0S120,92.87,109.34,99Z"/><path class="cls-5" d="M70.89,78.23c10.62-6.13,27.83-6.13,38.45,0,5,2.88,7.64,6.61,7.93,10.38.33-4.25-2.31-8.57-7.93-11.82-10.62-6.13-27.83-6.13-38.45,0C65.26,80,62.62,84.36,63,88.61,63.25,84.84,65.9,81.11,70.89,78.23Z"/><path class="cls-5" d="M103.49,80.48l-2.11.6.6.24-2.06,1.19a11.61,11.61,0,0,0-5.22-1.22,10,10,0,0,0-5,1.36,7.79,7.79,0,0,0-1.52,1.1,3.23,3.23,0,0,0-.81,1.16A3.91,3.91,0,0,0,87.08,86a6.29,6.29,0,0,0,0,1.21l.24,1.92a5.74,5.74,0,0,1,0,1.35A2.41,2.41,0,0,1,87,91.59a3.68,3.68,0,0,1-1.21,1,2.46,2.46,0,0,1-2.58.19q-.86-.5-.44-1.24A6.69,6.69,0,0,1,85,89.72V88.28l-1.8.68-2.59-1.1a8.39,8.39,0,0,0-3.07,2.76l-.3-.33V91.7h0c0,1,.75,1.92,2.23,2.87l-1,.59-1.39-.64V96l1.25.72,2.44-1.41a10.65,10.65,0,0,0,4.93,1A9.8,9.8,0,0,0,90.37,95,7.87,7.87,0,0,0,92,93.78a4,4,0,0,0,.92-1.33,5,5,0,0,0,.34-1.32,7.07,7.07,0,0,0,0-1.4l-.21-1.86c0-.37,0-.64,0-.81a3.71,3.71,0,0,1,.09-.7,1.63,1.63,0,0,1,.42-.8,3.89,3.89,0,0,1,.9-.68,3.65,3.65,0,0,1,1.38-.44,2.23,2.23,0,0,1,1.38.23,1.28,1.28,0,0,1,.43.33.4.4,0,0,1,.08.24l-2.14.45v1.44l4.34,1.93q.53-.34,1-.63a9,9,0,0,0,.88-.7,5.18,5.18,0,0,0,.73-.78,2.77,2.77,0,0,0,.41-.85,1.88,1.88,0,0,0,.07-.43h0v0s0,0,0,0V84.15l-.55.12,0,0a5.13,5.13,0,0,0-1.16-1l2.28-1.32Z"/><path class="cls-13" d="M77.1,94.52l2.42-1.39Q77,91.55,77.3,89.93t3.34-3.51L85,88.28a6.69,6.69,0,0,0-2.29,1.85q-.42.74.44,1.24a2.46,2.46,0,0,0,2.58-.19,3.68,3.68,0,0,0,1.21-1,2.41,2.41,0,0,0,.46-1.09,5.74,5.74,0,0,0,0-1.35l-.24-1.92a6.3,6.3,0,0,1,0-1.21,3.92,3.92,0,0,1,.27-1.11,3.23,3.23,0,0,1,.81-1.16,7.8,7.8,0,0,1,1.52-1.1,10,10,0,0,1,5-1.36,11.62,11.62,0,0,1,5.22,1.22l2.29-1.32,1.27.74-2.28,1.32a5.13,5.13,0,0,1,1.16,1,2.49,2.49,0,0,1,.53.95,1.73,1.73,0,0,1,0,.91,2.77,2.77,0,0,1-.41.85,5.18,5.18,0,0,1-.73.78,9.05,9.05,0,0,1-.87.7q-.42.29-1,.63l-4.34-1.93.81-.5q.31-.2.64-.45a2.66,2.66,0,0,0,.47-.43,1.17,1.17,0,0,0,.21-.38.39.39,0,0,0-.07-.37,1.28,1.28,0,0,0-.43-.33A2.23,2.23,0,0,0,95.81,83a3.65,3.65,0,0,0-1.38.44,3.89,3.89,0,0,0-.9.68,1.63,1.63,0,0,0-.42.8,3.71,3.71,0,0,0-.09.7c0,.17,0,.44,0,.81l.21,1.86a7.08,7.08,0,0,1,0,1.4A5,5,0,0,1,92.94,91,4,4,0,0,1,92,92.34a7.87,7.87,0,0,1-1.65,1.23,9.8,9.8,0,0,1-4.65,1.25,10.65,10.65,0,0,1-4.93-1l-2.44,1.41Z"/><path class="cls-5" d="M191.47,167.2h-1.56c-1.75-3.43-5-6.67-9.66-9.38-15-8.64-39.21-8.64-54.17,0-4.69,2.71-7.91,5.95-9.66,9.38h-1.56v6.26h0c0,5.66,3.74,11.32,11.22,15.64,15,8.64,39.21,8.64,54.17,0,7.48-4.32,11.22-10,11.22-15.64h0Z"/><path class="cls-13" d="M144.86,151.87a50.76,50.76,0,0,0-18.78,5.95c-4.69,2.71-7.91,5.95-9.66,9.38h-1.56v6.26c0,5.66,3.74,11.32,11.22,15.64A50.77,50.77,0,0,0,144.86,195Z"/><path class="cls-4" d="M180.36,189c7.41-4.31,11.12-9.94,11.11-15.58V167.2h-1.56a22.33,22.33,0,0,0-7.69-8.15h-1.87Z"/><g class="cls-14"><path class="cls-4" d="M189.5,166.47a18.29,18.29,0,0,0-1.66-2.4v18.8a18.26,18.26,0,0,0,1.66-2.41Z"/><path class="cls-4" d="M126.08,157.82a30.17,30.17,0,0,0-5.35,3.89v23.51c.52.48,1.07.95,1.66,1.41V161.14h3.13v27.62l.56.34c.36.21.73.41,1.1.61V161.14h3.13v30.07q.82.35,1.66.68V161.14h3.13V193l1.66.48V161.14h3.13V194.2l1.66.33V161.14h3.13V195l1.66.2V161.14h3.13v34.33l1.66.07v-34.4h3.13v34.42l1.66,0V161.14h3.13V195.3l1.66-.17v-34h3.13v33.55l1.66-.3V161.14h3.13v32.54l1.66-.45V161.14h3.13v31.07q.84-.3,1.66-.64V161.14h3.13v29q.85-.42,1.66-.88V161.14H183v26.15c.59-.42,1.14-.85,1.66-1.29V161.14H185a31.11,31.11,0,0,0-4.73-3.32,46.1,46.1,0,0,0-11.75-4.63H137.84A46.1,46.1,0,0,0,126.08,157.82Z"/><path class="cls-4" d="M117.6,165.26a17.16,17.16,0,0,0-1.18,1.94h-.48v11.47a16.43,16.43,0,0,0,1.66,3Z"/></g><path class="cls-13" d="M180.26,182.84c-15,8.64-39.21,8.64-54.17,0s-15-22.64,0-31.28,39.21-8.64,54.17,0S195.21,174.2,180.26,182.84Z"/><path class="cls-15" d="M161.75,171c11-6.36,13.91-15.62,8.7-23.51-14.37-4.2-32.36-2.84-44.37,4.1-11,6.36-13.91,15.62-8.7,23.51C131.75,179.28,149.74,177.91,161.75,171Z"/><path class="cls-16" d="M180.26,182.84c-15,8.64-39.21,8.64-54.17,0-7.23-4.17-11-9.6-11.2-15.07-.26,5.85,3.47,11.75,11.2,16.21,15,8.64,39.21,8.64,54.17,0,7.73-4.46,11.45-10.36,11.2-16.21C191.21,173.24,187.48,178.67,180.26,182.84Z"/><path class="cls-4" d="M172.4,178.3c-10.62,6.13-27.83,6.13-38.45,0s-10.62-16.07,0-22.2,27.83-6.13,38.45,0S183,172.17,172.4,178.3Z"/><path class="cls-5" d="M133.94,157.53c10.62-6.13,27.83-6.13,38.45,0,5,2.88,7.64,6.61,7.93,10.38.33-4.25-2.31-8.57-7.93-11.82-10.62-6.13-27.83-6.13-38.45,0-5.62,3.25-8.27,7.56-7.93,11.82C126.31,164.14,128.95,160.42,133.94,157.53Z"/><path class="cls-5" d="M166.54,159.79l-2.11.6.6.24L163,161.82a11.61,11.61,0,0,0-5.22-1.22,10,10,0,0,0-5,1.36,7.79,7.79,0,0,0-1.52,1.1,3.23,3.23,0,0,0-.81,1.16,3.91,3.91,0,0,0-.27,1.11,6.29,6.29,0,0,0,0,1.21l.24,1.92a5.74,5.74,0,0,1,0,1.35,2.41,2.41,0,0,1-.46,1.09,3.68,3.68,0,0,1-1.21,1,2.46,2.46,0,0,1-2.58.19q-.86-.5-.44-1.24a6.69,6.69,0,0,1,2.29-1.85v-1.44l-1.8.68-2.59-1.1a8.39,8.39,0,0,0-3.07,2.76l-.3-.33V171h0c0,1,.75,1.92,2.23,2.87l-1,.59-1.39-.64v1.44l1.25.72,2.44-1.41a10.65,10.65,0,0,0,4.93,1,9.8,9.8,0,0,0,4.65-1.25,7.87,7.87,0,0,0,1.65-1.23,4,4,0,0,0,.92-1.33,5,5,0,0,0,.34-1.32,7.06,7.06,0,0,0,0-1.4l-.21-1.86c0-.37,0-.64,0-.81a3.71,3.71,0,0,1,.09-.7,1.63,1.63,0,0,1,.42-.8,3.89,3.89,0,0,1,.9-.68,3.65,3.65,0,0,1,1.38-.44,2.23,2.23,0,0,1,1.38.23,1.28,1.28,0,0,1,.43.33.4.4,0,0,1,.08.24l-2.14.45v1.44l4.34,1.93q.53-.34,1-.63a9.06,9.06,0,0,0,.88-.7,5.18,5.18,0,0,0,.73-.78,2.77,2.77,0,0,0,.41-.85A1.88,1.88,0,0,0,166,165h0v0s0,0,0,0v-1.47l-.55.12,0,0a5.13,5.13,0,0,0-1.16-1l2.28-1.32Z"/><path class="cls-13" d="M140.15,173.82l2.42-1.39q-2.48-1.57-2.22-3.19t3.34-3.51l4.39,1.86a6.69,6.69,0,0,0-2.29,1.85q-.42.74.44,1.24a2.46,2.46,0,0,0,2.58-.19,3.68,3.68,0,0,0,1.21-1,2.41,2.41,0,0,0,.46-1.09,5.74,5.74,0,0,0,0-1.35l-.24-1.92a6.29,6.29,0,0,1,0-1.21,3.91,3.91,0,0,1,.27-1.11,3.23,3.23,0,0,1,.81-1.16,7.8,7.8,0,0,1,1.52-1.1,10,10,0,0,1,5-1.36,11.61,11.61,0,0,1,5.22,1.22l2.29-1.32,1.27.74-2.28,1.32a5.13,5.13,0,0,1,1.16,1,2.49,2.49,0,0,1,.53.95,1.73,1.73,0,0,1,0,.91,2.77,2.77,0,0,1-.41.85,5.18,5.18,0,0,1-.73.78,9,9,0,0,1-.88.7q-.42.29-1,.63L158.61,165l.81-.5q.31-.2.64-.45a2.66,2.66,0,0,0,.47-.43,1.17,1.17,0,0,0,.21-.38.39.39,0,0,0-.07-.37,1.28,1.28,0,0,0-.43-.33,2.23,2.23,0,0,0-1.38-.23,3.65,3.65,0,0,0-1.38.44,3.89,3.89,0,0,0-.9.68,1.63,1.63,0,0,0-.42.8,3.72,3.72,0,0,0-.09.7c0,.17,0,.44,0,.81l.21,1.86a7.07,7.07,0,0,1,0,1.4,5,5,0,0,1-.34,1.32,4,4,0,0,1-.92,1.33,7.88,7.88,0,0,1-1.65,1.23,9.8,9.8,0,0,1-4.65,1.25,10.65,10.65,0,0,1-4.93-1l-2.44,1.41Z"/><path class="cls-5" d="M191.47,160.94h-1.56c-1.75-3.43-5-6.67-9.66-9.38-15-8.64-39.21-8.64-54.17,0-4.69,2.71-7.91,5.95-9.66,9.38h-1.56v6.26h0c0,5.66,3.74,11.32,11.22,15.64,15,8.64,39.21,8.64,54.17,0,7.48-4.32,11.22-10,11.22-15.64h0Z"/><path class="cls-13" d="M144.86,145.61a50.76,50.76,0,0,0-18.78,5.95c-4.69,2.71-7.91,5.95-9.66,9.38h-1.56v6.26c0,5.66,3.74,11.32,11.22,15.64a50.77,50.77,0,0,0,18.78,5.95Z"/><path class="cls-4" d="M180.36,182.77c7.41-4.31,11.12-9.94,11.11-15.58v-6.26h-1.56a22.33,22.33,0,0,0-7.69-8.15h-1.87Z"/><g class="cls-14"><path class="cls-4" d="M189.5,160.21a18.29,18.29,0,0,0-1.66-2.4v18.8a18.27,18.27,0,0,0,1.66-2.41Z"/><path class="cls-4" d="M126.08,151.56a30.17,30.17,0,0,0-5.35,3.89V179c.52.48,1.07.95,1.66,1.41V154.88h3.13V182.5l.56.34c.36.21.73.41,1.1.61V154.88h3.13v30.07q.82.35,1.66.68V154.88h3.13V186.7q.82.25,1.66.48V154.88h3.13v33.06l1.66.33V154.88h3.13v33.88l1.66.2V154.88h3.13v34.33l1.66.07v-34.4h3.13V189.3l1.66,0V154.88h3.13V189l1.66-.17v-34h3.13v33.55l1.66-.3V154.88h3.13v32.54l1.66-.45V154.88h3.13V186q.84-.3,1.66-.64V154.88h3.13v29q.85-.42,1.66-.88V154.88H183V181c.59-.42,1.14-.85,1.66-1.29V154.88H185a31.1,31.1,0,0,0-4.73-3.32,46.09,46.09,0,0,0-11.75-4.63H137.84A46.1,46.1,0,0,0,126.08,151.56Z"/><path class="cls-4" d="M117.6,159a17.16,17.16,0,0,0-1.18,1.94h-.48v11.47a16.42,16.42,0,0,0,1.66,3Z"/></g><path class="cls-13" d="M180.26,176.58c-15,8.64-39.21,8.64-54.17,0s-15-22.64,0-31.28,39.21-8.64,54.17,0S195.21,167.94,180.26,176.58Z"/><path class="cls-15" d="M161.75,164.72c11-6.36,13.91-15.62,8.7-23.51-14.37-4.2-32.36-2.84-44.37,4.1-11,6.36-13.91,15.62-8.7,23.51C131.75,173,149.74,171.65,161.75,164.72Z"/><path class="cls-16" d="M180.26,176.58c-15,8.64-39.21,8.64-54.17,0-7.23-4.17-11-9.6-11.2-15.07-.26,5.85,3.47,11.75,11.2,16.21,15,8.64,39.21,8.64,54.17,0,7.73-4.46,11.45-10.36,11.2-16.21C191.21,167,187.48,172.41,180.26,176.58Z"/><path class="cls-4" d="M172.4,172c-10.62,6.13-27.83,6.13-38.45,0s-10.62-16.07,0-22.2,27.83-6.13,38.45,0S183,165.91,172.4,172Z"/><path class="cls-5" d="M133.94,151.27c10.62-6.13,27.83-6.13,38.45,0,5,2.88,7.64,6.61,7.93,10.38.33-4.25-2.31-8.57-7.93-11.82-10.62-6.13-27.83-6.13-38.45,0-5.62,3.25-8.27,7.56-7.93,11.82C126.31,157.88,128.95,154.16,133.94,151.27Z"/><path class="cls-5" d="M166.54,153.53l-2.11.6.6.24L163,155.56a11.62,11.62,0,0,0-5.22-1.22,10,10,0,0,0-5,1.36,7.8,7.8,0,0,0-1.52,1.1,3.23,3.23,0,0,0-.81,1.16,3.91,3.91,0,0,0-.27,1.11,6.29,6.29,0,0,0,0,1.21l.24,1.92a5.74,5.74,0,0,1,0,1.35,2.41,2.41,0,0,1-.46,1.09,3.68,3.68,0,0,1-1.21,1,2.46,2.46,0,0,1-2.58.19q-.86-.5-.44-1.24a6.69,6.69,0,0,1,2.29-1.85v-1.44l-1.8.68-2.59-1.1a8.39,8.39,0,0,0-3.07,2.76l-.3-.33v1.41h0c0,1,.75,1.92,2.23,2.87l-1,.59-1.39-.64V169l1.25.72,2.44-1.41a10.65,10.65,0,0,0,4.93,1,9.8,9.8,0,0,0,4.65-1.25,7.87,7.87,0,0,0,1.65-1.23,4,4,0,0,0,.92-1.33,5,5,0,0,0,.34-1.32,7.06,7.06,0,0,0,0-1.4l-.21-1.86c0-.37,0-.64,0-.81a3.71,3.71,0,0,1,.09-.7,1.63,1.63,0,0,1,.42-.8,3.89,3.89,0,0,1,.9-.68,3.65,3.65,0,0,1,1.38-.44,2.23,2.23,0,0,1,1.38.23,1.28,1.28,0,0,1,.43.33.4.4,0,0,1,.08.24l-2.14.45v1.44L163,162.1q.53-.34,1-.63a9.06,9.06,0,0,0,.88-.7,5.18,5.18,0,0,0,.73-.78,2.77,2.77,0,0,0,.41-.85,1.88,1.88,0,0,0,.07-.43h0v0s0,0,0,0v-1.47l-.55.12,0,0a5.13,5.13,0,0,0-1.16-1l2.28-1.32Z"/><path class="cls-13" d="M140.15,167.56l2.42-1.39q-2.48-1.57-2.22-3.19t3.34-3.51l4.39,1.86a6.69,6.69,0,0,0-2.29,1.85q-.42.74.44,1.24a2.46,2.46,0,0,0,2.58-.19,3.68,3.68,0,0,0,1.21-1,2.41,2.41,0,0,0,.46-1.09,5.74,5.74,0,0,0,0-1.35l-.24-1.92a6.29,6.29,0,0,1,0-1.21,3.91,3.91,0,0,1,.27-1.11,3.23,3.23,0,0,1,.81-1.16,7.79,7.79,0,0,1,1.52-1.1,10,10,0,0,1,5-1.36,11.61,11.61,0,0,1,5.22,1.22l2.29-1.32,1.27.74-2.28,1.32a5.13,5.13,0,0,1,1.16,1,2.5,2.5,0,0,1,.53.95,1.73,1.73,0,0,1,0,.91,2.77,2.77,0,0,1-.41.85,5.18,5.18,0,0,1-.73.78,9.06,9.06,0,0,1-.88.7q-.42.29-1,.63l-4.34-1.93.81-.5q.31-.2.64-.45a2.66,2.66,0,0,0,.47-.43,1.17,1.17,0,0,0,.21-.38.39.39,0,0,0-.07-.37,1.28,1.28,0,0,0-.43-.33,2.23,2.23,0,0,0-1.38-.23,3.65,3.65,0,0,0-1.38.44,3.89,3.89,0,0,0-.9.68,1.63,1.63,0,0,0-.42.8,3.72,3.72,0,0,0-.09.7c0,.17,0,.44,0,.81l.21,1.86a7.07,7.07,0,0,1,0,1.4A5,5,0,0,1,156,164a4,4,0,0,1-.92,1.33,7.87,7.87,0,0,1-1.65,1.23,9.8,9.8,0,0,1-4.65,1.25,10.65,10.65,0,0,1-4.93-1l-2.44,1.41Z"/><path class="cls-5" d="M186.11,158h-1.56c-1.75-3.43-5-6.67-9.66-9.38-15-8.64-39.21-8.64-54.17,0-4.69,2.71-7.91,5.95-9.66,9.38H109.5v6.26h0c0,5.66,3.74,11.32,11.22,15.64,15,8.64,39.21,8.64,54.17,0,7.48-4.32,11.22-10,11.22-15.64h0Z"/><path class="cls-13" d="M139.5,142.67a50.76,50.76,0,0,0-18.78,5.95c-4.69,2.71-7.91,5.95-9.66,9.38H109.5v6.26c0,5.66,3.74,11.32,11.22,15.64a50.77,50.77,0,0,0,18.78,5.95Z"/><path class="cls-4" d="M175,179.83c7.41-4.31,11.12-9.94,11.12-15.58V158h-1.56a22.33,22.33,0,0,0-7.69-8.15H175Z"/><g class="cls-14"><path class="cls-4" d="M184.14,157.27a18.28,18.28,0,0,0-1.66-2.4v18.8a18.26,18.26,0,0,0,1.66-2.41Z"/><path class="cls-4" d="M120.72,148.61a30.17,30.17,0,0,0-5.35,3.89V176c.52.48,1.07.95,1.66,1.41V151.94h3.13v27.62l.56.34c.36.21.73.41,1.1.61V151.94H125V182q.82.35,1.66.68V151.94h3.13v31.82l1.66.48V151.94h3.13V185l1.66.33V151.94h3.13v33.88l1.66.2V151.94h3.13v34.33l1.66.07v-34.4h3.13v34.42l1.66,0V151.94h3.13V186.1l1.66-.17v-34h3.13v33.55l1.66-.3V151.94h3.13v32.54L165,184V151.94h3.13V183q.84-.3,1.66-.64V151.94h3.13v29q.85-.42,1.66-.88V151.94h3.13v26.15c.59-.42,1.14-.85,1.66-1.29V151.94h.28a31.12,31.12,0,0,0-4.73-3.32A46.1,46.1,0,0,0,163.14,144H132.47A46.1,46.1,0,0,0,120.72,148.61Z"/><path class="cls-4" d="M112.24,156.06a17.14,17.14,0,0,0-1.18,1.94h-.48v11.47a16.42,16.42,0,0,0,1.66,3Z"/></g><path class="cls-13" d="M174.89,173.64c-15,8.64-39.21,8.64-54.17,0s-15-22.64,0-31.28,39.21-8.64,54.17,0S189.85,165,174.89,173.64Z"/><path class="cls-15" d="M156.39,161.78c11-6.36,13.91-15.62,8.7-23.51-14.37-4.2-32.36-2.84-44.37,4.1-11,6.36-13.91,15.62-8.7,23.51C126.39,170.07,144.38,168.71,156.39,161.78Z"/><path class="cls-16" d="M174.89,173.64c-15,8.64-39.21,8.64-54.17,0-7.23-4.17-11-9.6-11.2-15.07-.26,5.85,3.47,11.75,11.2,16.21,15,8.64,39.21,8.64,54.17,0,7.73-4.46,11.45-10.36,11.2-16.21C185.84,164,182.12,169.46,174.89,173.64Z"/><path class="cls-4" d="M167,169.1c-10.62,6.13-27.83,6.13-38.45,0s-10.62-16.07,0-22.2,27.83-6.13,38.45,0S177.65,163,167,169.1Z"/><path class="cls-5" d="M128.58,148.33c10.62-6.13,27.83-6.13,38.45,0,5,2.88,7.64,6.61,7.93,10.38.33-4.25-2.31-8.57-7.93-11.82-10.62-6.13-27.83-6.13-38.45,0-5.62,3.25-8.27,7.56-7.93,11.82C120.94,154.94,123.59,151.21,128.58,148.33Z"/><path class="cls-5" d="M161.18,150.59l-2.11.6.6.24-2.06,1.19a11.61,11.61,0,0,0-5.22-1.22,10,10,0,0,0-5,1.36,7.79,7.79,0,0,0-1.52,1.1A3.23,3.23,0,0,0,145,155a3.91,3.91,0,0,0-.27,1.11,6.28,6.28,0,0,0,0,1.21l.24,1.92a5.74,5.74,0,0,1,0,1.35,2.41,2.41,0,0,1-.46,1.09,3.68,3.68,0,0,1-1.21,1,2.46,2.46,0,0,1-2.58.19q-.86-.5-.44-1.24a6.7,6.7,0,0,1,2.29-1.85v-1.44l-1.8.68-2.59-1.1a8.39,8.39,0,0,0-3.07,2.76l-.3-.33v1.41h0c0,1,.75,1.92,2.23,2.87l-1,.59-1.39-.64v1.44l1.25.72,2.44-1.41a10.65,10.65,0,0,0,4.93,1,9.8,9.8,0,0,0,4.65-1.25,7.88,7.88,0,0,0,1.65-1.23,4,4,0,0,0,.92-1.33,5,5,0,0,0,.34-1.32,7.07,7.07,0,0,0,0-1.4l-.21-1.86c0-.37,0-.64,0-.81a3.72,3.72,0,0,1,.09-.7,1.63,1.63,0,0,1,.42-.8,3.89,3.89,0,0,1,.9-.68,3.65,3.65,0,0,1,1.38-.44,2.23,2.23,0,0,1,1.38.23,1.28,1.28,0,0,1,.43.33.4.4,0,0,1,.08.24l-2.14.45v1.44l4.34,1.93q.53-.34,1-.63a9.06,9.06,0,0,0,.88-.7,5.18,5.18,0,0,0,.73-.78,2.77,2.77,0,0,0,.41-.85,1.88,1.88,0,0,0,.07-.43h0v0s0,0,0,0v-1.47l-.55.12,0,0a5.13,5.13,0,0,0-1.16-1l2.28-1.32Z"/><path class="cls-13" d="M134.79,164.62l2.42-1.39q-2.48-1.57-2.22-3.19t3.34-3.51l4.39,1.86a6.7,6.7,0,0,0-2.29,1.85q-.42.74.44,1.24a2.46,2.46,0,0,0,2.58-.19,3.68,3.68,0,0,0,1.21-1,2.41,2.41,0,0,0,.46-1.09,5.74,5.74,0,0,0,0-1.35l-.24-1.92a6.29,6.29,0,0,1,0-1.21,3.91,3.91,0,0,1,.27-1.11,3.23,3.23,0,0,1,.81-1.16,7.8,7.8,0,0,1,1.52-1.1,10,10,0,0,1,5-1.36,11.62,11.62,0,0,1,5.22,1.22l2.29-1.32,1.27.74-2.28,1.32a5.13,5.13,0,0,1,1.16,1,2.49,2.49,0,0,1,.53.95,1.73,1.73,0,0,1,0,.91,2.77,2.77,0,0,1-.41.85,5.18,5.18,0,0,1-.73.78,9,9,0,0,1-.88.7q-.42.29-1,.63l-4.34-1.93.81-.5q.32-.2.64-.45a2.66,2.66,0,0,0,.47-.43,1.17,1.17,0,0,0,.21-.38.39.39,0,0,0-.07-.37,1.28,1.28,0,0,0-.43-.33,2.23,2.23,0,0,0-1.38-.23,3.65,3.65,0,0,0-1.38.44,3.89,3.89,0,0,0-.9.68,1.63,1.63,0,0,0-.42.8,3.72,3.72,0,0,0-.09.7c0,.17,0,.44,0,.81l.21,1.86a7.07,7.07,0,0,1,0,1.4,5,5,0,0,1-.34,1.32,4,4,0,0,1-.92,1.33,7.87,7.87,0,0,1-1.65,1.23,9.8,9.8,0,0,1-4.65,1.25,10.65,10.65,0,0,1-4.93-1L136,165.34Z"/><path class="cls-5" d="M191.47,148.42h-1.56c-1.75-3.43-5-6.67-9.66-9.38-15-8.64-39.21-8.64-54.17,0-4.69,2.71-7.91,5.95-9.66,9.38h-1.56v6.26h0c0,5.66,3.74,11.32,11.22,15.64,15,8.64,39.21,8.64,54.17,0,7.48-4.32,11.22-10,11.22-15.64h0Z"/><path class="cls-13" d="M144.86,133.09A50.76,50.76,0,0,0,126.08,139c-4.69,2.71-7.91,5.95-9.66,9.38h-1.56v6.26c0,5.66,3.74,11.32,11.22,15.64a50.76,50.76,0,0,0,18.78,5.95Z"/><path class="cls-4" d="M180.36,170.25c7.41-4.31,11.12-9.94,11.11-15.58v-6.26h-1.56a22.33,22.33,0,0,0-7.69-8.15h-1.87Z"/><g class="cls-14"><path class="cls-4" d="M189.5,147.69a18.29,18.29,0,0,0-1.66-2.4v18.8a18.26,18.26,0,0,0,1.66-2.41Z"/><path class="cls-4" d="M126.08,139a30.17,30.17,0,0,0-5.35,3.89v23.51c.52.48,1.07.95,1.66,1.41V142.36h3.13V170l.56.34c.36.21.73.41,1.1.61V142.36h3.13v30.07q.82.35,1.66.68V142.36h3.13v31.82l1.66.48V142.36h3.13v33.06l1.66.33V142.36h3.13v33.88l1.66.2V142.36h3.13v34.33l1.66.07v-34.4h3.13v34.42l1.66,0V142.36h3.13v34.16l1.66-.17v-34h3.13v33.55l1.66-.3V142.36h3.13V174.9l1.66-.45V142.36h3.13v31.07q.84-.3,1.66-.64V142.36h3.13v29q.85-.42,1.66-.88V142.36H183v26.15c.59-.42,1.14-.85,1.66-1.29V142.36H185a31.11,31.11,0,0,0-4.73-3.32,46.1,46.1,0,0,0-11.75-4.63H137.84A46.1,46.1,0,0,0,126.08,139Z"/><path class="cls-4" d="M117.6,146.48a17.17,17.17,0,0,0-1.18,1.94h-.48v11.47a16.43,16.43,0,0,0,1.66,3Z"/></g><path class="cls-13" d="M180.26,164.06c-15,8.64-39.21,8.64-54.17,0s-15-22.64,0-31.28,39.21-8.64,54.17,0S195.21,155.42,180.26,164.06Z"/><path class="cls-15" d="M161.75,152.2c11-6.36,13.91-15.62,8.7-23.51-14.37-4.2-32.36-2.84-44.37,4.1-11,6.36-13.91,15.62-8.7,23.51C131.75,160.49,149.74,159.13,161.75,152.2Z"/><path class="cls-16" d="M180.26,164.06c-15,8.64-39.21,8.64-54.17,0-7.23-4.17-11-9.6-11.2-15.07-.26,5.85,3.47,11.75,11.2,16.21,15,8.64,39.21,8.64,54.17,0,7.73-4.46,11.45-10.36,11.2-16.21C191.21,154.46,187.48,159.89,180.26,164.06Z"/><path class="cls-4" d="M172.4,159.52c-10.62,6.13-27.83,6.13-38.45,0s-10.62-16.07,0-22.2,27.83-6.13,38.45,0S183,153.39,172.4,159.52Z"/><path class="cls-5" d="M133.94,138.75c10.62-6.13,27.83-6.13,38.45,0,5,2.88,7.64,6.61,7.93,10.38.33-4.25-2.31-8.57-7.93-11.82-10.62-6.13-27.83-6.13-38.45,0-5.62,3.25-8.27,7.56-7.93,11.82C126.31,145.36,128.95,141.64,133.94,138.75Z"/><path class="cls-5" d="M166.54,141l-2.11.6.6.24L163,143a11.61,11.61,0,0,0-5.22-1.22,10,10,0,0,0-5,1.36,7.8,7.8,0,0,0-1.52,1.1,3.23,3.23,0,0,0-.81,1.16,3.91,3.91,0,0,0-.27,1.11,6.29,6.29,0,0,0,0,1.21l.24,1.92a5.74,5.74,0,0,1,0,1.35,2.41,2.41,0,0,1-.46,1.09,3.68,3.68,0,0,1-1.21,1,2.46,2.46,0,0,1-2.58.19q-.86-.5-.44-1.24a6.69,6.69,0,0,1,2.29-1.85V148.8l-1.8.68-2.59-1.1a8.39,8.39,0,0,0-3.07,2.76l-.3-.33v1.41h0c0,1,.75,1.92,2.23,2.87l-1,.59-1.39-.64v1.44l1.25.72,2.44-1.41a10.65,10.65,0,0,0,4.93,1,9.8,9.8,0,0,0,4.65-1.25,7.87,7.87,0,0,0,1.65-1.23A4,4,0,0,0,156,153a5,5,0,0,0,.34-1.32,7.06,7.06,0,0,0,0-1.4l-.21-1.86c0-.37,0-.64,0-.81a3.71,3.71,0,0,1,.09-.7,1.63,1.63,0,0,1,.42-.8,3.89,3.89,0,0,1,.9-.68,3.65,3.65,0,0,1,1.38-.44,2.23,2.23,0,0,1,1.38.23,1.28,1.28,0,0,1,.43.33.4.4,0,0,1,.08.24l-2.14.45v1.44l4.34,1.93q.53-.34,1-.63a9.06,9.06,0,0,0,.88-.7,5.18,5.18,0,0,0,.73-.78,2.77,2.77,0,0,0,.41-.85,1.88,1.88,0,0,0,.07-.43h0v0s0,0,0,0v-1.47l-.55.12,0,0a5.13,5.13,0,0,0-1.16-1l2.28-1.32Z"/><path class="cls-13" d="M140.15,155l2.42-1.39q-2.48-1.57-2.22-3.19t3.34-3.51l4.39,1.86a6.69,6.69,0,0,0-2.29,1.85q-.42.74.44,1.24a2.46,2.46,0,0,0,2.58-.19,3.68,3.68,0,0,0,1.21-1,2.41,2.41,0,0,0,.46-1.09,5.74,5.74,0,0,0,0-1.35l-.24-1.92a6.29,6.29,0,0,1,0-1.21,3.91,3.91,0,0,1,.27-1.11,3.23,3.23,0,0,1,.81-1.16,7.8,7.8,0,0,1,1.52-1.1,10,10,0,0,1,5-1.36A11.62,11.62,0,0,1,163,141.6l2.29-1.32,1.27.74-2.28,1.32a5.13,5.13,0,0,1,1.16,1,2.5,2.5,0,0,1,.53.95,1.73,1.73,0,0,1,0,.91,2.77,2.77,0,0,1-.41.85,5.18,5.18,0,0,1-.73.78,9,9,0,0,1-.88.7q-.42.29-1,.63l-4.34-1.93.81-.5q.31-.2.64-.45a2.66,2.66,0,0,0,.47-.43,1.17,1.17,0,0,0,.21-.38.39.39,0,0,0-.07-.37,1.28,1.28,0,0,0-.43-.33,2.23,2.23,0,0,0-1.38-.23,3.65,3.65,0,0,0-1.38.44,3.89,3.89,0,0,0-.9.68,1.63,1.63,0,0,0-.42.8,3.72,3.72,0,0,0-.09.7c0,.17,0,.44,0,.81l.21,1.86a7.07,7.07,0,0,1,0,1.4,5,5,0,0,1-.34,1.32,4,4,0,0,1-.92,1.33,7.88,7.88,0,0,1-1.65,1.23,9.8,9.8,0,0,1-4.65,1.25,10.65,10.65,0,0,1-4.93-1l-2.44,1.41Z"/><path class="cls-5" d="M249.57,201.3H248c-1.75-3.43-5-6.67-9.66-9.38-15-8.64-39.21-8.64-54.17,0-4.69,2.71-7.91,5.95-9.66,9.38H173v6.26h0c0,5.66,3.74,11.32,11.22,15.64,15,8.64,39.21,8.64,54.17,0,7.48-4.32,11.22-10,11.22-15.64h0Z"/><path class="cls-13" d="M203,186a50.77,50.77,0,0,0-18.78,5.95c-4.69,2.71-7.91,5.95-9.66,9.38H173v6.26c0,5.66,3.74,11.32,11.22,15.64A50.76,50.76,0,0,0,203,229.15Z"/><path class="cls-4" d="M238.46,223.14c7.41-4.31,11.12-9.94,11.12-15.58V201.3H248a22.33,22.33,0,0,0-7.69-8.15h-1.87Z"/><g class="cls-14"><path class="cls-4" d="M247.6,200.58a18.29,18.29,0,0,0-1.66-2.4V217a18.26,18.26,0,0,0,1.66-2.41Z"/><path class="cls-4" d="M184.18,191.92a30.17,30.17,0,0,0-5.35,3.89v23.51c.52.48,1.07.95,1.66,1.41V195.24h3.13v27.62l.56.34c.36.21.73.41,1.1.61V195.24h3.13v30.07q.82.35,1.66.68V195.24h3.13v31.82l1.66.48V195.24H198v33.06l1.66.33V195.24h3.13v33.88l1.66.2V195.24h3.13v34.33l1.66.07v-34.4h3.13v34.42l1.66,0V195.24h3.13v34.16l1.66-.17v-34H222V228.8l1.66-.3V195.24h3.13v32.54l1.66-.45V195.24h3.13v31.07q.84-.3,1.66-.64V195.24h3.13v29q.85-.42,1.66-.88V195.24h3.13V221.4c.59-.42,1.14-.85,1.66-1.29V195.24h.28a31.11,31.11,0,0,0-4.73-3.32,46.1,46.1,0,0,0-11.75-4.63H195.93A46.1,46.1,0,0,0,184.18,191.92Z"/><path class="cls-4" d="M175.7,199.37a17.17,17.17,0,0,0-1.18,1.94H174v11.47a16.43,16.43,0,0,0,1.66,3Z"/></g><path class="cls-13" d="M238.35,216.94c-15,8.64-39.21,8.64-54.17,0s-15-22.64,0-31.28,39.21-8.64,54.17,0S253.31,208.31,238.35,216.94Z"/><path class="cls-15" d="M219.85,205.08c11-6.36,13.91-15.62,8.7-23.51-14.37-4.2-32.36-2.84-44.37,4.1-11,6.36-13.91,15.62-8.7,23.51C189.85,213.38,207.84,212,219.85,205.08Z"/><path class="cls-16" d="M238.35,216.94c-15,8.64-39.21,8.64-54.17,0-7.23-4.17-11-9.6-11.2-15.07-.26,5.85,3.47,11.75,11.2,16.21,15,8.64,39.21,8.64,54.17,0,7.73-4.46,11.45-10.36,11.2-16.21C249.3,207.34,245.58,212.77,238.35,216.94Z"/><path class="cls-4" d="M230.49,212.41c-10.62,6.13-27.83,6.13-38.45,0s-10.62-16.07,0-22.2,27.83-6.13,38.45,0S241.11,206.27,230.49,212.41Z"/><path class="cls-5" d="M192,191.64c10.62-6.13,27.83-6.13,38.45,0,5,2.88,7.64,6.61,7.93,10.38.33-4.25-2.31-8.57-7.93-11.82-10.62-6.13-27.83-6.13-38.45,0-5.62,3.25-8.27,7.56-7.93,11.82C184.4,198.25,187,194.52,192,191.64Z"/><path class="cls-5" d="M224.64,193.89l-2.11.6.6.24-2.06,1.19a11.61,11.61,0,0,0-5.22-1.22,10,10,0,0,0-5,1.36,7.8,7.8,0,0,0-1.52,1.1,3.23,3.23,0,0,0-.81,1.16,3.91,3.91,0,0,0-.27,1.11,6.29,6.29,0,0,0,0,1.21l.24,1.92a5.75,5.75,0,0,1,0,1.35,2.41,2.41,0,0,1-.46,1.09,3.68,3.68,0,0,1-1.21,1,2.46,2.46,0,0,1-2.58.19q-.86-.5-.44-1.24a6.69,6.69,0,0,1,2.29-1.85v-1.44l-1.8.68-2.59-1.1a8.39,8.39,0,0,0-3.07,2.76l-.3-.33v1.41h0c0,1,.75,1.92,2.23,2.87l-1,.59-1.39-.64v1.44l1.25.72,2.44-1.41a10.65,10.65,0,0,0,4.93,1,9.8,9.8,0,0,0,4.65-1.25,7.87,7.87,0,0,0,1.65-1.23,4,4,0,0,0,.92-1.33,5,5,0,0,0,.34-1.32,7.07,7.07,0,0,0,0-1.4l-.21-1.86c0-.37,0-.64,0-.81a3.72,3.72,0,0,1,.09-.7,1.63,1.63,0,0,1,.42-.8,3.89,3.89,0,0,1,.9-.68,3.65,3.65,0,0,1,1.38-.44,2.23,2.23,0,0,1,1.38.23,1.28,1.28,0,0,1,.43.33.4.4,0,0,1,.08.24l-2.14.45v1.44l4.34,1.93q.53-.34,1-.63a9.06,9.06,0,0,0,.88-.7,5.18,5.18,0,0,0,.73-.78,2.77,2.77,0,0,0,.41-.85,1.88,1.88,0,0,0,.07-.43h0v0s0,0,0,0v-1.47l-.55.12,0,0a5.13,5.13,0,0,0-1.16-1l2.28-1.32Z"/><path class="cls-13" d="M198.25,207.92l2.42-1.39q-2.48-1.57-2.22-3.19t3.34-3.51l4.39,1.86a6.69,6.69,0,0,0-2.29,1.85q-.42.74.44,1.24a2.46,2.46,0,0,0,2.58-.19,3.68,3.68,0,0,0,1.21-1,2.41,2.41,0,0,0,.46-1.09,5.75,5.75,0,0,0,0-1.35l-.24-1.92a6.29,6.29,0,0,1,0-1.21,3.91,3.91,0,0,1,.27-1.11,3.23,3.23,0,0,1,.81-1.16,7.79,7.79,0,0,1,1.52-1.1,10,10,0,0,1,5-1.36,11.62,11.62,0,0,1,5.22,1.22l2.29-1.32,1.27.74-2.28,1.32a5.13,5.13,0,0,1,1.16,1,2.5,2.5,0,0,1,.53.95,1.73,1.73,0,0,1,0,.91,2.77,2.77,0,0,1-.41.85,5.18,5.18,0,0,1-.73.78,9,9,0,0,1-.87.7q-.42.29-1,.63l-4.34-1.93.81-.5q.32-.2.64-.45a2.65,2.65,0,0,0,.47-.43,1.17,1.17,0,0,0,.21-.38.39.39,0,0,0-.07-.37,1.28,1.28,0,0,0-.43-.33,2.23,2.23,0,0,0-1.38-.23,3.65,3.65,0,0,0-1.38.44,3.89,3.89,0,0,0-.9.68,1.63,1.63,0,0,0-.42.8,3.71,3.71,0,0,0-.09.7c0,.17,0,.44,0,.81l.21,1.86a7.07,7.07,0,0,1,0,1.4,5,5,0,0,1-.34,1.32,4,4,0,0,1-.92,1.33,7.87,7.87,0,0,1-1.65,1.23,9.8,9.8,0,0,1-4.65,1.25,10.65,10.65,0,0,1-4.93-1l-2.44,1.41Z"/><path class="cls-5" d="M254.17,191.92h-1.56c-1.75-3.43-5-6.67-9.66-9.38-15-8.64-39.21-8.64-54.17,0-4.69,2.71-7.91,5.95-9.66,9.38h-1.56v6.26h0c0,5.66,3.74,11.32,11.22,15.64,15,8.64,39.21,8.64,54.17,0,7.48-4.32,11.22-10,11.22-15.64h0Z"/><path class="cls-13" d="M207.56,176.59a50.76,50.76,0,0,0-18.78,5.95c-4.69,2.71-7.91,5.95-9.66,9.38h-1.56v6.26c0,5.66,3.74,11.32,11.22,15.64a50.77,50.77,0,0,0,18.78,5.95Z"/><path class="cls-4" d="M243.05,213.75c7.41-4.31,11.12-9.94,11.12-15.58v-6.26h-1.56a22.33,22.33,0,0,0-7.69-8.15h-1.87Z"/><g class="cls-14"><path class="cls-4" d="M252.2,191.19a18.29,18.29,0,0,0-1.66-2.4v18.8a18.26,18.26,0,0,0,1.66-2.41Z"/><path class="cls-4" d="M188.78,182.53a30.17,30.17,0,0,0-5.35,3.89v23.51c.52.48,1.07.95,1.66,1.41V185.86h3.13v27.62l.56.34c.36.21.73.41,1.1.61V185.86H193v30.07q.82.35,1.66.68V185.86h3.13v31.82l1.66.48V185.86h3.13v33.06l1.66.33V185.86h3.13v33.88l1.66.2V185.86h3.13v34.33l1.66.07v-34.4H217v34.42l1.66,0V185.86h3.13V220l1.66-.17v-34h3.13v33.55l1.66-.3V185.86h3.13V218.4l1.66-.45V185.86h3.13v31.07q.84-.3,1.66-.64V185.86h3.13v29q.85-.42,1.66-.88V185.86h3.13V212c.59-.42,1.14-.85,1.66-1.29V185.86h.28a31.11,31.11,0,0,0-4.73-3.32,46.09,46.09,0,0,0-11.75-4.63H200.53A46.09,46.09,0,0,0,188.78,182.53Z"/><path class="cls-4" d="M180.29,190a17.15,17.15,0,0,0-1.18,1.94h-.48v11.47a16.42,16.42,0,0,0,1.66,3Z"/></g><path class="cls-13" d="M242.95,207.56c-15,8.64-39.21,8.64-54.17,0s-15-22.64,0-31.28,39.21-8.64,54.17,0S257.91,198.92,242.95,207.56Z"/><path class="cls-15" d="M224.44,195.7c11-6.36,13.91-15.62,8.7-23.51-14.37-4.2-32.36-2.84-44.37,4.1-11,6.36-13.91,15.62-8.7,23.51C194.44,204,212.44,202.63,224.44,195.7Z"/><path class="cls-16" d="M242.95,207.56c-15,8.64-39.21,8.64-54.17,0-7.23-4.17-11-9.6-11.2-15.07-.26,5.85,3.47,11.75,11.2,16.21,15,8.64,39.21,8.64,54.17,0,7.73-4.46,11.45-10.36,11.2-16.21C253.9,198,250.18,203.38,242.95,207.56Z"/><path class="cls-4" d="M235.09,203c-10.62,6.13-27.83,6.13-38.45,0s-10.62-16.07,0-22.2,27.83-6.13,38.45,0S245.71,196.89,235.09,203Z"/><path class="cls-5" d="M196.64,182.25c10.62-6.13,27.83-6.13,38.45,0,5,2.88,7.64,6.61,7.93,10.38.33-4.25-2.31-8.57-7.93-11.82-10.62-6.13-27.83-6.13-38.45,0-5.62,3.25-8.27,7.56-7.93,11.82C189,188.86,191.64,185.13,196.64,182.25Z"/><path class="cls-5" d="M229.23,184.5l-2.11.6.6.24-2.06,1.19a11.61,11.61,0,0,0-5.22-1.22,10,10,0,0,0-5,1.36,7.8,7.8,0,0,0-1.52,1.1,3.23,3.23,0,0,0-.81,1.16,3.91,3.91,0,0,0-.27,1.11,6.29,6.29,0,0,0,0,1.21l.24,1.92a5.74,5.74,0,0,1,0,1.35,2.41,2.41,0,0,1-.46,1.09,3.68,3.68,0,0,1-1.21,1,2.46,2.46,0,0,1-2.58.19q-.86-.5-.44-1.24a6.7,6.7,0,0,1,2.29-1.85V192.3L209,193l-2.59-1.1a8.39,8.39,0,0,0-3.07,2.76l-.3-.33v1.41h0c0,1,.75,1.92,2.23,2.87l-1,.59-1.39-.64V200l1.25.72,2.44-1.41a10.65,10.65,0,0,0,4.93,1,9.8,9.8,0,0,0,4.65-1.25,7.87,7.87,0,0,0,1.65-1.23,4,4,0,0,0,.92-1.33,5,5,0,0,0,.34-1.32,7.07,7.07,0,0,0,0-1.4l-.21-1.86c0-.37,0-.64,0-.81a3.72,3.72,0,0,1,.09-.7,1.63,1.63,0,0,1,.42-.8,3.9,3.9,0,0,1,.9-.68,3.65,3.65,0,0,1,1.38-.44,2.23,2.23,0,0,1,1.38.23,1.28,1.28,0,0,1,.43.33.4.4,0,0,1,.08.24l-2.14.45v1.44l4.34,1.93q.53-.34,1-.63a9.07,9.07,0,0,0,.88-.7,5.18,5.18,0,0,0,.73-.78,2.77,2.77,0,0,0,.41-.85,1.88,1.88,0,0,0,.07-.43h0v0s0,0,0,0v-1.47l-.55.12,0,0a5.13,5.13,0,0,0-1.16-1l2.28-1.32Z"/><path class="cls-13" d="M202.84,198.54l2.42-1.39q-2.48-1.57-2.22-3.19t3.34-3.51l4.39,1.86a6.7,6.7,0,0,0-2.29,1.85q-.42.74.44,1.24a2.46,2.46,0,0,0,2.58-.19,3.68,3.68,0,0,0,1.21-1,2.41,2.41,0,0,0,.46-1.09,5.74,5.74,0,0,0,0-1.35l-.24-1.92a6.29,6.29,0,0,1,0-1.21,3.91,3.91,0,0,1,.27-1.11,3.23,3.23,0,0,1,.81-1.16,7.79,7.79,0,0,1,1.52-1.1,10,10,0,0,1,5-1.36,11.62,11.62,0,0,1,5.22,1.22l2.29-1.32,1.27.74L227,185.82a5.13,5.13,0,0,1,1.16,1,2.5,2.5,0,0,1,.53.95,1.73,1.73,0,0,1,0,.91,2.77,2.77,0,0,1-.41.85,5.18,5.18,0,0,1-.73.78,9.06,9.06,0,0,1-.88.7q-.42.29-1,.63l-4.34-1.93.81-.5q.32-.2.64-.45a2.66,2.66,0,0,0,.47-.43,1.17,1.17,0,0,0,.21-.38.39.39,0,0,0-.07-.37,1.28,1.28,0,0,0-.43-.33,2.23,2.23,0,0,0-1.38-.23,3.65,3.65,0,0,0-1.38.44,3.89,3.89,0,0,0-.9.68,1.63,1.63,0,0,0-.42.8,3.72,3.72,0,0,0-.09.7c0,.17,0,.44,0,.81l.21,1.86a7.07,7.07,0,0,1,0,1.4,5,5,0,0,1-.34,1.32,4,4,0,0,1-.92,1.33,7.87,7.87,0,0,1-1.65,1.23,9.8,9.8,0,0,1-4.65,1.25,10.65,10.65,0,0,1-4.93-1l-2.44,1.41Z"/><path class="cls-17" d="M153.53,141.76c-.25.62-4.51,5.81-8.77,7.11a9.8,9.8,0,0,1-3.92.54,1.29,1.29,0,0,1-1-1.72,16.19,16.19,0,0,1,8.18-9C155.2,135.09,153.53,141.76,153.53,141.76Z"/><path class="cls-17" d="M154.95,143.75a35.29,35.29,0,0,0-2.1,6.92c-.3,1.92.75,4.42,1.62,6.07a1.77,1.77,0,0,0,2.76.48,10.26,10.26,0,0,0,3.46-6.61c.49-5.31,0-6.24,0-6.24Z"/><path class="cls-13" d="M165.22,79.53a101.05,101.05,0,0,1,0,14.12c-.56,7.41-2.55,42.09-2.92,50.43,0,0,.19,2.53-4.7,2s-4.49-3.36-4.49-3.36-6.87-.09-7.08-4.14-7-48.32-7-64.24Z"/><path class="cls-18" d="M153.1,142.69a14,14,0,0,1-2-.2h0l-1.34-53.9Z"/><path class="cls-17" d="M158,30.86c11.21,4.65,11,11.28,11,11.28s-2.2,24.3-1.45,40.53c.31,6.78-36,7.3-30.62-10.8,6.39-21.34,4-38.62,7-41.23S155.06,29.65,158,30.86Z"/><ellipse class="cls-19" cx="155.97" cy="35.29" rx="4.26" ry="5.78" transform="translate(82.89 177.53) rotate(-75.56)"/><path class="cls-20" d="M156.8,40.19a8.14,8.14,0,0,1-2-.26c-3.37-.87-5.58-3.66-4.92-6.22s3.94-3.93,7.32-3.07,5.58,3.66,4.92,6.22h0C161.57,38.91,159.38,40.19,156.8,40.19Zm-1.69-8.74c-2.08,0-3.82,1-4.22,2.52-.51,2,1.35,4.19,4.15,4.91s5.5-.31,6-2.29h0c.51-2-1.35-4.19-4.15-4.91A7.14,7.14,0,0,0,155.12,31.46Z"/><path class="cls-19" d="M153.47,30.35a27.66,27.66,0,0,1-.1,4c-.06,1.12,3.85,2.16,4.86,1.15s.61-2.06.85-5.86S153.47,30.35,153.47,30.35Z"/><path class="cls-21" d="M159.08,29.64s-1,3.53-5.71,4.88l.07-3.2Z"/><circle class="cls-19" cx="153.73" cy="22.84" r="8.63" transform="translate(-0.82 39.21) rotate(-14.5)"/><path class="cls-21" d="M155.72,23.16s-4.75,2-8,2.06-2.57-2.73-2.57-2.73l9.77-1.41Z"/><path class="cls-7" d="M146.69,23.7s4.14-1.76,7.77-1a3.81,3.81,0,0,1,2.19,1.3,1.3,1.3,0,0,0,.66.48c.64.15,1.7-2.53,2.95-2.59s2.09.83,1.06,2.47-.68,3.48-.21,3.75,5.48-3.57,1.06-12.33-15.64-4-17.39-2.26c0,0-1.84,1.6-3.33.18C141.47,13.67,139.79,26.23,146.69,23.7Z"/><path class="cls-19" d="M138.39,28.87l-6-2.6a2.68,2.68,0,0,1-1.47-1.58l-6-17.26-2.76.48L127,29.38a3.62,3.62,0,0,0,1.76,2.36l10,5.64Z"/><path class="cls-19" d="M201.12,31.67l1.38-.63a11.13,11.13,0,0,0,3.18-2.19l1-1a1.87,1.87,0,0,0,.41-2.05h0a1,1,0,0,0-1.41-.52l-2.89,1.46s.45-1.28.23-1.61-2.45,2.14-3.49,3.89S201.12,31.67,201.12,31.67Z"/><path class="cls-19" d="M177.06,38.57l5.16-.58a9.09,9.09,0,0,0,3.47-1.12l13.82-7.82,1.62,2.62L187,42.58a6.51,6.51,0,0,1-1.42.83L177.15,47Z"/><path class="cls-19" d="M122.17,7.91l-.53-.61a4.85,4.85,0,0,1-1.13-2.47l-.37-2.52a2.16,2.16,0,0,1,.83-2l.07,0A1.3,1.3,0,0,1,123,.83l1.24,3s-.39-1.55.11-1.72,1.06,1.8.65,2.87a4.53,4.53,0,0,0,0,2.45Z"/><path class="cls-20" d="M150.31,28.79l-2.23-.61a5.38,5.38,0,0,0,2.62,2.1c1.55.43,1.79-.89,1.79-.89Z"/><path class="cls-17" d="M147,29.4s-10.07-2-13.15-2.92-4.36,7.51-4.13,9.66,10.71,4.53,12,8.2S147,29.4,147,29.4Z"/><path class="cls-17" d="M162.37,33.11s7.36,3.16,19.68,4.7a1.33,1.33,0,0,1,1.1.87,14.58,14.58,0,0,1,.65,7.41,2.72,2.72,0,0,1-2.69,2.14c-3.86,0-12.16.34-13.5,3.95C165.84,56.9,162.37,33.11,162.37,33.11Z"/><circle class="cls-20" cx="160.91" cy="25.22" r="1.17"/><polygon class="cls-2" points="16.69 160.09 14.44 162.81 16.88 161.24 16.69 160.09"/><polygon class="cls-2" points="71.26 215.85 68.82 217.42 69.67 214.69 71.23 215.41 71.26 215.85"/><polygon class="cls-2" points="11.54 136.67 34.49 146.93 28.37 151.91 71.68 204.97 91.77 188.66 133.44 239.95 151.92 224.95 206.61 291.88 201.01 296.43 151.24 235.46 132.77 250.47 91.35 199.53 71.26 215.85 22.77 156.46 16.88 161.24 11.54 136.67"/><polygon class="cls-2" points="132.77 250.47 130.33 252.04 132.96 246.94 132.77 250.47"/><polygon class="cls-2" points="91.77 188.66 89.32 190.23 89.82 191.59 91.77 188.66"/><polygon class="cls-2" points="151.92 224.95 149.47 226.52 149.88 227.49 151.92 224.95"/><polygon class="cls-3" points="9.1 138.25 32.05 148.51 25.93 153.48 69.24 206.55 89.32 190.23 131 241.53 149.47 226.52 204.17 293.45 198.57 298 148.8 237.04 130.33 252.04 88.91 201.1 68.82 217.42 20.32 158.03 14.44 162.81 9.1 138.25"/><polygon class="cls-17" points="9.1 138.25 11.54 136.67 34.49 146.93 32.05 148.51 9.1 138.25"/><polygon class="cls-2" points="206.61 291.88 204.17 293.45 198.57 298 201.01 296.43 206.61 291.88"/></g></g></svg>