<svg xmlns="http://www.w3.org/2000/svg" viewBox="0 0 410.54 417.35"><defs><style>.cls-1{isolation:isolate;}.cls-2{fill:#b0eeff;}.cls-18,.cls-23,.cls-3,.cls-41,.cls-5,.cls-59{fill:none;}.cls-3,.cls-41,.cls-5,.cls-59{stroke:#fff;}.cls-3,.cls-5,.cls-59{stroke-linecap:round;stroke-linejoin:round;}.cls-3,.cls-5{stroke-width:0.89px;}.cls-11,.cls-14,.cls-3,.cls-4,.cls-42,.cls-49,.cls-51{opacity:0.5;}.cls-6{fill:#fcccb1;opacity:0.25;}.cls-31,.cls-32,.cls-34,.cls-38,.cls-42,.cls-49,.cls-53,.cls-55,.cls-6{mix-blend-mode:multiply;}.cls-7{fill:#e9f9ff;}.cls-8{fill:#d7f6ff;}.cls-16,.cls-31,.cls-9{fill:#389fe5;}.cls-9{opacity:0.2;}.cls-10,.cls-51{fill:#fff;}.cls-11{fill:#d7ecfa;}.cls-12,.cls-21{fill:#ff9a30;}.cls-13{fill:#fdcf33;}.cls-14,.cls-20,.cls-21{mix-blend-mode:screen;}.cls-15{fill:#b7ddf6;}.cls-17{fill:#b9dbef;}.cls-18{stroke:#389fe5;}.cls-18,.cls-23,.cls-41{stroke-miterlimit:10;}.cls-19{fill:#e6ecef;}.cls-20{fill:#ffbd1d;}.cls-21,.cls-25{opacity:0.3;}.cls-22{fill:#fffae4;}.cls-23{stroke:#e49f05;stroke-width:0.36px;}.cls-24{fill:#8cc64b;}.cls-25{fill:#3d3d3d;}.cls-26{fill:#e49f05;}.cls-27{fill:#1f3a71;}.cls-28{fill:#ffc8b0;}.cls-29{fill:#f2a181;}.cls-30,.cls-49{fill:#ffbe9d;}.cls-33{fill:#285faf;}.cls-34,.cls-54{fill:#5275a0;}.cls-34,.cls-53{opacity:0.35;}.cls-35{fill:#cfeffe;}.cls-36{fill:#67c2ef;}.cls-37{fill:#153351;}.cls-38{fill:#fdd622;}.cls-38,.cls-50{opacity:0.6;}.cls-39{fill:#fffdff;}.cls-40{fill:#95e2f9;}.cls-41{stroke-width:0.62px;}.cls-43{fill:#4c4051;}.cls-44{opacity:0.08;}.cls-45{fill:#ffd86c;}.cls-46{fill:#f4bf2a;}.cls-47{fill:#c1ced6;}.cls-48{fill:#b3eaff;}.cls-52{fill:#ed9c80;}.cls-55,.cls-58{fill:#b0d9ef;}.cls-56{fill:#aabde2;}.cls-57{fill:#e1e8f9;}.cls-59{stroke-width:0.75px;}</style></defs><title>time</title><g class="cls-1"><g id="Capa_2" data-name="Capa 2"><g id="OBJECT"><path class="cls-2" d="M285.84,336.6c4.23-8.6,11.07-15.72,18.62-21.5,6.09-4.66,13-9.2,20.19-11.88,6.4-2.38,7.82,3.21,13,5.12,3.3,1.22,7-.65,9.56-3s4.57-5.17,7.56-6.89c2.2-1.27,5.49-1.9,7.81-.54,2.87,1.69,2.38,5.83,6.26,6.3a9.54,9.54,0,0,0,5.24-1.23,74.15,74.15,0,0,1,11.78-4.84c3.73-1.09,8.56-1.46,10.71,1.78s.1,7.32-2.38,10.09c-6,6.69-14.83,10.3-23.73,11.48a26.05,26.05,0,0,0-7.16,1.48c-2.24,1-4.22,3-4.31,5.47,0,1.32.44,2.6.46,3.92,0,3.66-3.56,6.39-7.13,7.21-9.18,2.1-15.15-6-23.78-7.2-9.78-1.4-24.85.13-31.64,8.36"/><path class="cls-3" d="M302,332.58a64.06,64.06,0,0,1,35.13-16.37c8.18-1.06,16.47-.55,24.68-1.29s16.72-3,22.64-8.43"/><path class="cls-2" d="M344.82,296.19c4.89-2.83,10.14-6.76,8.75-12.75-.45-2-1.9-3.76-1.66-5.76a10.6,10.6,0,0,1,1.69-3.59,10.91,10.91,0,0,0,.56-9.17c-1.26-3.16-3.93-5.53-5.6-8.5a15,15,0,0,1-1.9-8c-5.16.54-9.62,3.8-14.62,5.21-3.82,1.08-7.9,1.06-11.67,2.29a18.68,18.68,0,0,0-12.5,16.2,10.28,10.28,0,0,0-8.76,3.85,13.35,13.35,0,0,0-2.65,10c2.25,14.54,9.73,26.1,19.3,36.88-2.08-2.35,4.31-9.63,5.55-11.05,5.37-6.17,12.75-9.73,19.79-13.59C342.23,297.62,343.51,296.94,344.82,296.19Z"/><g class="cls-4"><path class="cls-5" d="M316.93,303.37c-1.22-6.23.41-12.65,2.41-18.68A73.25,73.25,0,0,1,327,267.81a36.12,36.12,0,0,1,13.29-12.66"/><path class="cls-5" d="M318.58,261a50.94,50.94,0,0,0,2.9,17.7"/><path class="cls-5" d="M322.34,276.62a44.15,44.15,0,0,1,23.29-8.35"/><path class="cls-5" d="M306.78,279.11c8,2.55,9.37,13.86,9.87,17.06"/><path class="cls-5" d="M318.08,288.76c5.51-4.77,15-9.87,21.42-8.87"/><path class="cls-5" d="M316.92,302.78c4.38-5.84,16.35-13,22.77-12"/><path class="cls-5" d="M331.4,256.91a9.35,9.35,0,0,0-1.43,6.78"/><path class="cls-5" d="M331.5,261.94a14.83,14.83,0,0,1,10.18-1.68"/></g><path class="cls-2" d="M205.64,347.08c-6.61-18.12-23.57-35-40.27-44.67-4.07-2.35-10-4.13-11.88,1.49-1.2,3.61-5.41,2.67-7.81,1-3-2.07-4.72-5.43-7.25-8a13.91,13.91,0,0,0-7.46-4,9.53,9.53,0,0,0-8,2.27c-1.58,1.5-2.53,3.62-4.28,4.93-2.93,2.19-7.2,1.37-10.32-.54s-5.58-4.74-8.6-6.81-7.1-3.28-10.32-1.54c-4.26,2.31-4.65,8.47-2.84,13,1.12,2.78,2.88,6.81,5,9a22.65,22.65,0,0,0,11.59,6c3.09.61,6.28.59,9.35,1.32,1.11.26,2.38.73,2.6,2,.32,1.84-2,3-3.29,3.64-2.3,1.16-4.58,3.69-3.51,6,.67,1.47,2.4,2.13,4,2.4,4.79.81,9.53-.57,14.07-2,2.76-.85,5.18-2.58,8-3.31,1.47-.38,5.24-.55,4.84,1.94a3.42,3.42,0,0,1-1.28,1.93,13.58,13.58,0,0,0-1.77,1.56c-2.18,2.65,0,5.76,2.84,6.45,2.2.53,4.49,0,6.69-.55,14.38-3.36,29.46-4.66,43.93-1.73,3.08.62,6.45,1.68,8,4.42"/><path class="cls-3" d="M190.13,335.66a71.4,71.4,0,0,0-39.23-18.08c-9.12-1.14-18.36-.54-27.51-1.33S104.75,313,98.13,307"/><path class="cls-6" d="M193.42,337.07s-25.15-16.73-32.25-33.7a27.63,27.63,0,0,1,11.27,5.6c3.63,5.13,12.28,13,18.15,18.12C191.42,329.89,192.36,333.18,193.42,337.07Z"/><path class="cls-2" d="M192.47,331.32c-.94-5.91-3.55-11.77-4.57-17.78a82,82,0,0,1-.11-28.88c1.52-8.15,4-16.69,1.28-24.94-.73-2.19-2.09-4.56-4.93-4.54a4.7,4.7,0,0,0-3,1.21c-2.07,1.84-2.45,4.48-2.79,7l-1.13,8.43c-.37,2.74-4.54,3.07-5.38.4l0-.07a18.65,18.65,0,0,1-.38-6.92c.39-5,1-10.1.27-15.11-.93-6.06-4.26-12.21-10.74-14.49a11.9,11.9,0,0,0-7.16-.25c-6.49,1.85-7.8,8-6.5,13.09.92,3.6,2.95,6.87,4.81,10.16,4.54,8,2.09,15.65,3.23,24.62C157.71,302.27,176.31,320.64,192.47,331.32Z"/><path class="cls-3" d="M156.95,246.4c13.59,16.44,8.68,55.26,32.36,76.21"/><path class="cls-3" d="M183.47,265.71c1.55,8.31-3.79,17.64-5,22.81s-1.89,14-.56,19.17"/><path class="cls-7" d="M144.45,346.91c-.59-3.32-9.87-24-20.61-18.49-6.38,3.3-5.23,15.43,4.73,24.59-2-1.89-4.21-4-6.88-4.57a5.32,5.32,0,0,0-4.29,1.37,5,5,0,0,0-1.29,3.6,14.15,14.15,0,0,0,6.3,12.11c-2.2-1.23-4.11-2.77-6.63-3a3.08,3.08,0,0,0-2.58,1.13c-.41.79-.38,3.76,4.47,6-19.78-3.75-20.93,4.68-13.82,4.68h58.31"/><path class="cls-8" d="M181.51,330.46c-.94-5.32-10.74-38.76-27.93-29.88-10.21,5.28-8.38,24.7,7.58,39.37-3.13-3-6.75-6.46-11-7.31a8.52,8.52,0,0,0-6.86,2.2c-1.54,1.42-2,3.66-2.06,5.76A22.66,22.66,0,0,0,151.3,360c-3.53-2-6.59-4.44-10.61-4.79-1.31-.11-3.53.64-4.13,1.8s-.61,6,7.15,9.57c-31.66-6-33.51,7.49-22.13,7.49H196.8"/><path class="cls-7" d="M350.89,346.91c.59-3.32,9.87-24,20.61-18.49,6.38,3.3,5.23,15.43-4.73,24.59,2-1.89,4.21-4,6.88-4.57a5.32,5.32,0,0,1,4.29,1.37,5,5,0,0,1,1.29,3.6,14.15,14.15,0,0,1-6.3,12.11c2.2-1.23,4.11-2.77,6.63-3a3.08,3.08,0,0,1,2.58,1.13c.41.79.38,3.76-4.47,6,19.78-3.75,20.93,4.68,13.82,4.68H333.18"/><path class="cls-8" d="M313.83,330.46c.94-5.32,10.74-38.76,27.93-29.88,10.21,5.28,8.38,24.7-7.58,39.37,3.13-3,6.75-6.46,11-7.31a8.52,8.52,0,0,1,6.86,2.2c1.54,1.42,2,3.66,2.06,5.76A22.66,22.66,0,0,1,344,360c3.53-2,6.59-4.44,10.61-4.79,1.31-.11,3.53.64,4.13,1.8s.61,6-7.15,9.57c31.66-6,33.51,7.49,22.13,7.49H298.54"/><path class="cls-9" d="M260.44,262c-8.71-2.4-15.34-9.79-15.86-18.81,0-.44,0-.87,0-1.3a2.61,2.61,0,0,1,0-.39,2.48,2.48,0,0,1,0-.39c0-.43,0-.86,0-1.3.52-9,7.15-16.41,15.86-18.81a77.72,77.72,0,0,0,56.92-74.86,76.68,76.68,0,0,0-1.28-14.06c-.14-.78-.29-1.55-.46-2.31-.12-.56-.24-1.12-.38-1.68a.36.36,0,0,0,0-.1c-.07-.29-.14-.58-.22-.87-.13-.56-.27-1.1-.43-1.65-.23-.84-.47-1.67-.73-2.5h-2.65c.09.27.18.54.25.81a.78.78,0,0,1,.05.14q.22.7.42,1.41c.09.31.18.61.25.92.14.49.27,1,.39,1.46.08.31.16.62.22.92.13.5.24,1,.34,1.49,0,.17.08.34.11.51s0,.13,0,.2q.18.85.33,1.71a75.16,75.16,0,0,1-53.82,86c-10,2.77-17.15,11.24-17.71,21.11,0,.48,0,1,0,1.44,0,.13,0,.27,0,.39s0,.27,0,.39c0,.48,0,1,0,1.44.56,9.87,7.68,18.35,17.71,21.11a75.17,75.17,0,0,1,53.82,86,73.15,73.15,0,0,1-5.83,18.25H171.63a73.53,73.53,0,0,1-5.84-18.26,75.23,75.23,0,0,1,53.83-86c10-2.76,17.14-11.24,17.71-21.11,0-.48,0-1,0-1.44,0-.12,0-.26,0-.39s0-.26,0-.39c0-.48,0-1,0-1.44-.57-9.87-7.68-18.34-17.71-21.11a75.23,75.23,0,0,1-53.83-86c.14-.79.3-1.57.47-2.36,0,0,0,0,0-.06.17-.76.34-1.52.53-2.28l0-.13c.15-.58.3-1.17.47-1.74,0,0,0-.09,0-.14.05-.22.12-.45.19-.67.11-.42.24-.83.37-1.24a.78.78,0,0,1,.05-.14c.07-.27.16-.54.25-.81h-2.65c-.26.83-.5,1.66-.73,2.5-.16.55-.3,1.09-.43,1.65-.08.29-.15.58-.22.87a.36.36,0,0,0,0,.1c-.14.56-.26,1.12-.38,1.68-.17.76-.32,1.53-.46,2.31A76.68,76.68,0,0,0,162,146.12,77.71,77.71,0,0,0,218.95,221c8.7,2.4,15.34,9.79,15.85,18.81,0,.44,0,.87,0,1.3,0,.13,0,.27,0,.39s0,.27,0,.39c0,.43,0,.86,0,1.3-.51,9-7.15,16.41-15.85,18.81A77.72,77.72,0,0,0,162,336.84a77.81,77.81,0,0,0,8,34.39H309.35a77.81,77.81,0,0,0,8-34.39A77.73,77.73,0,0,0,260.44,262Z"/><path class="cls-10" d="M314.83,336.84a74.81,74.81,0,0,1-1.24,13.61,73.15,73.15,0,0,1-5.83,18.25H171.63a73.53,73.53,0,0,1-5.84-18.26,75.23,75.23,0,0,1,53.83-86c10-2.76,17.14-11.24,17.71-21.11,0-.48,0-1,0-1.44,0-.12,0-.26,0-.39s0-.26,0-.39c0-.48,0-1,0-1.44-.57-9.87-7.68-18.34-17.71-21.11a75.23,75.23,0,0,1-53.83-86c.14-.79.3-1.57.47-2.36,0,0,0,0,0-.06.16-.76.34-1.52.53-2.28l0-.13c.16-.63.32-1.25.51-1.88s.36-1.28.56-1.91l.3-1h143l.3,1q.22.7.42,1.41c.09.31.18.61.25.92.14.49.27,1,.39,1.46.08.31.16.62.22.92.13.5.24,1,.34,1.49l.15.71q.18.85.33,1.71a75.16,75.16,0,0,1-53.82,86c-10,2.77-17.15,11.24-17.71,21.11,0,.48,0,1,0,1.44,0,.13,0,.27,0,.39s0,.27,0,.39c0,.48,0,1,0,1.44.56,9.87,7.68,18.35,17.71,21.11A75.35,75.35,0,0,1,314.83,336.84Z"/><path class="cls-11" d="M314.83,336.84a74.81,74.81,0,0,1-1.24,13.61,73.15,73.15,0,0,1-5.83,18.25H171.63a73.53,73.53,0,0,1-5.84-18.26,75.23,75.23,0,0,1,53.83-86c10-2.76,17.14-11.24,17.71-21.11,0-.48,0-1,0-1.44,0-.12,0-.26,0-.39s0-.26,0-.39c0-.48,0-1,0-1.44-.57-9.87-7.68-18.34-17.71-21.11a75.23,75.23,0,0,1-53.83-86c.14-.79.3-1.57.47-2.36,0,0,0,0,0-.06.16-.76.34-1.52.53-2.28l0-.13c.16-.63.32-1.25.51-1.88s.36-1.28.56-1.91l.3-1h143l.3,1q.22.7.42,1.41c.09.31.18.61.25.92.14.49.27,1,.39,1.46.08.31.16.62.22.92.13.5.24,1,.34,1.49l.15.71q.18.85.33,1.71a75.16,75.16,0,0,1-53.82,86c-10,2.77-17.15,11.24-17.71,21.11,0,.48,0,1,0,1.44,0,.13,0,.27,0,.39s0,.27,0,.39c0,.48,0,1,0,1.44.56,9.87,7.68,18.35,17.71,21.11A75.35,75.35,0,0,1,314.83,336.84Z"/><path class="cls-12" d="M177.72,190.37s11.85,19.42,40.27,28.35c7.28,2.14,9.73,3.72,13.92,7.58s5.62,10.65,5.46,16c-.06,4.16,2.33,65,2.33,72.58,0,7.15.93,1.85.72.32.74-43.06,1.61-74.73,1.61-74.73s2.58-13.54,6.56-15.4,18.44-8.58,24.35-10.24,20.21-14.69,20.21-14.69,18.16-25.9,19.26-29.21-8.21-3.63-8.21-3.63Z"/><ellipse class="cls-13" cx="244.01" cy="177.46" rx="69.76" ry="14.41" transform="translate(-24.55 39.95) rotate(-8.91)"/><g class="cls-14"><path class="cls-10" d="M219.25,209a7.57,7.57,0,0,1-2.46-.41,72.2,72.2,0,0,1-15-7.06,7.58,7.58,0,0,1,8.06-12.84,57.05,57.05,0,0,0,11.82,5.56A7.58,7.58,0,0,1,219.25,209Z"/><path class="cls-10" d="M189.61,186.64a7.57,7.57,0,0,1-6.4-3.51C170,162.36,173.4,139,173.55,138.05a7.58,7.58,0,0,1,15,2.28c0,.31-2.58,18.86,7.47,34.66a7.58,7.58,0,0,1-6.39,11.65Z"/></g><g class="cls-14"><path class="cls-10" d="M219.25,273.11a7.57,7.57,0,0,0-2.46.41,72.2,72.2,0,0,0-15,7.06,7.58,7.58,0,0,0,8.06,12.84,57,57,0,0,1,11.82-5.56,7.58,7.58,0,0,0-2.46-14.75Z"/><path class="cls-10" d="M189.61,295.47a7.57,7.57,0,0,0-6.4,3.51c-13.22,20.77-9.81,44.09-9.66,45.08a7.58,7.58,0,0,0,15-2.28c0-.31-2.58-18.86,7.47-34.66a7.58,7.58,0,0,0-6.39-11.65Z"/></g><path class="cls-15" d="M260.44,262c-8.71-2.4-15.34-9.79-15.86-18.81,0-.44,0-.87,0-1.3a2.61,2.61,0,0,1,0-.39,2.48,2.48,0,0,1,0-.39c0-.43,0-.86,0-1.3.52-9,7.15-16.41,15.86-18.81a77.72,77.72,0,0,0,56.92-74.86,76.68,76.68,0,0,0-1.28-14.06c-.14-.78-.29-1.55-.46-2.31-.12-.56-.24-1.12-.38-1.68a.36.36,0,0,0,0-.1c-.07-.29-.14-.58-.22-.87-.13-.56-.27-1.1-.43-1.65-.23-.84-.47-1.67-.73-2.5h-2.65c.09.26.17.54.25.81a.78.78,0,0,1,.05.14q.22.7.42,1.41c.09.31.18.61.25.92.14.49.27,1,.39,1.46.08.31.16.62.22.92.13.5.24,1,.34,1.49,0,.17.07.34.11.51s0,.13,0,.2q.18.85.33,1.71a75.16,75.16,0,0,1-53.82,86c-10,2.77-17.15,11.24-17.71,21.11,0,.48,0,1,0,1.44,0,.13,0,.27,0,.39s0,.27,0,.39c0,.48,0,1,0,1.44.56,9.87,7.68,18.35,17.71,21.11a75.17,75.17,0,0,1,53.82,86,73.15,73.15,0,0,1-5.83,18.25H171.63a73.53,73.53,0,0,1-5.84-18.26,75.23,75.23,0,0,1,53.83-86c10-2.76,17.14-11.24,17.71-21.11,0-.48,0-1,0-1.44,0-.12,0-.26,0-.39s0-.26,0-.39c0-.48,0-1,0-1.44-.57-9.87-7.68-18.34-17.71-21.11a75.23,75.23,0,0,1-53.83-86c.14-.79.3-1.58.47-2.36,0,0,0,0,0-.06.17-.76.34-1.52.53-2.28l0-.13c.15-.58.3-1.17.47-1.74,0,0,0-.09,0-.14.06-.22.12-.45.19-.67.11-.42.24-.83.37-1.24a.78.78,0,0,1,.05-.14c.08-.27.16-.55.25-.81h-2.65c-.26.83-.5,1.66-.73,2.5-.16.55-.3,1.09-.43,1.65-.08.29-.15.58-.22.87a.36.36,0,0,0,0,.1c-.14.56-.26,1.12-.38,1.68-.17.76-.32,1.53-.46,2.31A76.68,76.68,0,0,0,162,146.12,77.71,77.71,0,0,0,218.95,221c8.7,2.4,15.34,9.79,15.85,18.81,0,.44,0,.87,0,1.3,0,.13,0,.27,0,.39s0,.27,0,.39c0,.43,0,.86,0,1.3-.51,9-7.15,16.41-15.85,18.81A77.72,77.72,0,0,0,162,336.84a77.81,77.81,0,0,0,8,34.39H309.35a77.81,77.81,0,0,0,8-34.39A77.73,77.73,0,0,0,260.44,262Z"/><path class="cls-16" d="M336.49,367.1h0a7.35,7.35,0,0,1-7.35,7.35H150.23a7.35,7.35,0,0,1-7.35-7.35h0a7.35,7.35,0,0,1,7.35-7.35H329.15A7.35,7.35,0,0,1,336.49,367.1Z"/><ellipse class="cls-12" cx="295.6" cy="170.37" rx="3.63" ry="1.03" transform="translate(-28.86 64.87) rotate(-11.95)"/><ellipse class="cls-12" cx="292.36" cy="176.47" rx="2.32" ry="1.03" transform="translate(-30.19 64.33) rotate(-11.94)"/><ellipse class="cls-12" cx="286.63" cy="174.79" rx="2.32" ry="1.03" transform="translate(-29.97 63.11) rotate(-11.94)"/><ellipse class="cls-12" cx="248.06" cy="179.67" rx="1.25" ry="0.55" transform="translate(-31.81 55.23) rotate(-11.95)"/><ellipse class="cls-12" cx="278.67" cy="170.37" rx="1.25" ry="0.55" transform="translate(-29.23 61.37) rotate(-11.95)"/><ellipse class="cls-12" cx="267.57" cy="181.05" rx="1.25" ry="0.55" transform="translate(-31.68 59.31) rotate(-11.95)"/><ellipse class="cls-12" cx="252.77" cy="188.13" rx="1.25" ry="0.55" transform="translate(-33.46 56.39) rotate(-11.95)"/><path class="cls-12" d="M240.55,307.2,240,307l-.52.2s-4.47,35-52.48,52.55H293C245,342.17,240.55,307.2,240.55,307.2Z"/><ellipse class="cls-17" cx="239.69" cy="123.74" rx="74.39" ry="7.07"/><path class="cls-16" d="M329.15,112.86H150.24a7.35,7.35,0,1,0,0,14.69H329.15a7.35,7.35,0,1,0,0-14.69Z"/><line class="cls-18" y1="374.44" x2="410.54" y2="374.44"/><ellipse class="cls-19" cx="67.78" cy="411.46" rx="60.9" ry="5.15"/><path class="cls-20" d="M69.1,230.55a26.57,26.57,0,0,0-.3,7.27l.92.19h0l.68,0,.73-.78.34-4.94-.93-2.89L64,224.83l-1.05-.38Z"/><path class="cls-12" d="M63,244.27l2.66,6.34v0l7.7,0h.88a26.5,26.5,0,0,0,4.79,5.24l-.28,9.21,6.4,2.63L91,261.79l.2-.2a26.56,26.56,0,0,0,7.17.3l0,0,6.28,6.7,6-2.5.4-.17,0-8.58a26.33,26.33,0,0,0,5.26-4.81h0l9,.3h.2l2.63-6.4-6.09-6a26.49,26.49,0,0,0,.3-7.22v0L129,227l-2.67-6.38h0l-8.57,0a26.38,26.38,0,0,0-4.73-5.19v-.18l.21-9.08-6.4-2.63,0,0-6,6.06a26.53,26.53,0,0,0-7.05-.31l-.57-.6-5.8-6.11-.05,0L81,205.34l0,8.58a26.49,26.49,0,0,0-5.28,4.83l-9.17-.32L64,224.83l6.08,6a26.42,26.42,0,0,0-.3,7.17l0,0,0,0Z"/><circle class="cls-21" cx="96.34" cy="235.67" r="23.44" transform="translate(-28.32 13.68) rotate(-7.08)"/><circle class="cls-22" cx="95.9" cy="235.06" r="17.94" transform="translate(-28.25 13.62) rotate(-7.08)"/><line class="cls-23" x1="95.9" y1="217.11" x2="95.9" y2="219.42"/><line class="cls-23" x1="108.67" y1="222.55" x2="107.04" y2="224.19"/><line class="cls-23" x1="113.86" y1="235.44" x2="111.55" y2="235.44"/><line class="cls-23" x1="108.41" y1="248.22" x2="106.78" y2="246.59"/><line class="cls-23" x1="95.52" y1="253.41" x2="95.52" y2="251.09"/><line class="cls-23" x1="82.74" y1="247.96" x2="84.38" y2="246.32"/><line class="cls-23" x1="80.14" y1="235.07" x2="77.83" y2="235.07"/><line class="cls-23" x1="83.13" y1="222.41" x2="84.76" y2="224.04"/><line class="cls-23" x1="102.86" y1="218.43" x2="102.31" y2="219.75"/><line class="cls-23" x1="112.74" y1="228.22" x2="111.42" y2="228.77"/><line class="cls-23" x1="112.81" y1="242.13" x2="111.49" y2="241.58"/><line class="cls-23" x1="103.02" y1="252.01" x2="102.48" y2="250.69"/><line class="cls-23" x1="89.12" y1="252.08" x2="89.66" y2="250.76"/><line class="cls-23" x1="79.23" y1="242.29" x2="80.55" y2="241.75"/><line class="cls-23" x1="79.16" y1="228.39" x2="80.48" y2="228.93"/><line class="cls-23" x1="88.95" y1="218.5" x2="89.5" y2="219.82"/><circle class="cls-24" cx="95.9" cy="235.06" r="1.36"/><path class="cls-25" d="M94.39,235.62a1.74,1.74,0,0,0,1.74,1.74l.23,0,4.72,8,2.49,1.12a.48.48,0,0,0,.67-.53l-.51-2.68,0,0L97.14,237a1.34,1.34,0,0,0,.74-1.34,1.74,1.74,0,0,0-1.59-1.73l1.11-8.7-.77-2.05a.42.42,0,0,0-.77,0l-.86,2v0l.79,8.69A1.66,1.66,0,0,0,94.39,235.62Zm.89-10.46,8.76,21.2"/><path class="cls-12" d="M96.24,223.1l.63,1.67a.39.39,0,0,1,0,.19l-1.13,8.85-1-8.91a.39.39,0,0,1,0-.2l.69-1.61A.39.39,0,0,1,96.24,223.1Z"/><path class="cls-12" d="M104,245.8l-2.11-.94a.46.46,0,0,1-.21-.19L96.59,236l7.5,6.78a.46.46,0,0,1,.14.25l.43,2.26A.46.46,0,0,1,104,245.8Z"/><circle class="cls-26" cx="95.84" cy="235.26" r="1.74"/><circle class="cls-12" cx="95.84" cy="235.26" r="1.52"/><g id="_Grupo_" data-name="&lt;Grupo&gt;"><path id="_Trazado_" data-name="&lt;Trazado&gt;" class="cls-27" d="M72.12,210.54s9.49.27,4.47,11.1S72.12,210.54,72.12,210.54Z"/><path id="_Trazado_2" data-name="&lt;Trazado&gt;" class="cls-28" d="M74.76,214.48s2.56,1.57,2.52,10c0,.29,1,2.8,1.13,3.09.36,1.14-.36,1.21-1.33,1.69-.39,6.39-1.35,6.27-2.19,6.84s-8.31-.87-13-3.21-6.32-9.32-4.33-13.6S69.25,210.79,74.76,214.48Z"/><path id="_Trazado_3" data-name="&lt;Trazado&gt;" class="cls-27" d="M53.52,220.47c-.76,4,1.21,10.15,9.08,12.81,0,0,.7-2.42,1.2-4.8s7.18-5.1,10.07-7.69q.22-.19.41-.39a6,6,0,0,0,.07-7.89c-1.62-2-5.21-5.31-11.63-3.13C57,211.32,54.46,215.5,53.52,220.47Z"/><path id="_Trazado_4" data-name="&lt;Trazado&gt;" class="cls-28" d="M72.5,229.4c-1.24,1.34-1.47,4.06-1.37,6.65l.08,1.31a40.78,40.78,0,0,0,.71,4.87L62.84,242a55.52,55.52,0,0,0-.22-8.75S75.43,226.22,72.5,229.4Z"/><path id="_Trazado_5" data-name="&lt;Trazado&gt;" class="cls-29" d="M71.21,237.36a26.91,26.91,0,0,1-6-3c2.54.83,5.94,1.74,5.94,1.74Z"/></g><g id="_Grupo_2" data-name="&lt;Grupo&gt;"><path id="_Trazado_6" data-name="&lt;Trazado&gt;" class="cls-30" d="M77.68,301.75l-14.2-15.31s-8.6,9.09-7,19.08c.78,4.91,2.21,7.47,2.68,9.81.44,2.19,1.55,32.53.93,34.67s-3.93,7.91-5.69,14.19c-2.12,7.56-4.28,18.51-6,25s1.11,15.27,1.73,13.06c5.25-18.88,19-40.61,21.24-50.09S75.33,325.06,77.68,301.75Z"/><path id="_Trazado_7" data-name="&lt;Trazado&gt;" class="cls-30" d="M54.43,388.59s-4.35,12.35-4,13.92c.21,1,1.18,4.19,1.4,4.65.09.18,3.21,2.66,1.13,2.61s-6.9-6.5-7.61-7a3.07,3.07,0,0,1-1.43-3.17c.43-1.9,1.7-3.35,2.64-4.68s1.69-5.1,1.69-5.1Z"/><path id="_Trazado_8" data-name="&lt;Trazado&gt;" class="cls-27" d="M55.72,410.32a12.46,12.46,0,0,0-3.36-2.68h0c-.38-.49-.7-.8-.54-.49.27.52-1.12.79-1.8.23-2.38-1.91-3.06-4.75-4.23-6.1-1.67-1.92-.5-4.45-.32-4.88a11.06,11.06,0,0,0-3.42,1.53,6.41,6.41,0,0,0-1.81,2,27.34,27.34,0,0,1-1.63,3.72l2.25,1.79,2.18-2,.6.64a5.18,5.18,0,0,1,1.16,2.38,12.79,12.79,0,0,0,.57,1.76,5.45,5.45,0,0,0,1.66,2.31l1,.79a4,4,0,0,0,2.55.91H55a1,1,0,0,0,1-1.12A2.14,2.14,0,0,0,55.72,410.32Z"/></g><g id="_Grupo_3" data-name="&lt;Grupo&gt;"><path id="_Trazado_9" data-name="&lt;Trazado&gt;" class="cls-30" d="M88.54,408.42c-.31-.41-3.94-1.34-5.6-2.22a10,10,0,0,1-3.68-4.2c-.3-1,.21-5.72.44-7.71,1.58-13.71,6.43-32.91,7.52-40.92,1.9-13.92,1.38-28.52-2-51.44L66.6,284.76s-6.55,9.92-5.57,20.06c.57,5.88,5.29,7.2,5.9,9.53S76.39,354,76.39,354a68.5,68.5,0,0,0-4,16.2c-.78,7.32,1.28,15.56,1.13,24-.08,1.65-.15,5.62-.74,6.83-.73,1.48-2.41,3.15-2.51,5.1a3,3,0,0,0,2,2.84c1.38.57,2.24-.18,2.73-.16,2.83.14,3.44,2.15,8.32,2.59a7.74,7.74,0,0,0,5-1.58A1,1,0,0,0,88.54,408.42Z"/><path id="_Trazado_10" data-name="&lt;Trazado&gt;" class="cls-27" d="M88.8,410.18a3.62,3.62,0,0,1-1,1.12,5.15,5.15,0,0,1-3.14,1H82.27a5.49,5.49,0,0,1-2.76-.74,13.14,13.14,0,0,1-1.55-1,5.14,5.14,0,0,0-2.41-1.1,7,7,0,0,0-1.54,0l-.17,2.88H70.55a16.28,16.28,0,0,0-.84-4.12,5.57,5.57,0,0,1,.23-2.52,11.7,11.7,0,0,1,2.12-3.34c.13.45.83,3.15,3.35,3.57,1.75.3,4.08,2.08,7.13,2,.88,0,1.79-1.08,1.25-1.32s1,0,1.93.38a27.81,27.81,0,0,1,3.1,1.53C89.17,408.7,89.13,409.58,88.8,410.18Z"/></g><path id="_Trazado_11" data-name="&lt;Trazado&gt;" class="cls-28" d="M48.14,265.35s1,4.91,1.56,6.94,3.57,14.88,6.39,14.65,18.23-13.1,18.23-13.1l-2.18-4.37-13.57,6.47s-1.23-14.69-2.3-18.19Z"/><g id="_Grupo_4" data-name="&lt;Grupo&gt;"><path class="cls-29" d="M52.06,265.89c1.44,5.08,4.2,12.9,5.26,14.37.47.66,9.57-2.63,9.6-6.16l-9.43-10.69Z"/></g><path id="_Trazado_12" data-name="&lt;Trazado&gt;" class="cls-16" d="M60.63,242.27a16.41,16.41,0,0,0-8.24,2.8C46.51,249.44,47.91,266,47.91,266s-.29.86,3.62.64a28.13,28.13,0,0,0,7-1.33L57.44,252Z"/><path id="_Trazado_13" data-name="&lt;Trazado&gt;" class="cls-31" d="M50.85,252.27s-.49,9.5,1.23,14.29a15.51,15.51,0,0,0,3.19-.42Z"/><g id="_Grupo_5" data-name="&lt;Grupo&gt;"><path class="cls-16" d="M60.45,243.16c.16-1.08.45-2.33,1.45-2.76a3.14,3.14,0,0,1,.88-.19,29,29,0,0,1,5.79-.44,8.6,8.6,0,0,1,3.74.66c1.79.89,2.77,2.82,3.64,4.63Z"/></g><g id="_Grupo_6" data-name="&lt;Grupo&gt;" class="cls-32"><path class="cls-16" d="M60.45,243.16c.16-1.08.45-2.33,1.45-2.76a3.14,3.14,0,0,1,.88-.19,29,29,0,0,1,5.79-.44,8.6,8.6,0,0,1,3.74.66c1.79.89,2.77,2.82,3.64,4.63Z"/></g><path class="cls-33" d="M48.3,387.71c1.2-5.29,4.27-18.93,6.46-24.72s5.22-12,5.33-13c.09-.79-.71-6.65-1-8.54a.21.21,0,0,1,0-.13c0-.65-3.19-24.72-4.25-28.37a30.53,30.53,0,0,1-1.93-12.31c.37-6.59,5.61-14.45,7-15.88l24.26-.4s4.18,9.89,4.59,16c.84,12.89-.45,40-.45,40l-.05,0A101.22,101.22,0,0,1,87.52,351c-.73,5.35-8.17,49-8.17,49a13.4,13.4,0,0,1-6.61-.73,4.43,4.43,0,0,0,.05-.94c.28-5.27-2.11-22,0-32.29s3-12.46,3-12.46l-2.31-11.2c0-.19-.08-.65-.15-.65a87.65,87.65,0,0,1-1.65,10.72c-1.11,4.1-11.7,27.12-15.91,37-1.44,3.39-2.74,7.19-2.74,7.19s-5.05-.58-6.49-2.81A33.48,33.48,0,0,0,48.3,387.71Z"/><g id="_Grupo_7" data-name="&lt;Grupo&gt;"><path class="cls-16" d="M83.84,280.51c-.85-1.67-1.6-8.73-1.3-10.53s2-3,2.79-7.27A15.89,15.89,0,0,0,82.79,251c-1.79-2.61-4.26-7.9-4.77-8-7.49-2.28-8.71-1.19-13.75-1a33.4,33.4,0,0,0-6.54.75c-2.71.6-6,1.5-6.52,5.18a37,37,0,0,0,1.59,16.83c1.15,3.57,8,15.94,6.29,18.34a8.17,8.17,0,0,0-1.47,2.27c-.43,2.5,3.61,3.11,7.64,3.58a64.23,64.23,0,0,0,11.6-.07C88.24,288.12,84.2,281.21,83.84,280.51Z"/></g><path class="cls-27" d="M52.29,250.83c4.31,2.59,9.62,2.29,13.3,1.59-.17-2.94.08-9,.08-9a79.35,79.35,0,0,0,1.21,8.67A24.46,24.46,0,0,0,70,251.2s-2.9-14.24-2.9-20.5c0-5.38,5.68-9.08,5.68-9.08l-9.6-12.41a15.14,15.14,0,0,0-9.7,11.26C52.46,225,52.29,250.83,52.29,250.83Z"/><path class="cls-34" d="M61.29,306.38a20,20,0,0,0,3.49,7.43L73,344.58s.15-1.29.32-2.8c-2.66-11.19-6-26-6.36-27.42C66.38,312.25,62.45,311,61.29,306.38Z"/><g id="_Grupo_8" data-name="&lt;Grupo&gt;"><path id="_Trazado_14" data-name="&lt;Trazado&gt;" class="cls-28" d="M80.92,261.38s11.28,18.1,15.28,18.1c2.91,0,19.18-19.43,19.18-19.43l-5.51-1.48-13.3,9.16L88.5,254.44Z"/><path class="cls-28" d="M121.83,253.28a8.39,8.39,0,0,1,0-1c.12-.73.62-1.36.79-2.08a10.42,10.42,0,0,0,.11-1.74c0-.66.45-1.77-.09-1.85.11-.42.27-.89.36-1.31s0-.93-.32-.88c-.55.07-1.15.81-1.5,1.15s-1.18,1.64-1.59,2.14a6.05,6.05,0,0,1-2,1.61s.26-.47.06-.7-1.31.28-2.41.44c-.57.08-2,1.79-2.42,2.28s-.9,3.51-1,4.13c-.34,1.64-2.4,3.51-2.4,3.51l4.74,2.34c.11.05.63-.63.7-.71a3.18,3.18,0,0,1,1.07-.86c1.46-1.43,3.62-2.12,4.88-3.78a4.87,4.87,0,0,0,1-2.61Z"/><g id="_Grupo_9" data-name="&lt;Grupo&gt;"><path id="_Trazado_15" data-name="&lt;Trazado&gt;" class="cls-29" d="M117.61,249.29a6.31,6.31,0,0,1-2.06,1.23c-.51.27-.53.53-1.09.8.81.16.8-.35,2-.8a2.25,2.25,0,0,0,1.41-1,.19.19,0,0,0-.29-.23Z"/></g></g><g id="_Grupo_10" data-name="&lt;Grupo&gt;"><path class="cls-16" d="M71,241.58c2.4.12,10.1.65,14.83,7.6,2.65,3.89,5.54,8.47,6.85,12.08-.63,2.15-4.67,6.51-8.39,6.47-.19-.14-5.66-6.85-6.71-12.33Z"/></g><polyline class="cls-35" points="45.85 209.49 51.08 212.28 48.46 205.48"/><circle class="cls-35" cx="40.67" cy="200.79" r="11.06"/><path class="cls-36" d="M40,194.54a4.07,4.07,0,0,1,4.4,3.69,4,4,0,0,1-.33,1.94l-.38,1-1.35,3.5-1.43.13-1.43.13-1.92-3.21L37,200.8a4,4,0,0,1-.66-1.85,4.07,4.07,0,0,1,3.69-4.4m-.06-.62A4.68,4.68,0,0,0,35.72,199a4.63,4.63,0,0,0,.76,2.14l2.69,4.39,1.82-.16,1.82-.16,1.87-4.8a4.63,4.63,0,0,0,.38-2.24A4.68,4.68,0,0,0,40,193.92Z"/><path class="cls-36" d="M41.29,208.84h0a1.83,1.83,0,0,1-2-1.66l-.12-1.33,3.65-.32.12,1.33A1.83,1.83,0,0,1,41.29,208.84Z"/><path class="cls-36" d="M38.45,199.64a.31.31,0,0,1,0-.62l4-.35a.31.31,0,0,1,.05.62l-4,.35Z"/><path class="cls-36" d="M41,205.35a.31.31,0,0,1-.31-.28l-.52-5.89a.31.31,0,0,1,.28-.34.31.31,0,0,1,.34.28l.52,5.89a.31.31,0,0,1-.28.34Z"/><path class="cls-12" d="M278.78,340.69l4,4s4.89-3.5,4.87-4.26-3.57-4.6-4.56-4.57S278.78,340.69,278.78,340.69Z"/><path class="cls-12" d="M262.8,340.69l-4,4s-4.89-3.5-4.87-4.26,3.57-4.6,4.56-4.57S262.8,340.69,262.8,340.69Z"/><rect class="cls-37" x="268.81" y="333.31" width="3.95" height="3.36" transform="translate(541.58 669.97) rotate(180)"/><circle class="cls-12" cx="270.79" cy="353.76" r="18.13"/><path class="cls-21" d="M287.46,354.53a18.11,18.11,0,0,1-9,15.64,18.13,18.13,0,1,0-16.88-32,18.14,18.14,0,0,1,25.83,16.41Z"/><path class="cls-38" d="M252.67,353.76a18.12,18.12,0,0,0,28.61,14.79,18.58,18.58,0,0,1-8.51,2c-10,0-18.12-7.8-18.12-17.42s8.11-17.42,18.12-17.42a17.63,17.63,0,0,0-2-.11A18.12,18.12,0,0,0,252.67,353.76Z"/><circle class="cls-37" cx="270.79" cy="353.76" r="13.53"/><circle class="cls-39" cx="270.79" cy="353.76" r="12.4"/><path class="cls-12" d="M268,334.34h5.59s1-2.38.43-2.59a27.9,27.9,0,0,0-6.46,0C266.91,332,268,334.34,268,334.34Z"/><rect class="cls-37" x="268.28" y="344.63" width="1.41" height="10.32" rx="0.45" ry="0.45" transform="translate(653.08 566.98) rotate(157.05)"/><circle class="cls-37" cx="270.79" cy="353.76" r="1.97"/><path class="cls-38" d="M272.09,369.75a4.45,4.45,0,0,1,1.28.11,0,0,0,0,1,0,.06,4.44,4.44,0,0,1-1.28.11A.14.14,0,0,1,272.09,369.75Zm-1.91,0a1.2,1.2,0,0,0,.74.06,0,0,0,0,0,0-.06,5.68,5.68,0,0,1-.65-.22A.12.12,0,1,0,270.18,369.76Zm-11.9-25a6.61,6.61,0,0,1,.84-1.34c.14-.18-.1-.43-.26-.26a7,7,0,0,0-.94,1.38C257.79,344.75,258.17,345,258.28,344.72Zm-1.61,2.51c0,.28.39.41.44.12s.12-.62.19-.92.21-.47.17-.7h0c-.23.08-.35.37-.46.58A2.75,2.75,0,0,0,256.67,347.23Zm6.27-7a25.71,25.71,0,0,1,2.24-1.47c.23-.13.07-.54-.19-.44a11.43,11.43,0,0,0-2.45,1.23C262.14,339.87,262.53,340.54,262.94,340.26Z"/><path class="cls-40" d="M220.38,386.8a15.73,15.73,0,0,1-.79-13.19,16.19,16.19,0,0,1,4.67-6.55A17.82,17.82,0,0,1,230.6,364a15.65,15.65,0,0,1,11.8,1.36,16.73,16.73,0,0,1,6.48,7.55c1.38,3,2,6.66,4.92,8.58.85.55,2.25.77,2.67,1.79.5,1.21-.41,2.42-.89,3.47l-1.71,3.76c-.41.9-.8,2.45-1.88,2.78s-2.14-.53-3.12-.8c-2.56-.71-5.34.29-7.68,1.32-2.68,1.17-7.07.56-10,.31C225.74,393.61,222.84,391.64,220.38,386.8Z"/><path class="cls-41" d="M255.81,387.93s-8.26-4.08-12.21-6.31a17.92,17.92,0,0,1-3.57-2.46c-.93-.82-2.8-2.77-1.6-4.06,1.42-1.52,3.09,1,3.08,2.34a5.26,5.26,0,0,1-1.93,3.48,5.6,5.6,0,0,1-5.79-.1,1.32,1.32,0,0,1,.81-2.43c1.28.08,4.89,2.78,4.06,5a4.9,4.9,0,0,1-2.46,2.58c-2,1-4.54-1.54-1.76-2.43,2-.63,4.5,0,6.35.77,5.07,2,9,3.65,14,5.71"/><rect class="cls-16" x="250.53" y="388.13" width="9.33" height="0.92" transform="translate(714.15 314.51) rotate(114.12)"/><path class="cls-36" d="M256.42,393.92c-.11-.23-.43.56-.66.65l-.11-.56c-.23.08-.49.55-.61.33l-.07-.13a.54.54,0,0,0-.66-.25.54.54,0,0,1-.65-.24l-.2-.36a.48.48,0,0,1,0-.43l3.79-8.46a.48.48,0,0,1,.33-.27l.41-.09a.54.54,0,0,1,.61.33.54.54,0,0,0,.62.33l.15,0a.54.54,0,0,1,.61.3l0,.08a.54.54,0,0,0,.63.3l.11,0a.54.54,0,0,1,.63.31l0,.05a1,1,0,0,1,0,.77L258,394.09c-.11.24-.12-.31-.38-.21l-.46-1c-.24.09-.29,1.43-.41,1.2Z"/><path class="cls-16" d="M254.55,393.64h-.06a.15.15,0,0,1-.08-.2l1.77-3.94a.15.15,0,0,1,.28.12l-1.77,3.94A.15.15,0,0,1,254.55,393.64Z"/><path class="cls-16" d="M257.11,387.94H257a.15.15,0,0,1-.08-.2l1-2.19a.15.15,0,0,1,.28.12l-1,2.19A.15.15,0,0,1,257.11,387.94Z"/><path class="cls-16" d="M256.75,391.33h-.06a.15.15,0,0,1-.08-.2l2.56-5.72a.15.15,0,0,1,.28.12l-2.56,5.72A.15.15,0,0,1,256.75,391.33Z"/><path class="cls-16" d="M255.51,394.09h-.06a.15.15,0,0,1-.08-.2l.76-1.69a.15.15,0,1,1,.28.12l-.76,1.69A.15.15,0,0,1,255.51,394.09Z"/><path class="cls-16" d="M258.65,389.68h-.06a.15.15,0,0,1-.08-.2l1.37-3.06a.15.15,0,0,1,.28.12l-1.37,3.06A.15.15,0,0,1,258.65,389.68Z"/><path class="cls-16" d="M257.2,392.91h-.06a.15.15,0,0,1-.08-.2l.55-1.23a.15.15,0,0,1,.28.12l-.55,1.23A.15.15,0,0,1,257.2,392.91Z"/><path class="cls-16" d="M256.66,388.93h-.06a.15.15,0,0,1-.08-.2l.2-.44a.15.15,0,0,1,.28.12l-.2.44A.15.15,0,0,1,256.66,388.93Z"/><g class="cls-42"><path class="cls-40" d="M220.38,386.8a15.73,15.73,0,0,1-.79-13.19c.21-.49.43-1,.67-1.45-2.61,6.94.64,15.43,7.81,18.37,6,2.47,11.56,1.47,16.85-3.37a3.84,3.84,0,0,1,3.87-1.1c1.41.41,2.57,1.43,4,1.75a1.23,1.23,0,0,0,.66,0,1.33,1.33,0,0,0,.5-.37,9.72,9.72,0,0,0,2.36-4.49,1.49,1.49,0,0,1,.15.28c.5,1.21-.41,2.42-.89,3.47l-1.71,3.76c-.41.9-.8,2.45-1.88,2.78s-2.14-.53-3.12-.8c-2.56-.71-5.34.29-7.68,1.32-2.68,1.17-7.07.56-10,.31C225.74,393.61,222.84,391.64,220.38,386.8Z"/></g><ellipse class="cls-19" cx="308.41" cy="412.2" rx="94.98" ry="5.15"/><path class="cls-30" d="M332.49,397.44s-.28,7.32.1,9c.3,1.32,4.4,1.45,4.9.75s1.14-9.2,1.14-9.2"/><path class="cls-43" d="M338.62,408.38c0,.93.46,3.7-.67,3.7H326c-3.06,0-4.8-.39-4.88-.93-.32-2.2,10.38-5.91,11.4-5.9a.35.35,0,0,1,.13,0,1.47,1.47,0,0,1,.75.67,2.81,2.81,0,0,0,3.57,1.16,2.45,2.45,0,0,0,.72-.51A1.81,1.81,0,0,1,338.62,408.38Z"/><path class="cls-30" d="M376.78,399.09s1.29,3.47,1.85,4.63,4.4-.27,4.6-1.06-2.92-6.76-2.92-6.76"/><path class="cls-43" d="M385,403.38c1.21,2.42.92,3.55.54,3.78l-3.21,1.93h0c-.11.05-1.47.75-2.52,1.4a14.19,14.19,0,0,1-3.57,1.5c-3.28.76-5.82.39-6.08-.06-1.05-1.83,7.07-8.86,8-9.24a.34.34,0,0,1,.13,0,1.42,1.42,0,0,1,.93.36,2.39,2.39,0,0,0,2.79.33,2.85,2.85,0,0,0,1.19-1.3A2.44,2.44,0,0,1,385,403.38Z"/><path class="cls-33" d="M381.51,396.57a.5.5,0,0,1-.17.59,11.59,11.59,0,0,1-5,2.31l0,0c-.68-1.07-22-34.71-26.07-41.24l-.24-.39s0,0,0-.07a7.75,7.75,0,0,1-.66-1.3l-.1-.23a3.51,3.51,0,0,1-.22-.7c0-.14-.06-.27-.08-.42s0,0,0-.07c-.57-2.9-1.93-7.88-3.58-13.67-.94-3.28-2-6.82-3-10.4-.81-2.8-1.62-5.59-2.36-8.23L334,299.59a.5.5,0,0,1,.45-.62l4.77-.32c6.06-.41,13.45-3.46,15-4.14a.5.5,0,0,1,.55.11c6.94,6.94,5.62,15.65,4.78,20,0,0,0,0,0,0a23.34,23.34,0,0,0-.34,6.08c.48,6.27,1.41,18,1.5,26.1v0c0,.23.35,5.07,5,10.82a24.77,24.77,0,0,1,2.46,3.11C375.11,371.23,377.67,387.44,381.51,396.57Z"/><path class="cls-34" d="M376.34,399.45c-.68-1.07-22-34.71-26.07-41.24l-.24-.39s0,0,0-.07a7.75,7.75,0,0,1-.66-1.3l-.1-.23a3.51,3.51,0,0,1-.22-.7c0-.14-.06-.27-.08-.42s0,0,0-.07c-.57-2.88-1.91-7.79-3.54-13.52a.5.5,0,0,1,0-.31l9.51-25.51a.49.49,0,0,1,.46-.32h2.5a.49.49,0,0,1,.47.65c-.85,2.56-4,12.11-5.38,16.77-1.62,5.39-2.06,13.84-2.21,16.93-.32,6.79,8,18.32,10.42,22.52C363.7,376.74,375.39,397.58,376.34,399.45Z"/><path class="cls-33" d="M354.51,319.55c.71-.33,3.58-1.95,5.4-7.08a.51.51,0,0,0-.2-.59c-2.77-1.76-22.07-13.82-26.69-12.35-1.42.46-4.1,45.35-4.08,46.31,0,.47,0,5.34,0,5.9.3,7.65,3,45.71,3.28,49.93a.48.48,0,0,0,.41.45,32.21,32.21,0,0,0,5.24.35l.5-.43c1.21-10.21,6.47-29.44,3.82-41.49,0-.15-.05-.3-.08-.45s0-.55-.09-1c-.64-5.33-.66-3.77.8-10.49l0-.07c3.26-8.4,9.41-23.71,11.43-28.78A.45.45,0,0,1,354.51,319.55Z"/><path class="cls-16" d="M362.53,267.32c0,2.56-.18,5.11-.38,7.57-.27,3-.64,5.88-1,8.48-.9,6.2-1.89,10.8-1.79,11.91a6.07,6.07,0,0,0,.63,2,1.32,1.32,0,0,1-.3,1.53c-.41.18-.84.34-1.28.51-10.81,4-26.73.59-26.73.59-.66,0-1.32-.47-1.06-1.72a61.52,61.52,0,0,0,1.16-6.5c0-.9.22-3.94.73-8.16.18-1.5.39-3.13.64-4.88.2-1.48.44-3,.68-4.64.3-1.87.54-3.7.79-5.48.27-2,.53-4,.81-5.91a77.68,77.68,0,0,1,2-9.66,40.2,40.2,0,0,1,2.94-7.52c3-5.8,10.31-6.71,11.57-6.82a.47.47,0,0,1,.33.08c5.44,3.64,8.22,9.89,9.44,17A64.56,64.56,0,0,1,362.53,267.32Z"/><path class="cls-44" d="M351.7,252.13c-.43,5.4-2.44,22.81-10.75,30.54l-.11.08c-.43.23-3,1.47-7.85.83a.5.5,0,0,1-.44-.55c.32-2.63.74-5.67,1.24-8.91a.5.5,0,0,1,.1-.23L336,259.31s2.12-7.06,5-9.91c1.8-1.8,9.88,2.4,9.88,2.4A.49.49,0,0,1,351.7,252.13Z"/><path class="cls-29" d="M310.66,305.71a7.26,7.26,0,0,0-3,2.61h3.18"/><polygon class="cls-13" points="291.1 359.22 291.14 392.31 257.37 392.34 257.37 359.26 291.1 359.22"/><polygon class="cls-45" points="257.37 359.22 257.37 392.31 249.51 392.31 249.48 359.23 257.37 359.22"/><polygon class="cls-46" points="295.41 367.59 261.65 367.59 257.37 359.22 291.14 359.22 295.41 367.59"/><path class="cls-47" d="M223.6,394.58h78.32a4.59,4.59,0,0,0,4.59-4.59V311.26a1.13,1.13,0,0,1,1.13-1.13h13.43a1.18,1.18,0,0,0,0-2.36H307.64a3.5,3.5,0,0,0-3.49,3.49V390a2.23,2.23,0,0,1-2.23,2.23H223.6a1.18,1.18,0,0,0,0,2.36Z"/><circle class="cls-48" cx="291.62" cy="403.58" r="8.5"/><circle class="cls-10" cx="291.62" cy="403.58" r="4.36"/><circle class="cls-48" cx="236.77" cy="403.58" r="8.5"/><circle class="cls-10" cx="236.77" cy="403.58" r="4.36"/><path class="cls-30" d="M349.79,255.65a23.16,23.16,0,0,0,.57-4.3c-.47-4.39-5.11-3.59-5.95-3.06s-3.4,2.49-6.13,10.58c-1.88,5.57-3,9.87-3.7,12.55-.22.8-.53,1.77-.78,2.59l5.59,8C344,279.15,348.28,263.53,349.79,255.65Z"/><path class="cls-30" d="M330.77,280.37c-2.45,3.56-11.41,17.42-15.45,22.44l3.1,2.44c.13-.21.26-.44.42-.66l1.4-.93c2.71-3,5.74-5.48,10.08-9.89,4.49-4.58,8.64-9.38,10.32-12.33a51,51,0,0,0,2.68-4.73l-8.95-4.5A32,32,0,0,1,330.77,280.37Z"/><path class="cls-30" d="M316.53,301.23a11.1,11.1,0,0,1-2.4,2.46c-1,.49-2.36,1.53-3.31,1.92s-2.84,4.93-2.24,5.49a8.08,8.08,0,0,0,6.43.44c2.09-1,1.31-2.43,1.83-3.28a44.7,44.7,0,0,1,3.38-4.61l-.72-1.43Z"/><path class="cls-30" d="M352.39,238.68a4.32,4.32,0,0,1-.81,1l0,0c-1.94,1.88-5.39,2.23-6.87,2.29a.49.49,0,0,1-.5-.6,7.17,7.17,0,0,0-.36-3.45.5.5,0,0,0-.65-.31c-2.5.93-4.88,1.38-6.39.79a.57.57,0,0,1-.21-.14,17.22,17.22,0,0,1-2.72-4,.48.48,0,0,0-.5-.27c-.7.1-1.7.12-1.91-.46-.27-.75.24-3.4.45-4.39,0,0,0-.07,0-.11a7.74,7.74,0,0,0,0-2.52c-.06-.24-.58-.52-.71-.71a14.3,14.3,0,0,1-1.7-4.86.47.47,0,0,1,.19-.47c1.07-.77,5.35-3.84,5.69-3.91s10.24-1.9,10.58-1.76,5.32,6,6,12.36a9.14,9.14,0,0,1-1,5.64h0S350.77,237.3,352.39,238.68Z"/><path class="cls-16" d="M336.9,260c1.75,2.12,8.72,4.49,11.62,4.69,1.62-4.21,6.91-17.82,1-20.18C343,241.88,339.13,252,336.9,260Z"/><path class="cls-49" d="M351.56,239.75c-1.94,1.88-5.39,2.23-6.87,2.29a.49.49,0,0,1-.5-.6,7.34,7.34,0,0,0-.41-3.61.5.5,0,0,1,.16-.55,17,17,0,0,0,2-1.84.49.49,0,0,1,.86.35l-.21,4.49a.49.49,0,0,0,.45.52A6.82,6.82,0,0,0,351.56,239.75Z"/><path class="cls-37" d="M330.55,223.28c3.57,2,9.59,0,11.1.92s2.07,4.61,2.76,4.72.57-1,.48-2.36-.31-2.9,2.08-2.45c1.06.19,1.68,3.26,2.44,5.66a9,9,0,0,0,1.37,3,.49.49,0,0,0,.79-.09c3.85-6.71,3.08-21.55-7.15-21.45a.48.48,0,0,1-.3-.1,9.22,9.22,0,0,0-6.31-1.92h-.07c-2.91.3-11.54,3.2-13,6.08C322.95,218.72,328.71,222.21,330.55,223.28Z"/><g class="cls-50"><polyline class="cls-16" points="358.24 207.34 353.91 209.65 356.08 204.02"/><circle class="cls-16" cx="362.53" cy="200.13" r="9.17"/></g><path class="cls-51" d="M367.62,201.07a4.62,4.62,0,0,0,0-2.3l-.84.09a4.36,4.36,0,0,0-.49-1.21l.67-.53a4.65,4.65,0,0,0-1.08-1.27l-.1-.08a4.55,4.55,0,0,0-.43-.29l-.53.67-.13-.08-.15-.08a4.35,4.35,0,0,0-.92-.36l.09-.85a4.63,4.63,0,0,0-2.3,0l.09.85a4.35,4.35,0,0,0-1.21.48l-.53-.67a4.61,4.61,0,0,0-1.64,1.61l.66.53a4.35,4.35,0,0,0-.51,1.2l-.84-.09a4.62,4.62,0,0,0,0,2.3l.84-.09a4.35,4.35,0,0,0,.49,1.21l-.66.53a4.63,4.63,0,0,0,1.61,1.64l.53-.66a4.37,4.37,0,0,0,1.2.52l-.09.84a4.62,4.62,0,0,0,2.3,0l-.09-.83a4.36,4.36,0,0,0,1.21-.49l.53.66a4.62,4.62,0,0,0,1.64-1.61l-.66-.53a4.36,4.36,0,0,0,.51-1.2Zm-2.39-1.1a2.69,2.69,0,1,1-2.78-2.78A2.7,2.7,0,0,1,365.23,200Z"/><path class="cls-37" d="M175.9,20.68a3.13,3.13,0,0,0-.9,5.24,1.72,1.72,0,0,0-1.41,2,4.37,4.37,0,0,0,1.35,2.33,4,4,0,0,0,2.64,1.54,3,3,0,0,0,2-.88,3.73,3.73,0,0,0,.94-1.31,6.07,6.07,0,0,0,.34-1.81l.55-6.47a1.56,1.56,0,0,0-.25-1.25"/><path class="cls-30" d="M194.48,34.92c.14,2.8-.06,7.68.75,8.41s6.45.7,6.45.7-12.32,11.62-13.15,11-11.78-9.57-9.32-10,4.87-.36,4.8-1.64l-.21-3.82"/><g class="cls-42"><path class="cls-30" d="M194.48,34.92c.14,2.8-.06,7.68.75,8.41s6.45.7,6.45.7-12.32,11.62-13.15,11-11.78-9.57-9.32-10,4.87-.36,4.8-1.64l-.21-3.82"/></g><path class="cls-2" d="M212.48,77.16l-5.53,18.2L205,97.45s-16.56,1.88-21.62,2.11l-.6,0c-4.16.09-4-2.08-4-2.08,0-1-.11-2.23-.2-3.64-.35-5.21-1-12.51-1.65-15.38-.8-3.42-1.16-4.68-1.86-7.92-1.55-7.21-1.48-8.58-3.13-17.48l10.79-8.67s1.12,3.32,5.64,3.37c6.05.08,7.93-4.16,7.93-4.16L211.1,53.4Z"/><path class="cls-30" d="M194.69,32.38a31.15,31.15,0,0,1-1.27,4.15c-1,2.48-2.36,3.37-5,3.43l-5.53.13c-1.42,0-3.18.08-4.32-.91s-1.16-2.64-1.41-4q-.48-2.62-.78-5.26a77.7,77.7,0,0,1-.49-10.41,7.54,7.54,0,0,1,.12-1.42,1,1,0,0,1,.24-.52,1.16,1.16,0,0,1,.66-.26,56.75,56.75,0,0,1,10.46-.67c2.47.07,5.09.36,7,1.87s2.9,4,3.74,6.33c.14.38.24.88-.09,1.11"/><path class="cls-52" d="M155.17,158.3a38.09,38.09,0,0,0,1,4.66c.46,1.19,4.36.09,4.61-.67s-1.23-6.41-1.23-6.41"/><path class="cls-27" d="M162.18,163.27c.34,1.28.76,3.74.76,3.74L159,168.7l-.64-.6a7.22,7.22,0,0,1-2.16,1.72,16.16,16.16,0,0,1-3.77,1c-3.4.37-5.9-.27-6.1-.74-.84-2,3.67-2.5,4.56-2.73a6,6,0,0,0,4.27-4.28c.2-1-.06-1.21.52-1.18a1.37,1.37,0,0,1,1,.46,2.46,2.46,0,0,0,2.77.64,2.94,2.94,0,0,0,1.38-1.15A1.7,1.7,0,0,1,162.18,163.27Z"/><path class="cls-33" d="M183.42,99.56l-11.05,13.37q-.66.14-1.32.24a61.28,61.28,0,0,1-9.07.76,65.53,65.53,0,0,1-9.48-.53c.86,2.47,3,5.63,3.77,9.1,2.65,11.46,3.57,26.86,4.25,36.38,0,0-1.28,2.44-5.36.58-6.09-15.05-16.73-45.56-16.63-52.17A5.84,5.84,0,0,1,140.9,103l.24-.21a24.23,24.23,0,0,1,7.14-3.67,2.67,2.67,0,0,0,.26-.09c7.22-2.53,17.71-4.23,29.33-5.11l.27,0,.53,0h0c.09,1.41.16,2.66.2,3.63,0,0-.21,2.17,4,2.08Z"/><g class="cls-53"><path class="cls-54" d="M183.42,99.56l-11.05,13.37q-.66.14-1.32.24a53.64,53.64,0,0,1-9.07.76,7.54,7.54,0,0,1-.77-2c-.19-.92-.09-1.88-.25-2.8a6.5,6.5,0,0,0-3.17-4.27,14.22,14.22,0,0,0-5.18-1.68A68.28,68.28,0,0,0,140.9,103h-.06l.3-.21a31.5,31.5,0,0,1,7.14-3.67,2.67,2.67,0,0,0,.26-.09c9.6-3.55,22.12-4.63,29.33-5.11l.27,0,.53,0c.09,1.41.16,2.66.2,3.63,0,0-.21,2.17,4,2.08Z"/></g><path class="cls-52" d="M165.22,166.32a38.1,38.1,0,0,0,.22,4.77c.25,1.25,4.27.85,4.66.14s-.1-6.53-.1-6.53"/><path class="cls-27" d="M171.26,172.42c.11,1.32.1,3.81.1,3.81l-4.13,1-.53-.7a7.21,7.21,0,0,1-2.43,1.32,16.15,16.15,0,0,1-3.89.38c-3.41-.23-5.76-1.29-5.88-1.79-.49-2.08,4-1.82,5-1.9a6,6,0,0,0,4.95-3.47c.37-1,.15-1.2.72-1.07a1.37,1.37,0,0,1,.88.62,2.46,2.46,0,0,0,2.61,1.11,2.94,2.94,0,0,0,1.56-.89A1.7,1.7,0,0,1,171.26,172.42Z"/><path class="cls-33" d="M209.81,95.36c1.62,3.77,2.69,10.6,1.06,13.52-1.43,2.56-2.1,4.15-4.54,5-10.4,3.45-20.25,2-31.69.51,4.85,13.09-2.18,41.14-3.27,53-4.4,2-6.89-.12-6.89-.12.5-24.2-4.89-58-1.63-63.79,2-3.52,25.67-8.16,26.14-8.1"/><path class="cls-37" d="M191.65,28.14c.2-.83,1.49-.89,2.08-.27a3.63,3.63,0,0,1,.68,2.41,5.67,5.67,0,0,1-1,3c-.56.9-1.39,1.42-2.16.69a2.78,2.78,0,0,0,2.27,2.87A2.51,2.51,0,0,0,196,35.16c4.68,1.72,6.16-5.06,6.45-8.45a13.92,13.92,0,0,0-2.11-8.12A5.75,5.75,0,0,0,196.91,16,5.46,5.46,0,0,0,194,12a14,14,0,0,0-4.54-1.59c-1-.21-3.89.55-4.42,1.62-2-1.14-3.76,0-5.34.14s-3.34,1.65-2.66,3.09c-2.48-.75-5.17,2.07-4.43,4.55s4.33,3.45,6.32,1.78a4.77,4.77,0,0,0,4.35,2.55,9.26,9.26,0,0,0,5-1.71,3.73,3.73,0,0,0-.18,3.24c.48,1.07.88,1.86,2.46,1.53,0,0-.14,2.46.42,2.23S191.65,28.14,191.65,28.14Z"/><path class="cls-2" d="M160,89.22c6.31-9.09,9.68-16.26,15.17-25.87l7.66-19-3.08.18a23.74,23.74,0,0,0-6.38,1.21c-2.93,1.08-5.95,3.07-7.37,5.93-1.27,2.55-2,5.32-3.12,8-1.2,2.94-2.48,5.85-3.76,8.76-2.55,5.77-5.16,11.52-7.31,17.46"/><polygon class="cls-55" points="174.1 65.23 173.07 59.08 165.52 75.63 168.02 76.23 174.1 65.23"/><path d="M210.39,53.07a213.35,213.35,0,0,1,0,22.62c-.41,7.55-1.68,15-2.35,22.48,0,.43.64.51.74.1,1.75-7.14,2.2-14.79,2.58-22.1a188.11,188.11,0,0,0-.22-23.1c0-.49-.8-.5-.77,0Z"/><rect class="cls-56" x="142.56" y="97.03" width="58.35" height="2.1" transform="translate(343.48 196.17) rotate(180)"/><path class="cls-56" d="M132.15,99.13h46.71l-8.38-27.31a3.59,3.59,0,0,0-3.43-2.54H126.15a2.33,2.33,0,0,0-2.23,3Z"/><path class="cls-57" d="M131.57,99.13h46L169.2,71.83a3.59,3.59,0,0,0-3.43-2.54H124.86a2.33,2.33,0,0,0-2.23,3l8,26.16A1,1,0,0,0,131.57,99.13Z"/><circle class="cls-56" cx="148.3" cy="84.52" r="4.71"/><g class="cls-32"><path class="cls-58" d="M204.08,58c-2.41,10.88-3.17,23.42-3.84,31.2-9,.67-11.55,4.13-19.82,7.81,0,0-6.53-1.08-7.21,1.38-.4,1.42,7.64,2.55,7.64,2.55,7.66,0,26.23-3.55,27.59-3.93s7-28.07,7.15-42c0-2,0-4.13-1.28-5.67a7.43,7.43,0,0,0-2.49-1.84c-5.39-2.76-9.38-3.51-15.43-3.89"/></g><path class="cls-52" d="M181.56,98.72c-.91-1.14-2.56-1.31-4-1.27a29.41,29.41,0,0,0-3.23.26c-.49.07-1,.18-1.1.71s2.37,0,3.64.37a64,64,0,0,1-7.48.2,2.13,2.13,0,0,0-.86.09.71.71,0,0,0-.48.65.89.89,0,0,0,.34.57,5.06,5.06,0,0,0,2.57,1,19.81,19.81,0,0,0,11.36-1"/><path class="cls-2" d="M204.08,58c-.2,11.63-1.86,22.19-1.63,33.82-9,.67-13.61,2.42-21.87,6.1a4.36,4.36,0,0,0,.27,3c.63.23,27-.88,29.16-2.88,2-1.8,5.42-29.12,5.58-43.05,0-2,0-4.13-1.28-5.67a7.43,7.43,0,0,0-2.49-1.84c-5.39-2.76-9.38-3.51-15.43-3.89"/><path class="cls-30" d="M177.52,27.58s-2.78,4.88-2.36,5.51,3.7,0,3.7,0"/><g class="cls-4"><polyline class="cls-16" points="162.81 13.41 166.36 15.31 164.58 10.69"/><circle class="cls-16" cx="158.85" cy="7.51" r="7.51"/></g><polyline class="cls-59" points="155.69 6.79 157.97 9.63 162.01 5.39"/></g></g></g></svg>